%TF.GenerationSoftware,KiCad,Pcbnew,8.0.5*%
%TF.CreationDate,2025-11-20T22:30:18-08:00*%
%TF.ProjectId,transmitter,7472616e-736d-4697-9474-65722e6b6963,rev?*%
%TF.SameCoordinates,Original*%
%TF.FileFunction,Copper,L1,Top*%
%TF.FilePolarity,Positive*%
%FSLAX46Y46*%
G04 Gerber Fmt 4.6, Leading zero omitted, Abs format (unit mm)*
G04 Created by KiCad (PCBNEW 8.0.5) date 2025-11-20 22:30:18*
%MOMM*%
%LPD*%
G01*
G04 APERTURE LIST*
G04 Aperture macros list*
%AMRoundRect*
0 Rectangle with rounded corners*
0 $1 Rounding radius*
0 $2 $3 $4 $5 $6 $7 $8 $9 X,Y pos of 4 corners*
0 Add a 4 corners polygon primitive as box body*
4,1,4,$2,$3,$4,$5,$6,$7,$8,$9,$2,$3,0*
0 Add four circle primitives for the rounded corners*
1,1,$1+$1,$2,$3*
1,1,$1+$1,$4,$5*
1,1,$1+$1,$6,$7*
1,1,$1+$1,$8,$9*
0 Add four rect primitives between the rounded corners*
20,1,$1+$1,$2,$3,$4,$5,0*
20,1,$1+$1,$4,$5,$6,$7,0*
20,1,$1+$1,$6,$7,$8,$9,0*
20,1,$1+$1,$8,$9,$2,$3,0*%
G04 Aperture macros list end*
%TA.AperFunction,SMDPad,CuDef*%
%ADD10RoundRect,0.135000X-0.135000X-0.185000X0.135000X-0.185000X0.135000X0.185000X-0.135000X0.185000X0*%
%TD*%
%TA.AperFunction,ComponentPad*%
%ADD11C,2.900000*%
%TD*%
%TA.AperFunction,ConnectorPad*%
%ADD12C,5.000000*%
%TD*%
%TA.AperFunction,SMDPad,CuDef*%
%ADD13RoundRect,0.250000X0.475000X-0.250000X0.475000X0.250000X-0.475000X0.250000X-0.475000X-0.250000X0*%
%TD*%
%TA.AperFunction,SMDPad,CuDef*%
%ADD14RoundRect,0.375000X-0.625000X-0.375000X0.625000X-0.375000X0.625000X0.375000X-0.625000X0.375000X0*%
%TD*%
%TA.AperFunction,SMDPad,CuDef*%
%ADD15RoundRect,0.500000X-0.500000X-1.400000X0.500000X-1.400000X0.500000X1.400000X-0.500000X1.400000X0*%
%TD*%
%TA.AperFunction,SMDPad,CuDef*%
%ADD16RoundRect,0.147500X-0.147500X-0.172500X0.147500X-0.172500X0.147500X0.172500X-0.147500X0.172500X0*%
%TD*%
%TA.AperFunction,ComponentPad*%
%ADD17R,1.700000X1.700000*%
%TD*%
%TA.AperFunction,ComponentPad*%
%ADD18O,1.700000X1.700000*%
%TD*%
%TA.AperFunction,SMDPad,CuDef*%
%ADD19RoundRect,0.140000X0.170000X-0.140000X0.170000X0.140000X-0.170000X0.140000X-0.170000X-0.140000X0*%
%TD*%
%TA.AperFunction,SMDPad,CuDef*%
%ADD20RoundRect,0.147500X0.147500X0.172500X-0.147500X0.172500X-0.147500X-0.172500X0.147500X-0.172500X0*%
%TD*%
%TA.AperFunction,SMDPad,CuDef*%
%ADD21RoundRect,0.140000X0.140000X0.170000X-0.140000X0.170000X-0.140000X-0.170000X0.140000X-0.170000X0*%
%TD*%
%TA.AperFunction,ComponentPad*%
%ADD22R,1.498000X1.498000*%
%TD*%
%TA.AperFunction,ComponentPad*%
%ADD23C,1.498000*%
%TD*%
%TA.AperFunction,SMDPad,CuDef*%
%ADD24RoundRect,0.250000X-0.275000X0.312500X-0.275000X-0.312500X0.275000X-0.312500X0.275000X0.312500X0*%
%TD*%
%TA.AperFunction,ComponentPad*%
%ADD25C,1.440000*%
%TD*%
%TA.AperFunction,SMDPad,CuDef*%
%ADD26RoundRect,0.135000X0.135000X0.185000X-0.135000X0.185000X-0.135000X-0.185000X0.135000X-0.185000X0*%
%TD*%
%TA.AperFunction,ComponentPad*%
%ADD27R,1.508000X1.508000*%
%TD*%
%TA.AperFunction,ComponentPad*%
%ADD28C,1.508000*%
%TD*%
%TA.AperFunction,ComponentPad*%
%ADD29O,2.300000X4.600000*%
%TD*%
%TA.AperFunction,SMDPad,CuDef*%
%ADD30R,2.616200X1.219200*%
%TD*%
%TA.AperFunction,SMDPad,CuDef*%
%ADD31RoundRect,0.140000X-0.170000X0.140000X-0.170000X-0.140000X0.170000X-0.140000X0.170000X0.140000X0*%
%TD*%
%TA.AperFunction,SMDPad,CuDef*%
%ADD32R,1.663700X0.431800*%
%TD*%
%TA.AperFunction,ComponentPad*%
%ADD33C,1.700000*%
%TD*%
%TA.AperFunction,SMDPad,CuDef*%
%ADD34RoundRect,0.150000X-0.587500X-0.150000X0.587500X-0.150000X0.587500X0.150000X-0.587500X0.150000X0*%
%TD*%
%TA.AperFunction,ViaPad*%
%ADD35C,0.600000*%
%TD*%
%TA.AperFunction,Conductor*%
%ADD36C,0.500000*%
%TD*%
%TA.AperFunction,Conductor*%
%ADD37C,0.200000*%
%TD*%
G04 APERTURE END LIST*
D10*
%TO.P,R6,1*%
%TO.N,+3.3V*%
X104460000Y-107530000D03*
%TO.P,R6,2*%
%TO.N,Net-(D2-A)*%
X105480000Y-107530000D03*
%TD*%
D11*
%TO.P,H4,1,1*%
%TO.N,GND*%
X108000000Y-120000000D03*
D12*
X108000000Y-120000000D03*
%TD*%
D13*
%TO.P,C1,1*%
%TO.N,+9V*%
X83500000Y-115140000D03*
%TO.P,C1,2*%
%TO.N,GND*%
X83500000Y-113240000D03*
%TD*%
D14*
%TO.P,U3,1,GND*%
%TO.N,GND*%
X86000000Y-110540000D03*
%TO.P,U3,2,VO*%
%TO.N,+3.3V*%
X86000000Y-112840000D03*
D15*
X92300000Y-112840000D03*
D14*
%TO.P,U3,3,VI*%
%TO.N,+9V*%
X86000000Y-115140000D03*
%TD*%
D16*
%TO.P,D1,1,K*%
%TO.N,GND*%
X97750000Y-112580000D03*
%TO.P,D1,2,A*%
%TO.N,Net-(D1-A)*%
X98720000Y-112580000D03*
%TD*%
D17*
%TO.P,SW1,1,C*%
%TO.N,GND*%
X78160000Y-111090000D03*
D18*
%TO.P,SW1,2,B*%
%TO.N,+9V*%
X78160000Y-113630000D03*
%TO.P,SW1,3,A*%
%TO.N,Net-(BT1-+)*%
X78160000Y-116170000D03*
%TD*%
D19*
%TO.P,C2,1*%
%TO.N,GND*%
X94480000Y-82090000D03*
%TO.P,C2,2*%
%TO.N,+3.3V*%
X94480000Y-81130000D03*
%TD*%
D20*
%TO.P,D2,1,K*%
%TO.N,Net-(D2-K)*%
X107895000Y-107520000D03*
%TO.P,D2,2,A*%
%TO.N,Net-(D2-A)*%
X106925000Y-107520000D03*
%TD*%
D21*
%TO.P,C8,1*%
%TO.N,GND*%
X89930000Y-93510000D03*
%TO.P,C8,2*%
%TO.N,Net-(C8-Pad2)*%
X88970000Y-93510000D03*
%TD*%
D11*
%TO.P,H1,1,1*%
%TO.N,GND*%
X75910000Y-71780000D03*
D12*
X75910000Y-71780000D03*
%TD*%
D22*
%TO.P,SW2,1,1*%
%TO.N,Net-(C8-Pad2)*%
X86265000Y-95455000D03*
D23*
%TO.P,SW2,2,2*%
X92765000Y-95455000D03*
%TO.P,SW2,3,3*%
%TO.N,GND*%
X86265000Y-99955000D03*
%TO.P,SW2,4,4*%
X92765000Y-99955000D03*
%TD*%
D24*
%TO.P,C5,1*%
%TO.N,+3.3V*%
X94920000Y-112842500D03*
%TO.P,C5,2*%
%TO.N,GND*%
X94920000Y-114617500D03*
%TD*%
D25*
%TO.P,RV3,1,1*%
%TO.N,+3.3V*%
X102200000Y-61680000D03*
%TO.P,RV3,2,2*%
%TO.N,STEER_TRIM*%
X104740000Y-64220000D03*
%TO.P,RV3,3,3*%
%TO.N,GND*%
X107280000Y-61680000D03*
%TD*%
D26*
%TO.P,R5,1*%
%TO.N,GND*%
X103110000Y-107540000D03*
%TO.P,R5,2*%
%TO.N,LED*%
X102090000Y-107540000D03*
%TD*%
D25*
%TO.P,RV4,1,1*%
%TO.N,+3.3V*%
X76710000Y-61680000D03*
%TO.P,RV4,2,2*%
%TO.N,SPEED_TRIM*%
X79250000Y-64220000D03*
%TO.P,RV4,3,3*%
%TO.N,GND*%
X81790000Y-61680000D03*
%TD*%
D27*
%TO.P,RV1,1,1*%
%TO.N,+3.3V*%
X88950000Y-63710500D03*
D28*
%TO.P,RV1,2,2*%
%TO.N,STEER*%
X91450000Y-63710500D03*
%TO.P,RV1,3,3*%
%TO.N,GND*%
X93950000Y-63710500D03*
D29*
%TO.P,RV1,S1,S1*%
X87050000Y-56710500D03*
%TO.P,RV1,S2,S2*%
X95850000Y-56710500D03*
%TD*%
D11*
%TO.P,H2,1,1*%
%TO.N,GND*%
X107960000Y-53500000D03*
D12*
X107960000Y-53500000D03*
%TD*%
D30*
%TO.P,C3,1*%
%TO.N,+3.3V*%
X75069800Y-94940000D03*
%TO.P,C3,2*%
%TO.N,GND*%
X80480000Y-94940000D03*
%TD*%
D26*
%TO.P,R3,1*%
%TO.N,Net-(C8-Pad2)*%
X87590000Y-93510000D03*
%TO.P,R3,2*%
%TO.N,+3.3V*%
X86570000Y-93510000D03*
%TD*%
D19*
%TO.P,C7,1*%
%TO.N,Net-(U4-Vcap)*%
X83470000Y-83690000D03*
%TO.P,C7,2*%
%TO.N,GND*%
X83470000Y-82730000D03*
%TD*%
D31*
%TO.P,C6,1*%
%TO.N,GND*%
X83670000Y-88410000D03*
%TO.P,C6,2*%
%TO.N,+3.3V*%
X83670000Y-89370000D03*
%TD*%
D17*
%TO.P,BT1,1,+*%
%TO.N,Net-(BT1-+)*%
X91460000Y-119790000D03*
D18*
%TO.P,BT1,2,-*%
%TO.N,GND*%
X94000000Y-119790000D03*
%TD*%
D26*
%TO.P,R4,1*%
%TO.N,~{MCLR}*%
X92400000Y-93500000D03*
%TO.P,R4,2*%
%TO.N,Net-(C8-Pad2)*%
X91380000Y-93500000D03*
%TD*%
D32*
%TO.P,U4,1,~{MCLR}*%
%TO.N,~{MCLR}*%
X92751700Y-88929999D03*
%TO.P,U4,2,RA0*%
%TO.N,SPEED*%
X92751700Y-88279998D03*
%TO.P,U4,3,RA1*%
%TO.N,SPEED_TRIM*%
X92751700Y-87629999D03*
%TO.P,U4,4,PGED1/RB0*%
%TO.N,PGData*%
X92751700Y-86979998D03*
%TO.P,U4,5,PGEC1/RB1*%
%TO.N,PGClk*%
X92751700Y-86330000D03*
%TO.P,U4,6,RB2*%
%TO.N,LED*%
X92751700Y-85679998D03*
%TO.P,U4,7,RB3*%
%TO.N,unconnected-(U4-RB3-Pad7)*%
X92751700Y-85030000D03*
%TO.P,U4,8,Vss*%
%TO.N,GND*%
X92751700Y-84380001D03*
%TO.P,U4,9,RA2*%
%TO.N,STEER_TRIM*%
X92751700Y-83730000D03*
%TO.P,U4,10,RA3*%
%TO.N,STEER*%
X92751700Y-83080001D03*
%TO.P,U4,11,RB4*%
%TO.N,unconnected-(U4-RB4-Pad11)*%
X92751700Y-82430000D03*
%TO.P,U4,12,RA4*%
%TO.N,unconnected-(U4-RA4-Pad12)*%
X92751700Y-81780001D03*
%TO.P,U4,13,Vdd*%
%TO.N,+3.3V*%
X92751700Y-81130000D03*
%TO.P,U4,14,PGED3/5VT/RB5*%
%TO.N,unconnected-(U4-PGED3{slash}5VT{slash}RB5-Pad14)*%
X92751700Y-80480001D03*
%TO.P,U4,15,PGEC3/5VT/RB6*%
%TO.N,TXD*%
X85500000Y-80479999D03*
%TO.P,U4,16,5VT/RB7*%
%TO.N,RXD*%
X85500000Y-81130000D03*
%TO.P,U4,17,5VT/RB8*%
%TO.N,unconnected-(U4-5VT{slash}RB8-Pad17)*%
X85500000Y-81779999D03*
%TO.P,U4,18,PGED2/5VT/RB9*%
%TO.N,unconnected-(U4-PGED2{slash}5VT{slash}RB9-Pad18)*%
X85500000Y-82430000D03*
%TO.P,U4,19,Vss*%
%TO.N,GND*%
X85500000Y-83079998D03*
%TO.P,U4,20,Vcap*%
%TO.N,Net-(U4-Vcap)*%
X85500000Y-83730000D03*
%TO.P,U4,21,PGEC2/5VT/RB10*%
%TO.N,IRQ*%
X85500000Y-84379998D03*
%TO.P,U4,22,RB11*%
%TO.N,MISO*%
X85500000Y-85030000D03*
%TO.P,U4,23,RB12*%
%TO.N,CSN*%
X85500000Y-85679998D03*
%TO.P,U4,24,RB13*%
%TO.N,MOSI*%
X85500000Y-86330000D03*
%TO.P,U4,25,RB14*%
%TO.N,SCK*%
X85500000Y-86979998D03*
%TO.P,U4,26,RB15*%
%TO.N,CE*%
X85500000Y-87629999D03*
%TO.P,U4,27,AVss*%
%TO.N,GND*%
X85500000Y-88279998D03*
%TO.P,U4,28,AVdd*%
%TO.N,+3.3V*%
X85500000Y-88929999D03*
%TD*%
D17*
%TO.P,U2,1,GND*%
%TO.N,GND*%
X77620000Y-88720000D03*
D33*
%TO.P,U2,2,VCC*%
%TO.N,+3.3V*%
X75080000Y-88720000D03*
%TO.P,U2,3,CE*%
%TO.N,CE*%
X77620000Y-86180000D03*
%TO.P,U2,4,CSN*%
%TO.N,CSN*%
X75080000Y-86180000D03*
%TO.P,U2,5,SCK*%
%TO.N,SCK*%
X77620000Y-83640000D03*
%TO.P,U2,6,MOSI*%
%TO.N,MOSI*%
X75080000Y-83640000D03*
%TO.P,U2,7,MISO*%
%TO.N,MISO*%
X77620000Y-81100000D03*
%TO.P,U2,8,IRQ*%
%TO.N,IRQ*%
X75080000Y-81100000D03*
%TD*%
D10*
%TO.P,R1,1*%
%TO.N,+3.3V*%
X97720000Y-115180000D03*
%TO.P,R1,2*%
%TO.N,Net-(D1-A)*%
X98740000Y-115180000D03*
%TD*%
D17*
%TO.P,J2,1,Pin_1*%
%TO.N,TXD*%
X82860000Y-72410000D03*
D18*
%TO.P,J2,2,Pin_2*%
%TO.N,RXD*%
X82860000Y-74950000D03*
%TO.P,J2,3,Pin_3*%
%TO.N,GND*%
X82860000Y-77490000D03*
%TD*%
D17*
%TO.P,J1,1,Pin_1*%
%TO.N,~{MCLR}*%
X108620000Y-72965000D03*
D18*
%TO.P,J1,2,Pin_2*%
%TO.N,+3.3V*%
X106080000Y-72965000D03*
%TO.P,J1,3,Pin_3*%
%TO.N,GND*%
X103540000Y-72965000D03*
%TO.P,J1,4,Pin_4*%
%TO.N,PGData*%
X101000000Y-72965000D03*
%TO.P,J1,5,Pin_5*%
%TO.N,PGClk*%
X98460000Y-72965000D03*
%TD*%
D27*
%TO.P,RV2,1,1*%
%TO.N,+3.3V*%
X106350000Y-85230000D03*
D28*
%TO.P,RV2,2,2*%
%TO.N,SPEED*%
X103850000Y-85230000D03*
%TO.P,RV2,3,3*%
%TO.N,GND*%
X101350000Y-85230000D03*
D29*
%TO.P,RV2,S1,S1*%
X108250000Y-92230000D03*
%TO.P,RV2,S2,S2*%
X99450000Y-92230000D03*
%TD*%
D34*
%TO.P,Q2,1,G*%
%TO.N,LED*%
X104435000Y-102430000D03*
%TO.P,Q2,2,S*%
%TO.N,GND*%
X104435000Y-104330000D03*
%TO.P,Q2,3,D*%
%TO.N,Net-(D2-K)*%
X106310000Y-103380000D03*
%TD*%
D35*
%TO.N,GND*%
X94920000Y-115700000D03*
X103090000Y-108380000D03*
X84430000Y-110550000D03*
X96900000Y-111940000D03*
X82610000Y-82720000D03*
X95363802Y-81713802D03*
X89930000Y-94295000D03*
X82830000Y-88540000D03*
X82240000Y-113240000D03*
X94340000Y-84440000D03*
X104450000Y-105140000D03*
%TO.N,+3.3V*%
X82750000Y-89440000D03*
X104470000Y-108350000D03*
X95430000Y-80870000D03*
X85780000Y-93480000D03*
X97720000Y-116040000D03*
X96270000Y-112850000D03*
%TO.N,LED*%
X102830000Y-101780000D03*
X91370000Y-85690000D03*
%TO.N,SPEED*%
X94487509Y-87377510D03*
%TO.N,CSN*%
X83400000Y-85730000D03*
%TD*%
D36*
%TO.N,Net-(BT1-+)*%
X91460000Y-119790000D02*
X81780000Y-119790000D01*
X81780000Y-119790000D02*
X78160000Y-116170000D01*
D37*
%TO.N,GND*%
X81126100Y-94321022D02*
X81126100Y-91647378D01*
X104435000Y-104330000D02*
X104435000Y-105125000D01*
X92751700Y-84380001D02*
X94280001Y-84380001D01*
D36*
X83500000Y-113240000D02*
X82240000Y-113240000D01*
D37*
X80480000Y-94940000D02*
X80507122Y-94940000D01*
X94987604Y-82090000D02*
X95363802Y-81713802D01*
X96900000Y-111940000D02*
X97540000Y-112580000D01*
X80507122Y-94940000D02*
X81126100Y-94321022D01*
X97540000Y-112580000D02*
X97750000Y-112580000D01*
X83470000Y-82730000D02*
X83819998Y-83079998D01*
X103110000Y-108360000D02*
X103090000Y-108380000D01*
X94280001Y-84380001D02*
X94340000Y-84440000D01*
X83819998Y-83079998D02*
X85500000Y-83079998D01*
X85500000Y-88279998D02*
X83800002Y-88279998D01*
X83670000Y-88410000D02*
X82960000Y-88410000D01*
X82620000Y-82730000D02*
X82610000Y-82720000D01*
D36*
X84440000Y-110540000D02*
X84430000Y-110550000D01*
D37*
X82960000Y-88410000D02*
X82830000Y-88540000D01*
X89930000Y-94295000D02*
X89930000Y-93510000D01*
X83800002Y-88279998D02*
X83670000Y-88410000D01*
X78198722Y-88720000D02*
X77620000Y-88720000D01*
X104435000Y-105125000D02*
X104450000Y-105140000D01*
X103110000Y-107540000D02*
X103110000Y-108360000D01*
D36*
X86000000Y-110540000D02*
X84440000Y-110540000D01*
D37*
X81126100Y-91647378D02*
X78198722Y-88720000D01*
X83470000Y-82730000D02*
X82620000Y-82730000D01*
D36*
X94920000Y-114617500D02*
X94920000Y-115700000D01*
D37*
X94480000Y-82090000D02*
X94987604Y-82090000D01*
D36*
%TO.N,+9V*%
X78160000Y-113630000D02*
X79670000Y-115140000D01*
X79670000Y-115140000D02*
X83500000Y-115140000D01*
X83500000Y-115140000D02*
X86000000Y-115140000D01*
%TO.N,+3.3V*%
X94920000Y-112842500D02*
X96262500Y-112842500D01*
D37*
X95170000Y-81130000D02*
X95430000Y-80870000D01*
X83670000Y-89370000D02*
X82820000Y-89370000D01*
X74230000Y-89570000D02*
X75080000Y-88720000D01*
X85810000Y-93510000D02*
X85780000Y-93480000D01*
X104460000Y-107530000D02*
X104460000Y-108340000D01*
D36*
X94917500Y-112840000D02*
X94920000Y-112842500D01*
D37*
X85059999Y-89370000D02*
X85500000Y-88929999D01*
D36*
X92300000Y-112840000D02*
X94917500Y-112840000D01*
D37*
X86570000Y-93510000D02*
X85810000Y-93510000D01*
X74230000Y-94127322D02*
X74230000Y-89570000D01*
D36*
X96262500Y-112842500D02*
X96270000Y-112850000D01*
D37*
X97720000Y-115180000D02*
X97720000Y-116040000D01*
X104460000Y-108340000D02*
X104470000Y-108350000D01*
D36*
X92300000Y-112840000D02*
X86000000Y-112840000D01*
D37*
X83670000Y-89370000D02*
X85059999Y-89370000D01*
X75069800Y-94940000D02*
X75042678Y-94940000D01*
X82820000Y-89370000D02*
X82750000Y-89440000D01*
X75042678Y-94940000D02*
X74230000Y-94127322D01*
X94480000Y-81130000D02*
X95170000Y-81130000D01*
X94480000Y-81130000D02*
X92751700Y-81130000D01*
%TO.N,Net-(D2-K)*%
X107895000Y-107520000D02*
X107895000Y-104965000D01*
X107895000Y-104965000D02*
X106310000Y-103380000D01*
%TO.N,Net-(U4-Vcap)*%
X83470000Y-83690000D02*
X85460000Y-83690000D01*
X85460000Y-83690000D02*
X85500000Y-83730000D01*
%TO.N,Net-(C8-Pad2)*%
X87590000Y-93510000D02*
X88970000Y-93510000D01*
X86265000Y-95455000D02*
X87590000Y-94130000D01*
X86265000Y-95455000D02*
X92765000Y-95455000D01*
X92765000Y-95455000D02*
X91380000Y-94070000D01*
X91380000Y-94070000D02*
X91380000Y-93500000D01*
X87590000Y-94130000D02*
X87590000Y-93510000D01*
%TO.N,LED*%
X91380002Y-85679998D02*
X91370000Y-85690000D01*
X92751700Y-85679998D02*
X91380002Y-85679998D01*
X103785000Y-101780000D02*
X104435000Y-102430000D01*
X102090000Y-104775000D02*
X104435000Y-102430000D01*
X102090000Y-107540000D02*
X102090000Y-104775000D01*
X102830000Y-101780000D02*
X103785000Y-101780000D01*
%TO.N,Net-(D2-A)*%
X106915000Y-107530000D02*
X106925000Y-107520000D01*
X105480000Y-107530000D02*
X106915000Y-107530000D01*
%TO.N,PGClk*%
X93749448Y-86330000D02*
X98460000Y-81619448D01*
X98460000Y-81619448D02*
X98460000Y-72965000D01*
X92751700Y-86330000D02*
X93749448Y-86330000D01*
%TO.N,PGData*%
X93783550Y-86979998D02*
X101000000Y-79763548D01*
X101000000Y-79763548D02*
X101000000Y-72965000D01*
X92751700Y-86979998D02*
X93783550Y-86979998D01*
%TO.N,STEER*%
X92751700Y-83080001D02*
X91719850Y-83080001D01*
X91719850Y-83080001D02*
X91450000Y-82810151D01*
X91450000Y-82810151D02*
X91450000Y-63710500D01*
%TO.N,SPEED*%
X93585021Y-88279998D02*
X94487509Y-87377510D01*
X92751700Y-88279998D02*
X93585021Y-88279998D01*
%TO.N,CE*%
X79069999Y-87629999D02*
X77620000Y-86180000D01*
X85500000Y-87629999D02*
X79069999Y-87629999D01*
%TO.N,IRQ*%
X78096346Y-79950000D02*
X76230000Y-79950000D01*
X85500000Y-84379998D02*
X83946136Y-84379998D01*
X83946136Y-84379998D02*
X83946134Y-84380000D01*
X82526346Y-84380000D02*
X78096346Y-79950000D01*
X83946134Y-84380000D02*
X82526346Y-84380000D01*
X76230000Y-79950000D02*
X75080000Y-81100000D01*
%TO.N,SCK*%
X85500000Y-86979998D02*
X80959998Y-86979998D01*
X80959998Y-86979998D02*
X77620000Y-83640000D01*
%TO.N,MISO*%
X85500000Y-85030000D02*
X81550000Y-85030000D01*
X81550000Y-85030000D02*
X77620000Y-81100000D01*
%TO.N,CSN*%
X83450002Y-85679998D02*
X83400000Y-85730000D01*
X85500000Y-85679998D02*
X83450002Y-85679998D01*
%TO.N,MOSI*%
X81936346Y-86330000D02*
X78096346Y-82490000D01*
X76230000Y-82490000D02*
X75080000Y-83640000D01*
X85500000Y-86330000D02*
X81936346Y-86330000D01*
X78096346Y-82490000D02*
X76230000Y-82490000D01*
%TO.N,~{MCLR}*%
X92400000Y-93500000D02*
X92400000Y-89281699D01*
X93783550Y-88929999D02*
X108620000Y-74093549D01*
X92751700Y-88929999D02*
X93783550Y-88929999D01*
X108620000Y-74093549D02*
X108620000Y-72965000D01*
X92400000Y-89281699D02*
X92751700Y-88929999D01*
%TO.N,TXD*%
X85500000Y-75050000D02*
X85500000Y-80479999D01*
X82860000Y-72410000D02*
X85500000Y-75050000D01*
%TO.N,RXD*%
X84010000Y-80671850D02*
X84468150Y-81130000D01*
X84010000Y-76100000D02*
X84010000Y-80671850D01*
X82860000Y-74950000D02*
X84010000Y-76100000D01*
X84468150Y-81130000D02*
X85500000Y-81130000D01*
%TO.N,STEER_TRIM*%
X97310000Y-71650000D02*
X104740000Y-64220000D01*
X94196134Y-83730000D02*
X97310000Y-80616134D01*
X92751700Y-83730000D02*
X94196134Y-83730000D01*
X97310000Y-80616134D02*
X97310000Y-71650000D01*
%TO.N,SPEED_TRIM*%
X86631850Y-71581850D02*
X86631850Y-82541999D01*
X79270000Y-64220000D02*
X86631850Y-71581850D01*
X91719850Y-87629999D02*
X92751700Y-87629999D01*
X79250000Y-64220000D02*
X79270000Y-64220000D01*
X86631850Y-82541999D02*
X91719850Y-87629999D01*
%TO.N,Net-(D1-A)*%
X98740000Y-112600000D02*
X98720000Y-112580000D01*
X98740000Y-115180000D02*
X98740000Y-112600000D01*
%TD*%
M02*
