%TF.GenerationSoftware,KiCad,Pcbnew,8.0.5*%
%TF.CreationDate,2025-11-20T22:30:16-08:00*%
%TF.ProjectId,transmitter,7472616e-736d-4697-9474-65722e6b6963,rev?*%
%TF.SameCoordinates,Original*%
%TF.FileFunction,Drillmap*%
%TF.FilePolarity,Positive*%
%FSLAX45Y45*%
G04 Gerber Fmt 4.5, Leading zero omitted, Abs format (unit mm)*
G04 Created by KiCad (PCBNEW 8.0.5) date 2025-11-20 22:30:16*
%MOMM*%
%LPD*%
G01*
G04 APERTURE LIST*
%ADD10C,0.050000*%
%ADD11C,0.200000*%
%ADD12C,0.100000*%
%ADD13C,0.180000*%
%ADD14C,0.250000*%
G04 APERTURE END LIST*
D10*
X7300000Y-5041000D02*
X11100000Y-5041000D01*
X11100000Y-12300000D01*
X7300000Y-12300000D01*
X7300000Y-5041000D01*
D11*
D12*
X8209000Y-11309000D02*
X8239000Y-11339000D01*
X8239000Y-11309000D02*
X8209000Y-11339000D01*
X8246000Y-8257000D02*
X8276000Y-8287000D01*
X8276000Y-8257000D02*
X8246000Y-8287000D01*
X8260000Y-8929000D02*
X8290000Y-8959000D01*
X8290000Y-8929000D02*
X8260000Y-8959000D01*
X8268000Y-8839000D02*
X8298000Y-8869000D01*
X8298000Y-8839000D02*
X8268000Y-8869000D01*
X8325000Y-8558000D02*
X8355000Y-8588000D01*
X8355000Y-8558000D02*
X8325000Y-8588000D01*
X8428000Y-11040000D02*
X8458000Y-11070000D01*
X8458000Y-11040000D02*
X8428000Y-11070000D01*
X8563000Y-9333000D02*
X8593000Y-9363000D01*
X8593000Y-9333000D02*
X8563000Y-9363000D01*
X8978000Y-9414500D02*
X9008000Y-9444500D01*
X9008000Y-9414500D02*
X8978000Y-9444500D01*
X9122000Y-8554000D02*
X9152000Y-8584000D01*
X9152000Y-8554000D02*
X9122000Y-8584000D01*
X9419000Y-8429000D02*
X9449000Y-8459000D01*
X9449000Y-8429000D02*
X9419000Y-8459000D01*
X9433751Y-8722751D02*
X9463751Y-8752751D01*
X9463751Y-8722751D02*
X9433751Y-8752751D01*
X9477000Y-11555000D02*
X9507000Y-11585000D01*
X9507000Y-11555000D02*
X9477000Y-11585000D01*
X9521380Y-8156380D02*
X9551380Y-8186380D01*
X9551380Y-8156380D02*
X9521380Y-8186380D01*
X9528000Y-8072000D02*
X9558000Y-8102000D01*
X9558000Y-8072000D02*
X9528000Y-8102000D01*
X9612000Y-11270000D02*
X9642000Y-11300000D01*
X9642000Y-11270000D02*
X9612000Y-11300000D01*
X9675000Y-11179000D02*
X9705000Y-11209000D01*
X9705000Y-11179000D02*
X9675000Y-11209000D01*
X9757000Y-11589000D02*
X9787000Y-11619000D01*
X9787000Y-11589000D02*
X9757000Y-11619000D01*
X10268000Y-10163000D02*
X10298000Y-10193000D01*
X10298000Y-10163000D02*
X10268000Y-10193000D01*
X10294000Y-10823000D02*
X10324000Y-10853000D01*
X10324000Y-10823000D02*
X10294000Y-10853000D01*
X10430000Y-10499000D02*
X10460000Y-10529000D01*
X10460000Y-10499000D02*
X10430000Y-10529000D01*
X10432000Y-10820000D02*
X10462000Y-10850000D01*
X10462000Y-10820000D02*
X10432000Y-10850000D01*
X7711000Y-6168000D02*
G75*
G02*
X7631000Y-6168000I-40000J0D01*
G01*
X7631000Y-6168000D02*
G75*
G02*
X7711000Y-6168000I40000J0D01*
G01*
X7965000Y-6422000D02*
G75*
G02*
X7885000Y-6422000I-40000J0D01*
G01*
X7885000Y-6422000D02*
G75*
G02*
X7965000Y-6422000I40000J0D01*
G01*
X8219000Y-6168000D02*
G75*
G02*
X8139000Y-6168000I-40000J0D01*
G01*
X8139000Y-6168000D02*
G75*
G02*
X8219000Y-6168000I40000J0D01*
G01*
X10260000Y-6168000D02*
G75*
G02*
X10180000Y-6168000I-40000J0D01*
G01*
X10180000Y-6168000D02*
G75*
G02*
X10260000Y-6168000I40000J0D01*
G01*
X10514000Y-6422000D02*
G75*
G02*
X10434000Y-6422000I-40000J0D01*
G01*
X10434000Y-6422000D02*
G75*
G02*
X10514000Y-6422000I40000J0D01*
G01*
X10768000Y-6168000D02*
G75*
G02*
X10688000Y-6168000I-40000J0D01*
G01*
X10688000Y-6168000D02*
G75*
G02*
X10768000Y-6168000I40000J0D01*
G01*
X8626500Y-9496000D02*
X8626500Y-9595000D01*
X8577000Y-9545500D02*
X8676000Y-9545500D01*
X8626500Y-9946000D02*
X8626500Y-10045000D01*
X8577000Y-9995500D02*
X8676000Y-9995500D01*
X9276500Y-9496000D02*
X9276500Y-9595000D01*
X9227000Y-9545500D02*
X9326000Y-9545500D01*
X9276500Y-9946000D02*
X9276500Y-10045000D01*
X9227000Y-9995500D02*
X9326000Y-9995500D01*
X7543356Y-8145356D02*
X7543356Y-8074644D01*
X7472644Y-8074644D01*
X7472644Y-8145356D01*
X7543356Y-8145356D01*
X7543356Y-8399356D02*
X7543356Y-8328644D01*
X7472644Y-8328644D01*
X7472644Y-8399356D01*
X7543356Y-8399356D01*
X7543356Y-8653356D02*
X7543356Y-8582644D01*
X7472644Y-8582644D01*
X7472644Y-8653356D01*
X7543356Y-8653356D01*
X7543356Y-8907356D02*
X7543356Y-8836644D01*
X7472644Y-8836644D01*
X7472644Y-8907356D01*
X7543356Y-8907356D01*
X7797356Y-8145356D02*
X7797356Y-8074644D01*
X7726644Y-8074644D01*
X7726644Y-8145356D01*
X7797356Y-8145356D01*
X7797356Y-8399356D02*
X7797356Y-8328644D01*
X7726644Y-8328644D01*
X7726644Y-8399356D01*
X7797356Y-8399356D01*
X7797356Y-8653356D02*
X7797356Y-8582644D01*
X7726644Y-8582644D01*
X7726644Y-8653356D01*
X7797356Y-8653356D01*
X7797356Y-8907356D02*
X7797356Y-8836644D01*
X7726644Y-8836644D01*
X7726644Y-8907356D01*
X7797356Y-8907356D01*
X7851356Y-11144356D02*
X7851356Y-11073644D01*
X7780644Y-11073644D01*
X7780644Y-11144356D01*
X7851356Y-11144356D01*
X7851356Y-11398356D02*
X7851356Y-11327644D01*
X7780644Y-11327644D01*
X7780644Y-11398356D01*
X7851356Y-11398356D01*
X7851356Y-11652356D02*
X7851356Y-11581644D01*
X7780644Y-11581644D01*
X7780644Y-11652356D01*
X7851356Y-11652356D01*
X8321356Y-7276356D02*
X8321356Y-7205644D01*
X8250644Y-7205644D01*
X8250644Y-7276356D01*
X8321356Y-7276356D01*
X8321356Y-7530356D02*
X8321356Y-7459644D01*
X8250644Y-7459644D01*
X8250644Y-7530356D01*
X8321356Y-7530356D01*
X8321356Y-7784356D02*
X8321356Y-7713644D01*
X8250644Y-7713644D01*
X8250644Y-7784356D01*
X8321356Y-7784356D01*
X8930356Y-6406406D02*
X8930356Y-6335694D01*
X8859644Y-6335694D01*
X8859644Y-6406406D01*
X8930356Y-6406406D01*
X9180356Y-6406406D02*
X9180356Y-6335694D01*
X9109644Y-6335694D01*
X9109644Y-6406406D01*
X9180356Y-6406406D01*
X9181356Y-12014356D02*
X9181356Y-11943644D01*
X9110644Y-11943644D01*
X9110644Y-12014356D01*
X9181356Y-12014356D01*
X9430356Y-6406406D02*
X9430356Y-6335694D01*
X9359644Y-6335694D01*
X9359644Y-6406406D01*
X9430356Y-6406406D01*
X9435356Y-12014356D02*
X9435356Y-11943644D01*
X9364644Y-11943644D01*
X9364644Y-12014356D01*
X9435356Y-12014356D01*
X9881356Y-7331856D02*
X9881356Y-7261144D01*
X9810644Y-7261144D01*
X9810644Y-7331856D01*
X9881356Y-7331856D01*
X10135356Y-7331856D02*
X10135356Y-7261144D01*
X10064644Y-7261144D01*
X10064644Y-7331856D01*
X10135356Y-7331856D01*
X10170356Y-8558356D02*
X10170356Y-8487644D01*
X10099644Y-8487644D01*
X10099644Y-8558356D01*
X10170356Y-8558356D01*
X10389356Y-7331856D02*
X10389356Y-7261144D01*
X10318644Y-7261144D01*
X10318644Y-7331856D01*
X10389356Y-7331856D01*
X10420356Y-8558356D02*
X10420356Y-8487644D01*
X10349644Y-8487644D01*
X10349644Y-8558356D01*
X10420356Y-8558356D01*
X10643356Y-7331856D02*
X10643356Y-7261144D01*
X10572644Y-7261144D01*
X10572644Y-7331856D01*
X10643356Y-7331856D01*
X10670356Y-8558356D02*
X10670356Y-8487644D01*
X10599644Y-8487644D01*
X10599644Y-8558356D01*
X10670356Y-8558356D01*
X10897356Y-7331856D02*
X10897356Y-7261144D01*
X10826644Y-7261144D01*
X10826644Y-7331856D01*
X10897356Y-7331856D01*
D13*
X8705000Y-5761050D02*
X8795000Y-5671050D01*
X8705000Y-5581050D01*
X8615000Y-5671050D01*
X8705000Y-5761050D01*
D12*
X8615000Y-5651050D02*
X8615000Y-5691050D01*
X8795000Y-5691050D02*
G75*
G02*
X8615000Y-5691050I-90000J0D01*
G01*
X8795000Y-5691050D02*
X8795000Y-5651050D01*
X8795000Y-5651050D02*
G75*
G03*
X8615000Y-5651050I-90000J0D01*
G01*
D13*
X9585000Y-5761050D02*
X9675000Y-5671050D01*
X9585000Y-5581050D01*
X9495000Y-5671050D01*
X9585000Y-5761050D01*
D12*
X9495000Y-5651050D02*
X9495000Y-5691050D01*
X9675000Y-5691050D02*
G75*
G02*
X9495000Y-5691050I-90000J0D01*
G01*
X9675000Y-5691050D02*
X9675000Y-5651050D01*
X9675000Y-5651050D02*
G75*
G03*
X9495000Y-5651050I-90000J0D01*
G01*
D13*
X9945000Y-9313000D02*
X10035000Y-9223000D01*
X9945000Y-9133000D01*
X9855000Y-9223000D01*
X9945000Y-9313000D01*
D12*
X10035000Y-9243000D02*
X10035000Y-9203000D01*
X9855000Y-9203000D02*
G75*
G02*
X10035000Y-9203000I90000J0D01*
G01*
X9855000Y-9203000D02*
X9855000Y-9243000D01*
X9855000Y-9243000D02*
G75*
G03*
X10035000Y-9243000I90000J0D01*
G01*
D13*
X10825000Y-9313000D02*
X10915000Y-9223000D01*
X10825000Y-9133000D01*
X10735000Y-9223000D01*
X10825000Y-9313000D01*
D12*
X10915000Y-9243000D02*
X10915000Y-9203000D01*
X10735000Y-9203000D02*
G75*
G02*
X10915000Y-9203000I90000J0D01*
G01*
X10735000Y-9203000D02*
X10735000Y-9243000D01*
X10735000Y-9243000D02*
G75*
G03*
X10915000Y-9243000I90000J0D01*
G01*
D14*
X7466000Y-7053000D02*
X7716000Y-7303000D01*
X7716000Y-7053000D02*
X7466000Y-7303000D01*
X7716000Y-7178000D02*
G75*
G02*
X7466000Y-7178000I-125000J0D01*
G01*
X7466000Y-7178000D02*
G75*
G02*
X7716000Y-7178000I125000J0D01*
G01*
X10671000Y-5225000D02*
X10921000Y-5475000D01*
X10921000Y-5225000D02*
X10671000Y-5475000D01*
X10921000Y-5350000D02*
G75*
G02*
X10671000Y-5350000I-125000J0D01*
G01*
X10671000Y-5350000D02*
G75*
G02*
X10921000Y-5350000I125000J0D01*
G01*
X10675000Y-11875000D02*
X10925000Y-12125000D01*
X10925000Y-11875000D02*
X10675000Y-12125000D01*
X10925000Y-12000000D02*
G75*
G02*
X10675000Y-12000000I-125000J0D01*
G01*
X10675000Y-12000000D02*
G75*
G02*
X10925000Y-12000000I125000J0D01*
G01*
D11*
X7558277Y-12613984D02*
X7558277Y-12413984D01*
X7558277Y-12413984D02*
X7605896Y-12413984D01*
X7605896Y-12413984D02*
X7634467Y-12423508D01*
X7634467Y-12423508D02*
X7653515Y-12442555D01*
X7653515Y-12442555D02*
X7663039Y-12461603D01*
X7663039Y-12461603D02*
X7672562Y-12499698D01*
X7672562Y-12499698D02*
X7672562Y-12528269D01*
X7672562Y-12528269D02*
X7663039Y-12566365D01*
X7663039Y-12566365D02*
X7653515Y-12585412D01*
X7653515Y-12585412D02*
X7634467Y-12604460D01*
X7634467Y-12604460D02*
X7605896Y-12613984D01*
X7605896Y-12613984D02*
X7558277Y-12613984D01*
X7758277Y-12613984D02*
X7758277Y-12480650D01*
X7758277Y-12518746D02*
X7767801Y-12499698D01*
X7767801Y-12499698D02*
X7777324Y-12490174D01*
X7777324Y-12490174D02*
X7796372Y-12480650D01*
X7796372Y-12480650D02*
X7815420Y-12480650D01*
X7882086Y-12613984D02*
X7882086Y-12480650D01*
X7882086Y-12413984D02*
X7872562Y-12423508D01*
X7872562Y-12423508D02*
X7882086Y-12433031D01*
X7882086Y-12433031D02*
X7891610Y-12423508D01*
X7891610Y-12423508D02*
X7882086Y-12413984D01*
X7882086Y-12413984D02*
X7882086Y-12433031D01*
X8005896Y-12613984D02*
X7986848Y-12604460D01*
X7986848Y-12604460D02*
X7977324Y-12585412D01*
X7977324Y-12585412D02*
X7977324Y-12413984D01*
X8110658Y-12613984D02*
X8091610Y-12604460D01*
X8091610Y-12604460D02*
X8082086Y-12585412D01*
X8082086Y-12585412D02*
X8082086Y-12413984D01*
X8339229Y-12613984D02*
X8339229Y-12413984D01*
X8339229Y-12413984D02*
X8405896Y-12556841D01*
X8405896Y-12556841D02*
X8472563Y-12413984D01*
X8472563Y-12413984D02*
X8472563Y-12613984D01*
X8653515Y-12613984D02*
X8653515Y-12509222D01*
X8653515Y-12509222D02*
X8643991Y-12490174D01*
X8643991Y-12490174D02*
X8624944Y-12480650D01*
X8624944Y-12480650D02*
X8586848Y-12480650D01*
X8586848Y-12480650D02*
X8567801Y-12490174D01*
X8653515Y-12604460D02*
X8634467Y-12613984D01*
X8634467Y-12613984D02*
X8586848Y-12613984D01*
X8586848Y-12613984D02*
X8567801Y-12604460D01*
X8567801Y-12604460D02*
X8558277Y-12585412D01*
X8558277Y-12585412D02*
X8558277Y-12566365D01*
X8558277Y-12566365D02*
X8567801Y-12547317D01*
X8567801Y-12547317D02*
X8586848Y-12537793D01*
X8586848Y-12537793D02*
X8634467Y-12537793D01*
X8634467Y-12537793D02*
X8653515Y-12528269D01*
X8748753Y-12480650D02*
X8748753Y-12680650D01*
X8748753Y-12490174D02*
X8767801Y-12480650D01*
X8767801Y-12480650D02*
X8805896Y-12480650D01*
X8805896Y-12480650D02*
X8824944Y-12490174D01*
X8824944Y-12490174D02*
X8834467Y-12499698D01*
X8834467Y-12499698D02*
X8843991Y-12518746D01*
X8843991Y-12518746D02*
X8843991Y-12575888D01*
X8843991Y-12575888D02*
X8834467Y-12594936D01*
X8834467Y-12594936D02*
X8824944Y-12604460D01*
X8824944Y-12604460D02*
X8805896Y-12613984D01*
X8805896Y-12613984D02*
X8767801Y-12613984D01*
X8767801Y-12613984D02*
X8748753Y-12604460D01*
X8929705Y-12594936D02*
X8939229Y-12604460D01*
X8939229Y-12604460D02*
X8929705Y-12613984D01*
X8929705Y-12613984D02*
X8920182Y-12604460D01*
X8920182Y-12604460D02*
X8929705Y-12594936D01*
X8929705Y-12594936D02*
X8929705Y-12613984D01*
X8929705Y-12490174D02*
X8939229Y-12499698D01*
X8939229Y-12499698D02*
X8929705Y-12509222D01*
X8929705Y-12509222D02*
X8920182Y-12499698D01*
X8920182Y-12499698D02*
X8929705Y-12490174D01*
X8929705Y-12490174D02*
X8929705Y-12509222D01*
D12*
X7267500Y-12927500D02*
X7297500Y-12957500D01*
X7297500Y-12927500D02*
X7267500Y-12957500D01*
D11*
X7596372Y-12833984D02*
X7615420Y-12833984D01*
X7615420Y-12833984D02*
X7634467Y-12843508D01*
X7634467Y-12843508D02*
X7643991Y-12853031D01*
X7643991Y-12853031D02*
X7653515Y-12872079D01*
X7653515Y-12872079D02*
X7663039Y-12910174D01*
X7663039Y-12910174D02*
X7663039Y-12957793D01*
X7663039Y-12957793D02*
X7653515Y-12995888D01*
X7653515Y-12995888D02*
X7643991Y-13014936D01*
X7643991Y-13014936D02*
X7634467Y-13024460D01*
X7634467Y-13024460D02*
X7615420Y-13033984D01*
X7615420Y-13033984D02*
X7596372Y-13033984D01*
X7596372Y-13033984D02*
X7577324Y-13024460D01*
X7577324Y-13024460D02*
X7567801Y-13014936D01*
X7567801Y-13014936D02*
X7558277Y-12995888D01*
X7558277Y-12995888D02*
X7548753Y-12957793D01*
X7548753Y-12957793D02*
X7548753Y-12910174D01*
X7548753Y-12910174D02*
X7558277Y-12872079D01*
X7558277Y-12872079D02*
X7567801Y-12853031D01*
X7567801Y-12853031D02*
X7577324Y-12843508D01*
X7577324Y-12843508D02*
X7596372Y-12833984D01*
X7748753Y-13014936D02*
X7758277Y-13024460D01*
X7758277Y-13024460D02*
X7748753Y-13033984D01*
X7748753Y-13033984D02*
X7739229Y-13024460D01*
X7739229Y-13024460D02*
X7748753Y-13014936D01*
X7748753Y-13014936D02*
X7748753Y-13033984D01*
X7824943Y-12833984D02*
X7948753Y-12833984D01*
X7948753Y-12833984D02*
X7882086Y-12910174D01*
X7882086Y-12910174D02*
X7910658Y-12910174D01*
X7910658Y-12910174D02*
X7929705Y-12919698D01*
X7929705Y-12919698D02*
X7939229Y-12929222D01*
X7939229Y-12929222D02*
X7948753Y-12948269D01*
X7948753Y-12948269D02*
X7948753Y-12995888D01*
X7948753Y-12995888D02*
X7939229Y-13014936D01*
X7939229Y-13014936D02*
X7929705Y-13024460D01*
X7929705Y-13024460D02*
X7910658Y-13033984D01*
X7910658Y-13033984D02*
X7853515Y-13033984D01*
X7853515Y-13033984D02*
X7834467Y-13024460D01*
X7834467Y-13024460D02*
X7824943Y-13014936D01*
X8072562Y-12833984D02*
X8091610Y-12833984D01*
X8091610Y-12833984D02*
X8110658Y-12843508D01*
X8110658Y-12843508D02*
X8120182Y-12853031D01*
X8120182Y-12853031D02*
X8129705Y-12872079D01*
X8129705Y-12872079D02*
X8139229Y-12910174D01*
X8139229Y-12910174D02*
X8139229Y-12957793D01*
X8139229Y-12957793D02*
X8129705Y-12995888D01*
X8129705Y-12995888D02*
X8120182Y-13014936D01*
X8120182Y-13014936D02*
X8110658Y-13024460D01*
X8110658Y-13024460D02*
X8091610Y-13033984D01*
X8091610Y-13033984D02*
X8072562Y-13033984D01*
X8072562Y-13033984D02*
X8053515Y-13024460D01*
X8053515Y-13024460D02*
X8043991Y-13014936D01*
X8043991Y-13014936D02*
X8034467Y-12995888D01*
X8034467Y-12995888D02*
X8024943Y-12957793D01*
X8024943Y-12957793D02*
X8024943Y-12910174D01*
X8024943Y-12910174D02*
X8034467Y-12872079D01*
X8034467Y-12872079D02*
X8043991Y-12853031D01*
X8043991Y-12853031D02*
X8053515Y-12843508D01*
X8053515Y-12843508D02*
X8072562Y-12833984D01*
X8263039Y-12833984D02*
X8282086Y-12833984D01*
X8282086Y-12833984D02*
X8301134Y-12843508D01*
X8301134Y-12843508D02*
X8310658Y-12853031D01*
X8310658Y-12853031D02*
X8320182Y-12872079D01*
X8320182Y-12872079D02*
X8329705Y-12910174D01*
X8329705Y-12910174D02*
X8329705Y-12957793D01*
X8329705Y-12957793D02*
X8320182Y-12995888D01*
X8320182Y-12995888D02*
X8310658Y-13014936D01*
X8310658Y-13014936D02*
X8301134Y-13024460D01*
X8301134Y-13024460D02*
X8282086Y-13033984D01*
X8282086Y-13033984D02*
X8263039Y-13033984D01*
X8263039Y-13033984D02*
X8243991Y-13024460D01*
X8243991Y-13024460D02*
X8234467Y-13014936D01*
X8234467Y-13014936D02*
X8224943Y-12995888D01*
X8224943Y-12995888D02*
X8215420Y-12957793D01*
X8215420Y-12957793D02*
X8215420Y-12910174D01*
X8215420Y-12910174D02*
X8224943Y-12872079D01*
X8224943Y-12872079D02*
X8234467Y-12853031D01*
X8234467Y-12853031D02*
X8243991Y-12843508D01*
X8243991Y-12843508D02*
X8263039Y-12833984D01*
X8415420Y-13033984D02*
X8415420Y-12900650D01*
X8415420Y-12919698D02*
X8424944Y-12910174D01*
X8424944Y-12910174D02*
X8443991Y-12900650D01*
X8443991Y-12900650D02*
X8472563Y-12900650D01*
X8472563Y-12900650D02*
X8491610Y-12910174D01*
X8491610Y-12910174D02*
X8501134Y-12929222D01*
X8501134Y-12929222D02*
X8501134Y-13033984D01*
X8501134Y-12929222D02*
X8510658Y-12910174D01*
X8510658Y-12910174D02*
X8529705Y-12900650D01*
X8529705Y-12900650D02*
X8558277Y-12900650D01*
X8558277Y-12900650D02*
X8577325Y-12910174D01*
X8577325Y-12910174D02*
X8586848Y-12929222D01*
X8586848Y-12929222D02*
X8586848Y-13033984D01*
X8682086Y-13033984D02*
X8682086Y-12900650D01*
X8682086Y-12919698D02*
X8691610Y-12910174D01*
X8691610Y-12910174D02*
X8710658Y-12900650D01*
X8710658Y-12900650D02*
X8739229Y-12900650D01*
X8739229Y-12900650D02*
X8758277Y-12910174D01*
X8758277Y-12910174D02*
X8767801Y-12929222D01*
X8767801Y-12929222D02*
X8767801Y-13033984D01*
X8767801Y-12929222D02*
X8777325Y-12910174D01*
X8777325Y-12910174D02*
X8796372Y-12900650D01*
X8796372Y-12900650D02*
X8824944Y-12900650D01*
X8824944Y-12900650D02*
X8843991Y-12910174D01*
X8843991Y-12910174D02*
X8853515Y-12929222D01*
X8853515Y-12929222D02*
X8853515Y-13033984D01*
X9243991Y-12824460D02*
X9072563Y-13081603D01*
X9501134Y-12833984D02*
X9520182Y-12833984D01*
X9520182Y-12833984D02*
X9539229Y-12843508D01*
X9539229Y-12843508D02*
X9548753Y-12853031D01*
X9548753Y-12853031D02*
X9558277Y-12872079D01*
X9558277Y-12872079D02*
X9567801Y-12910174D01*
X9567801Y-12910174D02*
X9567801Y-12957793D01*
X9567801Y-12957793D02*
X9558277Y-12995888D01*
X9558277Y-12995888D02*
X9548753Y-13014936D01*
X9548753Y-13014936D02*
X9539229Y-13024460D01*
X9539229Y-13024460D02*
X9520182Y-13033984D01*
X9520182Y-13033984D02*
X9501134Y-13033984D01*
X9501134Y-13033984D02*
X9482087Y-13024460D01*
X9482087Y-13024460D02*
X9472563Y-13014936D01*
X9472563Y-13014936D02*
X9463039Y-12995888D01*
X9463039Y-12995888D02*
X9453515Y-12957793D01*
X9453515Y-12957793D02*
X9453515Y-12910174D01*
X9453515Y-12910174D02*
X9463039Y-12872079D01*
X9463039Y-12872079D02*
X9472563Y-12853031D01*
X9472563Y-12853031D02*
X9482087Y-12843508D01*
X9482087Y-12843508D02*
X9501134Y-12833984D01*
X9653515Y-13014936D02*
X9663039Y-13024460D01*
X9663039Y-13024460D02*
X9653515Y-13033984D01*
X9653515Y-13033984D02*
X9643991Y-13024460D01*
X9643991Y-13024460D02*
X9653515Y-13014936D01*
X9653515Y-13014936D02*
X9653515Y-13033984D01*
X9786848Y-12833984D02*
X9805896Y-12833984D01*
X9805896Y-12833984D02*
X9824944Y-12843508D01*
X9824944Y-12843508D02*
X9834468Y-12853031D01*
X9834468Y-12853031D02*
X9843991Y-12872079D01*
X9843991Y-12872079D02*
X9853515Y-12910174D01*
X9853515Y-12910174D02*
X9853515Y-12957793D01*
X9853515Y-12957793D02*
X9843991Y-12995888D01*
X9843991Y-12995888D02*
X9834468Y-13014936D01*
X9834468Y-13014936D02*
X9824944Y-13024460D01*
X9824944Y-13024460D02*
X9805896Y-13033984D01*
X9805896Y-13033984D02*
X9786848Y-13033984D01*
X9786848Y-13033984D02*
X9767801Y-13024460D01*
X9767801Y-13024460D02*
X9758277Y-13014936D01*
X9758277Y-13014936D02*
X9748753Y-12995888D01*
X9748753Y-12995888D02*
X9739229Y-12957793D01*
X9739229Y-12957793D02*
X9739229Y-12910174D01*
X9739229Y-12910174D02*
X9748753Y-12872079D01*
X9748753Y-12872079D02*
X9758277Y-12853031D01*
X9758277Y-12853031D02*
X9767801Y-12843508D01*
X9767801Y-12843508D02*
X9786848Y-12833984D01*
X10043991Y-13033984D02*
X9929706Y-13033984D01*
X9986848Y-13033984D02*
X9986848Y-12833984D01*
X9986848Y-12833984D02*
X9967801Y-12862555D01*
X9967801Y-12862555D02*
X9948753Y-12881603D01*
X9948753Y-12881603D02*
X9929706Y-12891127D01*
X10234468Y-13033984D02*
X10120182Y-13033984D01*
X10177325Y-13033984D02*
X10177325Y-12833984D01*
X10177325Y-12833984D02*
X10158277Y-12862555D01*
X10158277Y-12862555D02*
X10139229Y-12881603D01*
X10139229Y-12881603D02*
X10120182Y-12891127D01*
X10348753Y-12919698D02*
X10329706Y-12910174D01*
X10329706Y-12910174D02*
X10320182Y-12900650D01*
X10320182Y-12900650D02*
X10310658Y-12881603D01*
X10310658Y-12881603D02*
X10310658Y-12872079D01*
X10310658Y-12872079D02*
X10320182Y-12853031D01*
X10320182Y-12853031D02*
X10329706Y-12843508D01*
X10329706Y-12843508D02*
X10348753Y-12833984D01*
X10348753Y-12833984D02*
X10386849Y-12833984D01*
X10386849Y-12833984D02*
X10405896Y-12843508D01*
X10405896Y-12843508D02*
X10415420Y-12853031D01*
X10415420Y-12853031D02*
X10424944Y-12872079D01*
X10424944Y-12872079D02*
X10424944Y-12881603D01*
X10424944Y-12881603D02*
X10415420Y-12900650D01*
X10415420Y-12900650D02*
X10405896Y-12910174D01*
X10405896Y-12910174D02*
X10386849Y-12919698D01*
X10386849Y-12919698D02*
X10348753Y-12919698D01*
X10348753Y-12919698D02*
X10329706Y-12929222D01*
X10329706Y-12929222D02*
X10320182Y-12938746D01*
X10320182Y-12938746D02*
X10310658Y-12957793D01*
X10310658Y-12957793D02*
X10310658Y-12995888D01*
X10310658Y-12995888D02*
X10320182Y-13014936D01*
X10320182Y-13014936D02*
X10329706Y-13024460D01*
X10329706Y-13024460D02*
X10348753Y-13033984D01*
X10348753Y-13033984D02*
X10386849Y-13033984D01*
X10386849Y-13033984D02*
X10405896Y-13024460D01*
X10405896Y-13024460D02*
X10415420Y-13014936D01*
X10415420Y-13014936D02*
X10424944Y-12995888D01*
X10424944Y-12995888D02*
X10424944Y-12957793D01*
X10424944Y-12957793D02*
X10415420Y-12938746D01*
X10415420Y-12938746D02*
X10405896Y-12929222D01*
X10405896Y-12929222D02*
X10386849Y-12919698D01*
X10501134Y-12833984D02*
X10501134Y-12872079D01*
X10577325Y-12833984D02*
X10577325Y-12872079D01*
X10872563Y-13110174D02*
X10863039Y-13100650D01*
X10863039Y-13100650D02*
X10843991Y-13072079D01*
X10843991Y-13072079D02*
X10834468Y-13053031D01*
X10834468Y-13053031D02*
X10824944Y-13024460D01*
X10824944Y-13024460D02*
X10815420Y-12976841D01*
X10815420Y-12976841D02*
X10815420Y-12938746D01*
X10815420Y-12938746D02*
X10824944Y-12891127D01*
X10824944Y-12891127D02*
X10834468Y-12862555D01*
X10834468Y-12862555D02*
X10843991Y-12843508D01*
X10843991Y-12843508D02*
X10863039Y-12814936D01*
X10863039Y-12814936D02*
X10872563Y-12805412D01*
X10939230Y-12853031D02*
X10948753Y-12843508D01*
X10948753Y-12843508D02*
X10967801Y-12833984D01*
X10967801Y-12833984D02*
X11015420Y-12833984D01*
X11015420Y-12833984D02*
X11034468Y-12843508D01*
X11034468Y-12843508D02*
X11043991Y-12853031D01*
X11043991Y-12853031D02*
X11053515Y-12872079D01*
X11053515Y-12872079D02*
X11053515Y-12891127D01*
X11053515Y-12891127D02*
X11043991Y-12919698D01*
X11043991Y-12919698D02*
X10929706Y-13033984D01*
X10929706Y-13033984D02*
X11053515Y-13033984D01*
X11243991Y-13033984D02*
X11129706Y-13033984D01*
X11186848Y-13033984D02*
X11186848Y-12833984D01*
X11186848Y-12833984D02*
X11167801Y-12862555D01*
X11167801Y-12862555D02*
X11148753Y-12881603D01*
X11148753Y-12881603D02*
X11129706Y-12891127D01*
X11482087Y-13033984D02*
X11482087Y-12833984D01*
X11567801Y-13033984D02*
X11567801Y-12929222D01*
X11567801Y-12929222D02*
X11558277Y-12910174D01*
X11558277Y-12910174D02*
X11539230Y-12900650D01*
X11539230Y-12900650D02*
X11510658Y-12900650D01*
X11510658Y-12900650D02*
X11491610Y-12910174D01*
X11491610Y-12910174D02*
X11482087Y-12919698D01*
X11691610Y-13033984D02*
X11672563Y-13024460D01*
X11672563Y-13024460D02*
X11663039Y-13014936D01*
X11663039Y-13014936D02*
X11653515Y-12995888D01*
X11653515Y-12995888D02*
X11653515Y-12938746D01*
X11653515Y-12938746D02*
X11663039Y-12919698D01*
X11663039Y-12919698D02*
X11672563Y-12910174D01*
X11672563Y-12910174D02*
X11691610Y-12900650D01*
X11691610Y-12900650D02*
X11720182Y-12900650D01*
X11720182Y-12900650D02*
X11739230Y-12910174D01*
X11739230Y-12910174D02*
X11748753Y-12919698D01*
X11748753Y-12919698D02*
X11758277Y-12938746D01*
X11758277Y-12938746D02*
X11758277Y-12995888D01*
X11758277Y-12995888D02*
X11748753Y-13014936D01*
X11748753Y-13014936D02*
X11739230Y-13024460D01*
X11739230Y-13024460D02*
X11720182Y-13033984D01*
X11720182Y-13033984D02*
X11691610Y-13033984D01*
X11872563Y-13033984D02*
X11853515Y-13024460D01*
X11853515Y-13024460D02*
X11843991Y-13005412D01*
X11843991Y-13005412D02*
X11843991Y-12833984D01*
X12024944Y-13024460D02*
X12005896Y-13033984D01*
X12005896Y-13033984D02*
X11967801Y-13033984D01*
X11967801Y-13033984D02*
X11948753Y-13024460D01*
X11948753Y-13024460D02*
X11939230Y-13005412D01*
X11939230Y-13005412D02*
X11939230Y-12929222D01*
X11939230Y-12929222D02*
X11948753Y-12910174D01*
X11948753Y-12910174D02*
X11967801Y-12900650D01*
X11967801Y-12900650D02*
X12005896Y-12900650D01*
X12005896Y-12900650D02*
X12024944Y-12910174D01*
X12024944Y-12910174D02*
X12034468Y-12929222D01*
X12034468Y-12929222D02*
X12034468Y-12948269D01*
X12034468Y-12948269D02*
X11939230Y-12967317D01*
X12110658Y-13024460D02*
X12129706Y-13033984D01*
X12129706Y-13033984D02*
X12167801Y-13033984D01*
X12167801Y-13033984D02*
X12186849Y-13024460D01*
X12186849Y-13024460D02*
X12196372Y-13005412D01*
X12196372Y-13005412D02*
X12196372Y-12995888D01*
X12196372Y-12995888D02*
X12186849Y-12976841D01*
X12186849Y-12976841D02*
X12167801Y-12967317D01*
X12167801Y-12967317D02*
X12139230Y-12967317D01*
X12139230Y-12967317D02*
X12120182Y-12957793D01*
X12120182Y-12957793D02*
X12110658Y-12938746D01*
X12110658Y-12938746D02*
X12110658Y-12929222D01*
X12110658Y-12929222D02*
X12120182Y-12910174D01*
X12120182Y-12910174D02*
X12139230Y-12900650D01*
X12139230Y-12900650D02*
X12167801Y-12900650D01*
X12167801Y-12900650D02*
X12186849Y-12910174D01*
X12263039Y-13110174D02*
X12272563Y-13100650D01*
X12272563Y-13100650D02*
X12291611Y-13072079D01*
X12291611Y-13072079D02*
X12301134Y-13053031D01*
X12301134Y-13053031D02*
X12310658Y-13024460D01*
X12310658Y-13024460D02*
X12320182Y-12976841D01*
X12320182Y-12976841D02*
X12320182Y-12938746D01*
X12320182Y-12938746D02*
X12310658Y-12891127D01*
X12310658Y-12891127D02*
X12301134Y-12862555D01*
X12301134Y-12862555D02*
X12291611Y-12843508D01*
X12291611Y-12843508D02*
X12272563Y-12814936D01*
X12272563Y-12814936D02*
X12263039Y-12805412D01*
D12*
X7297500Y-13206500D02*
G75*
G02*
X7217500Y-13206500I-40000J0D01*
G01*
X7217500Y-13206500D02*
G75*
G02*
X7297500Y-13206500I40000J0D01*
G01*
D11*
X7596372Y-13097984D02*
X7615420Y-13097984D01*
X7615420Y-13097984D02*
X7634467Y-13107508D01*
X7634467Y-13107508D02*
X7643991Y-13117031D01*
X7643991Y-13117031D02*
X7653515Y-13136079D01*
X7653515Y-13136079D02*
X7663039Y-13174174D01*
X7663039Y-13174174D02*
X7663039Y-13221793D01*
X7663039Y-13221793D02*
X7653515Y-13259888D01*
X7653515Y-13259888D02*
X7643991Y-13278936D01*
X7643991Y-13278936D02*
X7634467Y-13288460D01*
X7634467Y-13288460D02*
X7615420Y-13297984D01*
X7615420Y-13297984D02*
X7596372Y-13297984D01*
X7596372Y-13297984D02*
X7577324Y-13288460D01*
X7577324Y-13288460D02*
X7567801Y-13278936D01*
X7567801Y-13278936D02*
X7558277Y-13259888D01*
X7558277Y-13259888D02*
X7548753Y-13221793D01*
X7548753Y-13221793D02*
X7548753Y-13174174D01*
X7548753Y-13174174D02*
X7558277Y-13136079D01*
X7558277Y-13136079D02*
X7567801Y-13117031D01*
X7567801Y-13117031D02*
X7577324Y-13107508D01*
X7577324Y-13107508D02*
X7596372Y-13097984D01*
X7748753Y-13278936D02*
X7758277Y-13288460D01*
X7758277Y-13288460D02*
X7748753Y-13297984D01*
X7748753Y-13297984D02*
X7739229Y-13288460D01*
X7739229Y-13288460D02*
X7748753Y-13278936D01*
X7748753Y-13278936D02*
X7748753Y-13297984D01*
X7872562Y-13183698D02*
X7853515Y-13174174D01*
X7853515Y-13174174D02*
X7843991Y-13164650D01*
X7843991Y-13164650D02*
X7834467Y-13145603D01*
X7834467Y-13145603D02*
X7834467Y-13136079D01*
X7834467Y-13136079D02*
X7843991Y-13117031D01*
X7843991Y-13117031D02*
X7853515Y-13107508D01*
X7853515Y-13107508D02*
X7872562Y-13097984D01*
X7872562Y-13097984D02*
X7910658Y-13097984D01*
X7910658Y-13097984D02*
X7929705Y-13107508D01*
X7929705Y-13107508D02*
X7939229Y-13117031D01*
X7939229Y-13117031D02*
X7948753Y-13136079D01*
X7948753Y-13136079D02*
X7948753Y-13145603D01*
X7948753Y-13145603D02*
X7939229Y-13164650D01*
X7939229Y-13164650D02*
X7929705Y-13174174D01*
X7929705Y-13174174D02*
X7910658Y-13183698D01*
X7910658Y-13183698D02*
X7872562Y-13183698D01*
X7872562Y-13183698D02*
X7853515Y-13193222D01*
X7853515Y-13193222D02*
X7843991Y-13202746D01*
X7843991Y-13202746D02*
X7834467Y-13221793D01*
X7834467Y-13221793D02*
X7834467Y-13259888D01*
X7834467Y-13259888D02*
X7843991Y-13278936D01*
X7843991Y-13278936D02*
X7853515Y-13288460D01*
X7853515Y-13288460D02*
X7872562Y-13297984D01*
X7872562Y-13297984D02*
X7910658Y-13297984D01*
X7910658Y-13297984D02*
X7929705Y-13288460D01*
X7929705Y-13288460D02*
X7939229Y-13278936D01*
X7939229Y-13278936D02*
X7948753Y-13259888D01*
X7948753Y-13259888D02*
X7948753Y-13221793D01*
X7948753Y-13221793D02*
X7939229Y-13202746D01*
X7939229Y-13202746D02*
X7929705Y-13193222D01*
X7929705Y-13193222D02*
X7910658Y-13183698D01*
X8072562Y-13097984D02*
X8091610Y-13097984D01*
X8091610Y-13097984D02*
X8110658Y-13107508D01*
X8110658Y-13107508D02*
X8120182Y-13117031D01*
X8120182Y-13117031D02*
X8129705Y-13136079D01*
X8129705Y-13136079D02*
X8139229Y-13174174D01*
X8139229Y-13174174D02*
X8139229Y-13221793D01*
X8139229Y-13221793D02*
X8129705Y-13259888D01*
X8129705Y-13259888D02*
X8120182Y-13278936D01*
X8120182Y-13278936D02*
X8110658Y-13288460D01*
X8110658Y-13288460D02*
X8091610Y-13297984D01*
X8091610Y-13297984D02*
X8072562Y-13297984D01*
X8072562Y-13297984D02*
X8053515Y-13288460D01*
X8053515Y-13288460D02*
X8043991Y-13278936D01*
X8043991Y-13278936D02*
X8034467Y-13259888D01*
X8034467Y-13259888D02*
X8024943Y-13221793D01*
X8024943Y-13221793D02*
X8024943Y-13174174D01*
X8024943Y-13174174D02*
X8034467Y-13136079D01*
X8034467Y-13136079D02*
X8043991Y-13117031D01*
X8043991Y-13117031D02*
X8053515Y-13107508D01*
X8053515Y-13107508D02*
X8072562Y-13097984D01*
X8263039Y-13097984D02*
X8282086Y-13097984D01*
X8282086Y-13097984D02*
X8301134Y-13107508D01*
X8301134Y-13107508D02*
X8310658Y-13117031D01*
X8310658Y-13117031D02*
X8320182Y-13136079D01*
X8320182Y-13136079D02*
X8329705Y-13174174D01*
X8329705Y-13174174D02*
X8329705Y-13221793D01*
X8329705Y-13221793D02*
X8320182Y-13259888D01*
X8320182Y-13259888D02*
X8310658Y-13278936D01*
X8310658Y-13278936D02*
X8301134Y-13288460D01*
X8301134Y-13288460D02*
X8282086Y-13297984D01*
X8282086Y-13297984D02*
X8263039Y-13297984D01*
X8263039Y-13297984D02*
X8243991Y-13288460D01*
X8243991Y-13288460D02*
X8234467Y-13278936D01*
X8234467Y-13278936D02*
X8224943Y-13259888D01*
X8224943Y-13259888D02*
X8215420Y-13221793D01*
X8215420Y-13221793D02*
X8215420Y-13174174D01*
X8215420Y-13174174D02*
X8224943Y-13136079D01*
X8224943Y-13136079D02*
X8234467Y-13117031D01*
X8234467Y-13117031D02*
X8243991Y-13107508D01*
X8243991Y-13107508D02*
X8263039Y-13097984D01*
X8415420Y-13297984D02*
X8415420Y-13164650D01*
X8415420Y-13183698D02*
X8424944Y-13174174D01*
X8424944Y-13174174D02*
X8443991Y-13164650D01*
X8443991Y-13164650D02*
X8472563Y-13164650D01*
X8472563Y-13164650D02*
X8491610Y-13174174D01*
X8491610Y-13174174D02*
X8501134Y-13193222D01*
X8501134Y-13193222D02*
X8501134Y-13297984D01*
X8501134Y-13193222D02*
X8510658Y-13174174D01*
X8510658Y-13174174D02*
X8529705Y-13164650D01*
X8529705Y-13164650D02*
X8558277Y-13164650D01*
X8558277Y-13164650D02*
X8577325Y-13174174D01*
X8577325Y-13174174D02*
X8586848Y-13193222D01*
X8586848Y-13193222D02*
X8586848Y-13297984D01*
X8682086Y-13297984D02*
X8682086Y-13164650D01*
X8682086Y-13183698D02*
X8691610Y-13174174D01*
X8691610Y-13174174D02*
X8710658Y-13164650D01*
X8710658Y-13164650D02*
X8739229Y-13164650D01*
X8739229Y-13164650D02*
X8758277Y-13174174D01*
X8758277Y-13174174D02*
X8767801Y-13193222D01*
X8767801Y-13193222D02*
X8767801Y-13297984D01*
X8767801Y-13193222D02*
X8777325Y-13174174D01*
X8777325Y-13174174D02*
X8796372Y-13164650D01*
X8796372Y-13164650D02*
X8824944Y-13164650D01*
X8824944Y-13164650D02*
X8843991Y-13174174D01*
X8843991Y-13174174D02*
X8853515Y-13193222D01*
X8853515Y-13193222D02*
X8853515Y-13297984D01*
X9243991Y-13088460D02*
X9072563Y-13345603D01*
X9501134Y-13097984D02*
X9520182Y-13097984D01*
X9520182Y-13097984D02*
X9539229Y-13107508D01*
X9539229Y-13107508D02*
X9548753Y-13117031D01*
X9548753Y-13117031D02*
X9558277Y-13136079D01*
X9558277Y-13136079D02*
X9567801Y-13174174D01*
X9567801Y-13174174D02*
X9567801Y-13221793D01*
X9567801Y-13221793D02*
X9558277Y-13259888D01*
X9558277Y-13259888D02*
X9548753Y-13278936D01*
X9548753Y-13278936D02*
X9539229Y-13288460D01*
X9539229Y-13288460D02*
X9520182Y-13297984D01*
X9520182Y-13297984D02*
X9501134Y-13297984D01*
X9501134Y-13297984D02*
X9482087Y-13288460D01*
X9482087Y-13288460D02*
X9472563Y-13278936D01*
X9472563Y-13278936D02*
X9463039Y-13259888D01*
X9463039Y-13259888D02*
X9453515Y-13221793D01*
X9453515Y-13221793D02*
X9453515Y-13174174D01*
X9453515Y-13174174D02*
X9463039Y-13136079D01*
X9463039Y-13136079D02*
X9472563Y-13117031D01*
X9472563Y-13117031D02*
X9482087Y-13107508D01*
X9482087Y-13107508D02*
X9501134Y-13097984D01*
X9653515Y-13278936D02*
X9663039Y-13288460D01*
X9663039Y-13288460D02*
X9653515Y-13297984D01*
X9653515Y-13297984D02*
X9643991Y-13288460D01*
X9643991Y-13288460D02*
X9653515Y-13278936D01*
X9653515Y-13278936D02*
X9653515Y-13297984D01*
X9786848Y-13097984D02*
X9805896Y-13097984D01*
X9805896Y-13097984D02*
X9824944Y-13107508D01*
X9824944Y-13107508D02*
X9834468Y-13117031D01*
X9834468Y-13117031D02*
X9843991Y-13136079D01*
X9843991Y-13136079D02*
X9853515Y-13174174D01*
X9853515Y-13174174D02*
X9853515Y-13221793D01*
X9853515Y-13221793D02*
X9843991Y-13259888D01*
X9843991Y-13259888D02*
X9834468Y-13278936D01*
X9834468Y-13278936D02*
X9824944Y-13288460D01*
X9824944Y-13288460D02*
X9805896Y-13297984D01*
X9805896Y-13297984D02*
X9786848Y-13297984D01*
X9786848Y-13297984D02*
X9767801Y-13288460D01*
X9767801Y-13288460D02*
X9758277Y-13278936D01*
X9758277Y-13278936D02*
X9748753Y-13259888D01*
X9748753Y-13259888D02*
X9739229Y-13221793D01*
X9739229Y-13221793D02*
X9739229Y-13174174D01*
X9739229Y-13174174D02*
X9748753Y-13136079D01*
X9748753Y-13136079D02*
X9758277Y-13117031D01*
X9758277Y-13117031D02*
X9767801Y-13107508D01*
X9767801Y-13107508D02*
X9786848Y-13097984D01*
X9920182Y-13097984D02*
X10043991Y-13097984D01*
X10043991Y-13097984D02*
X9977325Y-13174174D01*
X9977325Y-13174174D02*
X10005896Y-13174174D01*
X10005896Y-13174174D02*
X10024944Y-13183698D01*
X10024944Y-13183698D02*
X10034468Y-13193222D01*
X10034468Y-13193222D02*
X10043991Y-13212269D01*
X10043991Y-13212269D02*
X10043991Y-13259888D01*
X10043991Y-13259888D02*
X10034468Y-13278936D01*
X10034468Y-13278936D02*
X10024944Y-13288460D01*
X10024944Y-13288460D02*
X10005896Y-13297984D01*
X10005896Y-13297984D02*
X9948753Y-13297984D01*
X9948753Y-13297984D02*
X9929706Y-13288460D01*
X9929706Y-13288460D02*
X9920182Y-13278936D01*
X10234468Y-13297984D02*
X10120182Y-13297984D01*
X10177325Y-13297984D02*
X10177325Y-13097984D01*
X10177325Y-13097984D02*
X10158277Y-13126555D01*
X10158277Y-13126555D02*
X10139229Y-13145603D01*
X10139229Y-13145603D02*
X10120182Y-13155127D01*
X10415420Y-13097984D02*
X10320182Y-13097984D01*
X10320182Y-13097984D02*
X10310658Y-13193222D01*
X10310658Y-13193222D02*
X10320182Y-13183698D01*
X10320182Y-13183698D02*
X10339229Y-13174174D01*
X10339229Y-13174174D02*
X10386849Y-13174174D01*
X10386849Y-13174174D02*
X10405896Y-13183698D01*
X10405896Y-13183698D02*
X10415420Y-13193222D01*
X10415420Y-13193222D02*
X10424944Y-13212269D01*
X10424944Y-13212269D02*
X10424944Y-13259888D01*
X10424944Y-13259888D02*
X10415420Y-13278936D01*
X10415420Y-13278936D02*
X10405896Y-13288460D01*
X10405896Y-13288460D02*
X10386849Y-13297984D01*
X10386849Y-13297984D02*
X10339229Y-13297984D01*
X10339229Y-13297984D02*
X10320182Y-13288460D01*
X10320182Y-13288460D02*
X10310658Y-13278936D01*
X10501134Y-13097984D02*
X10501134Y-13136079D01*
X10577325Y-13097984D02*
X10577325Y-13136079D01*
X10872563Y-13374174D02*
X10863039Y-13364650D01*
X10863039Y-13364650D02*
X10843991Y-13336079D01*
X10843991Y-13336079D02*
X10834468Y-13317031D01*
X10834468Y-13317031D02*
X10824944Y-13288460D01*
X10824944Y-13288460D02*
X10815420Y-13240841D01*
X10815420Y-13240841D02*
X10815420Y-13202746D01*
X10815420Y-13202746D02*
X10824944Y-13155127D01*
X10824944Y-13155127D02*
X10834468Y-13126555D01*
X10834468Y-13126555D02*
X10843991Y-13107508D01*
X10843991Y-13107508D02*
X10863039Y-13078936D01*
X10863039Y-13078936D02*
X10872563Y-13069412D01*
X11034468Y-13097984D02*
X10996372Y-13097984D01*
X10996372Y-13097984D02*
X10977325Y-13107508D01*
X10977325Y-13107508D02*
X10967801Y-13117031D01*
X10967801Y-13117031D02*
X10948753Y-13145603D01*
X10948753Y-13145603D02*
X10939230Y-13183698D01*
X10939230Y-13183698D02*
X10939230Y-13259888D01*
X10939230Y-13259888D02*
X10948753Y-13278936D01*
X10948753Y-13278936D02*
X10958277Y-13288460D01*
X10958277Y-13288460D02*
X10977325Y-13297984D01*
X10977325Y-13297984D02*
X11015420Y-13297984D01*
X11015420Y-13297984D02*
X11034468Y-13288460D01*
X11034468Y-13288460D02*
X11043991Y-13278936D01*
X11043991Y-13278936D02*
X11053515Y-13259888D01*
X11053515Y-13259888D02*
X11053515Y-13212269D01*
X11053515Y-13212269D02*
X11043991Y-13193222D01*
X11043991Y-13193222D02*
X11034468Y-13183698D01*
X11034468Y-13183698D02*
X11015420Y-13174174D01*
X11015420Y-13174174D02*
X10977325Y-13174174D01*
X10977325Y-13174174D02*
X10958277Y-13183698D01*
X10958277Y-13183698D02*
X10948753Y-13193222D01*
X10948753Y-13193222D02*
X10939230Y-13212269D01*
X11291610Y-13297984D02*
X11291610Y-13097984D01*
X11377325Y-13297984D02*
X11377325Y-13193222D01*
X11377325Y-13193222D02*
X11367801Y-13174174D01*
X11367801Y-13174174D02*
X11348753Y-13164650D01*
X11348753Y-13164650D02*
X11320182Y-13164650D01*
X11320182Y-13164650D02*
X11301134Y-13174174D01*
X11301134Y-13174174D02*
X11291610Y-13183698D01*
X11501134Y-13297984D02*
X11482087Y-13288460D01*
X11482087Y-13288460D02*
X11472563Y-13278936D01*
X11472563Y-13278936D02*
X11463039Y-13259888D01*
X11463039Y-13259888D02*
X11463039Y-13202746D01*
X11463039Y-13202746D02*
X11472563Y-13183698D01*
X11472563Y-13183698D02*
X11482087Y-13174174D01*
X11482087Y-13174174D02*
X11501134Y-13164650D01*
X11501134Y-13164650D02*
X11529706Y-13164650D01*
X11529706Y-13164650D02*
X11548753Y-13174174D01*
X11548753Y-13174174D02*
X11558277Y-13183698D01*
X11558277Y-13183698D02*
X11567801Y-13202746D01*
X11567801Y-13202746D02*
X11567801Y-13259888D01*
X11567801Y-13259888D02*
X11558277Y-13278936D01*
X11558277Y-13278936D02*
X11548753Y-13288460D01*
X11548753Y-13288460D02*
X11529706Y-13297984D01*
X11529706Y-13297984D02*
X11501134Y-13297984D01*
X11682087Y-13297984D02*
X11663039Y-13288460D01*
X11663039Y-13288460D02*
X11653515Y-13269412D01*
X11653515Y-13269412D02*
X11653515Y-13097984D01*
X11834468Y-13288460D02*
X11815420Y-13297984D01*
X11815420Y-13297984D02*
X11777325Y-13297984D01*
X11777325Y-13297984D02*
X11758277Y-13288460D01*
X11758277Y-13288460D02*
X11748753Y-13269412D01*
X11748753Y-13269412D02*
X11748753Y-13193222D01*
X11748753Y-13193222D02*
X11758277Y-13174174D01*
X11758277Y-13174174D02*
X11777325Y-13164650D01*
X11777325Y-13164650D02*
X11815420Y-13164650D01*
X11815420Y-13164650D02*
X11834468Y-13174174D01*
X11834468Y-13174174D02*
X11843991Y-13193222D01*
X11843991Y-13193222D02*
X11843991Y-13212269D01*
X11843991Y-13212269D02*
X11748753Y-13231317D01*
X11920182Y-13288460D02*
X11939230Y-13297984D01*
X11939230Y-13297984D02*
X11977325Y-13297984D01*
X11977325Y-13297984D02*
X11996372Y-13288460D01*
X11996372Y-13288460D02*
X12005896Y-13269412D01*
X12005896Y-13269412D02*
X12005896Y-13259888D01*
X12005896Y-13259888D02*
X11996372Y-13240841D01*
X11996372Y-13240841D02*
X11977325Y-13231317D01*
X11977325Y-13231317D02*
X11948753Y-13231317D01*
X11948753Y-13231317D02*
X11929706Y-13221793D01*
X11929706Y-13221793D02*
X11920182Y-13202746D01*
X11920182Y-13202746D02*
X11920182Y-13193222D01*
X11920182Y-13193222D02*
X11929706Y-13174174D01*
X11929706Y-13174174D02*
X11948753Y-13164650D01*
X11948753Y-13164650D02*
X11977325Y-13164650D01*
X11977325Y-13164650D02*
X11996372Y-13174174D01*
X12072563Y-13374174D02*
X12082087Y-13364650D01*
X12082087Y-13364650D02*
X12101134Y-13336079D01*
X12101134Y-13336079D02*
X12110658Y-13317031D01*
X12110658Y-13317031D02*
X12120182Y-13288460D01*
X12120182Y-13288460D02*
X12129706Y-13240841D01*
X12129706Y-13240841D02*
X12129706Y-13202746D01*
X12129706Y-13202746D02*
X12120182Y-13155127D01*
X12120182Y-13155127D02*
X12110658Y-13126555D01*
X12110658Y-13126555D02*
X12101134Y-13107508D01*
X12101134Y-13107508D02*
X12082087Y-13078936D01*
X12082087Y-13078936D02*
X12072563Y-13069412D01*
D12*
X7248000Y-13421000D02*
X7248000Y-13520000D01*
X7198500Y-13470500D02*
X7297500Y-13470500D01*
D11*
X7596372Y-13361984D02*
X7615420Y-13361984D01*
X7615420Y-13361984D02*
X7634467Y-13371508D01*
X7634467Y-13371508D02*
X7643991Y-13381031D01*
X7643991Y-13381031D02*
X7653515Y-13400079D01*
X7653515Y-13400079D02*
X7663039Y-13438174D01*
X7663039Y-13438174D02*
X7663039Y-13485793D01*
X7663039Y-13485793D02*
X7653515Y-13523888D01*
X7653515Y-13523888D02*
X7643991Y-13542936D01*
X7643991Y-13542936D02*
X7634467Y-13552460D01*
X7634467Y-13552460D02*
X7615420Y-13561984D01*
X7615420Y-13561984D02*
X7596372Y-13561984D01*
X7596372Y-13561984D02*
X7577324Y-13552460D01*
X7577324Y-13552460D02*
X7567801Y-13542936D01*
X7567801Y-13542936D02*
X7558277Y-13523888D01*
X7558277Y-13523888D02*
X7548753Y-13485793D01*
X7548753Y-13485793D02*
X7548753Y-13438174D01*
X7548753Y-13438174D02*
X7558277Y-13400079D01*
X7558277Y-13400079D02*
X7567801Y-13381031D01*
X7567801Y-13381031D02*
X7577324Y-13371508D01*
X7577324Y-13371508D02*
X7596372Y-13361984D01*
X7748753Y-13542936D02*
X7758277Y-13552460D01*
X7758277Y-13552460D02*
X7748753Y-13561984D01*
X7748753Y-13561984D02*
X7739229Y-13552460D01*
X7739229Y-13552460D02*
X7748753Y-13542936D01*
X7748753Y-13542936D02*
X7748753Y-13561984D01*
X7853515Y-13561984D02*
X7891610Y-13561984D01*
X7891610Y-13561984D02*
X7910658Y-13552460D01*
X7910658Y-13552460D02*
X7920182Y-13542936D01*
X7920182Y-13542936D02*
X7939229Y-13514365D01*
X7939229Y-13514365D02*
X7948753Y-13476269D01*
X7948753Y-13476269D02*
X7948753Y-13400079D01*
X7948753Y-13400079D02*
X7939229Y-13381031D01*
X7939229Y-13381031D02*
X7929705Y-13371508D01*
X7929705Y-13371508D02*
X7910658Y-13361984D01*
X7910658Y-13361984D02*
X7872562Y-13361984D01*
X7872562Y-13361984D02*
X7853515Y-13371508D01*
X7853515Y-13371508D02*
X7843991Y-13381031D01*
X7843991Y-13381031D02*
X7834467Y-13400079D01*
X7834467Y-13400079D02*
X7834467Y-13447698D01*
X7834467Y-13447698D02*
X7843991Y-13466746D01*
X7843991Y-13466746D02*
X7853515Y-13476269D01*
X7853515Y-13476269D02*
X7872562Y-13485793D01*
X7872562Y-13485793D02*
X7910658Y-13485793D01*
X7910658Y-13485793D02*
X7929705Y-13476269D01*
X7929705Y-13476269D02*
X7939229Y-13466746D01*
X7939229Y-13466746D02*
X7948753Y-13447698D01*
X8043991Y-13561984D02*
X8082086Y-13561984D01*
X8082086Y-13561984D02*
X8101134Y-13552460D01*
X8101134Y-13552460D02*
X8110658Y-13542936D01*
X8110658Y-13542936D02*
X8129705Y-13514365D01*
X8129705Y-13514365D02*
X8139229Y-13476269D01*
X8139229Y-13476269D02*
X8139229Y-13400079D01*
X8139229Y-13400079D02*
X8129705Y-13381031D01*
X8129705Y-13381031D02*
X8120182Y-13371508D01*
X8120182Y-13371508D02*
X8101134Y-13361984D01*
X8101134Y-13361984D02*
X8063039Y-13361984D01*
X8063039Y-13361984D02*
X8043991Y-13371508D01*
X8043991Y-13371508D02*
X8034467Y-13381031D01*
X8034467Y-13381031D02*
X8024943Y-13400079D01*
X8024943Y-13400079D02*
X8024943Y-13447698D01*
X8024943Y-13447698D02*
X8034467Y-13466746D01*
X8034467Y-13466746D02*
X8043991Y-13476269D01*
X8043991Y-13476269D02*
X8063039Y-13485793D01*
X8063039Y-13485793D02*
X8101134Y-13485793D01*
X8101134Y-13485793D02*
X8120182Y-13476269D01*
X8120182Y-13476269D02*
X8129705Y-13466746D01*
X8129705Y-13466746D02*
X8139229Y-13447698D01*
X8263039Y-13361984D02*
X8282086Y-13361984D01*
X8282086Y-13361984D02*
X8301134Y-13371508D01*
X8301134Y-13371508D02*
X8310658Y-13381031D01*
X8310658Y-13381031D02*
X8320182Y-13400079D01*
X8320182Y-13400079D02*
X8329705Y-13438174D01*
X8329705Y-13438174D02*
X8329705Y-13485793D01*
X8329705Y-13485793D02*
X8320182Y-13523888D01*
X8320182Y-13523888D02*
X8310658Y-13542936D01*
X8310658Y-13542936D02*
X8301134Y-13552460D01*
X8301134Y-13552460D02*
X8282086Y-13561984D01*
X8282086Y-13561984D02*
X8263039Y-13561984D01*
X8263039Y-13561984D02*
X8243991Y-13552460D01*
X8243991Y-13552460D02*
X8234467Y-13542936D01*
X8234467Y-13542936D02*
X8224943Y-13523888D01*
X8224943Y-13523888D02*
X8215420Y-13485793D01*
X8215420Y-13485793D02*
X8215420Y-13438174D01*
X8215420Y-13438174D02*
X8224943Y-13400079D01*
X8224943Y-13400079D02*
X8234467Y-13381031D01*
X8234467Y-13381031D02*
X8243991Y-13371508D01*
X8243991Y-13371508D02*
X8263039Y-13361984D01*
X8415420Y-13561984D02*
X8415420Y-13428650D01*
X8415420Y-13447698D02*
X8424944Y-13438174D01*
X8424944Y-13438174D02*
X8443991Y-13428650D01*
X8443991Y-13428650D02*
X8472563Y-13428650D01*
X8472563Y-13428650D02*
X8491610Y-13438174D01*
X8491610Y-13438174D02*
X8501134Y-13457222D01*
X8501134Y-13457222D02*
X8501134Y-13561984D01*
X8501134Y-13457222D02*
X8510658Y-13438174D01*
X8510658Y-13438174D02*
X8529705Y-13428650D01*
X8529705Y-13428650D02*
X8558277Y-13428650D01*
X8558277Y-13428650D02*
X8577325Y-13438174D01*
X8577325Y-13438174D02*
X8586848Y-13457222D01*
X8586848Y-13457222D02*
X8586848Y-13561984D01*
X8682086Y-13561984D02*
X8682086Y-13428650D01*
X8682086Y-13447698D02*
X8691610Y-13438174D01*
X8691610Y-13438174D02*
X8710658Y-13428650D01*
X8710658Y-13428650D02*
X8739229Y-13428650D01*
X8739229Y-13428650D02*
X8758277Y-13438174D01*
X8758277Y-13438174D02*
X8767801Y-13457222D01*
X8767801Y-13457222D02*
X8767801Y-13561984D01*
X8767801Y-13457222D02*
X8777325Y-13438174D01*
X8777325Y-13438174D02*
X8796372Y-13428650D01*
X8796372Y-13428650D02*
X8824944Y-13428650D01*
X8824944Y-13428650D02*
X8843991Y-13438174D01*
X8843991Y-13438174D02*
X8853515Y-13457222D01*
X8853515Y-13457222D02*
X8853515Y-13561984D01*
X9243991Y-13352460D02*
X9072563Y-13609603D01*
X9501134Y-13361984D02*
X9520182Y-13361984D01*
X9520182Y-13361984D02*
X9539229Y-13371508D01*
X9539229Y-13371508D02*
X9548753Y-13381031D01*
X9548753Y-13381031D02*
X9558277Y-13400079D01*
X9558277Y-13400079D02*
X9567801Y-13438174D01*
X9567801Y-13438174D02*
X9567801Y-13485793D01*
X9567801Y-13485793D02*
X9558277Y-13523888D01*
X9558277Y-13523888D02*
X9548753Y-13542936D01*
X9548753Y-13542936D02*
X9539229Y-13552460D01*
X9539229Y-13552460D02*
X9520182Y-13561984D01*
X9520182Y-13561984D02*
X9501134Y-13561984D01*
X9501134Y-13561984D02*
X9482087Y-13552460D01*
X9482087Y-13552460D02*
X9472563Y-13542936D01*
X9472563Y-13542936D02*
X9463039Y-13523888D01*
X9463039Y-13523888D02*
X9453515Y-13485793D01*
X9453515Y-13485793D02*
X9453515Y-13438174D01*
X9453515Y-13438174D02*
X9463039Y-13400079D01*
X9463039Y-13400079D02*
X9472563Y-13381031D01*
X9472563Y-13381031D02*
X9482087Y-13371508D01*
X9482087Y-13371508D02*
X9501134Y-13361984D01*
X9653515Y-13542936D02*
X9663039Y-13552460D01*
X9663039Y-13552460D02*
X9653515Y-13561984D01*
X9653515Y-13561984D02*
X9643991Y-13552460D01*
X9643991Y-13552460D02*
X9653515Y-13542936D01*
X9653515Y-13542936D02*
X9653515Y-13561984D01*
X9786848Y-13361984D02*
X9805896Y-13361984D01*
X9805896Y-13361984D02*
X9824944Y-13371508D01*
X9824944Y-13371508D02*
X9834468Y-13381031D01*
X9834468Y-13381031D02*
X9843991Y-13400079D01*
X9843991Y-13400079D02*
X9853515Y-13438174D01*
X9853515Y-13438174D02*
X9853515Y-13485793D01*
X9853515Y-13485793D02*
X9843991Y-13523888D01*
X9843991Y-13523888D02*
X9834468Y-13542936D01*
X9834468Y-13542936D02*
X9824944Y-13552460D01*
X9824944Y-13552460D02*
X9805896Y-13561984D01*
X9805896Y-13561984D02*
X9786848Y-13561984D01*
X9786848Y-13561984D02*
X9767801Y-13552460D01*
X9767801Y-13552460D02*
X9758277Y-13542936D01*
X9758277Y-13542936D02*
X9748753Y-13523888D01*
X9748753Y-13523888D02*
X9739229Y-13485793D01*
X9739229Y-13485793D02*
X9739229Y-13438174D01*
X9739229Y-13438174D02*
X9748753Y-13400079D01*
X9748753Y-13400079D02*
X9758277Y-13381031D01*
X9758277Y-13381031D02*
X9767801Y-13371508D01*
X9767801Y-13371508D02*
X9786848Y-13361984D01*
X9920182Y-13361984D02*
X10043991Y-13361984D01*
X10043991Y-13361984D02*
X9977325Y-13438174D01*
X9977325Y-13438174D02*
X10005896Y-13438174D01*
X10005896Y-13438174D02*
X10024944Y-13447698D01*
X10024944Y-13447698D02*
X10034468Y-13457222D01*
X10034468Y-13457222D02*
X10043991Y-13476269D01*
X10043991Y-13476269D02*
X10043991Y-13523888D01*
X10043991Y-13523888D02*
X10034468Y-13542936D01*
X10034468Y-13542936D02*
X10024944Y-13552460D01*
X10024944Y-13552460D02*
X10005896Y-13561984D01*
X10005896Y-13561984D02*
X9948753Y-13561984D01*
X9948753Y-13561984D02*
X9929706Y-13552460D01*
X9929706Y-13552460D02*
X9920182Y-13542936D01*
X10139229Y-13561984D02*
X10177325Y-13561984D01*
X10177325Y-13561984D02*
X10196372Y-13552460D01*
X10196372Y-13552460D02*
X10205896Y-13542936D01*
X10205896Y-13542936D02*
X10224944Y-13514365D01*
X10224944Y-13514365D02*
X10234468Y-13476269D01*
X10234468Y-13476269D02*
X10234468Y-13400079D01*
X10234468Y-13400079D02*
X10224944Y-13381031D01*
X10224944Y-13381031D02*
X10215420Y-13371508D01*
X10215420Y-13371508D02*
X10196372Y-13361984D01*
X10196372Y-13361984D02*
X10158277Y-13361984D01*
X10158277Y-13361984D02*
X10139229Y-13371508D01*
X10139229Y-13371508D02*
X10129706Y-13381031D01*
X10129706Y-13381031D02*
X10120182Y-13400079D01*
X10120182Y-13400079D02*
X10120182Y-13447698D01*
X10120182Y-13447698D02*
X10129706Y-13466746D01*
X10129706Y-13466746D02*
X10139229Y-13476269D01*
X10139229Y-13476269D02*
X10158277Y-13485793D01*
X10158277Y-13485793D02*
X10196372Y-13485793D01*
X10196372Y-13485793D02*
X10215420Y-13476269D01*
X10215420Y-13476269D02*
X10224944Y-13466746D01*
X10224944Y-13466746D02*
X10234468Y-13447698D01*
X10358277Y-13361984D02*
X10377325Y-13361984D01*
X10377325Y-13361984D02*
X10396372Y-13371508D01*
X10396372Y-13371508D02*
X10405896Y-13381031D01*
X10405896Y-13381031D02*
X10415420Y-13400079D01*
X10415420Y-13400079D02*
X10424944Y-13438174D01*
X10424944Y-13438174D02*
X10424944Y-13485793D01*
X10424944Y-13485793D02*
X10415420Y-13523888D01*
X10415420Y-13523888D02*
X10405896Y-13542936D01*
X10405896Y-13542936D02*
X10396372Y-13552460D01*
X10396372Y-13552460D02*
X10377325Y-13561984D01*
X10377325Y-13561984D02*
X10358277Y-13561984D01*
X10358277Y-13561984D02*
X10339229Y-13552460D01*
X10339229Y-13552460D02*
X10329706Y-13542936D01*
X10329706Y-13542936D02*
X10320182Y-13523888D01*
X10320182Y-13523888D02*
X10310658Y-13485793D01*
X10310658Y-13485793D02*
X10310658Y-13438174D01*
X10310658Y-13438174D02*
X10320182Y-13400079D01*
X10320182Y-13400079D02*
X10329706Y-13381031D01*
X10329706Y-13381031D02*
X10339229Y-13371508D01*
X10339229Y-13371508D02*
X10358277Y-13361984D01*
X10501134Y-13361984D02*
X10501134Y-13400079D01*
X10577325Y-13361984D02*
X10577325Y-13400079D01*
X10872563Y-13638174D02*
X10863039Y-13628650D01*
X10863039Y-13628650D02*
X10843991Y-13600079D01*
X10843991Y-13600079D02*
X10834468Y-13581031D01*
X10834468Y-13581031D02*
X10824944Y-13552460D01*
X10824944Y-13552460D02*
X10815420Y-13504841D01*
X10815420Y-13504841D02*
X10815420Y-13466746D01*
X10815420Y-13466746D02*
X10824944Y-13419127D01*
X10824944Y-13419127D02*
X10834468Y-13390555D01*
X10834468Y-13390555D02*
X10843991Y-13371508D01*
X10843991Y-13371508D02*
X10863039Y-13342936D01*
X10863039Y-13342936D02*
X10872563Y-13333412D01*
X11034468Y-13428650D02*
X11034468Y-13561984D01*
X10986849Y-13352460D02*
X10939230Y-13495317D01*
X10939230Y-13495317D02*
X11063039Y-13495317D01*
X11291610Y-13561984D02*
X11291610Y-13361984D01*
X11377325Y-13561984D02*
X11377325Y-13457222D01*
X11377325Y-13457222D02*
X11367801Y-13438174D01*
X11367801Y-13438174D02*
X11348753Y-13428650D01*
X11348753Y-13428650D02*
X11320182Y-13428650D01*
X11320182Y-13428650D02*
X11301134Y-13438174D01*
X11301134Y-13438174D02*
X11291610Y-13447698D01*
X11501134Y-13561984D02*
X11482087Y-13552460D01*
X11482087Y-13552460D02*
X11472563Y-13542936D01*
X11472563Y-13542936D02*
X11463039Y-13523888D01*
X11463039Y-13523888D02*
X11463039Y-13466746D01*
X11463039Y-13466746D02*
X11472563Y-13447698D01*
X11472563Y-13447698D02*
X11482087Y-13438174D01*
X11482087Y-13438174D02*
X11501134Y-13428650D01*
X11501134Y-13428650D02*
X11529706Y-13428650D01*
X11529706Y-13428650D02*
X11548753Y-13438174D01*
X11548753Y-13438174D02*
X11558277Y-13447698D01*
X11558277Y-13447698D02*
X11567801Y-13466746D01*
X11567801Y-13466746D02*
X11567801Y-13523888D01*
X11567801Y-13523888D02*
X11558277Y-13542936D01*
X11558277Y-13542936D02*
X11548753Y-13552460D01*
X11548753Y-13552460D02*
X11529706Y-13561984D01*
X11529706Y-13561984D02*
X11501134Y-13561984D01*
X11682087Y-13561984D02*
X11663039Y-13552460D01*
X11663039Y-13552460D02*
X11653515Y-13533412D01*
X11653515Y-13533412D02*
X11653515Y-13361984D01*
X11834468Y-13552460D02*
X11815420Y-13561984D01*
X11815420Y-13561984D02*
X11777325Y-13561984D01*
X11777325Y-13561984D02*
X11758277Y-13552460D01*
X11758277Y-13552460D02*
X11748753Y-13533412D01*
X11748753Y-13533412D02*
X11748753Y-13457222D01*
X11748753Y-13457222D02*
X11758277Y-13438174D01*
X11758277Y-13438174D02*
X11777325Y-13428650D01*
X11777325Y-13428650D02*
X11815420Y-13428650D01*
X11815420Y-13428650D02*
X11834468Y-13438174D01*
X11834468Y-13438174D02*
X11843991Y-13457222D01*
X11843991Y-13457222D02*
X11843991Y-13476269D01*
X11843991Y-13476269D02*
X11748753Y-13495317D01*
X11920182Y-13552460D02*
X11939230Y-13561984D01*
X11939230Y-13561984D02*
X11977325Y-13561984D01*
X11977325Y-13561984D02*
X11996372Y-13552460D01*
X11996372Y-13552460D02*
X12005896Y-13533412D01*
X12005896Y-13533412D02*
X12005896Y-13523888D01*
X12005896Y-13523888D02*
X11996372Y-13504841D01*
X11996372Y-13504841D02*
X11977325Y-13495317D01*
X11977325Y-13495317D02*
X11948753Y-13495317D01*
X11948753Y-13495317D02*
X11929706Y-13485793D01*
X11929706Y-13485793D02*
X11920182Y-13466746D01*
X11920182Y-13466746D02*
X11920182Y-13457222D01*
X11920182Y-13457222D02*
X11929706Y-13438174D01*
X11929706Y-13438174D02*
X11948753Y-13428650D01*
X11948753Y-13428650D02*
X11977325Y-13428650D01*
X11977325Y-13428650D02*
X11996372Y-13438174D01*
X12072563Y-13638174D02*
X12082087Y-13628650D01*
X12082087Y-13628650D02*
X12101134Y-13600079D01*
X12101134Y-13600079D02*
X12110658Y-13581031D01*
X12110658Y-13581031D02*
X12120182Y-13552460D01*
X12120182Y-13552460D02*
X12129706Y-13504841D01*
X12129706Y-13504841D02*
X12129706Y-13466746D01*
X12129706Y-13466746D02*
X12120182Y-13419127D01*
X12120182Y-13419127D02*
X12110658Y-13390555D01*
X12110658Y-13390555D02*
X12101134Y-13371508D01*
X12101134Y-13371508D02*
X12082087Y-13342936D01*
X12082087Y-13342936D02*
X12072563Y-13333412D01*
D12*
X7282856Y-13769856D02*
X7282856Y-13699144D01*
X7212144Y-13699144D01*
X7212144Y-13769856D01*
X7282856Y-13769856D01*
D11*
X7663039Y-13825984D02*
X7548753Y-13825984D01*
X7605896Y-13825984D02*
X7605896Y-13625984D01*
X7605896Y-13625984D02*
X7586848Y-13654555D01*
X7586848Y-13654555D02*
X7567801Y-13673603D01*
X7567801Y-13673603D02*
X7548753Y-13683127D01*
X7748753Y-13806936D02*
X7758277Y-13816460D01*
X7758277Y-13816460D02*
X7748753Y-13825984D01*
X7748753Y-13825984D02*
X7739229Y-13816460D01*
X7739229Y-13816460D02*
X7748753Y-13806936D01*
X7748753Y-13806936D02*
X7748753Y-13825984D01*
X7882086Y-13625984D02*
X7901134Y-13625984D01*
X7901134Y-13625984D02*
X7920182Y-13635508D01*
X7920182Y-13635508D02*
X7929705Y-13645031D01*
X7929705Y-13645031D02*
X7939229Y-13664079D01*
X7939229Y-13664079D02*
X7948753Y-13702174D01*
X7948753Y-13702174D02*
X7948753Y-13749793D01*
X7948753Y-13749793D02*
X7939229Y-13787888D01*
X7939229Y-13787888D02*
X7929705Y-13806936D01*
X7929705Y-13806936D02*
X7920182Y-13816460D01*
X7920182Y-13816460D02*
X7901134Y-13825984D01*
X7901134Y-13825984D02*
X7882086Y-13825984D01*
X7882086Y-13825984D02*
X7863039Y-13816460D01*
X7863039Y-13816460D02*
X7853515Y-13806936D01*
X7853515Y-13806936D02*
X7843991Y-13787888D01*
X7843991Y-13787888D02*
X7834467Y-13749793D01*
X7834467Y-13749793D02*
X7834467Y-13702174D01*
X7834467Y-13702174D02*
X7843991Y-13664079D01*
X7843991Y-13664079D02*
X7853515Y-13645031D01*
X7853515Y-13645031D02*
X7863039Y-13635508D01*
X7863039Y-13635508D02*
X7882086Y-13625984D01*
X8072562Y-13625984D02*
X8091610Y-13625984D01*
X8091610Y-13625984D02*
X8110658Y-13635508D01*
X8110658Y-13635508D02*
X8120182Y-13645031D01*
X8120182Y-13645031D02*
X8129705Y-13664079D01*
X8129705Y-13664079D02*
X8139229Y-13702174D01*
X8139229Y-13702174D02*
X8139229Y-13749793D01*
X8139229Y-13749793D02*
X8129705Y-13787888D01*
X8129705Y-13787888D02*
X8120182Y-13806936D01*
X8120182Y-13806936D02*
X8110658Y-13816460D01*
X8110658Y-13816460D02*
X8091610Y-13825984D01*
X8091610Y-13825984D02*
X8072562Y-13825984D01*
X8072562Y-13825984D02*
X8053515Y-13816460D01*
X8053515Y-13816460D02*
X8043991Y-13806936D01*
X8043991Y-13806936D02*
X8034467Y-13787888D01*
X8034467Y-13787888D02*
X8024943Y-13749793D01*
X8024943Y-13749793D02*
X8024943Y-13702174D01*
X8024943Y-13702174D02*
X8034467Y-13664079D01*
X8034467Y-13664079D02*
X8043991Y-13645031D01*
X8043991Y-13645031D02*
X8053515Y-13635508D01*
X8053515Y-13635508D02*
X8072562Y-13625984D01*
X8263039Y-13625984D02*
X8282086Y-13625984D01*
X8282086Y-13625984D02*
X8301134Y-13635508D01*
X8301134Y-13635508D02*
X8310658Y-13645031D01*
X8310658Y-13645031D02*
X8320182Y-13664079D01*
X8320182Y-13664079D02*
X8329705Y-13702174D01*
X8329705Y-13702174D02*
X8329705Y-13749793D01*
X8329705Y-13749793D02*
X8320182Y-13787888D01*
X8320182Y-13787888D02*
X8310658Y-13806936D01*
X8310658Y-13806936D02*
X8301134Y-13816460D01*
X8301134Y-13816460D02*
X8282086Y-13825984D01*
X8282086Y-13825984D02*
X8263039Y-13825984D01*
X8263039Y-13825984D02*
X8243991Y-13816460D01*
X8243991Y-13816460D02*
X8234467Y-13806936D01*
X8234467Y-13806936D02*
X8224943Y-13787888D01*
X8224943Y-13787888D02*
X8215420Y-13749793D01*
X8215420Y-13749793D02*
X8215420Y-13702174D01*
X8215420Y-13702174D02*
X8224943Y-13664079D01*
X8224943Y-13664079D02*
X8234467Y-13645031D01*
X8234467Y-13645031D02*
X8243991Y-13635508D01*
X8243991Y-13635508D02*
X8263039Y-13625984D01*
X8415420Y-13825984D02*
X8415420Y-13692650D01*
X8415420Y-13711698D02*
X8424944Y-13702174D01*
X8424944Y-13702174D02*
X8443991Y-13692650D01*
X8443991Y-13692650D02*
X8472563Y-13692650D01*
X8472563Y-13692650D02*
X8491610Y-13702174D01*
X8491610Y-13702174D02*
X8501134Y-13721222D01*
X8501134Y-13721222D02*
X8501134Y-13825984D01*
X8501134Y-13721222D02*
X8510658Y-13702174D01*
X8510658Y-13702174D02*
X8529705Y-13692650D01*
X8529705Y-13692650D02*
X8558277Y-13692650D01*
X8558277Y-13692650D02*
X8577325Y-13702174D01*
X8577325Y-13702174D02*
X8586848Y-13721222D01*
X8586848Y-13721222D02*
X8586848Y-13825984D01*
X8682086Y-13825984D02*
X8682086Y-13692650D01*
X8682086Y-13711698D02*
X8691610Y-13702174D01*
X8691610Y-13702174D02*
X8710658Y-13692650D01*
X8710658Y-13692650D02*
X8739229Y-13692650D01*
X8739229Y-13692650D02*
X8758277Y-13702174D01*
X8758277Y-13702174D02*
X8767801Y-13721222D01*
X8767801Y-13721222D02*
X8767801Y-13825984D01*
X8767801Y-13721222D02*
X8777325Y-13702174D01*
X8777325Y-13702174D02*
X8796372Y-13692650D01*
X8796372Y-13692650D02*
X8824944Y-13692650D01*
X8824944Y-13692650D02*
X8843991Y-13702174D01*
X8843991Y-13702174D02*
X8853515Y-13721222D01*
X8853515Y-13721222D02*
X8853515Y-13825984D01*
X9243991Y-13616460D02*
X9072563Y-13873603D01*
X9501134Y-13625984D02*
X9520182Y-13625984D01*
X9520182Y-13625984D02*
X9539229Y-13635508D01*
X9539229Y-13635508D02*
X9548753Y-13645031D01*
X9548753Y-13645031D02*
X9558277Y-13664079D01*
X9558277Y-13664079D02*
X9567801Y-13702174D01*
X9567801Y-13702174D02*
X9567801Y-13749793D01*
X9567801Y-13749793D02*
X9558277Y-13787888D01*
X9558277Y-13787888D02*
X9548753Y-13806936D01*
X9548753Y-13806936D02*
X9539229Y-13816460D01*
X9539229Y-13816460D02*
X9520182Y-13825984D01*
X9520182Y-13825984D02*
X9501134Y-13825984D01*
X9501134Y-13825984D02*
X9482087Y-13816460D01*
X9482087Y-13816460D02*
X9472563Y-13806936D01*
X9472563Y-13806936D02*
X9463039Y-13787888D01*
X9463039Y-13787888D02*
X9453515Y-13749793D01*
X9453515Y-13749793D02*
X9453515Y-13702174D01*
X9453515Y-13702174D02*
X9463039Y-13664079D01*
X9463039Y-13664079D02*
X9472563Y-13645031D01*
X9472563Y-13645031D02*
X9482087Y-13635508D01*
X9482087Y-13635508D02*
X9501134Y-13625984D01*
X9653515Y-13806936D02*
X9663039Y-13816460D01*
X9663039Y-13816460D02*
X9653515Y-13825984D01*
X9653515Y-13825984D02*
X9643991Y-13816460D01*
X9643991Y-13816460D02*
X9653515Y-13806936D01*
X9653515Y-13806936D02*
X9653515Y-13825984D01*
X9786848Y-13625984D02*
X9805896Y-13625984D01*
X9805896Y-13625984D02*
X9824944Y-13635508D01*
X9824944Y-13635508D02*
X9834468Y-13645031D01*
X9834468Y-13645031D02*
X9843991Y-13664079D01*
X9843991Y-13664079D02*
X9853515Y-13702174D01*
X9853515Y-13702174D02*
X9853515Y-13749793D01*
X9853515Y-13749793D02*
X9843991Y-13787888D01*
X9843991Y-13787888D02*
X9834468Y-13806936D01*
X9834468Y-13806936D02*
X9824944Y-13816460D01*
X9824944Y-13816460D02*
X9805896Y-13825984D01*
X9805896Y-13825984D02*
X9786848Y-13825984D01*
X9786848Y-13825984D02*
X9767801Y-13816460D01*
X9767801Y-13816460D02*
X9758277Y-13806936D01*
X9758277Y-13806936D02*
X9748753Y-13787888D01*
X9748753Y-13787888D02*
X9739229Y-13749793D01*
X9739229Y-13749793D02*
X9739229Y-13702174D01*
X9739229Y-13702174D02*
X9748753Y-13664079D01*
X9748753Y-13664079D02*
X9758277Y-13645031D01*
X9758277Y-13645031D02*
X9767801Y-13635508D01*
X9767801Y-13635508D02*
X9786848Y-13625984D01*
X9920182Y-13625984D02*
X10043991Y-13625984D01*
X10043991Y-13625984D02*
X9977325Y-13702174D01*
X9977325Y-13702174D02*
X10005896Y-13702174D01*
X10005896Y-13702174D02*
X10024944Y-13711698D01*
X10024944Y-13711698D02*
X10034468Y-13721222D01*
X10034468Y-13721222D02*
X10043991Y-13740269D01*
X10043991Y-13740269D02*
X10043991Y-13787888D01*
X10043991Y-13787888D02*
X10034468Y-13806936D01*
X10034468Y-13806936D02*
X10024944Y-13816460D01*
X10024944Y-13816460D02*
X10005896Y-13825984D01*
X10005896Y-13825984D02*
X9948753Y-13825984D01*
X9948753Y-13825984D02*
X9929706Y-13816460D01*
X9929706Y-13816460D02*
X9920182Y-13806936D01*
X10139229Y-13825984D02*
X10177325Y-13825984D01*
X10177325Y-13825984D02*
X10196372Y-13816460D01*
X10196372Y-13816460D02*
X10205896Y-13806936D01*
X10205896Y-13806936D02*
X10224944Y-13778365D01*
X10224944Y-13778365D02*
X10234468Y-13740269D01*
X10234468Y-13740269D02*
X10234468Y-13664079D01*
X10234468Y-13664079D02*
X10224944Y-13645031D01*
X10224944Y-13645031D02*
X10215420Y-13635508D01*
X10215420Y-13635508D02*
X10196372Y-13625984D01*
X10196372Y-13625984D02*
X10158277Y-13625984D01*
X10158277Y-13625984D02*
X10139229Y-13635508D01*
X10139229Y-13635508D02*
X10129706Y-13645031D01*
X10129706Y-13645031D02*
X10120182Y-13664079D01*
X10120182Y-13664079D02*
X10120182Y-13711698D01*
X10120182Y-13711698D02*
X10129706Y-13730746D01*
X10129706Y-13730746D02*
X10139229Y-13740269D01*
X10139229Y-13740269D02*
X10158277Y-13749793D01*
X10158277Y-13749793D02*
X10196372Y-13749793D01*
X10196372Y-13749793D02*
X10215420Y-13740269D01*
X10215420Y-13740269D02*
X10224944Y-13730746D01*
X10224944Y-13730746D02*
X10234468Y-13711698D01*
X10405896Y-13692650D02*
X10405896Y-13825984D01*
X10358277Y-13616460D02*
X10310658Y-13759317D01*
X10310658Y-13759317D02*
X10434468Y-13759317D01*
X10501134Y-13625984D02*
X10501134Y-13664079D01*
X10577325Y-13625984D02*
X10577325Y-13664079D01*
X10872563Y-13902174D02*
X10863039Y-13892650D01*
X10863039Y-13892650D02*
X10843991Y-13864079D01*
X10843991Y-13864079D02*
X10834468Y-13845031D01*
X10834468Y-13845031D02*
X10824944Y-13816460D01*
X10824944Y-13816460D02*
X10815420Y-13768841D01*
X10815420Y-13768841D02*
X10815420Y-13730746D01*
X10815420Y-13730746D02*
X10824944Y-13683127D01*
X10824944Y-13683127D02*
X10834468Y-13654555D01*
X10834468Y-13654555D02*
X10843991Y-13635508D01*
X10843991Y-13635508D02*
X10863039Y-13606936D01*
X10863039Y-13606936D02*
X10872563Y-13597412D01*
X10939230Y-13645031D02*
X10948753Y-13635508D01*
X10948753Y-13635508D02*
X10967801Y-13625984D01*
X10967801Y-13625984D02*
X11015420Y-13625984D01*
X11015420Y-13625984D02*
X11034468Y-13635508D01*
X11034468Y-13635508D02*
X11043991Y-13645031D01*
X11043991Y-13645031D02*
X11053515Y-13664079D01*
X11053515Y-13664079D02*
X11053515Y-13683127D01*
X11053515Y-13683127D02*
X11043991Y-13711698D01*
X11043991Y-13711698D02*
X10929706Y-13825984D01*
X10929706Y-13825984D02*
X11053515Y-13825984D01*
X11120182Y-13625984D02*
X11253515Y-13625984D01*
X11253515Y-13625984D02*
X11167801Y-13825984D01*
X11482087Y-13825984D02*
X11482087Y-13625984D01*
X11567801Y-13825984D02*
X11567801Y-13721222D01*
X11567801Y-13721222D02*
X11558277Y-13702174D01*
X11558277Y-13702174D02*
X11539230Y-13692650D01*
X11539230Y-13692650D02*
X11510658Y-13692650D01*
X11510658Y-13692650D02*
X11491610Y-13702174D01*
X11491610Y-13702174D02*
X11482087Y-13711698D01*
X11691610Y-13825984D02*
X11672563Y-13816460D01*
X11672563Y-13816460D02*
X11663039Y-13806936D01*
X11663039Y-13806936D02*
X11653515Y-13787888D01*
X11653515Y-13787888D02*
X11653515Y-13730746D01*
X11653515Y-13730746D02*
X11663039Y-13711698D01*
X11663039Y-13711698D02*
X11672563Y-13702174D01*
X11672563Y-13702174D02*
X11691610Y-13692650D01*
X11691610Y-13692650D02*
X11720182Y-13692650D01*
X11720182Y-13692650D02*
X11739230Y-13702174D01*
X11739230Y-13702174D02*
X11748753Y-13711698D01*
X11748753Y-13711698D02*
X11758277Y-13730746D01*
X11758277Y-13730746D02*
X11758277Y-13787888D01*
X11758277Y-13787888D02*
X11748753Y-13806936D01*
X11748753Y-13806936D02*
X11739230Y-13816460D01*
X11739230Y-13816460D02*
X11720182Y-13825984D01*
X11720182Y-13825984D02*
X11691610Y-13825984D01*
X11872563Y-13825984D02*
X11853515Y-13816460D01*
X11853515Y-13816460D02*
X11843991Y-13797412D01*
X11843991Y-13797412D02*
X11843991Y-13625984D01*
X12024944Y-13816460D02*
X12005896Y-13825984D01*
X12005896Y-13825984D02*
X11967801Y-13825984D01*
X11967801Y-13825984D02*
X11948753Y-13816460D01*
X11948753Y-13816460D02*
X11939230Y-13797412D01*
X11939230Y-13797412D02*
X11939230Y-13721222D01*
X11939230Y-13721222D02*
X11948753Y-13702174D01*
X11948753Y-13702174D02*
X11967801Y-13692650D01*
X11967801Y-13692650D02*
X12005896Y-13692650D01*
X12005896Y-13692650D02*
X12024944Y-13702174D01*
X12024944Y-13702174D02*
X12034468Y-13721222D01*
X12034468Y-13721222D02*
X12034468Y-13740269D01*
X12034468Y-13740269D02*
X11939230Y-13759317D01*
X12110658Y-13816460D02*
X12129706Y-13825984D01*
X12129706Y-13825984D02*
X12167801Y-13825984D01*
X12167801Y-13825984D02*
X12186849Y-13816460D01*
X12186849Y-13816460D02*
X12196372Y-13797412D01*
X12196372Y-13797412D02*
X12196372Y-13787888D01*
X12196372Y-13787888D02*
X12186849Y-13768841D01*
X12186849Y-13768841D02*
X12167801Y-13759317D01*
X12167801Y-13759317D02*
X12139230Y-13759317D01*
X12139230Y-13759317D02*
X12120182Y-13749793D01*
X12120182Y-13749793D02*
X12110658Y-13730746D01*
X12110658Y-13730746D02*
X12110658Y-13721222D01*
X12110658Y-13721222D02*
X12120182Y-13702174D01*
X12120182Y-13702174D02*
X12139230Y-13692650D01*
X12139230Y-13692650D02*
X12167801Y-13692650D01*
X12167801Y-13692650D02*
X12186849Y-13702174D01*
X12263039Y-13902174D02*
X12272563Y-13892650D01*
X12272563Y-13892650D02*
X12291611Y-13864079D01*
X12291611Y-13864079D02*
X12301134Y-13845031D01*
X12301134Y-13845031D02*
X12310658Y-13816460D01*
X12310658Y-13816460D02*
X12320182Y-13768841D01*
X12320182Y-13768841D02*
X12320182Y-13730746D01*
X12320182Y-13730746D02*
X12310658Y-13683127D01*
X12310658Y-13683127D02*
X12301134Y-13654555D01*
X12301134Y-13654555D02*
X12291611Y-13635508D01*
X12291611Y-13635508D02*
X12272563Y-13606936D01*
X12272563Y-13606936D02*
X12263039Y-13597412D01*
D13*
X7207500Y-14088500D02*
X7297500Y-13998500D01*
X7207500Y-13908500D01*
X7117500Y-13998500D01*
X7207500Y-14088500D01*
D11*
X7663039Y-14089984D02*
X7548753Y-14089984D01*
X7605896Y-14089984D02*
X7605896Y-13889984D01*
X7605896Y-13889984D02*
X7586848Y-13918555D01*
X7586848Y-13918555D02*
X7567801Y-13937603D01*
X7567801Y-13937603D02*
X7548753Y-13947127D01*
X7748753Y-14070936D02*
X7758277Y-14080460D01*
X7758277Y-14080460D02*
X7748753Y-14089984D01*
X7748753Y-14089984D02*
X7739229Y-14080460D01*
X7739229Y-14080460D02*
X7748753Y-14070936D01*
X7748753Y-14070936D02*
X7748753Y-14089984D01*
X7872562Y-13975698D02*
X7853515Y-13966174D01*
X7853515Y-13966174D02*
X7843991Y-13956650D01*
X7843991Y-13956650D02*
X7834467Y-13937603D01*
X7834467Y-13937603D02*
X7834467Y-13928079D01*
X7834467Y-13928079D02*
X7843991Y-13909031D01*
X7843991Y-13909031D02*
X7853515Y-13899508D01*
X7853515Y-13899508D02*
X7872562Y-13889984D01*
X7872562Y-13889984D02*
X7910658Y-13889984D01*
X7910658Y-13889984D02*
X7929705Y-13899508D01*
X7929705Y-13899508D02*
X7939229Y-13909031D01*
X7939229Y-13909031D02*
X7948753Y-13928079D01*
X7948753Y-13928079D02*
X7948753Y-13937603D01*
X7948753Y-13937603D02*
X7939229Y-13956650D01*
X7939229Y-13956650D02*
X7929705Y-13966174D01*
X7929705Y-13966174D02*
X7910658Y-13975698D01*
X7910658Y-13975698D02*
X7872562Y-13975698D01*
X7872562Y-13975698D02*
X7853515Y-13985222D01*
X7853515Y-13985222D02*
X7843991Y-13994746D01*
X7843991Y-13994746D02*
X7834467Y-14013793D01*
X7834467Y-14013793D02*
X7834467Y-14051888D01*
X7834467Y-14051888D02*
X7843991Y-14070936D01*
X7843991Y-14070936D02*
X7853515Y-14080460D01*
X7853515Y-14080460D02*
X7872562Y-14089984D01*
X7872562Y-14089984D02*
X7910658Y-14089984D01*
X7910658Y-14089984D02*
X7929705Y-14080460D01*
X7929705Y-14080460D02*
X7939229Y-14070936D01*
X7939229Y-14070936D02*
X7948753Y-14051888D01*
X7948753Y-14051888D02*
X7948753Y-14013793D01*
X7948753Y-14013793D02*
X7939229Y-13994746D01*
X7939229Y-13994746D02*
X7929705Y-13985222D01*
X7929705Y-13985222D02*
X7910658Y-13975698D01*
X8072562Y-13889984D02*
X8091610Y-13889984D01*
X8091610Y-13889984D02*
X8110658Y-13899508D01*
X8110658Y-13899508D02*
X8120182Y-13909031D01*
X8120182Y-13909031D02*
X8129705Y-13928079D01*
X8129705Y-13928079D02*
X8139229Y-13966174D01*
X8139229Y-13966174D02*
X8139229Y-14013793D01*
X8139229Y-14013793D02*
X8129705Y-14051888D01*
X8129705Y-14051888D02*
X8120182Y-14070936D01*
X8120182Y-14070936D02*
X8110658Y-14080460D01*
X8110658Y-14080460D02*
X8091610Y-14089984D01*
X8091610Y-14089984D02*
X8072562Y-14089984D01*
X8072562Y-14089984D02*
X8053515Y-14080460D01*
X8053515Y-14080460D02*
X8043991Y-14070936D01*
X8043991Y-14070936D02*
X8034467Y-14051888D01*
X8034467Y-14051888D02*
X8024943Y-14013793D01*
X8024943Y-14013793D02*
X8024943Y-13966174D01*
X8024943Y-13966174D02*
X8034467Y-13928079D01*
X8034467Y-13928079D02*
X8043991Y-13909031D01*
X8043991Y-13909031D02*
X8053515Y-13899508D01*
X8053515Y-13899508D02*
X8072562Y-13889984D01*
X8263039Y-13889984D02*
X8282086Y-13889984D01*
X8282086Y-13889984D02*
X8301134Y-13899508D01*
X8301134Y-13899508D02*
X8310658Y-13909031D01*
X8310658Y-13909031D02*
X8320182Y-13928079D01*
X8320182Y-13928079D02*
X8329705Y-13966174D01*
X8329705Y-13966174D02*
X8329705Y-14013793D01*
X8329705Y-14013793D02*
X8320182Y-14051888D01*
X8320182Y-14051888D02*
X8310658Y-14070936D01*
X8310658Y-14070936D02*
X8301134Y-14080460D01*
X8301134Y-14080460D02*
X8282086Y-14089984D01*
X8282086Y-14089984D02*
X8263039Y-14089984D01*
X8263039Y-14089984D02*
X8243991Y-14080460D01*
X8243991Y-14080460D02*
X8234467Y-14070936D01*
X8234467Y-14070936D02*
X8224943Y-14051888D01*
X8224943Y-14051888D02*
X8215420Y-14013793D01*
X8215420Y-14013793D02*
X8215420Y-13966174D01*
X8215420Y-13966174D02*
X8224943Y-13928079D01*
X8224943Y-13928079D02*
X8234467Y-13909031D01*
X8234467Y-13909031D02*
X8243991Y-13899508D01*
X8243991Y-13899508D02*
X8263039Y-13889984D01*
X8415420Y-14089984D02*
X8415420Y-13956650D01*
X8415420Y-13975698D02*
X8424944Y-13966174D01*
X8424944Y-13966174D02*
X8443991Y-13956650D01*
X8443991Y-13956650D02*
X8472563Y-13956650D01*
X8472563Y-13956650D02*
X8491610Y-13966174D01*
X8491610Y-13966174D02*
X8501134Y-13985222D01*
X8501134Y-13985222D02*
X8501134Y-14089984D01*
X8501134Y-13985222D02*
X8510658Y-13966174D01*
X8510658Y-13966174D02*
X8529705Y-13956650D01*
X8529705Y-13956650D02*
X8558277Y-13956650D01*
X8558277Y-13956650D02*
X8577325Y-13966174D01*
X8577325Y-13966174D02*
X8586848Y-13985222D01*
X8586848Y-13985222D02*
X8586848Y-14089984D01*
X8682086Y-14089984D02*
X8682086Y-13956650D01*
X8682086Y-13975698D02*
X8691610Y-13966174D01*
X8691610Y-13966174D02*
X8710658Y-13956650D01*
X8710658Y-13956650D02*
X8739229Y-13956650D01*
X8739229Y-13956650D02*
X8758277Y-13966174D01*
X8758277Y-13966174D02*
X8767801Y-13985222D01*
X8767801Y-13985222D02*
X8767801Y-14089984D01*
X8767801Y-13985222D02*
X8777325Y-13966174D01*
X8777325Y-13966174D02*
X8796372Y-13956650D01*
X8796372Y-13956650D02*
X8824944Y-13956650D01*
X8824944Y-13956650D02*
X8843991Y-13966174D01*
X8843991Y-13966174D02*
X8853515Y-13985222D01*
X8853515Y-13985222D02*
X8853515Y-14089984D01*
X9243991Y-13880460D02*
X9072563Y-14137603D01*
X9501134Y-13889984D02*
X9520182Y-13889984D01*
X9520182Y-13889984D02*
X9539229Y-13899508D01*
X9539229Y-13899508D02*
X9548753Y-13909031D01*
X9548753Y-13909031D02*
X9558277Y-13928079D01*
X9558277Y-13928079D02*
X9567801Y-13966174D01*
X9567801Y-13966174D02*
X9567801Y-14013793D01*
X9567801Y-14013793D02*
X9558277Y-14051888D01*
X9558277Y-14051888D02*
X9548753Y-14070936D01*
X9548753Y-14070936D02*
X9539229Y-14080460D01*
X9539229Y-14080460D02*
X9520182Y-14089984D01*
X9520182Y-14089984D02*
X9501134Y-14089984D01*
X9501134Y-14089984D02*
X9482087Y-14080460D01*
X9482087Y-14080460D02*
X9472563Y-14070936D01*
X9472563Y-14070936D02*
X9463039Y-14051888D01*
X9463039Y-14051888D02*
X9453515Y-14013793D01*
X9453515Y-14013793D02*
X9453515Y-13966174D01*
X9453515Y-13966174D02*
X9463039Y-13928079D01*
X9463039Y-13928079D02*
X9472563Y-13909031D01*
X9472563Y-13909031D02*
X9482087Y-13899508D01*
X9482087Y-13899508D02*
X9501134Y-13889984D01*
X9653515Y-14070936D02*
X9663039Y-14080460D01*
X9663039Y-14080460D02*
X9653515Y-14089984D01*
X9653515Y-14089984D02*
X9643991Y-14080460D01*
X9643991Y-14080460D02*
X9653515Y-14070936D01*
X9653515Y-14070936D02*
X9653515Y-14089984D01*
X9786848Y-13889984D02*
X9805896Y-13889984D01*
X9805896Y-13889984D02*
X9824944Y-13899508D01*
X9824944Y-13899508D02*
X9834468Y-13909031D01*
X9834468Y-13909031D02*
X9843991Y-13928079D01*
X9843991Y-13928079D02*
X9853515Y-13966174D01*
X9853515Y-13966174D02*
X9853515Y-14013793D01*
X9853515Y-14013793D02*
X9843991Y-14051888D01*
X9843991Y-14051888D02*
X9834468Y-14070936D01*
X9834468Y-14070936D02*
X9824944Y-14080460D01*
X9824944Y-14080460D02*
X9805896Y-14089984D01*
X9805896Y-14089984D02*
X9786848Y-14089984D01*
X9786848Y-14089984D02*
X9767801Y-14080460D01*
X9767801Y-14080460D02*
X9758277Y-14070936D01*
X9758277Y-14070936D02*
X9748753Y-14051888D01*
X9748753Y-14051888D02*
X9739229Y-14013793D01*
X9739229Y-14013793D02*
X9739229Y-13966174D01*
X9739229Y-13966174D02*
X9748753Y-13928079D01*
X9748753Y-13928079D02*
X9758277Y-13909031D01*
X9758277Y-13909031D02*
X9767801Y-13899508D01*
X9767801Y-13899508D02*
X9786848Y-13889984D01*
X9920182Y-13889984D02*
X10053515Y-13889984D01*
X10053515Y-13889984D02*
X9967801Y-14089984D01*
X10167801Y-13889984D02*
X10186849Y-13889984D01*
X10186849Y-13889984D02*
X10205896Y-13899508D01*
X10205896Y-13899508D02*
X10215420Y-13909031D01*
X10215420Y-13909031D02*
X10224944Y-13928079D01*
X10224944Y-13928079D02*
X10234468Y-13966174D01*
X10234468Y-13966174D02*
X10234468Y-14013793D01*
X10234468Y-14013793D02*
X10224944Y-14051888D01*
X10224944Y-14051888D02*
X10215420Y-14070936D01*
X10215420Y-14070936D02*
X10205896Y-14080460D01*
X10205896Y-14080460D02*
X10186849Y-14089984D01*
X10186849Y-14089984D02*
X10167801Y-14089984D01*
X10167801Y-14089984D02*
X10148753Y-14080460D01*
X10148753Y-14080460D02*
X10139229Y-14070936D01*
X10139229Y-14070936D02*
X10129706Y-14051888D01*
X10129706Y-14051888D02*
X10120182Y-14013793D01*
X10120182Y-14013793D02*
X10120182Y-13966174D01*
X10120182Y-13966174D02*
X10129706Y-13928079D01*
X10129706Y-13928079D02*
X10139229Y-13909031D01*
X10139229Y-13909031D02*
X10148753Y-13899508D01*
X10148753Y-13899508D02*
X10167801Y-13889984D01*
X10329706Y-14089984D02*
X10367801Y-14089984D01*
X10367801Y-14089984D02*
X10386849Y-14080460D01*
X10386849Y-14080460D02*
X10396372Y-14070936D01*
X10396372Y-14070936D02*
X10415420Y-14042365D01*
X10415420Y-14042365D02*
X10424944Y-14004269D01*
X10424944Y-14004269D02*
X10424944Y-13928079D01*
X10424944Y-13928079D02*
X10415420Y-13909031D01*
X10415420Y-13909031D02*
X10405896Y-13899508D01*
X10405896Y-13899508D02*
X10386849Y-13889984D01*
X10386849Y-13889984D02*
X10348753Y-13889984D01*
X10348753Y-13889984D02*
X10329706Y-13899508D01*
X10329706Y-13899508D02*
X10320182Y-13909031D01*
X10320182Y-13909031D02*
X10310658Y-13928079D01*
X10310658Y-13928079D02*
X10310658Y-13975698D01*
X10310658Y-13975698D02*
X10320182Y-13994746D01*
X10320182Y-13994746D02*
X10329706Y-14004269D01*
X10329706Y-14004269D02*
X10348753Y-14013793D01*
X10348753Y-14013793D02*
X10386849Y-14013793D01*
X10386849Y-14013793D02*
X10405896Y-14004269D01*
X10405896Y-14004269D02*
X10415420Y-13994746D01*
X10415420Y-13994746D02*
X10424944Y-13975698D01*
X10501134Y-13889984D02*
X10501134Y-13928079D01*
X10577325Y-13889984D02*
X10577325Y-13928079D01*
X10872563Y-14166174D02*
X10863039Y-14156650D01*
X10863039Y-14156650D02*
X10843991Y-14128079D01*
X10843991Y-14128079D02*
X10834468Y-14109031D01*
X10834468Y-14109031D02*
X10824944Y-14080460D01*
X10824944Y-14080460D02*
X10815420Y-14032841D01*
X10815420Y-14032841D02*
X10815420Y-13994746D01*
X10815420Y-13994746D02*
X10824944Y-13947127D01*
X10824944Y-13947127D02*
X10834468Y-13918555D01*
X10834468Y-13918555D02*
X10843991Y-13899508D01*
X10843991Y-13899508D02*
X10863039Y-13870936D01*
X10863039Y-13870936D02*
X10872563Y-13861412D01*
X10986849Y-13889984D02*
X11005896Y-13889984D01*
X11005896Y-13889984D02*
X11024944Y-13899508D01*
X11024944Y-13899508D02*
X11034468Y-13909031D01*
X11034468Y-13909031D02*
X11043991Y-13928079D01*
X11043991Y-13928079D02*
X11053515Y-13966174D01*
X11053515Y-13966174D02*
X11053515Y-14013793D01*
X11053515Y-14013793D02*
X11043991Y-14051888D01*
X11043991Y-14051888D02*
X11034468Y-14070936D01*
X11034468Y-14070936D02*
X11024944Y-14080460D01*
X11024944Y-14080460D02*
X11005896Y-14089984D01*
X11005896Y-14089984D02*
X10986849Y-14089984D01*
X10986849Y-14089984D02*
X10967801Y-14080460D01*
X10967801Y-14080460D02*
X10958277Y-14070936D01*
X10958277Y-14070936D02*
X10948753Y-14051888D01*
X10948753Y-14051888D02*
X10939230Y-14013793D01*
X10939230Y-14013793D02*
X10939230Y-13966174D01*
X10939230Y-13966174D02*
X10948753Y-13928079D01*
X10948753Y-13928079D02*
X10958277Y-13909031D01*
X10958277Y-13909031D02*
X10967801Y-13899508D01*
X10967801Y-13899508D02*
X10986849Y-13889984D01*
X11291610Y-14089984D02*
X11291610Y-13889984D01*
X11377325Y-14089984D02*
X11377325Y-13985222D01*
X11377325Y-13985222D02*
X11367801Y-13966174D01*
X11367801Y-13966174D02*
X11348753Y-13956650D01*
X11348753Y-13956650D02*
X11320182Y-13956650D01*
X11320182Y-13956650D02*
X11301134Y-13966174D01*
X11301134Y-13966174D02*
X11291610Y-13975698D01*
X11501134Y-14089984D02*
X11482087Y-14080460D01*
X11482087Y-14080460D02*
X11472563Y-14070936D01*
X11472563Y-14070936D02*
X11463039Y-14051888D01*
X11463039Y-14051888D02*
X11463039Y-13994746D01*
X11463039Y-13994746D02*
X11472563Y-13975698D01*
X11472563Y-13975698D02*
X11482087Y-13966174D01*
X11482087Y-13966174D02*
X11501134Y-13956650D01*
X11501134Y-13956650D02*
X11529706Y-13956650D01*
X11529706Y-13956650D02*
X11548753Y-13966174D01*
X11548753Y-13966174D02*
X11558277Y-13975698D01*
X11558277Y-13975698D02*
X11567801Y-13994746D01*
X11567801Y-13994746D02*
X11567801Y-14051888D01*
X11567801Y-14051888D02*
X11558277Y-14070936D01*
X11558277Y-14070936D02*
X11548753Y-14080460D01*
X11548753Y-14080460D02*
X11529706Y-14089984D01*
X11529706Y-14089984D02*
X11501134Y-14089984D01*
X11682087Y-14089984D02*
X11663039Y-14080460D01*
X11663039Y-14080460D02*
X11653515Y-14061412D01*
X11653515Y-14061412D02*
X11653515Y-13889984D01*
X11834468Y-14080460D02*
X11815420Y-14089984D01*
X11815420Y-14089984D02*
X11777325Y-14089984D01*
X11777325Y-14089984D02*
X11758277Y-14080460D01*
X11758277Y-14080460D02*
X11748753Y-14061412D01*
X11748753Y-14061412D02*
X11748753Y-13985222D01*
X11748753Y-13985222D02*
X11758277Y-13966174D01*
X11758277Y-13966174D02*
X11777325Y-13956650D01*
X11777325Y-13956650D02*
X11815420Y-13956650D01*
X11815420Y-13956650D02*
X11834468Y-13966174D01*
X11834468Y-13966174D02*
X11843991Y-13985222D01*
X11843991Y-13985222D02*
X11843991Y-14004269D01*
X11843991Y-14004269D02*
X11748753Y-14023317D01*
X11920182Y-14080460D02*
X11939230Y-14089984D01*
X11939230Y-14089984D02*
X11977325Y-14089984D01*
X11977325Y-14089984D02*
X11996372Y-14080460D01*
X11996372Y-14080460D02*
X12005896Y-14061412D01*
X12005896Y-14061412D02*
X12005896Y-14051888D01*
X12005896Y-14051888D02*
X11996372Y-14032841D01*
X11996372Y-14032841D02*
X11977325Y-14023317D01*
X11977325Y-14023317D02*
X11948753Y-14023317D01*
X11948753Y-14023317D02*
X11929706Y-14013793D01*
X11929706Y-14013793D02*
X11920182Y-13994746D01*
X11920182Y-13994746D02*
X11920182Y-13985222D01*
X11920182Y-13985222D02*
X11929706Y-13966174D01*
X11929706Y-13966174D02*
X11948753Y-13956650D01*
X11948753Y-13956650D02*
X11977325Y-13956650D01*
X11977325Y-13956650D02*
X11996372Y-13966174D01*
X12243992Y-14013793D02*
X12396373Y-14013793D01*
X12320182Y-14089984D02*
X12320182Y-13937603D01*
X12729706Y-13956650D02*
X12729706Y-14089984D01*
X12682087Y-13880460D02*
X12634468Y-14023317D01*
X12634468Y-14023317D02*
X12758277Y-14023317D01*
X12977325Y-14080460D02*
X12996373Y-14089984D01*
X12996373Y-14089984D02*
X13034468Y-14089984D01*
X13034468Y-14089984D02*
X13053515Y-14080460D01*
X13053515Y-14080460D02*
X13063039Y-14061412D01*
X13063039Y-14061412D02*
X13063039Y-14051888D01*
X13063039Y-14051888D02*
X13053515Y-14032841D01*
X13053515Y-14032841D02*
X13034468Y-14023317D01*
X13034468Y-14023317D02*
X13005896Y-14023317D01*
X13005896Y-14023317D02*
X12986849Y-14013793D01*
X12986849Y-14013793D02*
X12977325Y-13994746D01*
X12977325Y-13994746D02*
X12977325Y-13985222D01*
X12977325Y-13985222D02*
X12986849Y-13966174D01*
X12986849Y-13966174D02*
X13005896Y-13956650D01*
X13005896Y-13956650D02*
X13034468Y-13956650D01*
X13034468Y-13956650D02*
X13053515Y-13966174D01*
X13177325Y-14089984D02*
X13158277Y-14080460D01*
X13158277Y-14080460D02*
X13148754Y-14061412D01*
X13148754Y-14061412D02*
X13148754Y-13889984D01*
X13282087Y-14089984D02*
X13263039Y-14080460D01*
X13263039Y-14080460D02*
X13253515Y-14070936D01*
X13253515Y-14070936D02*
X13243992Y-14051888D01*
X13243992Y-14051888D02*
X13243992Y-13994746D01*
X13243992Y-13994746D02*
X13253515Y-13975698D01*
X13253515Y-13975698D02*
X13263039Y-13966174D01*
X13263039Y-13966174D02*
X13282087Y-13956650D01*
X13282087Y-13956650D02*
X13310658Y-13956650D01*
X13310658Y-13956650D02*
X13329706Y-13966174D01*
X13329706Y-13966174D02*
X13339230Y-13975698D01*
X13339230Y-13975698D02*
X13348754Y-13994746D01*
X13348754Y-13994746D02*
X13348754Y-14051888D01*
X13348754Y-14051888D02*
X13339230Y-14070936D01*
X13339230Y-14070936D02*
X13329706Y-14080460D01*
X13329706Y-14080460D02*
X13310658Y-14089984D01*
X13310658Y-14089984D02*
X13282087Y-14089984D01*
X13405896Y-13956650D02*
X13482087Y-13956650D01*
X13434468Y-13889984D02*
X13434468Y-14061412D01*
X13434468Y-14061412D02*
X13443992Y-14080460D01*
X13443992Y-14080460D02*
X13463039Y-14089984D01*
X13463039Y-14089984D02*
X13482087Y-14089984D01*
X13539230Y-14080460D02*
X13558277Y-14089984D01*
X13558277Y-14089984D02*
X13596373Y-14089984D01*
X13596373Y-14089984D02*
X13615420Y-14080460D01*
X13615420Y-14080460D02*
X13624944Y-14061412D01*
X13624944Y-14061412D02*
X13624944Y-14051888D01*
X13624944Y-14051888D02*
X13615420Y-14032841D01*
X13615420Y-14032841D02*
X13596373Y-14023317D01*
X13596373Y-14023317D02*
X13567801Y-14023317D01*
X13567801Y-14023317D02*
X13548754Y-14013793D01*
X13548754Y-14013793D02*
X13539230Y-13994746D01*
X13539230Y-13994746D02*
X13539230Y-13985222D01*
X13539230Y-13985222D02*
X13548754Y-13966174D01*
X13548754Y-13966174D02*
X13567801Y-13956650D01*
X13567801Y-13956650D02*
X13596373Y-13956650D01*
X13596373Y-13956650D02*
X13615420Y-13966174D01*
X13691611Y-14166174D02*
X13701135Y-14156650D01*
X13701135Y-14156650D02*
X13720182Y-14128079D01*
X13720182Y-14128079D02*
X13729706Y-14109031D01*
X13729706Y-14109031D02*
X13739230Y-14080460D01*
X13739230Y-14080460D02*
X13748754Y-14032841D01*
X13748754Y-14032841D02*
X13748754Y-13994746D01*
X13748754Y-13994746D02*
X13739230Y-13947127D01*
X13739230Y-13947127D02*
X13729706Y-13918555D01*
X13729706Y-13918555D02*
X13720182Y-13899508D01*
X13720182Y-13899508D02*
X13701135Y-13870936D01*
X13701135Y-13870936D02*
X13691611Y-13861412D01*
X7097500Y-14198500D02*
X7297500Y-14398500D01*
X7297500Y-14198500D02*
X7097500Y-14398500D01*
X7297500Y-14298500D02*
G75*
G02*
X7097500Y-14298500I-100000J0D01*
G01*
X7097500Y-14298500D02*
G75*
G02*
X7297500Y-14298500I100000J0D01*
G01*
X7548753Y-14209031D02*
X7558277Y-14199508D01*
X7558277Y-14199508D02*
X7577324Y-14189984D01*
X7577324Y-14189984D02*
X7624943Y-14189984D01*
X7624943Y-14189984D02*
X7643991Y-14199508D01*
X7643991Y-14199508D02*
X7653515Y-14209031D01*
X7653515Y-14209031D02*
X7663039Y-14228079D01*
X7663039Y-14228079D02*
X7663039Y-14247127D01*
X7663039Y-14247127D02*
X7653515Y-14275698D01*
X7653515Y-14275698D02*
X7539229Y-14389984D01*
X7539229Y-14389984D02*
X7663039Y-14389984D01*
X7748753Y-14370936D02*
X7758277Y-14380460D01*
X7758277Y-14380460D02*
X7748753Y-14389984D01*
X7748753Y-14389984D02*
X7739229Y-14380460D01*
X7739229Y-14380460D02*
X7748753Y-14370936D01*
X7748753Y-14370936D02*
X7748753Y-14389984D01*
X7939229Y-14189984D02*
X7843991Y-14189984D01*
X7843991Y-14189984D02*
X7834467Y-14285222D01*
X7834467Y-14285222D02*
X7843991Y-14275698D01*
X7843991Y-14275698D02*
X7863039Y-14266174D01*
X7863039Y-14266174D02*
X7910658Y-14266174D01*
X7910658Y-14266174D02*
X7929705Y-14275698D01*
X7929705Y-14275698D02*
X7939229Y-14285222D01*
X7939229Y-14285222D02*
X7948753Y-14304269D01*
X7948753Y-14304269D02*
X7948753Y-14351888D01*
X7948753Y-14351888D02*
X7939229Y-14370936D01*
X7939229Y-14370936D02*
X7929705Y-14380460D01*
X7929705Y-14380460D02*
X7910658Y-14389984D01*
X7910658Y-14389984D02*
X7863039Y-14389984D01*
X7863039Y-14389984D02*
X7843991Y-14380460D01*
X7843991Y-14380460D02*
X7834467Y-14370936D01*
X8072562Y-14189984D02*
X8091610Y-14189984D01*
X8091610Y-14189984D02*
X8110658Y-14199508D01*
X8110658Y-14199508D02*
X8120182Y-14209031D01*
X8120182Y-14209031D02*
X8129705Y-14228079D01*
X8129705Y-14228079D02*
X8139229Y-14266174D01*
X8139229Y-14266174D02*
X8139229Y-14313793D01*
X8139229Y-14313793D02*
X8129705Y-14351888D01*
X8129705Y-14351888D02*
X8120182Y-14370936D01*
X8120182Y-14370936D02*
X8110658Y-14380460D01*
X8110658Y-14380460D02*
X8091610Y-14389984D01*
X8091610Y-14389984D02*
X8072562Y-14389984D01*
X8072562Y-14389984D02*
X8053515Y-14380460D01*
X8053515Y-14380460D02*
X8043991Y-14370936D01*
X8043991Y-14370936D02*
X8034467Y-14351888D01*
X8034467Y-14351888D02*
X8024943Y-14313793D01*
X8024943Y-14313793D02*
X8024943Y-14266174D01*
X8024943Y-14266174D02*
X8034467Y-14228079D01*
X8034467Y-14228079D02*
X8043991Y-14209031D01*
X8043991Y-14209031D02*
X8053515Y-14199508D01*
X8053515Y-14199508D02*
X8072562Y-14189984D01*
X8263039Y-14189984D02*
X8282086Y-14189984D01*
X8282086Y-14189984D02*
X8301134Y-14199508D01*
X8301134Y-14199508D02*
X8310658Y-14209031D01*
X8310658Y-14209031D02*
X8320182Y-14228079D01*
X8320182Y-14228079D02*
X8329705Y-14266174D01*
X8329705Y-14266174D02*
X8329705Y-14313793D01*
X8329705Y-14313793D02*
X8320182Y-14351888D01*
X8320182Y-14351888D02*
X8310658Y-14370936D01*
X8310658Y-14370936D02*
X8301134Y-14380460D01*
X8301134Y-14380460D02*
X8282086Y-14389984D01*
X8282086Y-14389984D02*
X8263039Y-14389984D01*
X8263039Y-14389984D02*
X8243991Y-14380460D01*
X8243991Y-14380460D02*
X8234467Y-14370936D01*
X8234467Y-14370936D02*
X8224943Y-14351888D01*
X8224943Y-14351888D02*
X8215420Y-14313793D01*
X8215420Y-14313793D02*
X8215420Y-14266174D01*
X8215420Y-14266174D02*
X8224943Y-14228079D01*
X8224943Y-14228079D02*
X8234467Y-14209031D01*
X8234467Y-14209031D02*
X8243991Y-14199508D01*
X8243991Y-14199508D02*
X8263039Y-14189984D01*
X8415420Y-14389984D02*
X8415420Y-14256650D01*
X8415420Y-14275698D02*
X8424944Y-14266174D01*
X8424944Y-14266174D02*
X8443991Y-14256650D01*
X8443991Y-14256650D02*
X8472563Y-14256650D01*
X8472563Y-14256650D02*
X8491610Y-14266174D01*
X8491610Y-14266174D02*
X8501134Y-14285222D01*
X8501134Y-14285222D02*
X8501134Y-14389984D01*
X8501134Y-14285222D02*
X8510658Y-14266174D01*
X8510658Y-14266174D02*
X8529705Y-14256650D01*
X8529705Y-14256650D02*
X8558277Y-14256650D01*
X8558277Y-14256650D02*
X8577325Y-14266174D01*
X8577325Y-14266174D02*
X8586848Y-14285222D01*
X8586848Y-14285222D02*
X8586848Y-14389984D01*
X8682086Y-14389984D02*
X8682086Y-14256650D01*
X8682086Y-14275698D02*
X8691610Y-14266174D01*
X8691610Y-14266174D02*
X8710658Y-14256650D01*
X8710658Y-14256650D02*
X8739229Y-14256650D01*
X8739229Y-14256650D02*
X8758277Y-14266174D01*
X8758277Y-14266174D02*
X8767801Y-14285222D01*
X8767801Y-14285222D02*
X8767801Y-14389984D01*
X8767801Y-14285222D02*
X8777325Y-14266174D01*
X8777325Y-14266174D02*
X8796372Y-14256650D01*
X8796372Y-14256650D02*
X8824944Y-14256650D01*
X8824944Y-14256650D02*
X8843991Y-14266174D01*
X8843991Y-14266174D02*
X8853515Y-14285222D01*
X8853515Y-14285222D02*
X8853515Y-14389984D01*
X9243991Y-14180460D02*
X9072563Y-14437603D01*
X9501134Y-14189984D02*
X9520182Y-14189984D01*
X9520182Y-14189984D02*
X9539229Y-14199508D01*
X9539229Y-14199508D02*
X9548753Y-14209031D01*
X9548753Y-14209031D02*
X9558277Y-14228079D01*
X9558277Y-14228079D02*
X9567801Y-14266174D01*
X9567801Y-14266174D02*
X9567801Y-14313793D01*
X9567801Y-14313793D02*
X9558277Y-14351888D01*
X9558277Y-14351888D02*
X9548753Y-14370936D01*
X9548753Y-14370936D02*
X9539229Y-14380460D01*
X9539229Y-14380460D02*
X9520182Y-14389984D01*
X9520182Y-14389984D02*
X9501134Y-14389984D01*
X9501134Y-14389984D02*
X9482087Y-14380460D01*
X9482087Y-14380460D02*
X9472563Y-14370936D01*
X9472563Y-14370936D02*
X9463039Y-14351888D01*
X9463039Y-14351888D02*
X9453515Y-14313793D01*
X9453515Y-14313793D02*
X9453515Y-14266174D01*
X9453515Y-14266174D02*
X9463039Y-14228079D01*
X9463039Y-14228079D02*
X9472563Y-14209031D01*
X9472563Y-14209031D02*
X9482087Y-14199508D01*
X9482087Y-14199508D02*
X9501134Y-14189984D01*
X9653515Y-14370936D02*
X9663039Y-14380460D01*
X9663039Y-14380460D02*
X9653515Y-14389984D01*
X9653515Y-14389984D02*
X9643991Y-14380460D01*
X9643991Y-14380460D02*
X9653515Y-14370936D01*
X9653515Y-14370936D02*
X9653515Y-14389984D01*
X9786848Y-14189984D02*
X9805896Y-14189984D01*
X9805896Y-14189984D02*
X9824944Y-14199508D01*
X9824944Y-14199508D02*
X9834468Y-14209031D01*
X9834468Y-14209031D02*
X9843991Y-14228079D01*
X9843991Y-14228079D02*
X9853515Y-14266174D01*
X9853515Y-14266174D02*
X9853515Y-14313793D01*
X9853515Y-14313793D02*
X9843991Y-14351888D01*
X9843991Y-14351888D02*
X9834468Y-14370936D01*
X9834468Y-14370936D02*
X9824944Y-14380460D01*
X9824944Y-14380460D02*
X9805896Y-14389984D01*
X9805896Y-14389984D02*
X9786848Y-14389984D01*
X9786848Y-14389984D02*
X9767801Y-14380460D01*
X9767801Y-14380460D02*
X9758277Y-14370936D01*
X9758277Y-14370936D02*
X9748753Y-14351888D01*
X9748753Y-14351888D02*
X9739229Y-14313793D01*
X9739229Y-14313793D02*
X9739229Y-14266174D01*
X9739229Y-14266174D02*
X9748753Y-14228079D01*
X9748753Y-14228079D02*
X9758277Y-14209031D01*
X9758277Y-14209031D02*
X9767801Y-14199508D01*
X9767801Y-14199508D02*
X9786848Y-14189984D01*
X9948753Y-14389984D02*
X9986848Y-14389984D01*
X9986848Y-14389984D02*
X10005896Y-14380460D01*
X10005896Y-14380460D02*
X10015420Y-14370936D01*
X10015420Y-14370936D02*
X10034468Y-14342365D01*
X10034468Y-14342365D02*
X10043991Y-14304269D01*
X10043991Y-14304269D02*
X10043991Y-14228079D01*
X10043991Y-14228079D02*
X10034468Y-14209031D01*
X10034468Y-14209031D02*
X10024944Y-14199508D01*
X10024944Y-14199508D02*
X10005896Y-14189984D01*
X10005896Y-14189984D02*
X9967801Y-14189984D01*
X9967801Y-14189984D02*
X9948753Y-14199508D01*
X9948753Y-14199508D02*
X9939229Y-14209031D01*
X9939229Y-14209031D02*
X9929706Y-14228079D01*
X9929706Y-14228079D02*
X9929706Y-14275698D01*
X9929706Y-14275698D02*
X9939229Y-14294746D01*
X9939229Y-14294746D02*
X9948753Y-14304269D01*
X9948753Y-14304269D02*
X9967801Y-14313793D01*
X9967801Y-14313793D02*
X10005896Y-14313793D01*
X10005896Y-14313793D02*
X10024944Y-14304269D01*
X10024944Y-14304269D02*
X10034468Y-14294746D01*
X10034468Y-14294746D02*
X10043991Y-14275698D01*
X10158277Y-14275698D02*
X10139229Y-14266174D01*
X10139229Y-14266174D02*
X10129706Y-14256650D01*
X10129706Y-14256650D02*
X10120182Y-14237603D01*
X10120182Y-14237603D02*
X10120182Y-14228079D01*
X10120182Y-14228079D02*
X10129706Y-14209031D01*
X10129706Y-14209031D02*
X10139229Y-14199508D01*
X10139229Y-14199508D02*
X10158277Y-14189984D01*
X10158277Y-14189984D02*
X10196372Y-14189984D01*
X10196372Y-14189984D02*
X10215420Y-14199508D01*
X10215420Y-14199508D02*
X10224944Y-14209031D01*
X10224944Y-14209031D02*
X10234468Y-14228079D01*
X10234468Y-14228079D02*
X10234468Y-14237603D01*
X10234468Y-14237603D02*
X10224944Y-14256650D01*
X10224944Y-14256650D02*
X10215420Y-14266174D01*
X10215420Y-14266174D02*
X10196372Y-14275698D01*
X10196372Y-14275698D02*
X10158277Y-14275698D01*
X10158277Y-14275698D02*
X10139229Y-14285222D01*
X10139229Y-14285222D02*
X10129706Y-14294746D01*
X10129706Y-14294746D02*
X10120182Y-14313793D01*
X10120182Y-14313793D02*
X10120182Y-14351888D01*
X10120182Y-14351888D02*
X10129706Y-14370936D01*
X10129706Y-14370936D02*
X10139229Y-14380460D01*
X10139229Y-14380460D02*
X10158277Y-14389984D01*
X10158277Y-14389984D02*
X10196372Y-14389984D01*
X10196372Y-14389984D02*
X10215420Y-14380460D01*
X10215420Y-14380460D02*
X10224944Y-14370936D01*
X10224944Y-14370936D02*
X10234468Y-14351888D01*
X10234468Y-14351888D02*
X10234468Y-14313793D01*
X10234468Y-14313793D02*
X10224944Y-14294746D01*
X10224944Y-14294746D02*
X10215420Y-14285222D01*
X10215420Y-14285222D02*
X10196372Y-14275698D01*
X10405896Y-14256650D02*
X10405896Y-14389984D01*
X10358277Y-14180460D02*
X10310658Y-14323317D01*
X10310658Y-14323317D02*
X10434468Y-14323317D01*
X10501134Y-14189984D02*
X10501134Y-14228079D01*
X10577325Y-14189984D02*
X10577325Y-14228079D01*
X10872563Y-14466174D02*
X10863039Y-14456650D01*
X10863039Y-14456650D02*
X10843991Y-14428079D01*
X10843991Y-14428079D02*
X10834468Y-14409031D01*
X10834468Y-14409031D02*
X10824944Y-14380460D01*
X10824944Y-14380460D02*
X10815420Y-14332841D01*
X10815420Y-14332841D02*
X10815420Y-14294746D01*
X10815420Y-14294746D02*
X10824944Y-14247127D01*
X10824944Y-14247127D02*
X10834468Y-14218555D01*
X10834468Y-14218555D02*
X10843991Y-14199508D01*
X10843991Y-14199508D02*
X10863039Y-14170936D01*
X10863039Y-14170936D02*
X10872563Y-14161412D01*
X10929706Y-14189984D02*
X11053515Y-14189984D01*
X11053515Y-14189984D02*
X10986849Y-14266174D01*
X10986849Y-14266174D02*
X11015420Y-14266174D01*
X11015420Y-14266174D02*
X11034468Y-14275698D01*
X11034468Y-14275698D02*
X11043991Y-14285222D01*
X11043991Y-14285222D02*
X11053515Y-14304269D01*
X11053515Y-14304269D02*
X11053515Y-14351888D01*
X11053515Y-14351888D02*
X11043991Y-14370936D01*
X11043991Y-14370936D02*
X11034468Y-14380460D01*
X11034468Y-14380460D02*
X11015420Y-14389984D01*
X11015420Y-14389984D02*
X10958277Y-14389984D01*
X10958277Y-14389984D02*
X10939230Y-14380460D01*
X10939230Y-14380460D02*
X10929706Y-14370936D01*
X11291610Y-14389984D02*
X11291610Y-14189984D01*
X11377325Y-14389984D02*
X11377325Y-14285222D01*
X11377325Y-14285222D02*
X11367801Y-14266174D01*
X11367801Y-14266174D02*
X11348753Y-14256650D01*
X11348753Y-14256650D02*
X11320182Y-14256650D01*
X11320182Y-14256650D02*
X11301134Y-14266174D01*
X11301134Y-14266174D02*
X11291610Y-14275698D01*
X11501134Y-14389984D02*
X11482087Y-14380460D01*
X11482087Y-14380460D02*
X11472563Y-14370936D01*
X11472563Y-14370936D02*
X11463039Y-14351888D01*
X11463039Y-14351888D02*
X11463039Y-14294746D01*
X11463039Y-14294746D02*
X11472563Y-14275698D01*
X11472563Y-14275698D02*
X11482087Y-14266174D01*
X11482087Y-14266174D02*
X11501134Y-14256650D01*
X11501134Y-14256650D02*
X11529706Y-14256650D01*
X11529706Y-14256650D02*
X11548753Y-14266174D01*
X11548753Y-14266174D02*
X11558277Y-14275698D01*
X11558277Y-14275698D02*
X11567801Y-14294746D01*
X11567801Y-14294746D02*
X11567801Y-14351888D01*
X11567801Y-14351888D02*
X11558277Y-14370936D01*
X11558277Y-14370936D02*
X11548753Y-14380460D01*
X11548753Y-14380460D02*
X11529706Y-14389984D01*
X11529706Y-14389984D02*
X11501134Y-14389984D01*
X11682087Y-14389984D02*
X11663039Y-14380460D01*
X11663039Y-14380460D02*
X11653515Y-14361412D01*
X11653515Y-14361412D02*
X11653515Y-14189984D01*
X11834468Y-14380460D02*
X11815420Y-14389984D01*
X11815420Y-14389984D02*
X11777325Y-14389984D01*
X11777325Y-14389984D02*
X11758277Y-14380460D01*
X11758277Y-14380460D02*
X11748753Y-14361412D01*
X11748753Y-14361412D02*
X11748753Y-14285222D01*
X11748753Y-14285222D02*
X11758277Y-14266174D01*
X11758277Y-14266174D02*
X11777325Y-14256650D01*
X11777325Y-14256650D02*
X11815420Y-14256650D01*
X11815420Y-14256650D02*
X11834468Y-14266174D01*
X11834468Y-14266174D02*
X11843991Y-14285222D01*
X11843991Y-14285222D02*
X11843991Y-14304269D01*
X11843991Y-14304269D02*
X11748753Y-14323317D01*
X11920182Y-14380460D02*
X11939230Y-14389984D01*
X11939230Y-14389984D02*
X11977325Y-14389984D01*
X11977325Y-14389984D02*
X11996372Y-14380460D01*
X11996372Y-14380460D02*
X12005896Y-14361412D01*
X12005896Y-14361412D02*
X12005896Y-14351888D01*
X12005896Y-14351888D02*
X11996372Y-14332841D01*
X11996372Y-14332841D02*
X11977325Y-14323317D01*
X11977325Y-14323317D02*
X11948753Y-14323317D01*
X11948753Y-14323317D02*
X11929706Y-14313793D01*
X11929706Y-14313793D02*
X11920182Y-14294746D01*
X11920182Y-14294746D02*
X11920182Y-14285222D01*
X11920182Y-14285222D02*
X11929706Y-14266174D01*
X11929706Y-14266174D02*
X11948753Y-14256650D01*
X11948753Y-14256650D02*
X11977325Y-14256650D01*
X11977325Y-14256650D02*
X11996372Y-14266174D01*
X12072563Y-14466174D02*
X12082087Y-14456650D01*
X12082087Y-14456650D02*
X12101134Y-14428079D01*
X12101134Y-14428079D02*
X12110658Y-14409031D01*
X12110658Y-14409031D02*
X12120182Y-14380460D01*
X12120182Y-14380460D02*
X12129706Y-14332841D01*
X12129706Y-14332841D02*
X12129706Y-14294746D01*
X12129706Y-14294746D02*
X12120182Y-14247127D01*
X12120182Y-14247127D02*
X12110658Y-14218555D01*
X12110658Y-14218555D02*
X12101134Y-14199508D01*
X12101134Y-14199508D02*
X12082087Y-14170936D01*
X12082087Y-14170936D02*
X12072563Y-14161412D01*
M02*
