%TF.GenerationSoftware,KiCad,Pcbnew,8.0.5*%
%TF.CreationDate,2025-09-24T21:31:53-07:00*%
%TF.ProjectId,transmitter,7472616e-736d-4697-9474-65722e6b6963,rev?*%
%TF.SameCoordinates,Original*%
%TF.FileFunction,Copper,L2,Inr*%
%TF.FilePolarity,Positive*%
%FSLAX46Y46*%
G04 Gerber Fmt 4.6, Leading zero omitted, Abs format (unit mm)*
G04 Created by KiCad (PCBNEW 8.0.5) date 2025-09-24 21:31:53*
%MOMM*%
%LPD*%
G01*
G04 APERTURE LIST*
%TA.AperFunction,ComponentPad*%
%ADD10R,1.500000X1.500000*%
%TD*%
%TA.AperFunction,ComponentPad*%
%ADD11C,1.500000*%
%TD*%
%TA.AperFunction,ComponentPad*%
%ADD12C,2.900000*%
%TD*%
%TA.AperFunction,ComponentPad*%
%ADD13R,1.600000X1.600000*%
%TD*%
%TA.AperFunction,ComponentPad*%
%ADD14C,1.600000*%
%TD*%
%TA.AperFunction,ComponentPad*%
%ADD15C,1.400000*%
%TD*%
%TA.AperFunction,ComponentPad*%
%ADD16O,1.400000X1.400000*%
%TD*%
%TA.AperFunction,ComponentPad*%
%ADD17O,1.600000X1.600000*%
%TD*%
%TA.AperFunction,ComponentPad*%
%ADD18C,1.440000*%
%TD*%
%TA.AperFunction,ComponentPad*%
%ADD19R,1.905000X2.000000*%
%TD*%
%TA.AperFunction,ComponentPad*%
%ADD20O,1.905000X2.000000*%
%TD*%
%TA.AperFunction,ComponentPad*%
%ADD21R,1.508000X1.508000*%
%TD*%
%TA.AperFunction,ComponentPad*%
%ADD22C,1.508000*%
%TD*%
%TA.AperFunction,ComponentPad*%
%ADD23O,2.300000X4.600000*%
%TD*%
%TA.AperFunction,ComponentPad*%
%ADD24R,1.700000X1.700000*%
%TD*%
%TA.AperFunction,ComponentPad*%
%ADD25O,1.700000X1.700000*%
%TD*%
%TA.AperFunction,ComponentPad*%
%ADD26R,1.800000X1.800000*%
%TD*%
%TA.AperFunction,ComponentPad*%
%ADD27C,1.800000*%
%TD*%
%TA.AperFunction,ComponentPad*%
%ADD28C,1.700000*%
%TD*%
G04 APERTURE END LIST*
D10*
%TO.N,GND*%
%TO.C,Q1*%
X84690000Y-106370000D03*
D11*
%TO.N,LED*%
X84690000Y-103830000D03*
%TO.N,Net-(D1-K)*%
X84690000Y-101290000D03*
%TD*%
D12*
%TO.N,GND*%
%TO.C,H4*%
X108000000Y-120000000D03*
%TD*%
D13*
%TO.N,+9V*%
%TO.C,C1*%
X84640000Y-114370000D03*
D14*
%TO.N,GND*%
X87140000Y-114370000D03*
%TD*%
D13*
%TO.N,+3.3V*%
%TO.C,C5*%
X101250000Y-117250000D03*
D14*
%TO.N,GND*%
X103750000Y-117250000D03*
%TD*%
D12*
%TO.N,GND*%
%TO.C,H1*%
X75910000Y-71780000D03*
%TD*%
D13*
%TO.N,+3.3V*%
%TO.C,C3*%
X91640000Y-96640000D03*
D14*
%TO.N,GND*%
X89140000Y-96640000D03*
%TD*%
D15*
%TO.N,LED*%
%TO.C,R6*%
X101290000Y-100220000D03*
D16*
%TO.N,GND*%
X108910000Y-100220000D03*
%TD*%
D13*
%TO.N,+3.3V*%
%TO.C,U1*%
X93980000Y-91870000D03*
D17*
%TO.N,Net-(U1-RA5)*%
X93980000Y-89330000D03*
%TO.N,CSN*%
X93980000Y-86790000D03*
%TO.N,unconnected-(U1-RA3{slash}~{MCLR}-Pad4)*%
X93980000Y-84250000D03*
%TO.N,MOSI*%
X93980000Y-81710000D03*
%TO.N,SPEED*%
X93980000Y-79170000D03*
%TO.N,STEER*%
X93980000Y-76630000D03*
%TO.N,IRQ*%
X86360000Y-76630000D03*
%TO.N,MISO*%
X86360000Y-79170000D03*
%TO.N,SCK*%
X86360000Y-81710000D03*
%TO.N,CE*%
X86360000Y-84250000D03*
%TO.N,TRIM*%
X86360000Y-86790000D03*
%TO.N,LED*%
X86360000Y-89330000D03*
%TO.N,GND*%
X86360000Y-91870000D03*
%TD*%
D18*
%TO.N,+3.3V*%
%TO.C,RV3*%
X102250000Y-69720000D03*
%TO.N,TRIM*%
X104790000Y-72260000D03*
%TO.N,GND*%
X107330000Y-69720000D03*
%TD*%
D15*
%TO.N,+3.3V*%
%TO.C,R1*%
X82530000Y-98000000D03*
D16*
%TO.N,Net-(D1-A)*%
X74910000Y-98000000D03*
%TD*%
D19*
%TO.N,+9V*%
%TO.C,U3*%
X91650000Y-119800000D03*
D20*
%TO.N,GND*%
X94190000Y-119800000D03*
%TO.N,+3.3V*%
X96730000Y-119800000D03*
%TD*%
D21*
%TO.N,+3.3V*%
%TO.C,RV1*%
X88950000Y-63710500D03*
D22*
%TO.N,STEER*%
X91450000Y-63710500D03*
%TO.N,GND*%
X93950000Y-63710500D03*
D23*
X87050000Y-56710500D03*
X95850000Y-56710500D03*
%TD*%
D12*
%TO.N,GND*%
%TO.C,H2*%
X107960000Y-53500000D03*
%TD*%
D24*
%TO.N,Net-(JP2-B)*%
%TO.C,SW1*%
X76420000Y-109630000D03*
D25*
%TO.N,Net-(JP1-B)*%
X76420000Y-112170000D03*
%TO.N,+9V*%
X76420000Y-114710000D03*
%TD*%
D15*
%TO.N,Net-(D2-K)*%
%TO.C,R2*%
X101280000Y-103720000D03*
D16*
%TO.N,GND*%
X108900000Y-103720000D03*
%TD*%
D26*
%TO.N,Net-(D1-K)*%
%TO.C,D1*%
X78070000Y-102970000D03*
D27*
%TO.N,Net-(D1-A)*%
X75530000Y-102970000D03*
%TD*%
D15*
%TO.N,Net-(U1-RA5)*%
%TO.C,R5*%
X101260000Y-79610000D03*
D16*
%TO.N,+3.3V*%
X108880000Y-79610000D03*
%TD*%
D24*
%TO.N,Net-(BT1-+)*%
%TO.C,BT1*%
X82460000Y-119935000D03*
D25*
%TO.N,GND*%
X85000000Y-119935000D03*
%TD*%
D24*
%TO.N,GND*%
%TO.C,U2*%
X77620000Y-88720000D03*
D28*
%TO.N,+3.3V*%
X75080000Y-88720000D03*
%TO.N,CE*%
X77620000Y-86180000D03*
%TO.N,CSN*%
X75080000Y-86180000D03*
%TO.N,SCK*%
X77620000Y-83640000D03*
%TO.N,MOSI*%
X75080000Y-83640000D03*
%TO.N,MISO*%
X77620000Y-81100000D03*
%TO.N,IRQ*%
X75080000Y-81100000D03*
%TD*%
D13*
%TO.N,+3.3V*%
%TO.C,C4*%
X75120000Y-93780000D03*
D14*
%TO.N,GND*%
X77620000Y-93780000D03*
%TD*%
D21*
%TO.N,+3.3V*%
%TO.C,RV2*%
X106350000Y-85230000D03*
D22*
%TO.N,SPEED*%
X103850000Y-85230000D03*
%TO.N,GND*%
X101350000Y-85230000D03*
D23*
X108250000Y-92230000D03*
X99450000Y-92230000D03*
%TD*%
D26*
%TO.N,Net-(D2-K)*%
%TO.C,D2*%
X103885000Y-109720000D03*
D27*
%TO.N,+3.3V*%
X106425000Y-109720000D03*
%TD*%
%TA.AperFunction,Conductor*%
%TO.N,GND*%
G36*
X110442539Y-50930185D02*
G01*
X110488294Y-50982989D01*
X110499500Y-51034500D01*
X110499500Y-122375500D01*
X110479815Y-122442539D01*
X110427011Y-122488294D01*
X110375500Y-122499500D01*
X73624500Y-122499500D01*
X73557461Y-122479815D01*
X73511706Y-122427011D01*
X73500500Y-122375500D01*
X73500500Y-119037135D01*
X81109500Y-119037135D01*
X81109500Y-120832870D01*
X81109501Y-120832876D01*
X81115908Y-120892483D01*
X81166202Y-121027328D01*
X81166206Y-121027335D01*
X81252452Y-121142544D01*
X81252455Y-121142547D01*
X81367664Y-121228793D01*
X81367671Y-121228797D01*
X81502517Y-121279091D01*
X81502516Y-121279091D01*
X81509444Y-121279835D01*
X81562127Y-121285500D01*
X83357872Y-121285499D01*
X83417483Y-121279091D01*
X83552331Y-121228796D01*
X83667546Y-121142546D01*
X83753796Y-121027331D01*
X83803002Y-120895401D01*
X83844872Y-120839468D01*
X83910337Y-120815050D01*
X83978610Y-120829901D01*
X84006865Y-120851053D01*
X84128917Y-120973105D01*
X84322421Y-121108600D01*
X84536507Y-121208429D01*
X84536516Y-121208433D01*
X84750000Y-121265634D01*
X84750000Y-120368012D01*
X84807007Y-120400925D01*
X84934174Y-120435000D01*
X85065826Y-120435000D01*
X85192993Y-120400925D01*
X85250000Y-120368012D01*
X85250000Y-121265633D01*
X85463483Y-121208433D01*
X85463492Y-121208429D01*
X85677578Y-121108600D01*
X85871082Y-120973105D01*
X86038105Y-120806082D01*
X86173600Y-120612578D01*
X86273429Y-120398492D01*
X86273432Y-120398486D01*
X86330636Y-120185000D01*
X85433012Y-120185000D01*
X85465925Y-120127993D01*
X85500000Y-120000826D01*
X85500000Y-119869174D01*
X85465925Y-119742007D01*
X85433012Y-119685000D01*
X86330636Y-119685000D01*
X86330635Y-119684999D01*
X86273432Y-119471513D01*
X86273429Y-119471507D01*
X86173600Y-119257422D01*
X86173599Y-119257420D01*
X86038113Y-119063926D01*
X86038108Y-119063920D01*
X85871082Y-118896894D01*
X85677578Y-118761399D01*
X85657711Y-118752135D01*
X90197000Y-118752135D01*
X90197000Y-120847870D01*
X90197001Y-120847876D01*
X90203408Y-120907483D01*
X90253702Y-121042328D01*
X90253706Y-121042335D01*
X90339952Y-121157544D01*
X90339955Y-121157547D01*
X90455164Y-121243793D01*
X90455171Y-121243797D01*
X90590017Y-121294091D01*
X90590016Y-121294091D01*
X90596944Y-121294835D01*
X90649627Y-121300500D01*
X92650372Y-121300499D01*
X92709983Y-121294091D01*
X92844831Y-121243796D01*
X92960046Y-121157546D01*
X93046296Y-121042331D01*
X93056872Y-121013974D01*
X93098740Y-120958041D01*
X93164204Y-120933622D01*
X93232477Y-120948472D01*
X93245940Y-120956988D01*
X93428723Y-121089788D01*
X93632429Y-121193582D01*
X93849871Y-121264234D01*
X93940000Y-121278509D01*
X93940000Y-120290747D01*
X93977708Y-120312518D01*
X94117591Y-120350000D01*
X94262409Y-120350000D01*
X94402292Y-120312518D01*
X94440000Y-120290747D01*
X94440000Y-121278508D01*
X94530128Y-121264234D01*
X94747570Y-121193582D01*
X94951276Y-121089788D01*
X95136242Y-120955402D01*
X95297905Y-120793739D01*
X95359371Y-120709137D01*
X95414701Y-120666470D01*
X95484314Y-120660491D01*
X95546109Y-120693096D01*
X95560007Y-120709134D01*
X95621714Y-120794066D01*
X95783434Y-120955786D01*
X95968462Y-121090217D01*
X96071160Y-121142544D01*
X96172244Y-121194049D01*
X96389751Y-121264721D01*
X96389752Y-121264721D01*
X96389755Y-121264722D01*
X96615646Y-121300500D01*
X96615647Y-121300500D01*
X96844353Y-121300500D01*
X96844354Y-121300500D01*
X97070245Y-121264722D01*
X97070248Y-121264721D01*
X97070249Y-121264721D01*
X97287755Y-121194049D01*
X97287755Y-121194048D01*
X97287758Y-121194048D01*
X97491538Y-121090217D01*
X97676566Y-120955786D01*
X97838286Y-120794066D01*
X97972717Y-120609038D01*
X98076548Y-120405258D01*
X98117824Y-120278223D01*
X98147221Y-120187749D01*
X98147221Y-120187748D01*
X98147222Y-120187745D01*
X98176959Y-119999998D01*
X106045019Y-119999998D01*
X106045019Y-120000001D01*
X106064918Y-120278223D01*
X106064919Y-120278230D01*
X106124207Y-120550774D01*
X106221689Y-120812134D01*
X106355361Y-121056938D01*
X106455602Y-121190843D01*
X106956320Y-120690125D01*
X107046554Y-120814320D01*
X107185680Y-120953446D01*
X107309873Y-121043678D01*
X106809155Y-121544396D01*
X106943061Y-121644637D01*
X106943061Y-121644638D01*
X107187865Y-121778310D01*
X107449225Y-121875792D01*
X107721769Y-121935080D01*
X107721776Y-121935081D01*
X107999999Y-121954981D01*
X108000001Y-121954981D01*
X108278223Y-121935081D01*
X108278230Y-121935080D01*
X108550774Y-121875792D01*
X108812134Y-121778310D01*
X109056942Y-121644635D01*
X109190842Y-121544396D01*
X109190843Y-121544396D01*
X108690126Y-121043678D01*
X108814320Y-120953446D01*
X108953446Y-120814320D01*
X109043679Y-120690126D01*
X109544396Y-121190843D01*
X109544396Y-121190842D01*
X109644635Y-121056942D01*
X109778310Y-120812134D01*
X109875792Y-120550774D01*
X109935080Y-120278230D01*
X109935081Y-120278223D01*
X109954981Y-120000001D01*
X109954981Y-119999998D01*
X109935081Y-119721776D01*
X109935080Y-119721769D01*
X109875792Y-119449225D01*
X109778310Y-119187865D01*
X109644638Y-118943061D01*
X109544396Y-118809155D01*
X109043678Y-119309873D01*
X108953446Y-119185680D01*
X108814320Y-119046554D01*
X108690125Y-118956320D01*
X109190843Y-118455602D01*
X109056938Y-118355362D01*
X109056938Y-118355361D01*
X108812134Y-118221689D01*
X108550774Y-118124207D01*
X108278230Y-118064919D01*
X108278223Y-118064918D01*
X108000001Y-118045019D01*
X107999999Y-118045019D01*
X107721776Y-118064918D01*
X107721769Y-118064919D01*
X107449225Y-118124207D01*
X107187865Y-118221689D01*
X106943061Y-118355361D01*
X106943054Y-118355366D01*
X106809156Y-118455601D01*
X106809155Y-118455602D01*
X107309874Y-118956320D01*
X107185680Y-119046554D01*
X107046554Y-119185680D01*
X106956320Y-119309873D01*
X106455602Y-118809155D01*
X106455601Y-118809156D01*
X106355366Y-118943054D01*
X106355361Y-118943061D01*
X106221689Y-119187865D01*
X106124207Y-119449225D01*
X106064919Y-119721769D01*
X106064918Y-119721776D01*
X106045019Y-119999998D01*
X98176959Y-119999998D01*
X98183000Y-119961854D01*
X98183000Y-119638146D01*
X98147222Y-119412255D01*
X98147221Y-119412251D01*
X98147221Y-119412250D01*
X98076549Y-119194744D01*
X98004037Y-119052431D01*
X97972717Y-118990962D01*
X97838286Y-118805934D01*
X97676566Y-118644214D01*
X97491538Y-118509783D01*
X97385200Y-118455601D01*
X97287755Y-118405950D01*
X97070248Y-118335278D01*
X96884812Y-118305908D01*
X96844354Y-118299500D01*
X96615646Y-118299500D01*
X96575188Y-118305908D01*
X96389753Y-118335278D01*
X96389750Y-118335278D01*
X96172244Y-118405950D01*
X95968461Y-118509783D01*
X95902550Y-118557671D01*
X95783434Y-118644214D01*
X95783432Y-118644216D01*
X95783431Y-118644216D01*
X95621716Y-118805931D01*
X95621709Y-118805940D01*
X95560007Y-118890864D01*
X95504677Y-118933530D01*
X95435063Y-118939508D01*
X95373269Y-118906901D01*
X95359372Y-118890863D01*
X95297907Y-118806263D01*
X95297902Y-118806257D01*
X95136242Y-118644597D01*
X94951276Y-118510211D01*
X94747568Y-118406417D01*
X94530124Y-118335765D01*
X94440000Y-118321490D01*
X94440000Y-119309252D01*
X94402292Y-119287482D01*
X94262409Y-119250000D01*
X94117591Y-119250000D01*
X93977708Y-119287482D01*
X93940000Y-119309252D01*
X93940000Y-118321490D01*
X93939999Y-118321490D01*
X93849875Y-118335765D01*
X93632431Y-118406417D01*
X93428719Y-118510213D01*
X93245939Y-118643010D01*
X93180132Y-118666490D01*
X93112079Y-118650664D01*
X93063384Y-118600558D01*
X93056875Y-118586033D01*
X93046296Y-118557669D01*
X93046295Y-118557667D01*
X93046293Y-118557664D01*
X92960047Y-118442455D01*
X92960044Y-118442452D01*
X92844835Y-118356206D01*
X92844828Y-118356202D01*
X92709982Y-118305908D01*
X92709983Y-118305908D01*
X92650383Y-118299501D01*
X92650381Y-118299500D01*
X92650373Y-118299500D01*
X92650364Y-118299500D01*
X90649629Y-118299500D01*
X90649623Y-118299501D01*
X90590016Y-118305908D01*
X90455171Y-118356202D01*
X90455164Y-118356206D01*
X90339955Y-118442452D01*
X90339952Y-118442455D01*
X90253706Y-118557664D01*
X90253702Y-118557671D01*
X90203408Y-118692517D01*
X90197001Y-118752116D01*
X90197000Y-118752135D01*
X85657711Y-118752135D01*
X85463492Y-118661570D01*
X85463486Y-118661567D01*
X85250000Y-118604364D01*
X85250000Y-119501988D01*
X85192993Y-119469075D01*
X85065826Y-119435000D01*
X84934174Y-119435000D01*
X84807007Y-119469075D01*
X84750000Y-119501988D01*
X84750000Y-118604364D01*
X84749999Y-118604364D01*
X84536513Y-118661567D01*
X84536507Y-118661570D01*
X84322422Y-118761399D01*
X84322420Y-118761400D01*
X84128926Y-118896886D01*
X84006865Y-119018947D01*
X83945542Y-119052431D01*
X83875850Y-119047447D01*
X83819917Y-119005575D01*
X83803002Y-118974598D01*
X83789914Y-118939508D01*
X83753796Y-118842669D01*
X83753795Y-118842668D01*
X83753793Y-118842664D01*
X83667547Y-118727455D01*
X83667544Y-118727452D01*
X83552335Y-118641206D01*
X83552328Y-118641202D01*
X83417482Y-118590908D01*
X83417483Y-118590908D01*
X83357883Y-118584501D01*
X83357881Y-118584500D01*
X83357873Y-118584500D01*
X83357864Y-118584500D01*
X81562129Y-118584500D01*
X81562123Y-118584501D01*
X81502516Y-118590908D01*
X81367671Y-118641202D01*
X81367664Y-118641206D01*
X81252455Y-118727452D01*
X81252452Y-118727455D01*
X81166206Y-118842664D01*
X81166202Y-118842671D01*
X81115908Y-118977517D01*
X81109501Y-119037116D01*
X81109500Y-119037135D01*
X73500500Y-119037135D01*
X73500500Y-116402135D01*
X99949500Y-116402135D01*
X99949500Y-118097870D01*
X99949501Y-118097876D01*
X99955908Y-118157483D01*
X100006202Y-118292328D01*
X100006206Y-118292335D01*
X100092452Y-118407544D01*
X100092455Y-118407547D01*
X100207664Y-118493793D01*
X100207671Y-118493797D01*
X100342517Y-118544091D01*
X100342516Y-118544091D01*
X100349444Y-118544835D01*
X100402127Y-118550500D01*
X102097872Y-118550499D01*
X102157483Y-118544091D01*
X102292331Y-118493796D01*
X102407546Y-118407546D01*
X102493796Y-118292331D01*
X102544091Y-118157483D01*
X102550500Y-118097873D01*
X102550499Y-118097845D01*
X102550678Y-118094547D01*
X102552183Y-118094627D01*
X102570112Y-118033326D01*
X102622868Y-117987514D01*
X102666465Y-117979981D01*
X103350000Y-117296446D01*
X103350000Y-117302661D01*
X103377259Y-117404394D01*
X103429920Y-117495606D01*
X103504394Y-117570080D01*
X103595606Y-117622741D01*
X103697339Y-117650000D01*
X103703553Y-117650000D01*
X103024526Y-118329025D01*
X103097513Y-118380132D01*
X103097521Y-118380136D01*
X103303668Y-118476264D01*
X103303682Y-118476269D01*
X103523389Y-118535139D01*
X103523400Y-118535141D01*
X103749998Y-118554966D01*
X103750002Y-118554966D01*
X103976599Y-118535141D01*
X103976610Y-118535139D01*
X104196317Y-118476269D01*
X104196331Y-118476264D01*
X104402478Y-118380136D01*
X104475471Y-118329024D01*
X103796447Y-117650000D01*
X103802661Y-117650000D01*
X103904394Y-117622741D01*
X103995606Y-117570080D01*
X104070080Y-117495606D01*
X104122741Y-117404394D01*
X104150000Y-117302661D01*
X104150000Y-117296447D01*
X104829024Y-117975471D01*
X104880136Y-117902478D01*
X104976264Y-117696331D01*
X104976269Y-117696317D01*
X105035139Y-117476610D01*
X105035141Y-117476599D01*
X105054966Y-117250002D01*
X105054966Y-117249997D01*
X105035141Y-117023400D01*
X105035139Y-117023389D01*
X104976269Y-116803682D01*
X104976264Y-116803668D01*
X104880136Y-116597521D01*
X104880132Y-116597513D01*
X104829025Y-116524526D01*
X104150000Y-117203551D01*
X104150000Y-117197339D01*
X104122741Y-117095606D01*
X104070080Y-117004394D01*
X103995606Y-116929920D01*
X103904394Y-116877259D01*
X103802661Y-116850000D01*
X103796448Y-116850000D01*
X104475472Y-116170974D01*
X104402478Y-116119863D01*
X104196331Y-116023735D01*
X104196317Y-116023730D01*
X103976610Y-115964860D01*
X103976599Y-115964858D01*
X103750002Y-115945034D01*
X103749998Y-115945034D01*
X103523400Y-115964858D01*
X103523389Y-115964860D01*
X103303682Y-116023730D01*
X103303673Y-116023734D01*
X103097516Y-116119866D01*
X103097512Y-116119868D01*
X103024526Y-116170973D01*
X103024526Y-116170974D01*
X103703553Y-116850000D01*
X103697339Y-116850000D01*
X103595606Y-116877259D01*
X103504394Y-116929920D01*
X103429920Y-117004394D01*
X103377259Y-117095606D01*
X103350000Y-117197339D01*
X103350000Y-117203552D01*
X102665799Y-116519351D01*
X102616805Y-116509505D01*
X102566622Y-116460889D01*
X102551981Y-116405366D01*
X102550900Y-116405423D01*
X102550854Y-116405429D01*
X102550853Y-116405426D01*
X102550676Y-116405436D01*
X102550499Y-116402135D01*
X102550499Y-116402128D01*
X102544091Y-116342517D01*
X102493796Y-116207669D01*
X102493795Y-116207668D01*
X102493793Y-116207664D01*
X102407547Y-116092455D01*
X102407544Y-116092452D01*
X102292335Y-116006206D01*
X102292328Y-116006202D01*
X102157482Y-115955908D01*
X102157483Y-115955908D01*
X102097883Y-115949501D01*
X102097881Y-115949500D01*
X102097873Y-115949500D01*
X102097864Y-115949500D01*
X100402129Y-115949500D01*
X100402123Y-115949501D01*
X100342516Y-115955908D01*
X100207671Y-116006202D01*
X100207664Y-116006206D01*
X100092455Y-116092452D01*
X100092452Y-116092455D01*
X100006206Y-116207664D01*
X100006202Y-116207671D01*
X99955908Y-116342517D01*
X99949501Y-116402116D01*
X99949501Y-116402123D01*
X99949500Y-116402135D01*
X73500500Y-116402135D01*
X73500500Y-112169999D01*
X75064341Y-112169999D01*
X75064341Y-112170000D01*
X75084936Y-112405403D01*
X75084938Y-112405413D01*
X75146094Y-112633655D01*
X75146096Y-112633659D01*
X75146097Y-112633663D01*
X75245965Y-112847830D01*
X75245967Y-112847834D01*
X75381501Y-113041395D01*
X75381506Y-113041402D01*
X75548597Y-113208493D01*
X75548603Y-113208498D01*
X75734158Y-113338425D01*
X75777783Y-113393002D01*
X75784977Y-113462500D01*
X75753454Y-113524855D01*
X75734158Y-113541575D01*
X75548597Y-113671505D01*
X75381505Y-113838597D01*
X75245965Y-114032169D01*
X75245964Y-114032171D01*
X75146098Y-114246335D01*
X75146094Y-114246344D01*
X75084938Y-114474586D01*
X75084936Y-114474596D01*
X75064341Y-114709999D01*
X75064341Y-114710000D01*
X75084936Y-114945403D01*
X75084938Y-114945413D01*
X75146094Y-115173655D01*
X75146096Y-115173659D01*
X75146097Y-115173663D01*
X75166712Y-115217872D01*
X75245965Y-115387830D01*
X75245967Y-115387834D01*
X75343794Y-115527544D01*
X75381505Y-115581401D01*
X75548599Y-115748495D01*
X75645384Y-115816265D01*
X75742165Y-115884032D01*
X75742167Y-115884033D01*
X75742170Y-115884035D01*
X75956337Y-115983903D01*
X76184592Y-116045063D01*
X76372918Y-116061539D01*
X76419999Y-116065659D01*
X76420000Y-116065659D01*
X76420001Y-116065659D01*
X76459234Y-116062226D01*
X76655408Y-116045063D01*
X76883663Y-115983903D01*
X77097830Y-115884035D01*
X77291401Y-115748495D01*
X77458495Y-115581401D01*
X77594035Y-115387830D01*
X77693903Y-115173663D01*
X77755063Y-114945408D01*
X77775659Y-114710000D01*
X77755063Y-114474592D01*
X77693903Y-114246337D01*
X77594035Y-114032171D01*
X77569590Y-113997259D01*
X77458494Y-113838597D01*
X77291402Y-113671506D01*
X77291396Y-113671501D01*
X77105842Y-113541575D01*
X77090303Y-113522135D01*
X83339500Y-113522135D01*
X83339500Y-115217870D01*
X83339501Y-115217876D01*
X83345908Y-115277483D01*
X83396202Y-115412328D01*
X83396206Y-115412335D01*
X83482452Y-115527544D01*
X83482455Y-115527547D01*
X83597664Y-115613793D01*
X83597671Y-115613797D01*
X83732517Y-115664091D01*
X83732516Y-115664091D01*
X83739444Y-115664835D01*
X83792127Y-115670500D01*
X85487872Y-115670499D01*
X85547483Y-115664091D01*
X85682331Y-115613796D01*
X85797546Y-115527546D01*
X85883796Y-115412331D01*
X85934091Y-115277483D01*
X85940500Y-115217873D01*
X85940499Y-115217845D01*
X85940678Y-115214547D01*
X85942183Y-115214627D01*
X85960112Y-115153326D01*
X86012868Y-115107514D01*
X86056465Y-115099981D01*
X86740000Y-114416446D01*
X86740000Y-114422661D01*
X86767259Y-114524394D01*
X86819920Y-114615606D01*
X86894394Y-114690080D01*
X86985606Y-114742741D01*
X87087339Y-114770000D01*
X87093553Y-114770000D01*
X86414526Y-115449025D01*
X86487513Y-115500132D01*
X86487521Y-115500136D01*
X86693668Y-115596264D01*
X86693682Y-115596269D01*
X86913389Y-115655139D01*
X86913400Y-115655141D01*
X87139998Y-115674966D01*
X87140002Y-115674966D01*
X87366599Y-115655141D01*
X87366610Y-115655139D01*
X87586317Y-115596269D01*
X87586331Y-115596264D01*
X87792478Y-115500136D01*
X87865471Y-115449024D01*
X87186447Y-114770000D01*
X87192661Y-114770000D01*
X87294394Y-114742741D01*
X87385606Y-114690080D01*
X87460080Y-114615606D01*
X87512741Y-114524394D01*
X87540000Y-114422661D01*
X87540000Y-114416447D01*
X88219024Y-115095471D01*
X88270136Y-115022478D01*
X88366264Y-114816331D01*
X88366269Y-114816317D01*
X88425139Y-114596610D01*
X88425141Y-114596599D01*
X88444966Y-114370002D01*
X88444966Y-114369997D01*
X88425141Y-114143400D01*
X88425139Y-114143389D01*
X88366269Y-113923682D01*
X88366264Y-113923668D01*
X88270136Y-113717521D01*
X88270132Y-113717513D01*
X88219025Y-113644526D01*
X87540000Y-114323551D01*
X87540000Y-114317339D01*
X87512741Y-114215606D01*
X87460080Y-114124394D01*
X87385606Y-114049920D01*
X87294394Y-113997259D01*
X87192661Y-113970000D01*
X87186448Y-113970000D01*
X87865472Y-113290974D01*
X87792478Y-113239863D01*
X87586331Y-113143735D01*
X87586317Y-113143730D01*
X87366610Y-113084860D01*
X87366599Y-113084858D01*
X87140002Y-113065034D01*
X87139998Y-113065034D01*
X86913400Y-113084858D01*
X86913389Y-113084860D01*
X86693682Y-113143730D01*
X86693673Y-113143734D01*
X86487516Y-113239866D01*
X86487512Y-113239868D01*
X86414526Y-113290973D01*
X86414526Y-113290974D01*
X87093553Y-113970000D01*
X87087339Y-113970000D01*
X86985606Y-113997259D01*
X86894394Y-114049920D01*
X86819920Y-114124394D01*
X86767259Y-114215606D01*
X86740000Y-114317339D01*
X86740000Y-114323552D01*
X86055799Y-113639351D01*
X86006805Y-113629505D01*
X85956622Y-113580889D01*
X85941981Y-113525366D01*
X85940900Y-113525423D01*
X85940854Y-113525429D01*
X85940853Y-113525426D01*
X85940676Y-113525436D01*
X85940499Y-113522135D01*
X85940499Y-113522128D01*
X85934091Y-113462517D01*
X85883796Y-113327669D01*
X85883795Y-113327668D01*
X85883793Y-113327664D01*
X85797547Y-113212455D01*
X85797544Y-113212452D01*
X85682335Y-113126206D01*
X85682328Y-113126202D01*
X85547482Y-113075908D01*
X85547483Y-113075908D01*
X85487883Y-113069501D01*
X85487881Y-113069500D01*
X85487873Y-113069500D01*
X85487864Y-113069500D01*
X83792129Y-113069500D01*
X83792123Y-113069501D01*
X83732516Y-113075908D01*
X83597671Y-113126202D01*
X83597664Y-113126206D01*
X83482455Y-113212452D01*
X83482452Y-113212455D01*
X83396206Y-113327664D01*
X83396202Y-113327671D01*
X83345908Y-113462517D01*
X83339501Y-113522116D01*
X83339501Y-113522123D01*
X83339500Y-113522135D01*
X77090303Y-113522135D01*
X77062217Y-113486998D01*
X77055023Y-113417500D01*
X77086546Y-113355145D01*
X77105842Y-113338425D01*
X77173610Y-113290973D01*
X77291401Y-113208495D01*
X77458495Y-113041401D01*
X77594035Y-112847830D01*
X77693903Y-112633663D01*
X77755063Y-112405408D01*
X77775659Y-112170000D01*
X77755063Y-111934592D01*
X77693903Y-111706337D01*
X77594035Y-111492171D01*
X77458495Y-111298599D01*
X77336567Y-111176671D01*
X77303084Y-111115351D01*
X77308068Y-111045659D01*
X77349939Y-110989725D01*
X77380915Y-110972810D01*
X77512331Y-110923796D01*
X77627546Y-110837546D01*
X77713796Y-110722331D01*
X77764091Y-110587483D01*
X77770500Y-110527873D01*
X77770499Y-108772135D01*
X102484500Y-108772135D01*
X102484500Y-110667870D01*
X102484501Y-110667876D01*
X102490908Y-110727483D01*
X102541202Y-110862328D01*
X102541206Y-110862335D01*
X102627452Y-110977544D01*
X102627455Y-110977547D01*
X102742664Y-111063793D01*
X102742671Y-111063797D01*
X102877517Y-111114091D01*
X102877516Y-111114091D01*
X102884444Y-111114835D01*
X102937127Y-111120500D01*
X104832872Y-111120499D01*
X104892483Y-111114091D01*
X105027331Y-111063796D01*
X105142546Y-110977546D01*
X105228796Y-110862331D01*
X105257455Y-110785493D01*
X105299326Y-110729559D01*
X105364790Y-110705141D01*
X105433063Y-110719992D01*
X105464866Y-110744843D01*
X105472302Y-110752920D01*
X105473215Y-110753912D01*
X105473222Y-110753918D01*
X105656365Y-110896464D01*
X105656371Y-110896468D01*
X105656374Y-110896470D01*
X105860497Y-111006936D01*
X105973293Y-111045659D01*
X106080015Y-111082297D01*
X106080017Y-111082297D01*
X106080019Y-111082298D01*
X106308951Y-111120500D01*
X106308952Y-111120500D01*
X106541048Y-111120500D01*
X106541049Y-111120500D01*
X106769981Y-111082298D01*
X106989503Y-111006936D01*
X107193626Y-110896470D01*
X107376784Y-110753913D01*
X107533979Y-110583153D01*
X107660924Y-110388849D01*
X107754157Y-110176300D01*
X107811134Y-109951305D01*
X107830300Y-109720000D01*
X107830300Y-109719993D01*
X107811135Y-109488702D01*
X107811133Y-109488691D01*
X107754157Y-109263699D01*
X107660924Y-109051151D01*
X107533983Y-108856852D01*
X107533980Y-108856849D01*
X107533979Y-108856847D01*
X107376784Y-108686087D01*
X107376779Y-108686083D01*
X107376777Y-108686081D01*
X107193634Y-108543535D01*
X107193628Y-108543531D01*
X106989504Y-108433064D01*
X106989495Y-108433061D01*
X106769984Y-108357702D01*
X106579450Y-108325908D01*
X106541049Y-108319500D01*
X106308951Y-108319500D01*
X106270550Y-108325908D01*
X106080015Y-108357702D01*
X105860504Y-108433061D01*
X105860495Y-108433064D01*
X105656371Y-108543531D01*
X105656365Y-108543535D01*
X105473222Y-108686081D01*
X105473218Y-108686085D01*
X105464866Y-108695158D01*
X105404979Y-108731148D01*
X105335141Y-108729047D01*
X105277525Y-108689522D01*
X105257455Y-108654507D01*
X105228797Y-108577671D01*
X105228793Y-108577664D01*
X105142547Y-108462455D01*
X105142544Y-108462452D01*
X105027335Y-108376206D01*
X105027328Y-108376202D01*
X104892482Y-108325908D01*
X104892483Y-108325908D01*
X104832883Y-108319501D01*
X104832881Y-108319500D01*
X104832873Y-108319500D01*
X104832864Y-108319500D01*
X102937129Y-108319500D01*
X102937123Y-108319501D01*
X102877516Y-108325908D01*
X102742671Y-108376202D01*
X102742664Y-108376206D01*
X102627455Y-108462452D01*
X102627452Y-108462455D01*
X102541206Y-108577664D01*
X102541202Y-108577671D01*
X102490908Y-108712517D01*
X102484501Y-108772116D01*
X102484500Y-108772135D01*
X77770499Y-108772135D01*
X77770499Y-108732128D01*
X77764091Y-108672517D01*
X77715982Y-108543531D01*
X77713797Y-108537671D01*
X77713793Y-108537664D01*
X77627547Y-108422455D01*
X77627544Y-108422452D01*
X77512335Y-108336206D01*
X77512328Y-108336202D01*
X77377482Y-108285908D01*
X77377483Y-108285908D01*
X77317883Y-108279501D01*
X77317881Y-108279500D01*
X77317873Y-108279500D01*
X77317864Y-108279500D01*
X75522129Y-108279500D01*
X75522123Y-108279501D01*
X75462516Y-108285908D01*
X75327671Y-108336202D01*
X75327664Y-108336206D01*
X75212455Y-108422452D01*
X75212452Y-108422455D01*
X75126206Y-108537664D01*
X75126202Y-108537671D01*
X75075908Y-108672517D01*
X75071608Y-108712517D01*
X75069501Y-108732123D01*
X75069500Y-108732135D01*
X75069500Y-110527870D01*
X75069501Y-110527876D01*
X75075908Y-110587483D01*
X75126202Y-110722328D01*
X75126206Y-110722335D01*
X75212452Y-110837544D01*
X75212455Y-110837547D01*
X75327664Y-110923793D01*
X75327671Y-110923797D01*
X75459081Y-110972810D01*
X75515015Y-111014681D01*
X75539432Y-111080145D01*
X75524580Y-111148418D01*
X75503430Y-111176673D01*
X75381503Y-111298600D01*
X75245965Y-111492169D01*
X75245964Y-111492171D01*
X75146098Y-111706335D01*
X75146094Y-111706344D01*
X75084938Y-111934586D01*
X75084936Y-111934596D01*
X75064341Y-112169999D01*
X73500500Y-112169999D01*
X73500500Y-102969993D01*
X74124700Y-102969993D01*
X74124700Y-102970006D01*
X74143864Y-103201297D01*
X74143866Y-103201308D01*
X74200842Y-103426300D01*
X74294075Y-103638848D01*
X74421016Y-103833147D01*
X74421019Y-103833151D01*
X74421021Y-103833153D01*
X74578216Y-104003913D01*
X74578219Y-104003915D01*
X74578222Y-104003918D01*
X74761365Y-104146464D01*
X74761371Y-104146468D01*
X74761374Y-104146470D01*
X74965497Y-104256936D01*
X75079487Y-104296068D01*
X75185015Y-104332297D01*
X75185017Y-104332297D01*
X75185019Y-104332298D01*
X75413951Y-104370500D01*
X75413952Y-104370500D01*
X75646048Y-104370500D01*
X75646049Y-104370500D01*
X75874981Y-104332298D01*
X76094503Y-104256936D01*
X76298626Y-104146470D01*
X76481784Y-104003913D01*
X76490130Y-103994846D01*
X76550010Y-103958854D01*
X76619849Y-103960949D01*
X76677468Y-104000469D01*
X76697544Y-104035491D01*
X76726203Y-104112330D01*
X76726206Y-104112335D01*
X76812452Y-104227544D01*
X76812455Y-104227547D01*
X76927664Y-104313793D01*
X76927671Y-104313797D01*
X77062517Y-104364091D01*
X77062516Y-104364091D01*
X77069444Y-104364835D01*
X77122127Y-104370500D01*
X79017872Y-104370499D01*
X79077483Y-104364091D01*
X79212331Y-104313796D01*
X79327546Y-104227546D01*
X79413796Y-104112331D01*
X79464091Y-103977483D01*
X79470500Y-103917873D01*
X79470499Y-102022128D01*
X79464091Y-101962517D01*
X79454233Y-101936087D01*
X79413797Y-101827671D01*
X79413793Y-101827664D01*
X79327547Y-101712455D01*
X79327544Y-101712452D01*
X79212335Y-101626206D01*
X79212328Y-101626202D01*
X79077482Y-101575908D01*
X79077483Y-101575908D01*
X79017883Y-101569501D01*
X79017881Y-101569500D01*
X79017873Y-101569500D01*
X79017864Y-101569500D01*
X77122129Y-101569500D01*
X77122123Y-101569501D01*
X77062516Y-101575908D01*
X76927671Y-101626202D01*
X76927664Y-101626206D01*
X76812455Y-101712452D01*
X76812452Y-101712455D01*
X76726206Y-101827664D01*
X76726203Y-101827670D01*
X76697544Y-101904508D01*
X76655672Y-101960441D01*
X76590208Y-101984858D01*
X76521935Y-101970006D01*
X76490135Y-101945158D01*
X76481784Y-101936087D01*
X76481778Y-101936082D01*
X76481777Y-101936081D01*
X76298634Y-101793535D01*
X76298628Y-101793531D01*
X76094504Y-101683064D01*
X76094495Y-101683061D01*
X75874984Y-101607702D01*
X75684450Y-101575908D01*
X75646049Y-101569500D01*
X75413951Y-101569500D01*
X75375550Y-101575908D01*
X75185015Y-101607702D01*
X74965504Y-101683061D01*
X74965495Y-101683064D01*
X74761371Y-101793531D01*
X74761365Y-101793535D01*
X74578222Y-101936081D01*
X74578219Y-101936084D01*
X74578216Y-101936086D01*
X74578216Y-101936087D01*
X74533319Y-101984858D01*
X74421016Y-102106852D01*
X74294075Y-102301151D01*
X74200842Y-102513699D01*
X74143866Y-102738691D01*
X74143864Y-102738702D01*
X74124700Y-102969993D01*
X73500500Y-102969993D01*
X73500500Y-101289997D01*
X83434723Y-101289997D01*
X83434723Y-101290002D01*
X83453793Y-101507975D01*
X83453793Y-101507979D01*
X83510422Y-101719322D01*
X83510424Y-101719326D01*
X83510425Y-101719330D01*
X83545027Y-101793535D01*
X83602897Y-101917638D01*
X83602898Y-101917639D01*
X83728402Y-102096877D01*
X83883123Y-102251598D01*
X84062360Y-102377101D01*
X84062361Y-102377102D01*
X84213583Y-102447618D01*
X84266022Y-102493790D01*
X84285174Y-102560984D01*
X84264958Y-102627865D01*
X84213583Y-102672382D01*
X84062361Y-102742898D01*
X84062357Y-102742900D01*
X83883121Y-102868402D01*
X83728402Y-103023121D01*
X83602900Y-103202357D01*
X83602898Y-103202361D01*
X83510426Y-103400668D01*
X83510422Y-103400677D01*
X83453793Y-103612020D01*
X83453793Y-103612024D01*
X83444347Y-103719999D01*
X83434723Y-103830000D01*
X83449938Y-104003918D01*
X83453793Y-104047975D01*
X83453793Y-104047979D01*
X83510422Y-104259322D01*
X83510424Y-104259326D01*
X83510425Y-104259330D01*
X83544450Y-104332297D01*
X83602897Y-104457638D01*
X83602898Y-104457639D01*
X83728402Y-104636877D01*
X83883123Y-104791598D01*
X84029977Y-104894426D01*
X84073601Y-104949002D01*
X84080793Y-105018501D01*
X84049271Y-105080855D01*
X83989041Y-105116269D01*
X83958852Y-105120000D01*
X83892155Y-105120000D01*
X83832627Y-105126401D01*
X83832620Y-105126403D01*
X83697913Y-105176645D01*
X83697906Y-105176649D01*
X83582812Y-105262809D01*
X83582809Y-105262812D01*
X83496649Y-105377906D01*
X83496645Y-105377913D01*
X83446403Y-105512620D01*
X83446401Y-105512627D01*
X83440000Y-105572155D01*
X83440000Y-106120000D01*
X84374314Y-106120000D01*
X84369920Y-106124394D01*
X84317259Y-106215606D01*
X84290000Y-106317339D01*
X84290000Y-106422661D01*
X84317259Y-106524394D01*
X84369920Y-106615606D01*
X84374314Y-106620000D01*
X83440000Y-106620000D01*
X83440000Y-107167844D01*
X83446401Y-107227372D01*
X83446403Y-107227379D01*
X83496645Y-107362086D01*
X83496649Y-107362093D01*
X83582809Y-107477187D01*
X83582812Y-107477190D01*
X83697906Y-107563350D01*
X83697913Y-107563354D01*
X83832620Y-107613596D01*
X83832627Y-107613598D01*
X83892155Y-107619999D01*
X83892172Y-107620000D01*
X84440000Y-107620000D01*
X84440000Y-106685686D01*
X84444394Y-106690080D01*
X84535606Y-106742741D01*
X84637339Y-106770000D01*
X84742661Y-106770000D01*
X84844394Y-106742741D01*
X84935606Y-106690080D01*
X84940000Y-106685686D01*
X84940000Y-107620000D01*
X85487828Y-107620000D01*
X85487844Y-107619999D01*
X85547372Y-107613598D01*
X85547379Y-107613596D01*
X85682086Y-107563354D01*
X85682093Y-107563350D01*
X85797187Y-107477190D01*
X85797190Y-107477187D01*
X85883350Y-107362093D01*
X85883354Y-107362086D01*
X85933596Y-107227379D01*
X85933598Y-107227372D01*
X85939999Y-107167844D01*
X85940000Y-107167827D01*
X85940000Y-106620000D01*
X85005686Y-106620000D01*
X85010080Y-106615606D01*
X85062741Y-106524394D01*
X85090000Y-106422661D01*
X85090000Y-106317339D01*
X85062741Y-106215606D01*
X85010080Y-106124394D01*
X85005686Y-106120000D01*
X85940000Y-106120000D01*
X85940000Y-105572172D01*
X85939999Y-105572155D01*
X85933598Y-105512627D01*
X85933596Y-105512620D01*
X85883354Y-105377913D01*
X85883350Y-105377906D01*
X85797190Y-105262812D01*
X85797187Y-105262809D01*
X85682093Y-105176649D01*
X85682086Y-105176645D01*
X85547379Y-105126403D01*
X85547372Y-105126401D01*
X85487844Y-105120000D01*
X85421148Y-105120000D01*
X85354109Y-105100315D01*
X85308354Y-105047511D01*
X85298410Y-104978353D01*
X85327435Y-104914797D01*
X85350020Y-104894428D01*
X85496877Y-104791598D01*
X85651598Y-104636877D01*
X85777102Y-104457639D01*
X85869575Y-104259330D01*
X85926207Y-104047977D01*
X85945277Y-103830000D01*
X85926207Y-103612023D01*
X85869575Y-103400670D01*
X85777102Y-103202362D01*
X85777100Y-103202359D01*
X85777099Y-103202357D01*
X85733431Y-103139992D01*
X91934671Y-103139992D01*
X91934671Y-103140007D01*
X91953964Y-103434363D01*
X91953965Y-103434373D01*
X91953966Y-103434380D01*
X92010778Y-103719999D01*
X92011518Y-103723716D01*
X92011521Y-103723730D01*
X92106349Y-104003080D01*
X92236825Y-104267660D01*
X92236829Y-104267667D01*
X92400725Y-104512955D01*
X92595241Y-104734758D01*
X92817044Y-104929274D01*
X93021979Y-105066207D01*
X93062335Y-105093172D01*
X93326923Y-105223652D01*
X93606278Y-105318481D01*
X93895620Y-105376034D01*
X93923888Y-105377886D01*
X94189993Y-105395329D01*
X94190000Y-105395329D01*
X94190007Y-105395329D01*
X94455712Y-105377913D01*
X94484380Y-105376034D01*
X94773722Y-105318481D01*
X95053077Y-105223652D01*
X95317665Y-105093172D01*
X95562957Y-104929273D01*
X95784758Y-104734758D01*
X95979273Y-104512957D01*
X96143172Y-104267665D01*
X96273652Y-104003077D01*
X96368481Y-103723722D01*
X96369222Y-103719999D01*
X100074357Y-103719999D01*
X100074357Y-103720000D01*
X100094884Y-103941535D01*
X100094885Y-103941537D01*
X100155769Y-104155523D01*
X100155775Y-104155538D01*
X100254938Y-104354683D01*
X100254943Y-104354691D01*
X100389020Y-104532238D01*
X100553437Y-104682123D01*
X100553439Y-104682125D01*
X100742595Y-104799245D01*
X100742596Y-104799245D01*
X100742599Y-104799247D01*
X100950060Y-104879618D01*
X101168757Y-104920500D01*
X101168759Y-104920500D01*
X101391241Y-104920500D01*
X101391243Y-104920500D01*
X101609940Y-104879618D01*
X101817401Y-104799247D01*
X102006562Y-104682124D01*
X102170981Y-104532236D01*
X102305058Y-104354689D01*
X102404229Y-104155528D01*
X102457016Y-103970000D01*
X107723505Y-103970000D01*
X107776239Y-104155349D01*
X107875368Y-104354425D01*
X108009391Y-104531900D01*
X108173738Y-104681721D01*
X108362820Y-104798797D01*
X108362822Y-104798798D01*
X108570195Y-104879135D01*
X108650000Y-104894052D01*
X109150000Y-104894052D01*
X109229804Y-104879135D01*
X109437177Y-104798798D01*
X109437179Y-104798797D01*
X109626261Y-104681721D01*
X109790608Y-104531900D01*
X109924631Y-104354425D01*
X110023760Y-104155349D01*
X110076495Y-103970000D01*
X109150000Y-103970000D01*
X109150000Y-104894052D01*
X108650000Y-104894052D01*
X108650000Y-103970000D01*
X107723505Y-103970000D01*
X102457016Y-103970000D01*
X102465115Y-103941536D01*
X102485643Y-103720000D01*
X102481373Y-103673922D01*
X108550000Y-103673922D01*
X108550000Y-103766078D01*
X108573852Y-103855095D01*
X108619930Y-103934905D01*
X108685095Y-104000070D01*
X108764905Y-104046148D01*
X108853922Y-104070000D01*
X108946078Y-104070000D01*
X109035095Y-104046148D01*
X109114905Y-104000070D01*
X109180070Y-103934905D01*
X109226148Y-103855095D01*
X109250000Y-103766078D01*
X109250000Y-103673922D01*
X109226148Y-103584905D01*
X109180070Y-103505095D01*
X109144975Y-103470000D01*
X109150000Y-103470000D01*
X110076495Y-103470000D01*
X110023760Y-103284650D01*
X109924631Y-103085574D01*
X109790608Y-102908099D01*
X109626261Y-102758278D01*
X109437179Y-102641202D01*
X109437177Y-102641201D01*
X109229799Y-102560864D01*
X109150000Y-102545946D01*
X109150000Y-103470000D01*
X109144975Y-103470000D01*
X109114905Y-103439930D01*
X109035095Y-103393852D01*
X108946078Y-103370000D01*
X108853922Y-103370000D01*
X108764905Y-103393852D01*
X108685095Y-103439930D01*
X108619930Y-103505095D01*
X108573852Y-103584905D01*
X108550000Y-103673922D01*
X102481373Y-103673922D01*
X102465115Y-103498464D01*
X102457016Y-103470000D01*
X107723505Y-103470000D01*
X108650000Y-103470000D01*
X108650000Y-102545946D01*
X108570200Y-102560864D01*
X108362822Y-102641201D01*
X108362820Y-102641202D01*
X108173738Y-102758278D01*
X108009391Y-102908099D01*
X107875368Y-103085574D01*
X107776239Y-103284650D01*
X107723505Y-103470000D01*
X102457016Y-103470000D01*
X102404229Y-103284472D01*
X102363343Y-103202362D01*
X102305061Y-103085316D01*
X102305056Y-103085308D01*
X102170979Y-102907761D01*
X102006562Y-102757876D01*
X102006560Y-102757874D01*
X101817404Y-102640754D01*
X101817398Y-102640752D01*
X101609940Y-102560382D01*
X101391243Y-102519500D01*
X101168757Y-102519500D01*
X100950060Y-102560382D01*
X100818864Y-102611207D01*
X100742601Y-102640752D01*
X100742595Y-102640754D01*
X100553439Y-102757874D01*
X100553437Y-102757876D01*
X100389020Y-102907761D01*
X100254943Y-103085308D01*
X100254938Y-103085316D01*
X100155775Y-103284461D01*
X100155769Y-103284476D01*
X100094885Y-103498462D01*
X100094884Y-103498464D01*
X100074357Y-103719999D01*
X96369222Y-103719999D01*
X96426034Y-103434380D01*
X96435848Y-103284650D01*
X96445329Y-103140007D01*
X96445329Y-103139992D01*
X96426035Y-102845636D01*
X96426034Y-102845620D01*
X96368481Y-102556278D01*
X96273652Y-102276923D01*
X96143172Y-102012336D01*
X96109883Y-101962516D01*
X96019783Y-101827671D01*
X95979273Y-101767043D01*
X95905625Y-101683064D01*
X95784758Y-101545241D01*
X95562955Y-101350725D01*
X95317667Y-101186829D01*
X95317660Y-101186825D01*
X95053080Y-101056349D01*
X94773730Y-100961521D01*
X94773724Y-100961519D01*
X94773722Y-100961519D01*
X94484380Y-100903966D01*
X94484373Y-100903965D01*
X94484363Y-100903964D01*
X94190007Y-100884671D01*
X94189993Y-100884671D01*
X93895636Y-100903964D01*
X93895624Y-100903965D01*
X93895620Y-100903966D01*
X93895612Y-100903967D01*
X93895609Y-100903968D01*
X93606283Y-100961518D01*
X93606269Y-100961521D01*
X93326919Y-101056349D01*
X93062334Y-101186828D01*
X92817041Y-101350728D01*
X92595241Y-101545241D01*
X92400728Y-101767041D01*
X92236828Y-102012334D01*
X92106349Y-102276919D01*
X92011521Y-102556269D01*
X92011518Y-102556283D01*
X91953968Y-102845609D01*
X91953964Y-102845636D01*
X91934671Y-103139992D01*
X85733431Y-103139992D01*
X85651599Y-103023124D01*
X85598468Y-102969993D01*
X85496877Y-102868402D01*
X85317639Y-102742898D01*
X85166414Y-102672381D01*
X85113977Y-102626210D01*
X85094825Y-102559016D01*
X85115041Y-102492135D01*
X85166414Y-102447618D01*
X85317639Y-102377102D01*
X85496877Y-102251598D01*
X85651598Y-102096877D01*
X85777102Y-101917639D01*
X85869575Y-101719330D01*
X85926207Y-101507977D01*
X85944507Y-101298798D01*
X85945277Y-101290002D01*
X85945277Y-101289997D01*
X85936251Y-101186829D01*
X85926207Y-101072023D01*
X85869575Y-100860670D01*
X85777102Y-100662362D01*
X85777100Y-100662359D01*
X85777099Y-100662357D01*
X85651599Y-100483124D01*
X85603380Y-100434905D01*
X85496877Y-100328402D01*
X85342062Y-100219999D01*
X100084357Y-100219999D01*
X100084357Y-100220000D01*
X100104884Y-100441535D01*
X100104885Y-100441537D01*
X100165769Y-100655523D01*
X100165775Y-100655538D01*
X100264938Y-100854683D01*
X100264943Y-100854691D01*
X100399020Y-101032238D01*
X100563437Y-101182123D01*
X100563439Y-101182125D01*
X100752595Y-101299245D01*
X100752596Y-101299245D01*
X100752599Y-101299247D01*
X100960060Y-101379618D01*
X101178757Y-101420500D01*
X101178759Y-101420500D01*
X101401241Y-101420500D01*
X101401243Y-101420500D01*
X101619940Y-101379618D01*
X101827401Y-101299247D01*
X102016562Y-101182124D01*
X102180981Y-101032236D01*
X102315058Y-100854689D01*
X102414229Y-100655528D01*
X102467016Y-100470000D01*
X107733505Y-100470000D01*
X107786239Y-100655349D01*
X107885368Y-100854425D01*
X108019391Y-101031900D01*
X108183738Y-101181721D01*
X108372820Y-101298797D01*
X108372822Y-101298798D01*
X108580195Y-101379135D01*
X108660000Y-101394052D01*
X109160000Y-101394052D01*
X109239804Y-101379135D01*
X109447177Y-101298798D01*
X109447179Y-101298797D01*
X109636261Y-101181721D01*
X109800608Y-101031900D01*
X109934631Y-100854425D01*
X110033760Y-100655349D01*
X110086495Y-100470000D01*
X109160000Y-100470000D01*
X109160000Y-101394052D01*
X108660000Y-101394052D01*
X108660000Y-100470000D01*
X107733505Y-100470000D01*
X102467016Y-100470000D01*
X102475115Y-100441536D01*
X102495643Y-100220000D01*
X102494058Y-100202900D01*
X102491373Y-100173922D01*
X108560000Y-100173922D01*
X108560000Y-100266078D01*
X108583852Y-100355095D01*
X108629930Y-100434905D01*
X108695095Y-100500070D01*
X108774905Y-100546148D01*
X108863922Y-100570000D01*
X108956078Y-100570000D01*
X109045095Y-100546148D01*
X109124905Y-100500070D01*
X109190070Y-100434905D01*
X109236148Y-100355095D01*
X109260000Y-100266078D01*
X109260000Y-100173922D01*
X109236148Y-100084905D01*
X109190070Y-100005095D01*
X109154975Y-99970000D01*
X109160000Y-99970000D01*
X110086495Y-99970000D01*
X110033760Y-99784650D01*
X109934631Y-99585574D01*
X109800608Y-99408099D01*
X109636261Y-99258278D01*
X109447179Y-99141202D01*
X109447177Y-99141201D01*
X109239799Y-99060864D01*
X109160000Y-99045946D01*
X109160000Y-99970000D01*
X109154975Y-99970000D01*
X109124905Y-99939930D01*
X109045095Y-99893852D01*
X108956078Y-99870000D01*
X108863922Y-99870000D01*
X108774905Y-99893852D01*
X108695095Y-99939930D01*
X108629930Y-100005095D01*
X108583852Y-100084905D01*
X108560000Y-100173922D01*
X102491373Y-100173922D01*
X102475115Y-99998464D01*
X102475114Y-99998462D01*
X102467016Y-99970000D01*
X107733505Y-99970000D01*
X108660000Y-99970000D01*
X108660000Y-99045946D01*
X108580200Y-99060864D01*
X108372822Y-99141201D01*
X108372820Y-99141202D01*
X108183738Y-99258278D01*
X108019391Y-99408099D01*
X107885368Y-99585574D01*
X107786239Y-99784650D01*
X107733505Y-99970000D01*
X102467016Y-99970000D01*
X102458460Y-99939930D01*
X102414229Y-99784472D01*
X102315189Y-99585574D01*
X102315061Y-99585316D01*
X102315056Y-99585308D01*
X102180979Y-99407761D01*
X102016562Y-99257876D01*
X102016560Y-99257874D01*
X101827404Y-99140754D01*
X101827398Y-99140752D01*
X101619940Y-99060382D01*
X101401243Y-99019500D01*
X101178757Y-99019500D01*
X100960060Y-99060382D01*
X100828864Y-99111207D01*
X100752601Y-99140752D01*
X100752595Y-99140754D01*
X100563439Y-99257874D01*
X100563437Y-99257876D01*
X100399020Y-99407761D01*
X100264943Y-99585308D01*
X100264938Y-99585316D01*
X100165775Y-99784461D01*
X100165769Y-99784476D01*
X100104885Y-99998462D01*
X100104884Y-99998464D01*
X100084357Y-100219999D01*
X85342062Y-100219999D01*
X85317639Y-100202898D01*
X85317640Y-100202898D01*
X85317638Y-100202897D01*
X85218484Y-100156661D01*
X85119330Y-100110425D01*
X85119326Y-100110424D01*
X85119322Y-100110422D01*
X84907977Y-100053793D01*
X84690002Y-100034723D01*
X84689998Y-100034723D01*
X84544682Y-100047436D01*
X84472023Y-100053793D01*
X84472020Y-100053793D01*
X84260677Y-100110422D01*
X84260668Y-100110426D01*
X84062361Y-100202898D01*
X84062357Y-100202900D01*
X83883121Y-100328402D01*
X83728402Y-100483121D01*
X83602900Y-100662357D01*
X83602898Y-100662361D01*
X83510426Y-100860668D01*
X83510422Y-100860677D01*
X83453793Y-101072020D01*
X83453793Y-101072024D01*
X83434723Y-101289997D01*
X73500500Y-101289997D01*
X73500500Y-98321829D01*
X73520185Y-98254790D01*
X73572989Y-98209035D01*
X73642147Y-98199091D01*
X73705703Y-98228116D01*
X73743477Y-98286894D01*
X73743766Y-98287895D01*
X73785769Y-98435523D01*
X73785775Y-98435538D01*
X73884938Y-98634683D01*
X73884943Y-98634691D01*
X74019020Y-98812238D01*
X74183437Y-98962123D01*
X74183439Y-98962125D01*
X74372595Y-99079245D01*
X74372596Y-99079245D01*
X74372599Y-99079247D01*
X74580060Y-99159618D01*
X74798757Y-99200500D01*
X74798759Y-99200500D01*
X75021241Y-99200500D01*
X75021243Y-99200500D01*
X75239940Y-99159618D01*
X75447401Y-99079247D01*
X75636562Y-98962124D01*
X75800981Y-98812236D01*
X75935058Y-98634689D01*
X76034229Y-98435528D01*
X76095115Y-98221536D01*
X76115643Y-98000000D01*
X76115643Y-97999999D01*
X81324357Y-97999999D01*
X81324357Y-98000000D01*
X81344884Y-98221535D01*
X81344885Y-98221537D01*
X81405769Y-98435523D01*
X81405775Y-98435538D01*
X81504938Y-98634683D01*
X81504943Y-98634691D01*
X81639020Y-98812238D01*
X81803437Y-98962123D01*
X81803439Y-98962125D01*
X81992595Y-99079245D01*
X81992596Y-99079245D01*
X81992599Y-99079247D01*
X82200060Y-99159618D01*
X82418757Y-99200500D01*
X82418759Y-99200500D01*
X82641241Y-99200500D01*
X82641243Y-99200500D01*
X82859940Y-99159618D01*
X83067401Y-99079247D01*
X83256562Y-98962124D01*
X83420981Y-98812236D01*
X83555058Y-98634689D01*
X83654229Y-98435528D01*
X83715115Y-98221536D01*
X83735643Y-98000000D01*
X83730543Y-97944966D01*
X83715115Y-97778464D01*
X83715114Y-97778462D01*
X83713047Y-97771198D01*
X83654229Y-97564472D01*
X83654224Y-97564461D01*
X83555061Y-97365316D01*
X83555056Y-97365308D01*
X83420979Y-97187761D01*
X83256562Y-97037876D01*
X83256560Y-97037874D01*
X83067404Y-96920754D01*
X83067398Y-96920752D01*
X82859940Y-96840382D01*
X82641243Y-96799500D01*
X82418757Y-96799500D01*
X82200060Y-96840382D01*
X82132358Y-96866610D01*
X81992601Y-96920752D01*
X81992595Y-96920754D01*
X81803439Y-97037874D01*
X81803437Y-97037876D01*
X81639020Y-97187761D01*
X81504943Y-97365308D01*
X81504938Y-97365316D01*
X81405775Y-97564461D01*
X81405769Y-97564476D01*
X81344885Y-97778462D01*
X81344884Y-97778464D01*
X81324357Y-97999999D01*
X76115643Y-97999999D01*
X76110543Y-97944966D01*
X76095115Y-97778464D01*
X76095114Y-97778462D01*
X76093047Y-97771198D01*
X76034229Y-97564472D01*
X76034224Y-97564461D01*
X75935061Y-97365316D01*
X75935056Y-97365308D01*
X75800979Y-97187761D01*
X75636562Y-97037876D01*
X75636560Y-97037874D01*
X75447404Y-96920754D01*
X75447398Y-96920752D01*
X75239940Y-96840382D01*
X75021243Y-96799500D01*
X74798757Y-96799500D01*
X74580060Y-96840382D01*
X74512358Y-96866610D01*
X74372601Y-96920752D01*
X74372595Y-96920754D01*
X74183439Y-97037874D01*
X74183437Y-97037876D01*
X74019020Y-97187761D01*
X73884943Y-97365308D01*
X73884938Y-97365316D01*
X73785775Y-97564461D01*
X73785769Y-97564476D01*
X73743766Y-97712104D01*
X73706487Y-97771198D01*
X73643177Y-97800755D01*
X73573938Y-97791393D01*
X73520751Y-97746083D01*
X73500504Y-97679211D01*
X73500500Y-97678170D01*
X73500500Y-96639997D01*
X87835034Y-96639997D01*
X87835034Y-96640002D01*
X87854858Y-96866599D01*
X87854860Y-96866610D01*
X87913730Y-97086317D01*
X87913735Y-97086331D01*
X88009863Y-97292478D01*
X88060974Y-97365472D01*
X88740000Y-96686446D01*
X88740000Y-96692661D01*
X88767259Y-96794394D01*
X88819920Y-96885606D01*
X88894394Y-96960080D01*
X88985606Y-97012741D01*
X89087339Y-97040000D01*
X89093553Y-97040000D01*
X88414526Y-97719025D01*
X88487513Y-97770132D01*
X88487521Y-97770136D01*
X88693668Y-97866264D01*
X88693682Y-97866269D01*
X88913389Y-97925139D01*
X88913400Y-97925141D01*
X89139998Y-97944966D01*
X89140002Y-97944966D01*
X89366599Y-97925141D01*
X89366610Y-97925139D01*
X89586317Y-97866269D01*
X89586331Y-97866264D01*
X89792478Y-97770136D01*
X89865471Y-97719024D01*
X89186447Y-97040000D01*
X89192661Y-97040000D01*
X89294394Y-97012741D01*
X89385606Y-96960080D01*
X89460080Y-96885606D01*
X89512741Y-96794394D01*
X89540000Y-96692661D01*
X89540000Y-96686447D01*
X90224197Y-97370644D01*
X90273192Y-97380491D01*
X90323375Y-97429106D01*
X90338049Y-97484632D01*
X90339099Y-97484576D01*
X90339146Y-97484571D01*
X90339146Y-97484573D01*
X90339324Y-97484564D01*
X90339501Y-97487876D01*
X90345908Y-97547483D01*
X90396202Y-97682328D01*
X90396206Y-97682335D01*
X90482452Y-97797544D01*
X90482455Y-97797547D01*
X90597664Y-97883793D01*
X90597671Y-97883797D01*
X90732517Y-97934091D01*
X90732516Y-97934091D01*
X90739444Y-97934835D01*
X90792127Y-97940500D01*
X92487872Y-97940499D01*
X92547483Y-97934091D01*
X92682331Y-97883796D01*
X92797546Y-97797546D01*
X92883796Y-97682331D01*
X92934091Y-97547483D01*
X92940500Y-97487873D01*
X92940499Y-95792128D01*
X92934091Y-95732517D01*
X92883796Y-95597669D01*
X92883795Y-95597668D01*
X92883793Y-95597664D01*
X92797547Y-95482455D01*
X92797544Y-95482452D01*
X92682335Y-95396206D01*
X92682328Y-95396202D01*
X92547482Y-95345908D01*
X92547483Y-95345908D01*
X92487883Y-95339501D01*
X92487881Y-95339500D01*
X92487873Y-95339500D01*
X92487864Y-95339500D01*
X90792129Y-95339500D01*
X90792123Y-95339501D01*
X90732516Y-95345908D01*
X90597671Y-95396202D01*
X90597664Y-95396206D01*
X90482455Y-95482452D01*
X90482452Y-95482455D01*
X90396206Y-95597664D01*
X90396202Y-95597671D01*
X90345908Y-95732517D01*
X90339501Y-95792116D01*
X90339501Y-95792123D01*
X90339322Y-95795452D01*
X90337847Y-95795372D01*
X90319815Y-95856784D01*
X90267011Y-95902539D01*
X90223522Y-95910029D01*
X89540000Y-96593551D01*
X89540000Y-96587339D01*
X89512741Y-96485606D01*
X89460080Y-96394394D01*
X89385606Y-96319920D01*
X89294394Y-96267259D01*
X89192661Y-96240000D01*
X89186448Y-96240000D01*
X89865472Y-95560974D01*
X89792478Y-95509863D01*
X89586331Y-95413735D01*
X89586317Y-95413730D01*
X89366610Y-95354860D01*
X89366599Y-95354858D01*
X89140002Y-95335034D01*
X89139998Y-95335034D01*
X88913400Y-95354858D01*
X88913389Y-95354860D01*
X88693682Y-95413730D01*
X88693673Y-95413734D01*
X88487516Y-95509866D01*
X88487512Y-95509868D01*
X88414526Y-95560973D01*
X88414526Y-95560974D01*
X89093553Y-96240000D01*
X89087339Y-96240000D01*
X88985606Y-96267259D01*
X88894394Y-96319920D01*
X88819920Y-96394394D01*
X88767259Y-96485606D01*
X88740000Y-96587339D01*
X88740000Y-96593552D01*
X88060974Y-95914526D01*
X88060973Y-95914526D01*
X88009868Y-95987512D01*
X88009866Y-95987516D01*
X87913734Y-96193673D01*
X87913730Y-96193682D01*
X87854860Y-96413389D01*
X87854858Y-96413400D01*
X87835034Y-96639997D01*
X73500500Y-96639997D01*
X73500500Y-92932135D01*
X73819500Y-92932135D01*
X73819500Y-94627870D01*
X73819501Y-94627876D01*
X73825908Y-94687483D01*
X73876202Y-94822328D01*
X73876206Y-94822335D01*
X73962452Y-94937544D01*
X73962455Y-94937547D01*
X74077664Y-95023793D01*
X74077671Y-95023797D01*
X74212517Y-95074091D01*
X74212516Y-95074091D01*
X74219444Y-95074835D01*
X74272127Y-95080500D01*
X75967872Y-95080499D01*
X76027483Y-95074091D01*
X76162331Y-95023796D01*
X76277546Y-94937546D01*
X76363796Y-94822331D01*
X76414091Y-94687483D01*
X76420500Y-94627873D01*
X76420499Y-94627845D01*
X76420678Y-94624547D01*
X76422183Y-94624627D01*
X76440112Y-94563326D01*
X76492868Y-94517514D01*
X76536465Y-94509981D01*
X77220000Y-93826446D01*
X77220000Y-93832661D01*
X77247259Y-93934394D01*
X77299920Y-94025606D01*
X77374394Y-94100080D01*
X77465606Y-94152741D01*
X77567339Y-94180000D01*
X77573553Y-94180000D01*
X76894526Y-94859025D01*
X76967513Y-94910132D01*
X76967521Y-94910136D01*
X77173668Y-95006264D01*
X77173682Y-95006269D01*
X77393389Y-95065139D01*
X77393400Y-95065141D01*
X77619998Y-95084966D01*
X77620002Y-95084966D01*
X77846599Y-95065141D01*
X77846610Y-95065139D01*
X78066317Y-95006269D01*
X78066331Y-95006264D01*
X78272478Y-94910136D01*
X78345471Y-94859024D01*
X77666447Y-94180000D01*
X77672661Y-94180000D01*
X77774394Y-94152741D01*
X77865606Y-94100080D01*
X77940080Y-94025606D01*
X77992741Y-93934394D01*
X78020000Y-93832661D01*
X78020000Y-93826447D01*
X78699024Y-94505471D01*
X78750136Y-94432478D01*
X78846264Y-94226331D01*
X78846269Y-94226317D01*
X78905139Y-94006610D01*
X78905141Y-94006599D01*
X78924966Y-93780002D01*
X78924966Y-93779997D01*
X78905141Y-93553400D01*
X78905139Y-93553389D01*
X78846269Y-93333682D01*
X78846264Y-93333668D01*
X78750136Y-93127521D01*
X78750132Y-93127513D01*
X78699025Y-93054526D01*
X78020000Y-93733551D01*
X78020000Y-93727339D01*
X77992741Y-93625606D01*
X77940080Y-93534394D01*
X77865606Y-93459920D01*
X77774394Y-93407259D01*
X77672661Y-93380000D01*
X77666448Y-93380000D01*
X78345472Y-92700974D01*
X78272478Y-92649863D01*
X78066331Y-92553735D01*
X78066317Y-92553730D01*
X77846610Y-92494860D01*
X77846599Y-92494858D01*
X77620002Y-92475034D01*
X77619998Y-92475034D01*
X77393400Y-92494858D01*
X77393389Y-92494860D01*
X77173682Y-92553730D01*
X77173673Y-92553734D01*
X76967516Y-92649866D01*
X76967512Y-92649868D01*
X76894526Y-92700973D01*
X76894526Y-92700974D01*
X77573553Y-93380000D01*
X77567339Y-93380000D01*
X77465606Y-93407259D01*
X77374394Y-93459920D01*
X77299920Y-93534394D01*
X77247259Y-93625606D01*
X77220000Y-93727339D01*
X77220000Y-93733552D01*
X76535799Y-93049351D01*
X76486805Y-93039505D01*
X76436622Y-92990889D01*
X76421981Y-92935366D01*
X76420900Y-92935423D01*
X76420854Y-92935429D01*
X76420853Y-92935426D01*
X76420676Y-92935436D01*
X76420499Y-92932135D01*
X76420499Y-92932128D01*
X76414091Y-92872517D01*
X76413024Y-92869657D01*
X76363797Y-92737671D01*
X76363793Y-92737664D01*
X76277547Y-92622455D01*
X76277544Y-92622452D01*
X76162335Y-92536206D01*
X76162328Y-92536202D01*
X76027482Y-92485908D01*
X76027483Y-92485908D01*
X75967883Y-92479501D01*
X75967881Y-92479500D01*
X75967873Y-92479500D01*
X75967864Y-92479500D01*
X74272129Y-92479500D01*
X74272123Y-92479501D01*
X74212516Y-92485908D01*
X74077671Y-92536202D01*
X74077664Y-92536206D01*
X73962455Y-92622452D01*
X73962452Y-92622455D01*
X73876206Y-92737664D01*
X73876202Y-92737671D01*
X73825908Y-92872517D01*
X73819501Y-92932116D01*
X73819501Y-92932123D01*
X73819500Y-92932135D01*
X73500500Y-92932135D01*
X73500500Y-88985030D01*
X73520185Y-88917991D01*
X73572989Y-88872236D01*
X73642147Y-88862292D01*
X73705703Y-88891317D01*
X73743477Y-88950095D01*
X73744275Y-88952937D01*
X73806094Y-89183655D01*
X73806096Y-89183659D01*
X73806097Y-89183663D01*
X73874334Y-89329998D01*
X73905965Y-89397830D01*
X73905967Y-89397834D01*
X74013133Y-89550882D01*
X74041505Y-89591401D01*
X74208599Y-89758495D01*
X74285135Y-89812086D01*
X74402165Y-89894032D01*
X74402167Y-89894033D01*
X74402170Y-89894035D01*
X74616337Y-89993903D01*
X74844592Y-90055063D01*
X75015319Y-90070000D01*
X75079999Y-90075659D01*
X75080000Y-90075659D01*
X75080001Y-90075659D01*
X75144681Y-90070000D01*
X75315408Y-90055063D01*
X75543663Y-89993903D01*
X75757830Y-89894035D01*
X75951401Y-89758495D01*
X76073717Y-89636178D01*
X76135036Y-89602696D01*
X76204728Y-89607680D01*
X76260662Y-89649551D01*
X76277577Y-89680528D01*
X76326646Y-89812088D01*
X76326649Y-89812093D01*
X76412809Y-89927187D01*
X76412812Y-89927190D01*
X76527906Y-90013350D01*
X76527913Y-90013354D01*
X76662620Y-90063596D01*
X76662627Y-90063598D01*
X76722155Y-90069999D01*
X76722172Y-90070000D01*
X77370000Y-90070000D01*
X77370000Y-89153012D01*
X77427007Y-89185925D01*
X77554174Y-89220000D01*
X77685826Y-89220000D01*
X77812993Y-89185925D01*
X77870000Y-89153012D01*
X77870000Y-90070000D01*
X78517828Y-90070000D01*
X78517844Y-90069999D01*
X78577372Y-90063598D01*
X78577379Y-90063596D01*
X78712086Y-90013354D01*
X78712093Y-90013350D01*
X78827187Y-89927190D01*
X78827190Y-89927187D01*
X78913350Y-89812093D01*
X78913354Y-89812086D01*
X78963596Y-89677379D01*
X78963598Y-89677372D01*
X78969999Y-89617844D01*
X78970000Y-89617827D01*
X78970000Y-88970000D01*
X78053012Y-88970000D01*
X78085925Y-88912993D01*
X78120000Y-88785826D01*
X78120000Y-88654174D01*
X78085925Y-88527007D01*
X78053012Y-88470000D01*
X78970000Y-88470000D01*
X78970000Y-87822172D01*
X78969999Y-87822155D01*
X78963598Y-87762627D01*
X78963596Y-87762620D01*
X78913354Y-87627913D01*
X78913350Y-87627906D01*
X78827190Y-87512812D01*
X78827187Y-87512809D01*
X78712093Y-87426649D01*
X78712088Y-87426646D01*
X78580528Y-87377577D01*
X78524595Y-87335705D01*
X78500178Y-87270241D01*
X78515030Y-87201968D01*
X78536175Y-87173720D01*
X78658495Y-87051401D01*
X78794035Y-86857830D01*
X78893903Y-86643663D01*
X78955063Y-86415408D01*
X78975659Y-86180000D01*
X78955063Y-85944592D01*
X78893903Y-85716337D01*
X78794035Y-85502171D01*
X78788425Y-85494158D01*
X78658494Y-85308597D01*
X78491402Y-85141506D01*
X78491396Y-85141501D01*
X78305842Y-85011575D01*
X78262217Y-84956998D01*
X78255023Y-84887500D01*
X78286546Y-84825145D01*
X78305842Y-84808425D01*
X78328026Y-84792891D01*
X78491401Y-84678495D01*
X78658495Y-84511401D01*
X78794035Y-84317830D01*
X78893903Y-84103663D01*
X78955063Y-83875408D01*
X78975659Y-83640000D01*
X78955063Y-83404592D01*
X78893903Y-83176337D01*
X78794035Y-82962171D01*
X78788425Y-82954158D01*
X78658494Y-82768597D01*
X78491402Y-82601506D01*
X78491396Y-82601501D01*
X78305842Y-82471575D01*
X78262217Y-82416998D01*
X78255023Y-82347500D01*
X78286546Y-82285145D01*
X78305842Y-82268425D01*
X78328026Y-82252891D01*
X78491401Y-82138495D01*
X78658495Y-81971401D01*
X78794035Y-81777830D01*
X78893903Y-81563663D01*
X78955063Y-81335408D01*
X78975659Y-81100000D01*
X78955063Y-80864592D01*
X78893903Y-80636337D01*
X78794035Y-80422171D01*
X78788425Y-80414158D01*
X78658494Y-80228597D01*
X78491402Y-80061506D01*
X78491395Y-80061501D01*
X78468583Y-80045528D01*
X78416615Y-80009139D01*
X78297834Y-79925967D01*
X78297830Y-79925965D01*
X78297828Y-79925964D01*
X78083663Y-79826097D01*
X78083659Y-79826096D01*
X78083655Y-79826094D01*
X77855413Y-79764938D01*
X77855403Y-79764936D01*
X77620001Y-79744341D01*
X77619999Y-79744341D01*
X77384596Y-79764936D01*
X77384586Y-79764938D01*
X77156344Y-79826094D01*
X77156335Y-79826098D01*
X76942171Y-79925964D01*
X76942169Y-79925965D01*
X76748597Y-80061505D01*
X76581505Y-80228597D01*
X76451575Y-80414158D01*
X76396998Y-80457783D01*
X76327500Y-80464977D01*
X76265145Y-80433454D01*
X76248425Y-80414158D01*
X76118494Y-80228597D01*
X75951402Y-80061506D01*
X75951395Y-80061501D01*
X75928583Y-80045528D01*
X75876615Y-80009139D01*
X75757834Y-79925967D01*
X75757830Y-79925965D01*
X75757828Y-79925964D01*
X75543663Y-79826097D01*
X75543659Y-79826096D01*
X75543655Y-79826094D01*
X75315413Y-79764938D01*
X75315403Y-79764936D01*
X75080001Y-79744341D01*
X75079999Y-79744341D01*
X74844596Y-79764936D01*
X74844586Y-79764938D01*
X74616344Y-79826094D01*
X74616335Y-79826098D01*
X74402171Y-79925964D01*
X74402169Y-79925965D01*
X74208597Y-80061505D01*
X74041505Y-80228597D01*
X73905965Y-80422169D01*
X73905964Y-80422171D01*
X73806098Y-80636335D01*
X73806094Y-80636344D01*
X73744275Y-80867062D01*
X73707910Y-80926723D01*
X73645063Y-80957252D01*
X73575688Y-80948957D01*
X73521810Y-80904472D01*
X73500535Y-80837920D01*
X73500500Y-80834969D01*
X73500500Y-76629998D01*
X85054532Y-76629998D01*
X85054532Y-76630001D01*
X85074364Y-76856686D01*
X85074366Y-76856697D01*
X85133258Y-77076488D01*
X85133261Y-77076497D01*
X85229431Y-77282732D01*
X85229432Y-77282734D01*
X85359954Y-77469141D01*
X85520858Y-77630045D01*
X85520861Y-77630047D01*
X85707266Y-77760568D01*
X85765275Y-77787618D01*
X85817714Y-77833791D01*
X85836866Y-77900984D01*
X85816650Y-77967865D01*
X85765275Y-78012382D01*
X85707267Y-78039431D01*
X85707265Y-78039432D01*
X85520858Y-78169954D01*
X85359954Y-78330858D01*
X85229432Y-78517265D01*
X85229431Y-78517267D01*
X85133261Y-78723502D01*
X85133258Y-78723511D01*
X85074366Y-78943302D01*
X85074364Y-78943313D01*
X85054532Y-79169998D01*
X85054532Y-79170001D01*
X85074364Y-79396686D01*
X85074366Y-79396697D01*
X85133258Y-79616488D01*
X85133261Y-79616497D01*
X85229431Y-79822732D01*
X85229432Y-79822734D01*
X85359954Y-80009141D01*
X85520858Y-80170045D01*
X85520861Y-80170047D01*
X85707266Y-80300568D01*
X85765275Y-80327618D01*
X85817714Y-80373791D01*
X85836866Y-80440984D01*
X85816650Y-80507865D01*
X85765275Y-80552382D01*
X85707267Y-80579431D01*
X85707265Y-80579432D01*
X85520858Y-80709954D01*
X85359954Y-80870858D01*
X85229432Y-81057265D01*
X85229431Y-81057267D01*
X85133261Y-81263502D01*
X85133258Y-81263511D01*
X85074366Y-81483302D01*
X85074364Y-81483313D01*
X85054532Y-81709998D01*
X85054532Y-81710001D01*
X85074364Y-81936686D01*
X85074366Y-81936697D01*
X85133258Y-82156488D01*
X85133261Y-82156497D01*
X85229431Y-82362732D01*
X85229432Y-82362734D01*
X85359954Y-82549141D01*
X85520858Y-82710045D01*
X85520861Y-82710047D01*
X85707266Y-82840568D01*
X85765275Y-82867618D01*
X85817714Y-82913791D01*
X85836866Y-82980984D01*
X85816650Y-83047865D01*
X85765275Y-83092382D01*
X85707267Y-83119431D01*
X85707265Y-83119432D01*
X85520858Y-83249954D01*
X85359954Y-83410858D01*
X85229432Y-83597265D01*
X85229431Y-83597267D01*
X85133261Y-83803502D01*
X85133258Y-83803511D01*
X85074366Y-84023302D01*
X85074364Y-84023313D01*
X85054532Y-84249998D01*
X85054532Y-84250001D01*
X85074364Y-84476686D01*
X85074366Y-84476697D01*
X85133258Y-84696488D01*
X85133261Y-84696497D01*
X85229431Y-84902732D01*
X85229432Y-84902734D01*
X85359954Y-85089141D01*
X85520858Y-85250045D01*
X85520861Y-85250047D01*
X85707266Y-85380568D01*
X85765275Y-85407618D01*
X85817714Y-85453791D01*
X85836866Y-85520984D01*
X85816650Y-85587865D01*
X85765275Y-85632382D01*
X85707267Y-85659431D01*
X85707265Y-85659432D01*
X85520858Y-85789954D01*
X85359954Y-85950858D01*
X85229432Y-86137265D01*
X85229431Y-86137267D01*
X85133261Y-86343502D01*
X85133258Y-86343511D01*
X85074366Y-86563302D01*
X85074364Y-86563313D01*
X85054532Y-86789998D01*
X85054532Y-86790001D01*
X85074364Y-87016686D01*
X85074366Y-87016697D01*
X85133258Y-87236488D01*
X85133261Y-87236497D01*
X85229431Y-87442732D01*
X85229432Y-87442734D01*
X85359954Y-87629141D01*
X85520858Y-87790045D01*
X85520861Y-87790047D01*
X85707266Y-87920568D01*
X85765275Y-87947618D01*
X85817714Y-87993791D01*
X85836866Y-88060984D01*
X85816650Y-88127865D01*
X85765275Y-88172382D01*
X85707267Y-88199431D01*
X85707265Y-88199432D01*
X85520858Y-88329954D01*
X85359954Y-88490858D01*
X85229432Y-88677265D01*
X85229431Y-88677267D01*
X85133261Y-88883502D01*
X85133258Y-88883511D01*
X85074366Y-89103302D01*
X85074364Y-89103313D01*
X85054532Y-89329998D01*
X85054532Y-89330001D01*
X85074364Y-89556686D01*
X85074366Y-89556697D01*
X85133258Y-89776488D01*
X85133261Y-89776497D01*
X85229431Y-89982732D01*
X85229432Y-89982734D01*
X85359954Y-90169141D01*
X85520858Y-90330045D01*
X85560914Y-90358092D01*
X85707266Y-90460568D01*
X85765865Y-90487893D01*
X85818305Y-90534065D01*
X85837457Y-90601258D01*
X85817242Y-90668139D01*
X85765867Y-90712657D01*
X85707515Y-90739867D01*
X85521179Y-90870342D01*
X85360342Y-91031179D01*
X85229865Y-91217517D01*
X85133734Y-91423673D01*
X85133730Y-91423682D01*
X85081127Y-91619999D01*
X85081128Y-91620000D01*
X86044314Y-91620000D01*
X86039920Y-91624394D01*
X85987259Y-91715606D01*
X85960000Y-91817339D01*
X85960000Y-91922661D01*
X85987259Y-92024394D01*
X86039920Y-92115606D01*
X86044314Y-92120000D01*
X85081128Y-92120000D01*
X85133730Y-92316317D01*
X85133734Y-92316326D01*
X85229865Y-92522482D01*
X85360342Y-92708820D01*
X85521179Y-92869657D01*
X85707517Y-93000134D01*
X85913673Y-93096265D01*
X85913682Y-93096269D01*
X86109999Y-93148872D01*
X86110000Y-93148871D01*
X86110000Y-92185686D01*
X86114394Y-92190080D01*
X86205606Y-92242741D01*
X86307339Y-92270000D01*
X86412661Y-92270000D01*
X86514394Y-92242741D01*
X86605606Y-92190080D01*
X86610000Y-92185686D01*
X86610000Y-93148872D01*
X86806317Y-93096269D01*
X86806326Y-93096265D01*
X87012482Y-93000134D01*
X87198820Y-92869657D01*
X87359657Y-92708820D01*
X87490134Y-92522482D01*
X87586265Y-92316326D01*
X87586269Y-92316317D01*
X87638872Y-92120000D01*
X86675686Y-92120000D01*
X86680080Y-92115606D01*
X86732741Y-92024394D01*
X86760000Y-91922661D01*
X86760000Y-91817339D01*
X86732741Y-91715606D01*
X86680080Y-91624394D01*
X86675686Y-91620000D01*
X87638872Y-91620000D01*
X87638872Y-91619999D01*
X87586269Y-91423682D01*
X87586265Y-91423673D01*
X87490134Y-91217517D01*
X87359657Y-91031179D01*
X87198820Y-90870342D01*
X87012482Y-90739865D01*
X86954133Y-90712657D01*
X86901694Y-90666484D01*
X86882542Y-90599291D01*
X86902758Y-90532410D01*
X86954129Y-90487895D01*
X87012734Y-90460568D01*
X87199139Y-90330047D01*
X87360047Y-90169139D01*
X87490568Y-89982734D01*
X87586739Y-89776496D01*
X87645635Y-89556692D01*
X87665468Y-89330000D01*
X87645635Y-89103308D01*
X87594641Y-88912993D01*
X87586741Y-88883511D01*
X87586738Y-88883502D01*
X87576848Y-88862292D01*
X87490568Y-88677266D01*
X87360047Y-88490861D01*
X87360045Y-88490858D01*
X87199141Y-88329954D01*
X87012734Y-88199432D01*
X87012728Y-88199429D01*
X86954725Y-88172382D01*
X86902285Y-88126210D01*
X86883133Y-88059017D01*
X86903348Y-87992135D01*
X86954725Y-87947618D01*
X87012734Y-87920568D01*
X87199139Y-87790047D01*
X87360047Y-87629139D01*
X87490568Y-87442734D01*
X87586739Y-87236496D01*
X87645635Y-87016692D01*
X87665468Y-86790000D01*
X87645635Y-86563308D01*
X87595980Y-86377991D01*
X87586741Y-86343511D01*
X87586738Y-86343502D01*
X87532100Y-86226331D01*
X87490568Y-86137266D01*
X87360047Y-85950861D01*
X87360045Y-85950858D01*
X87199141Y-85789954D01*
X87012734Y-85659432D01*
X87012728Y-85659429D01*
X86954725Y-85632382D01*
X86902285Y-85586210D01*
X86883133Y-85519017D01*
X86903348Y-85452135D01*
X86954725Y-85407618D01*
X87012734Y-85380568D01*
X87199139Y-85250047D01*
X87360047Y-85089139D01*
X87490568Y-84902734D01*
X87586739Y-84696496D01*
X87645635Y-84476692D01*
X87664127Y-84265326D01*
X87665468Y-84250001D01*
X87665468Y-84249998D01*
X87655832Y-84139856D01*
X87645635Y-84023308D01*
X87595980Y-83837991D01*
X87586741Y-83803511D01*
X87586738Y-83803502D01*
X87510495Y-83640000D01*
X87490568Y-83597266D01*
X87360047Y-83410861D01*
X87360045Y-83410858D01*
X87199141Y-83249954D01*
X87012734Y-83119432D01*
X87012728Y-83119429D01*
X86954725Y-83092382D01*
X86902285Y-83046210D01*
X86883133Y-82979017D01*
X86903348Y-82912135D01*
X86954725Y-82867618D01*
X87012734Y-82840568D01*
X87199139Y-82710047D01*
X87360047Y-82549139D01*
X87490568Y-82362734D01*
X87586739Y-82156496D01*
X87645635Y-81936692D01*
X87665468Y-81710000D01*
X87645635Y-81483308D01*
X87595980Y-81297991D01*
X87586741Y-81263511D01*
X87586738Y-81263502D01*
X87510495Y-81100000D01*
X87490568Y-81057266D01*
X87360047Y-80870861D01*
X87360045Y-80870858D01*
X87199141Y-80709954D01*
X87012734Y-80579432D01*
X87012728Y-80579429D01*
X86954725Y-80552382D01*
X86902285Y-80506210D01*
X86883133Y-80439017D01*
X86903348Y-80372135D01*
X86954725Y-80327618D01*
X87012734Y-80300568D01*
X87199139Y-80170047D01*
X87360047Y-80009139D01*
X87490568Y-79822734D01*
X87586739Y-79616496D01*
X87645635Y-79396692D01*
X87665468Y-79170000D01*
X87645635Y-78943308D01*
X87586739Y-78723504D01*
X87490568Y-78517266D01*
X87360047Y-78330861D01*
X87360045Y-78330858D01*
X87199141Y-78169954D01*
X87012734Y-78039432D01*
X87012728Y-78039429D01*
X86954725Y-78012382D01*
X86902285Y-77966210D01*
X86883133Y-77899017D01*
X86903348Y-77832135D01*
X86954725Y-77787618D01*
X87012734Y-77760568D01*
X87199139Y-77630047D01*
X87360047Y-77469139D01*
X87490568Y-77282734D01*
X87586739Y-77076496D01*
X87645635Y-76856692D01*
X87665468Y-76630000D01*
X87665468Y-76629998D01*
X92674532Y-76629998D01*
X92674532Y-76630001D01*
X92694364Y-76856686D01*
X92694366Y-76856697D01*
X92753258Y-77076488D01*
X92753261Y-77076497D01*
X92849431Y-77282732D01*
X92849432Y-77282734D01*
X92979954Y-77469141D01*
X93140858Y-77630045D01*
X93140861Y-77630047D01*
X93327266Y-77760568D01*
X93385275Y-77787618D01*
X93437714Y-77833791D01*
X93456866Y-77900984D01*
X93436650Y-77967865D01*
X93385275Y-78012382D01*
X93327267Y-78039431D01*
X93327265Y-78039432D01*
X93140858Y-78169954D01*
X92979954Y-78330858D01*
X92849432Y-78517265D01*
X92849431Y-78517267D01*
X92753261Y-78723502D01*
X92753258Y-78723511D01*
X92694366Y-78943302D01*
X92694364Y-78943313D01*
X92674532Y-79169998D01*
X92674532Y-79170001D01*
X92694364Y-79396686D01*
X92694366Y-79396697D01*
X92753258Y-79616488D01*
X92753261Y-79616497D01*
X92849431Y-79822732D01*
X92849432Y-79822734D01*
X92979954Y-80009141D01*
X93140858Y-80170045D01*
X93140861Y-80170047D01*
X93327266Y-80300568D01*
X93385275Y-80327618D01*
X93437714Y-80373791D01*
X93456866Y-80440984D01*
X93436650Y-80507865D01*
X93385275Y-80552382D01*
X93327267Y-80579431D01*
X93327265Y-80579432D01*
X93140858Y-80709954D01*
X92979954Y-80870858D01*
X92849432Y-81057265D01*
X92849431Y-81057267D01*
X92753261Y-81263502D01*
X92753258Y-81263511D01*
X92694366Y-81483302D01*
X92694364Y-81483313D01*
X92674532Y-81709998D01*
X92674532Y-81710001D01*
X92694364Y-81936686D01*
X92694366Y-81936697D01*
X92753258Y-82156488D01*
X92753261Y-82156497D01*
X92849431Y-82362732D01*
X92849432Y-82362734D01*
X92979954Y-82549141D01*
X93140858Y-82710045D01*
X93140861Y-82710047D01*
X93327266Y-82840568D01*
X93385275Y-82867618D01*
X93437714Y-82913791D01*
X93456866Y-82980984D01*
X93436650Y-83047865D01*
X93385275Y-83092382D01*
X93327267Y-83119431D01*
X93327265Y-83119432D01*
X93140858Y-83249954D01*
X92979954Y-83410858D01*
X92849432Y-83597265D01*
X92849431Y-83597267D01*
X92753261Y-83803502D01*
X92753258Y-83803511D01*
X92694366Y-84023302D01*
X92694364Y-84023313D01*
X92674532Y-84249998D01*
X92674532Y-84250001D01*
X92694364Y-84476686D01*
X92694366Y-84476697D01*
X92753258Y-84696488D01*
X92753261Y-84696497D01*
X92849431Y-84902732D01*
X92849432Y-84902734D01*
X92979954Y-85089141D01*
X93140858Y-85250045D01*
X93140861Y-85250047D01*
X93327266Y-85380568D01*
X93385275Y-85407618D01*
X93437714Y-85453791D01*
X93456866Y-85520984D01*
X93436650Y-85587865D01*
X93385275Y-85632382D01*
X93327267Y-85659431D01*
X93327265Y-85659432D01*
X93140858Y-85789954D01*
X92979954Y-85950858D01*
X92849432Y-86137265D01*
X92849431Y-86137267D01*
X92753261Y-86343502D01*
X92753258Y-86343511D01*
X92694366Y-86563302D01*
X92694364Y-86563313D01*
X92674532Y-86789998D01*
X92674532Y-86790001D01*
X92694364Y-87016686D01*
X92694366Y-87016697D01*
X92753258Y-87236488D01*
X92753261Y-87236497D01*
X92849431Y-87442732D01*
X92849432Y-87442734D01*
X92979954Y-87629141D01*
X93140858Y-87790045D01*
X93140861Y-87790047D01*
X93327266Y-87920568D01*
X93385275Y-87947618D01*
X93437714Y-87993791D01*
X93456866Y-88060984D01*
X93436650Y-88127865D01*
X93385275Y-88172382D01*
X93327267Y-88199431D01*
X93327265Y-88199432D01*
X93140858Y-88329954D01*
X92979954Y-88490858D01*
X92849432Y-88677265D01*
X92849431Y-88677267D01*
X92753261Y-88883502D01*
X92753258Y-88883511D01*
X92694366Y-89103302D01*
X92694364Y-89103313D01*
X92674532Y-89329998D01*
X92674532Y-89330001D01*
X92694364Y-89556686D01*
X92694366Y-89556697D01*
X92753258Y-89776488D01*
X92753261Y-89776497D01*
X92849431Y-89982732D01*
X92849432Y-89982734D01*
X92979954Y-90169141D01*
X93140858Y-90330045D01*
X93165462Y-90347273D01*
X93209087Y-90401849D01*
X93216281Y-90471348D01*
X93184758Y-90533703D01*
X93124529Y-90569117D01*
X93107593Y-90572138D01*
X93072516Y-90575908D01*
X92937671Y-90626202D01*
X92937664Y-90626206D01*
X92822455Y-90712452D01*
X92822452Y-90712455D01*
X92736206Y-90827664D01*
X92736202Y-90827671D01*
X92685908Y-90962517D01*
X92679501Y-91022116D01*
X92679501Y-91022123D01*
X92679500Y-91022135D01*
X92679500Y-92717870D01*
X92679501Y-92717876D01*
X92685908Y-92777483D01*
X92736202Y-92912328D01*
X92736206Y-92912335D01*
X92822452Y-93027544D01*
X92822455Y-93027547D01*
X92937664Y-93113793D01*
X92937671Y-93113797D01*
X93072517Y-93164091D01*
X93072516Y-93164091D01*
X93079444Y-93164835D01*
X93132127Y-93170500D01*
X94827872Y-93170499D01*
X94887483Y-93164091D01*
X95022331Y-93113796D01*
X95137546Y-93027546D01*
X95223796Y-92912331D01*
X95274091Y-92777483D01*
X95280500Y-92717873D01*
X95280499Y-91022128D01*
X95274091Y-90962517D01*
X95269475Y-90950142D01*
X97800000Y-90950142D01*
X97800000Y-91980000D01*
X98550000Y-91980000D01*
X98550000Y-92480000D01*
X97800000Y-92480000D01*
X97800000Y-93509857D01*
X97840629Y-93766377D01*
X97920883Y-94013377D01*
X98038796Y-94244791D01*
X98191445Y-94454896D01*
X98191449Y-94454901D01*
X98375098Y-94638550D01*
X98375103Y-94638554D01*
X98585208Y-94791203D01*
X98816622Y-94909116D01*
X99063622Y-94989370D01*
X99200000Y-95010971D01*
X99200000Y-93297904D01*
X99361358Y-93330000D01*
X99538642Y-93330000D01*
X99700000Y-93297904D01*
X99700000Y-95010970D01*
X99836377Y-94989370D01*
X100083377Y-94909116D01*
X100314791Y-94791203D01*
X100524896Y-94638554D01*
X100524901Y-94638550D01*
X100708550Y-94454901D01*
X100708554Y-94454896D01*
X100861203Y-94244791D01*
X100979116Y-94013377D01*
X101059370Y-93766377D01*
X101100000Y-93509857D01*
X101100000Y-92480000D01*
X100350000Y-92480000D01*
X100350000Y-91980000D01*
X101100000Y-91980000D01*
X101100000Y-90950142D01*
X106600000Y-90950142D01*
X106600000Y-91980000D01*
X107350000Y-91980000D01*
X107350000Y-92480000D01*
X106600000Y-92480000D01*
X106600000Y-93509857D01*
X106640629Y-93766377D01*
X106720883Y-94013377D01*
X106838796Y-94244791D01*
X106991445Y-94454896D01*
X106991449Y-94454901D01*
X107175098Y-94638550D01*
X107175103Y-94638554D01*
X107385208Y-94791203D01*
X107616622Y-94909116D01*
X107863622Y-94989370D01*
X108000000Y-95010971D01*
X108000000Y-93297904D01*
X108161358Y-93330000D01*
X108338642Y-93330000D01*
X108500000Y-93297904D01*
X108500000Y-95010970D01*
X108636377Y-94989370D01*
X108883377Y-94909116D01*
X109114791Y-94791203D01*
X109324896Y-94638554D01*
X109324901Y-94638550D01*
X109508550Y-94454901D01*
X109508554Y-94454896D01*
X109661203Y-94244791D01*
X109779116Y-94013377D01*
X109859370Y-93766377D01*
X109900000Y-93509857D01*
X109900000Y-92480000D01*
X109150000Y-92480000D01*
X109150000Y-91980000D01*
X109900000Y-91980000D01*
X109900000Y-90950142D01*
X109859370Y-90693622D01*
X109779116Y-90446622D01*
X109661203Y-90215208D01*
X109508554Y-90005103D01*
X109508550Y-90005098D01*
X109324901Y-89821449D01*
X109324896Y-89821445D01*
X109114791Y-89668796D01*
X108883375Y-89550882D01*
X108636374Y-89470628D01*
X108500000Y-89449028D01*
X108500000Y-91162095D01*
X108338642Y-91130000D01*
X108161358Y-91130000D01*
X108000000Y-91162095D01*
X108000000Y-89449028D01*
X107999999Y-89449028D01*
X107863625Y-89470628D01*
X107616624Y-89550882D01*
X107385208Y-89668796D01*
X107175103Y-89821445D01*
X107175098Y-89821449D01*
X106991449Y-90005098D01*
X106991445Y-90005103D01*
X106838796Y-90215208D01*
X106720883Y-90446622D01*
X106640629Y-90693622D01*
X106600000Y-90950142D01*
X101100000Y-90950142D01*
X101059370Y-90693622D01*
X100979116Y-90446622D01*
X100861203Y-90215208D01*
X100708554Y-90005103D01*
X100708550Y-90005098D01*
X100524901Y-89821449D01*
X100524896Y-89821445D01*
X100314791Y-89668796D01*
X100083375Y-89550882D01*
X99836374Y-89470628D01*
X99700000Y-89449028D01*
X99700000Y-91162095D01*
X99538642Y-91130000D01*
X99361358Y-91130000D01*
X99200000Y-91162095D01*
X99200000Y-89449028D01*
X99199999Y-89449028D01*
X99063625Y-89470628D01*
X98816624Y-89550882D01*
X98585208Y-89668796D01*
X98375103Y-89821445D01*
X98375098Y-89821449D01*
X98191449Y-90005098D01*
X98191445Y-90005103D01*
X98038796Y-90215208D01*
X97920883Y-90446622D01*
X97840629Y-90693622D01*
X97800000Y-90950142D01*
X95269475Y-90950142D01*
X95223797Y-90827671D01*
X95223793Y-90827664D01*
X95137547Y-90712455D01*
X95137544Y-90712452D01*
X95022335Y-90626206D01*
X95022328Y-90626202D01*
X94887482Y-90575908D01*
X94887483Y-90575908D01*
X94852404Y-90572137D01*
X94787853Y-90545399D01*
X94748005Y-90488006D01*
X94745512Y-90418181D01*
X94781165Y-90358092D01*
X94794539Y-90347272D01*
X94819140Y-90330046D01*
X94980045Y-90169141D01*
X94980047Y-90169139D01*
X95110568Y-89982734D01*
X95206739Y-89776496D01*
X95265635Y-89556692D01*
X95285468Y-89330000D01*
X95265635Y-89103308D01*
X95214641Y-88912993D01*
X95206741Y-88883511D01*
X95206738Y-88883502D01*
X95196848Y-88862292D01*
X95110568Y-88677266D01*
X94980047Y-88490861D01*
X94980045Y-88490858D01*
X94819141Y-88329954D01*
X94632734Y-88199432D01*
X94632728Y-88199429D01*
X94574725Y-88172382D01*
X94522285Y-88126210D01*
X94503133Y-88059017D01*
X94523348Y-87992135D01*
X94574725Y-87947618D01*
X94632734Y-87920568D01*
X94819139Y-87790047D01*
X94980047Y-87629139D01*
X95110568Y-87442734D01*
X95206739Y-87236496D01*
X95265635Y-87016692D01*
X95285468Y-86790000D01*
X95265635Y-86563308D01*
X95215980Y-86377991D01*
X95206741Y-86343511D01*
X95206738Y-86343502D01*
X95152100Y-86226331D01*
X95110568Y-86137266D01*
X94980047Y-85950861D01*
X94980045Y-85950858D01*
X94819141Y-85789954D01*
X94632734Y-85659432D01*
X94632728Y-85659429D01*
X94574725Y-85632382D01*
X94522285Y-85586210D01*
X94503133Y-85519017D01*
X94523348Y-85452135D01*
X94574725Y-85407618D01*
X94632734Y-85380568D01*
X94819139Y-85250047D01*
X94839187Y-85229999D01*
X100091210Y-85229999D01*
X100091210Y-85230000D01*
X100110333Y-85448582D01*
X100110335Y-85448592D01*
X100167121Y-85660524D01*
X100167125Y-85660533D01*
X100259854Y-85859392D01*
X100304003Y-85922443D01*
X100867037Y-85359409D01*
X100884075Y-85422993D01*
X100949901Y-85537007D01*
X101042993Y-85630099D01*
X101157007Y-85695925D01*
X101220590Y-85712962D01*
X100657555Y-86275996D01*
X100720601Y-86320142D01*
X100720605Y-86320144D01*
X100919466Y-86412874D01*
X100919475Y-86412878D01*
X101131407Y-86469664D01*
X101131417Y-86469666D01*
X101349999Y-86488790D01*
X101350001Y-86488790D01*
X101568582Y-86469666D01*
X101568592Y-86469664D01*
X101780524Y-86412878D01*
X101780533Y-86412874D01*
X101979392Y-86320145D01*
X102042443Y-86275995D01*
X101479410Y-85712962D01*
X101542993Y-85695925D01*
X101657007Y-85630099D01*
X101750099Y-85537007D01*
X101815925Y-85422993D01*
X101832962Y-85359409D01*
X102395995Y-85922442D01*
X102440146Y-85859390D01*
X102487342Y-85758179D01*
X102533514Y-85705739D01*
X102600707Y-85686587D01*
X102667589Y-85706802D01*
X102712106Y-85758178D01*
X102759421Y-85859646D01*
X102759423Y-85859650D01*
X102885322Y-86039452D01*
X102885327Y-86039458D01*
X103040541Y-86194672D01*
X103040547Y-86194677D01*
X103220349Y-86320576D01*
X103220351Y-86320577D01*
X103220354Y-86320579D01*
X103419297Y-86413347D01*
X103631326Y-86470161D01*
X103787521Y-86483826D01*
X103849998Y-86489292D01*
X103850000Y-86489292D01*
X103850002Y-86489292D01*
X103904797Y-86484498D01*
X104068674Y-86470161D01*
X104280703Y-86413347D01*
X104479646Y-86320579D01*
X104659457Y-86194674D01*
X104814674Y-86039457D01*
X104869926Y-85960547D01*
X104924501Y-85916924D01*
X104993999Y-85909730D01*
X105056354Y-85941252D01*
X105091769Y-86001481D01*
X105095120Y-86028573D01*
X105095146Y-86028571D01*
X105095146Y-86028573D01*
X105095324Y-86028564D01*
X105095479Y-86031473D01*
X105095500Y-86031637D01*
X105095500Y-86031852D01*
X105095501Y-86031876D01*
X105101908Y-86091483D01*
X105152202Y-86226328D01*
X105152206Y-86226335D01*
X105238452Y-86341544D01*
X105238455Y-86341547D01*
X105353664Y-86427793D01*
X105353671Y-86427797D01*
X105488517Y-86478091D01*
X105488516Y-86478091D01*
X105495444Y-86478835D01*
X105548127Y-86484500D01*
X107151872Y-86484499D01*
X107211483Y-86478091D01*
X107346331Y-86427796D01*
X107461546Y-86341546D01*
X107547796Y-86226331D01*
X107598091Y-86091483D01*
X107604500Y-86031873D01*
X107604499Y-84428128D01*
X107598091Y-84368517D01*
X107582174Y-84325842D01*
X107547797Y-84233671D01*
X107547793Y-84233664D01*
X107461547Y-84118455D01*
X107461544Y-84118452D01*
X107346335Y-84032206D01*
X107346328Y-84032202D01*
X107211482Y-83981908D01*
X107211483Y-83981908D01*
X107151883Y-83975501D01*
X107151881Y-83975500D01*
X107151873Y-83975500D01*
X107151864Y-83975500D01*
X105548129Y-83975500D01*
X105548123Y-83975501D01*
X105488516Y-83981908D01*
X105353671Y-84032202D01*
X105353664Y-84032206D01*
X105238455Y-84118452D01*
X105238452Y-84118455D01*
X105152206Y-84233664D01*
X105152202Y-84233671D01*
X105101908Y-84368517D01*
X105096315Y-84420543D01*
X105095501Y-84428123D01*
X105095500Y-84428135D01*
X105095500Y-84428326D01*
X105095487Y-84428368D01*
X105095322Y-84431452D01*
X105094593Y-84431412D01*
X105075815Y-84495365D01*
X105023011Y-84541120D01*
X104953853Y-84551064D01*
X104890297Y-84522039D01*
X104869925Y-84499449D01*
X104844353Y-84462929D01*
X104814674Y-84420543D01*
X104659457Y-84265326D01*
X104659455Y-84265325D01*
X104659452Y-84265322D01*
X104479650Y-84139423D01*
X104479642Y-84139419D01*
X104280708Y-84046655D01*
X104280706Y-84046654D01*
X104280703Y-84046653D01*
X104129885Y-84006240D01*
X104068675Y-83989839D01*
X104068668Y-83989838D01*
X103850002Y-83970708D01*
X103849998Y-83970708D01*
X103631331Y-83989838D01*
X103631324Y-83989839D01*
X103508902Y-84022642D01*
X103419297Y-84046653D01*
X103419295Y-84046653D01*
X103419291Y-84046655D01*
X103220357Y-84139419D01*
X103220349Y-84139423D01*
X103040547Y-84265322D01*
X103040541Y-84265327D01*
X102885327Y-84420541D01*
X102885322Y-84420547D01*
X102759423Y-84600349D01*
X102759421Y-84600353D01*
X102712106Y-84701821D01*
X102665933Y-84754260D01*
X102598740Y-84773412D01*
X102531859Y-84753196D01*
X102487342Y-84701821D01*
X102440144Y-84600605D01*
X102440142Y-84600601D01*
X102395996Y-84537555D01*
X101832962Y-85100589D01*
X101815925Y-85037007D01*
X101750099Y-84922993D01*
X101657007Y-84829901D01*
X101542993Y-84764075D01*
X101479409Y-84747037D01*
X102042443Y-84184003D01*
X101979392Y-84139854D01*
X101780533Y-84047125D01*
X101780524Y-84047121D01*
X101568592Y-83990335D01*
X101568582Y-83990333D01*
X101350001Y-83971210D01*
X101349999Y-83971210D01*
X101131417Y-83990333D01*
X101131407Y-83990335D01*
X100919475Y-84047121D01*
X100919466Y-84047124D01*
X100720606Y-84139855D01*
X100720604Y-84139856D01*
X100657556Y-84184003D01*
X100657555Y-84184003D01*
X101220590Y-84747037D01*
X101157007Y-84764075D01*
X101042993Y-84829901D01*
X100949901Y-84922993D01*
X100884075Y-85037007D01*
X100867037Y-85100589D01*
X100304003Y-84537555D01*
X100304003Y-84537556D01*
X100259856Y-84600604D01*
X100259855Y-84600606D01*
X100167124Y-84799466D01*
X100167121Y-84799475D01*
X100110335Y-85011407D01*
X100110333Y-85011417D01*
X100091210Y-85229999D01*
X94839187Y-85229999D01*
X94980047Y-85089139D01*
X95110568Y-84902734D01*
X95206739Y-84696496D01*
X95265635Y-84476692D01*
X95284127Y-84265326D01*
X95285468Y-84250001D01*
X95285468Y-84249998D01*
X95275832Y-84139856D01*
X95265635Y-84023308D01*
X95215980Y-83837991D01*
X95206741Y-83803511D01*
X95206738Y-83803502D01*
X95130495Y-83640000D01*
X95110568Y-83597266D01*
X94980047Y-83410861D01*
X94980045Y-83410858D01*
X94819141Y-83249954D01*
X94632734Y-83119432D01*
X94632728Y-83119429D01*
X94574725Y-83092382D01*
X94522285Y-83046210D01*
X94503133Y-82979017D01*
X94523348Y-82912135D01*
X94574725Y-82867618D01*
X94632734Y-82840568D01*
X94819139Y-82710047D01*
X94980047Y-82549139D01*
X95110568Y-82362734D01*
X95206739Y-82156496D01*
X95265635Y-81936692D01*
X95285468Y-81710000D01*
X95265635Y-81483308D01*
X95215980Y-81297991D01*
X95206741Y-81263511D01*
X95206738Y-81263502D01*
X95130495Y-81100000D01*
X95110568Y-81057266D01*
X94980047Y-80870861D01*
X94980045Y-80870858D01*
X94819141Y-80709954D01*
X94632734Y-80579432D01*
X94632728Y-80579429D01*
X94574725Y-80552382D01*
X94522285Y-80506210D01*
X94503133Y-80439017D01*
X94523348Y-80372135D01*
X94574725Y-80327618D01*
X94632734Y-80300568D01*
X94819139Y-80170047D01*
X94980047Y-80009139D01*
X95110568Y-79822734D01*
X95206739Y-79616496D01*
X95208480Y-79609999D01*
X100054357Y-79609999D01*
X100054357Y-79610000D01*
X100074884Y-79831535D01*
X100074885Y-79831537D01*
X100135769Y-80045523D01*
X100135775Y-80045538D01*
X100234938Y-80244683D01*
X100234943Y-80244691D01*
X100369020Y-80422238D01*
X100533437Y-80572123D01*
X100533439Y-80572125D01*
X100722595Y-80689245D01*
X100722596Y-80689245D01*
X100722599Y-80689247D01*
X100930060Y-80769618D01*
X101148757Y-80810500D01*
X101148759Y-80810500D01*
X101371241Y-80810500D01*
X101371243Y-80810500D01*
X101589940Y-80769618D01*
X101797401Y-80689247D01*
X101986562Y-80572124D01*
X102132573Y-80439017D01*
X102150979Y-80422238D01*
X102151032Y-80422169D01*
X102285058Y-80244689D01*
X102384229Y-80045528D01*
X102445115Y-79831536D01*
X102465643Y-79610000D01*
X102465643Y-79609999D01*
X107674357Y-79609999D01*
X107674357Y-79610000D01*
X107694884Y-79831535D01*
X107694885Y-79831537D01*
X107755769Y-80045523D01*
X107755775Y-80045538D01*
X107854938Y-80244683D01*
X107854943Y-80244691D01*
X107989020Y-80422238D01*
X108153437Y-80572123D01*
X108153439Y-80572125D01*
X108342595Y-80689245D01*
X108342596Y-80689245D01*
X108342599Y-80689247D01*
X108550060Y-80769618D01*
X108768757Y-80810500D01*
X108768759Y-80810500D01*
X108991241Y-80810500D01*
X108991243Y-80810500D01*
X109209940Y-80769618D01*
X109417401Y-80689247D01*
X109606562Y-80572124D01*
X109752573Y-80439017D01*
X109770979Y-80422238D01*
X109771032Y-80422169D01*
X109905058Y-80244689D01*
X110004229Y-80045528D01*
X110065115Y-79831536D01*
X110085643Y-79610000D01*
X110065115Y-79388464D01*
X110004229Y-79174472D01*
X110002003Y-79170001D01*
X109905061Y-78975316D01*
X109905056Y-78975308D01*
X109770979Y-78797761D01*
X109606562Y-78647876D01*
X109606560Y-78647874D01*
X109417404Y-78530754D01*
X109417398Y-78530752D01*
X109209940Y-78450382D01*
X108991243Y-78409500D01*
X108768757Y-78409500D01*
X108550060Y-78450382D01*
X108418864Y-78501207D01*
X108342601Y-78530752D01*
X108342595Y-78530754D01*
X108153439Y-78647874D01*
X108153437Y-78647876D01*
X107989020Y-78797761D01*
X107854943Y-78975308D01*
X107854938Y-78975316D01*
X107755775Y-79174461D01*
X107755769Y-79174476D01*
X107694885Y-79388462D01*
X107694884Y-79388464D01*
X107674357Y-79609999D01*
X102465643Y-79609999D01*
X102445115Y-79388464D01*
X102384229Y-79174472D01*
X102382003Y-79170001D01*
X102285061Y-78975316D01*
X102285056Y-78975308D01*
X102150979Y-78797761D01*
X101986562Y-78647876D01*
X101986560Y-78647874D01*
X101797404Y-78530754D01*
X101797398Y-78530752D01*
X101589940Y-78450382D01*
X101371243Y-78409500D01*
X101148757Y-78409500D01*
X100930060Y-78450382D01*
X100798864Y-78501207D01*
X100722601Y-78530752D01*
X100722595Y-78530754D01*
X100533439Y-78647874D01*
X100533437Y-78647876D01*
X100369020Y-78797761D01*
X100234943Y-78975308D01*
X100234938Y-78975316D01*
X100135775Y-79174461D01*
X100135769Y-79174476D01*
X100074885Y-79388462D01*
X100074884Y-79388464D01*
X100054357Y-79609999D01*
X95208480Y-79609999D01*
X95265635Y-79396692D01*
X95285468Y-79170000D01*
X95265635Y-78943308D01*
X95206739Y-78723504D01*
X95110568Y-78517266D01*
X94980047Y-78330861D01*
X94980045Y-78330858D01*
X94819141Y-78169954D01*
X94632734Y-78039432D01*
X94632728Y-78039429D01*
X94574725Y-78012382D01*
X94522285Y-77966210D01*
X94503133Y-77899017D01*
X94523348Y-77832135D01*
X94574725Y-77787618D01*
X94632734Y-77760568D01*
X94819139Y-77630047D01*
X94980047Y-77469139D01*
X95110568Y-77282734D01*
X95206739Y-77076496D01*
X95265635Y-76856692D01*
X95285468Y-76630000D01*
X95265635Y-76403308D01*
X95206739Y-76183504D01*
X95110568Y-75977266D01*
X94980047Y-75790861D01*
X94980045Y-75790858D01*
X94819141Y-75629954D01*
X94632734Y-75499432D01*
X94632732Y-75499431D01*
X94426497Y-75403261D01*
X94426488Y-75403258D01*
X94206697Y-75344366D01*
X94206693Y-75344365D01*
X94206692Y-75344365D01*
X94206691Y-75344364D01*
X94206686Y-75344364D01*
X93980002Y-75324532D01*
X93979998Y-75324532D01*
X93753313Y-75344364D01*
X93753302Y-75344366D01*
X93533511Y-75403258D01*
X93533502Y-75403261D01*
X93327267Y-75499431D01*
X93327265Y-75499432D01*
X93140858Y-75629954D01*
X92979954Y-75790858D01*
X92849432Y-75977265D01*
X92849431Y-75977267D01*
X92753261Y-76183502D01*
X92753258Y-76183511D01*
X92694366Y-76403302D01*
X92694364Y-76403313D01*
X92674532Y-76629998D01*
X87665468Y-76629998D01*
X87645635Y-76403308D01*
X87586739Y-76183504D01*
X87490568Y-75977266D01*
X87360047Y-75790861D01*
X87360045Y-75790858D01*
X87199141Y-75629954D01*
X87012734Y-75499432D01*
X87012732Y-75499431D01*
X86806497Y-75403261D01*
X86806488Y-75403258D01*
X86586697Y-75344366D01*
X86586693Y-75344365D01*
X86586692Y-75344365D01*
X86586691Y-75344364D01*
X86586686Y-75344364D01*
X86360002Y-75324532D01*
X86359998Y-75324532D01*
X86133313Y-75344364D01*
X86133302Y-75344366D01*
X85913511Y-75403258D01*
X85913502Y-75403261D01*
X85707267Y-75499431D01*
X85707265Y-75499432D01*
X85520858Y-75629954D01*
X85359954Y-75790858D01*
X85229432Y-75977265D01*
X85229431Y-75977267D01*
X85133261Y-76183502D01*
X85133258Y-76183511D01*
X85074366Y-76403302D01*
X85074364Y-76403313D01*
X85054532Y-76629998D01*
X73500500Y-76629998D01*
X73500500Y-71779998D01*
X73955019Y-71779998D01*
X73955019Y-71780001D01*
X73974918Y-72058223D01*
X73974919Y-72058230D01*
X74034207Y-72330774D01*
X74131689Y-72592134D01*
X74265361Y-72836938D01*
X74365602Y-72970843D01*
X74866320Y-72470125D01*
X74956554Y-72594320D01*
X75095680Y-72733446D01*
X75219873Y-72823678D01*
X74719155Y-73324396D01*
X74853061Y-73424637D01*
X74853061Y-73424638D01*
X75097865Y-73558310D01*
X75359225Y-73655792D01*
X75631769Y-73715080D01*
X75631776Y-73715081D01*
X75909999Y-73734981D01*
X75910001Y-73734981D01*
X76188223Y-73715081D01*
X76188230Y-73715080D01*
X76460774Y-73655792D01*
X76722134Y-73558310D01*
X76966942Y-73424635D01*
X77100842Y-73324396D01*
X77100843Y-73324396D01*
X76600126Y-72823678D01*
X76724320Y-72733446D01*
X76863446Y-72594320D01*
X76953679Y-72470126D01*
X77454396Y-72970843D01*
X77454396Y-72970842D01*
X77554635Y-72836942D01*
X77688310Y-72592134D01*
X77785792Y-72330774D01*
X77801188Y-72259998D01*
X103564838Y-72259998D01*
X103564838Y-72260001D01*
X103583450Y-72472741D01*
X103583452Y-72472752D01*
X103638721Y-72679022D01*
X103638723Y-72679026D01*
X103638724Y-72679030D01*
X103664099Y-72733446D01*
X103728977Y-72872578D01*
X103851472Y-73047521D01*
X104002478Y-73198527D01*
X104002481Y-73198529D01*
X104177419Y-73321021D01*
X104177421Y-73321022D01*
X104177420Y-73321022D01*
X104241936Y-73351106D01*
X104370970Y-73411276D01*
X104577253Y-73466549D01*
X104729215Y-73479844D01*
X104789998Y-73485162D01*
X104790000Y-73485162D01*
X104790002Y-73485162D01*
X104843186Y-73480508D01*
X105002747Y-73466549D01*
X105209030Y-73411276D01*
X105402581Y-73321021D01*
X105577519Y-73198529D01*
X105728529Y-73047519D01*
X105851021Y-72872581D01*
X105941276Y-72679030D01*
X105996549Y-72472747D01*
X106015162Y-72260000D01*
X106015147Y-72259833D01*
X105997509Y-72058230D01*
X105996549Y-72047253D01*
X105941276Y-71840970D01*
X105851021Y-71647419D01*
X105728529Y-71472481D01*
X105728527Y-71472478D01*
X105577521Y-71321472D01*
X105402578Y-71198977D01*
X105402579Y-71198977D01*
X105243627Y-71124857D01*
X105209030Y-71108724D01*
X105209026Y-71108723D01*
X105209022Y-71108721D01*
X105002752Y-71053452D01*
X105002748Y-71053451D01*
X105002747Y-71053451D01*
X105002746Y-71053450D01*
X105002741Y-71053450D01*
X104790002Y-71034838D01*
X104789998Y-71034838D01*
X104577258Y-71053450D01*
X104577247Y-71053452D01*
X104370977Y-71108721D01*
X104370968Y-71108725D01*
X104177421Y-71198977D01*
X104002478Y-71321472D01*
X103851472Y-71472478D01*
X103728977Y-71647421D01*
X103638725Y-71840968D01*
X103638721Y-71840977D01*
X103583452Y-72047247D01*
X103583450Y-72047258D01*
X103564838Y-72259998D01*
X77801188Y-72259998D01*
X77845080Y-72058230D01*
X77845081Y-72058223D01*
X77864981Y-71780001D01*
X77864981Y-71779998D01*
X77845081Y-71501776D01*
X77845080Y-71501769D01*
X77785792Y-71229225D01*
X77688310Y-70967865D01*
X77554638Y-70723061D01*
X77454396Y-70589155D01*
X76953678Y-71089873D01*
X76863446Y-70965680D01*
X76724320Y-70826554D01*
X76600125Y-70736320D01*
X77100843Y-70235602D01*
X76966938Y-70135362D01*
X76966938Y-70135361D01*
X76722134Y-70001689D01*
X76460774Y-69904207D01*
X76188230Y-69844919D01*
X76188223Y-69844918D01*
X75910001Y-69825019D01*
X75909999Y-69825019D01*
X75631776Y-69844918D01*
X75631769Y-69844919D01*
X75359225Y-69904207D01*
X75097865Y-70001689D01*
X74853061Y-70135361D01*
X74853054Y-70135366D01*
X74719156Y-70235601D01*
X74719155Y-70235602D01*
X75219874Y-70736320D01*
X75095680Y-70826554D01*
X74956554Y-70965680D01*
X74866320Y-71089873D01*
X74365602Y-70589155D01*
X74365601Y-70589156D01*
X74265366Y-70723054D01*
X74265361Y-70723061D01*
X74131689Y-70967865D01*
X74034207Y-71229225D01*
X73974919Y-71501769D01*
X73974918Y-71501776D01*
X73955019Y-71779998D01*
X73500500Y-71779998D01*
X73500500Y-69719998D01*
X101024838Y-69719998D01*
X101024838Y-69720001D01*
X101043450Y-69932741D01*
X101043452Y-69932752D01*
X101098721Y-70139022D01*
X101098723Y-70139026D01*
X101098724Y-70139030D01*
X101141171Y-70230058D01*
X101188977Y-70332578D01*
X101311472Y-70507521D01*
X101462478Y-70658527D01*
X101462481Y-70658529D01*
X101637419Y-70781021D01*
X101637421Y-70781022D01*
X101637420Y-70781022D01*
X101701936Y-70811106D01*
X101830970Y-70871276D01*
X102037253Y-70926549D01*
X102189215Y-70939844D01*
X102249998Y-70945162D01*
X102250000Y-70945162D01*
X102250002Y-70945162D01*
X102303186Y-70940508D01*
X102462747Y-70926549D01*
X102669030Y-70871276D01*
X102862581Y-70781021D01*
X103037519Y-70658529D01*
X103188529Y-70507519D01*
X103311021Y-70332581D01*
X103401276Y-70139030D01*
X103456549Y-69932747D01*
X103475162Y-69720000D01*
X103475162Y-69719997D01*
X106105340Y-69719997D01*
X106105340Y-69720002D01*
X106123944Y-69932654D01*
X106123945Y-69932662D01*
X106179194Y-70138853D01*
X106179197Y-70138859D01*
X106269413Y-70332329D01*
X106308415Y-70388030D01*
X106930000Y-69766445D01*
X106930000Y-69772661D01*
X106957259Y-69874394D01*
X107009920Y-69965606D01*
X107084394Y-70040080D01*
X107175606Y-70092741D01*
X107277339Y-70120000D01*
X107283553Y-70120000D01*
X106661968Y-70741584D01*
X106717663Y-70780582D01*
X106717669Y-70780586D01*
X106911140Y-70870802D01*
X106911146Y-70870805D01*
X107117337Y-70926054D01*
X107117345Y-70926055D01*
X107329998Y-70944660D01*
X107330002Y-70944660D01*
X107542654Y-70926055D01*
X107542662Y-70926054D01*
X107748853Y-70870805D01*
X107748864Y-70870801D01*
X107942325Y-70780589D01*
X107998030Y-70741583D01*
X107376448Y-70120000D01*
X107382661Y-70120000D01*
X107484394Y-70092741D01*
X107575606Y-70040080D01*
X107650080Y-69965606D01*
X107702741Y-69874394D01*
X107730000Y-69772661D01*
X107730000Y-69766446D01*
X108351583Y-70388029D01*
X108390589Y-70332325D01*
X108480801Y-70138864D01*
X108480805Y-70138853D01*
X108536054Y-69932662D01*
X108536055Y-69932654D01*
X108554660Y-69720002D01*
X108554660Y-69719997D01*
X108536055Y-69507345D01*
X108536054Y-69507337D01*
X108480805Y-69301146D01*
X108480802Y-69301140D01*
X108390586Y-69107669D01*
X108390582Y-69107663D01*
X108351584Y-69051968D01*
X107730000Y-69673552D01*
X107730000Y-69667339D01*
X107702741Y-69565606D01*
X107650080Y-69474394D01*
X107575606Y-69399920D01*
X107484394Y-69347259D01*
X107382661Y-69320000D01*
X107376447Y-69320000D01*
X107998030Y-68698415D01*
X107942329Y-68659413D01*
X107748859Y-68569197D01*
X107748853Y-68569194D01*
X107542662Y-68513945D01*
X107542654Y-68513944D01*
X107330002Y-68495340D01*
X107329998Y-68495340D01*
X107117345Y-68513944D01*
X107117337Y-68513945D01*
X106911146Y-68569194D01*
X106911140Y-68569197D01*
X106717671Y-68659412D01*
X106717669Y-68659413D01*
X106661969Y-68698415D01*
X106661968Y-68698415D01*
X107283554Y-69320000D01*
X107277339Y-69320000D01*
X107175606Y-69347259D01*
X107084394Y-69399920D01*
X107009920Y-69474394D01*
X106957259Y-69565606D01*
X106930000Y-69667339D01*
X106930000Y-69673553D01*
X106308415Y-69051968D01*
X106308415Y-69051969D01*
X106269413Y-69107669D01*
X106269412Y-69107671D01*
X106179197Y-69301140D01*
X106179194Y-69301146D01*
X106123945Y-69507337D01*
X106123944Y-69507345D01*
X106105340Y-69719997D01*
X103475162Y-69719997D01*
X103456549Y-69507253D01*
X103401276Y-69300970D01*
X103311021Y-69107419D01*
X103188529Y-68932481D01*
X103188527Y-68932478D01*
X103037521Y-68781472D01*
X102862578Y-68658977D01*
X102862579Y-68658977D01*
X102733547Y-68598809D01*
X102669030Y-68568724D01*
X102669026Y-68568723D01*
X102669022Y-68568721D01*
X102462752Y-68513452D01*
X102462748Y-68513451D01*
X102462747Y-68513451D01*
X102462746Y-68513450D01*
X102462741Y-68513450D01*
X102250002Y-68494838D01*
X102249998Y-68494838D01*
X102037258Y-68513450D01*
X102037247Y-68513452D01*
X101830977Y-68568721D01*
X101830968Y-68568725D01*
X101637421Y-68658977D01*
X101462478Y-68781472D01*
X101311472Y-68932478D01*
X101188977Y-69107421D01*
X101098725Y-69300968D01*
X101098721Y-69300977D01*
X101043452Y-69507247D01*
X101043450Y-69507258D01*
X101024838Y-69719998D01*
X73500500Y-69719998D01*
X73500500Y-62908635D01*
X87695500Y-62908635D01*
X87695500Y-64512370D01*
X87695501Y-64512376D01*
X87701908Y-64571983D01*
X87752202Y-64706828D01*
X87752206Y-64706835D01*
X87838452Y-64822044D01*
X87838455Y-64822047D01*
X87953664Y-64908293D01*
X87953671Y-64908297D01*
X88088517Y-64958591D01*
X88088516Y-64958591D01*
X88095444Y-64959335D01*
X88148127Y-64965000D01*
X89751872Y-64964999D01*
X89811483Y-64958591D01*
X89946331Y-64908296D01*
X90061546Y-64822046D01*
X90147796Y-64706831D01*
X90198091Y-64571983D01*
X90204500Y-64512373D01*
X90204499Y-64512204D01*
X90204510Y-64512169D01*
X90204678Y-64509047D01*
X90205414Y-64509086D01*
X90224165Y-64445163D01*
X90276956Y-64399393D01*
X90346111Y-64389430D01*
X90409675Y-64418437D01*
X90430074Y-64441049D01*
X90485326Y-64519957D01*
X90485327Y-64519958D01*
X90640541Y-64675172D01*
X90640547Y-64675177D01*
X90820349Y-64801076D01*
X90820351Y-64801077D01*
X90820354Y-64801079D01*
X91019297Y-64893847D01*
X91231326Y-64950661D01*
X91387521Y-64964326D01*
X91449998Y-64969792D01*
X91450000Y-64969792D01*
X91450002Y-64969792D01*
X91504797Y-64964998D01*
X91668674Y-64950661D01*
X91880703Y-64893847D01*
X92079646Y-64801079D01*
X92259457Y-64675174D01*
X92414674Y-64519957D01*
X92540579Y-64340146D01*
X92587895Y-64238675D01*
X92634064Y-64186240D01*
X92701258Y-64167087D01*
X92768139Y-64187302D01*
X92812657Y-64238678D01*
X92859854Y-64339892D01*
X92904003Y-64402943D01*
X93467037Y-63839909D01*
X93484075Y-63903493D01*
X93549901Y-64017507D01*
X93642993Y-64110599D01*
X93757007Y-64176425D01*
X93820590Y-64193462D01*
X93257555Y-64756496D01*
X93320601Y-64800642D01*
X93320605Y-64800644D01*
X93519466Y-64893374D01*
X93519475Y-64893378D01*
X93731407Y-64950164D01*
X93731417Y-64950166D01*
X93949999Y-64969290D01*
X93950001Y-64969290D01*
X94168582Y-64950166D01*
X94168592Y-64950164D01*
X94380524Y-64893378D01*
X94380533Y-64893374D01*
X94579392Y-64800645D01*
X94642443Y-64756495D01*
X94079410Y-64193462D01*
X94142993Y-64176425D01*
X94257007Y-64110599D01*
X94350099Y-64017507D01*
X94415925Y-63903493D01*
X94432962Y-63839909D01*
X94995995Y-64402942D01*
X95040145Y-64339892D01*
X95132874Y-64141033D01*
X95132878Y-64141024D01*
X95189664Y-63929092D01*
X95189666Y-63929082D01*
X95208790Y-63710500D01*
X95208790Y-63710499D01*
X95189666Y-63491917D01*
X95189664Y-63491907D01*
X95132878Y-63279975D01*
X95132874Y-63279966D01*
X95040144Y-63081105D01*
X95040142Y-63081101D01*
X94995996Y-63018055D01*
X94432962Y-63581089D01*
X94415925Y-63517507D01*
X94350099Y-63403493D01*
X94257007Y-63310401D01*
X94142993Y-63244575D01*
X94079409Y-63227537D01*
X94642443Y-62664503D01*
X94579392Y-62620354D01*
X94380533Y-62527625D01*
X94380524Y-62527621D01*
X94168592Y-62470835D01*
X94168582Y-62470833D01*
X93950001Y-62451710D01*
X93949999Y-62451710D01*
X93731417Y-62470833D01*
X93731407Y-62470835D01*
X93519475Y-62527621D01*
X93519466Y-62527624D01*
X93320606Y-62620355D01*
X93320604Y-62620356D01*
X93257556Y-62664503D01*
X93257555Y-62664503D01*
X93820590Y-63227537D01*
X93757007Y-63244575D01*
X93642993Y-63310401D01*
X93549901Y-63403493D01*
X93484075Y-63517507D01*
X93467037Y-63581089D01*
X92904003Y-63018055D01*
X92904003Y-63018056D01*
X92859857Y-63081103D01*
X92812657Y-63182322D01*
X92766484Y-63234761D01*
X92699290Y-63253912D01*
X92632409Y-63233696D01*
X92587893Y-63182320D01*
X92540580Y-63080857D01*
X92540579Y-63080854D01*
X92540577Y-63080851D01*
X92540576Y-63080849D01*
X92414677Y-62901047D01*
X92414672Y-62901041D01*
X92259458Y-62745827D01*
X92259452Y-62745822D01*
X92079650Y-62619923D01*
X92079642Y-62619919D01*
X91880708Y-62527155D01*
X91880706Y-62527154D01*
X91880703Y-62527153D01*
X91729885Y-62486740D01*
X91668675Y-62470339D01*
X91668668Y-62470338D01*
X91450002Y-62451208D01*
X91449998Y-62451208D01*
X91231331Y-62470338D01*
X91231324Y-62470339D01*
X91108902Y-62503142D01*
X91019297Y-62527153D01*
X91019295Y-62527153D01*
X91019291Y-62527155D01*
X90820357Y-62619919D01*
X90820349Y-62619923D01*
X90640547Y-62745822D01*
X90640541Y-62745827D01*
X90485327Y-62901041D01*
X90485326Y-62901043D01*
X90430074Y-62979951D01*
X90375497Y-63023576D01*
X90305998Y-63030768D01*
X90243644Y-62999246D01*
X90208230Y-62939016D01*
X90204881Y-62911925D01*
X90204854Y-62911929D01*
X90204853Y-62911926D01*
X90204676Y-62911936D01*
X90204517Y-62908978D01*
X90204499Y-62908827D01*
X90204499Y-62908629D01*
X90204498Y-62908623D01*
X90204497Y-62908616D01*
X90198091Y-62849017D01*
X90159603Y-62745826D01*
X90147797Y-62714171D01*
X90147793Y-62714164D01*
X90061547Y-62598955D01*
X90061544Y-62598952D01*
X89946335Y-62512706D01*
X89946328Y-62512702D01*
X89811482Y-62462408D01*
X89811483Y-62462408D01*
X89751883Y-62456001D01*
X89751881Y-62456000D01*
X89751873Y-62456000D01*
X89751864Y-62456000D01*
X88148129Y-62456000D01*
X88148123Y-62456001D01*
X88088516Y-62462408D01*
X87953671Y-62512702D01*
X87953664Y-62512706D01*
X87838455Y-62598952D01*
X87838452Y-62598955D01*
X87752206Y-62714164D01*
X87752202Y-62714171D01*
X87701908Y-62849017D01*
X87696315Y-62901043D01*
X87695501Y-62908623D01*
X87695500Y-62908635D01*
X73500500Y-62908635D01*
X73500500Y-55430642D01*
X85400000Y-55430642D01*
X85400000Y-56460500D01*
X86150000Y-56460500D01*
X86150000Y-56960500D01*
X85400000Y-56960500D01*
X85400000Y-57990357D01*
X85440629Y-58246877D01*
X85520883Y-58493877D01*
X85638796Y-58725291D01*
X85791445Y-58935396D01*
X85791449Y-58935401D01*
X85975098Y-59119050D01*
X85975103Y-59119054D01*
X86185208Y-59271703D01*
X86416622Y-59389616D01*
X86663622Y-59469870D01*
X86800000Y-59491471D01*
X86800000Y-57778404D01*
X86961358Y-57810500D01*
X87138642Y-57810500D01*
X87300000Y-57778404D01*
X87300000Y-59491470D01*
X87436377Y-59469870D01*
X87683377Y-59389616D01*
X87914791Y-59271703D01*
X88124896Y-59119054D01*
X88124901Y-59119050D01*
X88308550Y-58935401D01*
X88308554Y-58935396D01*
X88461203Y-58725291D01*
X88579116Y-58493877D01*
X88659370Y-58246877D01*
X88700000Y-57990357D01*
X88700000Y-56960500D01*
X87950000Y-56960500D01*
X87950000Y-56460500D01*
X88700000Y-56460500D01*
X88700000Y-55430642D01*
X94200000Y-55430642D01*
X94200000Y-56460500D01*
X94950000Y-56460500D01*
X94950000Y-56960500D01*
X94200000Y-56960500D01*
X94200000Y-57990357D01*
X94240629Y-58246877D01*
X94320883Y-58493877D01*
X94438796Y-58725291D01*
X94591445Y-58935396D01*
X94591449Y-58935401D01*
X94775098Y-59119050D01*
X94775103Y-59119054D01*
X94985208Y-59271703D01*
X95216622Y-59389616D01*
X95463622Y-59469870D01*
X95600000Y-59491471D01*
X95600000Y-57778404D01*
X95761358Y-57810500D01*
X95938642Y-57810500D01*
X96100000Y-57778404D01*
X96100000Y-59491470D01*
X96236377Y-59469870D01*
X96483377Y-59389616D01*
X96714791Y-59271703D01*
X96924896Y-59119054D01*
X96924901Y-59119050D01*
X97108550Y-58935401D01*
X97108554Y-58935396D01*
X97261203Y-58725291D01*
X97379116Y-58493877D01*
X97459370Y-58246877D01*
X97500000Y-57990357D01*
X97500000Y-56960500D01*
X96750000Y-56960500D01*
X96750000Y-56460500D01*
X97500000Y-56460500D01*
X97500000Y-55430642D01*
X97459370Y-55174122D01*
X97379116Y-54927122D01*
X97261203Y-54695708D01*
X97108554Y-54485603D01*
X97108550Y-54485598D01*
X96924901Y-54301949D01*
X96924896Y-54301945D01*
X96714791Y-54149296D01*
X96483375Y-54031382D01*
X96236374Y-53951128D01*
X96100000Y-53929528D01*
X96100000Y-55642595D01*
X95938642Y-55610500D01*
X95761358Y-55610500D01*
X95600000Y-55642595D01*
X95600000Y-53929528D01*
X95599999Y-53929528D01*
X95463625Y-53951128D01*
X95216624Y-54031382D01*
X94985208Y-54149296D01*
X94775103Y-54301945D01*
X94775098Y-54301949D01*
X94591449Y-54485598D01*
X94591445Y-54485603D01*
X94438796Y-54695708D01*
X94320883Y-54927122D01*
X94240629Y-55174122D01*
X94200000Y-55430642D01*
X88700000Y-55430642D01*
X88659370Y-55174122D01*
X88579116Y-54927122D01*
X88461203Y-54695708D01*
X88308554Y-54485603D01*
X88308550Y-54485598D01*
X88124901Y-54301949D01*
X88124896Y-54301945D01*
X87914791Y-54149296D01*
X87683375Y-54031382D01*
X87436374Y-53951128D01*
X87300000Y-53929528D01*
X87300000Y-55642595D01*
X87138642Y-55610500D01*
X86961358Y-55610500D01*
X86800000Y-55642595D01*
X86800000Y-53929528D01*
X86799999Y-53929528D01*
X86663625Y-53951128D01*
X86416624Y-54031382D01*
X86185208Y-54149296D01*
X85975103Y-54301945D01*
X85975098Y-54301949D01*
X85791449Y-54485598D01*
X85791445Y-54485603D01*
X85638796Y-54695708D01*
X85520883Y-54927122D01*
X85440629Y-55174122D01*
X85400000Y-55430642D01*
X73500500Y-55430642D01*
X73500500Y-53499998D01*
X106005019Y-53499998D01*
X106005019Y-53500001D01*
X106024918Y-53778223D01*
X106024919Y-53778230D01*
X106084207Y-54050774D01*
X106181689Y-54312134D01*
X106315361Y-54556938D01*
X106415602Y-54690843D01*
X106916320Y-54190125D01*
X107006554Y-54314320D01*
X107145680Y-54453446D01*
X107269873Y-54543678D01*
X106769155Y-55044396D01*
X106903061Y-55144637D01*
X106903061Y-55144638D01*
X107147865Y-55278310D01*
X107409225Y-55375792D01*
X107681769Y-55435080D01*
X107681776Y-55435081D01*
X107959999Y-55454981D01*
X107960001Y-55454981D01*
X108238223Y-55435081D01*
X108238230Y-55435080D01*
X108510774Y-55375792D01*
X108772134Y-55278310D01*
X109016942Y-55144635D01*
X109150842Y-55044396D01*
X109150843Y-55044396D01*
X108650126Y-54543678D01*
X108774320Y-54453446D01*
X108913446Y-54314320D01*
X109003679Y-54190126D01*
X109504396Y-54690843D01*
X109504396Y-54690842D01*
X109604635Y-54556942D01*
X109738310Y-54312134D01*
X109835792Y-54050774D01*
X109895080Y-53778230D01*
X109895081Y-53778223D01*
X109914981Y-53500001D01*
X109914981Y-53499998D01*
X109895081Y-53221776D01*
X109895080Y-53221769D01*
X109835792Y-52949225D01*
X109738310Y-52687865D01*
X109604638Y-52443061D01*
X109504396Y-52309155D01*
X109003678Y-52809873D01*
X108913446Y-52685680D01*
X108774320Y-52546554D01*
X108650125Y-52456320D01*
X109150843Y-51955602D01*
X109016938Y-51855362D01*
X109016938Y-51855361D01*
X108772134Y-51721689D01*
X108510774Y-51624207D01*
X108238230Y-51564919D01*
X108238223Y-51564918D01*
X107960001Y-51545019D01*
X107959999Y-51545019D01*
X107681776Y-51564918D01*
X107681769Y-51564919D01*
X107409225Y-51624207D01*
X107147865Y-51721689D01*
X106903061Y-51855361D01*
X106903054Y-51855366D01*
X106769156Y-51955601D01*
X106769155Y-51955602D01*
X107269874Y-52456320D01*
X107145680Y-52546554D01*
X107006554Y-52685680D01*
X106916320Y-52809873D01*
X106415602Y-52309155D01*
X106415601Y-52309156D01*
X106315366Y-52443054D01*
X106315361Y-52443061D01*
X106181689Y-52687865D01*
X106084207Y-52949225D01*
X106024919Y-53221769D01*
X106024918Y-53221776D01*
X106005019Y-53499998D01*
X73500500Y-53499998D01*
X73500500Y-51034500D01*
X73520185Y-50967461D01*
X73572989Y-50921706D01*
X73624500Y-50910500D01*
X110375500Y-50910500D01*
X110442539Y-50930185D01*
G37*
%TD.AperFunction*%
%TD*%
M02*
