%TF.GenerationSoftware,KiCad,Pcbnew,8.0.5*%
%TF.CreationDate,2025-11-20T22:30:18-08:00*%
%TF.ProjectId,transmitter,7472616e-736d-4697-9474-65722e6b6963,rev?*%
%TF.SameCoordinates,Original*%
%TF.FileFunction,Copper,L4,Bot*%
%TF.FilePolarity,Positive*%
%FSLAX46Y46*%
G04 Gerber Fmt 4.6, Leading zero omitted, Abs format (unit mm)*
G04 Created by KiCad (PCBNEW 8.0.5) date 2025-11-20 22:30:18*
%MOMM*%
%LPD*%
G01*
G04 APERTURE LIST*
%TA.AperFunction,ComponentPad*%
%ADD10C,2.900000*%
%TD*%
%TA.AperFunction,ConnectorPad*%
%ADD11C,5.000000*%
%TD*%
%TA.AperFunction,ComponentPad*%
%ADD12R,1.700000X1.700000*%
%TD*%
%TA.AperFunction,ComponentPad*%
%ADD13O,1.700000X1.700000*%
%TD*%
%TA.AperFunction,ComponentPad*%
%ADD14R,1.498000X1.498000*%
%TD*%
%TA.AperFunction,ComponentPad*%
%ADD15C,1.498000*%
%TD*%
%TA.AperFunction,ComponentPad*%
%ADD16C,1.440000*%
%TD*%
%TA.AperFunction,ComponentPad*%
%ADD17R,1.508000X1.508000*%
%TD*%
%TA.AperFunction,ComponentPad*%
%ADD18C,1.508000*%
%TD*%
%TA.AperFunction,ComponentPad*%
%ADD19O,2.300000X4.600000*%
%TD*%
%TA.AperFunction,ComponentPad*%
%ADD20C,1.700000*%
%TD*%
%TA.AperFunction,ViaPad*%
%ADD21C,0.600000*%
%TD*%
%TA.AperFunction,Conductor*%
%ADD22C,0.200000*%
%TD*%
G04 APERTURE END LIST*
D10*
%TO.P,H4,1,1*%
%TO.N,GND*%
X108000000Y-120000000D03*
D11*
X108000000Y-120000000D03*
%TD*%
D12*
%TO.P,SW1,1,C*%
%TO.N,GND*%
X78160000Y-111090000D03*
D13*
%TO.P,SW1,2,B*%
%TO.N,+9V*%
X78160000Y-113630000D03*
%TO.P,SW1,3,A*%
%TO.N,Net-(BT1-+)*%
X78160000Y-116170000D03*
%TD*%
D10*
%TO.P,H1,1,1*%
%TO.N,GND*%
X75910000Y-71780000D03*
D11*
X75910000Y-71780000D03*
%TD*%
D14*
%TO.P,SW2,1,1*%
%TO.N,Net-(C8-Pad2)*%
X86265000Y-95455000D03*
D15*
%TO.P,SW2,2,2*%
X92765000Y-95455000D03*
%TO.P,SW2,3,3*%
%TO.N,GND*%
X86265000Y-99955000D03*
%TO.P,SW2,4,4*%
X92765000Y-99955000D03*
%TD*%
D16*
%TO.P,RV3,1,1*%
%TO.N,+3.3V*%
X102200000Y-61680000D03*
%TO.P,RV3,2,2*%
%TO.N,STEER_TRIM*%
X104740000Y-64220000D03*
%TO.P,RV3,3,3*%
%TO.N,GND*%
X107280000Y-61680000D03*
%TD*%
%TO.P,RV4,1,1*%
%TO.N,+3.3V*%
X76710000Y-61680000D03*
%TO.P,RV4,2,2*%
%TO.N,SPEED_TRIM*%
X79250000Y-64220000D03*
%TO.P,RV4,3,3*%
%TO.N,GND*%
X81790000Y-61680000D03*
%TD*%
D17*
%TO.P,RV1,1,1*%
%TO.N,+3.3V*%
X88950000Y-63710500D03*
D18*
%TO.P,RV1,2,2*%
%TO.N,STEER*%
X91450000Y-63710500D03*
%TO.P,RV1,3,3*%
%TO.N,GND*%
X93950000Y-63710500D03*
D19*
%TO.P,RV1,S1,S1*%
X87050000Y-56710500D03*
%TO.P,RV1,S2,S2*%
X95850000Y-56710500D03*
%TD*%
D10*
%TO.P,H2,1,1*%
%TO.N,GND*%
X107960000Y-53500000D03*
D11*
X107960000Y-53500000D03*
%TD*%
D12*
%TO.P,BT1,1,+*%
%TO.N,Net-(BT1-+)*%
X91460000Y-119790000D03*
D13*
%TO.P,BT1,2,-*%
%TO.N,GND*%
X94000000Y-119790000D03*
%TD*%
D12*
%TO.P,U2,1,GND*%
%TO.N,GND*%
X77620000Y-88720000D03*
D20*
%TO.P,U2,2,VCC*%
%TO.N,+3.3V*%
X75080000Y-88720000D03*
%TO.P,U2,3,CE*%
%TO.N,CE*%
X77620000Y-86180000D03*
%TO.P,U2,4,CSN*%
%TO.N,CSN*%
X75080000Y-86180000D03*
%TO.P,U2,5,SCK*%
%TO.N,SCK*%
X77620000Y-83640000D03*
%TO.P,U2,6,MOSI*%
%TO.N,MOSI*%
X75080000Y-83640000D03*
%TO.P,U2,7,MISO*%
%TO.N,MISO*%
X77620000Y-81100000D03*
%TO.P,U2,8,IRQ*%
%TO.N,IRQ*%
X75080000Y-81100000D03*
%TD*%
D12*
%TO.P,J2,1,Pin_1*%
%TO.N,TXD*%
X82860000Y-72410000D03*
D13*
%TO.P,J2,2,Pin_2*%
%TO.N,RXD*%
X82860000Y-74950000D03*
%TO.P,J2,3,Pin_3*%
%TO.N,GND*%
X82860000Y-77490000D03*
%TD*%
D12*
%TO.P,J1,1,Pin_1*%
%TO.N,~{MCLR}*%
X108620000Y-72965000D03*
D13*
%TO.P,J1,2,Pin_2*%
%TO.N,+3.3V*%
X106080000Y-72965000D03*
%TO.P,J1,3,Pin_3*%
%TO.N,GND*%
X103540000Y-72965000D03*
%TO.P,J1,4,Pin_4*%
%TO.N,PGData*%
X101000000Y-72965000D03*
%TO.P,J1,5,Pin_5*%
%TO.N,PGClk*%
X98460000Y-72965000D03*
%TD*%
D17*
%TO.P,RV2,1,1*%
%TO.N,+3.3V*%
X106350000Y-85230000D03*
D18*
%TO.P,RV2,2,2*%
%TO.N,SPEED*%
X103850000Y-85230000D03*
%TO.P,RV2,3,3*%
%TO.N,GND*%
X101350000Y-85230000D03*
D19*
%TO.P,RV2,S1,S1*%
X108250000Y-92230000D03*
%TO.P,RV2,S2,S2*%
X99450000Y-92230000D03*
%TD*%
D21*
%TO.N,GND*%
X94920000Y-115700000D03*
X103090000Y-108380000D03*
X84430000Y-110550000D03*
X96900000Y-111940000D03*
X82610000Y-82720000D03*
X95363802Y-81713802D03*
X89930000Y-94295000D03*
X82830000Y-88540000D03*
X82240000Y-113240000D03*
X94340000Y-84440000D03*
X104450000Y-105140000D03*
%TO.N,+3.3V*%
X82750000Y-89440000D03*
X104470000Y-108350000D03*
X95430000Y-80870000D03*
X85780000Y-93480000D03*
X97720000Y-116040000D03*
X96270000Y-112850000D03*
%TO.N,LED*%
X102830000Y-101780000D03*
X91370000Y-85690000D03*
%TO.N,SPEED*%
X94487509Y-87377510D03*
%TO.N,CSN*%
X83400000Y-85730000D03*
%TD*%
D22*
%TO.N,LED*%
X91370000Y-90320000D02*
X102830000Y-101780000D01*
X91370000Y-85690000D02*
X91370000Y-90320000D01*
%TO.N,SPEED*%
X94487509Y-87377510D02*
X101702490Y-87377510D01*
X101702490Y-87377510D02*
X103850000Y-85230000D01*
%TO.N,CSN*%
X83400000Y-85730000D02*
X82700000Y-85030000D01*
X82700000Y-85030000D02*
X76230000Y-85030000D01*
X76230000Y-85030000D02*
X75080000Y-86180000D01*
%TD*%
M02*
