%TF.GenerationSoftware,KiCad,Pcbnew,8.0.5*%
%TF.CreationDate,2025-09-24T21:31:53-07:00*%
%TF.ProjectId,transmitter,7472616e-736d-4697-9474-65722e6b6963,rev?*%
%TF.SameCoordinates,Original*%
%TF.FileFunction,Copper,L1,Top*%
%TF.FilePolarity,Positive*%
%FSLAX46Y46*%
G04 Gerber Fmt 4.6, Leading zero omitted, Abs format (unit mm)*
G04 Created by KiCad (PCBNEW 8.0.5) date 2025-09-24 21:31:53*
%MOMM*%
%LPD*%
G01*
G04 APERTURE LIST*
G04 Aperture macros list*
%AMFreePoly0*
4,1,19,0.500000,-0.750000,0.000000,-0.750000,0.000000,-0.744911,-0.071157,-0.744911,-0.207708,-0.704816,-0.327430,-0.627875,-0.420627,-0.520320,-0.479746,-0.390866,-0.500000,-0.250000,-0.500000,0.250000,-0.479746,0.390866,-0.420627,0.520320,-0.327430,0.627875,-0.207708,0.704816,-0.071157,0.744911,0.000000,0.744911,0.000000,0.750000,0.500000,0.750000,0.500000,-0.750000,0.500000,-0.750000,
$1*%
%AMFreePoly1*
4,1,19,0.000000,0.744911,0.071157,0.744911,0.207708,0.704816,0.327430,0.627875,0.420627,0.520320,0.479746,0.390866,0.500000,0.250000,0.500000,-0.250000,0.479746,-0.390866,0.420627,-0.520320,0.327430,-0.627875,0.207708,-0.704816,0.071157,-0.744911,0.000000,-0.744911,0.000000,-0.750000,-0.500000,-0.750000,-0.500000,0.750000,0.000000,0.750000,0.000000,0.744911,0.000000,0.744911,
$1*%
G04 Aperture macros list end*
%TA.AperFunction,ComponentPad*%
%ADD10R,1.500000X1.500000*%
%TD*%
%TA.AperFunction,ComponentPad*%
%ADD11C,1.500000*%
%TD*%
%TA.AperFunction,ComponentPad*%
%ADD12C,2.900000*%
%TD*%
%TA.AperFunction,ConnectorPad*%
%ADD13C,5.000000*%
%TD*%
%TA.AperFunction,ComponentPad*%
%ADD14R,1.600000X1.600000*%
%TD*%
%TA.AperFunction,ComponentPad*%
%ADD15C,1.600000*%
%TD*%
%TA.AperFunction,ComponentPad*%
%ADD16C,1.400000*%
%TD*%
%TA.AperFunction,ComponentPad*%
%ADD17O,1.400000X1.400000*%
%TD*%
%TA.AperFunction,ComponentPad*%
%ADD18O,1.600000X1.600000*%
%TD*%
%TA.AperFunction,ComponentPad*%
%ADD19C,1.440000*%
%TD*%
%TA.AperFunction,ComponentPad*%
%ADD20R,1.905000X2.000000*%
%TD*%
%TA.AperFunction,ComponentPad*%
%ADD21O,1.905000X2.000000*%
%TD*%
%TA.AperFunction,ComponentPad*%
%ADD22R,1.508000X1.508000*%
%TD*%
%TA.AperFunction,ComponentPad*%
%ADD23C,1.508000*%
%TD*%
%TA.AperFunction,ComponentPad*%
%ADD24O,2.300000X4.600000*%
%TD*%
%TA.AperFunction,ComponentPad*%
%ADD25R,1.700000X1.700000*%
%TD*%
%TA.AperFunction,ComponentPad*%
%ADD26O,1.700000X1.700000*%
%TD*%
%TA.AperFunction,ComponentPad*%
%ADD27R,1.800000X1.800000*%
%TD*%
%TA.AperFunction,ComponentPad*%
%ADD28C,1.800000*%
%TD*%
%TA.AperFunction,SMDPad,CuDef*%
%ADD29FreePoly0,180.000000*%
%TD*%
%TA.AperFunction,SMDPad,CuDef*%
%ADD30FreePoly1,180.000000*%
%TD*%
%TA.AperFunction,ComponentPad*%
%ADD31C,1.700000*%
%TD*%
%TA.AperFunction,Conductor*%
%ADD32C,0.500000*%
%TD*%
%TA.AperFunction,Conductor*%
%ADD33C,0.200000*%
%TD*%
G04 APERTURE END LIST*
D10*
%TO.P,Q1,1,S*%
%TO.N,GND*%
X84690000Y-106370000D03*
D11*
%TO.P,Q1,2,G*%
%TO.N,LED*%
X84690000Y-103830000D03*
%TO.P,Q1,3,D*%
%TO.N,Net-(D1-K)*%
X84690000Y-101290000D03*
%TD*%
D12*
%TO.P,H4,1,1*%
%TO.N,GND*%
X108000000Y-120000000D03*
D13*
X108000000Y-120000000D03*
%TD*%
D14*
%TO.P,C1,1*%
%TO.N,+9V*%
X84640000Y-114370000D03*
D15*
%TO.P,C1,2*%
%TO.N,GND*%
X87140000Y-114370000D03*
%TD*%
D14*
%TO.P,C5,1*%
%TO.N,+3.3V*%
X101250000Y-117250000D03*
D15*
%TO.P,C5,2*%
%TO.N,GND*%
X103750000Y-117250000D03*
%TD*%
D12*
%TO.P,H1,1,1*%
%TO.N,GND*%
X75910000Y-71780000D03*
D13*
X75910000Y-71780000D03*
%TD*%
D14*
%TO.P,C3,1*%
%TO.N,+3.3V*%
X91640000Y-96640000D03*
D15*
%TO.P,C3,2*%
%TO.N,GND*%
X89140000Y-96640000D03*
%TD*%
D16*
%TO.P,R6,1*%
%TO.N,LED*%
X101290000Y-100220000D03*
D17*
%TO.P,R6,2*%
%TO.N,GND*%
X108910000Y-100220000D03*
%TD*%
D14*
%TO.P,U1,1,VDD*%
%TO.N,+3.3V*%
X93980000Y-91870000D03*
D18*
%TO.P,U1,2,RA5*%
%TO.N,Net-(U1-RA5)*%
X93980000Y-89330000D03*
%TO.P,U1,3,RA4*%
%TO.N,CSN*%
X93980000Y-86790000D03*
%TO.P,U1,4,RA3/~{MCLR}*%
%TO.N,unconnected-(U1-RA3{slash}~{MCLR}-Pad4)*%
X93980000Y-84250000D03*
%TO.P,U1,5,RC5*%
%TO.N,MOSI*%
X93980000Y-81710000D03*
%TO.P,U1,6,RC4*%
%TO.N,SPEED*%
X93980000Y-79170000D03*
%TO.P,U1,7,RC3*%
%TO.N,STEER*%
X93980000Y-76630000D03*
%TO.P,U1,8,RC2*%
%TO.N,IRQ*%
X86360000Y-76630000D03*
%TO.P,U1,9,RC1*%
%TO.N,MISO*%
X86360000Y-79170000D03*
%TO.P,U1,10,RC0*%
%TO.N,SCK*%
X86360000Y-81710000D03*
%TO.P,U1,11,RA2*%
%TO.N,CE*%
X86360000Y-84250000D03*
%TO.P,U1,12,RA1*%
%TO.N,TRIM*%
X86360000Y-86790000D03*
%TO.P,U1,13,RA0*%
%TO.N,LED*%
X86360000Y-89330000D03*
%TO.P,U1,14,VSS*%
%TO.N,GND*%
X86360000Y-91870000D03*
%TD*%
D19*
%TO.P,RV3,1,1*%
%TO.N,+3.3V*%
X102250000Y-69720000D03*
%TO.P,RV3,2,2*%
%TO.N,TRIM*%
X104790000Y-72260000D03*
%TO.P,RV3,3,3*%
%TO.N,GND*%
X107330000Y-69720000D03*
%TD*%
D16*
%TO.P,R1,1*%
%TO.N,+3.3V*%
X82530000Y-98000000D03*
D17*
%TO.P,R1,2*%
%TO.N,Net-(D1-A)*%
X74910000Y-98000000D03*
%TD*%
D20*
%TO.P,U3,1,VI*%
%TO.N,+9V*%
X91650000Y-119800000D03*
D21*
%TO.P,U3,2,GND*%
%TO.N,GND*%
X94190000Y-119800000D03*
%TO.P,U3,3,VO*%
%TO.N,+3.3V*%
X96730000Y-119800000D03*
%TD*%
D22*
%TO.P,RV1,1,1*%
%TO.N,+3.3V*%
X88950000Y-63710500D03*
D23*
%TO.P,RV1,2,2*%
%TO.N,STEER*%
X91450000Y-63710500D03*
%TO.P,RV1,3,3*%
%TO.N,GND*%
X93950000Y-63710500D03*
D24*
%TO.P,RV1,S1,S1*%
X87050000Y-56710500D03*
%TO.P,RV1,S2,S2*%
X95850000Y-56710500D03*
%TD*%
D12*
%TO.P,H2,1,1*%
%TO.N,GND*%
X107960000Y-53500000D03*
D13*
X107960000Y-53500000D03*
%TD*%
D25*
%TO.P,SW1,1,C*%
%TO.N,Net-(JP2-B)*%
X76420000Y-109630000D03*
D26*
%TO.P,SW1,2,B*%
%TO.N,Net-(JP1-B)*%
X76420000Y-112170000D03*
%TO.P,SW1,3,A*%
%TO.N,+9V*%
X76420000Y-114710000D03*
%TD*%
D16*
%TO.P,R2,1*%
%TO.N,Net-(D2-K)*%
X101280000Y-103720000D03*
D17*
%TO.P,R2,2*%
%TO.N,GND*%
X108900000Y-103720000D03*
%TD*%
D27*
%TO.P,D1,1,K*%
%TO.N,Net-(D1-K)*%
X78070000Y-102970000D03*
D28*
%TO.P,D1,2,A*%
%TO.N,Net-(D1-A)*%
X75530000Y-102970000D03*
%TD*%
D16*
%TO.P,R5,1*%
%TO.N,Net-(U1-RA5)*%
X101260000Y-79610000D03*
D17*
%TO.P,R5,2*%
%TO.N,+3.3V*%
X108880000Y-79610000D03*
%TD*%
D29*
%TO.P,JP1,1,A*%
%TO.N,Net-(BT1-+)*%
X81600000Y-112560000D03*
D30*
%TO.P,JP1,2,B*%
%TO.N,Net-(JP1-B)*%
X80300000Y-112560000D03*
%TD*%
D25*
%TO.P,BT1,1,+*%
%TO.N,Net-(BT1-+)*%
X82460000Y-119935000D03*
D26*
%TO.P,BT1,2,-*%
%TO.N,GND*%
X85000000Y-119935000D03*
%TD*%
D25*
%TO.P,U2,1,GND*%
%TO.N,GND*%
X77620000Y-88720000D03*
D31*
%TO.P,U2,2,VCC*%
%TO.N,+3.3V*%
X75080000Y-88720000D03*
%TO.P,U2,3,CE*%
%TO.N,CE*%
X77620000Y-86180000D03*
%TO.P,U2,4,CSN*%
%TO.N,CSN*%
X75080000Y-86180000D03*
%TO.P,U2,5,SCK*%
%TO.N,SCK*%
X77620000Y-83640000D03*
%TO.P,U2,6,MOSI*%
%TO.N,MOSI*%
X75080000Y-83640000D03*
%TO.P,U2,7,MISO*%
%TO.N,MISO*%
X77620000Y-81100000D03*
%TO.P,U2,8,IRQ*%
%TO.N,IRQ*%
X75080000Y-81100000D03*
%TD*%
D14*
%TO.P,C4,1*%
%TO.N,+3.3V*%
X75120000Y-93780000D03*
D15*
%TO.P,C4,2*%
%TO.N,GND*%
X77620000Y-93780000D03*
%TD*%
D22*
%TO.P,RV2,1,1*%
%TO.N,+3.3V*%
X106350000Y-85230000D03*
D23*
%TO.P,RV2,2,2*%
%TO.N,SPEED*%
X103850000Y-85230000D03*
%TO.P,RV2,3,3*%
%TO.N,GND*%
X101350000Y-85230000D03*
D24*
%TO.P,RV2,S1,S1*%
X108250000Y-92230000D03*
%TO.P,RV2,S2,S2*%
X99450000Y-92230000D03*
%TD*%
D27*
%TO.P,D2,1,K*%
%TO.N,Net-(D2-K)*%
X103885000Y-109720000D03*
D28*
%TO.P,D2,2,A*%
%TO.N,+3.3V*%
X106425000Y-109720000D03*
%TD*%
D29*
%TO.P,JP2,1,A*%
%TO.N,Net-(BT1-+)*%
X81600000Y-110010000D03*
D30*
%TO.P,JP2,2,B*%
%TO.N,Net-(JP2-B)*%
X80300000Y-110010000D03*
%TD*%
D32*
%TO.N,Net-(BT1-+)*%
X82460000Y-116790000D02*
X82460000Y-119935000D01*
X81600000Y-110010000D02*
X81600000Y-115930000D01*
X81600000Y-115930000D02*
X82460000Y-116790000D01*
%TO.N,GND*%
X89140000Y-94650000D02*
X86360000Y-91870000D01*
X89140000Y-96640000D02*
X89140000Y-94650000D01*
%TO.N,+3.3V*%
X91640000Y-94210000D02*
X93980000Y-91870000D01*
X98700000Y-119800000D02*
X101250000Y-117250000D01*
X96730000Y-119800000D02*
X98700000Y-119800000D01*
X91640000Y-96640000D02*
X91640000Y-94210000D01*
D33*
%TO.N,Net-(D2-K)*%
X101280000Y-107115000D02*
X103885000Y-109720000D01*
X101280000Y-103720000D02*
X101280000Y-107115000D01*
D32*
%TO.N,Net-(JP1-B)*%
X76810000Y-112560000D02*
X76420000Y-112170000D01*
X80300000Y-112560000D02*
X76810000Y-112560000D01*
%TO.N,Net-(JP2-B)*%
X76800000Y-110010000D02*
X76420000Y-109630000D01*
X80300000Y-110010000D02*
X76800000Y-110010000D01*
D33*
%TO.N,LED*%
X84940000Y-90750000D02*
X86360000Y-89330000D01*
X84690000Y-103830000D02*
X86030000Y-102490000D01*
X86030000Y-96840000D02*
X84940000Y-95750000D01*
X86030000Y-102490000D02*
X86030000Y-96840000D01*
X88300000Y-100220000D02*
X101290000Y-100220000D01*
X84690000Y-103830000D02*
X88300000Y-100220000D01*
X84940000Y-95750000D02*
X84940000Y-90750000D01*
%TO.N,Net-(D1-K)*%
X79750000Y-101290000D02*
X78070000Y-102970000D01*
X84690000Y-101290000D02*
X79750000Y-101290000D01*
%TO.N,Net-(D1-A)*%
X75530000Y-98620000D02*
X74910000Y-98000000D01*
X75530000Y-102970000D02*
X75530000Y-98620000D01*
%TO.N,STEER*%
X91450000Y-63710500D02*
X91450000Y-74100000D01*
X91450000Y-74100000D02*
X93980000Y-76630000D01*
%TO.N,SPEED*%
X103850000Y-85230000D02*
X97790000Y-79170000D01*
X97790000Y-79170000D02*
X93980000Y-79170000D01*
%TO.N,CE*%
X82810000Y-84250000D02*
X86360000Y-84250000D01*
X77620000Y-86180000D02*
X80880000Y-86180000D01*
X80880000Y-86180000D02*
X82810000Y-84250000D01*
X77620000Y-86850000D02*
X77660000Y-86810000D01*
%TO.N,IRQ*%
X75080000Y-81100000D02*
X79550000Y-76630000D01*
X79550000Y-76630000D02*
X86360000Y-76630000D01*
%TO.N,SCK*%
X81180000Y-83640000D02*
X83110000Y-81710000D01*
X83110000Y-81710000D02*
X86360000Y-81710000D01*
X77620000Y-83640000D02*
X81180000Y-83640000D01*
%TO.N,MISO*%
X81570000Y-81100000D02*
X83500000Y-79170000D01*
X77620000Y-81100000D02*
X81570000Y-81100000D01*
X83500000Y-79170000D02*
X86360000Y-79170000D01*
%TO.N,CSN*%
X76310000Y-87410000D02*
X82640000Y-87410000D01*
X75080000Y-86180000D02*
X76310000Y-87410000D01*
X90490000Y-86790000D02*
X93980000Y-86790000D01*
X83260000Y-88030000D02*
X89250000Y-88030000D01*
X82640000Y-87410000D02*
X83260000Y-88030000D01*
X89250000Y-88030000D02*
X90490000Y-86790000D01*
%TO.N,MOSI*%
X92660000Y-80390000D02*
X93980000Y-81710000D01*
X81410000Y-82370000D02*
X83390000Y-80390000D01*
X76350000Y-82370000D02*
X81410000Y-82370000D01*
X83390000Y-80390000D02*
X92660000Y-80390000D01*
X75080000Y-83640000D02*
X76350000Y-82370000D01*
%TD*%
M02*
