%TF.GenerationSoftware,KiCad,Pcbnew,8.0.5*%
%TF.CreationDate,2025-09-24T21:31:53-07:00*%
%TF.ProjectId,transmitter,7472616e-736d-4697-9474-65722e6b6963,rev?*%
%TF.SameCoordinates,Original*%
%TF.FileFunction,Legend,Top*%
%TF.FilePolarity,Positive*%
%FSLAX46Y46*%
G04 Gerber Fmt 4.6, Leading zero omitted, Abs format (unit mm)*
G04 Created by KiCad (PCBNEW 8.0.5) date 2025-09-24 21:31:53*
%MOMM*%
%LPD*%
G01*
G04 APERTURE LIST*
%ADD10C,0.150000*%
%ADD11C,0.120000*%
%ADD12C,0.127000*%
%ADD13C,0.200000*%
G04 APERTURE END LIST*
D10*
X83600057Y-103925238D02*
X83552438Y-104020476D01*
X83552438Y-104020476D02*
X83457200Y-104115714D01*
X83457200Y-104115714D02*
X83314342Y-104258571D01*
X83314342Y-104258571D02*
X83266723Y-104353809D01*
X83266723Y-104353809D02*
X83266723Y-104449047D01*
X83504819Y-104401428D02*
X83457200Y-104496666D01*
X83457200Y-104496666D02*
X83361961Y-104591904D01*
X83361961Y-104591904D02*
X83171485Y-104639523D01*
X83171485Y-104639523D02*
X82838152Y-104639523D01*
X82838152Y-104639523D02*
X82647676Y-104591904D01*
X82647676Y-104591904D02*
X82552438Y-104496666D01*
X82552438Y-104496666D02*
X82504819Y-104401428D01*
X82504819Y-104401428D02*
X82504819Y-104210952D01*
X82504819Y-104210952D02*
X82552438Y-104115714D01*
X82552438Y-104115714D02*
X82647676Y-104020476D01*
X82647676Y-104020476D02*
X82838152Y-103972857D01*
X82838152Y-103972857D02*
X83171485Y-103972857D01*
X83171485Y-103972857D02*
X83361961Y-104020476D01*
X83361961Y-104020476D02*
X83457200Y-104115714D01*
X83457200Y-104115714D02*
X83504819Y-104210952D01*
X83504819Y-104210952D02*
X83504819Y-104401428D01*
X83504819Y-103020476D02*
X83504819Y-103591904D01*
X83504819Y-103306190D02*
X82504819Y-103306190D01*
X82504819Y-103306190D02*
X82647676Y-103401428D01*
X82647676Y-103401428D02*
X82742914Y-103496666D01*
X82742914Y-103496666D02*
X82790533Y-103591904D01*
X85723333Y-110979580D02*
X85675714Y-111027200D01*
X85675714Y-111027200D02*
X85532857Y-111074819D01*
X85532857Y-111074819D02*
X85437619Y-111074819D01*
X85437619Y-111074819D02*
X85294762Y-111027200D01*
X85294762Y-111027200D02*
X85199524Y-110931961D01*
X85199524Y-110931961D02*
X85151905Y-110836723D01*
X85151905Y-110836723D02*
X85104286Y-110646247D01*
X85104286Y-110646247D02*
X85104286Y-110503390D01*
X85104286Y-110503390D02*
X85151905Y-110312914D01*
X85151905Y-110312914D02*
X85199524Y-110217676D01*
X85199524Y-110217676D02*
X85294762Y-110122438D01*
X85294762Y-110122438D02*
X85437619Y-110074819D01*
X85437619Y-110074819D02*
X85532857Y-110074819D01*
X85532857Y-110074819D02*
X85675714Y-110122438D01*
X85675714Y-110122438D02*
X85723333Y-110170057D01*
X86675714Y-111074819D02*
X86104286Y-111074819D01*
X86390000Y-111074819D02*
X86390000Y-110074819D01*
X86390000Y-110074819D02*
X86294762Y-110217676D01*
X86294762Y-110217676D02*
X86199524Y-110312914D01*
X86199524Y-110312914D02*
X86104286Y-110360533D01*
X102333333Y-113859580D02*
X102285714Y-113907200D01*
X102285714Y-113907200D02*
X102142857Y-113954819D01*
X102142857Y-113954819D02*
X102047619Y-113954819D01*
X102047619Y-113954819D02*
X101904762Y-113907200D01*
X101904762Y-113907200D02*
X101809524Y-113811961D01*
X101809524Y-113811961D02*
X101761905Y-113716723D01*
X101761905Y-113716723D02*
X101714286Y-113526247D01*
X101714286Y-113526247D02*
X101714286Y-113383390D01*
X101714286Y-113383390D02*
X101761905Y-113192914D01*
X101761905Y-113192914D02*
X101809524Y-113097676D01*
X101809524Y-113097676D02*
X101904762Y-113002438D01*
X101904762Y-113002438D02*
X102047619Y-112954819D01*
X102047619Y-112954819D02*
X102142857Y-112954819D01*
X102142857Y-112954819D02*
X102285714Y-113002438D01*
X102285714Y-113002438D02*
X102333333Y-113050057D01*
X103238095Y-112954819D02*
X102761905Y-112954819D01*
X102761905Y-112954819D02*
X102714286Y-113431009D01*
X102714286Y-113431009D02*
X102761905Y-113383390D01*
X102761905Y-113383390D02*
X102857143Y-113335771D01*
X102857143Y-113335771D02*
X103095238Y-113335771D01*
X103095238Y-113335771D02*
X103190476Y-113383390D01*
X103190476Y-113383390D02*
X103238095Y-113431009D01*
X103238095Y-113431009D02*
X103285714Y-113526247D01*
X103285714Y-113526247D02*
X103285714Y-113764342D01*
X103285714Y-113764342D02*
X103238095Y-113859580D01*
X103238095Y-113859580D02*
X103190476Y-113907200D01*
X103190476Y-113907200D02*
X103095238Y-113954819D01*
X103095238Y-113954819D02*
X102857143Y-113954819D01*
X102857143Y-113954819D02*
X102761905Y-113907200D01*
X102761905Y-113907200D02*
X102714286Y-113859580D01*
X94068220Y-97049580D02*
X94020601Y-97097200D01*
X94020601Y-97097200D02*
X93877744Y-97144819D01*
X93877744Y-97144819D02*
X93782506Y-97144819D01*
X93782506Y-97144819D02*
X93639649Y-97097200D01*
X93639649Y-97097200D02*
X93544411Y-97001961D01*
X93544411Y-97001961D02*
X93496792Y-96906723D01*
X93496792Y-96906723D02*
X93449173Y-96716247D01*
X93449173Y-96716247D02*
X93449173Y-96573390D01*
X93449173Y-96573390D02*
X93496792Y-96382914D01*
X93496792Y-96382914D02*
X93544411Y-96287676D01*
X93544411Y-96287676D02*
X93639649Y-96192438D01*
X93639649Y-96192438D02*
X93782506Y-96144819D01*
X93782506Y-96144819D02*
X93877744Y-96144819D01*
X93877744Y-96144819D02*
X94020601Y-96192438D01*
X94020601Y-96192438D02*
X94068220Y-96240057D01*
X94401554Y-96144819D02*
X95020601Y-96144819D01*
X95020601Y-96144819D02*
X94687268Y-96525771D01*
X94687268Y-96525771D02*
X94830125Y-96525771D01*
X94830125Y-96525771D02*
X94925363Y-96573390D01*
X94925363Y-96573390D02*
X94972982Y-96621009D01*
X94972982Y-96621009D02*
X95020601Y-96716247D01*
X95020601Y-96716247D02*
X95020601Y-96954342D01*
X95020601Y-96954342D02*
X94972982Y-97049580D01*
X94972982Y-97049580D02*
X94925363Y-97097200D01*
X94925363Y-97097200D02*
X94830125Y-97144819D01*
X94830125Y-97144819D02*
X94544411Y-97144819D01*
X94544411Y-97144819D02*
X94449173Y-97097200D01*
X94449173Y-97097200D02*
X94401554Y-97049580D01*
X104933333Y-100674819D02*
X104600000Y-100198628D01*
X104361905Y-100674819D02*
X104361905Y-99674819D01*
X104361905Y-99674819D02*
X104742857Y-99674819D01*
X104742857Y-99674819D02*
X104838095Y-99722438D01*
X104838095Y-99722438D02*
X104885714Y-99770057D01*
X104885714Y-99770057D02*
X104933333Y-99865295D01*
X104933333Y-99865295D02*
X104933333Y-100008152D01*
X104933333Y-100008152D02*
X104885714Y-100103390D01*
X104885714Y-100103390D02*
X104838095Y-100151009D01*
X104838095Y-100151009D02*
X104742857Y-100198628D01*
X104742857Y-100198628D02*
X104361905Y-100198628D01*
X105790476Y-99674819D02*
X105600000Y-99674819D01*
X105600000Y-99674819D02*
X105504762Y-99722438D01*
X105504762Y-99722438D02*
X105457143Y-99770057D01*
X105457143Y-99770057D02*
X105361905Y-99912914D01*
X105361905Y-99912914D02*
X105314286Y-100103390D01*
X105314286Y-100103390D02*
X105314286Y-100484342D01*
X105314286Y-100484342D02*
X105361905Y-100579580D01*
X105361905Y-100579580D02*
X105409524Y-100627200D01*
X105409524Y-100627200D02*
X105504762Y-100674819D01*
X105504762Y-100674819D02*
X105695238Y-100674819D01*
X105695238Y-100674819D02*
X105790476Y-100627200D01*
X105790476Y-100627200D02*
X105838095Y-100579580D01*
X105838095Y-100579580D02*
X105885714Y-100484342D01*
X105885714Y-100484342D02*
X105885714Y-100246247D01*
X105885714Y-100246247D02*
X105838095Y-100151009D01*
X105838095Y-100151009D02*
X105790476Y-100103390D01*
X105790476Y-100103390D02*
X105695238Y-100055771D01*
X105695238Y-100055771D02*
X105504762Y-100055771D01*
X105504762Y-100055771D02*
X105409524Y-100103390D01*
X105409524Y-100103390D02*
X105361905Y-100151009D01*
X105361905Y-100151009D02*
X105314286Y-100246247D01*
X89418095Y-83699819D02*
X89418095Y-84509342D01*
X89418095Y-84509342D02*
X89465714Y-84604580D01*
X89465714Y-84604580D02*
X89513333Y-84652200D01*
X89513333Y-84652200D02*
X89608571Y-84699819D01*
X89608571Y-84699819D02*
X89799047Y-84699819D01*
X89799047Y-84699819D02*
X89894285Y-84652200D01*
X89894285Y-84652200D02*
X89941904Y-84604580D01*
X89941904Y-84604580D02*
X89989523Y-84509342D01*
X89989523Y-84509342D02*
X89989523Y-83699819D01*
X90989523Y-84699819D02*
X90418095Y-84699819D01*
X90703809Y-84699819D02*
X90703809Y-83699819D01*
X90703809Y-83699819D02*
X90608571Y-83842676D01*
X90608571Y-83842676D02*
X90513333Y-83937914D01*
X90513333Y-83937914D02*
X90418095Y-83985533D01*
X104184761Y-66584819D02*
X103851428Y-66108628D01*
X103613333Y-66584819D02*
X103613333Y-65584819D01*
X103613333Y-65584819D02*
X103994285Y-65584819D01*
X103994285Y-65584819D02*
X104089523Y-65632438D01*
X104089523Y-65632438D02*
X104137142Y-65680057D01*
X104137142Y-65680057D02*
X104184761Y-65775295D01*
X104184761Y-65775295D02*
X104184761Y-65918152D01*
X104184761Y-65918152D02*
X104137142Y-66013390D01*
X104137142Y-66013390D02*
X104089523Y-66061009D01*
X104089523Y-66061009D02*
X103994285Y-66108628D01*
X103994285Y-66108628D02*
X103613333Y-66108628D01*
X104470476Y-65584819D02*
X104803809Y-66584819D01*
X104803809Y-66584819D02*
X105137142Y-65584819D01*
X105375238Y-65584819D02*
X105994285Y-65584819D01*
X105994285Y-65584819D02*
X105660952Y-65965771D01*
X105660952Y-65965771D02*
X105803809Y-65965771D01*
X105803809Y-65965771D02*
X105899047Y-66013390D01*
X105899047Y-66013390D02*
X105946666Y-66061009D01*
X105946666Y-66061009D02*
X105994285Y-66156247D01*
X105994285Y-66156247D02*
X105994285Y-66394342D01*
X105994285Y-66394342D02*
X105946666Y-66489580D01*
X105946666Y-66489580D02*
X105899047Y-66537200D01*
X105899047Y-66537200D02*
X105803809Y-66584819D01*
X105803809Y-66584819D02*
X105518095Y-66584819D01*
X105518095Y-66584819D02*
X105422857Y-66537200D01*
X105422857Y-66537200D02*
X105375238Y-66489580D01*
X78553333Y-98454819D02*
X78220000Y-97978628D01*
X77981905Y-98454819D02*
X77981905Y-97454819D01*
X77981905Y-97454819D02*
X78362857Y-97454819D01*
X78362857Y-97454819D02*
X78458095Y-97502438D01*
X78458095Y-97502438D02*
X78505714Y-97550057D01*
X78505714Y-97550057D02*
X78553333Y-97645295D01*
X78553333Y-97645295D02*
X78553333Y-97788152D01*
X78553333Y-97788152D02*
X78505714Y-97883390D01*
X78505714Y-97883390D02*
X78458095Y-97931009D01*
X78458095Y-97931009D02*
X78362857Y-97978628D01*
X78362857Y-97978628D02*
X77981905Y-97978628D01*
X79505714Y-98454819D02*
X78934286Y-98454819D01*
X79220000Y-98454819D02*
X79220000Y-97454819D01*
X79220000Y-97454819D02*
X79124762Y-97597676D01*
X79124762Y-97597676D02*
X79029524Y-97692914D01*
X79029524Y-97692914D02*
X78934286Y-97740533D01*
X93428095Y-110024819D02*
X93428095Y-110834342D01*
X93428095Y-110834342D02*
X93475714Y-110929580D01*
X93475714Y-110929580D02*
X93523333Y-110977200D01*
X93523333Y-110977200D02*
X93618571Y-111024819D01*
X93618571Y-111024819D02*
X93809047Y-111024819D01*
X93809047Y-111024819D02*
X93904285Y-110977200D01*
X93904285Y-110977200D02*
X93951904Y-110929580D01*
X93951904Y-110929580D02*
X93999523Y-110834342D01*
X93999523Y-110834342D02*
X93999523Y-110024819D01*
X94380476Y-110024819D02*
X94999523Y-110024819D01*
X94999523Y-110024819D02*
X94666190Y-110405771D01*
X94666190Y-110405771D02*
X94809047Y-110405771D01*
X94809047Y-110405771D02*
X94904285Y-110453390D01*
X94904285Y-110453390D02*
X94951904Y-110501009D01*
X94951904Y-110501009D02*
X94999523Y-110596247D01*
X94999523Y-110596247D02*
X94999523Y-110834342D01*
X94999523Y-110834342D02*
X94951904Y-110929580D01*
X94951904Y-110929580D02*
X94904285Y-110977200D01*
X94904285Y-110977200D02*
X94809047Y-111024819D01*
X94809047Y-111024819D02*
X94523333Y-111024819D01*
X94523333Y-111024819D02*
X94428095Y-110977200D01*
X94428095Y-110977200D02*
X94380476Y-110929580D01*
X90854761Y-57165319D02*
X90521428Y-56689128D01*
X90283333Y-57165319D02*
X90283333Y-56165319D01*
X90283333Y-56165319D02*
X90664285Y-56165319D01*
X90664285Y-56165319D02*
X90759523Y-56212938D01*
X90759523Y-56212938D02*
X90807142Y-56260557D01*
X90807142Y-56260557D02*
X90854761Y-56355795D01*
X90854761Y-56355795D02*
X90854761Y-56498652D01*
X90854761Y-56498652D02*
X90807142Y-56593890D01*
X90807142Y-56593890D02*
X90759523Y-56641509D01*
X90759523Y-56641509D02*
X90664285Y-56689128D01*
X90664285Y-56689128D02*
X90283333Y-56689128D01*
X91140476Y-56165319D02*
X91473809Y-57165319D01*
X91473809Y-57165319D02*
X91807142Y-56165319D01*
X92664285Y-57165319D02*
X92092857Y-57165319D01*
X92378571Y-57165319D02*
X92378571Y-56165319D01*
X92378571Y-56165319D02*
X92283333Y-56308176D01*
X92283333Y-56308176D02*
X92188095Y-56403414D01*
X92188095Y-56403414D02*
X92092857Y-56451033D01*
X75086667Y-107267200D02*
X75229524Y-107314819D01*
X75229524Y-107314819D02*
X75467619Y-107314819D01*
X75467619Y-107314819D02*
X75562857Y-107267200D01*
X75562857Y-107267200D02*
X75610476Y-107219580D01*
X75610476Y-107219580D02*
X75658095Y-107124342D01*
X75658095Y-107124342D02*
X75658095Y-107029104D01*
X75658095Y-107029104D02*
X75610476Y-106933866D01*
X75610476Y-106933866D02*
X75562857Y-106886247D01*
X75562857Y-106886247D02*
X75467619Y-106838628D01*
X75467619Y-106838628D02*
X75277143Y-106791009D01*
X75277143Y-106791009D02*
X75181905Y-106743390D01*
X75181905Y-106743390D02*
X75134286Y-106695771D01*
X75134286Y-106695771D02*
X75086667Y-106600533D01*
X75086667Y-106600533D02*
X75086667Y-106505295D01*
X75086667Y-106505295D02*
X75134286Y-106410057D01*
X75134286Y-106410057D02*
X75181905Y-106362438D01*
X75181905Y-106362438D02*
X75277143Y-106314819D01*
X75277143Y-106314819D02*
X75515238Y-106314819D01*
X75515238Y-106314819D02*
X75658095Y-106362438D01*
X75991429Y-106314819D02*
X76229524Y-107314819D01*
X76229524Y-107314819D02*
X76420000Y-106600533D01*
X76420000Y-106600533D02*
X76610476Y-107314819D01*
X76610476Y-107314819D02*
X76848572Y-106314819D01*
X77753333Y-107314819D02*
X77181905Y-107314819D01*
X77467619Y-107314819D02*
X77467619Y-106314819D01*
X77467619Y-106314819D02*
X77372381Y-106457676D01*
X77372381Y-106457676D02*
X77277143Y-106552914D01*
X77277143Y-106552914D02*
X77181905Y-106600533D01*
X104923333Y-104174819D02*
X104590000Y-103698628D01*
X104351905Y-104174819D02*
X104351905Y-103174819D01*
X104351905Y-103174819D02*
X104732857Y-103174819D01*
X104732857Y-103174819D02*
X104828095Y-103222438D01*
X104828095Y-103222438D02*
X104875714Y-103270057D01*
X104875714Y-103270057D02*
X104923333Y-103365295D01*
X104923333Y-103365295D02*
X104923333Y-103508152D01*
X104923333Y-103508152D02*
X104875714Y-103603390D01*
X104875714Y-103603390D02*
X104828095Y-103651009D01*
X104828095Y-103651009D02*
X104732857Y-103698628D01*
X104732857Y-103698628D02*
X104351905Y-103698628D01*
X105304286Y-103270057D02*
X105351905Y-103222438D01*
X105351905Y-103222438D02*
X105447143Y-103174819D01*
X105447143Y-103174819D02*
X105685238Y-103174819D01*
X105685238Y-103174819D02*
X105780476Y-103222438D01*
X105780476Y-103222438D02*
X105828095Y-103270057D01*
X105828095Y-103270057D02*
X105875714Y-103365295D01*
X105875714Y-103365295D02*
X105875714Y-103460533D01*
X105875714Y-103460533D02*
X105828095Y-103603390D01*
X105828095Y-103603390D02*
X105256667Y-104174819D01*
X105256667Y-104174819D02*
X105875714Y-104174819D01*
X104833333Y-80084819D02*
X104500000Y-79608628D01*
X104261905Y-80084819D02*
X104261905Y-79084819D01*
X104261905Y-79084819D02*
X104642857Y-79084819D01*
X104642857Y-79084819D02*
X104738095Y-79132438D01*
X104738095Y-79132438D02*
X104785714Y-79180057D01*
X104785714Y-79180057D02*
X104833333Y-79275295D01*
X104833333Y-79275295D02*
X104833333Y-79418152D01*
X104833333Y-79418152D02*
X104785714Y-79513390D01*
X104785714Y-79513390D02*
X104738095Y-79561009D01*
X104738095Y-79561009D02*
X104642857Y-79608628D01*
X104642857Y-79608628D02*
X104261905Y-79608628D01*
X105738095Y-79084819D02*
X105261905Y-79084819D01*
X105261905Y-79084819D02*
X105214286Y-79561009D01*
X105214286Y-79561009D02*
X105261905Y-79513390D01*
X105261905Y-79513390D02*
X105357143Y-79465771D01*
X105357143Y-79465771D02*
X105595238Y-79465771D01*
X105595238Y-79465771D02*
X105690476Y-79513390D01*
X105690476Y-79513390D02*
X105738095Y-79561009D01*
X105738095Y-79561009D02*
X105785714Y-79656247D01*
X105785714Y-79656247D02*
X105785714Y-79894342D01*
X105785714Y-79894342D02*
X105738095Y-79989580D01*
X105738095Y-79989580D02*
X105690476Y-80037200D01*
X105690476Y-80037200D02*
X105595238Y-80084819D01*
X105595238Y-80084819D02*
X105357143Y-80084819D01*
X105357143Y-80084819D02*
X105261905Y-80037200D01*
X105261905Y-80037200D02*
X105214286Y-79989580D01*
X82914285Y-117466009D02*
X83057142Y-117513628D01*
X83057142Y-117513628D02*
X83104761Y-117561247D01*
X83104761Y-117561247D02*
X83152380Y-117656485D01*
X83152380Y-117656485D02*
X83152380Y-117799342D01*
X83152380Y-117799342D02*
X83104761Y-117894580D01*
X83104761Y-117894580D02*
X83057142Y-117942200D01*
X83057142Y-117942200D02*
X82961904Y-117989819D01*
X82961904Y-117989819D02*
X82580952Y-117989819D01*
X82580952Y-117989819D02*
X82580952Y-116989819D01*
X82580952Y-116989819D02*
X82914285Y-116989819D01*
X82914285Y-116989819D02*
X83009523Y-117037438D01*
X83009523Y-117037438D02*
X83057142Y-117085057D01*
X83057142Y-117085057D02*
X83104761Y-117180295D01*
X83104761Y-117180295D02*
X83104761Y-117275533D01*
X83104761Y-117275533D02*
X83057142Y-117370771D01*
X83057142Y-117370771D02*
X83009523Y-117418390D01*
X83009523Y-117418390D02*
X82914285Y-117466009D01*
X82914285Y-117466009D02*
X82580952Y-117466009D01*
X83438095Y-116989819D02*
X84009523Y-116989819D01*
X83723809Y-117989819D02*
X83723809Y-116989819D01*
X84866666Y-117989819D02*
X84295238Y-117989819D01*
X84580952Y-117989819D02*
X84580952Y-116989819D01*
X84580952Y-116989819D02*
X84485714Y-117132676D01*
X84485714Y-117132676D02*
X84390476Y-117227914D01*
X84390476Y-117227914D02*
X84295238Y-117275533D01*
X75598095Y-77214819D02*
X75598095Y-78024342D01*
X75598095Y-78024342D02*
X75645714Y-78119580D01*
X75645714Y-78119580D02*
X75693333Y-78167200D01*
X75693333Y-78167200D02*
X75788571Y-78214819D01*
X75788571Y-78214819D02*
X75979047Y-78214819D01*
X75979047Y-78214819D02*
X76074285Y-78167200D01*
X76074285Y-78167200D02*
X76121904Y-78119580D01*
X76121904Y-78119580D02*
X76169523Y-78024342D01*
X76169523Y-78024342D02*
X76169523Y-77214819D01*
X76598095Y-77310057D02*
X76645714Y-77262438D01*
X76645714Y-77262438D02*
X76740952Y-77214819D01*
X76740952Y-77214819D02*
X76979047Y-77214819D01*
X76979047Y-77214819D02*
X77074285Y-77262438D01*
X77074285Y-77262438D02*
X77121904Y-77310057D01*
X77121904Y-77310057D02*
X77169523Y-77405295D01*
X77169523Y-77405295D02*
X77169523Y-77500533D01*
X77169523Y-77500533D02*
X77121904Y-77643390D01*
X77121904Y-77643390D02*
X76550476Y-78214819D01*
X76550476Y-78214819D02*
X77169523Y-78214819D01*
X79963333Y-94119580D02*
X79915714Y-94167200D01*
X79915714Y-94167200D02*
X79772857Y-94214819D01*
X79772857Y-94214819D02*
X79677619Y-94214819D01*
X79677619Y-94214819D02*
X79534762Y-94167200D01*
X79534762Y-94167200D02*
X79439524Y-94071961D01*
X79439524Y-94071961D02*
X79391905Y-93976723D01*
X79391905Y-93976723D02*
X79344286Y-93786247D01*
X79344286Y-93786247D02*
X79344286Y-93643390D01*
X79344286Y-93643390D02*
X79391905Y-93452914D01*
X79391905Y-93452914D02*
X79439524Y-93357676D01*
X79439524Y-93357676D02*
X79534762Y-93262438D01*
X79534762Y-93262438D02*
X79677619Y-93214819D01*
X79677619Y-93214819D02*
X79772857Y-93214819D01*
X79772857Y-93214819D02*
X79915714Y-93262438D01*
X79915714Y-93262438D02*
X79963333Y-93310057D01*
X80820476Y-93548152D02*
X80820476Y-94214819D01*
X80582381Y-93167200D02*
X80344286Y-93881485D01*
X80344286Y-93881485D02*
X80963333Y-93881485D01*
X103254761Y-92684819D02*
X102921428Y-92208628D01*
X102683333Y-92684819D02*
X102683333Y-91684819D01*
X102683333Y-91684819D02*
X103064285Y-91684819D01*
X103064285Y-91684819D02*
X103159523Y-91732438D01*
X103159523Y-91732438D02*
X103207142Y-91780057D01*
X103207142Y-91780057D02*
X103254761Y-91875295D01*
X103254761Y-91875295D02*
X103254761Y-92018152D01*
X103254761Y-92018152D02*
X103207142Y-92113390D01*
X103207142Y-92113390D02*
X103159523Y-92161009D01*
X103159523Y-92161009D02*
X103064285Y-92208628D01*
X103064285Y-92208628D02*
X102683333Y-92208628D01*
X103540476Y-91684819D02*
X103873809Y-92684819D01*
X103873809Y-92684819D02*
X104207142Y-91684819D01*
X104492857Y-91780057D02*
X104540476Y-91732438D01*
X104540476Y-91732438D02*
X104635714Y-91684819D01*
X104635714Y-91684819D02*
X104873809Y-91684819D01*
X104873809Y-91684819D02*
X104969047Y-91732438D01*
X104969047Y-91732438D02*
X105016666Y-91780057D01*
X105016666Y-91780057D02*
X105064285Y-91875295D01*
X105064285Y-91875295D02*
X105064285Y-91970533D01*
X105064285Y-91970533D02*
X105016666Y-92113390D01*
X105016666Y-92113390D02*
X104445238Y-92684819D01*
X104445238Y-92684819D02*
X105064285Y-92684819D01*
X104416905Y-106214819D02*
X104416905Y-105214819D01*
X104416905Y-105214819D02*
X104655000Y-105214819D01*
X104655000Y-105214819D02*
X104797857Y-105262438D01*
X104797857Y-105262438D02*
X104893095Y-105357676D01*
X104893095Y-105357676D02*
X104940714Y-105452914D01*
X104940714Y-105452914D02*
X104988333Y-105643390D01*
X104988333Y-105643390D02*
X104988333Y-105786247D01*
X104988333Y-105786247D02*
X104940714Y-105976723D01*
X104940714Y-105976723D02*
X104893095Y-106071961D01*
X104893095Y-106071961D02*
X104797857Y-106167200D01*
X104797857Y-106167200D02*
X104655000Y-106214819D01*
X104655000Y-106214819D02*
X104416905Y-106214819D01*
X105369286Y-105310057D02*
X105416905Y-105262438D01*
X105416905Y-105262438D02*
X105512143Y-105214819D01*
X105512143Y-105214819D02*
X105750238Y-105214819D01*
X105750238Y-105214819D02*
X105845476Y-105262438D01*
X105845476Y-105262438D02*
X105893095Y-105310057D01*
X105893095Y-105310057D02*
X105940714Y-105405295D01*
X105940714Y-105405295D02*
X105940714Y-105500533D01*
X105940714Y-105500533D02*
X105893095Y-105643390D01*
X105893095Y-105643390D02*
X105321667Y-106214819D01*
X105321667Y-106214819D02*
X105940714Y-106214819D01*
D11*
%TO.C,Q1*%
X86540000Y-105630000D02*
X86540000Y-102030000D01*
X82090000Y-103830000D02*
G75*
G02*
X83591193Y-101473600I2600000J0D01*
G01*
X83591193Y-106186400D02*
G75*
G02*
X82090000Y-103830000I1098807J2356400D01*
G01*
X85812795Y-101505816D02*
G75*
G02*
X86540000Y-102030000I-1122795J-2324184D01*
G01*
X86540000Y-105630000D02*
G75*
G02*
X85812795Y-106154184I-1850000J1800000D01*
G01*
%TO.C,C1*%
X83085225Y-112895000D02*
X83585225Y-112895000D01*
X83335225Y-112645000D02*
X83335225Y-113145000D01*
X85890000Y-111790000D02*
X85890000Y-116950000D01*
X85930000Y-111790000D02*
X85930000Y-116950000D01*
X85970000Y-111791000D02*
X85970000Y-116949000D01*
X86010000Y-111792000D02*
X86010000Y-116948000D01*
X86050000Y-111794000D02*
X86050000Y-116946000D01*
X86090000Y-111797000D02*
X86090000Y-116943000D01*
X86130000Y-111801000D02*
X86130000Y-113330000D01*
X86130000Y-115410000D02*
X86130000Y-116939000D01*
X86170000Y-111805000D02*
X86170000Y-113330000D01*
X86170000Y-115410000D02*
X86170000Y-116935000D01*
X86210000Y-111809000D02*
X86210000Y-113330000D01*
X86210000Y-115410000D02*
X86210000Y-116931000D01*
X86250000Y-111814000D02*
X86250000Y-113330000D01*
X86250000Y-115410000D02*
X86250000Y-116926000D01*
X86290000Y-111820000D02*
X86290000Y-113330000D01*
X86290000Y-115410000D02*
X86290000Y-116920000D01*
X86330000Y-111827000D02*
X86330000Y-113330000D01*
X86330000Y-115410000D02*
X86330000Y-116913000D01*
X86370000Y-111834000D02*
X86370000Y-113330000D01*
X86370000Y-115410000D02*
X86370000Y-116906000D01*
X86410000Y-111842000D02*
X86410000Y-113330000D01*
X86410000Y-115410000D02*
X86410000Y-116898000D01*
X86450000Y-111850000D02*
X86450000Y-113330000D01*
X86450000Y-115410000D02*
X86450000Y-116890000D01*
X86490000Y-111859000D02*
X86490000Y-113330000D01*
X86490000Y-115410000D02*
X86490000Y-116881000D01*
X86530000Y-111869000D02*
X86530000Y-113330000D01*
X86530000Y-115410000D02*
X86530000Y-116871000D01*
X86570000Y-111879000D02*
X86570000Y-113330000D01*
X86570000Y-115410000D02*
X86570000Y-116861000D01*
X86611000Y-111890000D02*
X86611000Y-113330000D01*
X86611000Y-115410000D02*
X86611000Y-116850000D01*
X86651000Y-111902000D02*
X86651000Y-113330000D01*
X86651000Y-115410000D02*
X86651000Y-116838000D01*
X86691000Y-111915000D02*
X86691000Y-113330000D01*
X86691000Y-115410000D02*
X86691000Y-116825000D01*
X86731000Y-111928000D02*
X86731000Y-113330000D01*
X86731000Y-115410000D02*
X86731000Y-116812000D01*
X86771000Y-111942000D02*
X86771000Y-113330000D01*
X86771000Y-115410000D02*
X86771000Y-116798000D01*
X86811000Y-111956000D02*
X86811000Y-113330000D01*
X86811000Y-115410000D02*
X86811000Y-116784000D01*
X86851000Y-111972000D02*
X86851000Y-113330000D01*
X86851000Y-115410000D02*
X86851000Y-116768000D01*
X86891000Y-111988000D02*
X86891000Y-113330000D01*
X86891000Y-115410000D02*
X86891000Y-116752000D01*
X86931000Y-112005000D02*
X86931000Y-113330000D01*
X86931000Y-115410000D02*
X86931000Y-116735000D01*
X86971000Y-112022000D02*
X86971000Y-113330000D01*
X86971000Y-115410000D02*
X86971000Y-116718000D01*
X87011000Y-112041000D02*
X87011000Y-113330000D01*
X87011000Y-115410000D02*
X87011000Y-116699000D01*
X87051000Y-112060000D02*
X87051000Y-113330000D01*
X87051000Y-115410000D02*
X87051000Y-116680000D01*
X87091000Y-112080000D02*
X87091000Y-113330000D01*
X87091000Y-115410000D02*
X87091000Y-116660000D01*
X87131000Y-112102000D02*
X87131000Y-113330000D01*
X87131000Y-115410000D02*
X87131000Y-116638000D01*
X87171000Y-112123000D02*
X87171000Y-113330000D01*
X87171000Y-115410000D02*
X87171000Y-116617000D01*
X87211000Y-112146000D02*
X87211000Y-113330000D01*
X87211000Y-115410000D02*
X87211000Y-116594000D01*
X87251000Y-112170000D02*
X87251000Y-113330000D01*
X87251000Y-115410000D02*
X87251000Y-116570000D01*
X87291000Y-112195000D02*
X87291000Y-113330000D01*
X87291000Y-115410000D02*
X87291000Y-116545000D01*
X87331000Y-112221000D02*
X87331000Y-113330000D01*
X87331000Y-115410000D02*
X87331000Y-116519000D01*
X87371000Y-112248000D02*
X87371000Y-113330000D01*
X87371000Y-115410000D02*
X87371000Y-116492000D01*
X87411000Y-112275000D02*
X87411000Y-113330000D01*
X87411000Y-115410000D02*
X87411000Y-116465000D01*
X87451000Y-112305000D02*
X87451000Y-113330000D01*
X87451000Y-115410000D02*
X87451000Y-116435000D01*
X87491000Y-112335000D02*
X87491000Y-113330000D01*
X87491000Y-115410000D02*
X87491000Y-116405000D01*
X87531000Y-112366000D02*
X87531000Y-113330000D01*
X87531000Y-115410000D02*
X87531000Y-116374000D01*
X87571000Y-112399000D02*
X87571000Y-113330000D01*
X87571000Y-115410000D02*
X87571000Y-116341000D01*
X87611000Y-112433000D02*
X87611000Y-113330000D01*
X87611000Y-115410000D02*
X87611000Y-116307000D01*
X87651000Y-112469000D02*
X87651000Y-113330000D01*
X87651000Y-115410000D02*
X87651000Y-116271000D01*
X87691000Y-112506000D02*
X87691000Y-113330000D01*
X87691000Y-115410000D02*
X87691000Y-116234000D01*
X87731000Y-112544000D02*
X87731000Y-113330000D01*
X87731000Y-115410000D02*
X87731000Y-116196000D01*
X87771000Y-112585000D02*
X87771000Y-113330000D01*
X87771000Y-115410000D02*
X87771000Y-116155000D01*
X87811000Y-112627000D02*
X87811000Y-113330000D01*
X87811000Y-115410000D02*
X87811000Y-116113000D01*
X87851000Y-112671000D02*
X87851000Y-113330000D01*
X87851000Y-115410000D02*
X87851000Y-116069000D01*
X87891000Y-112717000D02*
X87891000Y-113330000D01*
X87891000Y-115410000D02*
X87891000Y-116023000D01*
X87931000Y-112765000D02*
X87931000Y-113330000D01*
X87931000Y-115410000D02*
X87931000Y-115975000D01*
X87971000Y-112816000D02*
X87971000Y-113330000D01*
X87971000Y-115410000D02*
X87971000Y-115924000D01*
X88011000Y-112870000D02*
X88011000Y-113330000D01*
X88011000Y-115410000D02*
X88011000Y-115870000D01*
X88051000Y-112927000D02*
X88051000Y-113330000D01*
X88051000Y-115410000D02*
X88051000Y-115813000D01*
X88091000Y-112987000D02*
X88091000Y-113330000D01*
X88091000Y-115410000D02*
X88091000Y-115753000D01*
X88131000Y-113051000D02*
X88131000Y-113330000D01*
X88131000Y-115410000D02*
X88131000Y-115689000D01*
X88171000Y-113119000D02*
X88171000Y-113330000D01*
X88171000Y-115410000D02*
X88171000Y-115621000D01*
X88211000Y-113192000D02*
X88211000Y-115548000D01*
X88251000Y-113272000D02*
X88251000Y-115468000D01*
X88291000Y-113359000D02*
X88291000Y-115381000D01*
X88331000Y-113455000D02*
X88331000Y-115285000D01*
X88371000Y-113565000D02*
X88371000Y-115175000D01*
X88411000Y-113693000D02*
X88411000Y-115047000D01*
X88451000Y-113852000D02*
X88451000Y-114888000D01*
X88491000Y-114086000D02*
X88491000Y-114654000D01*
X88510000Y-114370000D02*
G75*
G02*
X83270000Y-114370000I-2620000J0D01*
G01*
X83270000Y-114370000D02*
G75*
G02*
X88510000Y-114370000I2620000J0D01*
G01*
%TO.C,C5*%
X99695225Y-115775000D02*
X100195225Y-115775000D01*
X99945225Y-115525000D02*
X99945225Y-116025000D01*
X102500000Y-114670000D02*
X102500000Y-119830000D01*
X102540000Y-114670000D02*
X102540000Y-119830000D01*
X102580000Y-114671000D02*
X102580000Y-119829000D01*
X102620000Y-114672000D02*
X102620000Y-119828000D01*
X102660000Y-114674000D02*
X102660000Y-119826000D01*
X102700000Y-114677000D02*
X102700000Y-119823000D01*
X102740000Y-114681000D02*
X102740000Y-116210000D01*
X102740000Y-118290000D02*
X102740000Y-119819000D01*
X102780000Y-114685000D02*
X102780000Y-116210000D01*
X102780000Y-118290000D02*
X102780000Y-119815000D01*
X102820000Y-114689000D02*
X102820000Y-116210000D01*
X102820000Y-118290000D02*
X102820000Y-119811000D01*
X102860000Y-114694000D02*
X102860000Y-116210000D01*
X102860000Y-118290000D02*
X102860000Y-119806000D01*
X102900000Y-114700000D02*
X102900000Y-116210000D01*
X102900000Y-118290000D02*
X102900000Y-119800000D01*
X102940000Y-114707000D02*
X102940000Y-116210000D01*
X102940000Y-118290000D02*
X102940000Y-119793000D01*
X102980000Y-114714000D02*
X102980000Y-116210000D01*
X102980000Y-118290000D02*
X102980000Y-119786000D01*
X103020000Y-114722000D02*
X103020000Y-116210000D01*
X103020000Y-118290000D02*
X103020000Y-119778000D01*
X103060000Y-114730000D02*
X103060000Y-116210000D01*
X103060000Y-118290000D02*
X103060000Y-119770000D01*
X103100000Y-114739000D02*
X103100000Y-116210000D01*
X103100000Y-118290000D02*
X103100000Y-119761000D01*
X103140000Y-114749000D02*
X103140000Y-116210000D01*
X103140000Y-118290000D02*
X103140000Y-119751000D01*
X103180000Y-114759000D02*
X103180000Y-116210000D01*
X103180000Y-118290000D02*
X103180000Y-119741000D01*
X103221000Y-114770000D02*
X103221000Y-116210000D01*
X103221000Y-118290000D02*
X103221000Y-119730000D01*
X103261000Y-114782000D02*
X103261000Y-116210000D01*
X103261000Y-118290000D02*
X103261000Y-119718000D01*
X103301000Y-114795000D02*
X103301000Y-116210000D01*
X103301000Y-118290000D02*
X103301000Y-119705000D01*
X103341000Y-114808000D02*
X103341000Y-116210000D01*
X103341000Y-118290000D02*
X103341000Y-119692000D01*
X103381000Y-114822000D02*
X103381000Y-116210000D01*
X103381000Y-118290000D02*
X103381000Y-119678000D01*
X103421000Y-114836000D02*
X103421000Y-116210000D01*
X103421000Y-118290000D02*
X103421000Y-119664000D01*
X103461000Y-114852000D02*
X103461000Y-116210000D01*
X103461000Y-118290000D02*
X103461000Y-119648000D01*
X103501000Y-114868000D02*
X103501000Y-116210000D01*
X103501000Y-118290000D02*
X103501000Y-119632000D01*
X103541000Y-114885000D02*
X103541000Y-116210000D01*
X103541000Y-118290000D02*
X103541000Y-119615000D01*
X103581000Y-114902000D02*
X103581000Y-116210000D01*
X103581000Y-118290000D02*
X103581000Y-119598000D01*
X103621000Y-114921000D02*
X103621000Y-116210000D01*
X103621000Y-118290000D02*
X103621000Y-119579000D01*
X103661000Y-114940000D02*
X103661000Y-116210000D01*
X103661000Y-118290000D02*
X103661000Y-119560000D01*
X103701000Y-114960000D02*
X103701000Y-116210000D01*
X103701000Y-118290000D02*
X103701000Y-119540000D01*
X103741000Y-114982000D02*
X103741000Y-116210000D01*
X103741000Y-118290000D02*
X103741000Y-119518000D01*
X103781000Y-115003000D02*
X103781000Y-116210000D01*
X103781000Y-118290000D02*
X103781000Y-119497000D01*
X103821000Y-115026000D02*
X103821000Y-116210000D01*
X103821000Y-118290000D02*
X103821000Y-119474000D01*
X103861000Y-115050000D02*
X103861000Y-116210000D01*
X103861000Y-118290000D02*
X103861000Y-119450000D01*
X103901000Y-115075000D02*
X103901000Y-116210000D01*
X103901000Y-118290000D02*
X103901000Y-119425000D01*
X103941000Y-115101000D02*
X103941000Y-116210000D01*
X103941000Y-118290000D02*
X103941000Y-119399000D01*
X103981000Y-115128000D02*
X103981000Y-116210000D01*
X103981000Y-118290000D02*
X103981000Y-119372000D01*
X104021000Y-115155000D02*
X104021000Y-116210000D01*
X104021000Y-118290000D02*
X104021000Y-119345000D01*
X104061000Y-115185000D02*
X104061000Y-116210000D01*
X104061000Y-118290000D02*
X104061000Y-119315000D01*
X104101000Y-115215000D02*
X104101000Y-116210000D01*
X104101000Y-118290000D02*
X104101000Y-119285000D01*
X104141000Y-115246000D02*
X104141000Y-116210000D01*
X104141000Y-118290000D02*
X104141000Y-119254000D01*
X104181000Y-115279000D02*
X104181000Y-116210000D01*
X104181000Y-118290000D02*
X104181000Y-119221000D01*
X104221000Y-115313000D02*
X104221000Y-116210000D01*
X104221000Y-118290000D02*
X104221000Y-119187000D01*
X104261000Y-115349000D02*
X104261000Y-116210000D01*
X104261000Y-118290000D02*
X104261000Y-119151000D01*
X104301000Y-115386000D02*
X104301000Y-116210000D01*
X104301000Y-118290000D02*
X104301000Y-119114000D01*
X104341000Y-115424000D02*
X104341000Y-116210000D01*
X104341000Y-118290000D02*
X104341000Y-119076000D01*
X104381000Y-115465000D02*
X104381000Y-116210000D01*
X104381000Y-118290000D02*
X104381000Y-119035000D01*
X104421000Y-115507000D02*
X104421000Y-116210000D01*
X104421000Y-118290000D02*
X104421000Y-118993000D01*
X104461000Y-115551000D02*
X104461000Y-116210000D01*
X104461000Y-118290000D02*
X104461000Y-118949000D01*
X104501000Y-115597000D02*
X104501000Y-116210000D01*
X104501000Y-118290000D02*
X104501000Y-118903000D01*
X104541000Y-115645000D02*
X104541000Y-116210000D01*
X104541000Y-118290000D02*
X104541000Y-118855000D01*
X104581000Y-115696000D02*
X104581000Y-116210000D01*
X104581000Y-118290000D02*
X104581000Y-118804000D01*
X104621000Y-115750000D02*
X104621000Y-116210000D01*
X104621000Y-118290000D02*
X104621000Y-118750000D01*
X104661000Y-115807000D02*
X104661000Y-116210000D01*
X104661000Y-118290000D02*
X104661000Y-118693000D01*
X104701000Y-115867000D02*
X104701000Y-116210000D01*
X104701000Y-118290000D02*
X104701000Y-118633000D01*
X104741000Y-115931000D02*
X104741000Y-116210000D01*
X104741000Y-118290000D02*
X104741000Y-118569000D01*
X104781000Y-115999000D02*
X104781000Y-116210000D01*
X104781000Y-118290000D02*
X104781000Y-118501000D01*
X104821000Y-116072000D02*
X104821000Y-118428000D01*
X104861000Y-116152000D02*
X104861000Y-118348000D01*
X104901000Y-116239000D02*
X104901000Y-118261000D01*
X104941000Y-116335000D02*
X104941000Y-118165000D01*
X104981000Y-116445000D02*
X104981000Y-118055000D01*
X105021000Y-116573000D02*
X105021000Y-117927000D01*
X105061000Y-116732000D02*
X105061000Y-117768000D01*
X105101000Y-116966000D02*
X105101000Y-117534000D01*
X105120000Y-117250000D02*
G75*
G02*
X99880000Y-117250000I-2620000J0D01*
G01*
X99880000Y-117250000D02*
G75*
G02*
X105120000Y-117250000I2620000J0D01*
G01*
%TO.C,C3*%
X87789000Y-96924000D02*
X87789000Y-96356000D01*
X87829000Y-97158000D02*
X87829000Y-96122000D01*
X87869000Y-97317000D02*
X87869000Y-95963000D01*
X87909000Y-97445000D02*
X87909000Y-95835000D01*
X87949000Y-97555000D02*
X87949000Y-95725000D01*
X87989000Y-97651000D02*
X87989000Y-95629000D01*
X88029000Y-97738000D02*
X88029000Y-95542000D01*
X88069000Y-97818000D02*
X88069000Y-95462000D01*
X88109000Y-95600000D02*
X88109000Y-95389000D01*
X88109000Y-97891000D02*
X88109000Y-97680000D01*
X88149000Y-95600000D02*
X88149000Y-95321000D01*
X88149000Y-97959000D02*
X88149000Y-97680000D01*
X88189000Y-95600000D02*
X88189000Y-95257000D01*
X88189000Y-98023000D02*
X88189000Y-97680000D01*
X88229000Y-95600000D02*
X88229000Y-95197000D01*
X88229000Y-98083000D02*
X88229000Y-97680000D01*
X88269000Y-95600000D02*
X88269000Y-95140000D01*
X88269000Y-98140000D02*
X88269000Y-97680000D01*
X88309000Y-95600000D02*
X88309000Y-95086000D01*
X88309000Y-98194000D02*
X88309000Y-97680000D01*
X88349000Y-95600000D02*
X88349000Y-95035000D01*
X88349000Y-98245000D02*
X88349000Y-97680000D01*
X88389000Y-95600000D02*
X88389000Y-94987000D01*
X88389000Y-98293000D02*
X88389000Y-97680000D01*
X88429000Y-95600000D02*
X88429000Y-94941000D01*
X88429000Y-98339000D02*
X88429000Y-97680000D01*
X88469000Y-95600000D02*
X88469000Y-94897000D01*
X88469000Y-98383000D02*
X88469000Y-97680000D01*
X88509000Y-95600000D02*
X88509000Y-94855000D01*
X88509000Y-98425000D02*
X88509000Y-97680000D01*
X88549000Y-95600000D02*
X88549000Y-94814000D01*
X88549000Y-98466000D02*
X88549000Y-97680000D01*
X88589000Y-95600000D02*
X88589000Y-94776000D01*
X88589000Y-98504000D02*
X88589000Y-97680000D01*
X88629000Y-95600000D02*
X88629000Y-94739000D01*
X88629000Y-98541000D02*
X88629000Y-97680000D01*
X88669000Y-95600000D02*
X88669000Y-94703000D01*
X88669000Y-98577000D02*
X88669000Y-97680000D01*
X88709000Y-95600000D02*
X88709000Y-94669000D01*
X88709000Y-98611000D02*
X88709000Y-97680000D01*
X88749000Y-95600000D02*
X88749000Y-94636000D01*
X88749000Y-98644000D02*
X88749000Y-97680000D01*
X88789000Y-95600000D02*
X88789000Y-94605000D01*
X88789000Y-98675000D02*
X88789000Y-97680000D01*
X88829000Y-95600000D02*
X88829000Y-94575000D01*
X88829000Y-98705000D02*
X88829000Y-97680000D01*
X88869000Y-95600000D02*
X88869000Y-94545000D01*
X88869000Y-98735000D02*
X88869000Y-97680000D01*
X88909000Y-95600000D02*
X88909000Y-94518000D01*
X88909000Y-98762000D02*
X88909000Y-97680000D01*
X88949000Y-95600000D02*
X88949000Y-94491000D01*
X88949000Y-98789000D02*
X88949000Y-97680000D01*
X88989000Y-95600000D02*
X88989000Y-94465000D01*
X88989000Y-98815000D02*
X88989000Y-97680000D01*
X89029000Y-95600000D02*
X89029000Y-94440000D01*
X89029000Y-98840000D02*
X89029000Y-97680000D01*
X89069000Y-95600000D02*
X89069000Y-94416000D01*
X89069000Y-98864000D02*
X89069000Y-97680000D01*
X89109000Y-95600000D02*
X89109000Y-94393000D01*
X89109000Y-98887000D02*
X89109000Y-97680000D01*
X89149000Y-95600000D02*
X89149000Y-94372000D01*
X89149000Y-98908000D02*
X89149000Y-97680000D01*
X89189000Y-95600000D02*
X89189000Y-94350000D01*
X89189000Y-98930000D02*
X89189000Y-97680000D01*
X89229000Y-95600000D02*
X89229000Y-94330000D01*
X89229000Y-98950000D02*
X89229000Y-97680000D01*
X89269000Y-95600000D02*
X89269000Y-94311000D01*
X89269000Y-98969000D02*
X89269000Y-97680000D01*
X89309000Y-95600000D02*
X89309000Y-94292000D01*
X89309000Y-98988000D02*
X89309000Y-97680000D01*
X89349000Y-95600000D02*
X89349000Y-94275000D01*
X89349000Y-99005000D02*
X89349000Y-97680000D01*
X89389000Y-95600000D02*
X89389000Y-94258000D01*
X89389000Y-99022000D02*
X89389000Y-97680000D01*
X89429000Y-95600000D02*
X89429000Y-94242000D01*
X89429000Y-99038000D02*
X89429000Y-97680000D01*
X89469000Y-95600000D02*
X89469000Y-94226000D01*
X89469000Y-99054000D02*
X89469000Y-97680000D01*
X89509000Y-95600000D02*
X89509000Y-94212000D01*
X89509000Y-99068000D02*
X89509000Y-97680000D01*
X89549000Y-95600000D02*
X89549000Y-94198000D01*
X89549000Y-99082000D02*
X89549000Y-97680000D01*
X89589000Y-95600000D02*
X89589000Y-94185000D01*
X89589000Y-99095000D02*
X89589000Y-97680000D01*
X89629000Y-95600000D02*
X89629000Y-94172000D01*
X89629000Y-99108000D02*
X89629000Y-97680000D01*
X89669000Y-95600000D02*
X89669000Y-94160000D01*
X89669000Y-99120000D02*
X89669000Y-97680000D01*
X89710000Y-95600000D02*
X89710000Y-94149000D01*
X89710000Y-99131000D02*
X89710000Y-97680000D01*
X89750000Y-95600000D02*
X89750000Y-94139000D01*
X89750000Y-99141000D02*
X89750000Y-97680000D01*
X89790000Y-95600000D02*
X89790000Y-94129000D01*
X89790000Y-99151000D02*
X89790000Y-97680000D01*
X89830000Y-95600000D02*
X89830000Y-94120000D01*
X89830000Y-99160000D02*
X89830000Y-97680000D01*
X89870000Y-95600000D02*
X89870000Y-94112000D01*
X89870000Y-99168000D02*
X89870000Y-97680000D01*
X89910000Y-95600000D02*
X89910000Y-94104000D01*
X89910000Y-99176000D02*
X89910000Y-97680000D01*
X89950000Y-95600000D02*
X89950000Y-94097000D01*
X89950000Y-99183000D02*
X89950000Y-97680000D01*
X89990000Y-95600000D02*
X89990000Y-94090000D01*
X89990000Y-99190000D02*
X89990000Y-97680000D01*
X90030000Y-95600000D02*
X90030000Y-94084000D01*
X90030000Y-99196000D02*
X90030000Y-97680000D01*
X90070000Y-95600000D02*
X90070000Y-94079000D01*
X90070000Y-99201000D02*
X90070000Y-97680000D01*
X90110000Y-95600000D02*
X90110000Y-94075000D01*
X90110000Y-99205000D02*
X90110000Y-97680000D01*
X90150000Y-95600000D02*
X90150000Y-94071000D01*
X90150000Y-99209000D02*
X90150000Y-97680000D01*
X90190000Y-99213000D02*
X90190000Y-94067000D01*
X90230000Y-99216000D02*
X90230000Y-94064000D01*
X90270000Y-99218000D02*
X90270000Y-94062000D01*
X90310000Y-99219000D02*
X90310000Y-94061000D01*
X90350000Y-99220000D02*
X90350000Y-94060000D01*
X90390000Y-99220000D02*
X90390000Y-94060000D01*
X92944775Y-98365000D02*
X92944775Y-97865000D01*
X93194775Y-98115000D02*
X92694775Y-98115000D01*
X93010000Y-96640000D02*
G75*
G02*
X87770000Y-96640000I-2620000J0D01*
G01*
X87770000Y-96640000D02*
G75*
G02*
X93010000Y-96640000I2620000J0D01*
G01*
%TO.C,R6*%
X102230000Y-100220000D02*
X103180000Y-100220000D01*
X103180000Y-99300000D02*
X103180000Y-101140000D01*
X103180000Y-101140000D02*
X107020000Y-101140000D01*
X107020000Y-99300000D02*
X103180000Y-99300000D01*
X107020000Y-101140000D02*
X107020000Y-99300000D01*
X107970000Y-100220000D02*
X107020000Y-100220000D01*
%TO.C,U1*%
X87520000Y-75300000D02*
X87520000Y-93200000D01*
X87520000Y-93200000D02*
X89170000Y-93200000D01*
X91170000Y-93200000D02*
X92820000Y-93200000D01*
X92820000Y-75300000D02*
X87520000Y-75300000D01*
X92820000Y-93200000D02*
X92820000Y-75300000D01*
X89170000Y-93200000D02*
G75*
G02*
X91170000Y-93200000I1000000J0D01*
G01*
%TO.C,RV3*%
X99905000Y-64820000D02*
X99905000Y-74590000D01*
X109675000Y-64820000D02*
X99905000Y-64820000D01*
X109675000Y-64820000D02*
X109675000Y-74590000D01*
X109675000Y-74590000D02*
X99905000Y-74590000D01*
%TO.C,R1*%
X75850000Y-98000000D02*
X76800000Y-98000000D01*
X76800000Y-97080000D02*
X76800000Y-98920000D01*
X76800000Y-98920000D02*
X80640000Y-98920000D01*
X80640000Y-97080000D02*
X76800000Y-97080000D01*
X80640000Y-98920000D02*
X80640000Y-97080000D01*
X81590000Y-98000000D02*
X80640000Y-98000000D01*
%TO.C,U3*%
X89070000Y-100220000D02*
X89070000Y-116110000D01*
X89070000Y-100220000D02*
X99310000Y-100220000D01*
X89070000Y-116110000D02*
X99310000Y-116110000D01*
X91650000Y-116110000D02*
X91650000Y-118650000D01*
X94190000Y-116110000D02*
X94190000Y-118650000D01*
X96730000Y-116110000D02*
X96730000Y-118650000D01*
X99310000Y-100220000D02*
X99310000Y-116110000D01*
D12*
%TO.C,RV1*%
X86450000Y-51210500D02*
X96450000Y-51210500D01*
X86450000Y-53910500D02*
X86450000Y-51210500D01*
X86450000Y-59510500D02*
X86450000Y-63210500D01*
X86450000Y-63210500D02*
X87650000Y-63210500D01*
X96450000Y-51210500D02*
X96450000Y-53910500D01*
X96450000Y-59510500D02*
X96450000Y-63210500D01*
X96450000Y-63210500D02*
X95250000Y-63210500D01*
D13*
X89132000Y-65224500D02*
G75*
G02*
X88932000Y-65224500I-100000J0D01*
G01*
X88932000Y-65224500D02*
G75*
G02*
X89132000Y-65224500I100000J0D01*
G01*
D11*
%TO.C,SW1*%
X75090000Y-110900000D02*
X75090000Y-116040000D01*
X75090000Y-110900000D02*
X77750000Y-110900000D01*
X75090000Y-116040000D02*
X77750000Y-116040000D01*
X76420000Y-108300000D02*
X77750000Y-108300000D01*
X77750000Y-108300000D02*
X77750000Y-109630000D01*
X77750000Y-110900000D02*
X77750000Y-116040000D01*
%TO.C,R2*%
X102220000Y-103720000D02*
X103170000Y-103720000D01*
X103170000Y-102800000D02*
X103170000Y-104640000D01*
X103170000Y-104640000D02*
X107010000Y-104640000D01*
X107010000Y-102800000D02*
X103170000Y-102800000D01*
X107010000Y-104640000D02*
X107010000Y-102800000D01*
X107960000Y-103720000D02*
X107010000Y-103720000D01*
%TO.C,D1*%
X79360000Y-104515000D02*
X79360000Y-101425000D01*
X73810000Y-102970462D02*
G75*
G02*
X79360000Y-101425170I2990000J462D01*
G01*
X79360000Y-104514830D02*
G75*
G02*
X73810000Y-102969538I-2560000J1544830D01*
G01*
X79300000Y-102970000D02*
G75*
G02*
X74300000Y-102970000I-2500000J0D01*
G01*
X74300000Y-102970000D02*
G75*
G02*
X79300000Y-102970000I2500000J0D01*
G01*
%TO.C,R5*%
X102200000Y-79610000D02*
X103150000Y-79610000D01*
X103150000Y-78690000D02*
X103150000Y-80530000D01*
X103150000Y-80530000D02*
X106990000Y-80530000D01*
X106990000Y-78690000D02*
X103150000Y-78690000D01*
X106990000Y-80530000D02*
X106990000Y-78690000D01*
X107940000Y-79610000D02*
X106990000Y-79610000D01*
%TO.C,JP1*%
X79550000Y-112860000D02*
X79550000Y-112260000D01*
X80250000Y-111560000D02*
X81650000Y-111560000D01*
X81650000Y-113560000D02*
X80250000Y-113560000D01*
X82350000Y-112260000D02*
X82350000Y-112860000D01*
X79550000Y-112260000D02*
G75*
G02*
X80250000Y-111560000I700000J0D01*
G01*
X80250000Y-113560000D02*
G75*
G02*
X79550000Y-112860000I0J700000D01*
G01*
X81650000Y-111560000D02*
G75*
G02*
X82350000Y-112260000I1J-699999D01*
G01*
X82350000Y-112860000D02*
G75*
G02*
X81650000Y-113560000I-699999J-1D01*
G01*
%TO.C,BT1*%
X81130000Y-118605000D02*
X82460000Y-118605000D01*
X81130000Y-119935000D02*
X81130000Y-118605000D01*
X83730000Y-118605000D02*
X86330000Y-118605000D01*
X83730000Y-121265000D02*
X83730000Y-118605000D01*
X83730000Y-121265000D02*
X86330000Y-121265000D01*
X86330000Y-121265000D02*
X86330000Y-118605000D01*
%TO.C,U2*%
X50020000Y-75370000D02*
X79220000Y-75370000D01*
X50020000Y-90820000D02*
X50020000Y-75370000D01*
X73556000Y-79576000D02*
X78890000Y-79576000D01*
X73556000Y-90244000D02*
X73556000Y-79576000D01*
X78890000Y-79576000D02*
X78890000Y-79576000D01*
X78890000Y-79576000D02*
X78890000Y-90244000D01*
X78890000Y-90244000D02*
X73556000Y-90244000D01*
X78890000Y-90244000D02*
X78890000Y-90244000D01*
X79220000Y-75370000D02*
X79220000Y-90820000D01*
X79220000Y-90820000D02*
X50020000Y-90820000D01*
X79220000Y-90820000D02*
X79220000Y-90820000D01*
%TO.C,C4*%
X73565225Y-92305000D02*
X74065225Y-92305000D01*
X73815225Y-92055000D02*
X73815225Y-92555000D01*
X76370000Y-91200000D02*
X76370000Y-96360000D01*
X76410000Y-91200000D02*
X76410000Y-96360000D01*
X76450000Y-91201000D02*
X76450000Y-96359000D01*
X76490000Y-91202000D02*
X76490000Y-96358000D01*
X76530000Y-91204000D02*
X76530000Y-96356000D01*
X76570000Y-91207000D02*
X76570000Y-96353000D01*
X76610000Y-91211000D02*
X76610000Y-92740000D01*
X76610000Y-94820000D02*
X76610000Y-96349000D01*
X76650000Y-91215000D02*
X76650000Y-92740000D01*
X76650000Y-94820000D02*
X76650000Y-96345000D01*
X76690000Y-91219000D02*
X76690000Y-92740000D01*
X76690000Y-94820000D02*
X76690000Y-96341000D01*
X76730000Y-91224000D02*
X76730000Y-92740000D01*
X76730000Y-94820000D02*
X76730000Y-96336000D01*
X76770000Y-91230000D02*
X76770000Y-92740000D01*
X76770000Y-94820000D02*
X76770000Y-96330000D01*
X76810000Y-91237000D02*
X76810000Y-92740000D01*
X76810000Y-94820000D02*
X76810000Y-96323000D01*
X76850000Y-91244000D02*
X76850000Y-92740000D01*
X76850000Y-94820000D02*
X76850000Y-96316000D01*
X76890000Y-91252000D02*
X76890000Y-92740000D01*
X76890000Y-94820000D02*
X76890000Y-96308000D01*
X76930000Y-91260000D02*
X76930000Y-92740000D01*
X76930000Y-94820000D02*
X76930000Y-96300000D01*
X76970000Y-91269000D02*
X76970000Y-92740000D01*
X76970000Y-94820000D02*
X76970000Y-96291000D01*
X77010000Y-91279000D02*
X77010000Y-92740000D01*
X77010000Y-94820000D02*
X77010000Y-96281000D01*
X77050000Y-91289000D02*
X77050000Y-92740000D01*
X77050000Y-94820000D02*
X77050000Y-96271000D01*
X77091000Y-91300000D02*
X77091000Y-92740000D01*
X77091000Y-94820000D02*
X77091000Y-96260000D01*
X77131000Y-91312000D02*
X77131000Y-92740000D01*
X77131000Y-94820000D02*
X77131000Y-96248000D01*
X77171000Y-91325000D02*
X77171000Y-92740000D01*
X77171000Y-94820000D02*
X77171000Y-96235000D01*
X77211000Y-91338000D02*
X77211000Y-92740000D01*
X77211000Y-94820000D02*
X77211000Y-96222000D01*
X77251000Y-91352000D02*
X77251000Y-92740000D01*
X77251000Y-94820000D02*
X77251000Y-96208000D01*
X77291000Y-91366000D02*
X77291000Y-92740000D01*
X77291000Y-94820000D02*
X77291000Y-96194000D01*
X77331000Y-91382000D02*
X77331000Y-92740000D01*
X77331000Y-94820000D02*
X77331000Y-96178000D01*
X77371000Y-91398000D02*
X77371000Y-92740000D01*
X77371000Y-94820000D02*
X77371000Y-96162000D01*
X77411000Y-91415000D02*
X77411000Y-92740000D01*
X77411000Y-94820000D02*
X77411000Y-96145000D01*
X77451000Y-91432000D02*
X77451000Y-92740000D01*
X77451000Y-94820000D02*
X77451000Y-96128000D01*
X77491000Y-91451000D02*
X77491000Y-92740000D01*
X77491000Y-94820000D02*
X77491000Y-96109000D01*
X77531000Y-91470000D02*
X77531000Y-92740000D01*
X77531000Y-94820000D02*
X77531000Y-96090000D01*
X77571000Y-91490000D02*
X77571000Y-92740000D01*
X77571000Y-94820000D02*
X77571000Y-96070000D01*
X77611000Y-91512000D02*
X77611000Y-92740000D01*
X77611000Y-94820000D02*
X77611000Y-96048000D01*
X77651000Y-91533000D02*
X77651000Y-92740000D01*
X77651000Y-94820000D02*
X77651000Y-96027000D01*
X77691000Y-91556000D02*
X77691000Y-92740000D01*
X77691000Y-94820000D02*
X77691000Y-96004000D01*
X77731000Y-91580000D02*
X77731000Y-92740000D01*
X77731000Y-94820000D02*
X77731000Y-95980000D01*
X77771000Y-91605000D02*
X77771000Y-92740000D01*
X77771000Y-94820000D02*
X77771000Y-95955000D01*
X77811000Y-91631000D02*
X77811000Y-92740000D01*
X77811000Y-94820000D02*
X77811000Y-95929000D01*
X77851000Y-91658000D02*
X77851000Y-92740000D01*
X77851000Y-94820000D02*
X77851000Y-95902000D01*
X77891000Y-91685000D02*
X77891000Y-92740000D01*
X77891000Y-94820000D02*
X77891000Y-95875000D01*
X77931000Y-91715000D02*
X77931000Y-92740000D01*
X77931000Y-94820000D02*
X77931000Y-95845000D01*
X77971000Y-91745000D02*
X77971000Y-92740000D01*
X77971000Y-94820000D02*
X77971000Y-95815000D01*
X78011000Y-91776000D02*
X78011000Y-92740000D01*
X78011000Y-94820000D02*
X78011000Y-95784000D01*
X78051000Y-91809000D02*
X78051000Y-92740000D01*
X78051000Y-94820000D02*
X78051000Y-95751000D01*
X78091000Y-91843000D02*
X78091000Y-92740000D01*
X78091000Y-94820000D02*
X78091000Y-95717000D01*
X78131000Y-91879000D02*
X78131000Y-92740000D01*
X78131000Y-94820000D02*
X78131000Y-95681000D01*
X78171000Y-91916000D02*
X78171000Y-92740000D01*
X78171000Y-94820000D02*
X78171000Y-95644000D01*
X78211000Y-91954000D02*
X78211000Y-92740000D01*
X78211000Y-94820000D02*
X78211000Y-95606000D01*
X78251000Y-91995000D02*
X78251000Y-92740000D01*
X78251000Y-94820000D02*
X78251000Y-95565000D01*
X78291000Y-92037000D02*
X78291000Y-92740000D01*
X78291000Y-94820000D02*
X78291000Y-95523000D01*
X78331000Y-92081000D02*
X78331000Y-92740000D01*
X78331000Y-94820000D02*
X78331000Y-95479000D01*
X78371000Y-92127000D02*
X78371000Y-92740000D01*
X78371000Y-94820000D02*
X78371000Y-95433000D01*
X78411000Y-92175000D02*
X78411000Y-92740000D01*
X78411000Y-94820000D02*
X78411000Y-95385000D01*
X78451000Y-92226000D02*
X78451000Y-92740000D01*
X78451000Y-94820000D02*
X78451000Y-95334000D01*
X78491000Y-92280000D02*
X78491000Y-92740000D01*
X78491000Y-94820000D02*
X78491000Y-95280000D01*
X78531000Y-92337000D02*
X78531000Y-92740000D01*
X78531000Y-94820000D02*
X78531000Y-95223000D01*
X78571000Y-92397000D02*
X78571000Y-92740000D01*
X78571000Y-94820000D02*
X78571000Y-95163000D01*
X78611000Y-92461000D02*
X78611000Y-92740000D01*
X78611000Y-94820000D02*
X78611000Y-95099000D01*
X78651000Y-92529000D02*
X78651000Y-92740000D01*
X78651000Y-94820000D02*
X78651000Y-95031000D01*
X78691000Y-92602000D02*
X78691000Y-94958000D01*
X78731000Y-92682000D02*
X78731000Y-94878000D01*
X78771000Y-92769000D02*
X78771000Y-94791000D01*
X78811000Y-92865000D02*
X78811000Y-94695000D01*
X78851000Y-92975000D02*
X78851000Y-94585000D01*
X78891000Y-93103000D02*
X78891000Y-94457000D01*
X78931000Y-93262000D02*
X78931000Y-94298000D01*
X78971000Y-93496000D02*
X78971000Y-94064000D01*
X78990000Y-93780000D02*
G75*
G02*
X73750000Y-93780000I-2620000J0D01*
G01*
X73750000Y-93780000D02*
G75*
G02*
X78990000Y-93780000I2620000J0D01*
G01*
D12*
%TO.C,RV2*%
X98850000Y-85730000D02*
X100050000Y-85730000D01*
X98850000Y-89430000D02*
X98850000Y-85730000D01*
X98850000Y-97730000D02*
X98850000Y-95030000D01*
X108850000Y-85730000D02*
X107650000Y-85730000D01*
X108850000Y-89430000D02*
X108850000Y-85730000D01*
X108850000Y-95030000D02*
X108850000Y-97730000D01*
X108850000Y-97730000D02*
X98850000Y-97730000D01*
D13*
X106368000Y-83716000D02*
G75*
G02*
X106168000Y-83716000I-100000J0D01*
G01*
X106168000Y-83716000D02*
G75*
G02*
X106368000Y-83716000I100000J0D01*
G01*
D11*
%TO.C,D2*%
X102595000Y-108175000D02*
X102595000Y-111265000D01*
X102595000Y-108175170D02*
G75*
G02*
X108145000Y-109720462I2560000J-1544830D01*
G01*
X108145000Y-109719538D02*
G75*
G02*
X102595000Y-111264830I-2990000J-462D01*
G01*
X107655000Y-109720000D02*
G75*
G02*
X102655000Y-109720000I-2500000J0D01*
G01*
X102655000Y-109720000D02*
G75*
G02*
X107655000Y-109720000I2500000J0D01*
G01*
%TO.C,JP2*%
X79550000Y-110310000D02*
X79550000Y-109710000D01*
X80250000Y-109010000D02*
X81650000Y-109010000D01*
X81650000Y-111010000D02*
X80250000Y-111010000D01*
X82350000Y-109710000D02*
X82350000Y-110310000D01*
X79550000Y-109710000D02*
G75*
G02*
X80250000Y-109010000I700000J0D01*
G01*
X80250000Y-111010000D02*
G75*
G02*
X79550000Y-110310000I0J700000D01*
G01*
X81650000Y-109010000D02*
G75*
G02*
X82350000Y-109710000I1J-699999D01*
G01*
X82350000Y-110310000D02*
G75*
G02*
X81650000Y-111010000I-699999J-1D01*
G01*
%TD*%
M02*
