%TF.GenerationSoftware,KiCad,Pcbnew,8.0.5*%
%TF.CreationDate,2025-11-20T22:30:18-08:00*%
%TF.ProjectId,transmitter,7472616e-736d-4697-9474-65722e6b6963,rev?*%
%TF.SameCoordinates,Original*%
%TF.FileFunction,Copper,L3,Inr*%
%TF.FilePolarity,Positive*%
%FSLAX46Y46*%
G04 Gerber Fmt 4.6, Leading zero omitted, Abs format (unit mm)*
G04 Created by KiCad (PCBNEW 8.0.5) date 2025-11-20 22:30:18*
%MOMM*%
%LPD*%
G01*
G04 APERTURE LIST*
%TA.AperFunction,ComponentPad*%
%ADD10C,2.900000*%
%TD*%
%TA.AperFunction,ComponentPad*%
%ADD11R,1.700000X1.700000*%
%TD*%
%TA.AperFunction,ComponentPad*%
%ADD12O,1.700000X1.700000*%
%TD*%
%TA.AperFunction,ComponentPad*%
%ADD13R,1.498000X1.498000*%
%TD*%
%TA.AperFunction,ComponentPad*%
%ADD14C,1.498000*%
%TD*%
%TA.AperFunction,ComponentPad*%
%ADD15C,1.440000*%
%TD*%
%TA.AperFunction,ComponentPad*%
%ADD16R,1.508000X1.508000*%
%TD*%
%TA.AperFunction,ComponentPad*%
%ADD17C,1.508000*%
%TD*%
%TA.AperFunction,ComponentPad*%
%ADD18O,2.300000X4.600000*%
%TD*%
%TA.AperFunction,ComponentPad*%
%ADD19C,1.700000*%
%TD*%
%TA.AperFunction,ViaPad*%
%ADD20C,0.600000*%
%TD*%
G04 APERTURE END LIST*
D10*
%TO.N,GND*%
%TO.C,H4*%
X108000000Y-120000000D03*
%TD*%
D11*
%TO.N,GND*%
%TO.C,SW1*%
X78160000Y-111090000D03*
D12*
%TO.N,+9V*%
X78160000Y-113630000D03*
%TO.N,Net-(BT1-+)*%
X78160000Y-116170000D03*
%TD*%
D10*
%TO.N,GND*%
%TO.C,H1*%
X75910000Y-71780000D03*
%TD*%
D13*
%TO.N,Net-(C8-Pad2)*%
%TO.C,SW2*%
X86265000Y-95455000D03*
D14*
X92765000Y-95455000D03*
%TO.N,GND*%
X86265000Y-99955000D03*
X92765000Y-99955000D03*
%TD*%
D15*
%TO.N,+3.3V*%
%TO.C,RV3*%
X102200000Y-61680000D03*
%TO.N,STEER_TRIM*%
X104740000Y-64220000D03*
%TO.N,GND*%
X107280000Y-61680000D03*
%TD*%
%TO.N,+3.3V*%
%TO.C,RV4*%
X76710000Y-61680000D03*
%TO.N,SPEED_TRIM*%
X79250000Y-64220000D03*
%TO.N,GND*%
X81790000Y-61680000D03*
%TD*%
D16*
%TO.N,+3.3V*%
%TO.C,RV1*%
X88950000Y-63710500D03*
D17*
%TO.N,STEER*%
X91450000Y-63710500D03*
%TO.N,GND*%
X93950000Y-63710500D03*
D18*
X87050000Y-56710500D03*
X95850000Y-56710500D03*
%TD*%
D10*
%TO.N,GND*%
%TO.C,H2*%
X107960000Y-53500000D03*
%TD*%
D11*
%TO.N,Net-(BT1-+)*%
%TO.C,BT1*%
X91460000Y-119790000D03*
D12*
%TO.N,GND*%
X94000000Y-119790000D03*
%TD*%
D11*
%TO.N,GND*%
%TO.C,U2*%
X77620000Y-88720000D03*
D19*
%TO.N,+3.3V*%
X75080000Y-88720000D03*
%TO.N,CE*%
X77620000Y-86180000D03*
%TO.N,CSN*%
X75080000Y-86180000D03*
%TO.N,SCK*%
X77620000Y-83640000D03*
%TO.N,MOSI*%
X75080000Y-83640000D03*
%TO.N,MISO*%
X77620000Y-81100000D03*
%TO.N,IRQ*%
X75080000Y-81100000D03*
%TD*%
D11*
%TO.N,TXD*%
%TO.C,J2*%
X82860000Y-72410000D03*
D12*
%TO.N,RXD*%
X82860000Y-74950000D03*
%TO.N,GND*%
X82860000Y-77490000D03*
%TD*%
D11*
%TO.N,~{MCLR}*%
%TO.C,J1*%
X108620000Y-72965000D03*
D12*
%TO.N,+3.3V*%
X106080000Y-72965000D03*
%TO.N,GND*%
X103540000Y-72965000D03*
%TO.N,PGData*%
X101000000Y-72965000D03*
%TO.N,PGClk*%
X98460000Y-72965000D03*
%TD*%
D16*
%TO.N,+3.3V*%
%TO.C,RV2*%
X106350000Y-85230000D03*
D17*
%TO.N,SPEED*%
X103850000Y-85230000D03*
%TO.N,GND*%
X101350000Y-85230000D03*
D18*
X108250000Y-92230000D03*
X99450000Y-92230000D03*
%TD*%
D20*
%TO.N,GND*%
X94920000Y-115700000D03*
X103090000Y-108380000D03*
X84430000Y-110550000D03*
X96900000Y-111940000D03*
X82610000Y-82720000D03*
X95363802Y-81713802D03*
X89930000Y-94295000D03*
X82830000Y-88540000D03*
X82240000Y-113240000D03*
X94340000Y-84440000D03*
X104450000Y-105140000D03*
%TO.N,+3.3V*%
X82750000Y-89440000D03*
X104470000Y-108350000D03*
X95430000Y-80870000D03*
X85780000Y-93480000D03*
X97720000Y-116040000D03*
X96270000Y-112850000D03*
%TO.N,LED*%
X102830000Y-101780000D03*
X91370000Y-85690000D03*
%TO.N,SPEED*%
X94487509Y-87377510D03*
%TO.N,CSN*%
X83400000Y-85730000D03*
%TD*%
%TA.AperFunction,Conductor*%
%TO.N,+3.3V*%
G36*
X110442539Y-50930185D02*
G01*
X110488294Y-50982989D01*
X110499500Y-51034500D01*
X110499500Y-122375500D01*
X110479815Y-122442539D01*
X110427011Y-122488294D01*
X110375500Y-122499500D01*
X73624500Y-122499500D01*
X73557461Y-122479815D01*
X73511706Y-122427011D01*
X73500500Y-122375500D01*
X73500500Y-118892135D01*
X90109500Y-118892135D01*
X90109500Y-120687870D01*
X90109501Y-120687876D01*
X90115908Y-120747483D01*
X90166202Y-120882328D01*
X90166206Y-120882335D01*
X90252452Y-120997544D01*
X90252455Y-120997547D01*
X90367664Y-121083793D01*
X90367671Y-121083797D01*
X90502517Y-121134091D01*
X90502516Y-121134091D01*
X90509444Y-121134835D01*
X90562127Y-121140500D01*
X92357872Y-121140499D01*
X92417483Y-121134091D01*
X92552331Y-121083796D01*
X92667546Y-120997546D01*
X92753796Y-120882331D01*
X92802810Y-120750916D01*
X92844681Y-120694984D01*
X92910145Y-120670566D01*
X92978418Y-120685417D01*
X93006673Y-120706569D01*
X93128599Y-120828495D01*
X93225384Y-120896265D01*
X93322165Y-120964032D01*
X93322167Y-120964033D01*
X93322170Y-120964035D01*
X93536337Y-121063903D01*
X93764592Y-121125063D01*
X93941034Y-121140500D01*
X93999999Y-121145659D01*
X94000000Y-121145659D01*
X94000001Y-121145659D01*
X94058966Y-121140500D01*
X94235408Y-121125063D01*
X94463663Y-121063903D01*
X94677830Y-120964035D01*
X94871401Y-120828495D01*
X95038495Y-120661401D01*
X95174035Y-120467830D01*
X95273903Y-120253663D01*
X95335063Y-120025408D01*
X95337286Y-119999998D01*
X106044518Y-119999998D01*
X106044518Y-120000001D01*
X106064422Y-120278299D01*
X106123727Y-120550916D01*
X106123729Y-120550923D01*
X106174807Y-120687870D01*
X106221231Y-120812338D01*
X106221233Y-120812342D01*
X106354940Y-121057207D01*
X106354945Y-121057215D01*
X106522138Y-121280560D01*
X106522154Y-121280578D01*
X106719421Y-121477845D01*
X106719439Y-121477861D01*
X106942784Y-121645054D01*
X106942792Y-121645059D01*
X107187657Y-121778766D01*
X107187661Y-121778768D01*
X107187663Y-121778769D01*
X107449077Y-121876271D01*
X107585391Y-121905924D01*
X107721700Y-121935577D01*
X107721702Y-121935577D01*
X107721706Y-121935578D01*
X107969014Y-121953265D01*
X107999999Y-121955482D01*
X108000000Y-121955482D01*
X108000001Y-121955482D01*
X108027881Y-121953487D01*
X108278294Y-121935578D01*
X108550923Y-121876271D01*
X108812337Y-121778769D01*
X109057213Y-121645056D01*
X109280568Y-121477855D01*
X109477855Y-121280568D01*
X109645056Y-121057213D01*
X109778769Y-120812337D01*
X109876271Y-120550923D01*
X109935578Y-120278294D01*
X109955482Y-120000000D01*
X109935578Y-119721706D01*
X109876271Y-119449077D01*
X109778769Y-119187663D01*
X109645056Y-118942787D01*
X109614471Y-118901930D01*
X109477861Y-118719439D01*
X109477845Y-118719421D01*
X109280578Y-118522154D01*
X109280560Y-118522138D01*
X109057215Y-118354945D01*
X109057207Y-118354940D01*
X108812342Y-118221233D01*
X108812338Y-118221231D01*
X108713230Y-118184266D01*
X108550923Y-118123729D01*
X108550919Y-118123728D01*
X108550916Y-118123727D01*
X108278299Y-118064422D01*
X108000001Y-118044518D01*
X107999999Y-118044518D01*
X107721700Y-118064422D01*
X107449083Y-118123727D01*
X107449078Y-118123728D01*
X107449077Y-118123729D01*
X107385875Y-118147301D01*
X107187661Y-118221231D01*
X107187657Y-118221233D01*
X106942792Y-118354940D01*
X106942784Y-118354945D01*
X106719439Y-118522138D01*
X106719421Y-118522154D01*
X106522154Y-118719421D01*
X106522138Y-118719439D01*
X106354945Y-118942784D01*
X106354940Y-118942792D01*
X106221233Y-119187657D01*
X106221231Y-119187661D01*
X106123727Y-119449083D01*
X106064422Y-119721700D01*
X106044518Y-119999998D01*
X95337286Y-119999998D01*
X95355659Y-119790000D01*
X95335063Y-119554592D01*
X95273903Y-119326337D01*
X95174035Y-119112171D01*
X95055430Y-118942784D01*
X95038494Y-118918597D01*
X94871402Y-118751506D01*
X94871395Y-118751501D01*
X94677834Y-118615967D01*
X94677830Y-118615965D01*
X94677828Y-118615964D01*
X94463663Y-118516097D01*
X94463659Y-118516096D01*
X94463655Y-118516094D01*
X94235413Y-118454938D01*
X94235403Y-118454936D01*
X94000001Y-118434341D01*
X93999999Y-118434341D01*
X93764596Y-118454936D01*
X93764586Y-118454938D01*
X93536344Y-118516094D01*
X93536335Y-118516098D01*
X93322171Y-118615964D01*
X93322169Y-118615965D01*
X93128600Y-118751503D01*
X93006673Y-118873430D01*
X92945350Y-118906914D01*
X92875658Y-118901930D01*
X92819725Y-118860058D01*
X92802810Y-118829081D01*
X92753797Y-118697671D01*
X92753793Y-118697664D01*
X92667547Y-118582455D01*
X92667544Y-118582452D01*
X92552335Y-118496206D01*
X92552328Y-118496202D01*
X92417482Y-118445908D01*
X92417483Y-118445908D01*
X92357883Y-118439501D01*
X92357881Y-118439500D01*
X92357873Y-118439500D01*
X92357864Y-118439500D01*
X90562129Y-118439500D01*
X90562123Y-118439501D01*
X90502516Y-118445908D01*
X90367671Y-118496202D01*
X90367664Y-118496206D01*
X90252455Y-118582452D01*
X90252452Y-118582455D01*
X90166206Y-118697664D01*
X90166202Y-118697671D01*
X90115908Y-118832517D01*
X90109501Y-118892116D01*
X90109500Y-118892135D01*
X73500500Y-118892135D01*
X73500500Y-113629999D01*
X76804341Y-113629999D01*
X76804341Y-113630000D01*
X76824936Y-113865403D01*
X76824938Y-113865413D01*
X76886094Y-114093655D01*
X76886096Y-114093659D01*
X76886097Y-114093663D01*
X76985965Y-114307830D01*
X76985967Y-114307834D01*
X77121501Y-114501395D01*
X77121506Y-114501402D01*
X77288597Y-114668493D01*
X77288603Y-114668498D01*
X77474158Y-114798425D01*
X77517783Y-114853002D01*
X77524977Y-114922500D01*
X77493454Y-114984855D01*
X77474158Y-115001575D01*
X77288597Y-115131505D01*
X77121505Y-115298597D01*
X76985965Y-115492169D01*
X76985964Y-115492171D01*
X76886098Y-115706335D01*
X76886094Y-115706344D01*
X76824938Y-115934586D01*
X76824936Y-115934596D01*
X76804341Y-116169999D01*
X76804341Y-116170000D01*
X76824936Y-116405403D01*
X76824938Y-116405413D01*
X76886094Y-116633655D01*
X76886096Y-116633659D01*
X76886097Y-116633663D01*
X76985965Y-116847830D01*
X76985967Y-116847834D01*
X77094281Y-117002521D01*
X77121505Y-117041401D01*
X77288599Y-117208495D01*
X77385384Y-117276265D01*
X77482165Y-117344032D01*
X77482167Y-117344033D01*
X77482170Y-117344035D01*
X77696337Y-117443903D01*
X77924592Y-117505063D01*
X78112918Y-117521539D01*
X78159999Y-117525659D01*
X78160000Y-117525659D01*
X78160001Y-117525659D01*
X78199234Y-117522226D01*
X78395408Y-117505063D01*
X78623663Y-117443903D01*
X78837830Y-117344035D01*
X79031401Y-117208495D01*
X79198495Y-117041401D01*
X79334035Y-116847830D01*
X79433903Y-116633663D01*
X79495063Y-116405408D01*
X79515659Y-116170000D01*
X79495063Y-115934592D01*
X79433903Y-115706337D01*
X79430946Y-115699996D01*
X94114435Y-115699996D01*
X94114435Y-115700003D01*
X94134630Y-115879249D01*
X94134631Y-115879254D01*
X94194211Y-116049523D01*
X94269912Y-116169999D01*
X94290184Y-116202262D01*
X94417738Y-116329816D01*
X94570478Y-116425789D01*
X94740745Y-116485368D01*
X94740750Y-116485369D01*
X94919996Y-116505565D01*
X94920000Y-116505565D01*
X94920004Y-116505565D01*
X95099249Y-116485369D01*
X95099252Y-116485368D01*
X95099255Y-116485368D01*
X95269522Y-116425789D01*
X95422262Y-116329816D01*
X95549816Y-116202262D01*
X95645789Y-116049522D01*
X95705368Y-115879255D01*
X95705369Y-115879249D01*
X95725565Y-115700003D01*
X95725565Y-115699996D01*
X95705369Y-115520750D01*
X95705368Y-115520745D01*
X95645789Y-115350478D01*
X95549816Y-115197738D01*
X95422262Y-115070184D01*
X95313072Y-115001575D01*
X95269523Y-114974211D01*
X95099254Y-114914631D01*
X95099249Y-114914630D01*
X94920004Y-114894435D01*
X94919996Y-114894435D01*
X94740750Y-114914630D01*
X94740745Y-114914631D01*
X94570476Y-114974211D01*
X94417737Y-115070184D01*
X94290184Y-115197737D01*
X94194211Y-115350476D01*
X94134631Y-115520745D01*
X94134630Y-115520750D01*
X94114435Y-115699996D01*
X79430946Y-115699996D01*
X79334035Y-115492171D01*
X79198495Y-115298599D01*
X79198494Y-115298597D01*
X79031402Y-115131506D01*
X79031396Y-115131501D01*
X78845842Y-115001575D01*
X78802217Y-114946998D01*
X78795023Y-114877500D01*
X78826546Y-114815145D01*
X78845842Y-114798425D01*
X78868026Y-114782891D01*
X79031401Y-114668495D01*
X79198495Y-114501401D01*
X79334035Y-114307830D01*
X79433903Y-114093663D01*
X79495063Y-113865408D01*
X79515659Y-113630000D01*
X79495063Y-113394592D01*
X79453640Y-113239996D01*
X81434435Y-113239996D01*
X81434435Y-113240003D01*
X81454630Y-113419249D01*
X81454631Y-113419254D01*
X81514211Y-113589523D01*
X81539644Y-113629999D01*
X81610184Y-113742262D01*
X81737738Y-113869816D01*
X81890478Y-113965789D01*
X82060745Y-114025368D01*
X82060750Y-114025369D01*
X82239996Y-114045565D01*
X82240000Y-114045565D01*
X82240004Y-114045565D01*
X82419249Y-114025369D01*
X82419252Y-114025368D01*
X82419255Y-114025368D01*
X82589522Y-113965789D01*
X82742262Y-113869816D01*
X82869816Y-113742262D01*
X82965789Y-113589522D01*
X83025368Y-113419255D01*
X83025369Y-113419249D01*
X83045565Y-113240003D01*
X83045565Y-113239996D01*
X83025369Y-113060750D01*
X83025368Y-113060745D01*
X82987376Y-112952171D01*
X82965789Y-112890478D01*
X82869816Y-112737738D01*
X82742262Y-112610184D01*
X82678017Y-112569816D01*
X82589523Y-112514211D01*
X82419254Y-112454631D01*
X82419249Y-112454630D01*
X82240004Y-112434435D01*
X82239996Y-112434435D01*
X82060750Y-112454630D01*
X82060745Y-112454631D01*
X81890476Y-112514211D01*
X81737737Y-112610184D01*
X81610184Y-112737737D01*
X81514211Y-112890476D01*
X81454631Y-113060745D01*
X81454630Y-113060750D01*
X81434435Y-113239996D01*
X79453640Y-113239996D01*
X79433903Y-113166337D01*
X79334035Y-112952171D01*
X79290837Y-112890478D01*
X79198496Y-112758600D01*
X79165264Y-112725368D01*
X79076567Y-112636671D01*
X79043084Y-112575351D01*
X79048068Y-112505659D01*
X79089939Y-112449725D01*
X79120915Y-112432810D01*
X79252331Y-112383796D01*
X79367546Y-112297546D01*
X79453796Y-112182331D01*
X79504091Y-112047483D01*
X79510500Y-111987873D01*
X79510500Y-111939996D01*
X96094435Y-111939996D01*
X96094435Y-111940003D01*
X96114630Y-112119249D01*
X96114631Y-112119254D01*
X96174211Y-112289523D01*
X96179253Y-112297547D01*
X96270184Y-112442262D01*
X96397738Y-112569816D01*
X96550478Y-112665789D01*
X96720745Y-112725368D01*
X96720750Y-112725369D01*
X96899996Y-112745565D01*
X96900000Y-112745565D01*
X96900004Y-112745565D01*
X97079249Y-112725369D01*
X97079252Y-112725368D01*
X97079255Y-112725368D01*
X97249522Y-112665789D01*
X97402262Y-112569816D01*
X97529816Y-112442262D01*
X97625789Y-112289522D01*
X97685368Y-112119255D01*
X97700171Y-111987873D01*
X97705565Y-111940003D01*
X97705565Y-111939996D01*
X97685369Y-111760750D01*
X97685368Y-111760745D01*
X97625788Y-111590476D01*
X97529815Y-111437737D01*
X97402262Y-111310184D01*
X97249523Y-111214211D01*
X97079254Y-111154631D01*
X97079249Y-111154630D01*
X96900004Y-111134435D01*
X96899996Y-111134435D01*
X96720750Y-111154630D01*
X96720745Y-111154631D01*
X96550476Y-111214211D01*
X96397737Y-111310184D01*
X96270184Y-111437737D01*
X96174211Y-111590476D01*
X96114631Y-111760745D01*
X96114630Y-111760750D01*
X96094435Y-111939996D01*
X79510500Y-111939996D01*
X79510499Y-110549996D01*
X83624435Y-110549996D01*
X83624435Y-110550003D01*
X83644630Y-110729249D01*
X83644631Y-110729254D01*
X83704211Y-110899523D01*
X83800184Y-111052262D01*
X83927738Y-111179816D01*
X84080478Y-111275789D01*
X84250745Y-111335368D01*
X84250750Y-111335369D01*
X84429996Y-111355565D01*
X84430000Y-111355565D01*
X84430004Y-111355565D01*
X84609249Y-111335369D01*
X84609252Y-111335368D01*
X84609255Y-111335368D01*
X84779522Y-111275789D01*
X84932262Y-111179816D01*
X85059816Y-111052262D01*
X85155789Y-110899522D01*
X85215368Y-110729255D01*
X85235565Y-110550000D01*
X85215368Y-110370745D01*
X85155789Y-110200478D01*
X85150542Y-110192128D01*
X85059815Y-110047737D01*
X84932262Y-109920184D01*
X84779523Y-109824211D01*
X84609254Y-109764631D01*
X84609249Y-109764630D01*
X84430004Y-109744435D01*
X84429996Y-109744435D01*
X84250750Y-109764630D01*
X84250745Y-109764631D01*
X84080476Y-109824211D01*
X83927737Y-109920184D01*
X83800184Y-110047737D01*
X83704211Y-110200476D01*
X83644631Y-110370745D01*
X83644630Y-110370750D01*
X83624435Y-110549996D01*
X79510499Y-110549996D01*
X79510499Y-110192128D01*
X79504091Y-110132517D01*
X79453796Y-109997669D01*
X79453795Y-109997668D01*
X79453793Y-109997664D01*
X79367547Y-109882455D01*
X79367544Y-109882452D01*
X79252335Y-109796206D01*
X79252328Y-109796202D01*
X79117482Y-109745908D01*
X79117483Y-109745908D01*
X79057883Y-109739501D01*
X79057881Y-109739500D01*
X79057873Y-109739500D01*
X79057864Y-109739500D01*
X77262129Y-109739500D01*
X77262123Y-109739501D01*
X77202516Y-109745908D01*
X77067671Y-109796202D01*
X77067664Y-109796206D01*
X76952455Y-109882452D01*
X76952452Y-109882455D01*
X76866206Y-109997664D01*
X76866202Y-109997671D01*
X76815908Y-110132517D01*
X76809501Y-110192116D01*
X76809501Y-110192123D01*
X76809500Y-110192135D01*
X76809500Y-111987870D01*
X76809501Y-111987876D01*
X76815908Y-112047483D01*
X76866202Y-112182328D01*
X76866206Y-112182335D01*
X76952452Y-112297544D01*
X76952455Y-112297547D01*
X77067664Y-112383793D01*
X77067671Y-112383797D01*
X77199081Y-112432810D01*
X77255015Y-112474681D01*
X77279432Y-112540145D01*
X77264580Y-112608418D01*
X77243430Y-112636673D01*
X77121503Y-112758600D01*
X76985965Y-112952169D01*
X76985964Y-112952171D01*
X76886098Y-113166335D01*
X76886094Y-113166344D01*
X76824938Y-113394586D01*
X76824936Y-113394596D01*
X76804341Y-113629999D01*
X73500500Y-113629999D01*
X73500500Y-108379996D01*
X102284435Y-108379996D01*
X102284435Y-108380003D01*
X102304630Y-108559249D01*
X102304631Y-108559254D01*
X102364211Y-108729523D01*
X102460184Y-108882262D01*
X102587738Y-109009816D01*
X102740478Y-109105789D01*
X102910745Y-109165368D01*
X102910750Y-109165369D01*
X103089996Y-109185565D01*
X103090000Y-109185565D01*
X103090004Y-109185565D01*
X103269249Y-109165369D01*
X103269252Y-109165368D01*
X103269255Y-109165368D01*
X103439522Y-109105789D01*
X103592262Y-109009816D01*
X103719816Y-108882262D01*
X103815789Y-108729522D01*
X103875368Y-108559255D01*
X103895565Y-108380000D01*
X103875368Y-108200745D01*
X103815789Y-108030478D01*
X103719816Y-107877738D01*
X103592262Y-107750184D01*
X103439523Y-107654211D01*
X103269254Y-107594631D01*
X103269249Y-107594630D01*
X103090004Y-107574435D01*
X103089996Y-107574435D01*
X102910750Y-107594630D01*
X102910745Y-107594631D01*
X102740476Y-107654211D01*
X102587737Y-107750184D01*
X102460184Y-107877737D01*
X102364211Y-108030476D01*
X102304631Y-108200745D01*
X102304630Y-108200750D01*
X102284435Y-108379996D01*
X73500500Y-108379996D01*
X73500500Y-105139996D01*
X103644435Y-105139996D01*
X103644435Y-105140003D01*
X103664630Y-105319249D01*
X103664631Y-105319254D01*
X103724211Y-105489523D01*
X103820184Y-105642262D01*
X103947738Y-105769816D01*
X104100478Y-105865789D01*
X104270745Y-105925368D01*
X104270750Y-105925369D01*
X104449996Y-105945565D01*
X104450000Y-105945565D01*
X104450004Y-105945565D01*
X104629249Y-105925369D01*
X104629252Y-105925368D01*
X104629255Y-105925368D01*
X104799522Y-105865789D01*
X104952262Y-105769816D01*
X105079816Y-105642262D01*
X105175789Y-105489522D01*
X105235368Y-105319255D01*
X105255565Y-105140000D01*
X105235368Y-104960745D01*
X105175789Y-104790478D01*
X105079816Y-104637738D01*
X104952262Y-104510184D01*
X104799523Y-104414211D01*
X104629254Y-104354631D01*
X104629249Y-104354630D01*
X104450004Y-104334435D01*
X104449996Y-104334435D01*
X104270750Y-104354630D01*
X104270745Y-104354631D01*
X104100476Y-104414211D01*
X103947737Y-104510184D01*
X103820184Y-104637737D01*
X103724211Y-104790476D01*
X103664631Y-104960745D01*
X103664630Y-104960750D01*
X103644435Y-105139996D01*
X73500500Y-105139996D01*
X73500500Y-101779996D01*
X102024435Y-101779996D01*
X102024435Y-101780003D01*
X102044630Y-101959249D01*
X102044631Y-101959254D01*
X102104211Y-102129523D01*
X102200184Y-102282262D01*
X102327738Y-102409816D01*
X102480478Y-102505789D01*
X102650745Y-102565368D01*
X102650750Y-102565369D01*
X102829996Y-102585565D01*
X102830000Y-102585565D01*
X102830004Y-102585565D01*
X103009249Y-102565369D01*
X103009252Y-102565368D01*
X103009255Y-102565368D01*
X103179522Y-102505789D01*
X103332262Y-102409816D01*
X103459816Y-102282262D01*
X103555789Y-102129522D01*
X103615368Y-101959255D01*
X103635565Y-101780000D01*
X103615368Y-101600745D01*
X103555789Y-101430478D01*
X103459816Y-101277738D01*
X103332262Y-101150184D01*
X103305915Y-101133629D01*
X103179523Y-101054211D01*
X103009254Y-100994631D01*
X103009249Y-100994630D01*
X102830004Y-100974435D01*
X102829996Y-100974435D01*
X102650750Y-100994630D01*
X102650745Y-100994631D01*
X102480476Y-101054211D01*
X102327737Y-101150184D01*
X102200184Y-101277737D01*
X102104211Y-101430476D01*
X102044631Y-101600745D01*
X102044630Y-101600750D01*
X102024435Y-101779996D01*
X73500500Y-101779996D01*
X73500500Y-99954998D01*
X85010727Y-99954998D01*
X85010727Y-99955001D01*
X85029781Y-100172796D01*
X85029783Y-100172807D01*
X85086366Y-100383979D01*
X85086368Y-100383983D01*
X85086369Y-100383987D01*
X85178768Y-100582137D01*
X85178770Y-100582141D01*
X85304167Y-100761226D01*
X85304172Y-100761232D01*
X85458767Y-100915827D01*
X85458773Y-100915832D01*
X85637858Y-101041229D01*
X85637860Y-101041230D01*
X85637863Y-101041232D01*
X85836013Y-101133631D01*
X86047198Y-101190218D01*
X86202770Y-101203828D01*
X86264998Y-101209273D01*
X86265000Y-101209273D01*
X86265002Y-101209273D01*
X86319450Y-101204509D01*
X86482802Y-101190218D01*
X86693987Y-101133631D01*
X86892137Y-101041232D01*
X87071231Y-100915829D01*
X87225829Y-100761231D01*
X87351232Y-100582137D01*
X87443631Y-100383987D01*
X87500218Y-100172802D01*
X87519273Y-99955000D01*
X87519273Y-99954998D01*
X91510727Y-99954998D01*
X91510727Y-99955001D01*
X91529781Y-100172796D01*
X91529783Y-100172807D01*
X91586366Y-100383979D01*
X91586368Y-100383983D01*
X91586369Y-100383987D01*
X91678768Y-100582137D01*
X91678770Y-100582141D01*
X91804167Y-100761226D01*
X91804172Y-100761232D01*
X91958767Y-100915827D01*
X91958773Y-100915832D01*
X92137858Y-101041229D01*
X92137860Y-101041230D01*
X92137863Y-101041232D01*
X92336013Y-101133631D01*
X92547198Y-101190218D01*
X92702770Y-101203828D01*
X92764998Y-101209273D01*
X92765000Y-101209273D01*
X92765002Y-101209273D01*
X92819450Y-101204509D01*
X92982802Y-101190218D01*
X93193987Y-101133631D01*
X93392137Y-101041232D01*
X93571231Y-100915829D01*
X93725829Y-100761231D01*
X93851232Y-100582137D01*
X93943631Y-100383987D01*
X94000218Y-100172802D01*
X94019273Y-99955000D01*
X94000218Y-99737198D01*
X93943631Y-99526013D01*
X93851232Y-99327864D01*
X93725829Y-99148769D01*
X93571231Y-98994171D01*
X93571227Y-98994168D01*
X93571226Y-98994167D01*
X93392141Y-98868770D01*
X93392137Y-98868768D01*
X93392133Y-98868766D01*
X93193987Y-98776369D01*
X93193983Y-98776368D01*
X93193979Y-98776366D01*
X92982807Y-98719783D01*
X92982803Y-98719782D01*
X92982802Y-98719782D01*
X92982801Y-98719781D01*
X92982796Y-98719781D01*
X92765002Y-98700727D01*
X92764998Y-98700727D01*
X92547203Y-98719781D01*
X92547192Y-98719783D01*
X92336020Y-98776366D01*
X92336011Y-98776370D01*
X92137866Y-98868766D01*
X91958766Y-98994172D01*
X91804172Y-99148766D01*
X91678766Y-99327866D01*
X91586370Y-99526011D01*
X91586366Y-99526020D01*
X91529783Y-99737192D01*
X91529781Y-99737203D01*
X91510727Y-99954998D01*
X87519273Y-99954998D01*
X87500218Y-99737198D01*
X87443631Y-99526013D01*
X87351232Y-99327864D01*
X87225829Y-99148769D01*
X87071231Y-98994171D01*
X87071227Y-98994168D01*
X87071226Y-98994167D01*
X86892141Y-98868770D01*
X86892137Y-98868768D01*
X86892133Y-98868766D01*
X86693987Y-98776369D01*
X86693983Y-98776368D01*
X86693979Y-98776366D01*
X86482807Y-98719783D01*
X86482803Y-98719782D01*
X86482802Y-98719782D01*
X86482801Y-98719781D01*
X86482796Y-98719781D01*
X86265002Y-98700727D01*
X86264998Y-98700727D01*
X86047203Y-98719781D01*
X86047192Y-98719783D01*
X85836020Y-98776366D01*
X85836011Y-98776370D01*
X85637866Y-98868766D01*
X85458766Y-98994172D01*
X85304172Y-99148766D01*
X85178766Y-99327866D01*
X85086370Y-99526011D01*
X85086366Y-99526020D01*
X85029783Y-99737192D01*
X85029781Y-99737203D01*
X85010727Y-99954998D01*
X73500500Y-99954998D01*
X73500500Y-94658135D01*
X85015500Y-94658135D01*
X85015500Y-96251870D01*
X85015501Y-96251876D01*
X85021908Y-96311483D01*
X85072202Y-96446328D01*
X85072206Y-96446335D01*
X85158452Y-96561544D01*
X85158455Y-96561547D01*
X85273664Y-96647793D01*
X85273671Y-96647797D01*
X85408517Y-96698091D01*
X85408516Y-96698091D01*
X85415444Y-96698835D01*
X85468127Y-96704500D01*
X87061872Y-96704499D01*
X87121483Y-96698091D01*
X87256331Y-96647796D01*
X87371546Y-96561546D01*
X87457796Y-96446331D01*
X87508091Y-96311483D01*
X87514500Y-96251873D01*
X87514499Y-95454998D01*
X91510727Y-95454998D01*
X91510727Y-95455001D01*
X91529781Y-95672796D01*
X91529783Y-95672807D01*
X91586366Y-95883979D01*
X91586368Y-95883983D01*
X91586369Y-95883987D01*
X91678768Y-96082137D01*
X91678770Y-96082141D01*
X91804167Y-96261226D01*
X91804172Y-96261232D01*
X91958767Y-96415827D01*
X91958773Y-96415832D01*
X92137858Y-96541229D01*
X92137860Y-96541230D01*
X92137863Y-96541232D01*
X92336013Y-96633631D01*
X92547198Y-96690218D01*
X92702770Y-96703828D01*
X92764998Y-96709273D01*
X92765000Y-96709273D01*
X92765002Y-96709273D01*
X92819579Y-96704498D01*
X92982802Y-96690218D01*
X93193987Y-96633631D01*
X93392137Y-96541232D01*
X93571231Y-96415829D01*
X93725829Y-96261231D01*
X93851232Y-96082137D01*
X93943631Y-95883987D01*
X94000218Y-95672802D01*
X94019273Y-95455000D01*
X94000218Y-95237198D01*
X93943631Y-95026013D01*
X93926772Y-94989860D01*
X93851233Y-94827866D01*
X93825863Y-94791634D01*
X93725829Y-94648769D01*
X93571231Y-94494171D01*
X93571227Y-94494168D01*
X93571226Y-94494167D01*
X93392141Y-94368770D01*
X93392137Y-94368768D01*
X93392133Y-94368766D01*
X93193987Y-94276369D01*
X93193983Y-94276368D01*
X93193979Y-94276366D01*
X92982807Y-94219783D01*
X92982803Y-94219782D01*
X92982802Y-94219782D01*
X92982801Y-94219781D01*
X92982796Y-94219781D01*
X92765002Y-94200727D01*
X92764998Y-94200727D01*
X92547203Y-94219781D01*
X92547192Y-94219783D01*
X92336020Y-94276366D01*
X92336011Y-94276370D01*
X92137866Y-94368766D01*
X91958766Y-94494172D01*
X91804172Y-94648766D01*
X91678766Y-94827866D01*
X91586373Y-95026004D01*
X91586366Y-95026020D01*
X91529783Y-95237192D01*
X91529781Y-95237203D01*
X91510727Y-95454998D01*
X87514499Y-95454998D01*
X87514499Y-94658128D01*
X87508091Y-94598517D01*
X87469172Y-94494171D01*
X87457797Y-94463671D01*
X87457793Y-94463664D01*
X87371547Y-94348455D01*
X87371544Y-94348452D01*
X87300136Y-94294996D01*
X89124435Y-94294996D01*
X89124435Y-94295003D01*
X89144630Y-94474249D01*
X89144631Y-94474254D01*
X89204211Y-94644523D01*
X89296646Y-94791631D01*
X89300184Y-94797262D01*
X89427738Y-94924816D01*
X89580478Y-95020789D01*
X89750745Y-95080368D01*
X89750750Y-95080369D01*
X89929996Y-95100565D01*
X89930000Y-95100565D01*
X89930004Y-95100565D01*
X90109249Y-95080369D01*
X90109252Y-95080368D01*
X90109255Y-95080368D01*
X90279522Y-95020789D01*
X90432262Y-94924816D01*
X90559816Y-94797262D01*
X90655789Y-94644522D01*
X90715368Y-94474255D01*
X90716561Y-94463669D01*
X90735565Y-94295003D01*
X90735565Y-94294996D01*
X90715369Y-94115750D01*
X90715368Y-94115745D01*
X90655789Y-93945478D01*
X90559816Y-93792738D01*
X90432262Y-93665184D01*
X90279523Y-93569211D01*
X90109254Y-93509631D01*
X90109249Y-93509630D01*
X89930004Y-93489435D01*
X89929996Y-93489435D01*
X89750750Y-93509630D01*
X89750745Y-93509631D01*
X89580476Y-93569211D01*
X89427737Y-93665184D01*
X89300184Y-93792737D01*
X89204211Y-93945476D01*
X89144631Y-94115745D01*
X89144630Y-94115750D01*
X89124435Y-94294996D01*
X87300136Y-94294996D01*
X87256335Y-94262206D01*
X87256328Y-94262202D01*
X87121482Y-94211908D01*
X87121483Y-94211908D01*
X87061883Y-94205501D01*
X87061881Y-94205500D01*
X87061873Y-94205500D01*
X87061864Y-94205500D01*
X85468129Y-94205500D01*
X85468123Y-94205501D01*
X85408516Y-94211908D01*
X85273671Y-94262202D01*
X85273664Y-94262206D01*
X85158455Y-94348452D01*
X85158452Y-94348455D01*
X85072206Y-94463664D01*
X85072202Y-94463671D01*
X85021908Y-94598517D01*
X85016506Y-94648766D01*
X85015501Y-94658123D01*
X85015500Y-94658135D01*
X73500500Y-94658135D01*
X73500500Y-90950097D01*
X97799500Y-90950097D01*
X97799500Y-93509902D01*
X97840140Y-93766493D01*
X97920422Y-94013576D01*
X98001534Y-94172764D01*
X98025491Y-94219783D01*
X98038368Y-94245054D01*
X98128253Y-94368770D01*
X98191069Y-94455229D01*
X98374771Y-94638931D01*
X98584949Y-94791634D01*
X98732445Y-94866787D01*
X98816423Y-94909577D01*
X98816425Y-94909577D01*
X98816428Y-94909579D01*
X99063507Y-94989860D01*
X99195706Y-95010797D01*
X99320098Y-95030500D01*
X99320103Y-95030500D01*
X99579902Y-95030500D01*
X99693298Y-95012539D01*
X99836493Y-94989860D01*
X100083572Y-94909579D01*
X100315051Y-94791634D01*
X100525229Y-94638931D01*
X100708931Y-94455229D01*
X100861634Y-94245051D01*
X100979579Y-94013572D01*
X101059860Y-93766493D01*
X101091106Y-93569211D01*
X101100500Y-93509902D01*
X101100500Y-90950097D01*
X106599500Y-90950097D01*
X106599500Y-93509902D01*
X106640140Y-93766493D01*
X106720422Y-94013576D01*
X106801534Y-94172764D01*
X106825491Y-94219783D01*
X106838368Y-94245054D01*
X106928253Y-94368770D01*
X106991069Y-94455229D01*
X107174771Y-94638931D01*
X107384949Y-94791634D01*
X107532445Y-94866787D01*
X107616423Y-94909577D01*
X107616425Y-94909577D01*
X107616428Y-94909579D01*
X107863507Y-94989860D01*
X107995706Y-95010797D01*
X108120098Y-95030500D01*
X108120103Y-95030500D01*
X108379902Y-95030500D01*
X108493298Y-95012539D01*
X108636493Y-94989860D01*
X108883572Y-94909579D01*
X109115051Y-94791634D01*
X109325229Y-94638931D01*
X109508931Y-94455229D01*
X109661634Y-94245051D01*
X109779579Y-94013572D01*
X109859860Y-93766493D01*
X109891106Y-93569211D01*
X109900500Y-93509902D01*
X109900500Y-90950097D01*
X109878947Y-90814021D01*
X109859860Y-90693507D01*
X109779579Y-90446428D01*
X109779577Y-90446425D01*
X109779577Y-90446423D01*
X109736787Y-90362445D01*
X109661634Y-90214949D01*
X109508931Y-90004771D01*
X109325229Y-89821069D01*
X109313198Y-89812328D01*
X109115054Y-89668368D01*
X109115053Y-89668367D01*
X109115051Y-89668366D01*
X109015973Y-89617883D01*
X108883576Y-89550422D01*
X108636493Y-89470140D01*
X108379902Y-89429500D01*
X108379897Y-89429500D01*
X108120103Y-89429500D01*
X108120098Y-89429500D01*
X107863506Y-89470140D01*
X107616423Y-89550422D01*
X107384945Y-89668368D01*
X107174774Y-89821066D01*
X107174768Y-89821071D01*
X106991071Y-90004768D01*
X106991066Y-90004774D01*
X106838368Y-90214945D01*
X106720422Y-90446423D01*
X106640140Y-90693506D01*
X106599500Y-90950097D01*
X101100500Y-90950097D01*
X101078947Y-90814021D01*
X101059860Y-90693507D01*
X100979579Y-90446428D01*
X100979577Y-90446425D01*
X100979577Y-90446423D01*
X100936787Y-90362445D01*
X100861634Y-90214949D01*
X100708931Y-90004771D01*
X100525229Y-89821069D01*
X100513198Y-89812328D01*
X100315054Y-89668368D01*
X100315053Y-89668367D01*
X100315051Y-89668366D01*
X100215973Y-89617883D01*
X100083576Y-89550422D01*
X99836493Y-89470140D01*
X99579902Y-89429500D01*
X99579897Y-89429500D01*
X99320103Y-89429500D01*
X99320098Y-89429500D01*
X99063506Y-89470140D01*
X98816423Y-89550422D01*
X98584945Y-89668368D01*
X98374774Y-89821066D01*
X98374768Y-89821071D01*
X98191071Y-90004768D01*
X98191066Y-90004774D01*
X98038368Y-90214945D01*
X97920422Y-90446423D01*
X97840140Y-90693506D01*
X97799500Y-90950097D01*
X73500500Y-90950097D01*
X73500500Y-88983099D01*
X73520185Y-88916060D01*
X73572989Y-88870305D01*
X73642147Y-88860361D01*
X73705703Y-88889386D01*
X73743477Y-88948164D01*
X73744275Y-88951006D01*
X73806566Y-89183483D01*
X73806570Y-89183492D01*
X73906400Y-89397579D01*
X73906402Y-89397583D01*
X73965072Y-89481373D01*
X73965073Y-89481373D01*
X74597037Y-88849409D01*
X74614075Y-88912993D01*
X74679901Y-89027007D01*
X74772993Y-89120099D01*
X74887007Y-89185925D01*
X74950590Y-89202962D01*
X74318625Y-89834925D01*
X74402421Y-89893599D01*
X74616507Y-89993429D01*
X74616516Y-89993433D01*
X74844673Y-90054567D01*
X74844684Y-90054569D01*
X75079998Y-90075157D01*
X75080002Y-90075157D01*
X75315315Y-90054569D01*
X75315326Y-90054567D01*
X75543483Y-89993433D01*
X75543492Y-89993429D01*
X75757578Y-89893600D01*
X75757582Y-89893598D01*
X75841373Y-89834926D01*
X75841373Y-89834925D01*
X75209409Y-89202962D01*
X75272993Y-89185925D01*
X75387007Y-89120099D01*
X75480099Y-89027007D01*
X75545925Y-88912993D01*
X75562962Y-88849410D01*
X76233181Y-89519629D01*
X76266666Y-89580952D01*
X76269500Y-89607301D01*
X76269500Y-89617865D01*
X76269501Y-89617876D01*
X76275908Y-89677483D01*
X76326202Y-89812328D01*
X76326206Y-89812335D01*
X76412452Y-89927544D01*
X76412455Y-89927547D01*
X76527664Y-90013793D01*
X76527671Y-90013797D01*
X76662517Y-90064091D01*
X76662516Y-90064091D01*
X76669444Y-90064835D01*
X76722127Y-90070500D01*
X78517872Y-90070499D01*
X78577483Y-90064091D01*
X78712331Y-90013796D01*
X78827546Y-89927546D01*
X78913796Y-89812331D01*
X78964091Y-89677483D01*
X78970500Y-89617873D01*
X78970499Y-88539996D01*
X82024435Y-88539996D01*
X82024435Y-88540003D01*
X82044630Y-88719249D01*
X82044631Y-88719254D01*
X82104211Y-88889523D01*
X82141058Y-88948164D01*
X82200184Y-89042262D01*
X82327738Y-89169816D01*
X82480478Y-89265789D01*
X82650745Y-89325368D01*
X82650750Y-89325369D01*
X82829996Y-89345565D01*
X82830000Y-89345565D01*
X82830004Y-89345565D01*
X83009249Y-89325369D01*
X83009252Y-89325368D01*
X83009255Y-89325368D01*
X83179522Y-89265789D01*
X83332262Y-89169816D01*
X83459816Y-89042262D01*
X83555789Y-88889522D01*
X83615368Y-88719255D01*
X83622701Y-88654174D01*
X83635565Y-88540003D01*
X83635565Y-88539996D01*
X83615369Y-88360750D01*
X83615368Y-88360745D01*
X83578897Y-88256516D01*
X83555789Y-88190478D01*
X83551137Y-88183075D01*
X83459815Y-88037737D01*
X83332262Y-87910184D01*
X83179523Y-87814211D01*
X83009254Y-87754631D01*
X83009249Y-87754630D01*
X82830004Y-87734435D01*
X82829996Y-87734435D01*
X82650750Y-87754630D01*
X82650745Y-87754631D01*
X82480476Y-87814211D01*
X82327737Y-87910184D01*
X82200184Y-88037737D01*
X82104211Y-88190476D01*
X82044631Y-88360745D01*
X82044630Y-88360750D01*
X82024435Y-88539996D01*
X78970499Y-88539996D01*
X78970499Y-87822128D01*
X78964091Y-87762517D01*
X78961149Y-87754630D01*
X78913797Y-87627671D01*
X78913793Y-87627664D01*
X78827547Y-87512455D01*
X78827544Y-87512452D01*
X78712335Y-87426206D01*
X78712328Y-87426202D01*
X78581767Y-87377506D01*
X93681944Y-87377506D01*
X93681944Y-87377513D01*
X93702139Y-87556759D01*
X93702140Y-87556764D01*
X93761720Y-87727033D01*
X93821472Y-87822127D01*
X93857693Y-87879772D01*
X93985247Y-88007326D01*
X94137987Y-88103299D01*
X94308254Y-88162878D01*
X94308259Y-88162879D01*
X94487505Y-88183075D01*
X94487509Y-88183075D01*
X94487513Y-88183075D01*
X94666758Y-88162879D01*
X94666761Y-88162878D01*
X94666764Y-88162878D01*
X94837031Y-88103299D01*
X94989771Y-88007326D01*
X95117325Y-87879772D01*
X95213298Y-87727032D01*
X95272877Y-87556765D01*
X95272878Y-87556759D01*
X95293074Y-87377513D01*
X95293074Y-87377506D01*
X95272878Y-87198260D01*
X95272877Y-87198255D01*
X95221491Y-87051402D01*
X95213298Y-87027988D01*
X95117325Y-86875248D01*
X94989771Y-86747694D01*
X94837032Y-86651721D01*
X94666763Y-86592141D01*
X94666758Y-86592140D01*
X94487513Y-86571945D01*
X94487505Y-86571945D01*
X94308259Y-86592140D01*
X94308254Y-86592141D01*
X94137985Y-86651721D01*
X93985246Y-86747694D01*
X93857693Y-86875247D01*
X93761720Y-87027986D01*
X93702140Y-87198255D01*
X93702139Y-87198260D01*
X93681944Y-87377506D01*
X78581767Y-87377506D01*
X78580917Y-87377189D01*
X78524983Y-87335318D01*
X78500566Y-87269853D01*
X78515418Y-87201580D01*
X78536563Y-87173332D01*
X78658495Y-87051401D01*
X78794035Y-86857830D01*
X78893903Y-86643663D01*
X78955063Y-86415408D01*
X78975659Y-86180000D01*
X78955063Y-85944592D01*
X78897563Y-85729996D01*
X82594435Y-85729996D01*
X82594435Y-85730003D01*
X82614630Y-85909249D01*
X82614631Y-85909254D01*
X82674211Y-86079523D01*
X82746566Y-86194674D01*
X82770184Y-86232262D01*
X82897738Y-86359816D01*
X83050478Y-86455789D01*
X83220745Y-86515368D01*
X83220750Y-86515369D01*
X83399996Y-86535565D01*
X83400000Y-86535565D01*
X83400004Y-86535565D01*
X83579249Y-86515369D01*
X83579252Y-86515368D01*
X83579255Y-86515368D01*
X83749522Y-86455789D01*
X83902262Y-86359816D01*
X84029816Y-86232262D01*
X84125789Y-86079522D01*
X84185368Y-85909255D01*
X84190958Y-85859642D01*
X84205565Y-85730003D01*
X84205565Y-85729996D01*
X84201058Y-85689996D01*
X90564435Y-85689996D01*
X90564435Y-85690003D01*
X90584630Y-85869249D01*
X90584631Y-85869254D01*
X90644211Y-86039523D01*
X90676795Y-86091379D01*
X90740184Y-86192262D01*
X90867738Y-86319816D01*
X90917872Y-86351317D01*
X91019879Y-86415413D01*
X91020478Y-86415789D01*
X91175861Y-86470160D01*
X91190745Y-86475368D01*
X91190750Y-86475369D01*
X91369996Y-86495565D01*
X91370000Y-86495565D01*
X91370004Y-86495565D01*
X91549249Y-86475369D01*
X91549252Y-86475368D01*
X91549255Y-86475368D01*
X91719522Y-86415789D01*
X91872262Y-86319816D01*
X91999816Y-86192262D01*
X92095789Y-86039522D01*
X92155368Y-85869255D01*
X92155369Y-85869249D01*
X92175565Y-85690003D01*
X92175565Y-85689996D01*
X92155369Y-85510750D01*
X92155368Y-85510745D01*
X92124662Y-85422993D01*
X92095789Y-85340478D01*
X91999816Y-85187738D01*
X91872262Y-85060184D01*
X91835376Y-85037007D01*
X91719523Y-84964211D01*
X91549254Y-84904631D01*
X91549249Y-84904630D01*
X91370004Y-84884435D01*
X91369996Y-84884435D01*
X91190750Y-84904630D01*
X91190745Y-84904631D01*
X91020476Y-84964211D01*
X90867737Y-85060184D01*
X90740184Y-85187737D01*
X90644211Y-85340476D01*
X90584631Y-85510745D01*
X90584630Y-85510750D01*
X90564435Y-85689996D01*
X84201058Y-85689996D01*
X84185369Y-85550750D01*
X84185368Y-85550745D01*
X84168371Y-85502171D01*
X84125789Y-85380478D01*
X84029816Y-85227738D01*
X83902262Y-85100184D01*
X83853930Y-85069815D01*
X83749523Y-85004211D01*
X83579254Y-84944631D01*
X83579249Y-84944630D01*
X83400004Y-84924435D01*
X83399996Y-84924435D01*
X83220750Y-84944630D01*
X83220745Y-84944631D01*
X83050476Y-85004211D01*
X82897737Y-85100184D01*
X82770184Y-85227737D01*
X82674211Y-85380476D01*
X82614631Y-85550745D01*
X82614630Y-85550750D01*
X82594435Y-85729996D01*
X78897563Y-85729996D01*
X78893903Y-85716337D01*
X78794035Y-85502171D01*
X78788425Y-85494158D01*
X78658494Y-85308597D01*
X78491402Y-85141506D01*
X78491396Y-85141501D01*
X78305842Y-85011575D01*
X78262217Y-84956998D01*
X78255023Y-84887500D01*
X78286546Y-84825145D01*
X78305842Y-84808425D01*
X78369180Y-84764075D01*
X78491401Y-84678495D01*
X78658495Y-84511401D01*
X78708493Y-84439996D01*
X93534435Y-84439996D01*
X93534435Y-84440003D01*
X93554630Y-84619249D01*
X93554631Y-84619254D01*
X93614211Y-84789523D01*
X93704050Y-84932500D01*
X93710184Y-84942262D01*
X93837738Y-85069816D01*
X93923635Y-85123789D01*
X93987907Y-85164174D01*
X93990478Y-85165789D01*
X94053202Y-85187737D01*
X94160745Y-85225368D01*
X94160750Y-85225369D01*
X94339996Y-85245565D01*
X94340000Y-85245565D01*
X94340004Y-85245565D01*
X94478174Y-85229997D01*
X100090708Y-85229997D01*
X100090708Y-85230002D01*
X100103872Y-85380478D01*
X100109839Y-85448674D01*
X100166653Y-85660703D01*
X100166654Y-85660706D01*
X100166655Y-85660708D01*
X100259419Y-85859642D01*
X100259423Y-85859650D01*
X100385322Y-86039452D01*
X100385327Y-86039458D01*
X100540541Y-86194672D01*
X100540547Y-86194677D01*
X100720349Y-86320576D01*
X100720351Y-86320577D01*
X100720354Y-86320579D01*
X100919297Y-86413347D01*
X101131326Y-86470161D01*
X101287521Y-86483826D01*
X101349998Y-86489292D01*
X101350000Y-86489292D01*
X101350002Y-86489292D01*
X101410501Y-86483999D01*
X101568674Y-86470161D01*
X101780703Y-86413347D01*
X101979646Y-86320579D01*
X102159457Y-86194674D01*
X102314674Y-86039457D01*
X102440579Y-85859646D01*
X102487618Y-85758770D01*
X102533790Y-85706330D01*
X102600983Y-85687178D01*
X102667865Y-85707393D01*
X102712382Y-85758770D01*
X102759419Y-85859642D01*
X102759423Y-85859650D01*
X102885322Y-86039452D01*
X102885327Y-86039458D01*
X103040541Y-86194672D01*
X103040547Y-86194677D01*
X103220349Y-86320576D01*
X103220351Y-86320577D01*
X103220354Y-86320579D01*
X103419297Y-86413347D01*
X103631326Y-86470161D01*
X103787521Y-86483826D01*
X103849998Y-86489292D01*
X103850000Y-86489292D01*
X103850002Y-86489292D01*
X103910501Y-86483999D01*
X104068674Y-86470161D01*
X104280703Y-86413347D01*
X104479646Y-86320579D01*
X104659457Y-86194674D01*
X104814674Y-86039457D01*
X104870425Y-85959835D01*
X104925001Y-85916211D01*
X104994500Y-85909017D01*
X105056855Y-85940540D01*
X105092269Y-86000769D01*
X105095699Y-86028527D01*
X105095823Y-86028521D01*
X105095917Y-86030295D01*
X105096000Y-86030959D01*
X105096000Y-86031844D01*
X105102401Y-86091372D01*
X105102403Y-86091379D01*
X105152645Y-86226086D01*
X105152649Y-86226093D01*
X105238809Y-86341187D01*
X105238812Y-86341190D01*
X105353906Y-86427350D01*
X105353913Y-86427354D01*
X105488620Y-86477596D01*
X105488627Y-86477598D01*
X105548155Y-86483999D01*
X105548172Y-86484000D01*
X106100000Y-86484000D01*
X106100000Y-85663012D01*
X106157007Y-85695925D01*
X106284174Y-85730000D01*
X106415826Y-85730000D01*
X106542993Y-85695925D01*
X106600000Y-85663012D01*
X106600000Y-86484000D01*
X107151828Y-86484000D01*
X107151844Y-86483999D01*
X107211372Y-86477598D01*
X107211379Y-86477596D01*
X107346086Y-86427354D01*
X107346093Y-86427350D01*
X107461187Y-86341190D01*
X107461190Y-86341187D01*
X107547350Y-86226093D01*
X107547354Y-86226086D01*
X107597596Y-86091379D01*
X107597598Y-86091372D01*
X107603999Y-86031844D01*
X107604000Y-86031827D01*
X107604000Y-85480000D01*
X106783012Y-85480000D01*
X106815925Y-85422993D01*
X106850000Y-85295826D01*
X106850000Y-85164174D01*
X106815925Y-85037007D01*
X106783012Y-84980000D01*
X107604000Y-84980000D01*
X107604000Y-84428172D01*
X107603999Y-84428155D01*
X107597598Y-84368627D01*
X107597596Y-84368620D01*
X107547354Y-84233913D01*
X107547350Y-84233906D01*
X107461190Y-84118812D01*
X107461187Y-84118809D01*
X107346093Y-84032649D01*
X107346086Y-84032645D01*
X107211379Y-83982403D01*
X107211372Y-83982401D01*
X107151844Y-83976000D01*
X106600000Y-83976000D01*
X106600000Y-84796988D01*
X106542993Y-84764075D01*
X106415826Y-84730000D01*
X106284174Y-84730000D01*
X106157007Y-84764075D01*
X106100000Y-84796988D01*
X106100000Y-83976000D01*
X105548155Y-83976000D01*
X105488627Y-83982401D01*
X105488620Y-83982403D01*
X105353913Y-84032645D01*
X105353906Y-84032649D01*
X105238812Y-84118809D01*
X105238809Y-84118812D01*
X105152649Y-84233906D01*
X105152645Y-84233913D01*
X105102403Y-84368620D01*
X105102401Y-84368627D01*
X105096000Y-84428155D01*
X105096000Y-84429040D01*
X105095943Y-84429233D01*
X105095823Y-84431479D01*
X105095644Y-84431469D01*
X105095644Y-84431475D01*
X105095540Y-84431463D01*
X105095292Y-84431450D01*
X105076315Y-84496079D01*
X105023511Y-84541834D01*
X104954353Y-84551778D01*
X104890797Y-84522753D01*
X104870425Y-84500164D01*
X104822331Y-84431479D01*
X104814674Y-84420543D01*
X104659457Y-84265326D01*
X104659455Y-84265325D01*
X104659452Y-84265322D01*
X104479650Y-84139423D01*
X104479642Y-84139419D01*
X104280708Y-84046655D01*
X104280706Y-84046654D01*
X104280703Y-84046653D01*
X104129885Y-84006240D01*
X104068675Y-83989839D01*
X104068668Y-83989838D01*
X103850002Y-83970708D01*
X103849998Y-83970708D01*
X103631331Y-83989838D01*
X103631324Y-83989839D01*
X103508902Y-84022642D01*
X103419297Y-84046653D01*
X103419295Y-84046653D01*
X103419291Y-84046655D01*
X103220357Y-84139419D01*
X103220349Y-84139423D01*
X103040547Y-84265322D01*
X103040541Y-84265327D01*
X102885327Y-84420541D01*
X102885322Y-84420547D01*
X102759423Y-84600349D01*
X102759421Y-84600353D01*
X102712382Y-84701230D01*
X102666210Y-84753669D01*
X102599016Y-84772821D01*
X102532135Y-84752605D01*
X102487618Y-84701230D01*
X102477016Y-84678495D01*
X102440579Y-84600354D01*
X102440577Y-84600351D01*
X102440576Y-84600349D01*
X102314677Y-84420547D01*
X102314672Y-84420541D01*
X102159458Y-84265327D01*
X102159452Y-84265322D01*
X101979650Y-84139423D01*
X101979642Y-84139419D01*
X101780708Y-84046655D01*
X101780706Y-84046654D01*
X101780703Y-84046653D01*
X101629885Y-84006240D01*
X101568675Y-83989839D01*
X101568668Y-83989838D01*
X101350002Y-83970708D01*
X101349998Y-83970708D01*
X101131331Y-83989838D01*
X101131324Y-83989839D01*
X101008902Y-84022642D01*
X100919297Y-84046653D01*
X100919295Y-84046653D01*
X100919291Y-84046655D01*
X100720357Y-84139419D01*
X100720349Y-84139423D01*
X100540547Y-84265322D01*
X100540541Y-84265327D01*
X100385327Y-84420541D01*
X100385322Y-84420547D01*
X100259423Y-84600349D01*
X100259419Y-84600357D01*
X100166655Y-84799291D01*
X100109839Y-85011324D01*
X100109838Y-85011331D01*
X100090708Y-85229997D01*
X94478174Y-85229997D01*
X94519249Y-85225369D01*
X94519252Y-85225368D01*
X94519255Y-85225368D01*
X94689522Y-85165789D01*
X94842262Y-85069816D01*
X94969816Y-84942262D01*
X95065789Y-84789522D01*
X95125368Y-84619255D01*
X95125369Y-84619249D01*
X95145565Y-84440003D01*
X95145565Y-84439996D01*
X95125369Y-84260750D01*
X95125368Y-84260745D01*
X95115977Y-84233906D01*
X95065789Y-84090478D01*
X94969816Y-83937738D01*
X94842262Y-83810184D01*
X94797872Y-83782292D01*
X94689523Y-83714211D01*
X94519254Y-83654631D01*
X94519249Y-83654630D01*
X94340004Y-83634435D01*
X94339996Y-83634435D01*
X94160750Y-83654630D01*
X94160745Y-83654631D01*
X93990476Y-83714211D01*
X93837737Y-83810184D01*
X93710184Y-83937737D01*
X93614211Y-84090476D01*
X93554631Y-84260745D01*
X93554630Y-84260750D01*
X93534435Y-84439996D01*
X78708493Y-84439996D01*
X78794035Y-84317830D01*
X78893903Y-84103663D01*
X78955063Y-83875408D01*
X78975659Y-83640000D01*
X78955063Y-83404592D01*
X78893903Y-83176337D01*
X78794035Y-82962171D01*
X78788425Y-82954158D01*
X78658494Y-82768597D01*
X78609893Y-82719996D01*
X81804435Y-82719996D01*
X81804435Y-82720003D01*
X81824630Y-82899249D01*
X81824631Y-82899254D01*
X81884211Y-83069523D01*
X81946068Y-83167967D01*
X81980184Y-83222262D01*
X82107738Y-83349816D01*
X82260478Y-83445789D01*
X82320304Y-83466723D01*
X82430745Y-83505368D01*
X82430750Y-83505369D01*
X82609996Y-83525565D01*
X82610000Y-83525565D01*
X82610004Y-83525565D01*
X82789249Y-83505369D01*
X82789252Y-83505368D01*
X82789255Y-83505368D01*
X82959522Y-83445789D01*
X83112262Y-83349816D01*
X83239816Y-83222262D01*
X83335789Y-83069522D01*
X83395368Y-82899255D01*
X83395369Y-82899249D01*
X83415565Y-82720003D01*
X83415565Y-82719996D01*
X83395369Y-82540750D01*
X83395368Y-82540745D01*
X83335789Y-82370478D01*
X83239816Y-82217738D01*
X83112262Y-82090184D01*
X83069515Y-82063324D01*
X82959523Y-81994211D01*
X82789254Y-81934631D01*
X82789249Y-81934630D01*
X82610004Y-81914435D01*
X82609996Y-81914435D01*
X82430750Y-81934630D01*
X82430745Y-81934631D01*
X82260476Y-81994211D01*
X82107737Y-82090184D01*
X81980184Y-82217737D01*
X81884211Y-82370476D01*
X81824631Y-82540745D01*
X81824630Y-82540750D01*
X81804435Y-82719996D01*
X78609893Y-82719996D01*
X78491402Y-82601506D01*
X78491396Y-82601501D01*
X78305842Y-82471575D01*
X78262217Y-82416998D01*
X78255023Y-82347500D01*
X78286546Y-82285145D01*
X78305842Y-82268425D01*
X78380621Y-82216064D01*
X78491401Y-82138495D01*
X78658495Y-81971401D01*
X78794035Y-81777830D01*
X78823894Y-81713798D01*
X94558237Y-81713798D01*
X94558237Y-81713805D01*
X94578432Y-81893051D01*
X94578433Y-81893056D01*
X94638013Y-82063325D01*
X94654890Y-82090184D01*
X94733986Y-82216064D01*
X94861540Y-82343618D01*
X95014280Y-82439591D01*
X95089653Y-82465965D01*
X95184547Y-82499170D01*
X95184552Y-82499171D01*
X95363798Y-82519367D01*
X95363802Y-82519367D01*
X95363806Y-82519367D01*
X95543051Y-82499171D01*
X95543054Y-82499170D01*
X95543057Y-82499170D01*
X95713324Y-82439591D01*
X95866064Y-82343618D01*
X95993618Y-82216064D01*
X96089591Y-82063324D01*
X96149170Y-81893057D01*
X96161250Y-81785842D01*
X96169367Y-81713805D01*
X96169367Y-81713798D01*
X96149171Y-81534552D01*
X96149170Y-81534547D01*
X96089590Y-81364278D01*
X95993617Y-81211539D01*
X95866064Y-81083986D01*
X95713325Y-80988013D01*
X95543056Y-80928433D01*
X95543051Y-80928432D01*
X95363806Y-80908237D01*
X95363798Y-80908237D01*
X95184552Y-80928432D01*
X95184547Y-80928433D01*
X95014278Y-80988013D01*
X94861539Y-81083986D01*
X94733986Y-81211539D01*
X94638013Y-81364278D01*
X94578433Y-81534547D01*
X94578432Y-81534552D01*
X94558237Y-81713798D01*
X78823894Y-81713798D01*
X78893903Y-81563663D01*
X78955063Y-81335408D01*
X78975659Y-81100000D01*
X78955063Y-80864592D01*
X78893903Y-80636337D01*
X78794035Y-80422171D01*
X78788425Y-80414158D01*
X78658494Y-80228597D01*
X78491402Y-80061506D01*
X78491395Y-80061501D01*
X78297834Y-79925967D01*
X78297830Y-79925965D01*
X78297828Y-79925964D01*
X78083663Y-79826097D01*
X78083659Y-79826096D01*
X78083655Y-79826094D01*
X77855413Y-79764938D01*
X77855403Y-79764936D01*
X77620001Y-79744341D01*
X77619999Y-79744341D01*
X77384596Y-79764936D01*
X77384586Y-79764938D01*
X77156344Y-79826094D01*
X77156335Y-79826098D01*
X76942171Y-79925964D01*
X76942169Y-79925965D01*
X76748597Y-80061505D01*
X76581505Y-80228597D01*
X76451575Y-80414158D01*
X76396998Y-80457783D01*
X76327500Y-80464977D01*
X76265145Y-80433454D01*
X76248425Y-80414158D01*
X76118494Y-80228597D01*
X75951402Y-80061506D01*
X75951395Y-80061501D01*
X75757834Y-79925967D01*
X75757830Y-79925965D01*
X75757828Y-79925964D01*
X75543663Y-79826097D01*
X75543659Y-79826096D01*
X75543655Y-79826094D01*
X75315413Y-79764938D01*
X75315403Y-79764936D01*
X75080001Y-79744341D01*
X75079999Y-79744341D01*
X74844596Y-79764936D01*
X74844586Y-79764938D01*
X74616344Y-79826094D01*
X74616335Y-79826098D01*
X74402171Y-79925964D01*
X74402169Y-79925965D01*
X74208597Y-80061505D01*
X74041505Y-80228597D01*
X73905965Y-80422169D01*
X73905964Y-80422171D01*
X73806098Y-80636335D01*
X73806094Y-80636344D01*
X73744275Y-80867062D01*
X73707910Y-80926723D01*
X73645063Y-80957252D01*
X73575688Y-80948957D01*
X73521810Y-80904472D01*
X73500535Y-80837920D01*
X73500500Y-80834969D01*
X73500500Y-74949999D01*
X81504341Y-74949999D01*
X81504341Y-74950000D01*
X81524936Y-75185403D01*
X81524938Y-75185413D01*
X81586094Y-75413655D01*
X81586096Y-75413659D01*
X81586097Y-75413663D01*
X81685965Y-75627830D01*
X81685967Y-75627834D01*
X81821501Y-75821395D01*
X81821506Y-75821402D01*
X81988597Y-75988493D01*
X81988603Y-75988498D01*
X82174158Y-76118425D01*
X82217783Y-76173002D01*
X82224977Y-76242500D01*
X82193454Y-76304855D01*
X82174158Y-76321575D01*
X81988597Y-76451505D01*
X81821505Y-76618597D01*
X81685965Y-76812169D01*
X81685964Y-76812171D01*
X81586098Y-77026335D01*
X81586094Y-77026344D01*
X81524938Y-77254586D01*
X81524936Y-77254596D01*
X81504341Y-77489999D01*
X81504341Y-77490000D01*
X81524936Y-77725403D01*
X81524938Y-77725413D01*
X81586094Y-77953655D01*
X81586096Y-77953659D01*
X81586097Y-77953663D01*
X81685965Y-78167830D01*
X81685967Y-78167834D01*
X81794281Y-78322521D01*
X81821505Y-78361401D01*
X81988599Y-78528495D01*
X82085384Y-78596265D01*
X82182165Y-78664032D01*
X82182167Y-78664033D01*
X82182170Y-78664035D01*
X82396337Y-78763903D01*
X82624592Y-78825063D01*
X82812918Y-78841539D01*
X82859999Y-78845659D01*
X82860000Y-78845659D01*
X82860001Y-78845659D01*
X82899234Y-78842226D01*
X83095408Y-78825063D01*
X83323663Y-78763903D01*
X83537830Y-78664035D01*
X83731401Y-78528495D01*
X83898495Y-78361401D01*
X84034035Y-78167830D01*
X84133903Y-77953663D01*
X84195063Y-77725408D01*
X84215659Y-77490000D01*
X84195063Y-77254592D01*
X84133903Y-77026337D01*
X84034035Y-76812171D01*
X83898495Y-76618599D01*
X83898494Y-76618597D01*
X83731402Y-76451506D01*
X83731396Y-76451501D01*
X83545842Y-76321575D01*
X83502217Y-76266998D01*
X83495023Y-76197500D01*
X83526546Y-76135145D01*
X83545842Y-76118425D01*
X83568026Y-76102891D01*
X83731401Y-75988495D01*
X83898495Y-75821401D01*
X84034035Y-75627830D01*
X84133903Y-75413663D01*
X84195063Y-75185408D01*
X84215659Y-74950000D01*
X84195063Y-74714592D01*
X84133903Y-74486337D01*
X84034035Y-74272171D01*
X84024670Y-74258797D01*
X83898496Y-74078600D01*
X83877224Y-74057328D01*
X83776567Y-73956671D01*
X83743084Y-73895351D01*
X83748068Y-73825659D01*
X83789939Y-73769725D01*
X83820915Y-73752810D01*
X83952331Y-73703796D01*
X84067546Y-73617546D01*
X84153796Y-73502331D01*
X84204091Y-73367483D01*
X84210500Y-73307873D01*
X84210500Y-72964999D01*
X97104341Y-72964999D01*
X97104341Y-72965000D01*
X97124936Y-73200403D01*
X97124938Y-73200413D01*
X97186094Y-73428655D01*
X97186096Y-73428659D01*
X97186097Y-73428663D01*
X97266004Y-73600023D01*
X97285965Y-73642830D01*
X97285967Y-73642834D01*
X97362974Y-73752810D01*
X97421505Y-73836401D01*
X97588599Y-74003495D01*
X97685384Y-74071265D01*
X97782165Y-74139032D01*
X97782167Y-74139033D01*
X97782170Y-74139035D01*
X97996337Y-74238903D01*
X98224592Y-74300063D01*
X98401034Y-74315500D01*
X98459999Y-74320659D01*
X98460000Y-74320659D01*
X98460001Y-74320659D01*
X98518966Y-74315500D01*
X98695408Y-74300063D01*
X98923663Y-74238903D01*
X99137830Y-74139035D01*
X99331401Y-74003495D01*
X99498495Y-73836401D01*
X99628425Y-73650842D01*
X99683002Y-73607217D01*
X99752500Y-73600023D01*
X99814855Y-73631546D01*
X99831575Y-73650842D01*
X99961500Y-73836395D01*
X99961505Y-73836401D01*
X100128599Y-74003495D01*
X100225384Y-74071265D01*
X100322165Y-74139032D01*
X100322167Y-74139033D01*
X100322170Y-74139035D01*
X100536337Y-74238903D01*
X100764592Y-74300063D01*
X100941034Y-74315500D01*
X100999999Y-74320659D01*
X101000000Y-74320659D01*
X101000001Y-74320659D01*
X101058966Y-74315500D01*
X101235408Y-74300063D01*
X101463663Y-74238903D01*
X101677830Y-74139035D01*
X101871401Y-74003495D01*
X102038495Y-73836401D01*
X102168425Y-73650842D01*
X102223002Y-73607217D01*
X102292500Y-73600023D01*
X102354855Y-73631546D01*
X102371575Y-73650842D01*
X102501500Y-73836395D01*
X102501505Y-73836401D01*
X102668599Y-74003495D01*
X102765384Y-74071265D01*
X102862165Y-74139032D01*
X102862167Y-74139033D01*
X102862170Y-74139035D01*
X103076337Y-74238903D01*
X103304592Y-74300063D01*
X103481034Y-74315500D01*
X103539999Y-74320659D01*
X103540000Y-74320659D01*
X103540001Y-74320659D01*
X103598966Y-74315500D01*
X103775408Y-74300063D01*
X104003663Y-74238903D01*
X104217830Y-74139035D01*
X104411401Y-74003495D01*
X104578495Y-73836401D01*
X104708730Y-73650405D01*
X104763307Y-73606781D01*
X104832805Y-73599587D01*
X104895160Y-73631110D01*
X104911879Y-73650405D01*
X105041890Y-73836078D01*
X105208917Y-74003105D01*
X105402421Y-74138600D01*
X105616507Y-74238429D01*
X105616516Y-74238433D01*
X105830000Y-74295634D01*
X105830000Y-73398012D01*
X105887007Y-73430925D01*
X106014174Y-73465000D01*
X106145826Y-73465000D01*
X106272993Y-73430925D01*
X106330000Y-73398012D01*
X106330000Y-74295633D01*
X106543483Y-74238433D01*
X106543492Y-74238429D01*
X106757578Y-74138600D01*
X106951078Y-74003108D01*
X107073133Y-73881053D01*
X107134456Y-73847568D01*
X107204148Y-73852552D01*
X107260082Y-73894423D01*
X107276997Y-73925401D01*
X107326202Y-74057328D01*
X107326206Y-74057335D01*
X107412452Y-74172544D01*
X107412455Y-74172547D01*
X107527664Y-74258793D01*
X107527671Y-74258797D01*
X107662517Y-74309091D01*
X107662516Y-74309091D01*
X107669444Y-74309835D01*
X107722127Y-74315500D01*
X109517872Y-74315499D01*
X109577483Y-74309091D01*
X109712331Y-74258796D01*
X109827546Y-74172546D01*
X109913796Y-74057331D01*
X109964091Y-73922483D01*
X109970500Y-73862873D01*
X109970499Y-72067128D01*
X109964091Y-72007517D01*
X109963002Y-72004598D01*
X109913797Y-71872671D01*
X109913793Y-71872664D01*
X109827547Y-71757455D01*
X109827544Y-71757452D01*
X109712335Y-71671206D01*
X109712328Y-71671202D01*
X109577482Y-71620908D01*
X109577483Y-71620908D01*
X109517883Y-71614501D01*
X109517881Y-71614500D01*
X109517873Y-71614500D01*
X109517864Y-71614500D01*
X107722129Y-71614500D01*
X107722123Y-71614501D01*
X107662516Y-71620908D01*
X107527671Y-71671202D01*
X107527664Y-71671206D01*
X107412455Y-71757452D01*
X107412452Y-71757455D01*
X107326206Y-71872664D01*
X107326202Y-71872671D01*
X107276997Y-72004598D01*
X107235126Y-72060532D01*
X107169661Y-72084949D01*
X107101388Y-72070097D01*
X107073134Y-72048946D01*
X106951082Y-71926894D01*
X106757578Y-71791399D01*
X106543492Y-71691570D01*
X106543486Y-71691567D01*
X106330000Y-71634364D01*
X106330000Y-72531988D01*
X106272993Y-72499075D01*
X106145826Y-72465000D01*
X106014174Y-72465000D01*
X105887007Y-72499075D01*
X105830000Y-72531988D01*
X105830000Y-71634364D01*
X105829999Y-71634364D01*
X105616513Y-71691567D01*
X105616507Y-71691570D01*
X105402422Y-71791399D01*
X105402420Y-71791400D01*
X105208926Y-71926886D01*
X105208920Y-71926891D01*
X105041891Y-72093920D01*
X105041890Y-72093922D01*
X104911880Y-72279595D01*
X104857303Y-72323219D01*
X104787804Y-72330412D01*
X104725450Y-72298890D01*
X104708730Y-72279594D01*
X104578494Y-72093597D01*
X104411402Y-71926506D01*
X104411395Y-71926501D01*
X104217834Y-71790967D01*
X104217830Y-71790965D01*
X104194318Y-71780001D01*
X104003663Y-71691097D01*
X104003659Y-71691096D01*
X104003655Y-71691094D01*
X103775413Y-71629938D01*
X103775403Y-71629936D01*
X103540001Y-71609341D01*
X103539999Y-71609341D01*
X103304596Y-71629936D01*
X103304586Y-71629938D01*
X103076344Y-71691094D01*
X103076335Y-71691098D01*
X102862171Y-71790964D01*
X102862169Y-71790965D01*
X102668597Y-71926505D01*
X102501505Y-72093597D01*
X102371575Y-72279158D01*
X102316998Y-72322783D01*
X102247500Y-72329977D01*
X102185145Y-72298454D01*
X102168425Y-72279158D01*
X102038494Y-72093597D01*
X101871402Y-71926506D01*
X101871395Y-71926501D01*
X101677834Y-71790967D01*
X101677830Y-71790965D01*
X101654318Y-71780001D01*
X101463663Y-71691097D01*
X101463659Y-71691096D01*
X101463655Y-71691094D01*
X101235413Y-71629938D01*
X101235403Y-71629936D01*
X101000001Y-71609341D01*
X100999999Y-71609341D01*
X100764596Y-71629936D01*
X100764586Y-71629938D01*
X100536344Y-71691094D01*
X100536335Y-71691098D01*
X100322171Y-71790964D01*
X100322169Y-71790965D01*
X100128597Y-71926505D01*
X99961505Y-72093597D01*
X99831575Y-72279158D01*
X99776998Y-72322783D01*
X99707500Y-72329977D01*
X99645145Y-72298454D01*
X99628425Y-72279158D01*
X99498494Y-72093597D01*
X99331402Y-71926506D01*
X99331395Y-71926501D01*
X99137834Y-71790967D01*
X99137830Y-71790965D01*
X99114318Y-71780001D01*
X98923663Y-71691097D01*
X98923659Y-71691096D01*
X98923655Y-71691094D01*
X98695413Y-71629938D01*
X98695403Y-71629936D01*
X98460001Y-71609341D01*
X98459999Y-71609341D01*
X98224596Y-71629936D01*
X98224586Y-71629938D01*
X97996344Y-71691094D01*
X97996335Y-71691098D01*
X97782171Y-71790964D01*
X97782169Y-71790965D01*
X97588597Y-71926505D01*
X97421505Y-72093597D01*
X97285965Y-72287169D01*
X97285964Y-72287171D01*
X97186098Y-72501335D01*
X97186094Y-72501344D01*
X97124938Y-72729586D01*
X97124936Y-72729596D01*
X97104341Y-72964999D01*
X84210500Y-72964999D01*
X84210499Y-71512128D01*
X84204091Y-71452517D01*
X84153796Y-71317669D01*
X84153795Y-71317668D01*
X84153793Y-71317664D01*
X84067547Y-71202455D01*
X84067544Y-71202452D01*
X83952335Y-71116206D01*
X83952328Y-71116202D01*
X83817482Y-71065908D01*
X83817483Y-71065908D01*
X83757883Y-71059501D01*
X83757881Y-71059500D01*
X83757873Y-71059500D01*
X83757864Y-71059500D01*
X81962129Y-71059500D01*
X81962123Y-71059501D01*
X81902516Y-71065908D01*
X81767671Y-71116202D01*
X81767664Y-71116206D01*
X81652455Y-71202452D01*
X81652452Y-71202455D01*
X81566206Y-71317664D01*
X81566202Y-71317671D01*
X81515908Y-71452517D01*
X81510621Y-71501700D01*
X81509501Y-71512123D01*
X81509500Y-71512135D01*
X81509500Y-73307870D01*
X81509501Y-73307876D01*
X81515908Y-73367483D01*
X81566202Y-73502328D01*
X81566206Y-73502335D01*
X81652452Y-73617544D01*
X81652455Y-73617547D01*
X81767664Y-73703793D01*
X81767671Y-73703797D01*
X81899081Y-73752810D01*
X81955015Y-73794681D01*
X81979432Y-73860145D01*
X81964580Y-73928418D01*
X81943430Y-73956673D01*
X81821503Y-74078600D01*
X81685965Y-74272169D01*
X81685964Y-74272171D01*
X81586098Y-74486335D01*
X81586094Y-74486344D01*
X81524938Y-74714586D01*
X81524936Y-74714596D01*
X81504341Y-74949999D01*
X73500500Y-74949999D01*
X73500500Y-71779998D01*
X73954518Y-71779998D01*
X73954518Y-71780001D01*
X73974422Y-72058299D01*
X74033727Y-72330916D01*
X74033729Y-72330923D01*
X74083737Y-72465000D01*
X74131231Y-72592338D01*
X74131233Y-72592342D01*
X74264940Y-72837207D01*
X74264945Y-72837215D01*
X74432138Y-73060560D01*
X74432154Y-73060578D01*
X74629421Y-73257845D01*
X74629439Y-73257861D01*
X74852784Y-73425054D01*
X74852792Y-73425059D01*
X75097657Y-73558766D01*
X75097661Y-73558768D01*
X75097663Y-73558769D01*
X75359077Y-73656271D01*
X75495391Y-73685924D01*
X75631700Y-73715577D01*
X75631702Y-73715577D01*
X75631706Y-73715578D01*
X75879014Y-73733265D01*
X75909999Y-73735482D01*
X75910000Y-73735482D01*
X75910001Y-73735482D01*
X75937881Y-73733487D01*
X76188294Y-73715578D01*
X76460923Y-73656271D01*
X76722337Y-73558769D01*
X76967213Y-73425056D01*
X77190568Y-73257855D01*
X77387855Y-73060568D01*
X77555056Y-72837213D01*
X77688769Y-72592337D01*
X77786271Y-72330923D01*
X77843656Y-72067128D01*
X77845577Y-72058299D01*
X77845577Y-72058298D01*
X77845578Y-72058294D01*
X77865482Y-71780000D01*
X77863869Y-71757454D01*
X77859124Y-71691098D01*
X77845578Y-71501706D01*
X77834877Y-71452516D01*
X77815924Y-71365391D01*
X77786271Y-71229077D01*
X77688769Y-70967663D01*
X77555056Y-70722787D01*
X77555054Y-70722784D01*
X77387861Y-70499439D01*
X77387845Y-70499421D01*
X77190578Y-70302154D01*
X77190560Y-70302138D01*
X76967215Y-70134945D01*
X76967207Y-70134940D01*
X76722342Y-70001233D01*
X76722338Y-70001231D01*
X76623230Y-69964266D01*
X76460923Y-69903729D01*
X76460919Y-69903728D01*
X76460916Y-69903727D01*
X76188299Y-69844422D01*
X75910001Y-69824518D01*
X75909999Y-69824518D01*
X75631700Y-69844422D01*
X75359083Y-69903727D01*
X75359078Y-69903728D01*
X75359077Y-69903729D01*
X75295875Y-69927301D01*
X75097661Y-70001231D01*
X75097657Y-70001233D01*
X74852792Y-70134940D01*
X74852784Y-70134945D01*
X74629439Y-70302138D01*
X74629421Y-70302154D01*
X74432154Y-70499421D01*
X74432138Y-70499439D01*
X74264945Y-70722784D01*
X74264940Y-70722792D01*
X74131233Y-70967657D01*
X74131231Y-70967661D01*
X74057301Y-71165875D01*
X74043659Y-71202455D01*
X74033727Y-71229083D01*
X73974422Y-71501700D01*
X73954518Y-71779998D01*
X73500500Y-71779998D01*
X73500500Y-64219998D01*
X78024838Y-64219998D01*
X78024838Y-64220001D01*
X78043450Y-64432741D01*
X78043452Y-64432752D01*
X78098721Y-64639022D01*
X78098723Y-64639026D01*
X78098724Y-64639030D01*
X78141171Y-64730058D01*
X78188977Y-64832578D01*
X78311472Y-65007521D01*
X78462478Y-65158527D01*
X78462481Y-65158529D01*
X78637419Y-65281021D01*
X78637421Y-65281022D01*
X78637420Y-65281022D01*
X78701936Y-65311106D01*
X78830970Y-65371276D01*
X79037253Y-65426549D01*
X79189215Y-65439844D01*
X79249998Y-65445162D01*
X79250000Y-65445162D01*
X79250002Y-65445162D01*
X79303186Y-65440508D01*
X79462747Y-65426549D01*
X79669030Y-65371276D01*
X79862581Y-65281021D01*
X80037519Y-65158529D01*
X80188529Y-65007519D01*
X80311021Y-64832581D01*
X80401276Y-64639030D01*
X80456549Y-64432747D01*
X80475162Y-64220000D01*
X80456549Y-64007253D01*
X80414581Y-63850627D01*
X80401278Y-63800977D01*
X80401277Y-63800976D01*
X80401276Y-63800970D01*
X80311021Y-63607419D01*
X80188529Y-63432481D01*
X80188527Y-63432478D01*
X80037521Y-63281472D01*
X79862578Y-63158977D01*
X79862579Y-63158977D01*
X79733547Y-63098809D01*
X79669030Y-63068724D01*
X79669026Y-63068723D01*
X79669022Y-63068721D01*
X79462752Y-63013452D01*
X79462748Y-63013451D01*
X79462747Y-63013451D01*
X79462746Y-63013450D01*
X79462741Y-63013450D01*
X79250002Y-62994838D01*
X79249998Y-62994838D01*
X79037258Y-63013450D01*
X79037247Y-63013452D01*
X78830977Y-63068721D01*
X78830968Y-63068725D01*
X78637421Y-63158977D01*
X78462478Y-63281472D01*
X78311472Y-63432478D01*
X78188977Y-63607421D01*
X78098725Y-63800968D01*
X78098721Y-63800977D01*
X78043452Y-64007247D01*
X78043450Y-64007258D01*
X78024838Y-64219998D01*
X73500500Y-64219998D01*
X73500500Y-62908655D01*
X87696000Y-62908655D01*
X87696000Y-63460500D01*
X88516988Y-63460500D01*
X88484075Y-63517507D01*
X88450000Y-63644674D01*
X88450000Y-63776326D01*
X88484075Y-63903493D01*
X88516988Y-63960500D01*
X87696000Y-63960500D01*
X87696000Y-64512344D01*
X87702401Y-64571872D01*
X87702403Y-64571879D01*
X87752645Y-64706586D01*
X87752649Y-64706593D01*
X87838809Y-64821687D01*
X87838812Y-64821690D01*
X87953906Y-64907850D01*
X87953913Y-64907854D01*
X88088620Y-64958096D01*
X88088627Y-64958098D01*
X88148155Y-64964499D01*
X88148172Y-64964500D01*
X88700000Y-64964500D01*
X88700000Y-64143512D01*
X88757007Y-64176425D01*
X88884174Y-64210500D01*
X89015826Y-64210500D01*
X89142993Y-64176425D01*
X89200000Y-64143512D01*
X89200000Y-64964500D01*
X89751828Y-64964500D01*
X89751844Y-64964499D01*
X89811372Y-64958098D01*
X89811379Y-64958096D01*
X89946086Y-64907854D01*
X89946093Y-64907850D01*
X90061187Y-64821690D01*
X90061190Y-64821687D01*
X90147350Y-64706593D01*
X90147354Y-64706586D01*
X90197596Y-64571879D01*
X90197598Y-64571872D01*
X90203999Y-64512344D01*
X90204000Y-64512327D01*
X90204000Y-64511459D01*
X90204056Y-64511265D01*
X90204177Y-64509021D01*
X90204355Y-64509030D01*
X90204356Y-64509025D01*
X90204459Y-64509036D01*
X90204707Y-64509049D01*
X90223685Y-64444420D01*
X90276489Y-64398665D01*
X90345647Y-64388721D01*
X90409203Y-64417746D01*
X90429574Y-64440334D01*
X90446448Y-64464434D01*
X90485322Y-64519952D01*
X90485327Y-64519958D01*
X90640541Y-64675172D01*
X90640547Y-64675177D01*
X90820349Y-64801076D01*
X90820351Y-64801077D01*
X90820354Y-64801079D01*
X91019297Y-64893847D01*
X91231326Y-64950661D01*
X91387521Y-64964326D01*
X91449998Y-64969792D01*
X91450000Y-64969792D01*
X91450002Y-64969792D01*
X91510501Y-64964499D01*
X91668674Y-64950661D01*
X91880703Y-64893847D01*
X92079646Y-64801079D01*
X92259457Y-64675174D01*
X92414674Y-64519957D01*
X92540579Y-64340146D01*
X92587618Y-64239270D01*
X92633790Y-64186830D01*
X92700983Y-64167678D01*
X92767865Y-64187893D01*
X92812382Y-64239270D01*
X92859419Y-64340142D01*
X92859423Y-64340150D01*
X92985322Y-64519952D01*
X92985327Y-64519958D01*
X93140541Y-64675172D01*
X93140547Y-64675177D01*
X93320349Y-64801076D01*
X93320351Y-64801077D01*
X93320354Y-64801079D01*
X93519297Y-64893847D01*
X93731326Y-64950661D01*
X93887521Y-64964326D01*
X93949998Y-64969792D01*
X93950000Y-64969792D01*
X93950002Y-64969792D01*
X94010501Y-64964499D01*
X94168674Y-64950661D01*
X94380703Y-64893847D01*
X94579646Y-64801079D01*
X94759457Y-64675174D01*
X94914674Y-64519957D01*
X95040579Y-64340146D01*
X95096605Y-64219998D01*
X103514838Y-64219998D01*
X103514838Y-64220001D01*
X103533450Y-64432741D01*
X103533452Y-64432752D01*
X103588721Y-64639022D01*
X103588723Y-64639026D01*
X103588724Y-64639030D01*
X103631171Y-64730058D01*
X103678977Y-64832578D01*
X103801472Y-65007521D01*
X103952478Y-65158527D01*
X103952481Y-65158529D01*
X104127419Y-65281021D01*
X104127421Y-65281022D01*
X104127420Y-65281022D01*
X104191936Y-65311106D01*
X104320970Y-65371276D01*
X104527253Y-65426549D01*
X104679215Y-65439844D01*
X104739998Y-65445162D01*
X104740000Y-65445162D01*
X104740002Y-65445162D01*
X104793186Y-65440508D01*
X104952747Y-65426549D01*
X105159030Y-65371276D01*
X105352581Y-65281021D01*
X105527519Y-65158529D01*
X105678529Y-65007519D01*
X105801021Y-64832581D01*
X105891276Y-64639030D01*
X105946549Y-64432747D01*
X105965162Y-64220000D01*
X105946549Y-64007253D01*
X105904581Y-63850627D01*
X105891278Y-63800977D01*
X105891277Y-63800976D01*
X105891276Y-63800970D01*
X105801021Y-63607419D01*
X105678529Y-63432481D01*
X105678527Y-63432478D01*
X105527521Y-63281472D01*
X105352578Y-63158977D01*
X105352579Y-63158977D01*
X105223547Y-63098809D01*
X105159030Y-63068724D01*
X105159026Y-63068723D01*
X105159022Y-63068721D01*
X104952752Y-63013452D01*
X104952748Y-63013451D01*
X104952747Y-63013451D01*
X104952746Y-63013450D01*
X104952741Y-63013450D01*
X104740002Y-62994838D01*
X104739998Y-62994838D01*
X104527258Y-63013450D01*
X104527247Y-63013452D01*
X104320977Y-63068721D01*
X104320968Y-63068725D01*
X104127421Y-63158977D01*
X103952478Y-63281472D01*
X103801472Y-63432478D01*
X103678977Y-63607421D01*
X103588725Y-63800968D01*
X103588721Y-63800977D01*
X103533452Y-64007247D01*
X103533450Y-64007258D01*
X103514838Y-64219998D01*
X95096605Y-64219998D01*
X95133347Y-64141203D01*
X95190161Y-63929174D01*
X95209292Y-63710500D01*
X95190161Y-63491826D01*
X95133347Y-63279797D01*
X95040579Y-63080854D01*
X95040577Y-63080851D01*
X95040576Y-63080849D01*
X94914677Y-62901047D01*
X94914672Y-62901041D01*
X94759458Y-62745827D01*
X94759452Y-62745822D01*
X94579650Y-62619923D01*
X94579642Y-62619919D01*
X94380708Y-62527155D01*
X94380706Y-62527154D01*
X94380703Y-62527153D01*
X94229885Y-62486740D01*
X94168675Y-62470339D01*
X94168668Y-62470338D01*
X93950002Y-62451208D01*
X93949998Y-62451208D01*
X93731331Y-62470338D01*
X93731324Y-62470339D01*
X93608902Y-62503142D01*
X93519297Y-62527153D01*
X93519295Y-62527153D01*
X93519291Y-62527155D01*
X93320357Y-62619919D01*
X93320349Y-62619923D01*
X93140547Y-62745822D01*
X93140541Y-62745827D01*
X92985327Y-62901041D01*
X92985322Y-62901047D01*
X92859423Y-63080849D01*
X92859421Y-63080853D01*
X92812382Y-63181730D01*
X92766210Y-63234169D01*
X92699016Y-63253321D01*
X92632135Y-63233105D01*
X92587618Y-63181730D01*
X92540580Y-63080857D01*
X92540579Y-63080854D01*
X92540577Y-63080851D01*
X92540576Y-63080849D01*
X92414677Y-62901047D01*
X92414672Y-62901041D01*
X92259458Y-62745827D01*
X92259452Y-62745822D01*
X92079650Y-62619923D01*
X92079642Y-62619919D01*
X91880708Y-62527155D01*
X91880706Y-62527154D01*
X91880703Y-62527153D01*
X91729885Y-62486740D01*
X91668675Y-62470339D01*
X91668668Y-62470338D01*
X91450002Y-62451208D01*
X91449998Y-62451208D01*
X91231331Y-62470338D01*
X91231324Y-62470339D01*
X91108902Y-62503142D01*
X91019297Y-62527153D01*
X91019295Y-62527153D01*
X91019291Y-62527155D01*
X90820357Y-62619919D01*
X90820349Y-62619923D01*
X90640547Y-62745822D01*
X90640541Y-62745827D01*
X90485326Y-62901042D01*
X90429575Y-62980664D01*
X90374998Y-63024288D01*
X90305499Y-63031481D01*
X90243145Y-62999959D01*
X90207731Y-62939729D01*
X90204300Y-62911972D01*
X90204177Y-62911979D01*
X90204081Y-62910202D01*
X90204000Y-62909540D01*
X90204000Y-62908672D01*
X90203999Y-62908655D01*
X90197598Y-62849127D01*
X90197596Y-62849120D01*
X90147354Y-62714413D01*
X90147350Y-62714406D01*
X90061190Y-62599312D01*
X90061187Y-62599309D01*
X89946093Y-62513149D01*
X89946086Y-62513145D01*
X89811379Y-62462903D01*
X89811372Y-62462901D01*
X89751844Y-62456500D01*
X89200000Y-62456500D01*
X89200000Y-63277488D01*
X89142993Y-63244575D01*
X89015826Y-63210500D01*
X88884174Y-63210500D01*
X88757007Y-63244575D01*
X88700000Y-63277488D01*
X88700000Y-62456500D01*
X88148155Y-62456500D01*
X88088627Y-62462901D01*
X88088620Y-62462903D01*
X87953913Y-62513145D01*
X87953906Y-62513149D01*
X87838812Y-62599309D01*
X87838809Y-62599312D01*
X87752649Y-62714406D01*
X87752645Y-62714413D01*
X87702403Y-62849120D01*
X87702401Y-62849127D01*
X87696000Y-62908655D01*
X73500500Y-62908655D01*
X73500500Y-61679997D01*
X75485340Y-61679997D01*
X75485340Y-61680002D01*
X75503944Y-61892654D01*
X75503945Y-61892662D01*
X75559194Y-62098853D01*
X75559197Y-62098859D01*
X75649413Y-62292329D01*
X75688415Y-62348030D01*
X76310000Y-61726445D01*
X76310000Y-61732661D01*
X76337259Y-61834394D01*
X76389920Y-61925606D01*
X76464394Y-62000080D01*
X76555606Y-62052741D01*
X76657339Y-62080000D01*
X76663553Y-62080000D01*
X76041968Y-62701584D01*
X76097663Y-62740582D01*
X76097669Y-62740586D01*
X76291140Y-62830802D01*
X76291146Y-62830805D01*
X76497337Y-62886054D01*
X76497345Y-62886055D01*
X76709998Y-62904660D01*
X76710002Y-62904660D01*
X76922654Y-62886055D01*
X76922662Y-62886054D01*
X77128853Y-62830805D01*
X77128864Y-62830801D01*
X77322325Y-62740589D01*
X77378030Y-62701583D01*
X76756448Y-62080000D01*
X76762661Y-62080000D01*
X76864394Y-62052741D01*
X76955606Y-62000080D01*
X77030080Y-61925606D01*
X77082741Y-61834394D01*
X77110000Y-61732661D01*
X77110000Y-61726446D01*
X77731583Y-62348029D01*
X77770589Y-62292325D01*
X77860801Y-62098864D01*
X77860805Y-62098853D01*
X77916054Y-61892662D01*
X77916055Y-61892654D01*
X77934660Y-61680002D01*
X77934660Y-61679998D01*
X80564838Y-61679998D01*
X80564838Y-61680001D01*
X80583450Y-61892741D01*
X80583452Y-61892752D01*
X80638721Y-62099022D01*
X80638723Y-62099026D01*
X80638724Y-62099030D01*
X80681171Y-62190058D01*
X80728977Y-62292578D01*
X80851472Y-62467521D01*
X81002478Y-62618527D01*
X81002481Y-62618529D01*
X81177419Y-62741021D01*
X81177421Y-62741022D01*
X81177420Y-62741022D01*
X81241936Y-62771106D01*
X81370970Y-62831276D01*
X81577253Y-62886549D01*
X81729215Y-62899844D01*
X81789998Y-62905162D01*
X81790000Y-62905162D01*
X81790002Y-62905162D01*
X81843186Y-62900508D01*
X82002747Y-62886549D01*
X82209030Y-62831276D01*
X82402581Y-62741021D01*
X82577519Y-62618529D01*
X82728529Y-62467519D01*
X82851021Y-62292581D01*
X82941276Y-62099030D01*
X82996549Y-61892747D01*
X83015162Y-61680000D01*
X83015162Y-61679997D01*
X100975340Y-61679997D01*
X100975340Y-61680002D01*
X100993944Y-61892654D01*
X100993945Y-61892662D01*
X101049194Y-62098853D01*
X101049197Y-62098859D01*
X101139413Y-62292329D01*
X101178415Y-62348030D01*
X101800000Y-61726445D01*
X101800000Y-61732661D01*
X101827259Y-61834394D01*
X101879920Y-61925606D01*
X101954394Y-62000080D01*
X102045606Y-62052741D01*
X102147339Y-62080000D01*
X102153553Y-62080000D01*
X101531968Y-62701584D01*
X101587663Y-62740582D01*
X101587669Y-62740586D01*
X101781140Y-62830802D01*
X101781146Y-62830805D01*
X101987337Y-62886054D01*
X101987345Y-62886055D01*
X102199998Y-62904660D01*
X102200002Y-62904660D01*
X102412654Y-62886055D01*
X102412662Y-62886054D01*
X102618853Y-62830805D01*
X102618864Y-62830801D01*
X102812325Y-62740589D01*
X102868030Y-62701583D01*
X102246448Y-62080000D01*
X102252661Y-62080000D01*
X102354394Y-62052741D01*
X102445606Y-62000080D01*
X102520080Y-61925606D01*
X102572741Y-61834394D01*
X102600000Y-61732661D01*
X102600000Y-61726446D01*
X103221583Y-62348029D01*
X103260589Y-62292325D01*
X103350801Y-62098864D01*
X103350805Y-62098853D01*
X103406054Y-61892662D01*
X103406055Y-61892654D01*
X103424660Y-61680002D01*
X103424660Y-61679998D01*
X106054838Y-61679998D01*
X106054838Y-61680001D01*
X106073450Y-61892741D01*
X106073452Y-61892752D01*
X106128721Y-62099022D01*
X106128723Y-62099026D01*
X106128724Y-62099030D01*
X106171171Y-62190058D01*
X106218977Y-62292578D01*
X106341472Y-62467521D01*
X106492478Y-62618527D01*
X106492481Y-62618529D01*
X106667419Y-62741021D01*
X106667421Y-62741022D01*
X106667420Y-62741022D01*
X106731936Y-62771106D01*
X106860970Y-62831276D01*
X107067253Y-62886549D01*
X107219215Y-62899844D01*
X107279998Y-62905162D01*
X107280000Y-62905162D01*
X107280002Y-62905162D01*
X107333186Y-62900508D01*
X107492747Y-62886549D01*
X107699030Y-62831276D01*
X107892581Y-62741021D01*
X108067519Y-62618529D01*
X108218529Y-62467519D01*
X108341021Y-62292581D01*
X108431276Y-62099030D01*
X108486549Y-61892747D01*
X108505162Y-61680000D01*
X108486549Y-61467253D01*
X108431276Y-61260970D01*
X108341021Y-61067419D01*
X108218529Y-60892481D01*
X108218527Y-60892478D01*
X108067521Y-60741472D01*
X107892578Y-60618977D01*
X107892579Y-60618977D01*
X107763547Y-60558809D01*
X107699030Y-60528724D01*
X107699026Y-60528723D01*
X107699022Y-60528721D01*
X107492752Y-60473452D01*
X107492748Y-60473451D01*
X107492747Y-60473451D01*
X107492746Y-60473450D01*
X107492741Y-60473450D01*
X107280002Y-60454838D01*
X107279998Y-60454838D01*
X107067258Y-60473450D01*
X107067247Y-60473452D01*
X106860977Y-60528721D01*
X106860968Y-60528725D01*
X106667421Y-60618977D01*
X106492478Y-60741472D01*
X106341472Y-60892478D01*
X106218977Y-61067421D01*
X106128725Y-61260968D01*
X106128721Y-61260977D01*
X106073452Y-61467247D01*
X106073450Y-61467258D01*
X106054838Y-61679998D01*
X103424660Y-61679998D01*
X103424660Y-61679997D01*
X103406055Y-61467345D01*
X103406054Y-61467337D01*
X103350805Y-61261146D01*
X103350802Y-61261140D01*
X103260586Y-61067669D01*
X103260582Y-61067663D01*
X103221584Y-61011968D01*
X102600000Y-61633552D01*
X102600000Y-61627339D01*
X102572741Y-61525606D01*
X102520080Y-61434394D01*
X102445606Y-61359920D01*
X102354394Y-61307259D01*
X102252661Y-61280000D01*
X102246447Y-61280000D01*
X102868030Y-60658415D01*
X102812329Y-60619413D01*
X102618859Y-60529197D01*
X102618853Y-60529194D01*
X102412662Y-60473945D01*
X102412654Y-60473944D01*
X102200002Y-60455340D01*
X102199998Y-60455340D01*
X101987345Y-60473944D01*
X101987337Y-60473945D01*
X101781146Y-60529194D01*
X101781140Y-60529197D01*
X101587671Y-60619412D01*
X101587669Y-60619413D01*
X101531969Y-60658415D01*
X101531968Y-60658415D01*
X102153554Y-61280000D01*
X102147339Y-61280000D01*
X102045606Y-61307259D01*
X101954394Y-61359920D01*
X101879920Y-61434394D01*
X101827259Y-61525606D01*
X101800000Y-61627339D01*
X101800000Y-61633553D01*
X101178415Y-61011968D01*
X101178415Y-61011969D01*
X101139413Y-61067669D01*
X101139412Y-61067671D01*
X101049197Y-61261140D01*
X101049194Y-61261146D01*
X100993945Y-61467337D01*
X100993944Y-61467345D01*
X100975340Y-61679997D01*
X83015162Y-61679997D01*
X82996549Y-61467253D01*
X82941276Y-61260970D01*
X82851021Y-61067419D01*
X82728529Y-60892481D01*
X82728527Y-60892478D01*
X82577521Y-60741472D01*
X82402578Y-60618977D01*
X82402579Y-60618977D01*
X82273547Y-60558809D01*
X82209030Y-60528724D01*
X82209026Y-60528723D01*
X82209022Y-60528721D01*
X82002752Y-60473452D01*
X82002748Y-60473451D01*
X82002747Y-60473451D01*
X82002746Y-60473450D01*
X82002741Y-60473450D01*
X81790002Y-60454838D01*
X81789998Y-60454838D01*
X81577258Y-60473450D01*
X81577247Y-60473452D01*
X81370977Y-60528721D01*
X81370968Y-60528725D01*
X81177421Y-60618977D01*
X81002478Y-60741472D01*
X80851472Y-60892478D01*
X80728977Y-61067421D01*
X80638725Y-61260968D01*
X80638721Y-61260977D01*
X80583452Y-61467247D01*
X80583450Y-61467258D01*
X80564838Y-61679998D01*
X77934660Y-61679998D01*
X77934660Y-61679997D01*
X77916055Y-61467345D01*
X77916054Y-61467337D01*
X77860805Y-61261146D01*
X77860802Y-61261140D01*
X77770586Y-61067669D01*
X77770582Y-61067663D01*
X77731584Y-61011968D01*
X77110000Y-61633552D01*
X77110000Y-61627339D01*
X77082741Y-61525606D01*
X77030080Y-61434394D01*
X76955606Y-61359920D01*
X76864394Y-61307259D01*
X76762661Y-61280000D01*
X76756447Y-61280000D01*
X77378030Y-60658415D01*
X77322329Y-60619413D01*
X77128859Y-60529197D01*
X77128853Y-60529194D01*
X76922662Y-60473945D01*
X76922654Y-60473944D01*
X76710002Y-60455340D01*
X76709998Y-60455340D01*
X76497345Y-60473944D01*
X76497337Y-60473945D01*
X76291146Y-60529194D01*
X76291140Y-60529197D01*
X76097671Y-60619412D01*
X76097669Y-60619413D01*
X76041969Y-60658415D01*
X76041968Y-60658415D01*
X76663554Y-61280000D01*
X76657339Y-61280000D01*
X76555606Y-61307259D01*
X76464394Y-61359920D01*
X76389920Y-61434394D01*
X76337259Y-61525606D01*
X76310000Y-61627339D01*
X76310000Y-61633553D01*
X75688415Y-61011968D01*
X75688415Y-61011969D01*
X75649413Y-61067669D01*
X75649412Y-61067671D01*
X75559197Y-61261140D01*
X75559194Y-61261146D01*
X75503945Y-61467337D01*
X75503944Y-61467345D01*
X75485340Y-61679997D01*
X73500500Y-61679997D01*
X73500500Y-55430597D01*
X85399500Y-55430597D01*
X85399500Y-57990402D01*
X85440140Y-58246993D01*
X85520422Y-58494076D01*
X85601534Y-58653264D01*
X85638366Y-58725551D01*
X85791069Y-58935729D01*
X85974771Y-59119431D01*
X86184949Y-59272134D01*
X86332445Y-59347287D01*
X86416423Y-59390077D01*
X86416425Y-59390077D01*
X86416428Y-59390079D01*
X86663507Y-59470360D01*
X86795706Y-59491297D01*
X86920098Y-59511000D01*
X86920103Y-59511000D01*
X87179902Y-59511000D01*
X87293298Y-59493039D01*
X87436493Y-59470360D01*
X87683572Y-59390079D01*
X87915051Y-59272134D01*
X88125229Y-59119431D01*
X88308931Y-58935729D01*
X88461634Y-58725551D01*
X88579579Y-58494072D01*
X88659860Y-58246993D01*
X88682539Y-58103798D01*
X88700500Y-57990402D01*
X88700500Y-55430597D01*
X94199500Y-55430597D01*
X94199500Y-57990402D01*
X94240140Y-58246993D01*
X94320422Y-58494076D01*
X94401534Y-58653264D01*
X94438366Y-58725551D01*
X94591069Y-58935729D01*
X94774771Y-59119431D01*
X94984949Y-59272134D01*
X95132445Y-59347287D01*
X95216423Y-59390077D01*
X95216425Y-59390077D01*
X95216428Y-59390079D01*
X95463507Y-59470360D01*
X95595706Y-59491297D01*
X95720098Y-59511000D01*
X95720103Y-59511000D01*
X95979902Y-59511000D01*
X96093298Y-59493039D01*
X96236493Y-59470360D01*
X96483572Y-59390079D01*
X96715051Y-59272134D01*
X96925229Y-59119431D01*
X97108931Y-58935729D01*
X97261634Y-58725551D01*
X97379579Y-58494072D01*
X97459860Y-58246993D01*
X97482539Y-58103798D01*
X97500500Y-57990402D01*
X97500500Y-55430597D01*
X97476452Y-55278766D01*
X97459860Y-55174007D01*
X97379579Y-54926928D01*
X97379577Y-54926925D01*
X97379577Y-54926923D01*
X97336787Y-54842945D01*
X97261634Y-54695449D01*
X97108931Y-54485271D01*
X96925229Y-54301569D01*
X96715051Y-54148866D01*
X96642764Y-54112034D01*
X96483576Y-54030922D01*
X96236493Y-53950640D01*
X95979902Y-53910000D01*
X95979897Y-53910000D01*
X95720103Y-53910000D01*
X95720098Y-53910000D01*
X95463506Y-53950640D01*
X95216423Y-54030922D01*
X94984945Y-54148868D01*
X94774774Y-54301566D01*
X94774768Y-54301571D01*
X94591071Y-54485268D01*
X94591066Y-54485274D01*
X94438368Y-54695445D01*
X94320422Y-54926923D01*
X94240140Y-55174006D01*
X94199500Y-55430597D01*
X88700500Y-55430597D01*
X88676452Y-55278766D01*
X88659860Y-55174007D01*
X88579579Y-54926928D01*
X88579577Y-54926925D01*
X88579577Y-54926923D01*
X88536787Y-54842945D01*
X88461634Y-54695449D01*
X88308931Y-54485271D01*
X88125229Y-54301569D01*
X87915051Y-54148866D01*
X87842764Y-54112034D01*
X87683576Y-54030922D01*
X87436493Y-53950640D01*
X87179902Y-53910000D01*
X87179897Y-53910000D01*
X86920103Y-53910000D01*
X86920098Y-53910000D01*
X86663506Y-53950640D01*
X86416423Y-54030922D01*
X86184945Y-54148868D01*
X85974774Y-54301566D01*
X85974768Y-54301571D01*
X85791071Y-54485268D01*
X85791066Y-54485274D01*
X85638368Y-54695445D01*
X85520422Y-54926923D01*
X85440140Y-55174006D01*
X85399500Y-55430597D01*
X73500500Y-55430597D01*
X73500500Y-53499998D01*
X106004518Y-53499998D01*
X106004518Y-53500001D01*
X106024422Y-53778299D01*
X106079378Y-54030922D01*
X106083729Y-54050923D01*
X106144266Y-54213230D01*
X106181231Y-54312338D01*
X106181233Y-54312342D01*
X106314940Y-54557207D01*
X106314945Y-54557215D01*
X106482138Y-54780560D01*
X106482154Y-54780578D01*
X106679421Y-54977845D01*
X106679439Y-54977861D01*
X106902784Y-55145054D01*
X106902792Y-55145059D01*
X107147657Y-55278766D01*
X107147661Y-55278768D01*
X107147663Y-55278769D01*
X107409077Y-55376271D01*
X107545391Y-55405924D01*
X107681700Y-55435577D01*
X107681702Y-55435577D01*
X107681706Y-55435578D01*
X107929014Y-55453265D01*
X107959999Y-55455482D01*
X107960000Y-55455482D01*
X107960001Y-55455482D01*
X107987881Y-55453487D01*
X108238294Y-55435578D01*
X108510923Y-55376271D01*
X108772337Y-55278769D01*
X109017213Y-55145056D01*
X109240568Y-54977855D01*
X109437855Y-54780568D01*
X109605056Y-54557213D01*
X109738769Y-54312337D01*
X109836271Y-54050923D01*
X109895578Y-53778294D01*
X109915482Y-53500000D01*
X109895578Y-53221706D01*
X109836271Y-52949077D01*
X109738769Y-52687663D01*
X109605056Y-52442787D01*
X109605054Y-52442784D01*
X109437861Y-52219439D01*
X109437845Y-52219421D01*
X109240578Y-52022154D01*
X109240560Y-52022138D01*
X109017215Y-51854945D01*
X109017207Y-51854940D01*
X108772342Y-51721233D01*
X108772338Y-51721231D01*
X108673230Y-51684266D01*
X108510923Y-51623729D01*
X108510919Y-51623728D01*
X108510916Y-51623727D01*
X108238299Y-51564422D01*
X107960001Y-51544518D01*
X107959999Y-51544518D01*
X107681700Y-51564422D01*
X107409083Y-51623727D01*
X107409078Y-51623728D01*
X107409077Y-51623729D01*
X107345875Y-51647301D01*
X107147661Y-51721231D01*
X107147657Y-51721233D01*
X106902792Y-51854940D01*
X106902784Y-51854945D01*
X106679439Y-52022138D01*
X106679421Y-52022154D01*
X106482154Y-52219421D01*
X106482138Y-52219439D01*
X106314945Y-52442784D01*
X106314940Y-52442792D01*
X106181233Y-52687657D01*
X106181231Y-52687661D01*
X106083727Y-52949083D01*
X106024422Y-53221700D01*
X106004518Y-53499998D01*
X73500500Y-53499998D01*
X73500500Y-51034500D01*
X73520185Y-50967461D01*
X73572989Y-50921706D01*
X73624500Y-50910500D01*
X110375500Y-50910500D01*
X110442539Y-50930185D01*
G37*
%TD.AperFunction*%
%TA.AperFunction,Conductor*%
G36*
X73705703Y-86351317D02*
G01*
X73743477Y-86410095D01*
X73744275Y-86412937D01*
X73806094Y-86643655D01*
X73806096Y-86643659D01*
X73806097Y-86643663D01*
X73809855Y-86651721D01*
X73905965Y-86857830D01*
X73905967Y-86857834D01*
X73918161Y-86875248D01*
X74041505Y-87051401D01*
X74208599Y-87218495D01*
X74394594Y-87348730D01*
X74438218Y-87403307D01*
X74445411Y-87472806D01*
X74413889Y-87535160D01*
X74394593Y-87551880D01*
X74318626Y-87605072D01*
X74318625Y-87605072D01*
X74950590Y-88237037D01*
X74887007Y-88254075D01*
X74772993Y-88319901D01*
X74679901Y-88412993D01*
X74614075Y-88527007D01*
X74597037Y-88590590D01*
X73965072Y-87958625D01*
X73906401Y-88042419D01*
X73806570Y-88256507D01*
X73806566Y-88256516D01*
X73744275Y-88488993D01*
X73707910Y-88548654D01*
X73645063Y-88579183D01*
X73575687Y-88570888D01*
X73521810Y-88526403D01*
X73500535Y-88459851D01*
X73500500Y-88456900D01*
X73500500Y-86445030D01*
X73520185Y-86377991D01*
X73572989Y-86332236D01*
X73642147Y-86322292D01*
X73705703Y-86351317D01*
G37*
%TD.AperFunction*%
%TA.AperFunction,Conductor*%
G36*
X76434855Y-86846546D02*
G01*
X76451575Y-86865842D01*
X76581501Y-87051396D01*
X76581506Y-87051402D01*
X76703430Y-87173326D01*
X76736915Y-87234649D01*
X76731931Y-87304341D01*
X76690059Y-87360274D01*
X76659083Y-87377189D01*
X76527669Y-87426203D01*
X76527664Y-87426206D01*
X76412455Y-87512452D01*
X76412452Y-87512455D01*
X76326206Y-87627664D01*
X76326202Y-87627671D01*
X76275908Y-87762517D01*
X76270351Y-87814211D01*
X76269501Y-87822123D01*
X76269500Y-87822135D01*
X76269500Y-87832689D01*
X76249815Y-87899728D01*
X76233181Y-87920370D01*
X75562962Y-88590589D01*
X75545925Y-88527007D01*
X75480099Y-88412993D01*
X75387007Y-88319901D01*
X75272993Y-88254075D01*
X75209410Y-88237037D01*
X75841373Y-87605073D01*
X75841373Y-87605072D01*
X75765405Y-87551880D01*
X75721780Y-87497304D01*
X75714586Y-87427805D01*
X75746108Y-87365451D01*
X75765399Y-87348734D01*
X75951401Y-87218495D01*
X76118495Y-87051401D01*
X76241839Y-86875248D01*
X76248425Y-86865842D01*
X76303002Y-86822217D01*
X76372500Y-86815023D01*
X76434855Y-86846546D01*
G37*
%TD.AperFunction*%
%TD*%
M02*
