%TF.GenerationSoftware,KiCad,Pcbnew,8.0.5*%
%TF.CreationDate,2025-09-24T21:31:51-07:00*%
%TF.ProjectId,transmitter,7472616e-736d-4697-9474-65722e6b6963,rev?*%
%TF.SameCoordinates,Original*%
%TF.FileFunction,Drillmap*%
%TF.FilePolarity,Positive*%
%FSLAX45Y45*%
G04 Gerber Fmt 4.5, Leading zero omitted, Abs format (unit mm)*
G04 Created by KiCad (PCBNEW 8.0.5) date 2025-09-24 21:31:51*
%MOMM*%
%LPD*%
G01*
G04 APERTURE LIST*
%ADD10C,0.050000*%
%ADD11C,0.200000*%
%ADD12C,0.350000*%
G04 APERTURE END LIST*
D10*
X7300000Y-5041000D02*
X11100000Y-5041000D01*
X11100000Y-12300000D01*
X7300000Y-12300000D01*
X7300000Y-5041000D01*
D11*
D12*
X9244000Y-10139000D02*
X9594000Y-10489000D01*
X9594000Y-10139000D02*
X9244000Y-10489000D01*
D11*
X7558277Y-12613984D02*
X7558277Y-12413984D01*
X7558277Y-12413984D02*
X7605896Y-12413984D01*
X7605896Y-12413984D02*
X7634467Y-12423508D01*
X7634467Y-12423508D02*
X7653515Y-12442555D01*
X7653515Y-12442555D02*
X7663039Y-12461603D01*
X7663039Y-12461603D02*
X7672562Y-12499698D01*
X7672562Y-12499698D02*
X7672562Y-12528269D01*
X7672562Y-12528269D02*
X7663039Y-12566365D01*
X7663039Y-12566365D02*
X7653515Y-12585412D01*
X7653515Y-12585412D02*
X7634467Y-12604460D01*
X7634467Y-12604460D02*
X7605896Y-12613984D01*
X7605896Y-12613984D02*
X7558277Y-12613984D01*
X7758277Y-12613984D02*
X7758277Y-12480650D01*
X7758277Y-12518746D02*
X7767801Y-12499698D01*
X7767801Y-12499698D02*
X7777324Y-12490174D01*
X7777324Y-12490174D02*
X7796372Y-12480650D01*
X7796372Y-12480650D02*
X7815420Y-12480650D01*
X7882086Y-12613984D02*
X7882086Y-12480650D01*
X7882086Y-12413984D02*
X7872562Y-12423508D01*
X7872562Y-12423508D02*
X7882086Y-12433031D01*
X7882086Y-12433031D02*
X7891610Y-12423508D01*
X7891610Y-12423508D02*
X7882086Y-12413984D01*
X7882086Y-12413984D02*
X7882086Y-12433031D01*
X8005896Y-12613984D02*
X7986848Y-12604460D01*
X7986848Y-12604460D02*
X7977324Y-12585412D01*
X7977324Y-12585412D02*
X7977324Y-12413984D01*
X8110658Y-12613984D02*
X8091610Y-12604460D01*
X8091610Y-12604460D02*
X8082086Y-12585412D01*
X8082086Y-12585412D02*
X8082086Y-12413984D01*
X8339229Y-12613984D02*
X8339229Y-12413984D01*
X8339229Y-12413984D02*
X8405896Y-12556841D01*
X8405896Y-12556841D02*
X8472563Y-12413984D01*
X8472563Y-12413984D02*
X8472563Y-12613984D01*
X8653515Y-12613984D02*
X8653515Y-12509222D01*
X8653515Y-12509222D02*
X8643991Y-12490174D01*
X8643991Y-12490174D02*
X8624944Y-12480650D01*
X8624944Y-12480650D02*
X8586848Y-12480650D01*
X8586848Y-12480650D02*
X8567801Y-12490174D01*
X8653515Y-12604460D02*
X8634467Y-12613984D01*
X8634467Y-12613984D02*
X8586848Y-12613984D01*
X8586848Y-12613984D02*
X8567801Y-12604460D01*
X8567801Y-12604460D02*
X8558277Y-12585412D01*
X8558277Y-12585412D02*
X8558277Y-12566365D01*
X8558277Y-12566365D02*
X8567801Y-12547317D01*
X8567801Y-12547317D02*
X8586848Y-12537793D01*
X8586848Y-12537793D02*
X8634467Y-12537793D01*
X8634467Y-12537793D02*
X8653515Y-12528269D01*
X8748753Y-12480650D02*
X8748753Y-12680650D01*
X8748753Y-12490174D02*
X8767801Y-12480650D01*
X8767801Y-12480650D02*
X8805896Y-12480650D01*
X8805896Y-12480650D02*
X8824944Y-12490174D01*
X8824944Y-12490174D02*
X8834467Y-12499698D01*
X8834467Y-12499698D02*
X8843991Y-12518746D01*
X8843991Y-12518746D02*
X8843991Y-12575888D01*
X8843991Y-12575888D02*
X8834467Y-12594936D01*
X8834467Y-12594936D02*
X8824944Y-12604460D01*
X8824944Y-12604460D02*
X8805896Y-12613984D01*
X8805896Y-12613984D02*
X8767801Y-12613984D01*
X8767801Y-12613984D02*
X8748753Y-12604460D01*
X8929705Y-12594936D02*
X8939229Y-12604460D01*
X8939229Y-12604460D02*
X8929705Y-12613984D01*
X8929705Y-12613984D02*
X8920182Y-12604460D01*
X8920182Y-12604460D02*
X8929705Y-12594936D01*
X8929705Y-12594936D02*
X8929705Y-12613984D01*
X8929705Y-12490174D02*
X8939229Y-12499698D01*
X8939229Y-12499698D02*
X8929705Y-12509222D01*
X8929705Y-12509222D02*
X8920182Y-12499698D01*
X8920182Y-12499698D02*
X8929705Y-12490174D01*
X8929705Y-12490174D02*
X8929705Y-12509222D01*
X7097500Y-12842500D02*
X7297500Y-13042500D01*
X7297500Y-12842500D02*
X7097500Y-13042500D01*
X7539229Y-12833984D02*
X7663039Y-12833984D01*
X7663039Y-12833984D02*
X7596372Y-12910174D01*
X7596372Y-12910174D02*
X7624943Y-12910174D01*
X7624943Y-12910174D02*
X7643991Y-12919698D01*
X7643991Y-12919698D02*
X7653515Y-12929222D01*
X7653515Y-12929222D02*
X7663039Y-12948269D01*
X7663039Y-12948269D02*
X7663039Y-12995888D01*
X7663039Y-12995888D02*
X7653515Y-13014936D01*
X7653515Y-13014936D02*
X7643991Y-13024460D01*
X7643991Y-13024460D02*
X7624943Y-13033984D01*
X7624943Y-13033984D02*
X7567801Y-13033984D01*
X7567801Y-13033984D02*
X7548753Y-13024460D01*
X7548753Y-13024460D02*
X7539229Y-13014936D01*
X7748753Y-13014936D02*
X7758277Y-13024460D01*
X7758277Y-13024460D02*
X7748753Y-13033984D01*
X7748753Y-13033984D02*
X7739229Y-13024460D01*
X7739229Y-13024460D02*
X7748753Y-13014936D01*
X7748753Y-13014936D02*
X7748753Y-13033984D01*
X7939229Y-12833984D02*
X7843991Y-12833984D01*
X7843991Y-12833984D02*
X7834467Y-12929222D01*
X7834467Y-12929222D02*
X7843991Y-12919698D01*
X7843991Y-12919698D02*
X7863039Y-12910174D01*
X7863039Y-12910174D02*
X7910658Y-12910174D01*
X7910658Y-12910174D02*
X7929705Y-12919698D01*
X7929705Y-12919698D02*
X7939229Y-12929222D01*
X7939229Y-12929222D02*
X7948753Y-12948269D01*
X7948753Y-12948269D02*
X7948753Y-12995888D01*
X7948753Y-12995888D02*
X7939229Y-13014936D01*
X7939229Y-13014936D02*
X7929705Y-13024460D01*
X7929705Y-13024460D02*
X7910658Y-13033984D01*
X7910658Y-13033984D02*
X7863039Y-13033984D01*
X7863039Y-13033984D02*
X7843991Y-13024460D01*
X7843991Y-13024460D02*
X7834467Y-13014936D01*
X8072562Y-12833984D02*
X8091610Y-12833984D01*
X8091610Y-12833984D02*
X8110658Y-12843508D01*
X8110658Y-12843508D02*
X8120182Y-12853031D01*
X8120182Y-12853031D02*
X8129705Y-12872079D01*
X8129705Y-12872079D02*
X8139229Y-12910174D01*
X8139229Y-12910174D02*
X8139229Y-12957793D01*
X8139229Y-12957793D02*
X8129705Y-12995888D01*
X8129705Y-12995888D02*
X8120182Y-13014936D01*
X8120182Y-13014936D02*
X8110658Y-13024460D01*
X8110658Y-13024460D02*
X8091610Y-13033984D01*
X8091610Y-13033984D02*
X8072562Y-13033984D01*
X8072562Y-13033984D02*
X8053515Y-13024460D01*
X8053515Y-13024460D02*
X8043991Y-13014936D01*
X8043991Y-13014936D02*
X8034467Y-12995888D01*
X8034467Y-12995888D02*
X8024943Y-12957793D01*
X8024943Y-12957793D02*
X8024943Y-12910174D01*
X8024943Y-12910174D02*
X8034467Y-12872079D01*
X8034467Y-12872079D02*
X8043991Y-12853031D01*
X8043991Y-12853031D02*
X8053515Y-12843508D01*
X8053515Y-12843508D02*
X8072562Y-12833984D01*
X8263039Y-12833984D02*
X8282086Y-12833984D01*
X8282086Y-12833984D02*
X8301134Y-12843508D01*
X8301134Y-12843508D02*
X8310658Y-12853031D01*
X8310658Y-12853031D02*
X8320182Y-12872079D01*
X8320182Y-12872079D02*
X8329705Y-12910174D01*
X8329705Y-12910174D02*
X8329705Y-12957793D01*
X8329705Y-12957793D02*
X8320182Y-12995888D01*
X8320182Y-12995888D02*
X8310658Y-13014936D01*
X8310658Y-13014936D02*
X8301134Y-13024460D01*
X8301134Y-13024460D02*
X8282086Y-13033984D01*
X8282086Y-13033984D02*
X8263039Y-13033984D01*
X8263039Y-13033984D02*
X8243991Y-13024460D01*
X8243991Y-13024460D02*
X8234467Y-13014936D01*
X8234467Y-13014936D02*
X8224943Y-12995888D01*
X8224943Y-12995888D02*
X8215420Y-12957793D01*
X8215420Y-12957793D02*
X8215420Y-12910174D01*
X8215420Y-12910174D02*
X8224943Y-12872079D01*
X8224943Y-12872079D02*
X8234467Y-12853031D01*
X8234467Y-12853031D02*
X8243991Y-12843508D01*
X8243991Y-12843508D02*
X8263039Y-12833984D01*
X8415420Y-13033984D02*
X8415420Y-12900650D01*
X8415420Y-12919698D02*
X8424944Y-12910174D01*
X8424944Y-12910174D02*
X8443991Y-12900650D01*
X8443991Y-12900650D02*
X8472563Y-12900650D01*
X8472563Y-12900650D02*
X8491610Y-12910174D01*
X8491610Y-12910174D02*
X8501134Y-12929222D01*
X8501134Y-12929222D02*
X8501134Y-13033984D01*
X8501134Y-12929222D02*
X8510658Y-12910174D01*
X8510658Y-12910174D02*
X8529705Y-12900650D01*
X8529705Y-12900650D02*
X8558277Y-12900650D01*
X8558277Y-12900650D02*
X8577325Y-12910174D01*
X8577325Y-12910174D02*
X8586848Y-12929222D01*
X8586848Y-12929222D02*
X8586848Y-13033984D01*
X8682086Y-13033984D02*
X8682086Y-12900650D01*
X8682086Y-12919698D02*
X8691610Y-12910174D01*
X8691610Y-12910174D02*
X8710658Y-12900650D01*
X8710658Y-12900650D02*
X8739229Y-12900650D01*
X8739229Y-12900650D02*
X8758277Y-12910174D01*
X8758277Y-12910174D02*
X8767801Y-12929222D01*
X8767801Y-12929222D02*
X8767801Y-13033984D01*
X8767801Y-12929222D02*
X8777325Y-12910174D01*
X8777325Y-12910174D02*
X8796372Y-12900650D01*
X8796372Y-12900650D02*
X8824944Y-12900650D01*
X8824944Y-12900650D02*
X8843991Y-12910174D01*
X8843991Y-12910174D02*
X8853515Y-12929222D01*
X8853515Y-12929222D02*
X8853515Y-13033984D01*
X9243991Y-12824460D02*
X9072563Y-13081603D01*
X9501134Y-12833984D02*
X9520182Y-12833984D01*
X9520182Y-12833984D02*
X9539229Y-12843508D01*
X9539229Y-12843508D02*
X9548753Y-12853031D01*
X9548753Y-12853031D02*
X9558277Y-12872079D01*
X9558277Y-12872079D02*
X9567801Y-12910174D01*
X9567801Y-12910174D02*
X9567801Y-12957793D01*
X9567801Y-12957793D02*
X9558277Y-12995888D01*
X9558277Y-12995888D02*
X9548753Y-13014936D01*
X9548753Y-13014936D02*
X9539229Y-13024460D01*
X9539229Y-13024460D02*
X9520182Y-13033984D01*
X9520182Y-13033984D02*
X9501134Y-13033984D01*
X9501134Y-13033984D02*
X9482087Y-13024460D01*
X9482087Y-13024460D02*
X9472563Y-13014936D01*
X9472563Y-13014936D02*
X9463039Y-12995888D01*
X9463039Y-12995888D02*
X9453515Y-12957793D01*
X9453515Y-12957793D02*
X9453515Y-12910174D01*
X9453515Y-12910174D02*
X9463039Y-12872079D01*
X9463039Y-12872079D02*
X9472563Y-12853031D01*
X9472563Y-12853031D02*
X9482087Y-12843508D01*
X9482087Y-12843508D02*
X9501134Y-12833984D01*
X9653515Y-13014936D02*
X9663039Y-13024460D01*
X9663039Y-13024460D02*
X9653515Y-13033984D01*
X9653515Y-13033984D02*
X9643991Y-13024460D01*
X9643991Y-13024460D02*
X9653515Y-13014936D01*
X9653515Y-13014936D02*
X9653515Y-13033984D01*
X9853515Y-13033984D02*
X9739229Y-13033984D01*
X9796372Y-13033984D02*
X9796372Y-12833984D01*
X9796372Y-12833984D02*
X9777325Y-12862555D01*
X9777325Y-12862555D02*
X9758277Y-12881603D01*
X9758277Y-12881603D02*
X9739229Y-12891127D01*
X9920182Y-12833984D02*
X10043991Y-12833984D01*
X10043991Y-12833984D02*
X9977325Y-12910174D01*
X9977325Y-12910174D02*
X10005896Y-12910174D01*
X10005896Y-12910174D02*
X10024944Y-12919698D01*
X10024944Y-12919698D02*
X10034468Y-12929222D01*
X10034468Y-12929222D02*
X10043991Y-12948269D01*
X10043991Y-12948269D02*
X10043991Y-12995888D01*
X10043991Y-12995888D02*
X10034468Y-13014936D01*
X10034468Y-13014936D02*
X10024944Y-13024460D01*
X10024944Y-13024460D02*
X10005896Y-13033984D01*
X10005896Y-13033984D02*
X9948753Y-13033984D01*
X9948753Y-13033984D02*
X9929706Y-13024460D01*
X9929706Y-13024460D02*
X9920182Y-13014936D01*
X10110658Y-12833984D02*
X10243991Y-12833984D01*
X10243991Y-12833984D02*
X10158277Y-13033984D01*
X10348753Y-12919698D02*
X10329706Y-12910174D01*
X10329706Y-12910174D02*
X10320182Y-12900650D01*
X10320182Y-12900650D02*
X10310658Y-12881603D01*
X10310658Y-12881603D02*
X10310658Y-12872079D01*
X10310658Y-12872079D02*
X10320182Y-12853031D01*
X10320182Y-12853031D02*
X10329706Y-12843508D01*
X10329706Y-12843508D02*
X10348753Y-12833984D01*
X10348753Y-12833984D02*
X10386849Y-12833984D01*
X10386849Y-12833984D02*
X10405896Y-12843508D01*
X10405896Y-12843508D02*
X10415420Y-12853031D01*
X10415420Y-12853031D02*
X10424944Y-12872079D01*
X10424944Y-12872079D02*
X10424944Y-12881603D01*
X10424944Y-12881603D02*
X10415420Y-12900650D01*
X10415420Y-12900650D02*
X10405896Y-12910174D01*
X10405896Y-12910174D02*
X10386849Y-12919698D01*
X10386849Y-12919698D02*
X10348753Y-12919698D01*
X10348753Y-12919698D02*
X10329706Y-12929222D01*
X10329706Y-12929222D02*
X10320182Y-12938746D01*
X10320182Y-12938746D02*
X10310658Y-12957793D01*
X10310658Y-12957793D02*
X10310658Y-12995888D01*
X10310658Y-12995888D02*
X10320182Y-13014936D01*
X10320182Y-13014936D02*
X10329706Y-13024460D01*
X10329706Y-13024460D02*
X10348753Y-13033984D01*
X10348753Y-13033984D02*
X10386849Y-13033984D01*
X10386849Y-13033984D02*
X10405896Y-13024460D01*
X10405896Y-13024460D02*
X10415420Y-13014936D01*
X10415420Y-13014936D02*
X10424944Y-12995888D01*
X10424944Y-12995888D02*
X10424944Y-12957793D01*
X10424944Y-12957793D02*
X10415420Y-12938746D01*
X10415420Y-12938746D02*
X10405896Y-12929222D01*
X10405896Y-12929222D02*
X10386849Y-12919698D01*
X10501134Y-12833984D02*
X10501134Y-12872079D01*
X10577325Y-12833984D02*
X10577325Y-12872079D01*
X10872563Y-13110174D02*
X10863039Y-13100650D01*
X10863039Y-13100650D02*
X10843991Y-13072079D01*
X10843991Y-13072079D02*
X10834468Y-13053031D01*
X10834468Y-13053031D02*
X10824944Y-13024460D01*
X10824944Y-13024460D02*
X10815420Y-12976841D01*
X10815420Y-12976841D02*
X10815420Y-12938746D01*
X10815420Y-12938746D02*
X10824944Y-12891127D01*
X10824944Y-12891127D02*
X10834468Y-12862555D01*
X10834468Y-12862555D02*
X10843991Y-12843508D01*
X10843991Y-12843508D02*
X10863039Y-12814936D01*
X10863039Y-12814936D02*
X10872563Y-12805412D01*
X11053515Y-13033984D02*
X10939230Y-13033984D01*
X10996372Y-13033984D02*
X10996372Y-12833984D01*
X10996372Y-12833984D02*
X10977325Y-12862555D01*
X10977325Y-12862555D02*
X10958277Y-12881603D01*
X10958277Y-12881603D02*
X10939230Y-12891127D01*
X11291610Y-13033984D02*
X11291610Y-12833984D01*
X11377325Y-13033984D02*
X11377325Y-12929222D01*
X11377325Y-12929222D02*
X11367801Y-12910174D01*
X11367801Y-12910174D02*
X11348753Y-12900650D01*
X11348753Y-12900650D02*
X11320182Y-12900650D01*
X11320182Y-12900650D02*
X11301134Y-12910174D01*
X11301134Y-12910174D02*
X11291610Y-12919698D01*
X11501134Y-13033984D02*
X11482087Y-13024460D01*
X11482087Y-13024460D02*
X11472563Y-13014936D01*
X11472563Y-13014936D02*
X11463039Y-12995888D01*
X11463039Y-12995888D02*
X11463039Y-12938746D01*
X11463039Y-12938746D02*
X11472563Y-12919698D01*
X11472563Y-12919698D02*
X11482087Y-12910174D01*
X11482087Y-12910174D02*
X11501134Y-12900650D01*
X11501134Y-12900650D02*
X11529706Y-12900650D01*
X11529706Y-12900650D02*
X11548753Y-12910174D01*
X11548753Y-12910174D02*
X11558277Y-12919698D01*
X11558277Y-12919698D02*
X11567801Y-12938746D01*
X11567801Y-12938746D02*
X11567801Y-12995888D01*
X11567801Y-12995888D02*
X11558277Y-13014936D01*
X11558277Y-13014936D02*
X11548753Y-13024460D01*
X11548753Y-13024460D02*
X11529706Y-13033984D01*
X11529706Y-13033984D02*
X11501134Y-13033984D01*
X11682087Y-13033984D02*
X11663039Y-13024460D01*
X11663039Y-13024460D02*
X11653515Y-13005412D01*
X11653515Y-13005412D02*
X11653515Y-12833984D01*
X11834468Y-13024460D02*
X11815420Y-13033984D01*
X11815420Y-13033984D02*
X11777325Y-13033984D01*
X11777325Y-13033984D02*
X11758277Y-13024460D01*
X11758277Y-13024460D02*
X11748753Y-13005412D01*
X11748753Y-13005412D02*
X11748753Y-12929222D01*
X11748753Y-12929222D02*
X11758277Y-12910174D01*
X11758277Y-12910174D02*
X11777325Y-12900650D01*
X11777325Y-12900650D02*
X11815420Y-12900650D01*
X11815420Y-12900650D02*
X11834468Y-12910174D01*
X11834468Y-12910174D02*
X11843991Y-12929222D01*
X11843991Y-12929222D02*
X11843991Y-12948269D01*
X11843991Y-12948269D02*
X11748753Y-12967317D01*
X11910658Y-13110174D02*
X11920182Y-13100650D01*
X11920182Y-13100650D02*
X11939230Y-13072079D01*
X11939230Y-13072079D02*
X11948753Y-13053031D01*
X11948753Y-13053031D02*
X11958277Y-13024460D01*
X11958277Y-13024460D02*
X11967801Y-12976841D01*
X11967801Y-12976841D02*
X11967801Y-12938746D01*
X11967801Y-12938746D02*
X11958277Y-12891127D01*
X11958277Y-12891127D02*
X11948753Y-12862555D01*
X11948753Y-12862555D02*
X11939230Y-12843508D01*
X11939230Y-12843508D02*
X11920182Y-12814936D01*
X11920182Y-12814936D02*
X11910658Y-12805412D01*
X12272563Y-13110174D02*
X12263039Y-13100650D01*
X12263039Y-13100650D02*
X12243991Y-13072079D01*
X12243991Y-13072079D02*
X12234468Y-13053031D01*
X12234468Y-13053031D02*
X12224944Y-13024460D01*
X12224944Y-13024460D02*
X12215420Y-12976841D01*
X12215420Y-12976841D02*
X12215420Y-12938746D01*
X12215420Y-12938746D02*
X12224944Y-12891127D01*
X12224944Y-12891127D02*
X12234468Y-12862555D01*
X12234468Y-12862555D02*
X12243991Y-12843508D01*
X12243991Y-12843508D02*
X12263039Y-12814936D01*
X12263039Y-12814936D02*
X12272563Y-12805412D01*
X12348753Y-12900650D02*
X12348753Y-13033984D01*
X12348753Y-12919698D02*
X12358277Y-12910174D01*
X12358277Y-12910174D02*
X12377325Y-12900650D01*
X12377325Y-12900650D02*
X12405896Y-12900650D01*
X12405896Y-12900650D02*
X12424944Y-12910174D01*
X12424944Y-12910174D02*
X12434468Y-12929222D01*
X12434468Y-12929222D02*
X12434468Y-13033984D01*
X12558277Y-13033984D02*
X12539230Y-13024460D01*
X12539230Y-13024460D02*
X12529706Y-13014936D01*
X12529706Y-13014936D02*
X12520182Y-12995888D01*
X12520182Y-12995888D02*
X12520182Y-12938746D01*
X12520182Y-12938746D02*
X12529706Y-12919698D01*
X12529706Y-12919698D02*
X12539230Y-12910174D01*
X12539230Y-12910174D02*
X12558277Y-12900650D01*
X12558277Y-12900650D02*
X12586849Y-12900650D01*
X12586849Y-12900650D02*
X12605896Y-12910174D01*
X12605896Y-12910174D02*
X12615420Y-12919698D01*
X12615420Y-12919698D02*
X12624944Y-12938746D01*
X12624944Y-12938746D02*
X12624944Y-12995888D01*
X12624944Y-12995888D02*
X12615420Y-13014936D01*
X12615420Y-13014936D02*
X12605896Y-13024460D01*
X12605896Y-13024460D02*
X12586849Y-13033984D01*
X12586849Y-13033984D02*
X12558277Y-13033984D01*
X12682087Y-12900650D02*
X12758277Y-12900650D01*
X12710658Y-12833984D02*
X12710658Y-13005412D01*
X12710658Y-13005412D02*
X12720182Y-13024460D01*
X12720182Y-13024460D02*
X12739230Y-13033984D01*
X12739230Y-13033984D02*
X12758277Y-13033984D01*
X12977325Y-12900650D02*
X12977325Y-13100650D01*
X12977325Y-12910174D02*
X12996372Y-12900650D01*
X12996372Y-12900650D02*
X13034468Y-12900650D01*
X13034468Y-12900650D02*
X13053515Y-12910174D01*
X13053515Y-12910174D02*
X13063039Y-12919698D01*
X13063039Y-12919698D02*
X13072563Y-12938746D01*
X13072563Y-12938746D02*
X13072563Y-12995888D01*
X13072563Y-12995888D02*
X13063039Y-13014936D01*
X13063039Y-13014936D02*
X13053515Y-13024460D01*
X13053515Y-13024460D02*
X13034468Y-13033984D01*
X13034468Y-13033984D02*
X12996372Y-13033984D01*
X12996372Y-13033984D02*
X12977325Y-13024460D01*
X13186849Y-13033984D02*
X13167801Y-13024460D01*
X13167801Y-13024460D02*
X13158277Y-13005412D01*
X13158277Y-13005412D02*
X13158277Y-12833984D01*
X13348753Y-13033984D02*
X13348753Y-12929222D01*
X13348753Y-12929222D02*
X13339230Y-12910174D01*
X13339230Y-12910174D02*
X13320182Y-12900650D01*
X13320182Y-12900650D02*
X13282087Y-12900650D01*
X13282087Y-12900650D02*
X13263039Y-12910174D01*
X13348753Y-13024460D02*
X13329706Y-13033984D01*
X13329706Y-13033984D02*
X13282087Y-13033984D01*
X13282087Y-13033984D02*
X13263039Y-13024460D01*
X13263039Y-13024460D02*
X13253515Y-13005412D01*
X13253515Y-13005412D02*
X13253515Y-12986365D01*
X13253515Y-12986365D02*
X13263039Y-12967317D01*
X13263039Y-12967317D02*
X13282087Y-12957793D01*
X13282087Y-12957793D02*
X13329706Y-12957793D01*
X13329706Y-12957793D02*
X13348753Y-12948269D01*
X13415420Y-12900650D02*
X13491611Y-12900650D01*
X13443992Y-12833984D02*
X13443992Y-13005412D01*
X13443992Y-13005412D02*
X13453515Y-13024460D01*
X13453515Y-13024460D02*
X13472563Y-13033984D01*
X13472563Y-13033984D02*
X13491611Y-13033984D01*
X13634468Y-13024460D02*
X13615420Y-13033984D01*
X13615420Y-13033984D02*
X13577325Y-13033984D01*
X13577325Y-13033984D02*
X13558277Y-13024460D01*
X13558277Y-13024460D02*
X13548753Y-13005412D01*
X13548753Y-13005412D02*
X13548753Y-12929222D01*
X13548753Y-12929222D02*
X13558277Y-12910174D01*
X13558277Y-12910174D02*
X13577325Y-12900650D01*
X13577325Y-12900650D02*
X13615420Y-12900650D01*
X13615420Y-12900650D02*
X13634468Y-12910174D01*
X13634468Y-12910174D02*
X13643992Y-12929222D01*
X13643992Y-12929222D02*
X13643992Y-12948269D01*
X13643992Y-12948269D02*
X13548753Y-12967317D01*
X13815420Y-13033984D02*
X13815420Y-12833984D01*
X13815420Y-13024460D02*
X13796373Y-13033984D01*
X13796373Y-13033984D02*
X13758277Y-13033984D01*
X13758277Y-13033984D02*
X13739230Y-13024460D01*
X13739230Y-13024460D02*
X13729706Y-13014936D01*
X13729706Y-13014936D02*
X13720182Y-12995888D01*
X13720182Y-12995888D02*
X13720182Y-12938746D01*
X13720182Y-12938746D02*
X13729706Y-12919698D01*
X13729706Y-12919698D02*
X13739230Y-12910174D01*
X13739230Y-12910174D02*
X13758277Y-12900650D01*
X13758277Y-12900650D02*
X13796373Y-12900650D01*
X13796373Y-12900650D02*
X13815420Y-12910174D01*
X13891611Y-13110174D02*
X13901134Y-13100650D01*
X13901134Y-13100650D02*
X13920182Y-13072079D01*
X13920182Y-13072079D02*
X13929706Y-13053031D01*
X13929706Y-13053031D02*
X13939230Y-13024460D01*
X13939230Y-13024460D02*
X13948753Y-12976841D01*
X13948753Y-12976841D02*
X13948753Y-12938746D01*
X13948753Y-12938746D02*
X13939230Y-12891127D01*
X13939230Y-12891127D02*
X13929706Y-12862555D01*
X13929706Y-12862555D02*
X13920182Y-12843508D01*
X13920182Y-12843508D02*
X13901134Y-12814936D01*
X13901134Y-12814936D02*
X13891611Y-12805412D01*
M02*
