%TF.GenerationSoftware,KiCad,Pcbnew,8.0.5*%
%TF.CreationDate,2025-11-20T22:30:18-08:00*%
%TF.ProjectId,transmitter,7472616e-736d-4697-9474-65722e6b6963,rev?*%
%TF.SameCoordinates,Original*%
%TF.FileFunction,Soldermask,Top*%
%TF.FilePolarity,Negative*%
%FSLAX46Y46*%
G04 Gerber Fmt 4.6, Leading zero omitted, Abs format (unit mm)*
G04 Created by KiCad (PCBNEW 8.0.5) date 2025-11-20 22:30:18*
%MOMM*%
%LPD*%
G01*
G04 APERTURE LIST*
G04 Aperture macros list*
%AMRoundRect*
0 Rectangle with rounded corners*
0 $1 Rounding radius*
0 $2 $3 $4 $5 $6 $7 $8 $9 X,Y pos of 4 corners*
0 Add a 4 corners polygon primitive as box body*
4,1,4,$2,$3,$4,$5,$6,$7,$8,$9,$2,$3,0*
0 Add four circle primitives for the rounded corners*
1,1,$1+$1,$2,$3*
1,1,$1+$1,$4,$5*
1,1,$1+$1,$6,$7*
1,1,$1+$1,$8,$9*
0 Add four rect primitives between the rounded corners*
20,1,$1+$1,$2,$3,$4,$5,0*
20,1,$1+$1,$4,$5,$6,$7,0*
20,1,$1+$1,$6,$7,$8,$9,0*
20,1,$1+$1,$8,$9,$2,$3,0*%
G04 Aperture macros list end*
%ADD10RoundRect,0.135000X-0.135000X-0.185000X0.135000X-0.185000X0.135000X0.185000X-0.135000X0.185000X0*%
%ADD11C,2.900000*%
%ADD12C,5.000000*%
%ADD13RoundRect,0.250000X0.475000X-0.250000X0.475000X0.250000X-0.475000X0.250000X-0.475000X-0.250000X0*%
%ADD14RoundRect,0.375000X-0.625000X-0.375000X0.625000X-0.375000X0.625000X0.375000X-0.625000X0.375000X0*%
%ADD15RoundRect,0.500000X-0.500000X-1.400000X0.500000X-1.400000X0.500000X1.400000X-0.500000X1.400000X0*%
%ADD16RoundRect,0.147500X-0.147500X-0.172500X0.147500X-0.172500X0.147500X0.172500X-0.147500X0.172500X0*%
%ADD17R,1.700000X1.700000*%
%ADD18O,1.700000X1.700000*%
%ADD19RoundRect,0.140000X0.170000X-0.140000X0.170000X0.140000X-0.170000X0.140000X-0.170000X-0.140000X0*%
%ADD20RoundRect,0.147500X0.147500X0.172500X-0.147500X0.172500X-0.147500X-0.172500X0.147500X-0.172500X0*%
%ADD21RoundRect,0.140000X0.140000X0.170000X-0.140000X0.170000X-0.140000X-0.170000X0.140000X-0.170000X0*%
%ADD22RoundRect,0.102000X-0.749000X-0.749000X0.749000X-0.749000X0.749000X0.749000X-0.749000X0.749000X0*%
%ADD23C,1.702000*%
%ADD24RoundRect,0.250000X-0.275000X0.312500X-0.275000X-0.312500X0.275000X-0.312500X0.275000X0.312500X0*%
%ADD25C,1.440000*%
%ADD26RoundRect,0.135000X0.135000X0.185000X-0.135000X0.185000X-0.135000X-0.185000X0.135000X-0.185000X0*%
%ADD27RoundRect,0.102000X-0.754000X-0.754000X0.754000X-0.754000X0.754000X0.754000X-0.754000X0.754000X0*%
%ADD28C,1.712000*%
%ADD29O,2.504000X4.804000*%
%ADD30R,2.616200X1.219200*%
%ADD31RoundRect,0.140000X-0.170000X0.140000X-0.170000X-0.140000X0.170000X-0.140000X0.170000X0.140000X0*%
%ADD32R,1.663700X0.431800*%
%ADD33C,1.700000*%
%ADD34RoundRect,0.102000X0.754000X0.754000X-0.754000X0.754000X-0.754000X-0.754000X0.754000X-0.754000X0*%
%ADD35RoundRect,0.150000X-0.587500X-0.150000X0.587500X-0.150000X0.587500X0.150000X-0.587500X0.150000X0*%
G04 APERTURE END LIST*
D10*
%TO.C,R6*%
X104460000Y-107530000D03*
X105480000Y-107530000D03*
%TD*%
D11*
%TO.C,H4*%
X108000000Y-120000000D03*
D12*
X108000000Y-120000000D03*
%TD*%
D13*
%TO.C,C1*%
X83500000Y-115140000D03*
X83500000Y-113240000D03*
%TD*%
D14*
%TO.C,U3*%
X86000000Y-110540000D03*
X86000000Y-112840000D03*
D15*
X92300000Y-112840000D03*
D14*
X86000000Y-115140000D03*
%TD*%
D16*
%TO.C,D1*%
X97750000Y-112580000D03*
X98720000Y-112580000D03*
%TD*%
D17*
%TO.C,SW1*%
X78160000Y-111090000D03*
D18*
X78160000Y-113630000D03*
X78160000Y-116170000D03*
%TD*%
D19*
%TO.C,C2*%
X94480000Y-82090000D03*
X94480000Y-81130000D03*
%TD*%
D20*
%TO.C,D2*%
X107895000Y-107520000D03*
X106925000Y-107520000D03*
%TD*%
D21*
%TO.C,C8*%
X89930000Y-93510000D03*
X88970000Y-93510000D03*
%TD*%
D11*
%TO.C,H1*%
X75910000Y-71780000D03*
D12*
X75910000Y-71780000D03*
%TD*%
D22*
%TO.C,SW2*%
X86265000Y-95455000D03*
D23*
X92765000Y-95455000D03*
X86265000Y-99955000D03*
X92765000Y-99955000D03*
%TD*%
D24*
%TO.C,C5*%
X94920000Y-112842500D03*
X94920000Y-114617500D03*
%TD*%
D25*
%TO.C,RV3*%
X102200000Y-61680000D03*
X104740000Y-64220000D03*
X107280000Y-61680000D03*
%TD*%
D26*
%TO.C,R5*%
X103110000Y-107540000D03*
X102090000Y-107540000D03*
%TD*%
D25*
%TO.C,RV4*%
X76710000Y-61680000D03*
X79250000Y-64220000D03*
X81790000Y-61680000D03*
%TD*%
D27*
%TO.C,RV1*%
X88950000Y-63710500D03*
D28*
X91450000Y-63710500D03*
X93950000Y-63710500D03*
D29*
X87050000Y-56710500D03*
X95850000Y-56710500D03*
%TD*%
D11*
%TO.C,H2*%
X107960000Y-53500000D03*
D12*
X107960000Y-53500000D03*
%TD*%
D30*
%TO.C,C3*%
X75069800Y-94940000D03*
X80480000Y-94940000D03*
%TD*%
D26*
%TO.C,R3*%
X87590000Y-93510000D03*
X86570000Y-93510000D03*
%TD*%
D19*
%TO.C,C7*%
X83470000Y-83690000D03*
X83470000Y-82730000D03*
%TD*%
D31*
%TO.C,C6*%
X83670000Y-88410000D03*
X83670000Y-89370000D03*
%TD*%
D17*
%TO.C,BT1*%
X91460000Y-119790000D03*
D18*
X94000000Y-119790000D03*
%TD*%
D26*
%TO.C,R4*%
X92400000Y-93500000D03*
X91380000Y-93500000D03*
%TD*%
D32*
%TO.C,U4*%
X92751700Y-88929999D03*
X92751700Y-88279998D03*
X92751700Y-87629999D03*
X92751700Y-86979998D03*
X92751700Y-86330000D03*
X92751700Y-85679998D03*
X92751700Y-85030000D03*
X92751700Y-84380001D03*
X92751700Y-83730000D03*
X92751700Y-83080001D03*
X92751700Y-82430000D03*
X92751700Y-81780001D03*
X92751700Y-81130000D03*
X92751700Y-80480001D03*
X85500000Y-80479999D03*
X85500000Y-81130000D03*
X85500000Y-81779999D03*
X85500000Y-82430000D03*
X85500000Y-83079998D03*
X85500000Y-83730000D03*
X85500000Y-84379998D03*
X85500000Y-85030000D03*
X85500000Y-85679998D03*
X85500000Y-86330000D03*
X85500000Y-86979998D03*
X85500000Y-87629999D03*
X85500000Y-88279998D03*
X85500000Y-88929999D03*
%TD*%
D17*
%TO.C,U2*%
X77620000Y-88720000D03*
D33*
X75080000Y-88720000D03*
X77620000Y-86180000D03*
X75080000Y-86180000D03*
X77620000Y-83640000D03*
X75080000Y-83640000D03*
X77620000Y-81100000D03*
X75080000Y-81100000D03*
%TD*%
D10*
%TO.C,R1*%
X97720000Y-115180000D03*
X98740000Y-115180000D03*
%TD*%
D17*
%TO.C,J2*%
X82860000Y-72410000D03*
D18*
X82860000Y-74950000D03*
X82860000Y-77490000D03*
%TD*%
D17*
%TO.C,J1*%
X108620000Y-72965000D03*
D18*
X106080000Y-72965000D03*
X103540000Y-72965000D03*
X101000000Y-72965000D03*
X98460000Y-72965000D03*
%TD*%
D34*
%TO.C,RV2*%
X106350000Y-85230000D03*
D28*
X103850000Y-85230000D03*
X101350000Y-85230000D03*
D29*
X108250000Y-92230000D03*
X99450000Y-92230000D03*
%TD*%
D35*
%TO.C,Q2*%
X104435000Y-102430000D03*
X104435000Y-104330000D03*
X106310000Y-103380000D03*
%TD*%
M02*
