M48
; DRILL file {KiCad 8.0.5} date 2025-11-20T22:30:16-0800
; FORMAT={-:-/ absolute / inch / decimal}
; #@! TF.CreationDate,2025-11-20T22:30:16-08:00
; #@! TF.GenerationSoftware,Kicad,Pcbnew,8.0.5
; #@! TF.FileFunction,Plated,1,4,PTH
FMAT,2
INCH
; #@! TA.AperFunction,Plated,PTH,ViaDrill
T1C0.0118
; #@! TA.AperFunction,Plated,PTH,ComponentDrill
T2C0.0315
; #@! TA.AperFunction,Plated,PTH,ComponentDrill
T3C0.0390
; #@! TA.AperFunction,Plated,PTH,ComponentDrill
T4C0.0394
; #@! TA.AperFunction,Plated,PTH,ComponentDrill
T5C0.0709
; #@! TA.AperFunction,Plated,PTH,ComponentDrill
T6C0.0984
%
G90
G05
T1
X3.2378Y-4.4583
X3.2524Y-3.2567
X3.2579Y-3.5213
X3.261Y-3.4858
X3.2835Y-3.3752
X3.324Y-4.3524
X3.3772Y-3.6803
X3.5406Y-3.7124
X3.5972Y-3.3736
X3.7142Y-3.3244
X3.72Y-3.4401
X3.737Y-4.5551
X3.7545Y-3.2171
X3.7571Y-3.1839
X3.7902Y-4.4429
X3.815Y-4.4071
X3.8472Y-4.5685
X4.0484Y-4.0071
X4.0587Y-4.2669
X4.1122Y-4.1394
X4.113Y-4.2657
T2
X3.0201Y-2.4283
X3.1201Y-2.5283
X3.2201Y-2.4283
X4.0236Y-2.4283
X4.1236Y-2.5283
X4.2236Y-2.4283
T3
X3.3963Y-3.7581
X3.3963Y-3.9352
X3.6522Y-3.7581
X3.6522Y-3.9352
T4
X2.9559Y-3.1929
X2.9559Y-3.2929
X2.9559Y-3.3929
X2.9559Y-3.4929
X3.0559Y-3.1929
X3.0559Y-3.2929
X3.0559Y-3.3929
X3.0559Y-3.4929
X3.0772Y-4.3736
X3.0772Y-4.4736
X3.0772Y-4.5736
X3.2622Y-2.8508
X3.2622Y-2.9508
X3.2622Y-3.0508
X3.502Y-2.5083
X3.6004Y-2.5083
X3.6008Y-4.7161
X3.6988Y-2.5083
X3.7008Y-4.7161
X3.8764Y-2.8726
X3.9764Y-2.8726
X3.9902Y-3.3555
X4.0764Y-2.8726
X4.0886Y-3.3555
X4.1764Y-2.8726
X4.187Y-3.3555
X4.2764Y-2.8726
T6
X2.9886Y-2.826
X4.2504Y-2.1063
X4.252Y-4.7244
T5
G00X3.4272Y-2.2248
M15
G01X3.4272Y-2.2406
M16
G05
G00X3.7736Y-2.2248
M15
G01X3.7736Y-2.2406
M16
G05
G00X3.9154Y-3.639
M15
G01X3.9154Y-3.6232
M16
G05
G00X4.2618Y-3.639
M15
G01X4.2618Y-3.6232
M16
G05
M30
