M48
; DRILL file {KiCad 8.0.5} date 2025-09-24T21:31:51-0700
; FORMAT={-:-/ absolute / inch / decimal}
; #@! TF.CreationDate,2025-09-24T21:31:51-07:00
; #@! TF.GenerationSoftware,Kicad,Pcbnew,8.0.5
; #@! TF.FileFunction,Plated,1,4,PTH
FMAT,2
INCH
; #@! TA.AperFunction,Plated,PTH,ComponentDrill
T1C0.0276
; #@! TA.AperFunction,Plated,PTH,ComponentDrill
T2C0.0315
; #@! TA.AperFunction,Plated,PTH,ComponentDrill
T3C0.0354
; #@! TA.AperFunction,Plated,PTH,ComponentDrill
T4C0.0394
; #@! TA.AperFunction,Plated,PTH,ComponentDrill
T5C0.0433
; #@! TA.AperFunction,Plated,PTH,ComponentDrill
T6C0.0709
; #@! TA.AperFunction,Plated,PTH,ComponentDrill
T7C0.0984
%
G90
G05
T1
X2.9492Y-3.8583
X3.2492Y-3.8583
X3.9866Y-3.1343
X3.9874Y-4.0835
X3.9878Y-3.9457
X4.2866Y-3.1343
X4.2874Y-4.0835
X4.2878Y-3.9457
T2
X2.9575Y-3.6921
X3.0559Y-3.6921
X3.3323Y-4.5028
X3.3343Y-3.9878
X3.3343Y-4.0878
X3.3343Y-4.1878
X3.4Y-3.0169
X3.4Y-3.1169
X3.4Y-3.2169
X3.4Y-3.3169
X3.4Y-3.4169
X3.4Y-3.5169
X3.4Y-3.6169
X3.4307Y-4.5028
X3.5094Y-3.8047
X3.6079Y-3.8047
X3.7Y-3.0169
X3.7Y-3.1169
X3.7Y-3.2169
X3.7Y-3.3169
X3.7Y-3.4169
X3.7Y-3.5169
X3.7Y-3.6169
X3.9862Y-4.6161
X4.0256Y-2.7449
X4.0846Y-4.6161
X4.1256Y-2.8449
X4.2256Y-2.7449
T3
X2.9736Y-4.0539
X3.0736Y-4.0539
X4.09Y-4.3197
X4.19Y-4.3197
T4
X2.9559Y-3.1929
X2.9559Y-3.2929
X2.9559Y-3.3929
X2.9559Y-3.4929
X3.0087Y-4.3161
X3.0087Y-4.4161
X3.0087Y-4.5161
X3.0559Y-3.1929
X3.0559Y-3.2929
X3.0559Y-3.3929
X3.0559Y-3.4929
X3.2465Y-4.7219
X3.3465Y-4.7219
X3.502Y-2.5083
X3.6004Y-2.5083
X3.6988Y-2.5083
X3.9902Y-3.3555
X4.0886Y-3.3555
X4.187Y-3.3555
T5
X3.6083Y-4.7165
X3.7083Y-4.7165
X3.8083Y-4.7165
T7
X2.9886Y-2.826
X4.2504Y-2.1063
X4.252Y-4.7244
T6
G00X3.4272Y-2.2248
M15
G01X3.4272Y-2.2406
M16
G05
G00X3.7736Y-2.2248
M15
G01X3.7736Y-2.2406
M16
G05
G00X3.9154Y-3.639
M15
G01X3.9154Y-3.6232
M16
G05
G00X4.2618Y-3.639
M15
G01X4.2618Y-3.6232
M16
G05
M30
