%TF.GenerationSoftware,KiCad,Pcbnew,8.0.5*%
%TF.CreationDate,2025-09-24T21:31:53-07:00*%
%TF.ProjectId,transmitter,7472616e-736d-4697-9474-65722e6b6963,rev?*%
%TF.SameCoordinates,Original*%
%TF.FileFunction,Soldermask,Bot*%
%TF.FilePolarity,Negative*%
%FSLAX46Y46*%
G04 Gerber Fmt 4.6, Leading zero omitted, Abs format (unit mm)*
G04 Created by KiCad (PCBNEW 8.0.5) date 2025-09-24 21:31:53*
%MOMM*%
%LPD*%
G01*
G04 APERTURE LIST*
G04 Aperture macros list*
%AMRoundRect*
0 Rectangle with rounded corners*
0 $1 Rounding radius*
0 $2 $3 $4 $5 $6 $7 $8 $9 X,Y pos of 4 corners*
0 Add a 4 corners polygon primitive as box body*
4,1,4,$2,$3,$4,$5,$6,$7,$8,$9,$2,$3,0*
0 Add four circle primitives for the rounded corners*
1,1,$1+$1,$2,$3*
1,1,$1+$1,$4,$5*
1,1,$1+$1,$6,$7*
1,1,$1+$1,$8,$9*
0 Add four rect primitives between the rounded corners*
20,1,$1+$1,$2,$3,$4,$5,0*
20,1,$1+$1,$4,$5,$6,$7,0*
20,1,$1+$1,$6,$7,$8,$9,0*
20,1,$1+$1,$8,$9,$2,$3,0*%
G04 Aperture macros list end*
%ADD10R,1.500000X1.500000*%
%ADD11C,1.500000*%
%ADD12C,2.900000*%
%ADD13C,5.000000*%
%ADD14R,1.600000X1.600000*%
%ADD15C,1.600000*%
%ADD16C,1.400000*%
%ADD17O,1.400000X1.400000*%
%ADD18O,1.600000X1.600000*%
%ADD19C,1.440000*%
%ADD20O,3.500000X3.500000*%
%ADD21R,1.905000X2.000000*%
%ADD22O,1.905000X2.000000*%
%ADD23RoundRect,0.102000X-0.754000X-0.754000X0.754000X-0.754000X0.754000X0.754000X-0.754000X0.754000X0*%
%ADD24C,1.712000*%
%ADD25O,2.504000X4.804000*%
%ADD26R,1.700000X1.700000*%
%ADD27O,1.700000X1.700000*%
%ADD28R,1.800000X1.800000*%
%ADD29C,1.800000*%
%ADD30C,1.700000*%
%ADD31RoundRect,0.102000X0.754000X0.754000X-0.754000X0.754000X-0.754000X-0.754000X0.754000X-0.754000X0*%
G04 APERTURE END LIST*
D10*
%TO.C,Q1*%
X84690000Y-106370000D03*
D11*
X84690000Y-103830000D03*
X84690000Y-101290000D03*
%TD*%
D12*
%TO.C,H4*%
X108000000Y-120000000D03*
D13*
X108000000Y-120000000D03*
%TD*%
D14*
%TO.C,C1*%
X84640000Y-114370000D03*
D15*
X87140000Y-114370000D03*
%TD*%
D14*
%TO.C,C5*%
X101250000Y-117250000D03*
D15*
X103750000Y-117250000D03*
%TD*%
D12*
%TO.C,H1*%
X75910000Y-71780000D03*
D13*
X75910000Y-71780000D03*
%TD*%
D14*
%TO.C,C3*%
X91640000Y-96640000D03*
D15*
X89140000Y-96640000D03*
%TD*%
D16*
%TO.C,R6*%
X101290000Y-100220000D03*
D17*
X108910000Y-100220000D03*
%TD*%
D14*
%TO.C,U1*%
X93980000Y-91870000D03*
D18*
X93980000Y-89330000D03*
X93980000Y-86790000D03*
X93980000Y-84250000D03*
X93980000Y-81710000D03*
X93980000Y-79170000D03*
X93980000Y-76630000D03*
X86360000Y-76630000D03*
X86360000Y-79170000D03*
X86360000Y-81710000D03*
X86360000Y-84250000D03*
X86360000Y-86790000D03*
X86360000Y-89330000D03*
X86360000Y-91870000D03*
%TD*%
D19*
%TO.C,RV3*%
X102250000Y-69720000D03*
X104790000Y-72260000D03*
X107330000Y-69720000D03*
%TD*%
D16*
%TO.C,R1*%
X82530000Y-98000000D03*
D17*
X74910000Y-98000000D03*
%TD*%
D20*
%TO.C,U3*%
X94190000Y-103140000D03*
D21*
X91650000Y-119800000D03*
D22*
X94190000Y-119800000D03*
X96730000Y-119800000D03*
%TD*%
D23*
%TO.C,RV1*%
X88950000Y-63710500D03*
D24*
X91450000Y-63710500D03*
X93950000Y-63710500D03*
D25*
X87050000Y-56710500D03*
X95850000Y-56710500D03*
%TD*%
D12*
%TO.C,H2*%
X107960000Y-53500000D03*
D13*
X107960000Y-53500000D03*
%TD*%
D26*
%TO.C,SW1*%
X76420000Y-109630000D03*
D27*
X76420000Y-112170000D03*
X76420000Y-114710000D03*
%TD*%
D16*
%TO.C,R2*%
X101280000Y-103720000D03*
D17*
X108900000Y-103720000D03*
%TD*%
D28*
%TO.C,D1*%
X78070000Y-102970000D03*
D29*
X75530000Y-102970000D03*
%TD*%
D16*
%TO.C,R5*%
X101260000Y-79610000D03*
D17*
X108880000Y-79610000D03*
%TD*%
D26*
%TO.C,BT1*%
X82460000Y-119935000D03*
D27*
X85000000Y-119935000D03*
%TD*%
D26*
%TO.C,U2*%
X77620000Y-88720000D03*
D30*
X75080000Y-88720000D03*
X77620000Y-86180000D03*
X75080000Y-86180000D03*
X77620000Y-83640000D03*
X75080000Y-83640000D03*
X77620000Y-81100000D03*
X75080000Y-81100000D03*
%TD*%
D14*
%TO.C,C4*%
X75120000Y-93780000D03*
D15*
X77620000Y-93780000D03*
%TD*%
D31*
%TO.C,RV2*%
X106350000Y-85230000D03*
D24*
X103850000Y-85230000D03*
X101350000Y-85230000D03*
D25*
X108250000Y-92230000D03*
X99450000Y-92230000D03*
%TD*%
D28*
%TO.C,D2*%
X103885000Y-109720000D03*
D29*
X106425000Y-109720000D03*
%TD*%
M02*
