ISO-10303-21;
HEADER;
/* Generated by software containing ST-Developer
 * from STEP Tools, Inc. (www.steptools.com) 
 */

FILE_DESCRIPTION(
/* description */ (''),
/* implementation_level */ '2;1');

FILE_NAME(
/* name */ 'switch v1.step',
/* time_stamp */ '2025-09-21T21:00:47-07:00',
/* author */ (''),
/* organization */ (''),
/* preprocessor_version */ 'ST-DEVELOPER v20.1',
/* originating_system */ 'Autodesk Translation Framework v14.17.0.0',
/* authorisation */ '');

FILE_SCHEMA (('AUTOMOTIVE_DESIGN { 1 0 10303 214 3 1 1 }'));
ENDSEC;

DATA;
#10=MECHANICAL_DESIGN_GEOMETRIC_PRESENTATION_REPRESENTATION('',(#22,#23,
#24,#25),#1157);
#11=SHAPE_REPRESENTATION_RELATIONSHIP('SRR','None',#1164,#12);
#12=ADVANCED_BREP_SHAPE_REPRESENTATION('',(#26,#27,#28,#29),#1156);
#13=CIRCLE('',#760,0.335);
#14=CIRCLE('',#761,0.335);
#15=CIRCLE('',#765,0.335);
#16=CIRCLE('',#766,0.335);
#17=CIRCLE('',#770,0.335);
#18=CIRCLE('',#771,0.335);
#19=CYLINDRICAL_SURFACE('',#759,0.335);
#20=CYLINDRICAL_SURFACE('',#764,0.335);
#21=CYLINDRICAL_SURFACE('',#769,0.335);
#22=STYLED_ITEM('',(#1174),#26);
#23=STYLED_ITEM('',(#1175),#27);
#24=STYLED_ITEM('',(#1175),#28);
#25=STYLED_ITEM('',(#1175),#29);
#26=MANIFOLD_SOLID_BREP('Body1',#710);
#27=MANIFOLD_SOLID_BREP('Body2',#711);
#28=MANIFOLD_SOLID_BREP('Body3',#712);
#29=MANIFOLD_SOLID_BREP('Body4',#713);
#30=FACE_BOUND('',#90,.T.);
#31=FACE_BOUND('',#101,.T.);
#32=FACE_OUTER_BOUND('',#73,.T.);
#33=FACE_OUTER_BOUND('',#74,.T.);
#34=FACE_OUTER_BOUND('',#75,.T.);
#35=FACE_OUTER_BOUND('',#76,.T.);
#36=FACE_OUTER_BOUND('',#77,.T.);
#37=FACE_OUTER_BOUND('',#78,.T.);
#38=FACE_OUTER_BOUND('',#79,.T.);
#39=FACE_OUTER_BOUND('',#80,.T.);
#40=FACE_OUTER_BOUND('',#81,.T.);
#41=FACE_OUTER_BOUND('',#82,.T.);
#42=FACE_OUTER_BOUND('',#83,.T.);
#43=FACE_OUTER_BOUND('',#84,.T.);
#44=FACE_OUTER_BOUND('',#85,.T.);
#45=FACE_OUTER_BOUND('',#86,.T.);
#46=FACE_OUTER_BOUND('',#87,.T.);
#47=FACE_OUTER_BOUND('',#88,.T.);
#48=FACE_OUTER_BOUND('',#89,.T.);
#49=FACE_OUTER_BOUND('',#91,.T.);
#50=FACE_OUTER_BOUND('',#92,.T.);
#51=FACE_OUTER_BOUND('',#93,.T.);
#52=FACE_OUTER_BOUND('',#94,.T.);
#53=FACE_OUTER_BOUND('',#95,.T.);
#54=FACE_OUTER_BOUND('',#96,.T.);
#55=FACE_OUTER_BOUND('',#97,.T.);
#56=FACE_OUTER_BOUND('',#98,.T.);
#57=FACE_OUTER_BOUND('',#99,.T.);
#58=FACE_OUTER_BOUND('',#100,.T.);
#59=FACE_OUTER_BOUND('',#102,.T.);
#60=FACE_OUTER_BOUND('',#103,.T.);
#61=FACE_OUTER_BOUND('',#104,.T.);
#62=FACE_OUTER_BOUND('',#105,.T.);
#63=FACE_OUTER_BOUND('',#106,.T.);
#64=FACE_OUTER_BOUND('',#107,.T.);
#65=FACE_OUTER_BOUND('',#108,.T.);
#66=FACE_OUTER_BOUND('',#109,.T.);
#67=FACE_OUTER_BOUND('',#110,.T.);
#68=FACE_OUTER_BOUND('',#111,.T.);
#69=FACE_OUTER_BOUND('',#112,.T.);
#70=FACE_OUTER_BOUND('',#113,.T.);
#71=FACE_OUTER_BOUND('',#114,.T.);
#72=FACE_OUTER_BOUND('',#115,.T.);
#73=EDGE_LOOP('',(#445,#446,#447,#448));
#74=EDGE_LOOP('',(#449,#450,#451,#452));
#75=EDGE_LOOP('',(#453,#454,#455,#456));
#76=EDGE_LOOP('',(#457,#458,#459,#460));
#77=EDGE_LOOP('',(#461,#462,#463,#464));
#78=EDGE_LOOP('',(#465,#466,#467,#468));
#79=EDGE_LOOP('',(#469,#470,#471,#472));
#80=EDGE_LOOP('',(#473,#474,#475,#476));
#81=EDGE_LOOP('',(#477,#478,#479,#480));
#82=EDGE_LOOP('',(#481,#482,#483,#484));
#83=EDGE_LOOP('',(#485,#486,#487,#488));
#84=EDGE_LOOP('',(#489,#490,#491,#492));
#85=EDGE_LOOP('',(#493,#494,#495,#496));
#86=EDGE_LOOP('',(#497,#498,#499,#500));
#87=EDGE_LOOP('',(#501,#502,#503,#504));
#88=EDGE_LOOP('',(#505,#506,#507,#508));
#89=EDGE_LOOP('',(#509,#510,#511,#512,#513,#514,#515,#516,#517,#518,#519,
#520,#521,#522,#523,#524,#525,#526,#527,#528));
#90=EDGE_LOOP('',(#529,#530,#531,#532));
#91=EDGE_LOOP('',(#533,#534,#535,#536));
#92=EDGE_LOOP('',(#537,#538,#539,#540));
#93=EDGE_LOOP('',(#541,#542,#543,#544));
#94=EDGE_LOOP('',(#545,#546,#547,#548));
#95=EDGE_LOOP('',(#549,#550,#551,#552));
#96=EDGE_LOOP('',(#553,#554,#555,#556));
#97=EDGE_LOOP('',(#557,#558,#559,#560));
#98=EDGE_LOOP('',(#561,#562,#563,#564));
#99=EDGE_LOOP('',(#565,#566,#567,#568));
#100=EDGE_LOOP('',(#569,#570,#571,#572));
#101=EDGE_LOOP('',(#573,#574,#575,#576));
#102=EDGE_LOOP('',(#577,#578,#579,#580,#581,#582,#583,#584));
#103=EDGE_LOOP('',(#585,#586,#587,#588,#589,#590,#591,#592));
#104=EDGE_LOOP('',(#593,#594,#595,#596,#597,#598,#599,#600));
#105=EDGE_LOOP('',(#601,#602,#603,#604,#605,#606,#607,#608));
#106=EDGE_LOOP('',(#609,#610,#611,#612));
#107=EDGE_LOOP('',(#613,#614,#615,#616));
#108=EDGE_LOOP('',(#617));
#109=EDGE_LOOP('',(#618));
#110=EDGE_LOOP('',(#619,#620,#621,#622));
#111=EDGE_LOOP('',(#623));
#112=EDGE_LOOP('',(#624));
#113=EDGE_LOOP('',(#625,#626,#627,#628));
#114=EDGE_LOOP('',(#629));
#115=EDGE_LOOP('',(#630));
#116=LINE('',#961,#203);
#117=LINE('',#963,#204);
#118=LINE('',#965,#205);
#119=LINE('',#966,#206);
#120=LINE('',#969,#207);
#121=LINE('',#971,#208);
#122=LINE('',#972,#209);
#123=LINE('',#975,#210);
#124=LINE('',#977,#211);
#125=LINE('',#978,#212);
#126=LINE('',#980,#213);
#127=LINE('',#984,#214);
#128=LINE('',#986,#215);
#129=LINE('',#988,#216);
#130=LINE('',#989,#217);
#131=LINE('',#993,#218);
#132=LINE('',#995,#219);
#133=LINE('',#997,#220);
#134=LINE('',#998,#221);
#135=LINE('',#1000,#222);
#136=LINE('',#1001,#223);
#137=LINE('',#1003,#224);
#138=LINE('',#1007,#225);
#139=LINE('',#1009,#226);
#140=LINE('',#1011,#227);
#141=LINE('',#1012,#228);
#142=LINE('',#1015,#229);
#143=LINE('',#1017,#230);
#144=LINE('',#1018,#231);
#145=LINE('',#1021,#232);
#146=LINE('',#1023,#233);
#147=LINE('',#1024,#234);
#148=LINE('',#1026,#235);
#149=LINE('',#1030,#236);
#150=LINE('',#1032,#237);
#151=LINE('',#1034,#238);
#152=LINE('',#1035,#239);
#153=LINE('',#1038,#240);
#154=LINE('',#1040,#241);
#155=LINE('',#1041,#242);
#156=LINE('',#1044,#243);
#157=LINE('',#1046,#244);
#158=LINE('',#1047,#245);
#159=LINE('',#1049,#246);
#160=LINE('',#1052,#247);
#161=LINE('',#1053,#248);
#162=LINE('',#1055,#249);
#163=LINE('',#1056,#250);
#164=LINE('',#1058,#251);
#165=LINE('',#1059,#252);
#166=LINE('',#1061,#253);
#167=LINE('',#1062,#254);
#168=LINE('',#1065,#255);
#169=LINE('',#1067,#256);
#170=LINE('',#1069,#257);
#171=LINE('',#1070,#258);
#172=LINE('',#1074,#259);
#173=LINE('',#1076,#260);
#174=LINE('',#1078,#261);
#175=LINE('',#1079,#262);
#176=LINE('',#1082,#263);
#177=LINE('',#1084,#264);
#178=LINE('',#1085,#265);
#179=LINE('',#1088,#266);
#180=LINE('',#1090,#267);
#181=LINE('',#1091,#268);
#182=LINE('',#1093,#269);
#183=LINE('',#1094,#270);
#184=LINE('',#1098,#271);
#185=LINE('',#1100,#272);
#186=LINE('',#1101,#273);
#187=LINE('',#1104,#274);
#188=LINE('',#1105,#275);
#189=LINE('',#1108,#276);
#190=LINE('',#1109,#277);
#191=LINE('',#1111,#278);
#192=LINE('',#1115,#279);
#193=LINE('',#1117,#280);
#194=LINE('',#1118,#281);
#195=LINE('',#1121,#282);
#196=LINE('',#1122,#283);
#197=LINE('',#1125,#284);
#198=LINE('',#1126,#285);
#199=LINE('',#1128,#286);
#200=LINE('',#1134,#287);
#201=LINE('',#1142,#288);
#202=LINE('',#1150,#289);
#203=VECTOR('',#778,10.);
#204=VECTOR('',#779,10.);
#205=VECTOR('',#780,10.);
#206=VECTOR('',#781,10.);
#207=VECTOR('',#784,10.);
#208=VECTOR('',#785,10.);
#209=VECTOR('',#786,10.);
#210=VECTOR('',#789,10.);
#211=VECTOR('',#790,10.);
#212=VECTOR('',#791,10.);
#213=VECTOR('',#794,10.);
#214=VECTOR('',#797,10.);
#215=VECTOR('',#798,10.);
#216=VECTOR('',#799,10.);
#217=VECTOR('',#800,10.);
#218=VECTOR('',#803,10.);
#219=VECTOR('',#804,10.);
#220=VECTOR('',#805,10.);
#221=VECTOR('',#806,10.);
#222=VECTOR('',#809,10.);
#223=VECTOR('',#810,10.);
#224=VECTOR('',#813,10.);
#225=VECTOR('',#816,10.);
#226=VECTOR('',#817,10.);
#227=VECTOR('',#818,10.);
#228=VECTOR('',#819,10.);
#229=VECTOR('',#822,10.);
#230=VECTOR('',#823,10.);
#231=VECTOR('',#824,10.);
#232=VECTOR('',#827,10.);
#233=VECTOR('',#828,10.);
#234=VECTOR('',#829,10.);
#235=VECTOR('',#832,10.);
#236=VECTOR('',#835,10.);
#237=VECTOR('',#836,10.);
#238=VECTOR('',#837,10.);
#239=VECTOR('',#838,10.);
#240=VECTOR('',#841,10.);
#241=VECTOR('',#842,10.);
#242=VECTOR('',#843,10.);
#243=VECTOR('',#846,10.);
#244=VECTOR('',#847,10.);
#245=VECTOR('',#848,10.);
#246=VECTOR('',#851,10.);
#247=VECTOR('',#854,10.);
#248=VECTOR('',#855,10.);
#249=VECTOR('',#856,10.);
#250=VECTOR('',#857,10.);
#251=VECTOR('',#858,10.);
#252=VECTOR('',#859,10.);
#253=VECTOR('',#860,10.);
#254=VECTOR('',#861,10.);
#255=VECTOR('',#862,10.);
#256=VECTOR('',#863,10.);
#257=VECTOR('',#864,10.);
#258=VECTOR('',#865,10.);
#259=VECTOR('',#868,10.);
#260=VECTOR('',#869,10.);
#261=VECTOR('',#870,10.);
#262=VECTOR('',#871,10.);
#263=VECTOR('',#874,10.);
#264=VECTOR('',#875,10.);
#265=VECTOR('',#876,10.);
#266=VECTOR('',#879,10.);
#267=VECTOR('',#880,10.);
#268=VECTOR('',#881,10.);
#269=VECTOR('',#884,10.);
#270=VECTOR('',#885,10.);
#271=VECTOR('',#890,10.);
#272=VECTOR('',#891,10.);
#273=VECTOR('',#892,10.);
#274=VECTOR('',#895,10.);
#275=VECTOR('',#896,10.);
#276=VECTOR('',#899,10.);
#277=VECTOR('',#900,10.);
#278=VECTOR('',#903,10.);
#279=VECTOR('',#908,10.);
#280=VECTOR('',#909,10.);
#281=VECTOR('',#910,10.);
#282=VECTOR('',#913,10.);
#283=VECTOR('',#914,10.);
#284=VECTOR('',#917,10.);
#285=VECTOR('',#918,10.);
#286=VECTOR('',#921,10.);
#287=VECTOR('',#928,0.335);
#288=VECTOR('',#939,0.335);
#289=VECTOR('',#950,0.335);
#290=VERTEX_POINT('',#959);
#291=VERTEX_POINT('',#960);
#292=VERTEX_POINT('',#962);
#293=VERTEX_POINT('',#964);
#294=VERTEX_POINT('',#968);
#295=VERTEX_POINT('',#970);
#296=VERTEX_POINT('',#974);
#297=VERTEX_POINT('',#976);
#298=VERTEX_POINT('',#982);
#299=VERTEX_POINT('',#983);
#300=VERTEX_POINT('',#985);
#301=VERTEX_POINT('',#987);
#302=VERTEX_POINT('',#991);
#303=VERTEX_POINT('',#992);
#304=VERTEX_POINT('',#994);
#305=VERTEX_POINT('',#996);
#306=VERTEX_POINT('',#1005);
#307=VERTEX_POINT('',#1006);
#308=VERTEX_POINT('',#1008);
#309=VERTEX_POINT('',#1010);
#310=VERTEX_POINT('',#1014);
#311=VERTEX_POINT('',#1016);
#312=VERTEX_POINT('',#1020);
#313=VERTEX_POINT('',#1022);
#314=VERTEX_POINT('',#1028);
#315=VERTEX_POINT('',#1029);
#316=VERTEX_POINT('',#1031);
#317=VERTEX_POINT('',#1033);
#318=VERTEX_POINT('',#1037);
#319=VERTEX_POINT('',#1039);
#320=VERTEX_POINT('',#1043);
#321=VERTEX_POINT('',#1045);
#322=VERTEX_POINT('',#1051);
#323=VERTEX_POINT('',#1054);
#324=VERTEX_POINT('',#1057);
#325=VERTEX_POINT('',#1060);
#326=VERTEX_POINT('',#1063);
#327=VERTEX_POINT('',#1064);
#328=VERTEX_POINT('',#1066);
#329=VERTEX_POINT('',#1068);
#330=VERTEX_POINT('',#1072);
#331=VERTEX_POINT('',#1073);
#332=VERTEX_POINT('',#1075);
#333=VERTEX_POINT('',#1077);
#334=VERTEX_POINT('',#1081);
#335=VERTEX_POINT('',#1083);
#336=VERTEX_POINT('',#1087);
#337=VERTEX_POINT('',#1089);
#338=VERTEX_POINT('',#1097);
#339=VERTEX_POINT('',#1099);
#340=VERTEX_POINT('',#1103);
#341=VERTEX_POINT('',#1107);
#342=VERTEX_POINT('',#1114);
#343=VERTEX_POINT('',#1116);
#344=VERTEX_POINT('',#1120);
#345=VERTEX_POINT('',#1124);
#346=VERTEX_POINT('',#1131);
#347=VERTEX_POINT('',#1133);
#348=VERTEX_POINT('',#1139);
#349=VERTEX_POINT('',#1141);
#350=VERTEX_POINT('',#1147);
#351=VERTEX_POINT('',#1149);
#352=EDGE_CURVE('',#290,#291,#116,.T.);
#353=EDGE_CURVE('',#292,#290,#117,.T.);
#354=EDGE_CURVE('',#293,#292,#118,.T.);
#355=EDGE_CURVE('',#293,#291,#119,.T.);
#356=EDGE_CURVE('',#291,#294,#120,.T.);
#357=EDGE_CURVE('',#295,#293,#121,.T.);
#358=EDGE_CURVE('',#294,#295,#122,.T.);
#359=EDGE_CURVE('',#296,#290,#123,.T.);
#360=EDGE_CURVE('',#297,#296,#124,.T.);
#361=EDGE_CURVE('',#292,#297,#125,.T.);
#362=EDGE_CURVE('',#295,#297,#126,.T.);
#363=EDGE_CURVE('',#298,#299,#127,.T.);
#364=EDGE_CURVE('',#300,#298,#128,.T.);
#365=EDGE_CURVE('',#301,#300,#129,.T.);
#366=EDGE_CURVE('',#299,#301,#130,.T.);
#367=EDGE_CURVE('',#302,#303,#131,.T.);
#368=EDGE_CURVE('',#304,#302,#132,.T.);
#369=EDGE_CURVE('',#305,#304,#133,.T.);
#370=EDGE_CURVE('',#305,#303,#134,.T.);
#371=EDGE_CURVE('',#303,#298,#135,.T.);
#372=EDGE_CURVE('',#300,#305,#136,.T.);
#373=EDGE_CURVE('',#301,#304,#137,.T.);
#374=EDGE_CURVE('',#306,#307,#138,.T.);
#375=EDGE_CURVE('',#308,#306,#139,.T.);
#376=EDGE_CURVE('',#308,#309,#140,.T.);
#377=EDGE_CURVE('',#309,#307,#141,.T.);
#378=EDGE_CURVE('',#307,#310,#142,.T.);
#379=EDGE_CURVE('',#309,#311,#143,.T.);
#380=EDGE_CURVE('',#310,#311,#144,.T.);
#381=EDGE_CURVE('',#312,#306,#145,.T.);
#382=EDGE_CURVE('',#313,#312,#146,.T.);
#383=EDGE_CURVE('',#313,#308,#147,.T.);
#384=EDGE_CURVE('',#311,#313,#148,.T.);
#385=EDGE_CURVE('',#314,#315,#149,.T.);
#386=EDGE_CURVE('',#316,#314,#150,.T.);
#387=EDGE_CURVE('',#316,#317,#151,.T.);
#388=EDGE_CURVE('',#317,#315,#152,.T.);
#389=EDGE_CURVE('',#315,#318,#153,.T.);
#390=EDGE_CURVE('',#317,#319,#154,.T.);
#391=EDGE_CURVE('',#318,#319,#155,.T.);
#392=EDGE_CURVE('',#320,#314,#156,.T.);
#393=EDGE_CURVE('',#321,#320,#157,.T.);
#394=EDGE_CURVE('',#321,#316,#158,.T.);
#395=EDGE_CURVE('',#319,#321,#159,.T.);
#396=EDGE_CURVE('',#294,#322,#160,.T.);
#397=EDGE_CURVE('',#322,#302,#161,.T.);
#398=EDGE_CURVE('',#299,#323,#162,.T.);
#399=EDGE_CURVE('',#323,#312,#163,.T.);
#400=EDGE_CURVE('',#310,#324,#164,.T.);
#401=EDGE_CURVE('',#324,#320,#165,.T.);
#402=EDGE_CURVE('',#318,#325,#166,.T.);
#403=EDGE_CURVE('',#325,#296,#167,.T.);
#404=EDGE_CURVE('',#326,#327,#168,.T.);
#405=EDGE_CURVE('',#327,#328,#169,.T.);
#406=EDGE_CURVE('',#328,#329,#170,.T.);
#407=EDGE_CURVE('',#329,#326,#171,.T.);
#408=EDGE_CURVE('',#330,#331,#172,.T.);
#409=EDGE_CURVE('',#330,#332,#173,.T.);
#410=EDGE_CURVE('',#333,#332,#174,.T.);
#411=EDGE_CURVE('',#331,#333,#175,.T.);
#412=EDGE_CURVE('',#331,#334,#176,.T.);
#413=EDGE_CURVE('',#335,#333,#177,.T.);
#414=EDGE_CURVE('',#334,#335,#178,.T.);
#415=EDGE_CURVE('',#334,#336,#179,.T.);
#416=EDGE_CURVE('',#337,#335,#180,.T.);
#417=EDGE_CURVE('',#336,#337,#181,.T.);
#418=EDGE_CURVE('',#336,#330,#182,.T.);
#419=EDGE_CURVE('',#332,#337,#183,.T.);
#420=EDGE_CURVE('',#326,#338,#184,.T.);
#421=EDGE_CURVE('',#338,#339,#185,.T.);
#422=EDGE_CURVE('',#327,#339,#186,.T.);
#423=EDGE_CURVE('',#329,#340,#187,.T.);
#424=EDGE_CURVE('',#340,#338,#188,.T.);
#425=EDGE_CURVE('',#328,#341,#189,.T.);
#426=EDGE_CURVE('',#341,#340,#190,.T.);
#427=EDGE_CURVE('',#339,#341,#191,.T.);
#428=EDGE_CURVE('',#342,#323,#192,.T.);
#429=EDGE_CURVE('',#343,#342,#193,.T.);
#430=EDGE_CURVE('',#343,#324,#194,.T.);
#431=EDGE_CURVE('',#344,#322,#195,.T.);
#432=EDGE_CURVE('',#342,#344,#196,.T.);
#433=EDGE_CURVE('',#345,#325,#197,.T.);
#434=EDGE_CURVE('',#344,#345,#198,.T.);
#435=EDGE_CURVE('',#345,#343,#199,.T.);
#436=EDGE_CURVE('',#346,#346,#13,.T.);
#437=EDGE_CURVE('',#346,#347,#200,.T.);
#438=EDGE_CURVE('',#347,#347,#14,.T.);
#439=EDGE_CURVE('',#348,#348,#15,.T.);
#440=EDGE_CURVE('',#348,#349,#201,.T.);
#441=EDGE_CURVE('',#349,#349,#16,.T.);
#442=EDGE_CURVE('',#350,#350,#17,.T.);
#443=EDGE_CURVE('',#350,#351,#202,.T.);
#444=EDGE_CURVE('',#351,#351,#18,.T.);
#445=ORIENTED_EDGE('',*,*,#352,.F.);
#446=ORIENTED_EDGE('',*,*,#353,.F.);
#447=ORIENTED_EDGE('',*,*,#354,.F.);
#448=ORIENTED_EDGE('',*,*,#355,.T.);
#449=ORIENTED_EDGE('',*,*,#356,.F.);
#450=ORIENTED_EDGE('',*,*,#355,.F.);
#451=ORIENTED_EDGE('',*,*,#357,.F.);
#452=ORIENTED_EDGE('',*,*,#358,.F.);
#453=ORIENTED_EDGE('',*,*,#359,.F.);
#454=ORIENTED_EDGE('',*,*,#360,.F.);
#455=ORIENTED_EDGE('',*,*,#361,.F.);
#456=ORIENTED_EDGE('',*,*,#353,.T.);
#457=ORIENTED_EDGE('',*,*,#362,.F.);
#458=ORIENTED_EDGE('',*,*,#357,.T.);
#459=ORIENTED_EDGE('',*,*,#354,.T.);
#460=ORIENTED_EDGE('',*,*,#361,.T.);
#461=ORIENTED_EDGE('',*,*,#363,.F.);
#462=ORIENTED_EDGE('',*,*,#364,.F.);
#463=ORIENTED_EDGE('',*,*,#365,.F.);
#464=ORIENTED_EDGE('',*,*,#366,.F.);
#465=ORIENTED_EDGE('',*,*,#367,.F.);
#466=ORIENTED_EDGE('',*,*,#368,.F.);
#467=ORIENTED_EDGE('',*,*,#369,.F.);
#468=ORIENTED_EDGE('',*,*,#370,.T.);
#469=ORIENTED_EDGE('',*,*,#371,.F.);
#470=ORIENTED_EDGE('',*,*,#370,.F.);
#471=ORIENTED_EDGE('',*,*,#372,.F.);
#472=ORIENTED_EDGE('',*,*,#364,.T.);
#473=ORIENTED_EDGE('',*,*,#365,.T.);
#474=ORIENTED_EDGE('',*,*,#372,.T.);
#475=ORIENTED_EDGE('',*,*,#369,.T.);
#476=ORIENTED_EDGE('',*,*,#373,.F.);
#477=ORIENTED_EDGE('',*,*,#374,.F.);
#478=ORIENTED_EDGE('',*,*,#375,.F.);
#479=ORIENTED_EDGE('',*,*,#376,.T.);
#480=ORIENTED_EDGE('',*,*,#377,.T.);
#481=ORIENTED_EDGE('',*,*,#378,.F.);
#482=ORIENTED_EDGE('',*,*,#377,.F.);
#483=ORIENTED_EDGE('',*,*,#379,.T.);
#484=ORIENTED_EDGE('',*,*,#380,.F.);
#485=ORIENTED_EDGE('',*,*,#381,.F.);
#486=ORIENTED_EDGE('',*,*,#382,.F.);
#487=ORIENTED_EDGE('',*,*,#383,.T.);
#488=ORIENTED_EDGE('',*,*,#375,.T.);
#489=ORIENTED_EDGE('',*,*,#376,.F.);
#490=ORIENTED_EDGE('',*,*,#383,.F.);
#491=ORIENTED_EDGE('',*,*,#384,.F.);
#492=ORIENTED_EDGE('',*,*,#379,.F.);
#493=ORIENTED_EDGE('',*,*,#385,.F.);
#494=ORIENTED_EDGE('',*,*,#386,.F.);
#495=ORIENTED_EDGE('',*,*,#387,.T.);
#496=ORIENTED_EDGE('',*,*,#388,.T.);
#497=ORIENTED_EDGE('',*,*,#389,.F.);
#498=ORIENTED_EDGE('',*,*,#388,.F.);
#499=ORIENTED_EDGE('',*,*,#390,.T.);
#500=ORIENTED_EDGE('',*,*,#391,.F.);
#501=ORIENTED_EDGE('',*,*,#392,.F.);
#502=ORIENTED_EDGE('',*,*,#393,.F.);
#503=ORIENTED_EDGE('',*,*,#394,.T.);
#504=ORIENTED_EDGE('',*,*,#386,.T.);
#505=ORIENTED_EDGE('',*,*,#387,.F.);
#506=ORIENTED_EDGE('',*,*,#394,.F.);
#507=ORIENTED_EDGE('',*,*,#395,.F.);
#508=ORIENTED_EDGE('',*,*,#390,.F.);
#509=ORIENTED_EDGE('',*,*,#359,.T.);
#510=ORIENTED_EDGE('',*,*,#352,.T.);
#511=ORIENTED_EDGE('',*,*,#356,.T.);
#512=ORIENTED_EDGE('',*,*,#396,.T.);
#513=ORIENTED_EDGE('',*,*,#397,.T.);
#514=ORIENTED_EDGE('',*,*,#367,.T.);
#515=ORIENTED_EDGE('',*,*,#371,.T.);
#516=ORIENTED_EDGE('',*,*,#363,.T.);
#517=ORIENTED_EDGE('',*,*,#398,.T.);
#518=ORIENTED_EDGE('',*,*,#399,.T.);
#519=ORIENTED_EDGE('',*,*,#381,.T.);
#520=ORIENTED_EDGE('',*,*,#374,.T.);
#521=ORIENTED_EDGE('',*,*,#378,.T.);
#522=ORIENTED_EDGE('',*,*,#400,.T.);
#523=ORIENTED_EDGE('',*,*,#401,.T.);
#524=ORIENTED_EDGE('',*,*,#392,.T.);
#525=ORIENTED_EDGE('',*,*,#385,.T.);
#526=ORIENTED_EDGE('',*,*,#389,.T.);
#527=ORIENTED_EDGE('',*,*,#402,.T.);
#528=ORIENTED_EDGE('',*,*,#403,.T.);
#529=ORIENTED_EDGE('',*,*,#404,.T.);
#530=ORIENTED_EDGE('',*,*,#405,.T.);
#531=ORIENTED_EDGE('',*,*,#406,.T.);
#532=ORIENTED_EDGE('',*,*,#407,.T.);
#533=ORIENTED_EDGE('',*,*,#408,.F.);
#534=ORIENTED_EDGE('',*,*,#409,.T.);
#535=ORIENTED_EDGE('',*,*,#410,.F.);
#536=ORIENTED_EDGE('',*,*,#411,.F.);
#537=ORIENTED_EDGE('',*,*,#412,.F.);
#538=ORIENTED_EDGE('',*,*,#411,.T.);
#539=ORIENTED_EDGE('',*,*,#413,.F.);
#540=ORIENTED_EDGE('',*,*,#414,.F.);
#541=ORIENTED_EDGE('',*,*,#415,.F.);
#542=ORIENTED_EDGE('',*,*,#414,.T.);
#543=ORIENTED_EDGE('',*,*,#416,.F.);
#544=ORIENTED_EDGE('',*,*,#417,.F.);
#545=ORIENTED_EDGE('',*,*,#418,.F.);
#546=ORIENTED_EDGE('',*,*,#417,.T.);
#547=ORIENTED_EDGE('',*,*,#419,.F.);
#548=ORIENTED_EDGE('',*,*,#409,.F.);
#549=ORIENTED_EDGE('',*,*,#419,.T.);
#550=ORIENTED_EDGE('',*,*,#416,.T.);
#551=ORIENTED_EDGE('',*,*,#413,.T.);
#552=ORIENTED_EDGE('',*,*,#410,.T.);
#553=ORIENTED_EDGE('',*,*,#404,.F.);
#554=ORIENTED_EDGE('',*,*,#420,.T.);
#555=ORIENTED_EDGE('',*,*,#421,.T.);
#556=ORIENTED_EDGE('',*,*,#422,.F.);
#557=ORIENTED_EDGE('',*,*,#407,.F.);
#558=ORIENTED_EDGE('',*,*,#423,.T.);
#559=ORIENTED_EDGE('',*,*,#424,.T.);
#560=ORIENTED_EDGE('',*,*,#420,.F.);
#561=ORIENTED_EDGE('',*,*,#406,.F.);
#562=ORIENTED_EDGE('',*,*,#425,.T.);
#563=ORIENTED_EDGE('',*,*,#426,.T.);
#564=ORIENTED_EDGE('',*,*,#423,.F.);
#565=ORIENTED_EDGE('',*,*,#405,.F.);
#566=ORIENTED_EDGE('',*,*,#422,.T.);
#567=ORIENTED_EDGE('',*,*,#427,.T.);
#568=ORIENTED_EDGE('',*,*,#425,.F.);
#569=ORIENTED_EDGE('',*,*,#427,.F.);
#570=ORIENTED_EDGE('',*,*,#421,.F.);
#571=ORIENTED_EDGE('',*,*,#424,.F.);
#572=ORIENTED_EDGE('',*,*,#426,.F.);
#573=ORIENTED_EDGE('',*,*,#408,.T.);
#574=ORIENTED_EDGE('',*,*,#412,.T.);
#575=ORIENTED_EDGE('',*,*,#415,.T.);
#576=ORIENTED_EDGE('',*,*,#418,.T.);
#577=ORIENTED_EDGE('',*,*,#382,.T.);
#578=ORIENTED_EDGE('',*,*,#399,.F.);
#579=ORIENTED_EDGE('',*,*,#428,.F.);
#580=ORIENTED_EDGE('',*,*,#429,.F.);
#581=ORIENTED_EDGE('',*,*,#430,.T.);
#582=ORIENTED_EDGE('',*,*,#400,.F.);
#583=ORIENTED_EDGE('',*,*,#380,.T.);
#584=ORIENTED_EDGE('',*,*,#384,.T.);
#585=ORIENTED_EDGE('',*,*,#368,.T.);
#586=ORIENTED_EDGE('',*,*,#397,.F.);
#587=ORIENTED_EDGE('',*,*,#431,.F.);
#588=ORIENTED_EDGE('',*,*,#432,.F.);
#589=ORIENTED_EDGE('',*,*,#428,.T.);
#590=ORIENTED_EDGE('',*,*,#398,.F.);
#591=ORIENTED_EDGE('',*,*,#366,.T.);
#592=ORIENTED_EDGE('',*,*,#373,.T.);
#593=ORIENTED_EDGE('',*,*,#360,.T.);
#594=ORIENTED_EDGE('',*,*,#403,.F.);
#595=ORIENTED_EDGE('',*,*,#433,.F.);
#596=ORIENTED_EDGE('',*,*,#434,.F.);
#597=ORIENTED_EDGE('',*,*,#431,.T.);
#598=ORIENTED_EDGE('',*,*,#396,.F.);
#599=ORIENTED_EDGE('',*,*,#358,.T.);
#600=ORIENTED_EDGE('',*,*,#362,.T.);
#601=ORIENTED_EDGE('',*,*,#393,.T.);
#602=ORIENTED_EDGE('',*,*,#401,.F.);
#603=ORIENTED_EDGE('',*,*,#430,.F.);
#604=ORIENTED_EDGE('',*,*,#435,.F.);
#605=ORIENTED_EDGE('',*,*,#433,.T.);
#606=ORIENTED_EDGE('',*,*,#402,.F.);
#607=ORIENTED_EDGE('',*,*,#391,.T.);
#608=ORIENTED_EDGE('',*,*,#395,.T.);
#609=ORIENTED_EDGE('',*,*,#435,.T.);
#610=ORIENTED_EDGE('',*,*,#429,.T.);
#611=ORIENTED_EDGE('',*,*,#432,.T.);
#612=ORIENTED_EDGE('',*,*,#434,.T.);
#613=ORIENTED_EDGE('',*,*,#436,.F.);
#614=ORIENTED_EDGE('',*,*,#437,.T.);
#615=ORIENTED_EDGE('',*,*,#438,.F.);
#616=ORIENTED_EDGE('',*,*,#437,.F.);
#617=ORIENTED_EDGE('',*,*,#438,.T.);
#618=ORIENTED_EDGE('',*,*,#436,.T.);
#619=ORIENTED_EDGE('',*,*,#439,.F.);
#620=ORIENTED_EDGE('',*,*,#440,.T.);
#621=ORIENTED_EDGE('',*,*,#441,.F.);
#622=ORIENTED_EDGE('',*,*,#440,.F.);
#623=ORIENTED_EDGE('',*,*,#441,.T.);
#624=ORIENTED_EDGE('',*,*,#439,.T.);
#625=ORIENTED_EDGE('',*,*,#442,.F.);
#626=ORIENTED_EDGE('',*,*,#443,.T.);
#627=ORIENTED_EDGE('',*,*,#444,.F.);
#628=ORIENTED_EDGE('',*,*,#443,.F.);
#629=ORIENTED_EDGE('',*,*,#444,.T.);
#630=ORIENTED_EDGE('',*,*,#442,.T.);
#631=PLANE('',#727);
#632=PLANE('',#728);
#633=PLANE('',#729);
#634=PLANE('',#730);
#635=PLANE('',#731);
#636=PLANE('',#732);
#637=PLANE('',#733);
#638=PLANE('',#734);
#639=PLANE('',#735);
#640=PLANE('',#736);
#641=PLANE('',#737);
#642=PLANE('',#738);
#643=PLANE('',#739);
#644=PLANE('',#740);
#645=PLANE('',#741);
#646=PLANE('',#742);
#647=PLANE('',#743);
#648=PLANE('',#744);
#649=PLANE('',#745);
#650=PLANE('',#746);
#651=PLANE('',#747);
#652=PLANE('',#748);
#653=PLANE('',#749);
#654=PLANE('',#750);
#655=PLANE('',#751);
#656=PLANE('',#752);
#657=PLANE('',#753);
#658=PLANE('',#754);
#659=PLANE('',#755);
#660=PLANE('',#756);
#661=PLANE('',#757);
#662=PLANE('',#758);
#663=PLANE('',#762);
#664=PLANE('',#763);
#665=PLANE('',#767);
#666=PLANE('',#768);
#667=PLANE('',#772);
#668=PLANE('',#773);
#669=ADVANCED_FACE('',(#32),#631,.F.);
#670=ADVANCED_FACE('',(#33),#632,.F.);
#671=ADVANCED_FACE('',(#34),#633,.F.);
#672=ADVANCED_FACE('',(#35),#634,.T.);
#673=ADVANCED_FACE('',(#36),#635,.F.);
#674=ADVANCED_FACE('',(#37),#636,.F.);
#675=ADVANCED_FACE('',(#38),#637,.F.);
#676=ADVANCED_FACE('',(#39),#638,.T.);
#677=ADVANCED_FACE('',(#40),#639,.F.);
#678=ADVANCED_FACE('',(#41),#640,.F.);
#679=ADVANCED_FACE('',(#42),#641,.F.);
#680=ADVANCED_FACE('',(#43),#642,.T.);
#681=ADVANCED_FACE('',(#44),#643,.F.);
#682=ADVANCED_FACE('',(#45),#644,.F.);
#683=ADVANCED_FACE('',(#46),#645,.F.);
#684=ADVANCED_FACE('',(#47),#646,.T.);
#685=ADVANCED_FACE('',(#48,#30),#647,.T.);
#686=ADVANCED_FACE('',(#49),#648,.T.);
#687=ADVANCED_FACE('',(#50),#649,.T.);
#688=ADVANCED_FACE('',(#51),#650,.T.);
#689=ADVANCED_FACE('',(#52),#651,.T.);
#690=ADVANCED_FACE('',(#53),#652,.T.);
#691=ADVANCED_FACE('',(#54),#653,.F.);
#692=ADVANCED_FACE('',(#55),#654,.F.);
#693=ADVANCED_FACE('',(#56),#655,.F.);
#694=ADVANCED_FACE('',(#57),#656,.F.);
#695=ADVANCED_FACE('',(#58,#31),#657,.F.);
#696=ADVANCED_FACE('',(#59),#658,.T.);
#697=ADVANCED_FACE('',(#60),#659,.T.);
#698=ADVANCED_FACE('',(#61),#660,.T.);
#699=ADVANCED_FACE('',(#62),#661,.T.);
#700=ADVANCED_FACE('',(#63),#662,.F.);
#701=ADVANCED_FACE('',(#64),#19,.T.);
#702=ADVANCED_FACE('',(#65),#663,.T.);
#703=ADVANCED_FACE('',(#66),#664,.F.);
#704=ADVANCED_FACE('',(#67),#20,.T.);
#705=ADVANCED_FACE('',(#68),#665,.T.);
#706=ADVANCED_FACE('',(#69),#666,.F.);
#707=ADVANCED_FACE('',(#70),#21,.T.);
#708=ADVANCED_FACE('',(#71),#667,.T.);
#709=ADVANCED_FACE('',(#72),#668,.F.);
#710=CLOSED_SHELL('',(#669,#670,#671,#672,#673,#674,#675,#676,#677,#678,
#679,#680,#681,#682,#683,#684,#685,#686,#687,#688,#689,#690,#691,#692,#693,
#694,#695,#696,#697,#698,#699,#700));
#711=CLOSED_SHELL('',(#701,#702,#703));
#712=CLOSED_SHELL('',(#704,#705,#706));
#713=CLOSED_SHELL('',(#707,#708,#709));
#714=DERIVED_UNIT_ELEMENT(#716,1.);
#715=DERIVED_UNIT_ELEMENT(#1159,-3.);
#716=(
MASS_UNIT()
NAMED_UNIT(*)
SI_UNIT(.KILO.,.GRAM.)
);
#717=DERIVED_UNIT((#714,#715));
#718=MEASURE_REPRESENTATION_ITEM('density measure',
POSITIVE_RATIO_MEASURE(7850.),#717);
#719=PROPERTY_DEFINITION_REPRESENTATION(#724,#721);
#720=PROPERTY_DEFINITION_REPRESENTATION(#725,#722);
#721=REPRESENTATION('material name',(#723),#1156);
#722=REPRESENTATION('density',(#718),#1156);
#723=DESCRIPTIVE_REPRESENTATION_ITEM('Steel','Steel');
#724=PROPERTY_DEFINITION('material property','material name',#1166);
#725=PROPERTY_DEFINITION('material property','density of part',#1166);
#726=AXIS2_PLACEMENT_3D('',#957,#774,#775);
#727=AXIS2_PLACEMENT_3D('',#958,#776,#777);
#728=AXIS2_PLACEMENT_3D('',#967,#782,#783);
#729=AXIS2_PLACEMENT_3D('',#973,#787,#788);
#730=AXIS2_PLACEMENT_3D('',#979,#792,#793);
#731=AXIS2_PLACEMENT_3D('',#981,#795,#796);
#732=AXIS2_PLACEMENT_3D('',#990,#801,#802);
#733=AXIS2_PLACEMENT_3D('',#999,#807,#808);
#734=AXIS2_PLACEMENT_3D('',#1002,#811,#812);
#735=AXIS2_PLACEMENT_3D('',#1004,#814,#815);
#736=AXIS2_PLACEMENT_3D('',#1013,#820,#821);
#737=AXIS2_PLACEMENT_3D('',#1019,#825,#826);
#738=AXIS2_PLACEMENT_3D('',#1025,#830,#831);
#739=AXIS2_PLACEMENT_3D('',#1027,#833,#834);
#740=AXIS2_PLACEMENT_3D('',#1036,#839,#840);
#741=AXIS2_PLACEMENT_3D('',#1042,#844,#845);
#742=AXIS2_PLACEMENT_3D('',#1048,#849,#850);
#743=AXIS2_PLACEMENT_3D('',#1050,#852,#853);
#744=AXIS2_PLACEMENT_3D('',#1071,#866,#867);
#745=AXIS2_PLACEMENT_3D('',#1080,#872,#873);
#746=AXIS2_PLACEMENT_3D('',#1086,#877,#878);
#747=AXIS2_PLACEMENT_3D('',#1092,#882,#883);
#748=AXIS2_PLACEMENT_3D('',#1095,#886,#887);
#749=AXIS2_PLACEMENT_3D('',#1096,#888,#889);
#750=AXIS2_PLACEMENT_3D('',#1102,#893,#894);
#751=AXIS2_PLACEMENT_3D('',#1106,#897,#898);
#752=AXIS2_PLACEMENT_3D('',#1110,#901,#902);
#753=AXIS2_PLACEMENT_3D('',#1112,#904,#905);
#754=AXIS2_PLACEMENT_3D('',#1113,#906,#907);
#755=AXIS2_PLACEMENT_3D('',#1119,#911,#912);
#756=AXIS2_PLACEMENT_3D('',#1123,#915,#916);
#757=AXIS2_PLACEMENT_3D('',#1127,#919,#920);
#758=AXIS2_PLACEMENT_3D('',#1129,#922,#923);
#759=AXIS2_PLACEMENT_3D('',#1130,#924,#925);
#760=AXIS2_PLACEMENT_3D('',#1132,#926,#927);
#761=AXIS2_PLACEMENT_3D('',#1135,#929,#930);
#762=AXIS2_PLACEMENT_3D('',#1136,#931,#932);
#763=AXIS2_PLACEMENT_3D('',#1137,#933,#934);
#764=AXIS2_PLACEMENT_3D('',#1138,#935,#936);
#765=AXIS2_PLACEMENT_3D('',#1140,#937,#938);
#766=AXIS2_PLACEMENT_3D('',#1143,#940,#941);
#767=AXIS2_PLACEMENT_3D('',#1144,#942,#943);
#768=AXIS2_PLACEMENT_3D('',#1145,#944,#945);
#769=AXIS2_PLACEMENT_3D('',#1146,#946,#947);
#770=AXIS2_PLACEMENT_3D('',#1148,#948,#949);
#771=AXIS2_PLACEMENT_3D('',#1151,#951,#952);
#772=AXIS2_PLACEMENT_3D('',#1152,#953,#954);
#773=AXIS2_PLACEMENT_3D('',#1153,#955,#956);
#774=DIRECTION('axis',(0.,0.,1.));
#775=DIRECTION('refdir',(1.,0.,0.));
#776=DIRECTION('center_axis',(-1.,0.,0.));
#777=DIRECTION('ref_axis',(0.,-1.,0.));
#778=DIRECTION('',(0.,1.,0.));
#779=DIRECTION('',(0.,0.,1.));
#780=DIRECTION('',(0.,-1.,0.));
#781=DIRECTION('',(0.,0.,1.));
#782=DIRECTION('center_axis',(0.,1.,0.));
#783=DIRECTION('ref_axis',(-1.,0.,0.));
#784=DIRECTION('',(1.,0.,0.));
#785=DIRECTION('',(-1.,0.,0.));
#786=DIRECTION('',(0.,0.,-1.));
#787=DIRECTION('center_axis',(0.,-1.,0.));
#788=DIRECTION('ref_axis',(1.,0.,0.));
#789=DIRECTION('',(-1.,0.,0.));
#790=DIRECTION('',(0.,0.,1.));
#791=DIRECTION('',(1.,0.,0.));
#792=DIRECTION('center_axis',(0.,0.,1.));
#793=DIRECTION('ref_axis',(1.,0.,0.));
#794=DIRECTION('',(0.,-1.,0.));
#795=DIRECTION('center_axis',(-1.,-4.16333634234434E-16,0.));
#796=DIRECTION('ref_axis',(4.16333634234434E-16,-1.,0.));
#797=DIRECTION('',(-4.16333634234434E-16,1.,0.));
#798=DIRECTION('',(0.,0.,1.));
#799=DIRECTION('',(4.16333634234434E-16,-1.,0.));
#800=DIRECTION('',(0.,0.,-1.));
#801=DIRECTION('center_axis',(1.,-4.0314973581701E-13,0.));
#802=DIRECTION('ref_axis',(4.0314973581701E-13,1.,0.));
#803=DIRECTION('',(-4.0314973581701E-13,-1.,0.));
#804=DIRECTION('',(0.,0.,1.));
#805=DIRECTION('',(4.0314973581701E-13,1.,0.));
#806=DIRECTION('',(0.,0.,1.));
#807=DIRECTION('center_axis',(0.,-1.,0.));
#808=DIRECTION('ref_axis',(1.,0.,0.));
#809=DIRECTION('',(-1.,0.,0.));
#810=DIRECTION('',(1.,0.,0.));
#811=DIRECTION('center_axis',(0.,0.,1.));
#812=DIRECTION('ref_axis',(1.,0.,0.));
#813=DIRECTION('',(1.,0.,0.));
#814=DIRECTION('center_axis',(1.,0.,0.));
#815=DIRECTION('ref_axis',(0.,1.,0.));
#816=DIRECTION('',(0.,-1.,0.));
#817=DIRECTION('',(0.,0.,1.));
#818=DIRECTION('',(0.,-1.,0.));
#819=DIRECTION('',(0.,0.,1.));
#820=DIRECTION('center_axis',(0.,-1.,0.));
#821=DIRECTION('ref_axis',(1.,0.,0.));
#822=DIRECTION('',(-1.,0.,0.));
#823=DIRECTION('',(-1.,0.,0.));
#824=DIRECTION('',(0.,0.,-1.));
#825=DIRECTION('center_axis',(0.,1.,0.));
#826=DIRECTION('ref_axis',(-1.,0.,0.));
#827=DIRECTION('',(1.,0.,0.));
#828=DIRECTION('',(0.,0.,1.));
#829=DIRECTION('',(1.,0.,0.));
#830=DIRECTION('center_axis',(0.,0.,1.));
#831=DIRECTION('ref_axis',(1.,0.,0.));
#832=DIRECTION('',(0.,1.,0.));
#833=DIRECTION('center_axis',(0.,1.,0.));
#834=DIRECTION('ref_axis',(-1.,0.,0.));
#835=DIRECTION('',(1.,0.,0.));
#836=DIRECTION('',(0.,0.,1.));
#837=DIRECTION('',(1.,0.,0.));
#838=DIRECTION('',(0.,0.,1.));
#839=DIRECTION('center_axis',(1.,-1.38777878078145E-16,0.));
#840=DIRECTION('ref_axis',(1.38777878078145E-16,1.,0.));
#841=DIRECTION('',(-1.38777878078145E-16,-1.,0.));
#842=DIRECTION('',(-1.38777878078145E-16,-1.,0.));
#843=DIRECTION('',(0.,0.,-1.));
#844=DIRECTION('center_axis',(-1.,0.,0.));
#845=DIRECTION('ref_axis',(0.,-1.,0.));
#846=DIRECTION('',(0.,1.,0.));
#847=DIRECTION('',(0.,0.,1.));
#848=DIRECTION('',(0.,1.,0.));
#849=DIRECTION('center_axis',(0.,0.,1.));
#850=DIRECTION('ref_axis',(1.,0.,0.));
#851=DIRECTION('',(-1.,0.,0.));
#852=DIRECTION('center_axis',(0.,0.,1.));
#853=DIRECTION('ref_axis',(1.,0.,0.));
#854=DIRECTION('',(0.,1.,0.));
#855=DIRECTION('',(-1.,0.,0.));
#856=DIRECTION('',(-1.,0.,0.));
#857=DIRECTION('',(0.,-1.,0.));
#858=DIRECTION('',(0.,-1.,0.));
#859=DIRECTION('',(1.,0.,0.));
#860=DIRECTION('',(1.,0.,0.));
#861=DIRECTION('',(0.,1.,0.));
#862=DIRECTION('',(0.,-1.,0.));
#863=DIRECTION('',(-1.,0.,0.));
#864=DIRECTION('',(0.,1.,0.));
#865=DIRECTION('',(1.,0.,0.));
#866=DIRECTION('center_axis',(-1.,0.,0.));
#867=DIRECTION('ref_axis',(0.,-1.,0.));
#868=DIRECTION('',(0.,1.,0.));
#869=DIRECTION('',(0.,0.,1.));
#870=DIRECTION('',(0.,-1.,0.));
#871=DIRECTION('',(0.,0.,1.));
#872=DIRECTION('center_axis',(0.,1.,0.));
#873=DIRECTION('ref_axis',(-1.,0.,0.));
#874=DIRECTION('',(1.,0.,0.));
#875=DIRECTION('',(-1.,0.,0.));
#876=DIRECTION('',(0.,0.,1.));
#877=DIRECTION('center_axis',(1.,0.,0.));
#878=DIRECTION('ref_axis',(0.,1.,0.));
#879=DIRECTION('',(0.,-1.,0.));
#880=DIRECTION('',(0.,1.,0.));
#881=DIRECTION('',(0.,0.,1.));
#882=DIRECTION('center_axis',(0.,-1.,0.));
#883=DIRECTION('ref_axis',(1.,0.,0.));
#884=DIRECTION('',(-1.,0.,0.));
#885=DIRECTION('',(1.,0.,0.));
#886=DIRECTION('center_axis',(0.,0.,1.));
#887=DIRECTION('ref_axis',(1.,0.,0.));
#888=DIRECTION('center_axis',(1.,0.,0.));
#889=DIRECTION('ref_axis',(0.,-1.,0.));
#890=DIRECTION('',(0.,0.,-1.));
#891=DIRECTION('',(0.,-1.,0.));
#892=DIRECTION('',(0.,0.,-1.));
#893=DIRECTION('center_axis',(0.,1.,0.));
#894=DIRECTION('ref_axis',(1.,0.,0.));
#895=DIRECTION('',(0.,0.,-1.));
#896=DIRECTION('',(1.,0.,0.));
#897=DIRECTION('center_axis',(-1.,0.,0.));
#898=DIRECTION('ref_axis',(0.,1.,0.));
#899=DIRECTION('',(0.,0.,-1.));
#900=DIRECTION('',(0.,1.,0.));
#901=DIRECTION('center_axis',(0.,-1.,0.));
#902=DIRECTION('ref_axis',(-1.,0.,0.));
#903=DIRECTION('',(-1.,0.,0.));
#904=DIRECTION('center_axis',(0.,0.,-1.));
#905=DIRECTION('ref_axis',(-1.,0.,0.));
#906=DIRECTION('center_axis',(-1.,0.,0.));
#907=DIRECTION('ref_axis',(0.,-1.,0.));
#908=DIRECTION('',(0.,0.,1.));
#909=DIRECTION('',(0.,1.,0.));
#910=DIRECTION('',(0.,0.,1.));
#911=DIRECTION('center_axis',(0.,1.,0.));
#912=DIRECTION('ref_axis',(-1.,0.,0.));
#913=DIRECTION('',(0.,0.,1.));
#914=DIRECTION('',(1.,0.,0.));
#915=DIRECTION('center_axis',(1.,0.,0.));
#916=DIRECTION('ref_axis',(0.,1.,0.));
#917=DIRECTION('',(0.,0.,1.));
#918=DIRECTION('',(0.,-1.,0.));
#919=DIRECTION('center_axis',(0.,-1.,0.));
#920=DIRECTION('ref_axis',(1.,0.,0.));
#921=DIRECTION('',(-1.,0.,0.));
#922=DIRECTION('center_axis',(0.,0.,1.));
#923=DIRECTION('ref_axis',(1.,0.,0.));
#924=DIRECTION('center_axis',(0.,0.,-1.));
#925=DIRECTION('ref_axis',(1.,0.,0.));
#926=DIRECTION('center_axis',(0.,0.,-1.));
#927=DIRECTION('ref_axis',(1.,0.,0.));
#928=DIRECTION('',(0.,0.,1.));
#929=DIRECTION('center_axis',(0.,0.,1.));
#930=DIRECTION('ref_axis',(1.,0.,0.));
#931=DIRECTION('center_axis',(0.,0.,1.));
#932=DIRECTION('ref_axis',(1.,0.,0.));
#933=DIRECTION('center_axis',(0.,0.,1.));
#934=DIRECTION('ref_axis',(1.,0.,0.));
#935=DIRECTION('center_axis',(0.,0.,-1.));
#936=DIRECTION('ref_axis',(1.,0.,0.));
#937=DIRECTION('center_axis',(0.,0.,-1.));
#938=DIRECTION('ref_axis',(1.,0.,0.));
#939=DIRECTION('',(0.,0.,1.));
#940=DIRECTION('center_axis',(0.,0.,1.));
#941=DIRECTION('ref_axis',(1.,0.,0.));
#942=DIRECTION('center_axis',(0.,0.,1.));
#943=DIRECTION('ref_axis',(1.,0.,0.));
#944=DIRECTION('center_axis',(0.,0.,1.));
#945=DIRECTION('ref_axis',(1.,0.,0.));
#946=DIRECTION('center_axis',(0.,0.,-1.));
#947=DIRECTION('ref_axis',(1.,0.,0.));
#948=DIRECTION('center_axis',(0.,0.,-1.));
#949=DIRECTION('ref_axis',(1.,0.,0.));
#950=DIRECTION('',(0.,0.,1.));
#951=DIRECTION('center_axis',(0.,0.,1.));
#952=DIRECTION('ref_axis',(1.,0.,0.));
#953=DIRECTION('center_axis',(0.,0.,1.));
#954=DIRECTION('ref_axis',(1.,0.,0.));
#955=DIRECTION('center_axis',(0.,0.,1.));
#956=DIRECTION('ref_axis',(1.,0.,0.));
#957=CARTESIAN_POINT('',(0.,0.,0.));
#958=CARTESIAN_POINT('Origin',(5.56,1.5,0.5));
#959=CARTESIAN_POINT('',(5.56,-1.5,5.45));
#960=CARTESIAN_POINT('',(5.56,1.5,5.45));
#961=CARTESIAN_POINT('',(5.56,0.75,5.45));
#962=CARTESIAN_POINT('',(5.56,-1.5,0.5));
#963=CARTESIAN_POINT('',(5.56,-1.5,0.5));
#964=CARTESIAN_POINT('',(5.56,1.5,0.5));
#965=CARTESIAN_POINT('',(5.56,1.5,0.5));
#966=CARTESIAN_POINT('',(5.56,1.5,0.5));
#967=CARTESIAN_POINT('Origin',(5.81,1.5,0.5));
#968=CARTESIAN_POINT('',(5.81,1.5,5.45));
#969=CARTESIAN_POINT('',(2.905,1.5,5.45));
#970=CARTESIAN_POINT('',(5.81,1.5,0.5));
#971=CARTESIAN_POINT('',(5.81,1.5,0.5));
#972=CARTESIAN_POINT('',(5.81,1.5,0.25));
#973=CARTESIAN_POINT('Origin',(5.56,-1.5,0.5));
#974=CARTESIAN_POINT('',(5.81,-1.5,5.45));
#975=CARTESIAN_POINT('',(2.78,-1.5,5.45));
#976=CARTESIAN_POINT('',(5.81,-1.5,0.5));
#977=CARTESIAN_POINT('',(5.81,-1.5,0.25));
#978=CARTESIAN_POINT('',(5.56,-1.5,0.5));
#979=CARTESIAN_POINT('Origin',(5.685,0.,0.5));
#980=CARTESIAN_POINT('',(5.81,-1.0075,0.5));
#981=CARTESIAN_POINT('Origin',(-0.249999999999971,2.015,0.5));
#982=CARTESIAN_POINT('',(-0.24999999999997,1.765,5.45));
#983=CARTESIAN_POINT('',(-0.249999999999971,2.015,5.45));
#984=CARTESIAN_POINT('',(-0.24999999999997,1.0075,5.45));
#985=CARTESIAN_POINT('',(-0.24999999999997,1.765,0.5));
#986=CARTESIAN_POINT('',(-0.24999999999997,1.765,0.5));
#987=CARTESIAN_POINT('',(-0.249999999999971,2.015,0.5));
#988=CARTESIAN_POINT('',(-0.249999999999971,2.015,0.5));
#989=CARTESIAN_POINT('',(-0.24999999999997,2.015,0.25));
#990=CARTESIAN_POINT('Origin',(0.24999999999997,1.765,0.5));
#991=CARTESIAN_POINT('',(0.250000000000071,2.015,5.45));
#992=CARTESIAN_POINT('',(0.24999999999997,1.765,5.45));
#993=CARTESIAN_POINT('',(0.249999999999614,0.88249999999995,5.45));
#994=CARTESIAN_POINT('',(0.250000000000071,2.015,0.5));
#995=CARTESIAN_POINT('',(0.250000000000071,2.015,0.25));
#996=CARTESIAN_POINT('',(0.24999999999997,1.765,0.5));
#997=CARTESIAN_POINT('',(0.24999999999997,1.765,0.5));
#998=CARTESIAN_POINT('',(0.24999999999997,1.765,0.5));
#999=CARTESIAN_POINT('Origin',(-0.24999999999997,1.765,0.5));
#1000=CARTESIAN_POINT('',(-0.124999999999985,1.765,5.45));
#1001=CARTESIAN_POINT('',(-0.24999999999997,1.765,0.5));
#1002=CARTESIAN_POINT('Origin',(5.03416752728469E-14,1.89,0.5));
#1003=CARTESIAN_POINT('',(2.90500000000002,2.015,0.5));
#1004=CARTESIAN_POINT('Origin',(-5.56,-1.5,0.5));
#1005=CARTESIAN_POINT('',(-5.56,1.5,5.45));
#1006=CARTESIAN_POINT('',(-5.56,-1.5,5.45));
#1007=CARTESIAN_POINT('',(-5.56,-0.750000000000001,5.45));
#1008=CARTESIAN_POINT('',(-5.56,1.5,0.5));
#1009=CARTESIAN_POINT('',(-5.56,1.5,0.5));
#1010=CARTESIAN_POINT('',(-5.56,-1.5,0.5));
#1011=CARTESIAN_POINT('',(-5.56,1.5,0.5));
#1012=CARTESIAN_POINT('',(-5.56,-1.5,0.5));
#1013=CARTESIAN_POINT('Origin',(-5.81,-1.5,0.5));
#1014=CARTESIAN_POINT('',(-5.81,-1.5,5.45));
#1015=CARTESIAN_POINT('',(-2.905,-1.5,5.45));
#1016=CARTESIAN_POINT('',(-5.81,-1.5,0.5));
#1017=CARTESIAN_POINT('',(-5.56,-1.5,0.5));
#1018=CARTESIAN_POINT('',(-5.81,-1.5,0.25));
#1019=CARTESIAN_POINT('Origin',(-5.56,1.5,0.5));
#1020=CARTESIAN_POINT('',(-5.81,1.5,5.45));
#1021=CARTESIAN_POINT('',(-2.78,1.5,5.45));
#1022=CARTESIAN_POINT('',(-5.81,1.5,0.5));
#1023=CARTESIAN_POINT('',(-5.81,1.5,0.25));
#1024=CARTESIAN_POINT('',(-5.81,1.5,0.5));
#1025=CARTESIAN_POINT('Origin',(-5.685,-2.22044604925031E-15,0.5));
#1026=CARTESIAN_POINT('',(-5.81,1.0075,0.5));
#1027=CARTESIAN_POINT('Origin',(0.249999999999971,-1.765,0.5));
#1028=CARTESIAN_POINT('',(-0.24999999999997,-1.765,5.45));
#1029=CARTESIAN_POINT('',(0.249999999999971,-1.765,5.45));
#1030=CARTESIAN_POINT('',(0.124999999999985,-1.765,5.45));
#1031=CARTESIAN_POINT('',(-0.24999999999997,-1.765,0.5));
#1032=CARTESIAN_POINT('',(-0.24999999999997,-1.765,0.5));
#1033=CARTESIAN_POINT('',(0.249999999999971,-1.765,0.5));
#1034=CARTESIAN_POINT('',(-0.24999999999997,-1.765,0.5));
#1035=CARTESIAN_POINT('',(0.249999999999971,-1.765,0.5));
#1036=CARTESIAN_POINT('Origin',(0.249999999999971,-2.015,0.5));
#1037=CARTESIAN_POINT('',(0.24999999999997,-2.015,5.45));
#1038=CARTESIAN_POINT('',(0.249999999999971,-1.0075,5.45));
#1039=CARTESIAN_POINT('',(0.249999999999971,-2.015,0.5));
#1040=CARTESIAN_POINT('',(0.249999999999971,-1.765,0.5));
#1041=CARTESIAN_POINT('',(0.24999999999997,-2.015,0.25));
#1042=CARTESIAN_POINT('Origin',(-0.24999999999997,-1.765,0.5));
#1043=CARTESIAN_POINT('',(-0.24999999999997,-2.015,5.45));
#1044=CARTESIAN_POINT('',(-0.24999999999997,-0.8825,5.45));
#1045=CARTESIAN_POINT('',(-0.24999999999997,-2.015,0.5));
#1046=CARTESIAN_POINT('',(-0.24999999999997,-2.015,0.25));
#1047=CARTESIAN_POINT('',(-0.24999999999997,-2.015,0.5));
#1048=CARTESIAN_POINT('Origin',(1.38777878078145E-16,-1.89,0.5));
#1049=CARTESIAN_POINT('',(-2.905,-2.015,0.5));
#1050=CARTESIAN_POINT('Origin',(0.,0.,5.45));
#1051=CARTESIAN_POINT('',(5.81,2.015,5.45));
#1052=CARTESIAN_POINT('',(5.81,2.015,5.45));
#1053=CARTESIAN_POINT('',(-5.81,2.015,5.45));
#1054=CARTESIAN_POINT('',(-5.81,2.015,5.45));
#1055=CARTESIAN_POINT('',(-5.81,2.015,5.45));
#1056=CARTESIAN_POINT('',(-5.81,-2.015,5.45));
#1057=CARTESIAN_POINT('',(-5.81,-2.015,5.45));
#1058=CARTESIAN_POINT('',(-5.81,-2.015,5.45));
#1059=CARTESIAN_POINT('',(5.81,-2.015,5.45));
#1060=CARTESIAN_POINT('',(5.81,-2.015,5.45));
#1061=CARTESIAN_POINT('',(5.81,-2.015,5.45));
#1062=CARTESIAN_POINT('',(5.81,2.015,5.45));
#1063=CARTESIAN_POINT('',(2.385,1.305,5.45));
#1064=CARTESIAN_POINT('',(2.385,-1.305,5.45));
#1065=CARTESIAN_POINT('',(2.385,0.6525,5.45));
#1066=CARTESIAN_POINT('',(-2.385,-1.305,5.45));
#1067=CARTESIAN_POINT('',(1.1925,-1.305,5.45));
#1068=CARTESIAN_POINT('',(-2.385,1.305,5.45));
#1069=CARTESIAN_POINT('',(-2.385,-0.6525,5.45));
#1070=CARTESIAN_POINT('',(-1.1925,1.305,5.45));
#1071=CARTESIAN_POINT('Origin',(-2.285,1.205,4.45));
#1072=CARTESIAN_POINT('',(-2.285,-1.205,4.45));
#1073=CARTESIAN_POINT('',(-2.285,1.205,4.45));
#1074=CARTESIAN_POINT('',(-2.285,0.6025,4.45));
#1075=CARTESIAN_POINT('',(-2.285,-1.205,7.45));
#1076=CARTESIAN_POINT('',(-2.285,-1.205,4.45));
#1077=CARTESIAN_POINT('',(-2.285,1.205,7.45));
#1078=CARTESIAN_POINT('',(-2.285,-1.205,7.45));
#1079=CARTESIAN_POINT('',(-2.285,1.205,4.45));
#1080=CARTESIAN_POINT('Origin',(-0.1,1.205,4.45));
#1081=CARTESIAN_POINT('',(-0.1,1.205,4.45));
#1082=CARTESIAN_POINT('',(-0.05,1.205,4.45));
#1083=CARTESIAN_POINT('',(-0.1,1.205,7.45));
#1084=CARTESIAN_POINT('',(-2.285,1.205,7.45));
#1085=CARTESIAN_POINT('',(-0.1,1.205,4.45));
#1086=CARTESIAN_POINT('Origin',(-0.1,-1.205,4.45));
#1087=CARTESIAN_POINT('',(-0.1,-1.205,4.45));
#1088=CARTESIAN_POINT('',(-0.1,-0.6025,4.45));
#1089=CARTESIAN_POINT('',(-0.1,-1.205,7.45));
#1090=CARTESIAN_POINT('',(-0.1,1.205,7.45));
#1091=CARTESIAN_POINT('',(-0.1,-1.205,4.45));
#1092=CARTESIAN_POINT('Origin',(-2.285,-1.205,4.45));
#1093=CARTESIAN_POINT('',(-1.1425,-1.205,4.45));
#1094=CARTESIAN_POINT('',(-0.1,-1.205,7.45));
#1095=CARTESIAN_POINT('Origin',(-1.1925,0.,7.45));
#1096=CARTESIAN_POINT('Origin',(2.385,1.305,5.45));
#1097=CARTESIAN_POINT('',(2.385,1.305,4.45));
#1098=CARTESIAN_POINT('',(2.385,1.305,5.45));
#1099=CARTESIAN_POINT('',(2.385,-1.305,4.45));
#1100=CARTESIAN_POINT('',(2.385,1.305,4.45));
#1101=CARTESIAN_POINT('',(2.385,-1.305,5.45));
#1102=CARTESIAN_POINT('Origin',(-2.385,1.305,5.45));
#1103=CARTESIAN_POINT('',(-2.385,1.305,4.45));
#1104=CARTESIAN_POINT('',(-2.385,1.305,5.45));
#1105=CARTESIAN_POINT('',(-2.385,1.305,4.45));
#1106=CARTESIAN_POINT('Origin',(-2.385,-1.305,5.45));
#1107=CARTESIAN_POINT('',(-2.385,-1.305,4.45));
#1108=CARTESIAN_POINT('',(-2.385,-1.305,5.45));
#1109=CARTESIAN_POINT('',(-2.385,-1.305,4.45));
#1110=CARTESIAN_POINT('Origin',(2.385,-1.305,5.45));
#1111=CARTESIAN_POINT('',(2.385,-1.305,4.45));
#1112=CARTESIAN_POINT('Origin',(0.,0.,4.45));
#1113=CARTESIAN_POINT('Origin',(-5.81,2.015,0.));
#1114=CARTESIAN_POINT('',(-5.81,2.015,0.));
#1115=CARTESIAN_POINT('',(-5.81,2.015,0.));
#1116=CARTESIAN_POINT('',(-5.81,-2.015,0.));
#1117=CARTESIAN_POINT('',(-5.81,-2.015,0.));
#1118=CARTESIAN_POINT('',(-5.81,-2.015,0.));
#1119=CARTESIAN_POINT('Origin',(5.81,2.015,0.));
#1120=CARTESIAN_POINT('',(5.81,2.015,0.));
#1121=CARTESIAN_POINT('',(5.81,2.015,0.));
#1122=CARTESIAN_POINT('',(-5.81,2.015,0.));
#1123=CARTESIAN_POINT('Origin',(5.81,-2.015,0.));
#1124=CARTESIAN_POINT('',(5.81,-2.015,0.));
#1125=CARTESIAN_POINT('',(5.81,-2.015,0.));
#1126=CARTESIAN_POINT('',(5.81,2.015,0.));
#1127=CARTESIAN_POINT('Origin',(-5.81,-2.015,0.));
#1128=CARTESIAN_POINT('',(5.81,-2.015,0.));
#1129=CARTESIAN_POINT('Origin',(0.,0.,0.));
#1130=CARTESIAN_POINT('Origin',(-2.54,0.,0.));
#1131=CARTESIAN_POINT('',(-2.875,-4.10256677714363E-17,-5.45));
#1132=CARTESIAN_POINT('Origin',(-2.54,0.,-5.45));
#1133=CARTESIAN_POINT('',(-2.875,-4.10256677714363E-17,0.));
#1134=CARTESIAN_POINT('',(-2.875,4.10256677714363E-17,0.));
#1135=CARTESIAN_POINT('Origin',(-2.54,0.,0.));
#1136=CARTESIAN_POINT('Origin',(-2.54,0.,0.));
#1137=CARTESIAN_POINT('Origin',(-2.54,0.,-5.45));
#1138=CARTESIAN_POINT('Origin',(0.,0.,0.));
#1139=CARTESIAN_POINT('',(-0.335,-4.10256677714363E-17,-5.45));
#1140=CARTESIAN_POINT('Origin',(0.,0.,-5.45));
#1141=CARTESIAN_POINT('',(-0.335,-4.10256677714363E-17,0.));
#1142=CARTESIAN_POINT('',(-0.335,4.10256677714363E-17,0.));
#1143=CARTESIAN_POINT('Origin',(0.,0.,0.));
#1144=CARTESIAN_POINT('Origin',(0.,0.,0.));
#1145=CARTESIAN_POINT('Origin',(0.,0.,-5.45));
#1146=CARTESIAN_POINT('Origin',(2.54,0.,0.));
#1147=CARTESIAN_POINT('',(2.205,-4.10256677714363E-17,-5.45));
#1148=CARTESIAN_POINT('Origin',(2.54,0.,-5.45));
#1149=CARTESIAN_POINT('',(2.205,-4.10256677714363E-17,0.));
#1150=CARTESIAN_POINT('',(2.205,4.10256677714363E-17,0.));
#1151=CARTESIAN_POINT('Origin',(2.54,0.,0.));
#1152=CARTESIAN_POINT('Origin',(2.54,0.,0.));
#1153=CARTESIAN_POINT('Origin',(2.54,0.,-5.45));
#1154=UNCERTAINTY_MEASURE_WITH_UNIT(LENGTH_MEASURE(0.01),#1158,
'DISTANCE_ACCURACY_VALUE',
'Maximum model space distance between geometric entities at asserted c
onnectivities');
#1155=UNCERTAINTY_MEASURE_WITH_UNIT(LENGTH_MEASURE(0.01),#1158,
'DISTANCE_ACCURACY_VALUE',
'Maximum model space distance between geometric entities at asserted c
onnectivities');
#1156=(
GEOMETRIC_REPRESENTATION_CONTEXT(3)
GLOBAL_UNCERTAINTY_ASSIGNED_CONTEXT((#1154))
GLOBAL_UNIT_ASSIGNED_CONTEXT((#1158,#1160,#1161))
REPRESENTATION_CONTEXT('','3D')
);
#1157=(
GEOMETRIC_REPRESENTATION_CONTEXT(3)
GLOBAL_UNCERTAINTY_ASSIGNED_CONTEXT((#1155))
GLOBAL_UNIT_ASSIGNED_CONTEXT((#1158,#1160,#1161))
REPRESENTATION_CONTEXT('','3D')
);
#1158=(
LENGTH_UNIT()
NAMED_UNIT(*)
SI_UNIT(.MILLI.,.METRE.)
);
#1159=(
LENGTH_UNIT()
NAMED_UNIT(*)
SI_UNIT($,.METRE.)
);
#1160=(
NAMED_UNIT(*)
PLANE_ANGLE_UNIT()
SI_UNIT($,.RADIAN.)
);
#1161=(
NAMED_UNIT(*)
SI_UNIT($,.STERADIAN.)
SOLID_ANGLE_UNIT()
);
#1162=SHAPE_DEFINITION_REPRESENTATION(#1163,#1164);
#1163=PRODUCT_DEFINITION_SHAPE('',$,#1166);
#1164=SHAPE_REPRESENTATION('',(#726),#1156);
#1165=PRODUCT_DEFINITION_CONTEXT('part definition',#1170,'design');
#1166=PRODUCT_DEFINITION('switch','switch v1',#1167,#1165);
#1167=PRODUCT_DEFINITION_FORMATION('',$,#1172);
#1168=PRODUCT_RELATED_PRODUCT_CATEGORY('switch v1','switch v1',(#1172));
#1169=APPLICATION_PROTOCOL_DEFINITION('international standard',
'automotive_design',2009,#1170);
#1170=APPLICATION_CONTEXT(
'Core Data for Automotive Mechanical Design Process');
#1171=PRODUCT_CONTEXT('part definition',#1170,'mechanical');
#1172=PRODUCT('switch','switch v1',$,(#1171));
#1173=PRESENTATION_STYLE_ASSIGNMENT((#1176));
#1174=PRESENTATION_STYLE_ASSIGNMENT((#1177));
#1175=PRESENTATION_STYLE_ASSIGNMENT((#1178));
#1176=SURFACE_STYLE_USAGE(.BOTH.,#1179);
#1177=SURFACE_STYLE_USAGE(.BOTH.,#1180);
#1178=SURFACE_STYLE_USAGE(.BOTH.,#1181);
#1179=SURFACE_SIDE_STYLE('',(#1182));
#1180=SURFACE_SIDE_STYLE('',(#1183));
#1181=SURFACE_SIDE_STYLE('',(#1184));
#1182=SURFACE_STYLE_FILL_AREA(#1185);
#1183=SURFACE_STYLE_FILL_AREA(#1186);
#1184=SURFACE_STYLE_FILL_AREA(#1187);
#1185=FILL_AREA_STYLE('Steel - Satin',(#1188));
#1186=FILL_AREA_STYLE(
'EPX 150 - Air Baked (with Carbon M2 M3 L1 3D Printers)',(#1189));
#1187=FILL_AREA_STYLE('Copper - Polished',(#1190));
#1188=FILL_AREA_STYLE_COLOUR('Steel - Satin',#1191);
#1189=FILL_AREA_STYLE_COLOUR(
'EPX 150 - Air Baked (with Carbon M2 M3 L1 3D Printers)',#1192);
#1190=FILL_AREA_STYLE_COLOUR('Copper - Polished',#1193);
#1191=COLOUR_RGB('Steel - Satin',0.627450980392157,0.627450980392157,0.627450980392157);
#1192=COLOUR_RGB(
'EPX 150 - Air Baked (with Carbon M2 M3 L1 3D Printers)',0.247058823529412,
0.247058823529412,0.247058823529412);
#1193=COLOUR_RGB('Copper - Polished',0.929411764705882,0.807843137254902,
0.764705882352941);
ENDSEC;
END-ISO-10303-21;
