%TF.GenerationSoftware,KiCad,Pcbnew,8.0.5*%
%TF.CreationDate,2025-09-24T21:27:07-07:00*%
%TF.ProjectId,receiver,72656365-6976-4657-922e-6b696361645f,rev?*%
%TF.SameCoordinates,Original*%
%TF.FileFunction,Legend,Top*%
%TF.FilePolarity,Positive*%
%FSLAX46Y46*%
G04 Gerber Fmt 4.6, Leading zero omitted, Abs format (unit mm)*
G04 Created by KiCad (PCBNEW 8.0.5) date 2025-09-24 21:27:07*
%MOMM*%
%LPD*%
G01*
G04 APERTURE LIST*
%ADD10C,0.150000*%
%ADD11C,0.120000*%
G04 APERTURE END LIST*
D10*
X134753333Y-58604819D02*
X134420000Y-58128628D01*
X134181905Y-58604819D02*
X134181905Y-57604819D01*
X134181905Y-57604819D02*
X134562857Y-57604819D01*
X134562857Y-57604819D02*
X134658095Y-57652438D01*
X134658095Y-57652438D02*
X134705714Y-57700057D01*
X134705714Y-57700057D02*
X134753333Y-57795295D01*
X134753333Y-57795295D02*
X134753333Y-57938152D01*
X134753333Y-57938152D02*
X134705714Y-58033390D01*
X134705714Y-58033390D02*
X134658095Y-58081009D01*
X134658095Y-58081009D02*
X134562857Y-58128628D01*
X134562857Y-58128628D02*
X134181905Y-58128628D01*
X135610476Y-57604819D02*
X135420000Y-57604819D01*
X135420000Y-57604819D02*
X135324762Y-57652438D01*
X135324762Y-57652438D02*
X135277143Y-57700057D01*
X135277143Y-57700057D02*
X135181905Y-57842914D01*
X135181905Y-57842914D02*
X135134286Y-58033390D01*
X135134286Y-58033390D02*
X135134286Y-58414342D01*
X135134286Y-58414342D02*
X135181905Y-58509580D01*
X135181905Y-58509580D02*
X135229524Y-58557200D01*
X135229524Y-58557200D02*
X135324762Y-58604819D01*
X135324762Y-58604819D02*
X135515238Y-58604819D01*
X135515238Y-58604819D02*
X135610476Y-58557200D01*
X135610476Y-58557200D02*
X135658095Y-58509580D01*
X135658095Y-58509580D02*
X135705714Y-58414342D01*
X135705714Y-58414342D02*
X135705714Y-58176247D01*
X135705714Y-58176247D02*
X135658095Y-58081009D01*
X135658095Y-58081009D02*
X135610476Y-58033390D01*
X135610476Y-58033390D02*
X135515238Y-57985771D01*
X135515238Y-57985771D02*
X135324762Y-57985771D01*
X135324762Y-57985771D02*
X135229524Y-58033390D01*
X135229524Y-58033390D02*
X135181905Y-58081009D01*
X135181905Y-58081009D02*
X135134286Y-58176247D01*
X142883333Y-60369580D02*
X142835714Y-60417200D01*
X142835714Y-60417200D02*
X142692857Y-60464819D01*
X142692857Y-60464819D02*
X142597619Y-60464819D01*
X142597619Y-60464819D02*
X142454762Y-60417200D01*
X142454762Y-60417200D02*
X142359524Y-60321961D01*
X142359524Y-60321961D02*
X142311905Y-60226723D01*
X142311905Y-60226723D02*
X142264286Y-60036247D01*
X142264286Y-60036247D02*
X142264286Y-59893390D01*
X142264286Y-59893390D02*
X142311905Y-59702914D01*
X142311905Y-59702914D02*
X142359524Y-59607676D01*
X142359524Y-59607676D02*
X142454762Y-59512438D01*
X142454762Y-59512438D02*
X142597619Y-59464819D01*
X142597619Y-59464819D02*
X142692857Y-59464819D01*
X142692857Y-59464819D02*
X142835714Y-59512438D01*
X142835714Y-59512438D02*
X142883333Y-59560057D01*
X143216667Y-59464819D02*
X143835714Y-59464819D01*
X143835714Y-59464819D02*
X143502381Y-59845771D01*
X143502381Y-59845771D02*
X143645238Y-59845771D01*
X143645238Y-59845771D02*
X143740476Y-59893390D01*
X143740476Y-59893390D02*
X143788095Y-59941009D01*
X143788095Y-59941009D02*
X143835714Y-60036247D01*
X143835714Y-60036247D02*
X143835714Y-60274342D01*
X143835714Y-60274342D02*
X143788095Y-60369580D01*
X143788095Y-60369580D02*
X143740476Y-60417200D01*
X143740476Y-60417200D02*
X143645238Y-60464819D01*
X143645238Y-60464819D02*
X143359524Y-60464819D01*
X143359524Y-60464819D02*
X143264286Y-60417200D01*
X143264286Y-60417200D02*
X143216667Y-60369580D01*
X143328095Y-66514819D02*
X143328095Y-67324342D01*
X143328095Y-67324342D02*
X143375714Y-67419580D01*
X143375714Y-67419580D02*
X143423333Y-67467200D01*
X143423333Y-67467200D02*
X143518571Y-67514819D01*
X143518571Y-67514819D02*
X143709047Y-67514819D01*
X143709047Y-67514819D02*
X143804285Y-67467200D01*
X143804285Y-67467200D02*
X143851904Y-67419580D01*
X143851904Y-67419580D02*
X143899523Y-67324342D01*
X143899523Y-67324342D02*
X143899523Y-66514819D01*
X144280476Y-66514819D02*
X144899523Y-66514819D01*
X144899523Y-66514819D02*
X144566190Y-66895771D01*
X144566190Y-66895771D02*
X144709047Y-66895771D01*
X144709047Y-66895771D02*
X144804285Y-66943390D01*
X144804285Y-66943390D02*
X144851904Y-66991009D01*
X144851904Y-66991009D02*
X144899523Y-67086247D01*
X144899523Y-67086247D02*
X144899523Y-67324342D01*
X144899523Y-67324342D02*
X144851904Y-67419580D01*
X144851904Y-67419580D02*
X144804285Y-67467200D01*
X144804285Y-67467200D02*
X144709047Y-67514819D01*
X144709047Y-67514819D02*
X144423333Y-67514819D01*
X144423333Y-67514819D02*
X144328095Y-67467200D01*
X144328095Y-67467200D02*
X144280476Y-67419580D01*
X141258095Y-91534819D02*
X141258095Y-92344342D01*
X141258095Y-92344342D02*
X141305714Y-92439580D01*
X141305714Y-92439580D02*
X141353333Y-92487200D01*
X141353333Y-92487200D02*
X141448571Y-92534819D01*
X141448571Y-92534819D02*
X141639047Y-92534819D01*
X141639047Y-92534819D02*
X141734285Y-92487200D01*
X141734285Y-92487200D02*
X141781904Y-92439580D01*
X141781904Y-92439580D02*
X141829523Y-92344342D01*
X141829523Y-92344342D02*
X141829523Y-91534819D01*
X142258095Y-91630057D02*
X142305714Y-91582438D01*
X142305714Y-91582438D02*
X142400952Y-91534819D01*
X142400952Y-91534819D02*
X142639047Y-91534819D01*
X142639047Y-91534819D02*
X142734285Y-91582438D01*
X142734285Y-91582438D02*
X142781904Y-91630057D01*
X142781904Y-91630057D02*
X142829523Y-91725295D01*
X142829523Y-91725295D02*
X142829523Y-91820533D01*
X142829523Y-91820533D02*
X142781904Y-91963390D01*
X142781904Y-91963390D02*
X142210476Y-92534819D01*
X142210476Y-92534819D02*
X142829523Y-92534819D01*
X130328333Y-84954580D02*
X130280714Y-85002200D01*
X130280714Y-85002200D02*
X130137857Y-85049819D01*
X130137857Y-85049819D02*
X130042619Y-85049819D01*
X130042619Y-85049819D02*
X129899762Y-85002200D01*
X129899762Y-85002200D02*
X129804524Y-84906961D01*
X129804524Y-84906961D02*
X129756905Y-84811723D01*
X129756905Y-84811723D02*
X129709286Y-84621247D01*
X129709286Y-84621247D02*
X129709286Y-84478390D01*
X129709286Y-84478390D02*
X129756905Y-84287914D01*
X129756905Y-84287914D02*
X129804524Y-84192676D01*
X129804524Y-84192676D02*
X129899762Y-84097438D01*
X129899762Y-84097438D02*
X130042619Y-84049819D01*
X130042619Y-84049819D02*
X130137857Y-84049819D01*
X130137857Y-84049819D02*
X130280714Y-84097438D01*
X130280714Y-84097438D02*
X130328333Y-84145057D01*
X131185476Y-84383152D02*
X131185476Y-85049819D01*
X130947381Y-84002200D02*
X130709286Y-84716485D01*
X130709286Y-84716485D02*
X131328333Y-84716485D01*
X128424819Y-57216666D02*
X127948628Y-57549999D01*
X128424819Y-57788094D02*
X127424819Y-57788094D01*
X127424819Y-57788094D02*
X127424819Y-57407142D01*
X127424819Y-57407142D02*
X127472438Y-57311904D01*
X127472438Y-57311904D02*
X127520057Y-57264285D01*
X127520057Y-57264285D02*
X127615295Y-57216666D01*
X127615295Y-57216666D02*
X127758152Y-57216666D01*
X127758152Y-57216666D02*
X127853390Y-57264285D01*
X127853390Y-57264285D02*
X127901009Y-57311904D01*
X127901009Y-57311904D02*
X127948628Y-57407142D01*
X127948628Y-57407142D02*
X127948628Y-57788094D01*
X127853390Y-56645237D02*
X127805771Y-56740475D01*
X127805771Y-56740475D02*
X127758152Y-56788094D01*
X127758152Y-56788094D02*
X127662914Y-56835713D01*
X127662914Y-56835713D02*
X127615295Y-56835713D01*
X127615295Y-56835713D02*
X127520057Y-56788094D01*
X127520057Y-56788094D02*
X127472438Y-56740475D01*
X127472438Y-56740475D02*
X127424819Y-56645237D01*
X127424819Y-56645237D02*
X127424819Y-56454761D01*
X127424819Y-56454761D02*
X127472438Y-56359523D01*
X127472438Y-56359523D02*
X127520057Y-56311904D01*
X127520057Y-56311904D02*
X127615295Y-56264285D01*
X127615295Y-56264285D02*
X127662914Y-56264285D01*
X127662914Y-56264285D02*
X127758152Y-56311904D01*
X127758152Y-56311904D02*
X127805771Y-56359523D01*
X127805771Y-56359523D02*
X127853390Y-56454761D01*
X127853390Y-56454761D02*
X127853390Y-56645237D01*
X127853390Y-56645237D02*
X127901009Y-56740475D01*
X127901009Y-56740475D02*
X127948628Y-56788094D01*
X127948628Y-56788094D02*
X128043866Y-56835713D01*
X128043866Y-56835713D02*
X128234342Y-56835713D01*
X128234342Y-56835713D02*
X128329580Y-56788094D01*
X128329580Y-56788094D02*
X128377200Y-56740475D01*
X128377200Y-56740475D02*
X128424819Y-56645237D01*
X128424819Y-56645237D02*
X128424819Y-56454761D01*
X128424819Y-56454761D02*
X128377200Y-56359523D01*
X128377200Y-56359523D02*
X128329580Y-56311904D01*
X128329580Y-56311904D02*
X128234342Y-56264285D01*
X128234342Y-56264285D02*
X128043866Y-56264285D01*
X128043866Y-56264285D02*
X127948628Y-56311904D01*
X127948628Y-56311904D02*
X127901009Y-56359523D01*
X127901009Y-56359523D02*
X127853390Y-56454761D01*
X134753333Y-53744819D02*
X134420000Y-53268628D01*
X134181905Y-53744819D02*
X134181905Y-52744819D01*
X134181905Y-52744819D02*
X134562857Y-52744819D01*
X134562857Y-52744819D02*
X134658095Y-52792438D01*
X134658095Y-52792438D02*
X134705714Y-52840057D01*
X134705714Y-52840057D02*
X134753333Y-52935295D01*
X134753333Y-52935295D02*
X134753333Y-53078152D01*
X134753333Y-53078152D02*
X134705714Y-53173390D01*
X134705714Y-53173390D02*
X134658095Y-53221009D01*
X134658095Y-53221009D02*
X134562857Y-53268628D01*
X134562857Y-53268628D02*
X134181905Y-53268628D01*
X135658095Y-52744819D02*
X135181905Y-52744819D01*
X135181905Y-52744819D02*
X135134286Y-53221009D01*
X135134286Y-53221009D02*
X135181905Y-53173390D01*
X135181905Y-53173390D02*
X135277143Y-53125771D01*
X135277143Y-53125771D02*
X135515238Y-53125771D01*
X135515238Y-53125771D02*
X135610476Y-53173390D01*
X135610476Y-53173390D02*
X135658095Y-53221009D01*
X135658095Y-53221009D02*
X135705714Y-53316247D01*
X135705714Y-53316247D02*
X135705714Y-53554342D01*
X135705714Y-53554342D02*
X135658095Y-53649580D01*
X135658095Y-53649580D02*
X135610476Y-53697200D01*
X135610476Y-53697200D02*
X135515238Y-53744819D01*
X135515238Y-53744819D02*
X135277143Y-53744819D01*
X135277143Y-53744819D02*
X135181905Y-53697200D01*
X135181905Y-53697200D02*
X135134286Y-53649580D01*
X129978095Y-95444819D02*
X129978095Y-96254342D01*
X129978095Y-96254342D02*
X130025714Y-96349580D01*
X130025714Y-96349580D02*
X130073333Y-96397200D01*
X130073333Y-96397200D02*
X130168571Y-96444819D01*
X130168571Y-96444819D02*
X130359047Y-96444819D01*
X130359047Y-96444819D02*
X130454285Y-96397200D01*
X130454285Y-96397200D02*
X130501904Y-96349580D01*
X130501904Y-96349580D02*
X130549523Y-96254342D01*
X130549523Y-96254342D02*
X130549523Y-95444819D01*
X131454285Y-95778152D02*
X131454285Y-96444819D01*
X131216190Y-95397200D02*
X130978095Y-96111485D01*
X130978095Y-96111485D02*
X131597142Y-96111485D01*
X134983333Y-64299580D02*
X134935714Y-64347200D01*
X134935714Y-64347200D02*
X134792857Y-64394819D01*
X134792857Y-64394819D02*
X134697619Y-64394819D01*
X134697619Y-64394819D02*
X134554762Y-64347200D01*
X134554762Y-64347200D02*
X134459524Y-64251961D01*
X134459524Y-64251961D02*
X134411905Y-64156723D01*
X134411905Y-64156723D02*
X134364286Y-63966247D01*
X134364286Y-63966247D02*
X134364286Y-63823390D01*
X134364286Y-63823390D02*
X134411905Y-63632914D01*
X134411905Y-63632914D02*
X134459524Y-63537676D01*
X134459524Y-63537676D02*
X134554762Y-63442438D01*
X134554762Y-63442438D02*
X134697619Y-63394819D01*
X134697619Y-63394819D02*
X134792857Y-63394819D01*
X134792857Y-63394819D02*
X134935714Y-63442438D01*
X134935714Y-63442438D02*
X134983333Y-63490057D01*
X135935714Y-64394819D02*
X135364286Y-64394819D01*
X135650000Y-64394819D02*
X135650000Y-63394819D01*
X135650000Y-63394819D02*
X135554762Y-63537676D01*
X135554762Y-63537676D02*
X135459524Y-63632914D01*
X135459524Y-63632914D02*
X135364286Y-63680533D01*
X121884761Y-53015057D02*
X121789523Y-52967438D01*
X121789523Y-52967438D02*
X121694285Y-52872200D01*
X121694285Y-52872200D02*
X121551428Y-52729342D01*
X121551428Y-52729342D02*
X121456190Y-52681723D01*
X121456190Y-52681723D02*
X121360952Y-52681723D01*
X121408571Y-52919819D02*
X121313333Y-52872200D01*
X121313333Y-52872200D02*
X121218095Y-52776961D01*
X121218095Y-52776961D02*
X121170476Y-52586485D01*
X121170476Y-52586485D02*
X121170476Y-52253152D01*
X121170476Y-52253152D02*
X121218095Y-52062676D01*
X121218095Y-52062676D02*
X121313333Y-51967438D01*
X121313333Y-51967438D02*
X121408571Y-51919819D01*
X121408571Y-51919819D02*
X121599047Y-51919819D01*
X121599047Y-51919819D02*
X121694285Y-51967438D01*
X121694285Y-51967438D02*
X121789523Y-52062676D01*
X121789523Y-52062676D02*
X121837142Y-52253152D01*
X121837142Y-52253152D02*
X121837142Y-52586485D01*
X121837142Y-52586485D02*
X121789523Y-52776961D01*
X121789523Y-52776961D02*
X121694285Y-52872200D01*
X121694285Y-52872200D02*
X121599047Y-52919819D01*
X121599047Y-52919819D02*
X121408571Y-52919819D01*
X122789523Y-52919819D02*
X122218095Y-52919819D01*
X122503809Y-52919819D02*
X122503809Y-51919819D01*
X122503809Y-51919819D02*
X122408571Y-52062676D01*
X122408571Y-52062676D02*
X122313333Y-52157914D01*
X122313333Y-52157914D02*
X122218095Y-52205533D01*
X144139761Y-52915057D02*
X144044523Y-52867438D01*
X144044523Y-52867438D02*
X143949285Y-52772200D01*
X143949285Y-52772200D02*
X143806428Y-52629342D01*
X143806428Y-52629342D02*
X143711190Y-52581723D01*
X143711190Y-52581723D02*
X143615952Y-52581723D01*
X143663571Y-52819819D02*
X143568333Y-52772200D01*
X143568333Y-52772200D02*
X143473095Y-52676961D01*
X143473095Y-52676961D02*
X143425476Y-52486485D01*
X143425476Y-52486485D02*
X143425476Y-52153152D01*
X143425476Y-52153152D02*
X143473095Y-51962676D01*
X143473095Y-51962676D02*
X143568333Y-51867438D01*
X143568333Y-51867438D02*
X143663571Y-51819819D01*
X143663571Y-51819819D02*
X143854047Y-51819819D01*
X143854047Y-51819819D02*
X143949285Y-51867438D01*
X143949285Y-51867438D02*
X144044523Y-51962676D01*
X144044523Y-51962676D02*
X144092142Y-52153152D01*
X144092142Y-52153152D02*
X144092142Y-52486485D01*
X144092142Y-52486485D02*
X144044523Y-52676961D01*
X144044523Y-52676961D02*
X143949285Y-52772200D01*
X143949285Y-52772200D02*
X143854047Y-52819819D01*
X143854047Y-52819819D02*
X143663571Y-52819819D01*
X144473095Y-51915057D02*
X144520714Y-51867438D01*
X144520714Y-51867438D02*
X144615952Y-51819819D01*
X144615952Y-51819819D02*
X144854047Y-51819819D01*
X144854047Y-51819819D02*
X144949285Y-51867438D01*
X144949285Y-51867438D02*
X144996904Y-51915057D01*
X144996904Y-51915057D02*
X145044523Y-52010295D01*
X145044523Y-52010295D02*
X145044523Y-52105533D01*
X145044523Y-52105533D02*
X144996904Y-52248390D01*
X144996904Y-52248390D02*
X144425476Y-52819819D01*
X144425476Y-52819819D02*
X145044523Y-52819819D01*
X134753333Y-56164819D02*
X134420000Y-55688628D01*
X134181905Y-56164819D02*
X134181905Y-55164819D01*
X134181905Y-55164819D02*
X134562857Y-55164819D01*
X134562857Y-55164819D02*
X134658095Y-55212438D01*
X134658095Y-55212438D02*
X134705714Y-55260057D01*
X134705714Y-55260057D02*
X134753333Y-55355295D01*
X134753333Y-55355295D02*
X134753333Y-55498152D01*
X134753333Y-55498152D02*
X134705714Y-55593390D01*
X134705714Y-55593390D02*
X134658095Y-55641009D01*
X134658095Y-55641009D02*
X134562857Y-55688628D01*
X134562857Y-55688628D02*
X134181905Y-55688628D01*
X135610476Y-55498152D02*
X135610476Y-56164819D01*
X135372381Y-55117200D02*
X135134286Y-55831485D01*
X135134286Y-55831485D02*
X135753333Y-55831485D01*
X122913333Y-84949580D02*
X122865714Y-84997200D01*
X122865714Y-84997200D02*
X122722857Y-85044819D01*
X122722857Y-85044819D02*
X122627619Y-85044819D01*
X122627619Y-85044819D02*
X122484762Y-84997200D01*
X122484762Y-84997200D02*
X122389524Y-84901961D01*
X122389524Y-84901961D02*
X122341905Y-84806723D01*
X122341905Y-84806723D02*
X122294286Y-84616247D01*
X122294286Y-84616247D02*
X122294286Y-84473390D01*
X122294286Y-84473390D02*
X122341905Y-84282914D01*
X122341905Y-84282914D02*
X122389524Y-84187676D01*
X122389524Y-84187676D02*
X122484762Y-84092438D01*
X122484762Y-84092438D02*
X122627619Y-84044819D01*
X122627619Y-84044819D02*
X122722857Y-84044819D01*
X122722857Y-84044819D02*
X122865714Y-84092438D01*
X122865714Y-84092438D02*
X122913333Y-84140057D01*
X123294286Y-84140057D02*
X123341905Y-84092438D01*
X123341905Y-84092438D02*
X123437143Y-84044819D01*
X123437143Y-84044819D02*
X123675238Y-84044819D01*
X123675238Y-84044819D02*
X123770476Y-84092438D01*
X123770476Y-84092438D02*
X123818095Y-84140057D01*
X123818095Y-84140057D02*
X123865714Y-84235295D01*
X123865714Y-84235295D02*
X123865714Y-84330533D01*
X123865714Y-84330533D02*
X123818095Y-84473390D01*
X123818095Y-84473390D02*
X123246667Y-85044819D01*
X123246667Y-85044819D02*
X123865714Y-85044819D01*
X121981667Y-103897200D02*
X122124524Y-103944819D01*
X122124524Y-103944819D02*
X122362619Y-103944819D01*
X122362619Y-103944819D02*
X122457857Y-103897200D01*
X122457857Y-103897200D02*
X122505476Y-103849580D01*
X122505476Y-103849580D02*
X122553095Y-103754342D01*
X122553095Y-103754342D02*
X122553095Y-103659104D01*
X122553095Y-103659104D02*
X122505476Y-103563866D01*
X122505476Y-103563866D02*
X122457857Y-103516247D01*
X122457857Y-103516247D02*
X122362619Y-103468628D01*
X122362619Y-103468628D02*
X122172143Y-103421009D01*
X122172143Y-103421009D02*
X122076905Y-103373390D01*
X122076905Y-103373390D02*
X122029286Y-103325771D01*
X122029286Y-103325771D02*
X121981667Y-103230533D01*
X121981667Y-103230533D02*
X121981667Y-103135295D01*
X121981667Y-103135295D02*
X122029286Y-103040057D01*
X122029286Y-103040057D02*
X122076905Y-102992438D01*
X122076905Y-102992438D02*
X122172143Y-102944819D01*
X122172143Y-102944819D02*
X122410238Y-102944819D01*
X122410238Y-102944819D02*
X122553095Y-102992438D01*
X122886429Y-102944819D02*
X123124524Y-103944819D01*
X123124524Y-103944819D02*
X123315000Y-103230533D01*
X123315000Y-103230533D02*
X123505476Y-103944819D01*
X123505476Y-103944819D02*
X123743572Y-102944819D01*
X124648333Y-103944819D02*
X124076905Y-103944819D01*
X124362619Y-103944819D02*
X124362619Y-102944819D01*
X124362619Y-102944819D02*
X124267381Y-103087676D01*
X124267381Y-103087676D02*
X124172143Y-103182914D01*
X124172143Y-103182914D02*
X124076905Y-103230533D01*
X121600476Y-77139819D02*
X121600476Y-76139819D01*
X121600476Y-76139819D02*
X121933809Y-76854104D01*
X121933809Y-76854104D02*
X122267142Y-76139819D01*
X122267142Y-76139819D02*
X122267142Y-77139819D01*
X123267142Y-77139819D02*
X122695714Y-77139819D01*
X122981428Y-77139819D02*
X122981428Y-76139819D01*
X122981428Y-76139819D02*
X122886190Y-76282676D01*
X122886190Y-76282676D02*
X122790952Y-76377914D01*
X122790952Y-76377914D02*
X122695714Y-76425533D01*
X131058095Y-73594819D02*
X131058095Y-74404342D01*
X131058095Y-74404342D02*
X131105714Y-74499580D01*
X131105714Y-74499580D02*
X131153333Y-74547200D01*
X131153333Y-74547200D02*
X131248571Y-74594819D01*
X131248571Y-74594819D02*
X131439047Y-74594819D01*
X131439047Y-74594819D02*
X131534285Y-74547200D01*
X131534285Y-74547200D02*
X131581904Y-74499580D01*
X131581904Y-74499580D02*
X131629523Y-74404342D01*
X131629523Y-74404342D02*
X131629523Y-73594819D01*
X132629523Y-74594819D02*
X132058095Y-74594819D01*
X132343809Y-74594819D02*
X132343809Y-73594819D01*
X132343809Y-73594819D02*
X132248571Y-73737676D01*
X132248571Y-73737676D02*
X132153333Y-73832914D01*
X132153333Y-73832914D02*
X132058095Y-73880533D01*
D11*
%TO.C,R6*%
X132050000Y-58150000D02*
X133000000Y-58150000D01*
X133000000Y-57230000D02*
X133000000Y-59070000D01*
X133000000Y-59070000D02*
X136840000Y-59070000D01*
X136840000Y-57230000D02*
X133000000Y-57230000D01*
X136840000Y-59070000D02*
X136840000Y-57230000D01*
X137790000Y-58150000D02*
X136840000Y-58150000D01*
%TO.C,C3*%
X137524113Y-62434000D02*
X137524113Y-61866000D01*
X137564113Y-62668000D02*
X137564113Y-61632000D01*
X137604113Y-62827000D02*
X137604113Y-61473000D01*
X137644113Y-62955000D02*
X137644113Y-61345000D01*
X137684113Y-63065000D02*
X137684113Y-61235000D01*
X137724113Y-63161000D02*
X137724113Y-61139000D01*
X137764113Y-63248000D02*
X137764113Y-61052000D01*
X137804113Y-63328000D02*
X137804113Y-60972000D01*
X137844113Y-61110000D02*
X137844113Y-60899000D01*
X137844113Y-63401000D02*
X137844113Y-63190000D01*
X137884113Y-61110000D02*
X137884113Y-60831000D01*
X137884113Y-63469000D02*
X137884113Y-63190000D01*
X137924113Y-61110000D02*
X137924113Y-60767000D01*
X137924113Y-63533000D02*
X137924113Y-63190000D01*
X137964113Y-61110000D02*
X137964113Y-60707000D01*
X137964113Y-63593000D02*
X137964113Y-63190000D01*
X138004113Y-61110000D02*
X138004113Y-60650000D01*
X138004113Y-63650000D02*
X138004113Y-63190000D01*
X138044113Y-61110000D02*
X138044113Y-60596000D01*
X138044113Y-63704000D02*
X138044113Y-63190000D01*
X138084113Y-61110000D02*
X138084113Y-60545000D01*
X138084113Y-63755000D02*
X138084113Y-63190000D01*
X138124113Y-61110000D02*
X138124113Y-60497000D01*
X138124113Y-63803000D02*
X138124113Y-63190000D01*
X138164113Y-61110000D02*
X138164113Y-60451000D01*
X138164113Y-63849000D02*
X138164113Y-63190000D01*
X138204113Y-61110000D02*
X138204113Y-60407000D01*
X138204113Y-63893000D02*
X138204113Y-63190000D01*
X138244113Y-61110000D02*
X138244113Y-60365000D01*
X138244113Y-63935000D02*
X138244113Y-63190000D01*
X138284113Y-61110000D02*
X138284113Y-60324000D01*
X138284113Y-63976000D02*
X138284113Y-63190000D01*
X138324113Y-61110000D02*
X138324113Y-60286000D01*
X138324113Y-64014000D02*
X138324113Y-63190000D01*
X138364113Y-61110000D02*
X138364113Y-60249000D01*
X138364113Y-64051000D02*
X138364113Y-63190000D01*
X138404113Y-61110000D02*
X138404113Y-60213000D01*
X138404113Y-64087000D02*
X138404113Y-63190000D01*
X138444113Y-61110000D02*
X138444113Y-60179000D01*
X138444113Y-64121000D02*
X138444113Y-63190000D01*
X138484113Y-61110000D02*
X138484113Y-60146000D01*
X138484113Y-64154000D02*
X138484113Y-63190000D01*
X138524113Y-61110000D02*
X138524113Y-60115000D01*
X138524113Y-64185000D02*
X138524113Y-63190000D01*
X138564113Y-61110000D02*
X138564113Y-60085000D01*
X138564113Y-64215000D02*
X138564113Y-63190000D01*
X138604113Y-61110000D02*
X138604113Y-60055000D01*
X138604113Y-64245000D02*
X138604113Y-63190000D01*
X138644113Y-61110000D02*
X138644113Y-60028000D01*
X138644113Y-64272000D02*
X138644113Y-63190000D01*
X138684113Y-61110000D02*
X138684113Y-60001000D01*
X138684113Y-64299000D02*
X138684113Y-63190000D01*
X138724113Y-61110000D02*
X138724113Y-59975000D01*
X138724113Y-64325000D02*
X138724113Y-63190000D01*
X138764113Y-61110000D02*
X138764113Y-59950000D01*
X138764113Y-64350000D02*
X138764113Y-63190000D01*
X138804113Y-61110000D02*
X138804113Y-59926000D01*
X138804113Y-64374000D02*
X138804113Y-63190000D01*
X138844113Y-61110000D02*
X138844113Y-59903000D01*
X138844113Y-64397000D02*
X138844113Y-63190000D01*
X138884113Y-61110000D02*
X138884113Y-59882000D01*
X138884113Y-64418000D02*
X138884113Y-63190000D01*
X138924113Y-61110000D02*
X138924113Y-59860000D01*
X138924113Y-64440000D02*
X138924113Y-63190000D01*
X138964113Y-61110000D02*
X138964113Y-59840000D01*
X138964113Y-64460000D02*
X138964113Y-63190000D01*
X139004113Y-61110000D02*
X139004113Y-59821000D01*
X139004113Y-64479000D02*
X139004113Y-63190000D01*
X139044113Y-61110000D02*
X139044113Y-59802000D01*
X139044113Y-64498000D02*
X139044113Y-63190000D01*
X139084113Y-61110000D02*
X139084113Y-59785000D01*
X139084113Y-64515000D02*
X139084113Y-63190000D01*
X139124113Y-61110000D02*
X139124113Y-59768000D01*
X139124113Y-64532000D02*
X139124113Y-63190000D01*
X139164113Y-61110000D02*
X139164113Y-59752000D01*
X139164113Y-64548000D02*
X139164113Y-63190000D01*
X139204113Y-61110000D02*
X139204113Y-59736000D01*
X139204113Y-64564000D02*
X139204113Y-63190000D01*
X139244113Y-61110000D02*
X139244113Y-59722000D01*
X139244113Y-64578000D02*
X139244113Y-63190000D01*
X139284113Y-61110000D02*
X139284113Y-59708000D01*
X139284113Y-64592000D02*
X139284113Y-63190000D01*
X139324113Y-61110000D02*
X139324113Y-59695000D01*
X139324113Y-64605000D02*
X139324113Y-63190000D01*
X139364113Y-61110000D02*
X139364113Y-59682000D01*
X139364113Y-64618000D02*
X139364113Y-63190000D01*
X139404113Y-61110000D02*
X139404113Y-59670000D01*
X139404113Y-64630000D02*
X139404113Y-63190000D01*
X139445113Y-61110000D02*
X139445113Y-59659000D01*
X139445113Y-64641000D02*
X139445113Y-63190000D01*
X139485113Y-61110000D02*
X139485113Y-59649000D01*
X139485113Y-64651000D02*
X139485113Y-63190000D01*
X139525113Y-61110000D02*
X139525113Y-59639000D01*
X139525113Y-64661000D02*
X139525113Y-63190000D01*
X139565113Y-61110000D02*
X139565113Y-59630000D01*
X139565113Y-64670000D02*
X139565113Y-63190000D01*
X139605113Y-61110000D02*
X139605113Y-59622000D01*
X139605113Y-64678000D02*
X139605113Y-63190000D01*
X139645113Y-61110000D02*
X139645113Y-59614000D01*
X139645113Y-64686000D02*
X139645113Y-63190000D01*
X139685113Y-61110000D02*
X139685113Y-59607000D01*
X139685113Y-64693000D02*
X139685113Y-63190000D01*
X139725113Y-61110000D02*
X139725113Y-59600000D01*
X139725113Y-64700000D02*
X139725113Y-63190000D01*
X139765113Y-61110000D02*
X139765113Y-59594000D01*
X139765113Y-64706000D02*
X139765113Y-63190000D01*
X139805113Y-61110000D02*
X139805113Y-59589000D01*
X139805113Y-64711000D02*
X139805113Y-63190000D01*
X139845113Y-61110000D02*
X139845113Y-59585000D01*
X139845113Y-64715000D02*
X139845113Y-63190000D01*
X139885113Y-61110000D02*
X139885113Y-59581000D01*
X139885113Y-64719000D02*
X139885113Y-63190000D01*
X139925113Y-64723000D02*
X139925113Y-59577000D01*
X139965113Y-64726000D02*
X139965113Y-59574000D01*
X140005113Y-64728000D02*
X140005113Y-59572000D01*
X140045113Y-64729000D02*
X140045113Y-59571000D01*
X140085113Y-64730000D02*
X140085113Y-59570000D01*
X140125113Y-64730000D02*
X140125113Y-59570000D01*
X142679888Y-63875000D02*
X142679888Y-63375000D01*
X142929888Y-63625000D02*
X142429888Y-63625000D01*
X142745113Y-62150000D02*
G75*
G02*
X137505113Y-62150000I-2620000J0D01*
G01*
X137505113Y-62150000D02*
G75*
G02*
X142745113Y-62150000I2620000J0D01*
G01*
%TO.C,U3*%
X137280000Y-65090000D02*
X137280000Y-65090000D01*
X137280000Y-65090000D02*
X166480000Y-65090000D01*
X137280000Y-80540000D02*
X137280000Y-65090000D01*
X137610000Y-65666000D02*
X137610000Y-65666000D01*
X137610000Y-65666000D02*
X142944000Y-65666000D01*
X137610000Y-76334000D02*
X137610000Y-65666000D01*
X137610000Y-76334000D02*
X137610000Y-76334000D01*
X142944000Y-65666000D02*
X142944000Y-76334000D01*
X142944000Y-76334000D02*
X137610000Y-76334000D01*
X166480000Y-65090000D02*
X166480000Y-80540000D01*
X166480000Y-80540000D02*
X137280000Y-80540000D01*
X137080000Y-67190000D02*
X136744000Y-67430000D01*
X136744000Y-66950000D01*
X137080000Y-67190000D01*
G36*
X137080000Y-67190000D02*
G01*
X136744000Y-67430000D01*
X136744000Y-66950000D01*
X137080000Y-67190000D01*
G37*
%TO.C,U2*%
X137150000Y-80850000D02*
X137150000Y-96740000D01*
X137150000Y-80850000D02*
X147390000Y-80850000D01*
X137150000Y-96740000D02*
X147390000Y-96740000D01*
X139730000Y-96740000D02*
X139730000Y-99280000D01*
X142270000Y-96740000D02*
X142270000Y-99280000D01*
X144810000Y-96740000D02*
X144810000Y-99280000D01*
X147390000Y-80850000D02*
X147390000Y-96740000D01*
%TO.C,C4*%
X130719000Y-87354000D02*
X130719000Y-86786000D01*
X130759000Y-87588000D02*
X130759000Y-86552000D01*
X130799000Y-87747000D02*
X130799000Y-86393000D01*
X130839000Y-87875000D02*
X130839000Y-86265000D01*
X130879000Y-87985000D02*
X130879000Y-86155000D01*
X130919000Y-88081000D02*
X130919000Y-86059000D01*
X130959000Y-88168000D02*
X130959000Y-85972000D01*
X130999000Y-88248000D02*
X130999000Y-85892000D01*
X131039000Y-86030000D02*
X131039000Y-85819000D01*
X131039000Y-88321000D02*
X131039000Y-88110000D01*
X131079000Y-86030000D02*
X131079000Y-85751000D01*
X131079000Y-88389000D02*
X131079000Y-88110000D01*
X131119000Y-86030000D02*
X131119000Y-85687000D01*
X131119000Y-88453000D02*
X131119000Y-88110000D01*
X131159000Y-86030000D02*
X131159000Y-85627000D01*
X131159000Y-88513000D02*
X131159000Y-88110000D01*
X131199000Y-86030000D02*
X131199000Y-85570000D01*
X131199000Y-88570000D02*
X131199000Y-88110000D01*
X131239000Y-86030000D02*
X131239000Y-85516000D01*
X131239000Y-88624000D02*
X131239000Y-88110000D01*
X131279000Y-86030000D02*
X131279000Y-85465000D01*
X131279000Y-88675000D02*
X131279000Y-88110000D01*
X131319000Y-86030000D02*
X131319000Y-85417000D01*
X131319000Y-88723000D02*
X131319000Y-88110000D01*
X131359000Y-86030000D02*
X131359000Y-85371000D01*
X131359000Y-88769000D02*
X131359000Y-88110000D01*
X131399000Y-86030000D02*
X131399000Y-85327000D01*
X131399000Y-88813000D02*
X131399000Y-88110000D01*
X131439000Y-86030000D02*
X131439000Y-85285000D01*
X131439000Y-88855000D02*
X131439000Y-88110000D01*
X131479000Y-86030000D02*
X131479000Y-85244000D01*
X131479000Y-88896000D02*
X131479000Y-88110000D01*
X131519000Y-86030000D02*
X131519000Y-85206000D01*
X131519000Y-88934000D02*
X131519000Y-88110000D01*
X131559000Y-86030000D02*
X131559000Y-85169000D01*
X131559000Y-88971000D02*
X131559000Y-88110000D01*
X131599000Y-86030000D02*
X131599000Y-85133000D01*
X131599000Y-89007000D02*
X131599000Y-88110000D01*
X131639000Y-86030000D02*
X131639000Y-85099000D01*
X131639000Y-89041000D02*
X131639000Y-88110000D01*
X131679000Y-86030000D02*
X131679000Y-85066000D01*
X131679000Y-89074000D02*
X131679000Y-88110000D01*
X131719000Y-86030000D02*
X131719000Y-85035000D01*
X131719000Y-89105000D02*
X131719000Y-88110000D01*
X131759000Y-86030000D02*
X131759000Y-85005000D01*
X131759000Y-89135000D02*
X131759000Y-88110000D01*
X131799000Y-86030000D02*
X131799000Y-84975000D01*
X131799000Y-89165000D02*
X131799000Y-88110000D01*
X131839000Y-86030000D02*
X131839000Y-84948000D01*
X131839000Y-89192000D02*
X131839000Y-88110000D01*
X131879000Y-86030000D02*
X131879000Y-84921000D01*
X131879000Y-89219000D02*
X131879000Y-88110000D01*
X131919000Y-86030000D02*
X131919000Y-84895000D01*
X131919000Y-89245000D02*
X131919000Y-88110000D01*
X131959000Y-86030000D02*
X131959000Y-84870000D01*
X131959000Y-89270000D02*
X131959000Y-88110000D01*
X131999000Y-86030000D02*
X131999000Y-84846000D01*
X131999000Y-89294000D02*
X131999000Y-88110000D01*
X132039000Y-86030000D02*
X132039000Y-84823000D01*
X132039000Y-89317000D02*
X132039000Y-88110000D01*
X132079000Y-86030000D02*
X132079000Y-84802000D01*
X132079000Y-89338000D02*
X132079000Y-88110000D01*
X132119000Y-86030000D02*
X132119000Y-84780000D01*
X132119000Y-89360000D02*
X132119000Y-88110000D01*
X132159000Y-86030000D02*
X132159000Y-84760000D01*
X132159000Y-89380000D02*
X132159000Y-88110000D01*
X132199000Y-86030000D02*
X132199000Y-84741000D01*
X132199000Y-89399000D02*
X132199000Y-88110000D01*
X132239000Y-86030000D02*
X132239000Y-84722000D01*
X132239000Y-89418000D02*
X132239000Y-88110000D01*
X132279000Y-86030000D02*
X132279000Y-84705000D01*
X132279000Y-89435000D02*
X132279000Y-88110000D01*
X132319000Y-86030000D02*
X132319000Y-84688000D01*
X132319000Y-89452000D02*
X132319000Y-88110000D01*
X132359000Y-86030000D02*
X132359000Y-84672000D01*
X132359000Y-89468000D02*
X132359000Y-88110000D01*
X132399000Y-86030000D02*
X132399000Y-84656000D01*
X132399000Y-89484000D02*
X132399000Y-88110000D01*
X132439000Y-86030000D02*
X132439000Y-84642000D01*
X132439000Y-89498000D02*
X132439000Y-88110000D01*
X132479000Y-86030000D02*
X132479000Y-84628000D01*
X132479000Y-89512000D02*
X132479000Y-88110000D01*
X132519000Y-86030000D02*
X132519000Y-84615000D01*
X132519000Y-89525000D02*
X132519000Y-88110000D01*
X132559000Y-86030000D02*
X132559000Y-84602000D01*
X132559000Y-89538000D02*
X132559000Y-88110000D01*
X132599000Y-86030000D02*
X132599000Y-84590000D01*
X132599000Y-89550000D02*
X132599000Y-88110000D01*
X132640000Y-86030000D02*
X132640000Y-84579000D01*
X132640000Y-89561000D02*
X132640000Y-88110000D01*
X132680000Y-86030000D02*
X132680000Y-84569000D01*
X132680000Y-89571000D02*
X132680000Y-88110000D01*
X132720000Y-86030000D02*
X132720000Y-84559000D01*
X132720000Y-89581000D02*
X132720000Y-88110000D01*
X132760000Y-86030000D02*
X132760000Y-84550000D01*
X132760000Y-89590000D02*
X132760000Y-88110000D01*
X132800000Y-86030000D02*
X132800000Y-84542000D01*
X132800000Y-89598000D02*
X132800000Y-88110000D01*
X132840000Y-86030000D02*
X132840000Y-84534000D01*
X132840000Y-89606000D02*
X132840000Y-88110000D01*
X132880000Y-86030000D02*
X132880000Y-84527000D01*
X132880000Y-89613000D02*
X132880000Y-88110000D01*
X132920000Y-86030000D02*
X132920000Y-84520000D01*
X132920000Y-89620000D02*
X132920000Y-88110000D01*
X132960000Y-86030000D02*
X132960000Y-84514000D01*
X132960000Y-89626000D02*
X132960000Y-88110000D01*
X133000000Y-86030000D02*
X133000000Y-84509000D01*
X133000000Y-89631000D02*
X133000000Y-88110000D01*
X133040000Y-86030000D02*
X133040000Y-84505000D01*
X133040000Y-89635000D02*
X133040000Y-88110000D01*
X133080000Y-86030000D02*
X133080000Y-84501000D01*
X133080000Y-89639000D02*
X133080000Y-88110000D01*
X133120000Y-89643000D02*
X133120000Y-84497000D01*
X133160000Y-89646000D02*
X133160000Y-84494000D01*
X133200000Y-89648000D02*
X133200000Y-84492000D01*
X133240000Y-89649000D02*
X133240000Y-84491000D01*
X133280000Y-89650000D02*
X133280000Y-84490000D01*
X133320000Y-89650000D02*
X133320000Y-84490000D01*
X135200000Y-88400000D02*
X135200000Y-87900000D01*
X135450000Y-88150000D02*
X134950000Y-88150000D01*
X135940000Y-87070000D02*
G75*
G02*
X130700000Y-87070000I-2620000J0D01*
G01*
X130700000Y-87070000D02*
G75*
G02*
X135940000Y-87070000I2620000J0D01*
G01*
%TO.C,R8*%
X127050000Y-55130000D02*
X127050000Y-58970000D01*
X127050000Y-58970000D02*
X128890000Y-58970000D01*
X127970000Y-54180000D02*
X127970000Y-55130000D01*
X127970000Y-59920000D02*
X127970000Y-58970000D01*
X128890000Y-55130000D02*
X127050000Y-55130000D01*
X128890000Y-58970000D02*
X128890000Y-55130000D01*
%TO.C,M2*%
X130460000Y-102005000D02*
X130460000Y-104665000D01*
X133060000Y-102005000D02*
X130460000Y-102005000D01*
X133060000Y-102005000D02*
X133060000Y-104665000D01*
X133060000Y-104665000D02*
X130460000Y-104665000D01*
X135660000Y-103335000D02*
X135660000Y-104665000D01*
X135660000Y-104665000D02*
X134330000Y-104665000D01*
%TO.C,R5*%
X132050000Y-53290000D02*
X133000000Y-53290000D01*
X133000000Y-52370000D02*
X133000000Y-54210000D01*
X133000000Y-54210000D02*
X136840000Y-54210000D01*
X136840000Y-52370000D02*
X133000000Y-52370000D01*
X136840000Y-54210000D02*
X136840000Y-52370000D01*
X137790000Y-53290000D02*
X136840000Y-53290000D01*
%TO.C,U4*%
X125530000Y-90850000D02*
X125530000Y-101130000D01*
X125530000Y-101130000D02*
X135930000Y-101130000D01*
X125590000Y-93340000D02*
X125590000Y-98640000D01*
X125590000Y-98640000D02*
X135870000Y-98640000D01*
X135870000Y-93340000D02*
X125590000Y-93340000D01*
X135870000Y-94990000D02*
X135870000Y-93340000D01*
X135870000Y-98640000D02*
X135870000Y-96990000D01*
X135930000Y-90850000D02*
X125530000Y-90850000D01*
X135930000Y-101130000D02*
X135930000Y-90850000D01*
X135870000Y-96990000D02*
G75*
G02*
X135870000Y-94990000I0J1000000D01*
G01*
%TO.C,C1*%
X129750000Y-60930000D02*
X130250000Y-60930000D01*
X130000000Y-60680000D02*
X130000000Y-61180000D01*
X131880000Y-59440000D02*
X131880000Y-64600000D01*
X131920000Y-59440000D02*
X131920000Y-64600000D01*
X131960000Y-59441000D02*
X131960000Y-64599000D01*
X132000000Y-59442000D02*
X132000000Y-64598000D01*
X132040000Y-59444000D02*
X132040000Y-64596000D01*
X132080000Y-59447000D02*
X132080000Y-64593000D01*
X132120000Y-59451000D02*
X132120000Y-60980000D01*
X132120000Y-63060000D02*
X132120000Y-64589000D01*
X132160000Y-59455000D02*
X132160000Y-60980000D01*
X132160000Y-63060000D02*
X132160000Y-64585000D01*
X132200000Y-59459000D02*
X132200000Y-60980000D01*
X132200000Y-63060000D02*
X132200000Y-64581000D01*
X132240000Y-59464000D02*
X132240000Y-60980000D01*
X132240000Y-63060000D02*
X132240000Y-64576000D01*
X132280000Y-59470000D02*
X132280000Y-60980000D01*
X132280000Y-63060000D02*
X132280000Y-64570000D01*
X132320000Y-59477000D02*
X132320000Y-60980000D01*
X132320000Y-63060000D02*
X132320000Y-64563000D01*
X132360000Y-59484000D02*
X132360000Y-60980000D01*
X132360000Y-63060000D02*
X132360000Y-64556000D01*
X132400000Y-59492000D02*
X132400000Y-60980000D01*
X132400000Y-63060000D02*
X132400000Y-64548000D01*
X132440000Y-59500000D02*
X132440000Y-60980000D01*
X132440000Y-63060000D02*
X132440000Y-64540000D01*
X132480000Y-59509000D02*
X132480000Y-60980000D01*
X132480000Y-63060000D02*
X132480000Y-64531000D01*
X132520000Y-59519000D02*
X132520000Y-60980000D01*
X132520000Y-63060000D02*
X132520000Y-64521000D01*
X132560000Y-59529000D02*
X132560000Y-60980000D01*
X132560000Y-63060000D02*
X132560000Y-64511000D01*
X132601000Y-59540000D02*
X132601000Y-60980000D01*
X132601000Y-63060000D02*
X132601000Y-64500000D01*
X132641000Y-59552000D02*
X132641000Y-60980000D01*
X132641000Y-63060000D02*
X132641000Y-64488000D01*
X132681000Y-59565000D02*
X132681000Y-60980000D01*
X132681000Y-63060000D02*
X132681000Y-64475000D01*
X132721000Y-59578000D02*
X132721000Y-60980000D01*
X132721000Y-63060000D02*
X132721000Y-64462000D01*
X132761000Y-59592000D02*
X132761000Y-60980000D01*
X132761000Y-63060000D02*
X132761000Y-64448000D01*
X132801000Y-59606000D02*
X132801000Y-60980000D01*
X132801000Y-63060000D02*
X132801000Y-64434000D01*
X132841000Y-59622000D02*
X132841000Y-60980000D01*
X132841000Y-63060000D02*
X132841000Y-64418000D01*
X132881000Y-59638000D02*
X132881000Y-60980000D01*
X132881000Y-63060000D02*
X132881000Y-64402000D01*
X132921000Y-59655000D02*
X132921000Y-60980000D01*
X132921000Y-63060000D02*
X132921000Y-64385000D01*
X132961000Y-59672000D02*
X132961000Y-60980000D01*
X132961000Y-63060000D02*
X132961000Y-64368000D01*
X133001000Y-59691000D02*
X133001000Y-60980000D01*
X133001000Y-63060000D02*
X133001000Y-64349000D01*
X133041000Y-59710000D02*
X133041000Y-60980000D01*
X133041000Y-63060000D02*
X133041000Y-64330000D01*
X133081000Y-59730000D02*
X133081000Y-60980000D01*
X133081000Y-63060000D02*
X133081000Y-64310000D01*
X133121000Y-59752000D02*
X133121000Y-60980000D01*
X133121000Y-63060000D02*
X133121000Y-64288000D01*
X133161000Y-59773000D02*
X133161000Y-60980000D01*
X133161000Y-63060000D02*
X133161000Y-64267000D01*
X133201000Y-59796000D02*
X133201000Y-60980000D01*
X133201000Y-63060000D02*
X133201000Y-64244000D01*
X133241000Y-59820000D02*
X133241000Y-60980000D01*
X133241000Y-63060000D02*
X133241000Y-64220000D01*
X133281000Y-59845000D02*
X133281000Y-60980000D01*
X133281000Y-63060000D02*
X133281000Y-64195000D01*
X133321000Y-59871000D02*
X133321000Y-60980000D01*
X133321000Y-63060000D02*
X133321000Y-64169000D01*
X133361000Y-59898000D02*
X133361000Y-60980000D01*
X133361000Y-63060000D02*
X133361000Y-64142000D01*
X133401000Y-59925000D02*
X133401000Y-60980000D01*
X133401000Y-63060000D02*
X133401000Y-64115000D01*
X133441000Y-59955000D02*
X133441000Y-60980000D01*
X133441000Y-63060000D02*
X133441000Y-64085000D01*
X133481000Y-59985000D02*
X133481000Y-60980000D01*
X133481000Y-63060000D02*
X133481000Y-64055000D01*
X133521000Y-60016000D02*
X133521000Y-60980000D01*
X133521000Y-63060000D02*
X133521000Y-64024000D01*
X133561000Y-60049000D02*
X133561000Y-60980000D01*
X133561000Y-63060000D02*
X133561000Y-63991000D01*
X133601000Y-60083000D02*
X133601000Y-60980000D01*
X133601000Y-63060000D02*
X133601000Y-63957000D01*
X133641000Y-60119000D02*
X133641000Y-60980000D01*
X133641000Y-63060000D02*
X133641000Y-63921000D01*
X133681000Y-60156000D02*
X133681000Y-60980000D01*
X133681000Y-63060000D02*
X133681000Y-63884000D01*
X133721000Y-60194000D02*
X133721000Y-60980000D01*
X133721000Y-63060000D02*
X133721000Y-63846000D01*
X133761000Y-60235000D02*
X133761000Y-60980000D01*
X133761000Y-63060000D02*
X133761000Y-63805000D01*
X133801000Y-60277000D02*
X133801000Y-60980000D01*
X133801000Y-63060000D02*
X133801000Y-63763000D01*
X133841000Y-60321000D02*
X133841000Y-60980000D01*
X133841000Y-63060000D02*
X133841000Y-63719000D01*
X133881000Y-60367000D02*
X133881000Y-60980000D01*
X133881000Y-63060000D02*
X133881000Y-63673000D01*
X133921000Y-60415000D02*
X133921000Y-60980000D01*
X133921000Y-63060000D02*
X133921000Y-63625000D01*
X133961000Y-60466000D02*
X133961000Y-60980000D01*
X133961000Y-63060000D02*
X133961000Y-63574000D01*
X134001000Y-60520000D02*
X134001000Y-60980000D01*
X134001000Y-63060000D02*
X134001000Y-63520000D01*
X134041000Y-60577000D02*
X134041000Y-60980000D01*
X134041000Y-63060000D02*
X134041000Y-63463000D01*
X134081000Y-60637000D02*
X134081000Y-60980000D01*
X134081000Y-63060000D02*
X134081000Y-63403000D01*
X134121000Y-60701000D02*
X134121000Y-60980000D01*
X134121000Y-63060000D02*
X134121000Y-63339000D01*
X134161000Y-60769000D02*
X134161000Y-60980000D01*
X134161000Y-63060000D02*
X134161000Y-63271000D01*
X134201000Y-60842000D02*
X134201000Y-63198000D01*
X134241000Y-60922000D02*
X134241000Y-63118000D01*
X134281000Y-61009000D02*
X134281000Y-63031000D01*
X134321000Y-61105000D02*
X134321000Y-62935000D01*
X134361000Y-61215000D02*
X134361000Y-62825000D01*
X134401000Y-61343000D02*
X134401000Y-62697000D01*
X134441000Y-61502000D02*
X134441000Y-62538000D01*
X134481000Y-61736000D02*
X134481000Y-62304000D01*
X134500000Y-62020000D02*
G75*
G02*
X129260000Y-62020000I-2620000J0D01*
G01*
X129260000Y-62020000D02*
G75*
G02*
X134500000Y-62020000I2620000J0D01*
G01*
%TO.C,Q1*%
X120130000Y-55890000D02*
X123730000Y-55890000D01*
X119573600Y-52941193D02*
G75*
G02*
X121930000Y-51440000I2356400J-1098807D01*
G01*
X120130000Y-55890000D02*
G75*
G02*
X119605816Y-55162795I1800000J1850000D01*
G01*
X121930000Y-51440000D02*
G75*
G02*
X124286400Y-52941193I0J-2600000D01*
G01*
X124254184Y-55162795D02*
G75*
G02*
X123730000Y-55890000I-2324184J1122795D01*
G01*
%TO.C,Q2*%
X142420000Y-55840000D02*
X146020000Y-55840000D01*
X141863600Y-52891193D02*
G75*
G02*
X144220000Y-51390000I2356400J-1098807D01*
G01*
X142420000Y-55840000D02*
G75*
G02*
X141895816Y-55112795I1800000J1850000D01*
G01*
X144220000Y-51390000D02*
G75*
G02*
X146576400Y-52891193I0J-2600000D01*
G01*
X146544184Y-55112795D02*
G75*
G02*
X146020000Y-55840000I-2324184J1122795D01*
G01*
%TO.C,R4*%
X132050000Y-55710000D02*
X133000000Y-55710000D01*
X133000000Y-54790000D02*
X133000000Y-56630000D01*
X133000000Y-56630000D02*
X136840000Y-56630000D01*
X136840000Y-54790000D02*
X133000000Y-54790000D01*
X136840000Y-56630000D02*
X136840000Y-54790000D01*
X137790000Y-55710000D02*
X136840000Y-55710000D01*
%TO.C,C2*%
X123589000Y-87384000D02*
X123589000Y-86816000D01*
X123629000Y-87618000D02*
X123629000Y-86582000D01*
X123669000Y-87777000D02*
X123669000Y-86423000D01*
X123709000Y-87905000D02*
X123709000Y-86295000D01*
X123749000Y-88015000D02*
X123749000Y-86185000D01*
X123789000Y-88111000D02*
X123789000Y-86089000D01*
X123829000Y-88198000D02*
X123829000Y-86002000D01*
X123869000Y-88278000D02*
X123869000Y-85922000D01*
X123909000Y-86060000D02*
X123909000Y-85849000D01*
X123909000Y-88351000D02*
X123909000Y-88140000D01*
X123949000Y-86060000D02*
X123949000Y-85781000D01*
X123949000Y-88419000D02*
X123949000Y-88140000D01*
X123989000Y-86060000D02*
X123989000Y-85717000D01*
X123989000Y-88483000D02*
X123989000Y-88140000D01*
X124029000Y-86060000D02*
X124029000Y-85657000D01*
X124029000Y-88543000D02*
X124029000Y-88140000D01*
X124069000Y-86060000D02*
X124069000Y-85600000D01*
X124069000Y-88600000D02*
X124069000Y-88140000D01*
X124109000Y-86060000D02*
X124109000Y-85546000D01*
X124109000Y-88654000D02*
X124109000Y-88140000D01*
X124149000Y-86060000D02*
X124149000Y-85495000D01*
X124149000Y-88705000D02*
X124149000Y-88140000D01*
X124189000Y-86060000D02*
X124189000Y-85447000D01*
X124189000Y-88753000D02*
X124189000Y-88140000D01*
X124229000Y-86060000D02*
X124229000Y-85401000D01*
X124229000Y-88799000D02*
X124229000Y-88140000D01*
X124269000Y-86060000D02*
X124269000Y-85357000D01*
X124269000Y-88843000D02*
X124269000Y-88140000D01*
X124309000Y-86060000D02*
X124309000Y-85315000D01*
X124309000Y-88885000D02*
X124309000Y-88140000D01*
X124349000Y-86060000D02*
X124349000Y-85274000D01*
X124349000Y-88926000D02*
X124349000Y-88140000D01*
X124389000Y-86060000D02*
X124389000Y-85236000D01*
X124389000Y-88964000D02*
X124389000Y-88140000D01*
X124429000Y-86060000D02*
X124429000Y-85199000D01*
X124429000Y-89001000D02*
X124429000Y-88140000D01*
X124469000Y-86060000D02*
X124469000Y-85163000D01*
X124469000Y-89037000D02*
X124469000Y-88140000D01*
X124509000Y-86060000D02*
X124509000Y-85129000D01*
X124509000Y-89071000D02*
X124509000Y-88140000D01*
X124549000Y-86060000D02*
X124549000Y-85096000D01*
X124549000Y-89104000D02*
X124549000Y-88140000D01*
X124589000Y-86060000D02*
X124589000Y-85065000D01*
X124589000Y-89135000D02*
X124589000Y-88140000D01*
X124629000Y-86060000D02*
X124629000Y-85035000D01*
X124629000Y-89165000D02*
X124629000Y-88140000D01*
X124669000Y-86060000D02*
X124669000Y-85005000D01*
X124669000Y-89195000D02*
X124669000Y-88140000D01*
X124709000Y-86060000D02*
X124709000Y-84978000D01*
X124709000Y-89222000D02*
X124709000Y-88140000D01*
X124749000Y-86060000D02*
X124749000Y-84951000D01*
X124749000Y-89249000D02*
X124749000Y-88140000D01*
X124789000Y-86060000D02*
X124789000Y-84925000D01*
X124789000Y-89275000D02*
X124789000Y-88140000D01*
X124829000Y-86060000D02*
X124829000Y-84900000D01*
X124829000Y-89300000D02*
X124829000Y-88140000D01*
X124869000Y-86060000D02*
X124869000Y-84876000D01*
X124869000Y-89324000D02*
X124869000Y-88140000D01*
X124909000Y-86060000D02*
X124909000Y-84853000D01*
X124909000Y-89347000D02*
X124909000Y-88140000D01*
X124949000Y-86060000D02*
X124949000Y-84832000D01*
X124949000Y-89368000D02*
X124949000Y-88140000D01*
X124989000Y-86060000D02*
X124989000Y-84810000D01*
X124989000Y-89390000D02*
X124989000Y-88140000D01*
X125029000Y-86060000D02*
X125029000Y-84790000D01*
X125029000Y-89410000D02*
X125029000Y-88140000D01*
X125069000Y-86060000D02*
X125069000Y-84771000D01*
X125069000Y-89429000D02*
X125069000Y-88140000D01*
X125109000Y-86060000D02*
X125109000Y-84752000D01*
X125109000Y-89448000D02*
X125109000Y-88140000D01*
X125149000Y-86060000D02*
X125149000Y-84735000D01*
X125149000Y-89465000D02*
X125149000Y-88140000D01*
X125189000Y-86060000D02*
X125189000Y-84718000D01*
X125189000Y-89482000D02*
X125189000Y-88140000D01*
X125229000Y-86060000D02*
X125229000Y-84702000D01*
X125229000Y-89498000D02*
X125229000Y-88140000D01*
X125269000Y-86060000D02*
X125269000Y-84686000D01*
X125269000Y-89514000D02*
X125269000Y-88140000D01*
X125309000Y-86060000D02*
X125309000Y-84672000D01*
X125309000Y-89528000D02*
X125309000Y-88140000D01*
X125349000Y-86060000D02*
X125349000Y-84658000D01*
X125349000Y-89542000D02*
X125349000Y-88140000D01*
X125389000Y-86060000D02*
X125389000Y-84645000D01*
X125389000Y-89555000D02*
X125389000Y-88140000D01*
X125429000Y-86060000D02*
X125429000Y-84632000D01*
X125429000Y-89568000D02*
X125429000Y-88140000D01*
X125469000Y-86060000D02*
X125469000Y-84620000D01*
X125469000Y-89580000D02*
X125469000Y-88140000D01*
X125510000Y-86060000D02*
X125510000Y-84609000D01*
X125510000Y-89591000D02*
X125510000Y-88140000D01*
X125550000Y-86060000D02*
X125550000Y-84599000D01*
X125550000Y-89601000D02*
X125550000Y-88140000D01*
X125590000Y-86060000D02*
X125590000Y-84589000D01*
X125590000Y-89611000D02*
X125590000Y-88140000D01*
X125630000Y-86060000D02*
X125630000Y-84580000D01*
X125630000Y-89620000D02*
X125630000Y-88140000D01*
X125670000Y-86060000D02*
X125670000Y-84572000D01*
X125670000Y-89628000D02*
X125670000Y-88140000D01*
X125710000Y-86060000D02*
X125710000Y-84564000D01*
X125710000Y-89636000D02*
X125710000Y-88140000D01*
X125750000Y-86060000D02*
X125750000Y-84557000D01*
X125750000Y-89643000D02*
X125750000Y-88140000D01*
X125790000Y-86060000D02*
X125790000Y-84550000D01*
X125790000Y-89650000D02*
X125790000Y-88140000D01*
X125830000Y-86060000D02*
X125830000Y-84544000D01*
X125830000Y-89656000D02*
X125830000Y-88140000D01*
X125870000Y-86060000D02*
X125870000Y-84539000D01*
X125870000Y-89661000D02*
X125870000Y-88140000D01*
X125910000Y-86060000D02*
X125910000Y-84535000D01*
X125910000Y-89665000D02*
X125910000Y-88140000D01*
X125950000Y-86060000D02*
X125950000Y-84531000D01*
X125950000Y-89669000D02*
X125950000Y-88140000D01*
X125990000Y-89673000D02*
X125990000Y-84527000D01*
X126030000Y-89676000D02*
X126030000Y-84524000D01*
X126070000Y-89678000D02*
X126070000Y-84522000D01*
X126110000Y-89679000D02*
X126110000Y-84521000D01*
X126150000Y-89680000D02*
X126150000Y-84520000D01*
X126190000Y-89680000D02*
X126190000Y-84520000D01*
X128080000Y-88430000D02*
X128080000Y-87930000D01*
X128330000Y-88180000D02*
X127830000Y-88180000D01*
X128810000Y-87100000D02*
G75*
G02*
X123570000Y-87100000I-2620000J0D01*
G01*
X123570000Y-87100000D02*
G75*
G02*
X128810000Y-87100000I2620000J0D01*
G01*
%TO.C,SW1*%
X121760000Y-97060000D02*
X121760000Y-102200000D01*
X121760000Y-97060000D02*
X124420000Y-97060000D01*
X121760000Y-102200000D02*
X124420000Y-102200000D01*
X123090000Y-94460000D02*
X124420000Y-94460000D01*
X124420000Y-94460000D02*
X124420000Y-95790000D01*
X124420000Y-97060000D02*
X124420000Y-102200000D01*
%TO.C,M1*%
X118550000Y-72370000D02*
X118550000Y-81000000D01*
X119520000Y-81000000D02*
X119520000Y-81410000D01*
X120240000Y-81000000D02*
X120240000Y-81410000D01*
X121150000Y-72370000D02*
X121150000Y-81000000D01*
X122060000Y-81000000D02*
X122060000Y-81410000D01*
X122780000Y-81000000D02*
X122780000Y-81410000D01*
X123690000Y-72370000D02*
X123690000Y-81000000D01*
X123808100Y-72370000D02*
X123808100Y-81000000D01*
X123926195Y-72370000D02*
X123926195Y-81000000D01*
X124044290Y-72370000D02*
X124044290Y-81000000D01*
X124162385Y-72370000D02*
X124162385Y-81000000D01*
X124280480Y-72370000D02*
X124280480Y-81000000D01*
X124398575Y-72370000D02*
X124398575Y-81000000D01*
X124516670Y-72370000D02*
X124516670Y-81000000D01*
X124600000Y-81000000D02*
X124600000Y-81350000D01*
X124634765Y-72370000D02*
X124634765Y-81000000D01*
X124752860Y-72370000D02*
X124752860Y-81000000D01*
X124870955Y-72370000D02*
X124870955Y-81000000D01*
X124989050Y-72370000D02*
X124989050Y-81000000D01*
X125107145Y-72370000D02*
X125107145Y-81000000D01*
X125225240Y-72370000D02*
X125225240Y-81000000D01*
X125320000Y-81000000D02*
X125320000Y-81350000D01*
X125343335Y-72370000D02*
X125343335Y-81000000D01*
X125461430Y-72370000D02*
X125461430Y-81000000D01*
X125579525Y-72370000D02*
X125579525Y-81000000D01*
X125697620Y-72370000D02*
X125697620Y-81000000D01*
X125815715Y-72370000D02*
X125815715Y-81000000D01*
X125933810Y-72370000D02*
X125933810Y-81000000D01*
X126051905Y-72370000D02*
X126051905Y-81000000D01*
X126170000Y-72370000D02*
X126170000Y-81000000D01*
X126290000Y-72370000D02*
X118550000Y-72370000D01*
X126290000Y-72370000D02*
X126290000Y-81000000D01*
X126290000Y-81000000D02*
X118550000Y-81000000D01*
X126290000Y-82460000D02*
X126290000Y-83570000D01*
X126290000Y-83570000D02*
X124960000Y-83570000D01*
%TO.C,U1*%
X129160000Y-65195000D02*
X129160000Y-83095000D01*
X129160000Y-83095000D02*
X134460000Y-83095000D01*
X130810000Y-65195000D02*
X129160000Y-65195000D01*
X134460000Y-65195000D02*
X132810000Y-65195000D01*
X134460000Y-83095000D02*
X134460000Y-65195000D01*
X132810000Y-65195000D02*
G75*
G02*
X130810000Y-65195000I-1000000J0D01*
G01*
%TO.C,JP2*%
X118750000Y-97140000D02*
X118750000Y-95740000D01*
X119450000Y-95040000D02*
X120050000Y-95040000D01*
X120050000Y-97840000D02*
X119450000Y-97840000D01*
X120750000Y-95740000D02*
X120750000Y-97140000D01*
X118750000Y-95740000D02*
G75*
G02*
X119450000Y-95040000I700000J0D01*
G01*
X119450000Y-97840000D02*
G75*
G02*
X118750000Y-97140000I-1J699999D01*
G01*
X120050000Y-95040000D02*
G75*
G02*
X120750000Y-95740000I0J-700000D01*
G01*
X120750000Y-97140000D02*
G75*
G02*
X120050000Y-97840000I-699999J-1D01*
G01*
%TO.C,JP1*%
X118740000Y-100570000D02*
X118740000Y-99170000D01*
X119440000Y-98470000D02*
X120040000Y-98470000D01*
X120040000Y-101270000D02*
X119440000Y-101270000D01*
X120740000Y-99170000D02*
X120740000Y-100570000D01*
X118740000Y-99170000D02*
G75*
G02*
X119440000Y-98470000I700000J0D01*
G01*
X119440000Y-101270000D02*
G75*
G02*
X118740000Y-100570000I-1J699999D01*
G01*
X120040000Y-98470000D02*
G75*
G02*
X120740000Y-99170000I0J-700000D01*
G01*
X120740000Y-100570000D02*
G75*
G02*
X120040000Y-101270000I-699999J-1D01*
G01*
%TD*%
M02*
