%TF.GenerationSoftware,KiCad,Pcbnew,8.0.5*%
%TF.CreationDate,2025-11-20T22:31:33-08:00*%
%TF.ProjectId,receiver,72656365-6976-4657-922e-6b696361645f,rev?*%
%TF.SameCoordinates,Original*%
%TF.FileFunction,Copper,L4,Bot*%
%TF.FilePolarity,Positive*%
%FSLAX46Y46*%
G04 Gerber Fmt 4.6, Leading zero omitted, Abs format (unit mm)*
G04 Created by KiCad (PCBNEW 8.0.5) date 2025-11-20 22:31:33*
%MOMM*%
%LPD*%
G01*
G04 APERTURE LIST*
%TA.AperFunction,ComponentPad*%
%ADD10C,2.900000*%
%TD*%
%TA.AperFunction,ConnectorPad*%
%ADD11C,5.000000*%
%TD*%
%TA.AperFunction,ComponentPad*%
%ADD12R,1.700000X1.700000*%
%TD*%
%TA.AperFunction,ComponentPad*%
%ADD13O,1.700000X1.700000*%
%TD*%
%TA.AperFunction,ComponentPad*%
%ADD14R,1.600000X1.600000*%
%TD*%
%TA.AperFunction,ComponentPad*%
%ADD15O,1.600000X1.600000*%
%TD*%
%TA.AperFunction,ComponentPad*%
%ADD16R,1.498000X1.498000*%
%TD*%
%TA.AperFunction,ComponentPad*%
%ADD17C,1.498000*%
%TD*%
%TA.AperFunction,ComponentPad*%
%ADD18C,1.700000*%
%TD*%
%TA.AperFunction,ComponentPad*%
%ADD19C,1.524000*%
%TD*%
%TA.AperFunction,ViaPad*%
%ADD20C,0.600000*%
%TD*%
%TA.AperFunction,Conductor*%
%ADD21C,0.200000*%
%TD*%
G04 APERTURE END LIST*
D10*
%TO.P,H2,1,1*%
%TO.N,GND*%
X121012500Y-108912500D03*
D11*
X121012500Y-108912500D03*
%TD*%
D10*
%TO.P,H4,1,1*%
%TO.N,GND*%
X145162500Y-47462500D03*
D11*
X145162500Y-47462500D03*
%TD*%
D12*
%TO.P,D4,1,K*%
%TO.N,Net-(D4-K)*%
X140420000Y-110000000D03*
D13*
%TO.P,D4,2,A*%
%TO.N,Net-(D4-A)*%
X140420000Y-107460000D03*
%TD*%
D14*
%TO.P,U4,1,OA*%
%TO.N,Net-(M2-+)*%
X127770000Y-97430000D03*
D15*
%TO.P,U4,2,VCC*%
%TO.N,+9V*%
X130310000Y-97430000D03*
%TO.P,U4,3,VCC*%
X132850000Y-97430000D03*
%TO.P,U4,4,OB*%
%TO.N,Net-(M2--)*%
X135390000Y-97430000D03*
%TO.P,U4,5,GND*%
%TO.N,GND*%
X135390000Y-89810000D03*
%TO.P,U4,6,IA*%
%TO.N,PWM4*%
X132850000Y-89810000D03*
%TO.P,U4,7,IB*%
%TO.N,PWM5*%
X130310000Y-89810000D03*
%TO.P,U4,8,GND*%
%TO.N,GND*%
X127770000Y-89810000D03*
%TD*%
D10*
%TO.P,H3,1,1*%
%TO.N,GND*%
X145162500Y-108912500D03*
D11*
X145162500Y-108912500D03*
%TD*%
D12*
%TO.P,D2,1,K*%
%TO.N,Net-(D2-K)*%
X126000000Y-46460000D03*
D13*
%TO.P,D2,2,A*%
%TO.N,Net-(D2-A)*%
X128540000Y-46460000D03*
%TD*%
D16*
%TO.P,SW2,1,1*%
%TO.N,Net-(C2-Pad2)*%
X123820000Y-55480000D03*
D17*
%TO.P,SW2,2,2*%
X123820000Y-61980000D03*
%TO.P,SW2,3,3*%
%TO.N,GND*%
X119320000Y-55480000D03*
%TO.P,SW2,4,4*%
X119320000Y-61980000D03*
%TD*%
D12*
%TO.P,J1,1,Pin_1*%
%TO.N,~{MCLR}*%
X130050000Y-52190000D03*
D13*
%TO.P,J1,2,Pin_2*%
%TO.N,+3.3V*%
X127510000Y-52190000D03*
%TO.P,J1,3,Pin_3*%
%TO.N,GND*%
X124970000Y-52190000D03*
%TO.P,J1,4,Pin_4*%
%TO.N,PGData*%
X122430000Y-52190000D03*
%TO.P,J1,5,Pin_5*%
%TO.N,PGClk*%
X119890000Y-52190000D03*
%TD*%
D12*
%TO.P,M1,1,PWM*%
%TO.N,PWM6*%
X125335000Y-85980000D03*
D13*
%TO.P,M1,2,+*%
%TO.N,+3.3V*%
X122795000Y-85980000D03*
%TO.P,M1,3,-*%
%TO.N,GND*%
X120255000Y-85980000D03*
%TD*%
D10*
%TO.P,H1,1,1*%
%TO.N,GND*%
X121012500Y-47462500D03*
D11*
X121012500Y-47462500D03*
%TD*%
D12*
%TO.P,M2,1,+*%
%TO.N,Net-(M2-+)*%
X131860000Y-108550000D03*
D13*
%TO.P,M2,2,-*%
%TO.N,Net-(M2--)*%
X134400000Y-108550000D03*
%TD*%
D12*
%TO.P,SW1,1,C*%
%TO.N,GND*%
X139250000Y-93750000D03*
D13*
%TO.P,SW1,2,B*%
%TO.N,+9V*%
X139250000Y-96290000D03*
%TO.P,SW1,3,A*%
%TO.N,Net-(BT1-+)*%
X139250000Y-98830000D03*
%TD*%
D12*
%TO.P,J2,1,Pin_1*%
%TO.N,TXD*%
X140870000Y-72880000D03*
D13*
%TO.P,J2,2,Pin_2*%
%TO.N,RXD*%
X143410000Y-72880000D03*
%TO.P,J2,3,Pin_3*%
%TO.N,GND*%
X145950000Y-72880000D03*
%TD*%
D12*
%TO.P,D1,1,K*%
%TO.N,Net-(D1-K)*%
X137600000Y-46450000D03*
D13*
%TO.P,D1,2,A*%
%TO.N,Net-(D1-A)*%
X140140000Y-46450000D03*
%TD*%
D12*
%TO.P,D3,1,K*%
%TO.N,Net-(D3-K)*%
X125745000Y-107440000D03*
D13*
%TO.P,D3,2,A*%
%TO.N,Net-(D3-A)*%
X125745000Y-109980000D03*
%TD*%
D12*
%TO.P,U3,1,GND*%
%TO.N,GND*%
X139280000Y-53740000D03*
D18*
%TO.P,U3,2,VCC*%
%TO.N,+3.3V*%
X141820000Y-53740000D03*
%TO.P,U3,3,CE*%
%TO.N,CE*%
X139280000Y-56280000D03*
%TO.P,U3,4,~{CSN}*%
%TO.N,CSN*%
X141820000Y-56280000D03*
%TO.P,U3,5,SCK*%
%TO.N,SCK*%
X139280000Y-58820000D03*
%TO.P,U3,6,MOSI*%
%TO.N,MOSI*%
X141820000Y-58820000D03*
%TO.P,U3,7,MISO*%
%TO.N,MISO*%
X139280000Y-61360000D03*
%TO.P,U3,8,IRQ*%
%TO.N,IRQ*%
X141820000Y-61360000D03*
%TD*%
D19*
%TO.P,BT1,1,+*%
%TO.N,Net-(BT1-+)*%
X139440000Y-103130000D03*
%TO.P,BT1,2,-*%
%TO.N,GND*%
X126740000Y-103130000D03*
%TD*%
D20*
%TO.N,GND*%
X120510000Y-93390000D03*
X124020000Y-68810000D03*
X146190000Y-92330000D03*
X143370000Y-93080000D03*
X136720000Y-66350000D03*
X125300000Y-64750000D03*
X136360000Y-50360000D03*
X127480000Y-57870000D03*
X141800000Y-76650000D03*
X135758511Y-48748511D03*
X119440000Y-69100000D03*
X137920000Y-67280000D03*
X121100000Y-68920000D03*
X135700000Y-53240000D03*
X145490000Y-100790000D03*
X136568802Y-59918802D03*
X136810000Y-85840000D03*
X122500000Y-100960000D03*
X140800000Y-89900000D03*
X127220000Y-49750000D03*
%TO.N,+3.3V*%
X147020000Y-67270000D03*
X142510000Y-100850000D03*
X135720000Y-58720000D03*
X124540000Y-49750000D03*
X119520000Y-100800000D03*
X127490000Y-56380000D03*
X120280001Y-67168254D03*
X140430000Y-79500000D03*
X124980000Y-68810000D03*
X138860000Y-49750000D03*
X137700000Y-89150000D03*
%TO.N,CSN*%
X135540000Y-63450000D03*
%TD*%
D21*
%TO.N,CSN*%
X140670000Y-59056346D02*
X140670000Y-57430000D01*
X139020000Y-59970000D02*
X139756346Y-59970000D01*
X135540000Y-63450000D02*
X139020000Y-59970000D01*
X139756346Y-59970000D02*
X140670000Y-59056346D01*
X140670000Y-57430000D02*
X141820000Y-56280000D01*
%TO.N,Net-(C2-Pad2)*%
X123820000Y-61980000D02*
X123820000Y-55480000D01*
%TD*%
M02*
