%TF.GenerationSoftware,KiCad,Pcbnew,8.0.5*%
%TF.CreationDate,2025-11-20T22:31:32-08:00*%
%TF.ProjectId,receiver,72656365-6976-4657-922e-6b696361645f,rev?*%
%TF.SameCoordinates,Original*%
%TF.FileFunction,Drillmap*%
%TF.FilePolarity,Positive*%
%FSLAX45Y45*%
G04 Gerber Fmt 4.5, Leading zero omitted, Abs format (unit mm)*
G04 Created by KiCad (PCBNEW 8.0.5) date 2025-11-20 22:31:32*
%MOMM*%
%LPD*%
G01*
G04 APERTURE LIST*
%ADD10C,0.050000*%
%ADD11C,0.200000*%
%ADD12C,0.229000*%
G04 APERTURE END LIST*
D10*
X14840000Y-4422500D02*
X14840000Y-11215000D01*
X11777500Y-11215000D02*
X11777500Y-4422500D01*
X14840000Y-4422500D02*
X11777500Y-4422500D01*
X14840000Y-11215000D02*
X11777500Y-11215000D01*
D11*
D12*
X12085500Y-6341500D02*
X12314500Y-6570500D01*
X12314500Y-6341500D02*
X12085500Y-6570500D01*
X12085500Y-9038500D02*
X12314500Y-9267500D01*
X12314500Y-9038500D02*
X12085500Y-9267500D01*
X14320500Y-7690500D02*
X14549500Y-7919500D01*
X14549500Y-7690500D02*
X14320500Y-7919500D01*
D11*
X12035777Y-11528984D02*
X12035777Y-11328984D01*
X12035777Y-11328984D02*
X12083396Y-11328984D01*
X12083396Y-11328984D02*
X12111967Y-11338508D01*
X12111967Y-11338508D02*
X12131015Y-11357555D01*
X12131015Y-11357555D02*
X12140539Y-11376603D01*
X12140539Y-11376603D02*
X12150062Y-11414698D01*
X12150062Y-11414698D02*
X12150062Y-11443269D01*
X12150062Y-11443269D02*
X12140539Y-11481365D01*
X12140539Y-11481365D02*
X12131015Y-11500412D01*
X12131015Y-11500412D02*
X12111967Y-11519460D01*
X12111967Y-11519460D02*
X12083396Y-11528984D01*
X12083396Y-11528984D02*
X12035777Y-11528984D01*
X12235777Y-11528984D02*
X12235777Y-11395650D01*
X12235777Y-11433746D02*
X12245301Y-11414698D01*
X12245301Y-11414698D02*
X12254824Y-11405174D01*
X12254824Y-11405174D02*
X12273872Y-11395650D01*
X12273872Y-11395650D02*
X12292920Y-11395650D01*
X12359586Y-11528984D02*
X12359586Y-11395650D01*
X12359586Y-11328984D02*
X12350062Y-11338508D01*
X12350062Y-11338508D02*
X12359586Y-11348031D01*
X12359586Y-11348031D02*
X12369110Y-11338508D01*
X12369110Y-11338508D02*
X12359586Y-11328984D01*
X12359586Y-11328984D02*
X12359586Y-11348031D01*
X12483396Y-11528984D02*
X12464348Y-11519460D01*
X12464348Y-11519460D02*
X12454824Y-11500412D01*
X12454824Y-11500412D02*
X12454824Y-11328984D01*
X12588158Y-11528984D02*
X12569110Y-11519460D01*
X12569110Y-11519460D02*
X12559586Y-11500412D01*
X12559586Y-11500412D02*
X12559586Y-11328984D01*
X12816729Y-11528984D02*
X12816729Y-11328984D01*
X12816729Y-11328984D02*
X12883396Y-11471841D01*
X12883396Y-11471841D02*
X12950062Y-11328984D01*
X12950062Y-11328984D02*
X12950062Y-11528984D01*
X13131015Y-11528984D02*
X13131015Y-11424222D01*
X13131015Y-11424222D02*
X13121491Y-11405174D01*
X13121491Y-11405174D02*
X13102443Y-11395650D01*
X13102443Y-11395650D02*
X13064348Y-11395650D01*
X13064348Y-11395650D02*
X13045301Y-11405174D01*
X13131015Y-11519460D02*
X13111967Y-11528984D01*
X13111967Y-11528984D02*
X13064348Y-11528984D01*
X13064348Y-11528984D02*
X13045301Y-11519460D01*
X13045301Y-11519460D02*
X13035777Y-11500412D01*
X13035777Y-11500412D02*
X13035777Y-11481365D01*
X13035777Y-11481365D02*
X13045301Y-11462317D01*
X13045301Y-11462317D02*
X13064348Y-11452793D01*
X13064348Y-11452793D02*
X13111967Y-11452793D01*
X13111967Y-11452793D02*
X13131015Y-11443269D01*
X13226253Y-11395650D02*
X13226253Y-11595650D01*
X13226253Y-11405174D02*
X13245301Y-11395650D01*
X13245301Y-11395650D02*
X13283396Y-11395650D01*
X13283396Y-11395650D02*
X13302443Y-11405174D01*
X13302443Y-11405174D02*
X13311967Y-11414698D01*
X13311967Y-11414698D02*
X13321491Y-11433746D01*
X13321491Y-11433746D02*
X13321491Y-11490888D01*
X13321491Y-11490888D02*
X13311967Y-11509936D01*
X13311967Y-11509936D02*
X13302443Y-11519460D01*
X13302443Y-11519460D02*
X13283396Y-11528984D01*
X13283396Y-11528984D02*
X13245301Y-11528984D01*
X13245301Y-11528984D02*
X13226253Y-11519460D01*
X13407205Y-11509936D02*
X13416729Y-11519460D01*
X13416729Y-11519460D02*
X13407205Y-11528984D01*
X13407205Y-11528984D02*
X13397682Y-11519460D01*
X13397682Y-11519460D02*
X13407205Y-11509936D01*
X13407205Y-11509936D02*
X13407205Y-11528984D01*
X13407205Y-11405174D02*
X13416729Y-11414698D01*
X13416729Y-11414698D02*
X13407205Y-11424222D01*
X13407205Y-11424222D02*
X13397682Y-11414698D01*
X13397682Y-11414698D02*
X13407205Y-11405174D01*
X13407205Y-11405174D02*
X13407205Y-11424222D01*
X11575000Y-11757500D02*
X11775000Y-11957500D01*
X11775000Y-11757500D02*
X11575000Y-11957500D01*
X12026253Y-11768031D02*
X12035777Y-11758508D01*
X12035777Y-11758508D02*
X12054824Y-11748984D01*
X12054824Y-11748984D02*
X12102443Y-11748984D01*
X12102443Y-11748984D02*
X12121491Y-11758508D01*
X12121491Y-11758508D02*
X12131015Y-11768031D01*
X12131015Y-11768031D02*
X12140539Y-11787079D01*
X12140539Y-11787079D02*
X12140539Y-11806127D01*
X12140539Y-11806127D02*
X12131015Y-11834698D01*
X12131015Y-11834698D02*
X12016729Y-11948984D01*
X12016729Y-11948984D02*
X12140539Y-11948984D01*
X12226253Y-11929936D02*
X12235777Y-11939460D01*
X12235777Y-11939460D02*
X12226253Y-11948984D01*
X12226253Y-11948984D02*
X12216729Y-11939460D01*
X12216729Y-11939460D02*
X12226253Y-11929936D01*
X12226253Y-11929936D02*
X12226253Y-11948984D01*
X12311967Y-11768031D02*
X12321491Y-11758508D01*
X12321491Y-11758508D02*
X12340539Y-11748984D01*
X12340539Y-11748984D02*
X12388158Y-11748984D01*
X12388158Y-11748984D02*
X12407205Y-11758508D01*
X12407205Y-11758508D02*
X12416729Y-11768031D01*
X12416729Y-11768031D02*
X12426253Y-11787079D01*
X12426253Y-11787079D02*
X12426253Y-11806127D01*
X12426253Y-11806127D02*
X12416729Y-11834698D01*
X12416729Y-11834698D02*
X12302443Y-11948984D01*
X12302443Y-11948984D02*
X12426253Y-11948984D01*
X12521491Y-11948984D02*
X12559586Y-11948984D01*
X12559586Y-11948984D02*
X12578634Y-11939460D01*
X12578634Y-11939460D02*
X12588158Y-11929936D01*
X12588158Y-11929936D02*
X12607205Y-11901365D01*
X12607205Y-11901365D02*
X12616729Y-11863269D01*
X12616729Y-11863269D02*
X12616729Y-11787079D01*
X12616729Y-11787079D02*
X12607205Y-11768031D01*
X12607205Y-11768031D02*
X12597682Y-11758508D01*
X12597682Y-11758508D02*
X12578634Y-11748984D01*
X12578634Y-11748984D02*
X12540539Y-11748984D01*
X12540539Y-11748984D02*
X12521491Y-11758508D01*
X12521491Y-11758508D02*
X12511967Y-11768031D01*
X12511967Y-11768031D02*
X12502443Y-11787079D01*
X12502443Y-11787079D02*
X12502443Y-11834698D01*
X12502443Y-11834698D02*
X12511967Y-11853746D01*
X12511967Y-11853746D02*
X12521491Y-11863269D01*
X12521491Y-11863269D02*
X12540539Y-11872793D01*
X12540539Y-11872793D02*
X12578634Y-11872793D01*
X12578634Y-11872793D02*
X12597682Y-11863269D01*
X12597682Y-11863269D02*
X12607205Y-11853746D01*
X12607205Y-11853746D02*
X12616729Y-11834698D01*
X12740539Y-11748984D02*
X12759586Y-11748984D01*
X12759586Y-11748984D02*
X12778634Y-11758508D01*
X12778634Y-11758508D02*
X12788158Y-11768031D01*
X12788158Y-11768031D02*
X12797682Y-11787079D01*
X12797682Y-11787079D02*
X12807205Y-11825174D01*
X12807205Y-11825174D02*
X12807205Y-11872793D01*
X12807205Y-11872793D02*
X12797682Y-11910888D01*
X12797682Y-11910888D02*
X12788158Y-11929936D01*
X12788158Y-11929936D02*
X12778634Y-11939460D01*
X12778634Y-11939460D02*
X12759586Y-11948984D01*
X12759586Y-11948984D02*
X12740539Y-11948984D01*
X12740539Y-11948984D02*
X12721491Y-11939460D01*
X12721491Y-11939460D02*
X12711967Y-11929936D01*
X12711967Y-11929936D02*
X12702443Y-11910888D01*
X12702443Y-11910888D02*
X12692920Y-11872793D01*
X12692920Y-11872793D02*
X12692920Y-11825174D01*
X12692920Y-11825174D02*
X12702443Y-11787079D01*
X12702443Y-11787079D02*
X12711967Y-11768031D01*
X12711967Y-11768031D02*
X12721491Y-11758508D01*
X12721491Y-11758508D02*
X12740539Y-11748984D01*
X12892920Y-11948984D02*
X12892920Y-11815650D01*
X12892920Y-11834698D02*
X12902443Y-11825174D01*
X12902443Y-11825174D02*
X12921491Y-11815650D01*
X12921491Y-11815650D02*
X12950063Y-11815650D01*
X12950063Y-11815650D02*
X12969110Y-11825174D01*
X12969110Y-11825174D02*
X12978634Y-11844222D01*
X12978634Y-11844222D02*
X12978634Y-11948984D01*
X12978634Y-11844222D02*
X12988158Y-11825174D01*
X12988158Y-11825174D02*
X13007205Y-11815650D01*
X13007205Y-11815650D02*
X13035777Y-11815650D01*
X13035777Y-11815650D02*
X13054824Y-11825174D01*
X13054824Y-11825174D02*
X13064348Y-11844222D01*
X13064348Y-11844222D02*
X13064348Y-11948984D01*
X13159586Y-11948984D02*
X13159586Y-11815650D01*
X13159586Y-11834698D02*
X13169110Y-11825174D01*
X13169110Y-11825174D02*
X13188158Y-11815650D01*
X13188158Y-11815650D02*
X13216729Y-11815650D01*
X13216729Y-11815650D02*
X13235777Y-11825174D01*
X13235777Y-11825174D02*
X13245301Y-11844222D01*
X13245301Y-11844222D02*
X13245301Y-11948984D01*
X13245301Y-11844222D02*
X13254824Y-11825174D01*
X13254824Y-11825174D02*
X13273872Y-11815650D01*
X13273872Y-11815650D02*
X13302443Y-11815650D01*
X13302443Y-11815650D02*
X13321491Y-11825174D01*
X13321491Y-11825174D02*
X13331015Y-11844222D01*
X13331015Y-11844222D02*
X13331015Y-11948984D01*
X13721491Y-11739460D02*
X13550063Y-11996603D01*
X13978634Y-11748984D02*
X13997682Y-11748984D01*
X13997682Y-11748984D02*
X14016729Y-11758508D01*
X14016729Y-11758508D02*
X14026253Y-11768031D01*
X14026253Y-11768031D02*
X14035777Y-11787079D01*
X14035777Y-11787079D02*
X14045301Y-11825174D01*
X14045301Y-11825174D02*
X14045301Y-11872793D01*
X14045301Y-11872793D02*
X14035777Y-11910888D01*
X14035777Y-11910888D02*
X14026253Y-11929936D01*
X14026253Y-11929936D02*
X14016729Y-11939460D01*
X14016729Y-11939460D02*
X13997682Y-11948984D01*
X13997682Y-11948984D02*
X13978634Y-11948984D01*
X13978634Y-11948984D02*
X13959586Y-11939460D01*
X13959586Y-11939460D02*
X13950063Y-11929936D01*
X13950063Y-11929936D02*
X13940539Y-11910888D01*
X13940539Y-11910888D02*
X13931015Y-11872793D01*
X13931015Y-11872793D02*
X13931015Y-11825174D01*
X13931015Y-11825174D02*
X13940539Y-11787079D01*
X13940539Y-11787079D02*
X13950063Y-11768031D01*
X13950063Y-11768031D02*
X13959586Y-11758508D01*
X13959586Y-11758508D02*
X13978634Y-11748984D01*
X14131015Y-11929936D02*
X14140539Y-11939460D01*
X14140539Y-11939460D02*
X14131015Y-11948984D01*
X14131015Y-11948984D02*
X14121491Y-11939460D01*
X14121491Y-11939460D02*
X14131015Y-11929936D01*
X14131015Y-11929936D02*
X14131015Y-11948984D01*
X14264348Y-11748984D02*
X14283396Y-11748984D01*
X14283396Y-11748984D02*
X14302444Y-11758508D01*
X14302444Y-11758508D02*
X14311967Y-11768031D01*
X14311967Y-11768031D02*
X14321491Y-11787079D01*
X14321491Y-11787079D02*
X14331015Y-11825174D01*
X14331015Y-11825174D02*
X14331015Y-11872793D01*
X14331015Y-11872793D02*
X14321491Y-11910888D01*
X14321491Y-11910888D02*
X14311967Y-11929936D01*
X14311967Y-11929936D02*
X14302444Y-11939460D01*
X14302444Y-11939460D02*
X14283396Y-11948984D01*
X14283396Y-11948984D02*
X14264348Y-11948984D01*
X14264348Y-11948984D02*
X14245301Y-11939460D01*
X14245301Y-11939460D02*
X14235777Y-11929936D01*
X14235777Y-11929936D02*
X14226253Y-11910888D01*
X14226253Y-11910888D02*
X14216729Y-11872793D01*
X14216729Y-11872793D02*
X14216729Y-11825174D01*
X14216729Y-11825174D02*
X14226253Y-11787079D01*
X14226253Y-11787079D02*
X14235777Y-11768031D01*
X14235777Y-11768031D02*
X14245301Y-11758508D01*
X14245301Y-11758508D02*
X14264348Y-11748984D01*
X14426253Y-11948984D02*
X14464348Y-11948984D01*
X14464348Y-11948984D02*
X14483396Y-11939460D01*
X14483396Y-11939460D02*
X14492920Y-11929936D01*
X14492920Y-11929936D02*
X14511967Y-11901365D01*
X14511967Y-11901365D02*
X14521491Y-11863269D01*
X14521491Y-11863269D02*
X14521491Y-11787079D01*
X14521491Y-11787079D02*
X14511967Y-11768031D01*
X14511967Y-11768031D02*
X14502444Y-11758508D01*
X14502444Y-11758508D02*
X14483396Y-11748984D01*
X14483396Y-11748984D02*
X14445301Y-11748984D01*
X14445301Y-11748984D02*
X14426253Y-11758508D01*
X14426253Y-11758508D02*
X14416729Y-11768031D01*
X14416729Y-11768031D02*
X14407206Y-11787079D01*
X14407206Y-11787079D02*
X14407206Y-11834698D01*
X14407206Y-11834698D02*
X14416729Y-11853746D01*
X14416729Y-11853746D02*
X14426253Y-11863269D01*
X14426253Y-11863269D02*
X14445301Y-11872793D01*
X14445301Y-11872793D02*
X14483396Y-11872793D01*
X14483396Y-11872793D02*
X14502444Y-11863269D01*
X14502444Y-11863269D02*
X14511967Y-11853746D01*
X14511967Y-11853746D02*
X14521491Y-11834698D01*
X14645301Y-11748984D02*
X14664348Y-11748984D01*
X14664348Y-11748984D02*
X14683396Y-11758508D01*
X14683396Y-11758508D02*
X14692920Y-11768031D01*
X14692920Y-11768031D02*
X14702444Y-11787079D01*
X14702444Y-11787079D02*
X14711967Y-11825174D01*
X14711967Y-11825174D02*
X14711967Y-11872793D01*
X14711967Y-11872793D02*
X14702444Y-11910888D01*
X14702444Y-11910888D02*
X14692920Y-11929936D01*
X14692920Y-11929936D02*
X14683396Y-11939460D01*
X14683396Y-11939460D02*
X14664348Y-11948984D01*
X14664348Y-11948984D02*
X14645301Y-11948984D01*
X14645301Y-11948984D02*
X14626253Y-11939460D01*
X14626253Y-11939460D02*
X14616729Y-11929936D01*
X14616729Y-11929936D02*
X14607206Y-11910888D01*
X14607206Y-11910888D02*
X14597682Y-11872793D01*
X14597682Y-11872793D02*
X14597682Y-11825174D01*
X14597682Y-11825174D02*
X14607206Y-11787079D01*
X14607206Y-11787079D02*
X14616729Y-11768031D01*
X14616729Y-11768031D02*
X14626253Y-11758508D01*
X14626253Y-11758508D02*
X14645301Y-11748984D01*
X14788158Y-11768031D02*
X14797682Y-11758508D01*
X14797682Y-11758508D02*
X14816729Y-11748984D01*
X14816729Y-11748984D02*
X14864348Y-11748984D01*
X14864348Y-11748984D02*
X14883396Y-11758508D01*
X14883396Y-11758508D02*
X14892920Y-11768031D01*
X14892920Y-11768031D02*
X14902444Y-11787079D01*
X14902444Y-11787079D02*
X14902444Y-11806127D01*
X14902444Y-11806127D02*
X14892920Y-11834698D01*
X14892920Y-11834698D02*
X14778634Y-11948984D01*
X14778634Y-11948984D02*
X14902444Y-11948984D01*
X14978634Y-11748984D02*
X14978634Y-11787079D01*
X15054825Y-11748984D02*
X15054825Y-11787079D01*
X15350063Y-12025174D02*
X15340539Y-12015650D01*
X15340539Y-12015650D02*
X15321491Y-11987079D01*
X15321491Y-11987079D02*
X15311968Y-11968031D01*
X15311968Y-11968031D02*
X15302444Y-11939460D01*
X15302444Y-11939460D02*
X15292920Y-11891841D01*
X15292920Y-11891841D02*
X15292920Y-11853746D01*
X15292920Y-11853746D02*
X15302444Y-11806127D01*
X15302444Y-11806127D02*
X15311968Y-11777555D01*
X15311968Y-11777555D02*
X15321491Y-11758508D01*
X15321491Y-11758508D02*
X15340539Y-11729936D01*
X15340539Y-11729936D02*
X15350063Y-11720412D01*
X15407206Y-11748984D02*
X15531015Y-11748984D01*
X15531015Y-11748984D02*
X15464348Y-11825174D01*
X15464348Y-11825174D02*
X15492920Y-11825174D01*
X15492920Y-11825174D02*
X15511968Y-11834698D01*
X15511968Y-11834698D02*
X15521491Y-11844222D01*
X15521491Y-11844222D02*
X15531015Y-11863269D01*
X15531015Y-11863269D02*
X15531015Y-11910888D01*
X15531015Y-11910888D02*
X15521491Y-11929936D01*
X15521491Y-11929936D02*
X15511968Y-11939460D01*
X15511968Y-11939460D02*
X15492920Y-11948984D01*
X15492920Y-11948984D02*
X15435777Y-11948984D01*
X15435777Y-11948984D02*
X15416729Y-11939460D01*
X15416729Y-11939460D02*
X15407206Y-11929936D01*
X15769110Y-11948984D02*
X15769110Y-11748984D01*
X15854825Y-11948984D02*
X15854825Y-11844222D01*
X15854825Y-11844222D02*
X15845301Y-11825174D01*
X15845301Y-11825174D02*
X15826253Y-11815650D01*
X15826253Y-11815650D02*
X15797682Y-11815650D01*
X15797682Y-11815650D02*
X15778634Y-11825174D01*
X15778634Y-11825174D02*
X15769110Y-11834698D01*
X15978634Y-11948984D02*
X15959587Y-11939460D01*
X15959587Y-11939460D02*
X15950063Y-11929936D01*
X15950063Y-11929936D02*
X15940539Y-11910888D01*
X15940539Y-11910888D02*
X15940539Y-11853746D01*
X15940539Y-11853746D02*
X15950063Y-11834698D01*
X15950063Y-11834698D02*
X15959587Y-11825174D01*
X15959587Y-11825174D02*
X15978634Y-11815650D01*
X15978634Y-11815650D02*
X16007206Y-11815650D01*
X16007206Y-11815650D02*
X16026253Y-11825174D01*
X16026253Y-11825174D02*
X16035777Y-11834698D01*
X16035777Y-11834698D02*
X16045301Y-11853746D01*
X16045301Y-11853746D02*
X16045301Y-11910888D01*
X16045301Y-11910888D02*
X16035777Y-11929936D01*
X16035777Y-11929936D02*
X16026253Y-11939460D01*
X16026253Y-11939460D02*
X16007206Y-11948984D01*
X16007206Y-11948984D02*
X15978634Y-11948984D01*
X16159587Y-11948984D02*
X16140539Y-11939460D01*
X16140539Y-11939460D02*
X16131015Y-11920412D01*
X16131015Y-11920412D02*
X16131015Y-11748984D01*
X16311968Y-11939460D02*
X16292920Y-11948984D01*
X16292920Y-11948984D02*
X16254825Y-11948984D01*
X16254825Y-11948984D02*
X16235777Y-11939460D01*
X16235777Y-11939460D02*
X16226253Y-11920412D01*
X16226253Y-11920412D02*
X16226253Y-11844222D01*
X16226253Y-11844222D02*
X16235777Y-11825174D01*
X16235777Y-11825174D02*
X16254825Y-11815650D01*
X16254825Y-11815650D02*
X16292920Y-11815650D01*
X16292920Y-11815650D02*
X16311968Y-11825174D01*
X16311968Y-11825174D02*
X16321491Y-11844222D01*
X16321491Y-11844222D02*
X16321491Y-11863269D01*
X16321491Y-11863269D02*
X16226253Y-11882317D01*
X16397682Y-11939460D02*
X16416730Y-11948984D01*
X16416730Y-11948984D02*
X16454825Y-11948984D01*
X16454825Y-11948984D02*
X16473872Y-11939460D01*
X16473872Y-11939460D02*
X16483396Y-11920412D01*
X16483396Y-11920412D02*
X16483396Y-11910888D01*
X16483396Y-11910888D02*
X16473872Y-11891841D01*
X16473872Y-11891841D02*
X16454825Y-11882317D01*
X16454825Y-11882317D02*
X16426253Y-11882317D01*
X16426253Y-11882317D02*
X16407206Y-11872793D01*
X16407206Y-11872793D02*
X16397682Y-11853746D01*
X16397682Y-11853746D02*
X16397682Y-11844222D01*
X16397682Y-11844222D02*
X16407206Y-11825174D01*
X16407206Y-11825174D02*
X16426253Y-11815650D01*
X16426253Y-11815650D02*
X16454825Y-11815650D01*
X16454825Y-11815650D02*
X16473872Y-11825174D01*
X16550063Y-12025174D02*
X16559587Y-12015650D01*
X16559587Y-12015650D02*
X16578634Y-11987079D01*
X16578634Y-11987079D02*
X16588158Y-11968031D01*
X16588158Y-11968031D02*
X16597682Y-11939460D01*
X16597682Y-11939460D02*
X16607206Y-11891841D01*
X16607206Y-11891841D02*
X16607206Y-11853746D01*
X16607206Y-11853746D02*
X16597682Y-11806127D01*
X16597682Y-11806127D02*
X16588158Y-11777555D01*
X16588158Y-11777555D02*
X16578634Y-11758508D01*
X16578634Y-11758508D02*
X16559587Y-11729936D01*
X16559587Y-11729936D02*
X16550063Y-11720412D01*
X16911968Y-12025174D02*
X16902444Y-12015650D01*
X16902444Y-12015650D02*
X16883396Y-11987079D01*
X16883396Y-11987079D02*
X16873873Y-11968031D01*
X16873873Y-11968031D02*
X16864349Y-11939460D01*
X16864349Y-11939460D02*
X16854825Y-11891841D01*
X16854825Y-11891841D02*
X16854825Y-11853746D01*
X16854825Y-11853746D02*
X16864349Y-11806127D01*
X16864349Y-11806127D02*
X16873873Y-11777555D01*
X16873873Y-11777555D02*
X16883396Y-11758508D01*
X16883396Y-11758508D02*
X16902444Y-11729936D01*
X16902444Y-11729936D02*
X16911968Y-11720412D01*
X16988158Y-11815650D02*
X16988158Y-11948984D01*
X16988158Y-11834698D02*
X16997682Y-11825174D01*
X16997682Y-11825174D02*
X17016730Y-11815650D01*
X17016730Y-11815650D02*
X17045301Y-11815650D01*
X17045301Y-11815650D02*
X17064349Y-11825174D01*
X17064349Y-11825174D02*
X17073873Y-11844222D01*
X17073873Y-11844222D02*
X17073873Y-11948984D01*
X17197682Y-11948984D02*
X17178634Y-11939460D01*
X17178634Y-11939460D02*
X17169111Y-11929936D01*
X17169111Y-11929936D02*
X17159587Y-11910888D01*
X17159587Y-11910888D02*
X17159587Y-11853746D01*
X17159587Y-11853746D02*
X17169111Y-11834698D01*
X17169111Y-11834698D02*
X17178634Y-11825174D01*
X17178634Y-11825174D02*
X17197682Y-11815650D01*
X17197682Y-11815650D02*
X17226254Y-11815650D01*
X17226254Y-11815650D02*
X17245301Y-11825174D01*
X17245301Y-11825174D02*
X17254825Y-11834698D01*
X17254825Y-11834698D02*
X17264349Y-11853746D01*
X17264349Y-11853746D02*
X17264349Y-11910888D01*
X17264349Y-11910888D02*
X17254825Y-11929936D01*
X17254825Y-11929936D02*
X17245301Y-11939460D01*
X17245301Y-11939460D02*
X17226254Y-11948984D01*
X17226254Y-11948984D02*
X17197682Y-11948984D01*
X17321492Y-11815650D02*
X17397682Y-11815650D01*
X17350063Y-11748984D02*
X17350063Y-11920412D01*
X17350063Y-11920412D02*
X17359587Y-11939460D01*
X17359587Y-11939460D02*
X17378634Y-11948984D01*
X17378634Y-11948984D02*
X17397682Y-11948984D01*
X17616730Y-11815650D02*
X17616730Y-12015650D01*
X17616730Y-11825174D02*
X17635777Y-11815650D01*
X17635777Y-11815650D02*
X17673873Y-11815650D01*
X17673873Y-11815650D02*
X17692920Y-11825174D01*
X17692920Y-11825174D02*
X17702444Y-11834698D01*
X17702444Y-11834698D02*
X17711968Y-11853746D01*
X17711968Y-11853746D02*
X17711968Y-11910888D01*
X17711968Y-11910888D02*
X17702444Y-11929936D01*
X17702444Y-11929936D02*
X17692920Y-11939460D01*
X17692920Y-11939460D02*
X17673873Y-11948984D01*
X17673873Y-11948984D02*
X17635777Y-11948984D01*
X17635777Y-11948984D02*
X17616730Y-11939460D01*
X17826254Y-11948984D02*
X17807206Y-11939460D01*
X17807206Y-11939460D02*
X17797682Y-11920412D01*
X17797682Y-11920412D02*
X17797682Y-11748984D01*
X17988158Y-11948984D02*
X17988158Y-11844222D01*
X17988158Y-11844222D02*
X17978635Y-11825174D01*
X17978635Y-11825174D02*
X17959587Y-11815650D01*
X17959587Y-11815650D02*
X17921492Y-11815650D01*
X17921492Y-11815650D02*
X17902444Y-11825174D01*
X17988158Y-11939460D02*
X17969111Y-11948984D01*
X17969111Y-11948984D02*
X17921492Y-11948984D01*
X17921492Y-11948984D02*
X17902444Y-11939460D01*
X17902444Y-11939460D02*
X17892920Y-11920412D01*
X17892920Y-11920412D02*
X17892920Y-11901365D01*
X17892920Y-11901365D02*
X17902444Y-11882317D01*
X17902444Y-11882317D02*
X17921492Y-11872793D01*
X17921492Y-11872793D02*
X17969111Y-11872793D01*
X17969111Y-11872793D02*
X17988158Y-11863269D01*
X18054825Y-11815650D02*
X18131015Y-11815650D01*
X18083396Y-11748984D02*
X18083396Y-11920412D01*
X18083396Y-11920412D02*
X18092920Y-11939460D01*
X18092920Y-11939460D02*
X18111968Y-11948984D01*
X18111968Y-11948984D02*
X18131015Y-11948984D01*
X18273873Y-11939460D02*
X18254825Y-11948984D01*
X18254825Y-11948984D02*
X18216730Y-11948984D01*
X18216730Y-11948984D02*
X18197682Y-11939460D01*
X18197682Y-11939460D02*
X18188158Y-11920412D01*
X18188158Y-11920412D02*
X18188158Y-11844222D01*
X18188158Y-11844222D02*
X18197682Y-11825174D01*
X18197682Y-11825174D02*
X18216730Y-11815650D01*
X18216730Y-11815650D02*
X18254825Y-11815650D01*
X18254825Y-11815650D02*
X18273873Y-11825174D01*
X18273873Y-11825174D02*
X18283396Y-11844222D01*
X18283396Y-11844222D02*
X18283396Y-11863269D01*
X18283396Y-11863269D02*
X18188158Y-11882317D01*
X18454825Y-11948984D02*
X18454825Y-11748984D01*
X18454825Y-11939460D02*
X18435777Y-11948984D01*
X18435777Y-11948984D02*
X18397682Y-11948984D01*
X18397682Y-11948984D02*
X18378635Y-11939460D01*
X18378635Y-11939460D02*
X18369111Y-11929936D01*
X18369111Y-11929936D02*
X18359587Y-11910888D01*
X18359587Y-11910888D02*
X18359587Y-11853746D01*
X18359587Y-11853746D02*
X18369111Y-11834698D01*
X18369111Y-11834698D02*
X18378635Y-11825174D01*
X18378635Y-11825174D02*
X18397682Y-11815650D01*
X18397682Y-11815650D02*
X18435777Y-11815650D01*
X18435777Y-11815650D02*
X18454825Y-11825174D01*
X18531016Y-12025174D02*
X18540539Y-12015650D01*
X18540539Y-12015650D02*
X18559587Y-11987079D01*
X18559587Y-11987079D02*
X18569111Y-11968031D01*
X18569111Y-11968031D02*
X18578635Y-11939460D01*
X18578635Y-11939460D02*
X18588158Y-11891841D01*
X18588158Y-11891841D02*
X18588158Y-11853746D01*
X18588158Y-11853746D02*
X18578635Y-11806127D01*
X18578635Y-11806127D02*
X18569111Y-11777555D01*
X18569111Y-11777555D02*
X18559587Y-11758508D01*
X18559587Y-11758508D02*
X18540539Y-11729936D01*
X18540539Y-11729936D02*
X18531016Y-11720412D01*
M02*
