%TF.GenerationSoftware,KiCad,Pcbnew,8.0.5*%
%TF.CreationDate,2025-11-20T22:31:33-08:00*%
%TF.ProjectId,receiver,72656365-6976-4657-922e-6b696361645f,rev?*%
%TF.SameCoordinates,Original*%
%TF.FileFunction,Copper,L2,Inr*%
%TF.FilePolarity,Positive*%
%FSLAX46Y46*%
G04 Gerber Fmt 4.6, Leading zero omitted, Abs format (unit mm)*
G04 Created by KiCad (PCBNEW 8.0.5) date 2025-11-20 22:31:33*
%MOMM*%
%LPD*%
G01*
G04 APERTURE LIST*
%TA.AperFunction,ComponentPad*%
%ADD10C,2.900000*%
%TD*%
%TA.AperFunction,ComponentPad*%
%ADD11R,1.700000X1.700000*%
%TD*%
%TA.AperFunction,ComponentPad*%
%ADD12O,1.700000X1.700000*%
%TD*%
%TA.AperFunction,ComponentPad*%
%ADD13R,1.600000X1.600000*%
%TD*%
%TA.AperFunction,ComponentPad*%
%ADD14O,1.600000X1.600000*%
%TD*%
%TA.AperFunction,ComponentPad*%
%ADD15R,1.498000X1.498000*%
%TD*%
%TA.AperFunction,ComponentPad*%
%ADD16C,1.498000*%
%TD*%
%TA.AperFunction,ComponentPad*%
%ADD17C,1.700000*%
%TD*%
%TA.AperFunction,ComponentPad*%
%ADD18C,1.524000*%
%TD*%
%TA.AperFunction,ViaPad*%
%ADD19C,0.600000*%
%TD*%
G04 APERTURE END LIST*
D10*
%TO.N,GND*%
%TO.C,H2*%
X121012500Y-108912500D03*
%TD*%
%TO.N,GND*%
%TO.C,H4*%
X145162500Y-47462500D03*
%TD*%
D11*
%TO.N,Net-(D4-K)*%
%TO.C,D4*%
X140420000Y-110000000D03*
D12*
%TO.N,Net-(D4-A)*%
X140420000Y-107460000D03*
%TD*%
D13*
%TO.N,Net-(M2-+)*%
%TO.C,U4*%
X127770000Y-97430000D03*
D14*
%TO.N,+9V*%
X130310000Y-97430000D03*
X132850000Y-97430000D03*
%TO.N,Net-(M2--)*%
X135390000Y-97430000D03*
%TO.N,GND*%
X135390000Y-89810000D03*
%TO.N,PWM4*%
X132850000Y-89810000D03*
%TO.N,PWM5*%
X130310000Y-89810000D03*
%TO.N,GND*%
X127770000Y-89810000D03*
%TD*%
D10*
%TO.N,GND*%
%TO.C,H3*%
X145162500Y-108912500D03*
%TD*%
D11*
%TO.N,Net-(D2-K)*%
%TO.C,D2*%
X126000000Y-46460000D03*
D12*
%TO.N,Net-(D2-A)*%
X128540000Y-46460000D03*
%TD*%
D15*
%TO.N,Net-(C2-Pad2)*%
%TO.C,SW2*%
X123820000Y-55480000D03*
D16*
X123820000Y-61980000D03*
%TO.N,GND*%
X119320000Y-55480000D03*
X119320000Y-61980000D03*
%TD*%
D11*
%TO.N,~{MCLR}*%
%TO.C,J1*%
X130050000Y-52190000D03*
D12*
%TO.N,+3.3V*%
X127510000Y-52190000D03*
%TO.N,GND*%
X124970000Y-52190000D03*
%TO.N,PGData*%
X122430000Y-52190000D03*
%TO.N,PGClk*%
X119890000Y-52190000D03*
%TD*%
D11*
%TO.N,PWM6*%
%TO.C,M1*%
X125335000Y-85980000D03*
D12*
%TO.N,+3.3V*%
X122795000Y-85980000D03*
%TO.N,GND*%
X120255000Y-85980000D03*
%TD*%
D10*
%TO.N,GND*%
%TO.C,H1*%
X121012500Y-47462500D03*
%TD*%
D11*
%TO.N,Net-(M2-+)*%
%TO.C,M2*%
X131860000Y-108550000D03*
D12*
%TO.N,Net-(M2--)*%
X134400000Y-108550000D03*
%TD*%
D11*
%TO.N,GND*%
%TO.C,SW1*%
X139250000Y-93750000D03*
D12*
%TO.N,+9V*%
X139250000Y-96290000D03*
%TO.N,Net-(BT1-+)*%
X139250000Y-98830000D03*
%TD*%
D11*
%TO.N,TXD*%
%TO.C,J2*%
X140870000Y-72880000D03*
D12*
%TO.N,RXD*%
X143410000Y-72880000D03*
%TO.N,GND*%
X145950000Y-72880000D03*
%TD*%
D11*
%TO.N,Net-(D1-K)*%
%TO.C,D1*%
X137600000Y-46450000D03*
D12*
%TO.N,Net-(D1-A)*%
X140140000Y-46450000D03*
%TD*%
D11*
%TO.N,Net-(D3-K)*%
%TO.C,D3*%
X125745000Y-107440000D03*
D12*
%TO.N,Net-(D3-A)*%
X125745000Y-109980000D03*
%TD*%
D11*
%TO.N,GND*%
%TO.C,U3*%
X139280000Y-53740000D03*
D17*
%TO.N,+3.3V*%
X141820000Y-53740000D03*
%TO.N,CE*%
X139280000Y-56280000D03*
%TO.N,CSN*%
X141820000Y-56280000D03*
%TO.N,SCK*%
X139280000Y-58820000D03*
%TO.N,MOSI*%
X141820000Y-58820000D03*
%TO.N,MISO*%
X139280000Y-61360000D03*
%TO.N,IRQ*%
X141820000Y-61360000D03*
%TD*%
D18*
%TO.N,Net-(BT1-+)*%
%TO.C,BT1*%
X139440000Y-103130000D03*
%TO.N,GND*%
X126740000Y-103130000D03*
%TD*%
D19*
%TO.N,GND*%
X120510000Y-93390000D03*
X124020000Y-68810000D03*
X146190000Y-92330000D03*
X143370000Y-93080000D03*
X136720000Y-66350000D03*
X125300000Y-64750000D03*
X136360000Y-50360000D03*
X127480000Y-57870000D03*
X141800000Y-76650000D03*
X135758511Y-48748511D03*
X119440000Y-69100000D03*
X137920000Y-67280000D03*
X121100000Y-68920000D03*
X135700000Y-53240000D03*
X145490000Y-100790000D03*
X136568802Y-59918802D03*
X136810000Y-85840000D03*
X122500000Y-100960000D03*
X140800000Y-89900000D03*
X127220000Y-49750000D03*
%TO.N,+3.3V*%
X147020000Y-67270000D03*
X142510000Y-100850000D03*
X135720000Y-58720000D03*
X124540000Y-49750000D03*
X119520000Y-100800000D03*
X127490000Y-56380000D03*
X120280001Y-67168254D03*
X140430000Y-79500000D03*
X124980000Y-68810000D03*
X138860000Y-49750000D03*
X137700000Y-89150000D03*
%TO.N,CSN*%
X135540000Y-63450000D03*
%TD*%
%TA.AperFunction,Conductor*%
%TO.N,GND*%
G36*
X147842539Y-44745185D02*
G01*
X147888294Y-44797989D01*
X147899500Y-44849500D01*
X147899500Y-66734694D01*
X147879815Y-66801733D01*
X147827011Y-66847488D01*
X147757853Y-66857432D01*
X147694297Y-66828407D01*
X147670507Y-66800666D01*
X147649820Y-66767743D01*
X147649815Y-66767737D01*
X147522262Y-66640184D01*
X147369523Y-66544211D01*
X147199254Y-66484631D01*
X147199249Y-66484630D01*
X147020004Y-66464435D01*
X147019996Y-66464435D01*
X146840750Y-66484630D01*
X146840745Y-66484631D01*
X146670476Y-66544211D01*
X146517737Y-66640184D01*
X146390184Y-66767737D01*
X146294211Y-66920476D01*
X146234631Y-67090745D01*
X146234630Y-67090750D01*
X146214435Y-67269996D01*
X146214435Y-67270003D01*
X146234630Y-67449249D01*
X146234631Y-67449254D01*
X146294211Y-67619523D01*
X146369494Y-67739334D01*
X146390184Y-67772262D01*
X146517738Y-67899816D01*
X146670478Y-67995789D01*
X146752901Y-68024630D01*
X146840745Y-68055368D01*
X146840750Y-68055369D01*
X147019996Y-68075565D01*
X147020000Y-68075565D01*
X147020004Y-68075565D01*
X147199249Y-68055369D01*
X147199252Y-68055368D01*
X147199255Y-68055368D01*
X147369522Y-67995789D01*
X147522262Y-67899816D01*
X147649816Y-67772262D01*
X147670506Y-67739333D01*
X147722840Y-67693042D01*
X147791893Y-67682393D01*
X147855742Y-67710768D01*
X147894114Y-67769158D01*
X147899500Y-67805305D01*
X147899500Y-111525500D01*
X147879815Y-111592539D01*
X147827011Y-111638294D01*
X147775500Y-111649500D01*
X118399500Y-111649500D01*
X118332461Y-111629815D01*
X118286706Y-111577011D01*
X118275500Y-111525500D01*
X118275500Y-108912498D01*
X119057519Y-108912498D01*
X119057519Y-108912501D01*
X119077418Y-109190723D01*
X119077419Y-109190730D01*
X119136707Y-109463274D01*
X119234189Y-109724634D01*
X119367861Y-109969438D01*
X119468102Y-110103343D01*
X119968820Y-109602625D01*
X120059054Y-109726820D01*
X120198180Y-109865946D01*
X120322373Y-109956178D01*
X119821655Y-110456896D01*
X119955561Y-110557137D01*
X119955561Y-110557138D01*
X120200365Y-110690810D01*
X120461725Y-110788292D01*
X120734269Y-110847580D01*
X120734276Y-110847581D01*
X121012499Y-110867481D01*
X121012501Y-110867481D01*
X121290723Y-110847581D01*
X121290730Y-110847580D01*
X121563274Y-110788292D01*
X121824634Y-110690810D01*
X122069442Y-110557135D01*
X122203342Y-110456896D01*
X122203343Y-110456896D01*
X121702626Y-109956178D01*
X121826820Y-109865946D01*
X121965946Y-109726820D01*
X122056179Y-109602626D01*
X122556896Y-110103343D01*
X122556896Y-110103342D01*
X122649232Y-109979999D01*
X124389341Y-109979999D01*
X124389341Y-109980000D01*
X124409936Y-110215403D01*
X124409938Y-110215413D01*
X124471094Y-110443655D01*
X124471096Y-110443659D01*
X124471097Y-110443663D01*
X124570965Y-110657830D01*
X124570967Y-110657834D01*
X124679281Y-110812521D01*
X124706505Y-110851401D01*
X124873599Y-111018495D01*
X124970384Y-111086265D01*
X125067165Y-111154032D01*
X125067167Y-111154033D01*
X125067170Y-111154035D01*
X125281337Y-111253903D01*
X125509592Y-111315063D01*
X125697918Y-111331539D01*
X125744999Y-111335659D01*
X125745000Y-111335659D01*
X125745001Y-111335659D01*
X125784234Y-111332226D01*
X125980408Y-111315063D01*
X126208663Y-111253903D01*
X126422830Y-111154035D01*
X126616401Y-111018495D01*
X126783495Y-110851401D01*
X126919035Y-110657830D01*
X127018903Y-110443663D01*
X127080063Y-110215408D01*
X127100659Y-109980000D01*
X127080063Y-109744592D01*
X127018903Y-109516337D01*
X126919035Y-109302171D01*
X126783495Y-109108599D01*
X126661567Y-108986671D01*
X126628084Y-108925351D01*
X126633068Y-108855659D01*
X126674939Y-108799725D01*
X126705915Y-108782810D01*
X126837331Y-108733796D01*
X126952546Y-108647546D01*
X127038796Y-108532331D01*
X127089091Y-108397483D01*
X127095500Y-108337873D01*
X127095500Y-107652135D01*
X130509500Y-107652135D01*
X130509500Y-109447870D01*
X130509501Y-109447876D01*
X130515908Y-109507483D01*
X130566202Y-109642328D01*
X130566206Y-109642335D01*
X130652452Y-109757544D01*
X130652455Y-109757547D01*
X130767664Y-109843793D01*
X130767671Y-109843797D01*
X130902517Y-109894091D01*
X130902516Y-109894091D01*
X130909444Y-109894835D01*
X130962127Y-109900500D01*
X132757872Y-109900499D01*
X132817483Y-109894091D01*
X132952331Y-109843796D01*
X133067546Y-109757546D01*
X133153796Y-109642331D01*
X133202810Y-109510916D01*
X133244681Y-109454984D01*
X133310145Y-109430566D01*
X133378418Y-109445417D01*
X133406673Y-109466569D01*
X133528599Y-109588495D01*
X133625384Y-109656265D01*
X133722165Y-109724032D01*
X133722167Y-109724033D01*
X133722170Y-109724035D01*
X133936337Y-109823903D01*
X134164592Y-109885063D01*
X134341034Y-109900500D01*
X134399999Y-109905659D01*
X134400000Y-109905659D01*
X134400001Y-109905659D01*
X134458966Y-109900500D01*
X134635408Y-109885063D01*
X134863663Y-109823903D01*
X135077830Y-109724035D01*
X135271401Y-109588495D01*
X135438495Y-109421401D01*
X135574035Y-109227830D01*
X135673903Y-109013663D01*
X135735063Y-108785408D01*
X135755659Y-108550000D01*
X135754113Y-108532335D01*
X135742315Y-108397482D01*
X135735063Y-108314592D01*
X135673903Y-108086337D01*
X135574035Y-107872171D01*
X135553893Y-107843404D01*
X135438494Y-107678597D01*
X135271402Y-107511506D01*
X135271395Y-107511501D01*
X135197843Y-107459999D01*
X139064341Y-107459999D01*
X139064341Y-107460000D01*
X139084936Y-107695403D01*
X139084938Y-107695413D01*
X139146094Y-107923655D01*
X139146096Y-107923659D01*
X139146097Y-107923663D01*
X139221953Y-108086337D01*
X139245965Y-108137830D01*
X139245967Y-108137834D01*
X139329659Y-108257357D01*
X139381501Y-108331396D01*
X139381506Y-108331402D01*
X139503430Y-108453326D01*
X139536915Y-108514649D01*
X139531931Y-108584341D01*
X139490059Y-108640274D01*
X139459083Y-108657189D01*
X139327669Y-108706203D01*
X139327664Y-108706206D01*
X139212455Y-108792452D01*
X139212452Y-108792455D01*
X139126206Y-108907664D01*
X139126202Y-108907671D01*
X139075908Y-109042517D01*
X139069501Y-109102116D01*
X139069501Y-109102123D01*
X139069500Y-109102135D01*
X139069500Y-110897870D01*
X139069501Y-110897876D01*
X139075908Y-110957483D01*
X139126202Y-111092328D01*
X139126206Y-111092335D01*
X139212452Y-111207544D01*
X139212455Y-111207547D01*
X139327664Y-111293793D01*
X139327671Y-111293797D01*
X139462517Y-111344091D01*
X139462516Y-111344091D01*
X139469444Y-111344835D01*
X139522127Y-111350500D01*
X141317872Y-111350499D01*
X141377483Y-111344091D01*
X141512331Y-111293796D01*
X141627546Y-111207546D01*
X141713796Y-111092331D01*
X141764091Y-110957483D01*
X141770500Y-110897873D01*
X141770499Y-109102128D01*
X141764091Y-109042517D01*
X141753329Y-109013663D01*
X141715597Y-108912498D01*
X143207519Y-108912498D01*
X143207519Y-108912501D01*
X143227418Y-109190723D01*
X143227419Y-109190730D01*
X143286707Y-109463274D01*
X143384189Y-109724634D01*
X143517861Y-109969438D01*
X143618102Y-110103343D01*
X144118820Y-109602625D01*
X144209054Y-109726820D01*
X144348180Y-109865946D01*
X144472373Y-109956178D01*
X143971655Y-110456896D01*
X144105561Y-110557137D01*
X144105561Y-110557138D01*
X144350365Y-110690810D01*
X144611725Y-110788292D01*
X144884269Y-110847580D01*
X144884276Y-110847581D01*
X145162499Y-110867481D01*
X145162501Y-110867481D01*
X145440723Y-110847581D01*
X145440730Y-110847580D01*
X145713274Y-110788292D01*
X145974634Y-110690810D01*
X146219442Y-110557135D01*
X146353342Y-110456896D01*
X146353343Y-110456896D01*
X145852626Y-109956178D01*
X145976820Y-109865946D01*
X146115946Y-109726820D01*
X146206179Y-109602626D01*
X146706896Y-110103343D01*
X146706896Y-110103342D01*
X146807135Y-109969442D01*
X146940810Y-109724634D01*
X147038292Y-109463274D01*
X147097580Y-109190730D01*
X147097581Y-109190723D01*
X147117481Y-108912501D01*
X147117481Y-108912498D01*
X147097581Y-108634276D01*
X147097580Y-108634269D01*
X147038292Y-108361725D01*
X146940810Y-108100365D01*
X146807138Y-107855561D01*
X146706896Y-107721655D01*
X146206178Y-108222373D01*
X146115946Y-108098180D01*
X145976820Y-107959054D01*
X145852625Y-107868820D01*
X146353343Y-107368102D01*
X146219438Y-107267862D01*
X146219438Y-107267861D01*
X145974634Y-107134189D01*
X145713274Y-107036707D01*
X145440730Y-106977419D01*
X145440723Y-106977418D01*
X145162501Y-106957519D01*
X145162499Y-106957519D01*
X144884276Y-106977418D01*
X144884269Y-106977419D01*
X144611725Y-107036707D01*
X144350365Y-107134189D01*
X144105561Y-107267861D01*
X144105554Y-107267866D01*
X143971656Y-107368101D01*
X143971655Y-107368102D01*
X144472374Y-107868820D01*
X144348180Y-107959054D01*
X144209054Y-108098180D01*
X144118820Y-108222373D01*
X143618102Y-107721655D01*
X143618101Y-107721656D01*
X143517866Y-107855554D01*
X143517861Y-107855561D01*
X143384189Y-108100365D01*
X143286707Y-108361725D01*
X143227419Y-108634269D01*
X143227418Y-108634276D01*
X143207519Y-108912498D01*
X141715597Y-108912498D01*
X141713797Y-108907671D01*
X141713793Y-108907664D01*
X141627547Y-108792455D01*
X141627544Y-108792452D01*
X141512335Y-108706206D01*
X141512328Y-108706202D01*
X141380917Y-108657189D01*
X141324983Y-108615318D01*
X141300566Y-108549853D01*
X141315418Y-108481580D01*
X141336563Y-108453332D01*
X141458495Y-108331401D01*
X141594035Y-108137830D01*
X141693903Y-107923663D01*
X141755063Y-107695408D01*
X141775659Y-107460000D01*
X141755063Y-107224592D01*
X141693903Y-106996337D01*
X141594035Y-106782171D01*
X141458495Y-106588599D01*
X141458494Y-106588597D01*
X141291402Y-106421506D01*
X141291395Y-106421501D01*
X141097834Y-106285967D01*
X141097830Y-106285965D01*
X141097828Y-106285964D01*
X140883663Y-106186097D01*
X140883659Y-106186096D01*
X140883655Y-106186094D01*
X140655413Y-106124938D01*
X140655403Y-106124936D01*
X140420001Y-106104341D01*
X140419999Y-106104341D01*
X140184596Y-106124936D01*
X140184586Y-106124938D01*
X139956344Y-106186094D01*
X139956335Y-106186098D01*
X139742171Y-106285964D01*
X139742169Y-106285965D01*
X139548597Y-106421505D01*
X139381505Y-106588597D01*
X139245965Y-106782169D01*
X139245964Y-106782171D01*
X139146098Y-106996335D01*
X139146094Y-106996344D01*
X139084938Y-107224586D01*
X139084936Y-107224596D01*
X139064341Y-107459999D01*
X135197843Y-107459999D01*
X135077834Y-107375967D01*
X135077830Y-107375965D01*
X135060966Y-107368101D01*
X134863663Y-107276097D01*
X134863659Y-107276096D01*
X134863655Y-107276094D01*
X134635413Y-107214938D01*
X134635403Y-107214936D01*
X134400001Y-107194341D01*
X134399999Y-107194341D01*
X134164596Y-107214936D01*
X134164586Y-107214938D01*
X133936344Y-107276094D01*
X133936335Y-107276098D01*
X133722171Y-107375964D01*
X133722169Y-107375965D01*
X133528600Y-107511503D01*
X133406673Y-107633430D01*
X133345350Y-107666914D01*
X133275658Y-107661930D01*
X133219725Y-107620058D01*
X133202810Y-107589081D01*
X133153797Y-107457671D01*
X133153793Y-107457664D01*
X133067547Y-107342455D01*
X133067544Y-107342452D01*
X132952335Y-107256206D01*
X132952328Y-107256202D01*
X132817482Y-107205908D01*
X132817483Y-107205908D01*
X132757883Y-107199501D01*
X132757881Y-107199500D01*
X132757873Y-107199500D01*
X132757864Y-107199500D01*
X130962129Y-107199500D01*
X130962123Y-107199501D01*
X130902516Y-107205908D01*
X130767671Y-107256202D01*
X130767664Y-107256206D01*
X130652455Y-107342452D01*
X130652452Y-107342455D01*
X130566206Y-107457664D01*
X130566202Y-107457671D01*
X130515908Y-107592517D01*
X130509501Y-107652116D01*
X130509500Y-107652135D01*
X127095500Y-107652135D01*
X127095499Y-106542128D01*
X127089091Y-106482517D01*
X127066335Y-106421506D01*
X127038797Y-106347671D01*
X127038793Y-106347664D01*
X126952547Y-106232455D01*
X126952544Y-106232452D01*
X126837335Y-106146206D01*
X126837328Y-106146202D01*
X126702482Y-106095908D01*
X126702483Y-106095908D01*
X126642883Y-106089501D01*
X126642881Y-106089500D01*
X126642873Y-106089500D01*
X126642864Y-106089500D01*
X124847129Y-106089500D01*
X124847123Y-106089501D01*
X124787516Y-106095908D01*
X124652671Y-106146202D01*
X124652664Y-106146206D01*
X124537455Y-106232452D01*
X124537452Y-106232455D01*
X124451206Y-106347664D01*
X124451202Y-106347671D01*
X124400908Y-106482517D01*
X124394501Y-106542116D01*
X124394501Y-106542123D01*
X124394500Y-106542135D01*
X124394500Y-108337870D01*
X124394501Y-108337876D01*
X124400908Y-108397483D01*
X124451202Y-108532328D01*
X124451206Y-108532335D01*
X124537452Y-108647544D01*
X124537455Y-108647547D01*
X124652664Y-108733793D01*
X124652671Y-108733797D01*
X124784081Y-108782810D01*
X124840015Y-108824681D01*
X124864432Y-108890145D01*
X124849580Y-108958418D01*
X124828430Y-108986673D01*
X124706503Y-109108600D01*
X124570965Y-109302169D01*
X124570964Y-109302171D01*
X124471098Y-109516335D01*
X124471094Y-109516344D01*
X124409938Y-109744586D01*
X124409936Y-109744596D01*
X124389341Y-109979999D01*
X122649232Y-109979999D01*
X122657135Y-109969442D01*
X122790810Y-109724634D01*
X122888292Y-109463274D01*
X122947580Y-109190730D01*
X122947581Y-109190723D01*
X122967481Y-108912501D01*
X122967481Y-108912498D01*
X122947581Y-108634276D01*
X122947580Y-108634269D01*
X122888292Y-108361725D01*
X122790810Y-108100365D01*
X122657138Y-107855561D01*
X122556896Y-107721655D01*
X122056178Y-108222373D01*
X121965946Y-108098180D01*
X121826820Y-107959054D01*
X121702625Y-107868820D01*
X122203343Y-107368102D01*
X122069438Y-107267862D01*
X122069438Y-107267861D01*
X121824634Y-107134189D01*
X121563274Y-107036707D01*
X121290730Y-106977419D01*
X121290723Y-106977418D01*
X121012501Y-106957519D01*
X121012499Y-106957519D01*
X120734276Y-106977418D01*
X120734269Y-106977419D01*
X120461725Y-107036707D01*
X120200365Y-107134189D01*
X119955561Y-107267861D01*
X119955554Y-107267866D01*
X119821656Y-107368101D01*
X119821655Y-107368102D01*
X120322374Y-107868820D01*
X120198180Y-107959054D01*
X120059054Y-108098180D01*
X119968820Y-108222373D01*
X119468102Y-107721655D01*
X119468101Y-107721656D01*
X119367866Y-107855554D01*
X119367861Y-107855561D01*
X119234189Y-108100365D01*
X119136707Y-108361725D01*
X119077419Y-108634269D01*
X119077418Y-108634276D01*
X119057519Y-108912498D01*
X118275500Y-108912498D01*
X118275500Y-103129999D01*
X125473179Y-103129999D01*
X125473179Y-103130000D01*
X125492424Y-103349976D01*
X125492426Y-103349986D01*
X125549575Y-103563270D01*
X125549580Y-103563284D01*
X125642898Y-103763405D01*
X125642901Y-103763411D01*
X125688258Y-103828187D01*
X125688259Y-103828188D01*
X126250504Y-103265942D01*
X126266619Y-103326081D01*
X126333498Y-103441920D01*
X126428080Y-103536502D01*
X126543919Y-103603381D01*
X126604057Y-103619494D01*
X126041810Y-104181740D01*
X126106590Y-104227099D01*
X126106592Y-104227100D01*
X126306715Y-104320419D01*
X126306729Y-104320424D01*
X126520013Y-104377573D01*
X126520023Y-104377575D01*
X126739999Y-104396821D01*
X126740001Y-104396821D01*
X126959976Y-104377575D01*
X126959986Y-104377573D01*
X127173270Y-104320424D01*
X127173284Y-104320419D01*
X127373407Y-104227100D01*
X127373417Y-104227094D01*
X127438188Y-104181741D01*
X126875942Y-103619494D01*
X126936081Y-103603381D01*
X127051920Y-103536502D01*
X127146502Y-103441920D01*
X127213381Y-103326081D01*
X127229495Y-103265942D01*
X127791741Y-103828188D01*
X127837094Y-103763417D01*
X127837100Y-103763407D01*
X127930419Y-103563284D01*
X127930424Y-103563270D01*
X127987573Y-103349986D01*
X127987575Y-103349976D01*
X128006821Y-103130000D01*
X128006821Y-103129999D01*
X128006821Y-103129997D01*
X138172677Y-103129997D01*
X138172677Y-103130002D01*
X138191929Y-103350062D01*
X138191930Y-103350070D01*
X138249104Y-103563445D01*
X138249105Y-103563447D01*
X138249106Y-103563450D01*
X138267726Y-103603381D01*
X138342466Y-103763662D01*
X138342468Y-103763666D01*
X138469170Y-103944615D01*
X138469175Y-103944621D01*
X138625378Y-104100824D01*
X138625384Y-104100829D01*
X138806333Y-104227531D01*
X138806335Y-104227532D01*
X138806338Y-104227534D01*
X139006550Y-104320894D01*
X139219932Y-104378070D01*
X139377123Y-104391822D01*
X139439998Y-104397323D01*
X139440000Y-104397323D01*
X139440002Y-104397323D01*
X139495017Y-104392509D01*
X139660068Y-104378070D01*
X139873450Y-104320894D01*
X140073662Y-104227534D01*
X140254620Y-104100826D01*
X140410826Y-103944620D01*
X140537534Y-103763662D01*
X140630894Y-103563450D01*
X140688070Y-103350068D01*
X140707323Y-103130000D01*
X140688070Y-102909932D01*
X140630894Y-102696550D01*
X140537534Y-102496339D01*
X140410826Y-102315380D01*
X140254620Y-102159174D01*
X140254616Y-102159171D01*
X140254615Y-102159170D01*
X140073666Y-102032468D01*
X140073662Y-102032466D01*
X140073660Y-102032465D01*
X139873450Y-101939106D01*
X139873447Y-101939105D01*
X139873445Y-101939104D01*
X139660070Y-101881930D01*
X139660062Y-101881929D01*
X139440002Y-101862677D01*
X139439998Y-101862677D01*
X139219937Y-101881929D01*
X139219929Y-101881930D01*
X139006554Y-101939104D01*
X139006548Y-101939107D01*
X138806340Y-102032465D01*
X138806338Y-102032466D01*
X138625377Y-102159175D01*
X138469175Y-102315377D01*
X138342466Y-102496338D01*
X138342465Y-102496340D01*
X138249107Y-102696548D01*
X138249104Y-102696554D01*
X138191930Y-102909929D01*
X138191929Y-102909937D01*
X138172677Y-103129997D01*
X128006821Y-103129997D01*
X127987575Y-102910023D01*
X127987573Y-102910013D01*
X127930424Y-102696729D01*
X127930420Y-102696720D01*
X127837096Y-102496586D01*
X127791741Y-102431811D01*
X127791740Y-102431810D01*
X127229494Y-102994056D01*
X127213381Y-102933919D01*
X127146502Y-102818080D01*
X127051920Y-102723498D01*
X126936081Y-102656619D01*
X126875942Y-102640505D01*
X127438188Y-102078259D01*
X127438187Y-102078258D01*
X127373411Y-102032901D01*
X127373405Y-102032898D01*
X127173284Y-101939580D01*
X127173270Y-101939575D01*
X126959986Y-101882426D01*
X126959976Y-101882424D01*
X126740001Y-101863179D01*
X126739999Y-101863179D01*
X126520023Y-101882424D01*
X126520013Y-101882426D01*
X126306729Y-101939575D01*
X126306720Y-101939579D01*
X126106590Y-102032901D01*
X126041811Y-102078258D01*
X126604057Y-102640504D01*
X126543919Y-102656619D01*
X126428080Y-102723498D01*
X126333498Y-102818080D01*
X126266619Y-102933919D01*
X126250504Y-102994057D01*
X125688258Y-102431811D01*
X125642901Y-102496590D01*
X125549579Y-102696720D01*
X125549575Y-102696729D01*
X125492426Y-102910013D01*
X125492424Y-102910023D01*
X125473179Y-103129999D01*
X118275500Y-103129999D01*
X118275500Y-100799996D01*
X118714435Y-100799996D01*
X118714435Y-100800003D01*
X118734630Y-100979249D01*
X118734631Y-100979254D01*
X118794211Y-101149523D01*
X118890184Y-101302262D01*
X119017738Y-101429816D01*
X119170478Y-101525789D01*
X119313367Y-101575788D01*
X119340745Y-101585368D01*
X119340750Y-101585369D01*
X119519996Y-101605565D01*
X119520000Y-101605565D01*
X119520004Y-101605565D01*
X119699249Y-101585369D01*
X119699252Y-101585368D01*
X119699255Y-101585368D01*
X119869522Y-101525789D01*
X120022262Y-101429816D01*
X120149816Y-101302262D01*
X120245789Y-101149522D01*
X120305368Y-100979255D01*
X120319931Y-100850003D01*
X120319932Y-100849996D01*
X141704435Y-100849996D01*
X141704435Y-100850003D01*
X141724630Y-101029249D01*
X141724631Y-101029254D01*
X141784211Y-101199523D01*
X141848767Y-101302262D01*
X141880184Y-101352262D01*
X142007738Y-101479816D01*
X142160478Y-101575789D01*
X142245573Y-101605565D01*
X142330745Y-101635368D01*
X142330750Y-101635369D01*
X142509996Y-101655565D01*
X142510000Y-101655565D01*
X142510004Y-101655565D01*
X142689249Y-101635369D01*
X142689252Y-101635368D01*
X142689255Y-101635368D01*
X142859522Y-101575789D01*
X143012262Y-101479816D01*
X143139816Y-101352262D01*
X143235789Y-101199522D01*
X143295368Y-101029255D01*
X143301002Y-100979254D01*
X143315565Y-100850003D01*
X143315565Y-100849996D01*
X143295369Y-100670750D01*
X143295368Y-100670745D01*
X143235788Y-100500476D01*
X143139815Y-100347737D01*
X143012262Y-100220184D01*
X142859523Y-100124211D01*
X142689254Y-100064631D01*
X142689249Y-100064630D01*
X142510004Y-100044435D01*
X142509996Y-100044435D01*
X142330750Y-100064630D01*
X142330745Y-100064631D01*
X142160476Y-100124211D01*
X142007737Y-100220184D01*
X141880184Y-100347737D01*
X141784211Y-100500476D01*
X141724631Y-100670745D01*
X141724630Y-100670750D01*
X141704435Y-100849996D01*
X120319932Y-100849996D01*
X120325565Y-100800003D01*
X120325565Y-100799996D01*
X120305369Y-100620750D01*
X120305368Y-100620745D01*
X120245788Y-100450476D01*
X120149815Y-100297737D01*
X120022262Y-100170184D01*
X119869523Y-100074211D01*
X119699254Y-100014631D01*
X119699249Y-100014630D01*
X119520004Y-99994435D01*
X119519996Y-99994435D01*
X119340750Y-100014630D01*
X119340745Y-100014631D01*
X119170476Y-100074211D01*
X119017737Y-100170184D01*
X118890184Y-100297737D01*
X118794211Y-100450476D01*
X118734631Y-100620745D01*
X118734630Y-100620750D01*
X118714435Y-100799996D01*
X118275500Y-100799996D01*
X118275500Y-96582135D01*
X126469500Y-96582135D01*
X126469500Y-98277870D01*
X126469501Y-98277876D01*
X126475908Y-98337483D01*
X126526202Y-98472328D01*
X126526206Y-98472335D01*
X126612452Y-98587544D01*
X126612455Y-98587547D01*
X126727664Y-98673793D01*
X126727671Y-98673797D01*
X126862517Y-98724091D01*
X126862516Y-98724091D01*
X126869444Y-98724835D01*
X126922127Y-98730500D01*
X128617872Y-98730499D01*
X128677483Y-98724091D01*
X128812331Y-98673796D01*
X128927546Y-98587546D01*
X129013796Y-98472331D01*
X129064091Y-98337483D01*
X129067862Y-98302401D01*
X129094599Y-98237855D01*
X129151990Y-98198006D01*
X129221816Y-98195511D01*
X129281905Y-98231163D01*
X129292726Y-98244536D01*
X129309956Y-98269143D01*
X129470858Y-98430045D01*
X129470861Y-98430047D01*
X129657266Y-98560568D01*
X129863504Y-98656739D01*
X130083308Y-98715635D01*
X130245230Y-98729801D01*
X130309998Y-98735468D01*
X130310000Y-98735468D01*
X130310002Y-98735468D01*
X130366807Y-98730498D01*
X130536692Y-98715635D01*
X130756496Y-98656739D01*
X130962734Y-98560568D01*
X131149139Y-98430047D01*
X131310047Y-98269139D01*
X131440568Y-98082734D01*
X131467618Y-98024724D01*
X131513790Y-97972285D01*
X131580983Y-97953133D01*
X131647865Y-97973348D01*
X131692382Y-98024725D01*
X131719429Y-98082728D01*
X131719432Y-98082734D01*
X131849954Y-98269141D01*
X132010858Y-98430045D01*
X132010861Y-98430047D01*
X132197266Y-98560568D01*
X132403504Y-98656739D01*
X132623308Y-98715635D01*
X132785230Y-98729801D01*
X132849998Y-98735468D01*
X132850000Y-98735468D01*
X132850002Y-98735468D01*
X132906807Y-98730498D01*
X133076692Y-98715635D01*
X133296496Y-98656739D01*
X133502734Y-98560568D01*
X133689139Y-98430047D01*
X133850047Y-98269139D01*
X133980568Y-98082734D01*
X134007618Y-98024724D01*
X134053790Y-97972285D01*
X134120983Y-97953133D01*
X134187865Y-97973348D01*
X134232382Y-98024725D01*
X134259429Y-98082728D01*
X134259432Y-98082734D01*
X134389954Y-98269141D01*
X134550858Y-98430045D01*
X134550861Y-98430047D01*
X134737266Y-98560568D01*
X134943504Y-98656739D01*
X135163308Y-98715635D01*
X135325230Y-98729801D01*
X135389998Y-98735468D01*
X135390000Y-98735468D01*
X135390002Y-98735468D01*
X135446807Y-98730498D01*
X135616692Y-98715635D01*
X135836496Y-98656739D01*
X136042734Y-98560568D01*
X136229139Y-98430047D01*
X136390047Y-98269139D01*
X136520568Y-98082734D01*
X136616739Y-97876496D01*
X136675635Y-97656692D01*
X136695468Y-97430000D01*
X136675635Y-97203308D01*
X136616739Y-96983504D01*
X136520568Y-96777266D01*
X136390047Y-96590861D01*
X136390045Y-96590858D01*
X136229141Y-96429954D01*
X136042734Y-96299432D01*
X136042732Y-96299431D01*
X136022505Y-96289999D01*
X137894341Y-96289999D01*
X137894341Y-96290000D01*
X137914936Y-96525403D01*
X137914938Y-96525413D01*
X137976094Y-96753655D01*
X137976096Y-96753659D01*
X137976097Y-96753663D01*
X138038110Y-96886650D01*
X138075965Y-96967830D01*
X138075967Y-96967834D01*
X138211501Y-97161395D01*
X138211506Y-97161402D01*
X138378597Y-97328493D01*
X138378603Y-97328498D01*
X138564158Y-97458425D01*
X138607783Y-97513002D01*
X138614977Y-97582500D01*
X138583454Y-97644855D01*
X138564158Y-97661575D01*
X138378597Y-97791505D01*
X138211505Y-97958597D01*
X138075965Y-98152169D01*
X138075964Y-98152171D01*
X137976098Y-98366335D01*
X137976094Y-98366344D01*
X137914938Y-98594586D01*
X137914936Y-98594596D01*
X137894341Y-98829999D01*
X137894341Y-98830000D01*
X137914936Y-99065403D01*
X137914938Y-99065413D01*
X137976094Y-99293655D01*
X137976096Y-99293659D01*
X137976097Y-99293663D01*
X138075965Y-99507830D01*
X138075967Y-99507834D01*
X138184281Y-99662521D01*
X138211505Y-99701401D01*
X138378599Y-99868495D01*
X138475384Y-99936265D01*
X138572165Y-100004032D01*
X138572167Y-100004033D01*
X138572170Y-100004035D01*
X138786337Y-100103903D01*
X139014592Y-100165063D01*
X139202918Y-100181539D01*
X139249999Y-100185659D01*
X139250000Y-100185659D01*
X139250001Y-100185659D01*
X139289234Y-100182226D01*
X139485408Y-100165063D01*
X139713663Y-100103903D01*
X139927830Y-100004035D01*
X140121401Y-99868495D01*
X140288495Y-99701401D01*
X140424035Y-99507830D01*
X140523903Y-99293663D01*
X140585063Y-99065408D01*
X140605659Y-98830000D01*
X140585063Y-98594592D01*
X140523903Y-98366337D01*
X140424035Y-98152171D01*
X140375414Y-98082732D01*
X140288494Y-97958597D01*
X140121402Y-97791506D01*
X140121396Y-97791501D01*
X139935842Y-97661575D01*
X139892217Y-97606998D01*
X139885023Y-97537500D01*
X139916546Y-97475145D01*
X139935842Y-97458425D01*
X139958026Y-97442891D01*
X140121401Y-97328495D01*
X140288495Y-97161401D01*
X140424035Y-96967830D01*
X140523903Y-96753663D01*
X140585063Y-96525408D01*
X140605659Y-96290000D01*
X140585063Y-96054592D01*
X140523903Y-95826337D01*
X140424035Y-95612171D01*
X140288495Y-95418599D01*
X140166179Y-95296283D01*
X140132696Y-95234963D01*
X140137680Y-95165271D01*
X140179551Y-95109337D01*
X140210529Y-95092422D01*
X140342086Y-95043354D01*
X140342093Y-95043350D01*
X140457187Y-94957190D01*
X140457190Y-94957187D01*
X140543350Y-94842093D01*
X140543354Y-94842086D01*
X140593596Y-94707379D01*
X140593598Y-94707372D01*
X140599999Y-94647844D01*
X140600000Y-94647827D01*
X140600000Y-94000000D01*
X139683012Y-94000000D01*
X139715925Y-93942993D01*
X139750000Y-93815826D01*
X139750000Y-93684174D01*
X139715925Y-93557007D01*
X139683012Y-93500000D01*
X140600000Y-93500000D01*
X140600000Y-92852172D01*
X140599999Y-92852155D01*
X140593598Y-92792627D01*
X140593596Y-92792620D01*
X140543354Y-92657913D01*
X140543350Y-92657906D01*
X140457190Y-92542812D01*
X140457187Y-92542809D01*
X140342093Y-92456649D01*
X140342086Y-92456645D01*
X140207379Y-92406403D01*
X140207372Y-92406401D01*
X140147844Y-92400000D01*
X139500000Y-92400000D01*
X139500000Y-93316988D01*
X139442993Y-93284075D01*
X139315826Y-93250000D01*
X139184174Y-93250000D01*
X139057007Y-93284075D01*
X139000000Y-93316988D01*
X139000000Y-92400000D01*
X138352155Y-92400000D01*
X138292627Y-92406401D01*
X138292620Y-92406403D01*
X138157913Y-92456645D01*
X138157906Y-92456649D01*
X138042812Y-92542809D01*
X138042809Y-92542812D01*
X137956649Y-92657906D01*
X137956645Y-92657913D01*
X137906403Y-92792620D01*
X137906401Y-92792627D01*
X137900000Y-92852155D01*
X137900000Y-93500000D01*
X138816988Y-93500000D01*
X138784075Y-93557007D01*
X138750000Y-93684174D01*
X138750000Y-93815826D01*
X138784075Y-93942993D01*
X138816988Y-94000000D01*
X137900000Y-94000000D01*
X137900000Y-94647844D01*
X137906401Y-94707372D01*
X137906403Y-94707379D01*
X137956645Y-94842086D01*
X137956649Y-94842093D01*
X138042809Y-94957187D01*
X138042812Y-94957190D01*
X138157906Y-95043350D01*
X138157913Y-95043354D01*
X138289470Y-95092421D01*
X138345403Y-95134292D01*
X138369821Y-95199756D01*
X138354970Y-95268029D01*
X138333819Y-95296284D01*
X138211503Y-95418600D01*
X138075965Y-95612169D01*
X138075964Y-95612171D01*
X137976098Y-95826335D01*
X137976094Y-95826344D01*
X137914938Y-96054586D01*
X137914936Y-96054596D01*
X137894341Y-96289999D01*
X136022505Y-96289999D01*
X135836497Y-96203261D01*
X135836488Y-96203258D01*
X135616697Y-96144366D01*
X135616693Y-96144365D01*
X135616692Y-96144365D01*
X135616691Y-96144364D01*
X135616686Y-96144364D01*
X135390002Y-96124532D01*
X135389998Y-96124532D01*
X135163313Y-96144364D01*
X135163302Y-96144366D01*
X134943511Y-96203258D01*
X134943502Y-96203261D01*
X134737267Y-96299431D01*
X134737265Y-96299432D01*
X134550858Y-96429954D01*
X134389954Y-96590858D01*
X134259432Y-96777265D01*
X134259431Y-96777267D01*
X134232382Y-96835275D01*
X134186209Y-96887714D01*
X134119016Y-96906866D01*
X134052135Y-96886650D01*
X134007618Y-96835275D01*
X133980568Y-96777267D01*
X133980567Y-96777265D01*
X133964035Y-96753655D01*
X133850047Y-96590861D01*
X133850045Y-96590858D01*
X133689141Y-96429954D01*
X133502734Y-96299432D01*
X133502732Y-96299431D01*
X133296497Y-96203261D01*
X133296488Y-96203258D01*
X133076697Y-96144366D01*
X133076693Y-96144365D01*
X133076692Y-96144365D01*
X133076691Y-96144364D01*
X133076686Y-96144364D01*
X132850002Y-96124532D01*
X132849998Y-96124532D01*
X132623313Y-96144364D01*
X132623302Y-96144366D01*
X132403511Y-96203258D01*
X132403502Y-96203261D01*
X132197267Y-96299431D01*
X132197265Y-96299432D01*
X132010858Y-96429954D01*
X131849954Y-96590858D01*
X131719432Y-96777265D01*
X131719431Y-96777267D01*
X131692382Y-96835275D01*
X131646209Y-96887714D01*
X131579016Y-96906866D01*
X131512135Y-96886650D01*
X131467618Y-96835275D01*
X131440568Y-96777267D01*
X131440567Y-96777265D01*
X131424035Y-96753655D01*
X131310047Y-96590861D01*
X131310045Y-96590858D01*
X131149141Y-96429954D01*
X130962734Y-96299432D01*
X130962732Y-96299431D01*
X130756497Y-96203261D01*
X130756488Y-96203258D01*
X130536697Y-96144366D01*
X130536693Y-96144365D01*
X130536692Y-96144365D01*
X130536691Y-96144364D01*
X130536686Y-96144364D01*
X130310002Y-96124532D01*
X130309998Y-96124532D01*
X130083313Y-96144364D01*
X130083302Y-96144366D01*
X129863511Y-96203258D01*
X129863502Y-96203261D01*
X129657267Y-96299431D01*
X129657265Y-96299432D01*
X129470858Y-96429954D01*
X129309954Y-96590858D01*
X129292725Y-96615464D01*
X129238147Y-96659088D01*
X129168648Y-96666280D01*
X129106294Y-96634757D01*
X129070882Y-96574526D01*
X129067861Y-96557591D01*
X129064091Y-96522516D01*
X129013797Y-96387671D01*
X129013793Y-96387664D01*
X128927547Y-96272455D01*
X128927544Y-96272452D01*
X128812335Y-96186206D01*
X128812328Y-96186202D01*
X128677482Y-96135908D01*
X128677483Y-96135908D01*
X128617883Y-96129501D01*
X128617881Y-96129500D01*
X128617873Y-96129500D01*
X128617864Y-96129500D01*
X126922129Y-96129500D01*
X126922123Y-96129501D01*
X126862516Y-96135908D01*
X126727671Y-96186202D01*
X126727664Y-96186206D01*
X126612455Y-96272452D01*
X126612452Y-96272455D01*
X126526206Y-96387664D01*
X126526202Y-96387671D01*
X126475908Y-96522517D01*
X126469501Y-96582116D01*
X126469500Y-96582135D01*
X118275500Y-96582135D01*
X118275500Y-91420172D01*
X120604500Y-91420172D01*
X120604500Y-91639827D01*
X120638861Y-91856776D01*
X120706741Y-92065688D01*
X120806464Y-92261404D01*
X120935566Y-92439101D01*
X121090898Y-92594433D01*
X121257181Y-92715242D01*
X121268599Y-92723538D01*
X121464314Y-92823260D01*
X121673220Y-92891138D01*
X121890172Y-92925500D01*
X121890173Y-92925500D01*
X122109827Y-92925500D01*
X122109828Y-92925500D01*
X122326780Y-92891138D01*
X122535686Y-92823260D01*
X122731401Y-92723538D01*
X122831174Y-92651049D01*
X122909101Y-92594433D01*
X122909103Y-92594430D01*
X122909107Y-92594428D01*
X123064428Y-92439107D01*
X123064430Y-92439103D01*
X123064433Y-92439101D01*
X123121049Y-92361174D01*
X123193538Y-92261401D01*
X123293260Y-92065686D01*
X123361138Y-91856780D01*
X123395500Y-91639828D01*
X123395500Y-91420172D01*
X123361138Y-91203220D01*
X123293260Y-90994314D01*
X123193538Y-90798599D01*
X123185242Y-90787181D01*
X123064433Y-90620898D01*
X122909101Y-90465566D01*
X122731404Y-90336464D01*
X122731403Y-90336463D01*
X122731401Y-90336462D01*
X122535686Y-90236740D01*
X122326780Y-90168862D01*
X122326778Y-90168861D01*
X122326777Y-90168861D01*
X122160120Y-90142465D01*
X122109828Y-90134500D01*
X121890172Y-90134500D01*
X121839879Y-90142465D01*
X121673223Y-90168861D01*
X121464311Y-90236741D01*
X121268595Y-90336464D01*
X121090898Y-90465566D01*
X120935566Y-90620898D01*
X120806464Y-90798595D01*
X120706741Y-90994311D01*
X120638861Y-91203223D01*
X120604500Y-91420172D01*
X118275500Y-91420172D01*
X118275500Y-89559999D01*
X126491127Y-89559999D01*
X126491128Y-89560000D01*
X127454314Y-89560000D01*
X127449920Y-89564394D01*
X127397259Y-89655606D01*
X127370000Y-89757339D01*
X127370000Y-89862661D01*
X127397259Y-89964394D01*
X127449920Y-90055606D01*
X127454314Y-90060000D01*
X126491128Y-90060000D01*
X126543730Y-90256317D01*
X126543734Y-90256326D01*
X126639865Y-90462482D01*
X126770342Y-90648820D01*
X126931179Y-90809657D01*
X127117517Y-90940134D01*
X127323673Y-91036265D01*
X127323682Y-91036269D01*
X127519999Y-91088872D01*
X127520000Y-91088871D01*
X127520000Y-90125686D01*
X127524394Y-90130080D01*
X127615606Y-90182741D01*
X127717339Y-90210000D01*
X127822661Y-90210000D01*
X127924394Y-90182741D01*
X128015606Y-90130080D01*
X128020000Y-90125686D01*
X128020000Y-91088872D01*
X128216317Y-91036269D01*
X128216326Y-91036265D01*
X128422482Y-90940134D01*
X128608820Y-90809657D01*
X128769657Y-90648820D01*
X128900132Y-90462484D01*
X128927341Y-90404134D01*
X128973513Y-90351695D01*
X129040707Y-90332542D01*
X129107588Y-90352757D01*
X129152106Y-90404133D01*
X129179431Y-90462732D01*
X129179432Y-90462734D01*
X129309954Y-90649141D01*
X129470858Y-90810045D01*
X129470861Y-90810047D01*
X129657266Y-90940568D01*
X129863504Y-91036739D01*
X130083308Y-91095635D01*
X130245230Y-91109801D01*
X130309998Y-91115468D01*
X130310000Y-91115468D01*
X130310002Y-91115468D01*
X130366673Y-91110509D01*
X130536692Y-91095635D01*
X130756496Y-91036739D01*
X130962734Y-90940568D01*
X131149139Y-90810047D01*
X131310047Y-90649139D01*
X131440568Y-90462734D01*
X131467618Y-90404724D01*
X131513790Y-90352285D01*
X131580983Y-90333133D01*
X131647865Y-90353348D01*
X131692382Y-90404725D01*
X131719429Y-90462728D01*
X131719432Y-90462734D01*
X131849954Y-90649141D01*
X132010858Y-90810045D01*
X132010861Y-90810047D01*
X132197266Y-90940568D01*
X132403504Y-91036739D01*
X132623308Y-91095635D01*
X132785230Y-91109801D01*
X132849998Y-91115468D01*
X132850000Y-91115468D01*
X132850002Y-91115468D01*
X132906673Y-91110509D01*
X133076692Y-91095635D01*
X133296496Y-91036739D01*
X133502734Y-90940568D01*
X133689139Y-90810047D01*
X133850047Y-90649139D01*
X133980568Y-90462734D01*
X134007895Y-90404129D01*
X134054064Y-90351695D01*
X134121257Y-90332542D01*
X134188139Y-90352757D01*
X134232657Y-90404133D01*
X134259865Y-90462482D01*
X134390342Y-90648820D01*
X134551179Y-90809657D01*
X134737517Y-90940134D01*
X134943673Y-91036265D01*
X134943682Y-91036269D01*
X135139999Y-91088872D01*
X135140000Y-91088871D01*
X135140000Y-90125686D01*
X135144394Y-90130080D01*
X135235606Y-90182741D01*
X135337339Y-90210000D01*
X135442661Y-90210000D01*
X135544394Y-90182741D01*
X135635606Y-90130080D01*
X135640000Y-90125686D01*
X135640000Y-91088872D01*
X135836317Y-91036269D01*
X135836326Y-91036265D01*
X136042482Y-90940134D01*
X136228820Y-90809657D01*
X136389657Y-90648820D01*
X136520134Y-90462482D01*
X136616265Y-90256326D01*
X136616269Y-90256317D01*
X136668872Y-90060000D01*
X135705686Y-90060000D01*
X135710080Y-90055606D01*
X135762741Y-89964394D01*
X135790000Y-89862661D01*
X135790000Y-89757339D01*
X135762741Y-89655606D01*
X135710080Y-89564394D01*
X135705686Y-89560000D01*
X136668872Y-89560000D01*
X136668872Y-89559999D01*
X136616269Y-89363682D01*
X136616265Y-89363673D01*
X136520134Y-89157517D01*
X136514868Y-89149996D01*
X136894435Y-89149996D01*
X136894435Y-89150003D01*
X136914630Y-89329249D01*
X136914631Y-89329254D01*
X136974211Y-89499523D01*
X137026857Y-89583308D01*
X137070184Y-89652262D01*
X137197738Y-89779816D01*
X137350478Y-89875789D01*
X137520745Y-89935368D01*
X137520750Y-89935369D01*
X137699996Y-89955565D01*
X137700000Y-89955565D01*
X137700004Y-89955565D01*
X137879249Y-89935369D01*
X137879252Y-89935368D01*
X137879255Y-89935368D01*
X138049522Y-89875789D01*
X138202262Y-89779816D01*
X138329816Y-89652262D01*
X138425789Y-89499522D01*
X138485368Y-89329255D01*
X138485369Y-89329249D01*
X138505565Y-89150003D01*
X138505565Y-89149996D01*
X138485369Y-88970750D01*
X138485368Y-88970745D01*
X138425789Y-88800478D01*
X138329816Y-88647738D01*
X138202262Y-88520184D01*
X138177352Y-88504532D01*
X138049523Y-88424211D01*
X137879254Y-88364631D01*
X137879249Y-88364630D01*
X137700004Y-88344435D01*
X137699996Y-88344435D01*
X137520750Y-88364630D01*
X137520745Y-88364631D01*
X137350476Y-88424211D01*
X137197737Y-88520184D01*
X137070184Y-88647737D01*
X136974211Y-88800476D01*
X136914631Y-88970745D01*
X136914630Y-88970750D01*
X136894435Y-89149996D01*
X136514868Y-89149996D01*
X136389657Y-88971179D01*
X136228820Y-88810342D01*
X136042482Y-88679865D01*
X135836328Y-88583734D01*
X135640000Y-88531127D01*
X135640000Y-89494314D01*
X135635606Y-89489920D01*
X135544394Y-89437259D01*
X135442661Y-89410000D01*
X135337339Y-89410000D01*
X135235606Y-89437259D01*
X135144394Y-89489920D01*
X135140000Y-89494314D01*
X135140000Y-88531127D01*
X134943671Y-88583734D01*
X134737517Y-88679865D01*
X134551179Y-88810342D01*
X134390342Y-88971179D01*
X134259867Y-89157515D01*
X134232657Y-89215867D01*
X134186484Y-89268306D01*
X134119290Y-89287457D01*
X134052409Y-89267241D01*
X134007893Y-89215865D01*
X133980685Y-89157518D01*
X133980568Y-89157266D01*
X133850047Y-88970861D01*
X133850045Y-88970858D01*
X133689141Y-88809954D01*
X133502734Y-88679432D01*
X133502732Y-88679431D01*
X133296497Y-88583261D01*
X133296488Y-88583258D01*
X133076697Y-88524366D01*
X133076693Y-88524365D01*
X133076692Y-88524365D01*
X133076691Y-88524364D01*
X133076686Y-88524364D01*
X132850002Y-88504532D01*
X132849998Y-88504532D01*
X132623313Y-88524364D01*
X132623302Y-88524366D01*
X132403511Y-88583258D01*
X132403502Y-88583261D01*
X132197267Y-88679431D01*
X132197265Y-88679432D01*
X132010858Y-88809954D01*
X131849954Y-88970858D01*
X131719432Y-89157265D01*
X131719431Y-89157267D01*
X131692382Y-89215275D01*
X131646209Y-89267714D01*
X131579016Y-89286866D01*
X131512135Y-89266650D01*
X131467618Y-89215275D01*
X131440686Y-89157520D01*
X131440568Y-89157266D01*
X131310047Y-88970861D01*
X131310045Y-88970858D01*
X131149141Y-88809954D01*
X130962734Y-88679432D01*
X130962732Y-88679431D01*
X130756497Y-88583261D01*
X130756488Y-88583258D01*
X130536697Y-88524366D01*
X130536693Y-88524365D01*
X130536692Y-88524365D01*
X130536691Y-88524364D01*
X130536686Y-88524364D01*
X130310002Y-88504532D01*
X130309998Y-88504532D01*
X130083313Y-88524364D01*
X130083302Y-88524366D01*
X129863511Y-88583258D01*
X129863502Y-88583261D01*
X129657267Y-88679431D01*
X129657265Y-88679432D01*
X129470858Y-88809954D01*
X129309954Y-88970858D01*
X129179433Y-89157264D01*
X129179432Y-89157266D01*
X129179315Y-89157518D01*
X129152106Y-89215867D01*
X129105933Y-89268306D01*
X129038739Y-89287457D01*
X128971858Y-89267241D01*
X128927342Y-89215865D01*
X128900135Y-89157520D01*
X128900134Y-89157518D01*
X128769657Y-88971179D01*
X128608820Y-88810342D01*
X128422482Y-88679865D01*
X128216328Y-88583734D01*
X128020000Y-88531127D01*
X128020000Y-89494314D01*
X128015606Y-89489920D01*
X127924394Y-89437259D01*
X127822661Y-89410000D01*
X127717339Y-89410000D01*
X127615606Y-89437259D01*
X127524394Y-89489920D01*
X127520000Y-89494314D01*
X127520000Y-88531127D01*
X127323671Y-88583734D01*
X127117517Y-88679865D01*
X126931179Y-88810342D01*
X126770342Y-88971179D01*
X126639865Y-89157517D01*
X126543734Y-89363673D01*
X126543730Y-89363682D01*
X126491127Y-89559999D01*
X118275500Y-89559999D01*
X118275500Y-85729999D01*
X118924364Y-85729999D01*
X118924364Y-85730000D01*
X119821988Y-85730000D01*
X119789075Y-85787007D01*
X119755000Y-85914174D01*
X119755000Y-86045826D01*
X119789075Y-86172993D01*
X119821988Y-86230000D01*
X118924364Y-86230000D01*
X118981567Y-86443486D01*
X118981570Y-86443492D01*
X119081399Y-86657578D01*
X119216894Y-86851082D01*
X119383917Y-87018105D01*
X119577421Y-87153600D01*
X119791507Y-87253429D01*
X119791516Y-87253433D01*
X120005000Y-87310634D01*
X120005000Y-86413012D01*
X120062007Y-86445925D01*
X120189174Y-86480000D01*
X120320826Y-86480000D01*
X120447993Y-86445925D01*
X120505000Y-86413012D01*
X120505000Y-87310633D01*
X120718483Y-87253433D01*
X120718492Y-87253429D01*
X120932578Y-87153600D01*
X121126082Y-87018105D01*
X121293105Y-86851082D01*
X121423119Y-86665405D01*
X121477696Y-86621781D01*
X121547195Y-86614588D01*
X121609549Y-86646110D01*
X121626269Y-86665405D01*
X121756505Y-86851401D01*
X121923599Y-87018495D01*
X122020384Y-87086265D01*
X122117165Y-87154032D01*
X122117167Y-87154033D01*
X122117170Y-87154035D01*
X122331337Y-87253903D01*
X122559592Y-87315063D01*
X122736034Y-87330500D01*
X122794999Y-87335659D01*
X122795000Y-87335659D01*
X122795001Y-87335659D01*
X122853966Y-87330500D01*
X123030408Y-87315063D01*
X123258663Y-87253903D01*
X123472830Y-87154035D01*
X123666401Y-87018495D01*
X123788329Y-86896566D01*
X123849648Y-86863084D01*
X123919340Y-86868068D01*
X123975274Y-86909939D01*
X123992189Y-86940917D01*
X124041202Y-87072328D01*
X124041206Y-87072335D01*
X124127452Y-87187544D01*
X124127455Y-87187547D01*
X124242664Y-87273793D01*
X124242671Y-87273797D01*
X124377517Y-87324091D01*
X124377516Y-87324091D01*
X124384444Y-87324835D01*
X124437127Y-87330500D01*
X126232872Y-87330499D01*
X126292483Y-87324091D01*
X126427331Y-87273796D01*
X126542546Y-87187546D01*
X126628796Y-87072331D01*
X126679091Y-86937483D01*
X126685500Y-86877873D01*
X126685499Y-85082128D01*
X126679091Y-85022517D01*
X126677810Y-85019083D01*
X126628797Y-84887671D01*
X126628793Y-84887664D01*
X126542547Y-84772455D01*
X126542544Y-84772452D01*
X126427335Y-84686206D01*
X126427328Y-84686202D01*
X126292482Y-84635908D01*
X126292483Y-84635908D01*
X126232883Y-84629501D01*
X126232881Y-84629500D01*
X126232873Y-84629500D01*
X126232864Y-84629500D01*
X124437129Y-84629500D01*
X124437123Y-84629501D01*
X124377516Y-84635908D01*
X124242671Y-84686202D01*
X124242664Y-84686206D01*
X124127455Y-84772452D01*
X124127452Y-84772455D01*
X124041206Y-84887664D01*
X124041203Y-84887669D01*
X123992189Y-85019083D01*
X123950317Y-85075016D01*
X123884853Y-85099433D01*
X123816580Y-85084581D01*
X123788326Y-85063430D01*
X123666402Y-84941506D01*
X123666395Y-84941501D01*
X123472834Y-84805967D01*
X123472830Y-84805965D01*
X123472828Y-84805964D01*
X123258663Y-84706097D01*
X123258659Y-84706096D01*
X123258655Y-84706094D01*
X123030413Y-84644938D01*
X123030403Y-84644936D01*
X122795001Y-84624341D01*
X122794999Y-84624341D01*
X122559596Y-84644936D01*
X122559586Y-84644938D01*
X122331344Y-84706094D01*
X122331335Y-84706098D01*
X122117171Y-84805964D01*
X122117169Y-84805965D01*
X121923597Y-84941505D01*
X121756508Y-85108594D01*
X121626269Y-85294595D01*
X121571692Y-85338219D01*
X121502193Y-85345412D01*
X121439839Y-85313890D01*
X121423119Y-85294594D01*
X121293113Y-85108926D01*
X121293108Y-85108920D01*
X121126082Y-84941894D01*
X120932578Y-84806399D01*
X120718492Y-84706570D01*
X120718486Y-84706567D01*
X120505000Y-84649364D01*
X120505000Y-85546988D01*
X120447993Y-85514075D01*
X120320826Y-85480000D01*
X120189174Y-85480000D01*
X120062007Y-85514075D01*
X120005000Y-85546988D01*
X120005000Y-84649364D01*
X120004999Y-84649364D01*
X119791513Y-84706567D01*
X119791507Y-84706570D01*
X119577422Y-84806399D01*
X119577420Y-84806400D01*
X119383926Y-84941886D01*
X119383920Y-84941891D01*
X119216891Y-85108920D01*
X119216886Y-85108926D01*
X119081400Y-85302420D01*
X119081399Y-85302422D01*
X118981570Y-85516507D01*
X118981567Y-85516513D01*
X118924364Y-85729999D01*
X118275500Y-85729999D01*
X118275500Y-79499996D01*
X139624435Y-79499996D01*
X139624435Y-79500003D01*
X139644630Y-79679249D01*
X139644631Y-79679254D01*
X139704211Y-79849523D01*
X139800184Y-80002262D01*
X139927738Y-80129816D01*
X140080478Y-80225789D01*
X140250745Y-80285368D01*
X140250750Y-80285369D01*
X140429996Y-80305565D01*
X140430000Y-80305565D01*
X140430004Y-80305565D01*
X140609249Y-80285369D01*
X140609252Y-80285368D01*
X140609255Y-80285368D01*
X140779522Y-80225789D01*
X140932262Y-80129816D01*
X141059816Y-80002262D01*
X141155789Y-79849522D01*
X141215368Y-79679255D01*
X141235565Y-79500000D01*
X141229424Y-79445500D01*
X141215369Y-79320750D01*
X141215368Y-79320745D01*
X141155788Y-79150476D01*
X141059815Y-78997737D01*
X140932262Y-78870184D01*
X140779523Y-78774211D01*
X140609254Y-78714631D01*
X140609249Y-78714630D01*
X140430004Y-78694435D01*
X140429996Y-78694435D01*
X140250750Y-78714630D01*
X140250745Y-78714631D01*
X140080476Y-78774211D01*
X139927737Y-78870184D01*
X139800184Y-78997737D01*
X139704211Y-79150476D01*
X139644631Y-79320745D01*
X139644630Y-79320750D01*
X139624435Y-79499996D01*
X118275500Y-79499996D01*
X118275500Y-77940172D01*
X142954500Y-77940172D01*
X142954500Y-78159828D01*
X142988862Y-78376780D01*
X143056740Y-78585686D01*
X143122441Y-78714632D01*
X143156464Y-78781404D01*
X143285566Y-78959101D01*
X143440898Y-79114433D01*
X143607181Y-79235242D01*
X143618599Y-79243538D01*
X143814314Y-79343260D01*
X144023220Y-79411138D01*
X144240172Y-79445500D01*
X144240173Y-79445500D01*
X144459827Y-79445500D01*
X144459828Y-79445500D01*
X144676780Y-79411138D01*
X144885686Y-79343260D01*
X145081401Y-79243538D01*
X145209491Y-79150476D01*
X145259101Y-79114433D01*
X145259103Y-79114430D01*
X145259107Y-79114428D01*
X145414428Y-78959107D01*
X145414430Y-78959103D01*
X145414433Y-78959101D01*
X145479034Y-78870184D01*
X145543538Y-78781401D01*
X145643260Y-78585686D01*
X145711138Y-78376780D01*
X145745500Y-78159828D01*
X145745500Y-77940172D01*
X145711138Y-77723220D01*
X145643260Y-77514314D01*
X145543538Y-77318599D01*
X145535242Y-77307181D01*
X145414433Y-77140898D01*
X145259101Y-76985566D01*
X145081404Y-76856464D01*
X145081403Y-76856463D01*
X145081401Y-76856462D01*
X144885686Y-76756740D01*
X144676780Y-76688862D01*
X144676778Y-76688861D01*
X144676777Y-76688861D01*
X144510120Y-76662465D01*
X144459828Y-76654500D01*
X144240172Y-76654500D01*
X144189879Y-76662465D01*
X144023223Y-76688861D01*
X143814311Y-76756741D01*
X143618595Y-76856464D01*
X143440898Y-76985566D01*
X143285566Y-77140898D01*
X143156464Y-77318595D01*
X143056741Y-77514311D01*
X142988861Y-77723223D01*
X142954500Y-77940172D01*
X118275500Y-77940172D01*
X118275500Y-71982135D01*
X139519500Y-71982135D01*
X139519500Y-73777870D01*
X139519501Y-73777876D01*
X139525908Y-73837483D01*
X139576202Y-73972328D01*
X139576206Y-73972335D01*
X139662452Y-74087544D01*
X139662455Y-74087547D01*
X139777664Y-74173793D01*
X139777671Y-74173797D01*
X139912517Y-74224091D01*
X139912516Y-74224091D01*
X139919444Y-74224835D01*
X139972127Y-74230500D01*
X141767872Y-74230499D01*
X141827483Y-74224091D01*
X141962331Y-74173796D01*
X142077546Y-74087546D01*
X142163796Y-73972331D01*
X142212810Y-73840916D01*
X142254681Y-73784984D01*
X142320145Y-73760566D01*
X142388418Y-73775417D01*
X142416673Y-73796569D01*
X142538599Y-73918495D01*
X142635384Y-73986265D01*
X142732165Y-74054032D01*
X142732167Y-74054033D01*
X142732170Y-74054035D01*
X142946337Y-74153903D01*
X143174592Y-74215063D01*
X143351034Y-74230500D01*
X143409999Y-74235659D01*
X143410000Y-74235659D01*
X143410001Y-74235659D01*
X143468966Y-74230500D01*
X143645408Y-74215063D01*
X143873663Y-74153903D01*
X144087830Y-74054035D01*
X144281401Y-73918495D01*
X144448495Y-73751401D01*
X144578730Y-73565405D01*
X144633307Y-73521781D01*
X144702805Y-73514587D01*
X144765160Y-73546110D01*
X144781879Y-73565405D01*
X144911890Y-73751078D01*
X145078917Y-73918105D01*
X145272421Y-74053600D01*
X145486507Y-74153429D01*
X145486516Y-74153433D01*
X145700000Y-74210634D01*
X145700000Y-73313012D01*
X145757007Y-73345925D01*
X145884174Y-73380000D01*
X146015826Y-73380000D01*
X146142993Y-73345925D01*
X146200000Y-73313012D01*
X146200000Y-74210633D01*
X146413483Y-74153433D01*
X146413492Y-74153429D01*
X146627578Y-74053600D01*
X146821082Y-73918105D01*
X146988105Y-73751082D01*
X147123600Y-73557578D01*
X147223429Y-73343492D01*
X147223432Y-73343486D01*
X147280636Y-73130000D01*
X146383012Y-73130000D01*
X146415925Y-73072993D01*
X146450000Y-72945826D01*
X146450000Y-72814174D01*
X146415925Y-72687007D01*
X146383012Y-72630000D01*
X147280636Y-72630000D01*
X147280635Y-72629999D01*
X147223432Y-72416513D01*
X147223429Y-72416507D01*
X147123600Y-72202422D01*
X147123599Y-72202420D01*
X146988113Y-72008926D01*
X146988108Y-72008920D01*
X146821082Y-71841894D01*
X146627578Y-71706399D01*
X146413492Y-71606570D01*
X146413486Y-71606567D01*
X146200000Y-71549364D01*
X146200000Y-72446988D01*
X146142993Y-72414075D01*
X146015826Y-72380000D01*
X145884174Y-72380000D01*
X145757007Y-72414075D01*
X145700000Y-72446988D01*
X145700000Y-71549364D01*
X145699999Y-71549364D01*
X145486513Y-71606567D01*
X145486507Y-71606570D01*
X145272422Y-71706399D01*
X145272420Y-71706400D01*
X145078926Y-71841886D01*
X145078920Y-71841891D01*
X144911891Y-72008920D01*
X144911890Y-72008922D01*
X144781880Y-72194595D01*
X144727303Y-72238219D01*
X144657804Y-72245412D01*
X144595450Y-72213890D01*
X144578730Y-72194594D01*
X144448494Y-72008597D01*
X144281402Y-71841506D01*
X144281395Y-71841501D01*
X144087834Y-71705967D01*
X144087830Y-71705965D01*
X144087828Y-71705964D01*
X143873663Y-71606097D01*
X143873659Y-71606096D01*
X143873655Y-71606094D01*
X143645413Y-71544938D01*
X143645403Y-71544936D01*
X143410001Y-71524341D01*
X143409999Y-71524341D01*
X143174596Y-71544936D01*
X143174586Y-71544938D01*
X142946344Y-71606094D01*
X142946335Y-71606098D01*
X142732171Y-71705964D01*
X142732169Y-71705965D01*
X142538600Y-71841503D01*
X142416673Y-71963430D01*
X142355350Y-71996914D01*
X142285658Y-71991930D01*
X142229725Y-71950058D01*
X142212810Y-71919081D01*
X142163797Y-71787671D01*
X142163793Y-71787664D01*
X142077547Y-71672455D01*
X142077544Y-71672452D01*
X141962335Y-71586206D01*
X141962328Y-71586202D01*
X141827482Y-71535908D01*
X141827483Y-71535908D01*
X141767883Y-71529501D01*
X141767881Y-71529500D01*
X141767873Y-71529500D01*
X141767864Y-71529500D01*
X139972129Y-71529500D01*
X139972123Y-71529501D01*
X139912516Y-71535908D01*
X139777671Y-71586202D01*
X139777664Y-71586206D01*
X139662455Y-71672452D01*
X139662452Y-71672455D01*
X139576206Y-71787664D01*
X139576202Y-71787671D01*
X139525908Y-71922517D01*
X139519501Y-71982116D01*
X139519500Y-71982135D01*
X118275500Y-71982135D01*
X118275500Y-68809996D01*
X124174435Y-68809996D01*
X124174435Y-68810003D01*
X124194630Y-68989249D01*
X124194631Y-68989254D01*
X124254211Y-69159523D01*
X124350184Y-69312262D01*
X124477738Y-69439816D01*
X124630478Y-69535789D01*
X124800745Y-69595368D01*
X124800750Y-69595369D01*
X124979996Y-69615565D01*
X124980000Y-69615565D01*
X124980004Y-69615565D01*
X125159249Y-69595369D01*
X125159252Y-69595368D01*
X125159255Y-69595368D01*
X125329522Y-69535789D01*
X125482262Y-69439816D01*
X125609816Y-69312262D01*
X125705789Y-69159522D01*
X125765368Y-68989255D01*
X125785565Y-68810000D01*
X125765368Y-68630745D01*
X125705789Y-68460478D01*
X125609816Y-68307738D01*
X125482262Y-68180184D01*
X125329523Y-68084211D01*
X125159254Y-68024631D01*
X125159249Y-68024630D01*
X124980004Y-68004435D01*
X124979996Y-68004435D01*
X124800750Y-68024630D01*
X124800745Y-68024631D01*
X124630476Y-68084211D01*
X124477737Y-68180184D01*
X124350184Y-68307737D01*
X124254211Y-68460476D01*
X124194631Y-68630745D01*
X124194630Y-68630750D01*
X124174435Y-68809996D01*
X118275500Y-68809996D01*
X118275500Y-67168250D01*
X119474436Y-67168250D01*
X119474436Y-67168257D01*
X119494631Y-67347503D01*
X119494632Y-67347508D01*
X119554212Y-67517777D01*
X119618143Y-67619522D01*
X119650185Y-67670516D01*
X119777739Y-67798070D01*
X119930479Y-67894043D01*
X120100746Y-67953622D01*
X120100751Y-67953623D01*
X120279997Y-67973819D01*
X120280001Y-67973819D01*
X120280005Y-67973819D01*
X120459250Y-67953623D01*
X120459253Y-67953622D01*
X120459256Y-67953622D01*
X120629523Y-67894043D01*
X120782263Y-67798070D01*
X120909817Y-67670516D01*
X121005790Y-67517776D01*
X121065369Y-67347509D01*
X121085566Y-67168254D01*
X121076833Y-67090750D01*
X121065370Y-66989004D01*
X121065369Y-66988999D01*
X121041392Y-66920476D01*
X121005790Y-66818732D01*
X120994438Y-66800666D01*
X120909816Y-66665991D01*
X120782263Y-66538438D01*
X120629524Y-66442465D01*
X120459255Y-66382885D01*
X120459250Y-66382884D01*
X120280005Y-66362689D01*
X120279997Y-66362689D01*
X120100751Y-66382884D01*
X120100746Y-66382885D01*
X119930477Y-66442465D01*
X119777738Y-66538438D01*
X119650185Y-66665991D01*
X119554212Y-66818730D01*
X119494632Y-66988999D01*
X119494631Y-66989004D01*
X119474436Y-67168250D01*
X118275500Y-67168250D01*
X118275500Y-64450172D01*
X120604500Y-64450172D01*
X120604500Y-64669827D01*
X120638861Y-64886776D01*
X120706741Y-65095688D01*
X120806464Y-65291404D01*
X120935566Y-65469101D01*
X121090898Y-65624433D01*
X121257181Y-65745242D01*
X121268599Y-65753538D01*
X121464314Y-65853260D01*
X121673220Y-65921138D01*
X121890172Y-65955500D01*
X121890173Y-65955500D01*
X122109827Y-65955500D01*
X122109828Y-65955500D01*
X122326780Y-65921138D01*
X122535686Y-65853260D01*
X122731401Y-65753538D01*
X122831174Y-65681049D01*
X122909101Y-65624433D01*
X122909103Y-65624430D01*
X122909107Y-65624428D01*
X123064428Y-65469107D01*
X123064430Y-65469103D01*
X123064433Y-65469101D01*
X123121049Y-65391174D01*
X123193538Y-65291401D01*
X123293260Y-65095686D01*
X123361138Y-64886780D01*
X123395500Y-64669828D01*
X123395500Y-64450172D01*
X123361138Y-64233220D01*
X123293260Y-64024314D01*
X123193538Y-63828599D01*
X123172413Y-63799523D01*
X123064433Y-63650898D01*
X122909101Y-63495566D01*
X122846378Y-63449996D01*
X134734435Y-63449996D01*
X134734435Y-63450003D01*
X134754630Y-63629249D01*
X134754631Y-63629254D01*
X134814211Y-63799523D01*
X134832481Y-63828599D01*
X134910184Y-63952262D01*
X135037738Y-64079816D01*
X135190478Y-64175789D01*
X135354606Y-64233220D01*
X135360745Y-64235368D01*
X135360750Y-64235369D01*
X135539996Y-64255565D01*
X135540000Y-64255565D01*
X135540004Y-64255565D01*
X135719249Y-64235369D01*
X135719252Y-64235368D01*
X135719255Y-64235368D01*
X135889522Y-64175789D01*
X136042262Y-64079816D01*
X136169816Y-63952262D01*
X136265789Y-63799522D01*
X136325368Y-63629255D01*
X136325369Y-63629249D01*
X136345565Y-63450003D01*
X136345565Y-63449996D01*
X136325369Y-63270750D01*
X136325368Y-63270745D01*
X136305938Y-63215218D01*
X136265789Y-63100478D01*
X136169816Y-62947738D01*
X136042262Y-62820184D01*
X135988228Y-62786232D01*
X135889523Y-62724211D01*
X135719254Y-62664631D01*
X135719249Y-62664630D01*
X135540004Y-62644435D01*
X135539996Y-62644435D01*
X135360750Y-62664630D01*
X135360745Y-62664631D01*
X135190476Y-62724211D01*
X135037737Y-62820184D01*
X134910184Y-62947737D01*
X134814211Y-63100476D01*
X134754631Y-63270745D01*
X134754630Y-63270750D01*
X134734435Y-63449996D01*
X122846378Y-63449996D01*
X122731404Y-63366464D01*
X122731403Y-63366463D01*
X122731401Y-63366462D01*
X122535686Y-63266740D01*
X122326780Y-63198862D01*
X122326778Y-63198861D01*
X122326777Y-63198861D01*
X122160120Y-63172465D01*
X122109828Y-63164500D01*
X121890172Y-63164500D01*
X121839879Y-63172465D01*
X121673223Y-63198861D01*
X121464311Y-63266741D01*
X121268595Y-63366464D01*
X121090898Y-63495566D01*
X120935566Y-63650898D01*
X120806464Y-63828595D01*
X120706741Y-64024311D01*
X120638861Y-64233223D01*
X120604500Y-64450172D01*
X118275500Y-64450172D01*
X118275500Y-62722307D01*
X118295185Y-62655268D01*
X118311819Y-62634626D01*
X118841119Y-62105326D01*
X118858734Y-62171063D01*
X118923902Y-62283937D01*
X119016063Y-62376098D01*
X119128937Y-62441266D01*
X119194672Y-62458880D01*
X118631145Y-63022406D01*
X118693115Y-63065798D01*
X118693117Y-63065799D01*
X118891178Y-63158156D01*
X118891192Y-63158161D01*
X119102279Y-63214721D01*
X119102289Y-63214723D01*
X119319999Y-63233771D01*
X119320001Y-63233771D01*
X119537710Y-63214723D01*
X119537720Y-63214721D01*
X119748807Y-63158161D01*
X119748821Y-63158156D01*
X119946883Y-63065799D01*
X119946890Y-63065795D01*
X120008853Y-63022406D01*
X119445327Y-62458879D01*
X119511063Y-62441266D01*
X119623937Y-62376098D01*
X119716098Y-62283937D01*
X119781266Y-62171063D01*
X119798880Y-62105327D01*
X120362406Y-62668853D01*
X120405795Y-62606890D01*
X120405799Y-62606883D01*
X120498156Y-62408821D01*
X120498161Y-62408807D01*
X120554721Y-62197720D01*
X120554723Y-62197710D01*
X120573771Y-61980000D01*
X120573771Y-61979999D01*
X120573771Y-61979998D01*
X122565727Y-61979998D01*
X122565727Y-61980001D01*
X122584781Y-62197796D01*
X122584783Y-62197807D01*
X122641366Y-62408979D01*
X122641368Y-62408983D01*
X122641369Y-62408987D01*
X122699680Y-62534035D01*
X122733768Y-62607137D01*
X122733770Y-62607141D01*
X122859167Y-62786226D01*
X122859172Y-62786232D01*
X123013767Y-62940827D01*
X123013773Y-62940832D01*
X123192858Y-63066229D01*
X123192860Y-63066230D01*
X123192863Y-63066232D01*
X123391013Y-63158631D01*
X123602198Y-63215218D01*
X123757770Y-63228828D01*
X123819998Y-63234273D01*
X123820000Y-63234273D01*
X123820002Y-63234273D01*
X123874450Y-63229509D01*
X124037802Y-63215218D01*
X124248987Y-63158631D01*
X124447137Y-63066232D01*
X124626231Y-62940829D01*
X124780829Y-62786231D01*
X124906232Y-62607137D01*
X124998631Y-62408987D01*
X125055218Y-62197802D01*
X125074273Y-61980000D01*
X125055218Y-61762198D01*
X124998631Y-61551013D01*
X124906232Y-61352864D01*
X124780829Y-61173769D01*
X124626231Y-61019171D01*
X124626227Y-61019168D01*
X124626226Y-61019167D01*
X124447141Y-60893770D01*
X124447137Y-60893768D01*
X124434697Y-60887967D01*
X124248987Y-60801369D01*
X124248983Y-60801368D01*
X124248979Y-60801366D01*
X124037807Y-60744783D01*
X124037803Y-60744782D01*
X124037802Y-60744782D01*
X124037801Y-60744781D01*
X124037796Y-60744781D01*
X123820002Y-60725727D01*
X123819998Y-60725727D01*
X123602203Y-60744781D01*
X123602192Y-60744783D01*
X123391020Y-60801366D01*
X123391011Y-60801370D01*
X123192866Y-60893766D01*
X123013766Y-61019172D01*
X122859172Y-61173766D01*
X122733766Y-61352866D01*
X122641370Y-61551011D01*
X122641366Y-61551020D01*
X122584783Y-61762192D01*
X122584781Y-61762203D01*
X122565727Y-61979998D01*
X120573771Y-61979998D01*
X120554723Y-61762289D01*
X120554721Y-61762279D01*
X120498161Y-61551192D01*
X120498156Y-61551178D01*
X120405801Y-61353121D01*
X120362405Y-61291145D01*
X119798879Y-61854671D01*
X119781266Y-61788937D01*
X119716098Y-61676063D01*
X119623937Y-61583902D01*
X119511063Y-61518734D01*
X119445326Y-61501119D01*
X120008853Y-60937592D01*
X119946884Y-60894201D01*
X119946882Y-60894200D01*
X119748821Y-60801843D01*
X119748807Y-60801838D01*
X119537720Y-60745278D01*
X119537710Y-60745276D01*
X119320001Y-60726229D01*
X119319999Y-60726229D01*
X119102289Y-60745276D01*
X119102279Y-60745278D01*
X118891192Y-60801838D01*
X118891178Y-60801843D01*
X118693114Y-60894202D01*
X118631145Y-60937591D01*
X119194673Y-61501119D01*
X119128937Y-61518734D01*
X119016063Y-61583902D01*
X118923902Y-61676063D01*
X118858734Y-61788937D01*
X118841119Y-61854673D01*
X118311819Y-61325373D01*
X118278334Y-61264050D01*
X118275500Y-61237692D01*
X118275500Y-58719996D01*
X134914435Y-58719996D01*
X134914435Y-58720003D01*
X134934630Y-58899249D01*
X134934631Y-58899254D01*
X134994211Y-59069523D01*
X135090184Y-59222262D01*
X135217738Y-59349816D01*
X135370478Y-59445789D01*
X135417427Y-59462217D01*
X135540745Y-59505368D01*
X135540750Y-59505369D01*
X135719996Y-59525565D01*
X135720000Y-59525565D01*
X135720004Y-59525565D01*
X135899249Y-59505369D01*
X135899252Y-59505368D01*
X135899255Y-59505368D01*
X136069522Y-59445789D01*
X136222262Y-59349816D01*
X136349816Y-59222262D01*
X136445789Y-59069522D01*
X136505368Y-58899255D01*
X136525565Y-58720000D01*
X136510308Y-58584592D01*
X136505369Y-58540750D01*
X136505368Y-58540745D01*
X136445788Y-58370476D01*
X136349815Y-58217737D01*
X136222262Y-58090184D01*
X136069523Y-57994211D01*
X135899254Y-57934631D01*
X135899249Y-57934630D01*
X135720004Y-57914435D01*
X135719996Y-57914435D01*
X135540750Y-57934630D01*
X135540745Y-57934631D01*
X135370476Y-57994211D01*
X135217737Y-58090184D01*
X135090184Y-58217737D01*
X134994211Y-58370476D01*
X134934631Y-58540745D01*
X134934630Y-58540750D01*
X134914435Y-58719996D01*
X118275500Y-58719996D01*
X118275500Y-56222307D01*
X118295185Y-56155268D01*
X118311819Y-56134626D01*
X118841119Y-55605326D01*
X118858734Y-55671063D01*
X118923902Y-55783937D01*
X119016063Y-55876098D01*
X119128937Y-55941266D01*
X119194672Y-55958880D01*
X118631145Y-56522406D01*
X118693115Y-56565798D01*
X118693117Y-56565799D01*
X118891178Y-56658156D01*
X118891192Y-56658161D01*
X119102279Y-56714721D01*
X119102289Y-56714723D01*
X119319999Y-56733771D01*
X119320001Y-56733771D01*
X119537710Y-56714723D01*
X119537720Y-56714721D01*
X119748807Y-56658161D01*
X119748821Y-56658156D01*
X119946883Y-56565799D01*
X119946890Y-56565795D01*
X120008853Y-56522406D01*
X119445327Y-55958879D01*
X119511063Y-55941266D01*
X119623937Y-55876098D01*
X119716098Y-55783937D01*
X119781266Y-55671063D01*
X119798880Y-55605327D01*
X120362406Y-56168853D01*
X120405795Y-56106890D01*
X120405799Y-56106883D01*
X120498156Y-55908821D01*
X120498161Y-55908807D01*
X120554721Y-55697720D01*
X120554723Y-55697710D01*
X120573771Y-55480000D01*
X120573771Y-55479999D01*
X120554723Y-55262289D01*
X120554721Y-55262279D01*
X120498161Y-55051192D01*
X120498156Y-55051178D01*
X120405801Y-54853121D01*
X120362405Y-54791145D01*
X119798879Y-55354671D01*
X119781266Y-55288937D01*
X119716098Y-55176063D01*
X119623937Y-55083902D01*
X119511063Y-55018734D01*
X119445326Y-55001119D01*
X119763310Y-54683135D01*
X122570500Y-54683135D01*
X122570500Y-56276870D01*
X122570501Y-56276876D01*
X122576908Y-56336483D01*
X122627202Y-56471328D01*
X122627206Y-56471335D01*
X122713452Y-56586544D01*
X122713455Y-56586547D01*
X122828664Y-56672793D01*
X122828671Y-56672797D01*
X122963517Y-56723091D01*
X122963516Y-56723091D01*
X122970444Y-56723835D01*
X123023127Y-56729500D01*
X124616872Y-56729499D01*
X124676483Y-56723091D01*
X124811331Y-56672796D01*
X124926546Y-56586546D01*
X125012796Y-56471331D01*
X125046862Y-56379996D01*
X126684435Y-56379996D01*
X126684435Y-56380003D01*
X126704630Y-56559249D01*
X126704631Y-56559254D01*
X126764211Y-56729523D01*
X126860184Y-56882262D01*
X126987738Y-57009816D01*
X127140478Y-57105789D01*
X127310745Y-57165368D01*
X127310750Y-57165369D01*
X127489996Y-57185565D01*
X127490000Y-57185565D01*
X127490004Y-57185565D01*
X127669249Y-57165369D01*
X127669252Y-57165368D01*
X127669255Y-57165368D01*
X127839522Y-57105789D01*
X127992262Y-57009816D01*
X128119816Y-56882262D01*
X128215789Y-56729522D01*
X128275368Y-56559255D01*
X128280308Y-56515413D01*
X128295565Y-56380003D01*
X128295565Y-56379996D01*
X128284298Y-56279999D01*
X137924341Y-56279999D01*
X137924341Y-56280000D01*
X137944936Y-56515403D01*
X137944938Y-56515413D01*
X138006094Y-56743655D01*
X138006096Y-56743659D01*
X138006097Y-56743663D01*
X138010000Y-56752032D01*
X138105965Y-56957830D01*
X138105967Y-56957834D01*
X138209566Y-57105788D01*
X138241501Y-57151396D01*
X138241506Y-57151402D01*
X138408597Y-57318493D01*
X138408603Y-57318498D01*
X138594158Y-57448425D01*
X138637783Y-57503002D01*
X138644977Y-57572500D01*
X138613454Y-57634855D01*
X138594158Y-57651575D01*
X138408597Y-57781505D01*
X138241505Y-57948597D01*
X138105965Y-58142169D01*
X138105964Y-58142171D01*
X138006098Y-58356335D01*
X138006094Y-58356344D01*
X137944938Y-58584586D01*
X137944936Y-58584596D01*
X137924341Y-58819999D01*
X137924341Y-58820000D01*
X137944936Y-59055403D01*
X137944938Y-59055413D01*
X138006094Y-59283655D01*
X138006096Y-59283659D01*
X138006097Y-59283663D01*
X138036945Y-59349816D01*
X138105965Y-59497830D01*
X138105967Y-59497834D01*
X138125385Y-59525565D01*
X138241501Y-59691396D01*
X138241506Y-59691402D01*
X138408597Y-59858493D01*
X138408603Y-59858498D01*
X138594158Y-59988425D01*
X138637783Y-60043002D01*
X138644977Y-60112500D01*
X138613454Y-60174855D01*
X138594158Y-60191575D01*
X138408597Y-60321505D01*
X138241505Y-60488597D01*
X138105965Y-60682169D01*
X138105964Y-60682171D01*
X138006098Y-60896335D01*
X138006094Y-60896344D01*
X137944938Y-61124586D01*
X137944936Y-61124596D01*
X137924341Y-61359999D01*
X137924341Y-61360000D01*
X137944936Y-61595403D01*
X137944938Y-61595413D01*
X138006094Y-61823655D01*
X138006096Y-61823659D01*
X138006097Y-61823663D01*
X138078998Y-61979999D01*
X138105965Y-62037830D01*
X138105967Y-62037834D01*
X138199256Y-62171063D01*
X138241505Y-62231401D01*
X138408599Y-62398495D01*
X138505384Y-62466265D01*
X138602165Y-62534032D01*
X138602167Y-62534033D01*
X138602170Y-62534035D01*
X138816337Y-62633903D01*
X139044592Y-62695063D01*
X139232918Y-62711539D01*
X139279999Y-62715659D01*
X139280000Y-62715659D01*
X139280001Y-62715659D01*
X139319234Y-62712226D01*
X139515408Y-62695063D01*
X139743663Y-62633903D01*
X139957830Y-62534035D01*
X140151401Y-62398495D01*
X140318495Y-62231401D01*
X140448425Y-62045842D01*
X140503002Y-62002217D01*
X140572500Y-61995023D01*
X140634855Y-62026546D01*
X140651575Y-62045842D01*
X140781500Y-62231395D01*
X140781505Y-62231401D01*
X140948599Y-62398495D01*
X141045384Y-62466265D01*
X141142165Y-62534032D01*
X141142167Y-62534033D01*
X141142170Y-62534035D01*
X141356337Y-62633903D01*
X141584592Y-62695063D01*
X141772918Y-62711539D01*
X141819999Y-62715659D01*
X141820000Y-62715659D01*
X141820001Y-62715659D01*
X141859234Y-62712226D01*
X142055408Y-62695063D01*
X142283663Y-62633903D01*
X142497830Y-62534035D01*
X142691401Y-62398495D01*
X142858495Y-62231401D01*
X142994035Y-62037830D01*
X143093903Y-61823663D01*
X143155063Y-61595408D01*
X143175659Y-61360000D01*
X143155063Y-61124592D01*
X143093903Y-60896337D01*
X142994035Y-60682171D01*
X142988425Y-60674158D01*
X142858494Y-60488597D01*
X142691402Y-60321506D01*
X142691396Y-60321501D01*
X142505842Y-60191575D01*
X142462217Y-60136998D01*
X142455023Y-60067500D01*
X142486546Y-60005145D01*
X142505842Y-59988425D01*
X142528026Y-59972891D01*
X142691401Y-59858495D01*
X142858495Y-59691401D01*
X142994035Y-59497830D01*
X143093903Y-59283663D01*
X143155063Y-59055408D01*
X143175659Y-58820000D01*
X143155063Y-58584592D01*
X143097692Y-58370478D01*
X143093905Y-58356344D01*
X143093904Y-58356343D01*
X143093903Y-58356337D01*
X142994035Y-58142171D01*
X142988425Y-58134158D01*
X142858494Y-57948597D01*
X142691402Y-57781506D01*
X142691396Y-57781501D01*
X142505842Y-57651575D01*
X142462217Y-57596998D01*
X142455023Y-57527500D01*
X142486546Y-57465145D01*
X142505842Y-57448425D01*
X142528026Y-57432891D01*
X142691401Y-57318495D01*
X142858495Y-57151401D01*
X142994035Y-56957830D01*
X143093903Y-56743663D01*
X143155063Y-56515408D01*
X143175659Y-56280000D01*
X143155063Y-56044592D01*
X143093903Y-55816337D01*
X142994035Y-55602171D01*
X142988757Y-55594632D01*
X142858494Y-55408597D01*
X142691402Y-55241506D01*
X142691396Y-55241501D01*
X142505842Y-55111575D01*
X142462217Y-55056998D01*
X142455023Y-54987500D01*
X142486546Y-54925145D01*
X142505842Y-54908425D01*
X142624452Y-54825373D01*
X142691401Y-54778495D01*
X142858495Y-54611401D01*
X142994035Y-54417830D01*
X143093903Y-54203663D01*
X143155063Y-53975408D01*
X143175659Y-53740000D01*
X143155063Y-53504592D01*
X143093903Y-53276337D01*
X142994035Y-53062171D01*
X142993496Y-53061400D01*
X142858494Y-52868597D01*
X142691402Y-52701506D01*
X142691395Y-52701501D01*
X142497834Y-52565967D01*
X142497830Y-52565965D01*
X142426727Y-52532809D01*
X142283663Y-52466097D01*
X142283659Y-52466096D01*
X142283655Y-52466094D01*
X142055413Y-52404938D01*
X142055403Y-52404936D01*
X141820001Y-52384341D01*
X141819999Y-52384341D01*
X141584596Y-52404936D01*
X141584586Y-52404938D01*
X141356344Y-52466094D01*
X141356335Y-52466098D01*
X141142171Y-52565964D01*
X141142169Y-52565965D01*
X140948600Y-52701503D01*
X140826284Y-52823819D01*
X140764961Y-52857303D01*
X140695269Y-52852319D01*
X140639336Y-52810447D01*
X140622421Y-52779470D01*
X140573354Y-52647913D01*
X140573350Y-52647906D01*
X140487190Y-52532812D01*
X140487187Y-52532809D01*
X140372093Y-52446649D01*
X140372086Y-52446645D01*
X140237379Y-52396403D01*
X140237372Y-52396401D01*
X140177844Y-52390000D01*
X139530000Y-52390000D01*
X139530000Y-53306988D01*
X139472993Y-53274075D01*
X139345826Y-53240000D01*
X139214174Y-53240000D01*
X139087007Y-53274075D01*
X139030000Y-53306988D01*
X139030000Y-52390000D01*
X138382155Y-52390000D01*
X138322627Y-52396401D01*
X138322620Y-52396403D01*
X138187913Y-52446645D01*
X138187906Y-52446649D01*
X138072812Y-52532809D01*
X138072809Y-52532812D01*
X137986649Y-52647906D01*
X137986645Y-52647913D01*
X137936403Y-52782620D01*
X137936401Y-52782627D01*
X137930000Y-52842155D01*
X137930000Y-53490000D01*
X138846988Y-53490000D01*
X138814075Y-53547007D01*
X138780000Y-53674174D01*
X138780000Y-53805826D01*
X138814075Y-53932993D01*
X138846988Y-53990000D01*
X137930000Y-53990000D01*
X137930000Y-54637844D01*
X137936401Y-54697372D01*
X137936403Y-54697379D01*
X137986645Y-54832086D01*
X137986649Y-54832093D01*
X138072809Y-54947187D01*
X138072812Y-54947190D01*
X138187906Y-55033350D01*
X138187913Y-55033354D01*
X138319470Y-55082421D01*
X138375403Y-55124292D01*
X138399821Y-55189756D01*
X138384970Y-55258029D01*
X138363819Y-55286284D01*
X138241503Y-55408600D01*
X138105965Y-55602169D01*
X138105964Y-55602171D01*
X138006098Y-55816335D01*
X138006094Y-55816344D01*
X137944938Y-56044586D01*
X137944936Y-56044596D01*
X137924341Y-56279999D01*
X128284298Y-56279999D01*
X128275369Y-56200750D01*
X128275368Y-56200745D01*
X128215789Y-56030478D01*
X128119816Y-55877738D01*
X127992262Y-55750184D01*
X127839523Y-55654211D01*
X127669254Y-55594631D01*
X127669249Y-55594630D01*
X127490004Y-55574435D01*
X127489996Y-55574435D01*
X127310750Y-55594630D01*
X127310745Y-55594631D01*
X127140476Y-55654211D01*
X126987737Y-55750184D01*
X126860184Y-55877737D01*
X126764211Y-56030476D01*
X126704631Y-56200745D01*
X126704630Y-56200750D01*
X126684435Y-56379996D01*
X125046862Y-56379996D01*
X125063091Y-56336483D01*
X125069500Y-56276873D01*
X125069499Y-54683128D01*
X125063091Y-54623517D01*
X125058572Y-54611402D01*
X125012797Y-54488671D01*
X125012793Y-54488664D01*
X124926547Y-54373455D01*
X124926544Y-54373452D01*
X124811335Y-54287206D01*
X124811328Y-54287202D01*
X124676482Y-54236908D01*
X124676483Y-54236908D01*
X124616883Y-54230501D01*
X124616881Y-54230500D01*
X124616873Y-54230500D01*
X124616864Y-54230500D01*
X123023129Y-54230500D01*
X123023123Y-54230501D01*
X122963516Y-54236908D01*
X122828671Y-54287202D01*
X122828664Y-54287206D01*
X122713455Y-54373452D01*
X122713452Y-54373455D01*
X122627206Y-54488664D01*
X122627202Y-54488671D01*
X122576908Y-54623517D01*
X122573397Y-54656181D01*
X122570501Y-54683123D01*
X122570500Y-54683135D01*
X119763310Y-54683135D01*
X120008853Y-54437592D01*
X119946884Y-54394201D01*
X119946882Y-54394200D01*
X119748821Y-54301843D01*
X119748807Y-54301838D01*
X119537720Y-54245278D01*
X119537710Y-54245276D01*
X119320001Y-54226229D01*
X119319999Y-54226229D01*
X119102289Y-54245276D01*
X119102279Y-54245278D01*
X118891192Y-54301838D01*
X118891178Y-54301843D01*
X118693114Y-54394202D01*
X118631145Y-54437591D01*
X119194673Y-55001119D01*
X119128937Y-55018734D01*
X119016063Y-55083902D01*
X118923902Y-55176063D01*
X118858734Y-55288937D01*
X118841119Y-55354673D01*
X118311819Y-54825373D01*
X118278334Y-54764050D01*
X118275500Y-54737692D01*
X118275500Y-52189999D01*
X118534341Y-52189999D01*
X118534341Y-52190000D01*
X118554936Y-52425403D01*
X118554938Y-52425413D01*
X118616094Y-52653655D01*
X118616096Y-52653659D01*
X118616097Y-52653663D01*
X118695801Y-52824588D01*
X118715965Y-52867830D01*
X118715967Y-52867834D01*
X118824281Y-53022521D01*
X118851505Y-53061401D01*
X119018599Y-53228495D01*
X119115384Y-53296265D01*
X119212165Y-53364032D01*
X119212167Y-53364033D01*
X119212170Y-53364035D01*
X119426337Y-53463903D01*
X119654592Y-53525063D01*
X119831034Y-53540500D01*
X119889999Y-53545659D01*
X119890000Y-53545659D01*
X119890001Y-53545659D01*
X119948966Y-53540500D01*
X120125408Y-53525063D01*
X120353663Y-53463903D01*
X120567830Y-53364035D01*
X120761401Y-53228495D01*
X120928495Y-53061401D01*
X121058425Y-52875842D01*
X121113002Y-52832217D01*
X121182500Y-52825023D01*
X121244855Y-52856546D01*
X121261575Y-52875842D01*
X121391500Y-53061395D01*
X121391505Y-53061401D01*
X121558599Y-53228495D01*
X121655384Y-53296265D01*
X121752165Y-53364032D01*
X121752167Y-53364033D01*
X121752170Y-53364035D01*
X121966337Y-53463903D01*
X122194592Y-53525063D01*
X122371034Y-53540500D01*
X122429999Y-53545659D01*
X122430000Y-53545659D01*
X122430001Y-53545659D01*
X122488966Y-53540500D01*
X122665408Y-53525063D01*
X122893663Y-53463903D01*
X123107830Y-53364035D01*
X123301401Y-53228495D01*
X123468495Y-53061401D01*
X123598730Y-52875405D01*
X123653307Y-52831781D01*
X123722805Y-52824587D01*
X123785160Y-52856110D01*
X123801879Y-52875405D01*
X123931890Y-53061078D01*
X124098917Y-53228105D01*
X124292421Y-53363600D01*
X124506507Y-53463429D01*
X124506516Y-53463433D01*
X124720000Y-53520634D01*
X124720000Y-52623012D01*
X124777007Y-52655925D01*
X124904174Y-52690000D01*
X125035826Y-52690000D01*
X125162993Y-52655925D01*
X125220000Y-52623012D01*
X125220000Y-53520633D01*
X125433483Y-53463433D01*
X125433492Y-53463429D01*
X125647578Y-53363600D01*
X125841082Y-53228105D01*
X126008105Y-53061082D01*
X126138119Y-52875405D01*
X126192696Y-52831781D01*
X126262195Y-52824588D01*
X126324549Y-52856110D01*
X126341269Y-52875405D01*
X126471505Y-53061401D01*
X126638599Y-53228495D01*
X126735384Y-53296265D01*
X126832165Y-53364032D01*
X126832167Y-53364033D01*
X126832170Y-53364035D01*
X127046337Y-53463903D01*
X127274592Y-53525063D01*
X127451034Y-53540500D01*
X127509999Y-53545659D01*
X127510000Y-53545659D01*
X127510001Y-53545659D01*
X127568966Y-53540500D01*
X127745408Y-53525063D01*
X127973663Y-53463903D01*
X128187830Y-53364035D01*
X128381401Y-53228495D01*
X128503329Y-53106566D01*
X128564648Y-53073084D01*
X128634340Y-53078068D01*
X128690274Y-53119939D01*
X128707189Y-53150917D01*
X128756202Y-53282328D01*
X128756206Y-53282335D01*
X128842452Y-53397544D01*
X128842455Y-53397547D01*
X128957664Y-53483793D01*
X128957671Y-53483797D01*
X129092517Y-53534091D01*
X129092516Y-53534091D01*
X129099444Y-53534835D01*
X129152127Y-53540500D01*
X130947872Y-53540499D01*
X131007483Y-53534091D01*
X131142331Y-53483796D01*
X131257546Y-53397546D01*
X131343796Y-53282331D01*
X131394091Y-53147483D01*
X131400500Y-53087873D01*
X131400499Y-51292128D01*
X131394091Y-51232517D01*
X131392810Y-51229083D01*
X131343797Y-51097671D01*
X131343793Y-51097664D01*
X131257547Y-50982455D01*
X131257544Y-50982452D01*
X131142335Y-50896206D01*
X131142328Y-50896202D01*
X131007482Y-50845908D01*
X131007483Y-50845908D01*
X130947883Y-50839501D01*
X130947881Y-50839500D01*
X130947873Y-50839500D01*
X130947864Y-50839500D01*
X129152129Y-50839500D01*
X129152123Y-50839501D01*
X129092516Y-50845908D01*
X128957671Y-50896202D01*
X128957664Y-50896206D01*
X128842455Y-50982452D01*
X128842452Y-50982455D01*
X128756206Y-51097664D01*
X128756203Y-51097669D01*
X128707189Y-51229083D01*
X128665317Y-51285016D01*
X128599853Y-51309433D01*
X128531580Y-51294581D01*
X128503326Y-51273430D01*
X128381402Y-51151506D01*
X128381395Y-51151501D01*
X128187834Y-51015967D01*
X128187830Y-51015965D01*
X128187828Y-51015964D01*
X127973663Y-50916097D01*
X127973659Y-50916096D01*
X127973655Y-50916094D01*
X127745413Y-50854938D01*
X127745403Y-50854936D01*
X127510001Y-50834341D01*
X127509999Y-50834341D01*
X127274596Y-50854936D01*
X127274586Y-50854938D01*
X127046344Y-50916094D01*
X127046335Y-50916098D01*
X126832171Y-51015964D01*
X126832169Y-51015965D01*
X126638597Y-51151505D01*
X126471508Y-51318594D01*
X126341269Y-51504595D01*
X126286692Y-51548219D01*
X126217193Y-51555412D01*
X126154839Y-51523890D01*
X126138119Y-51504594D01*
X126008113Y-51318926D01*
X126008108Y-51318920D01*
X125841082Y-51151894D01*
X125647578Y-51016399D01*
X125433492Y-50916570D01*
X125433486Y-50916567D01*
X125220000Y-50859364D01*
X125220000Y-51756988D01*
X125162993Y-51724075D01*
X125035826Y-51690000D01*
X124904174Y-51690000D01*
X124777007Y-51724075D01*
X124720000Y-51756988D01*
X124720000Y-50859364D01*
X124719999Y-50859364D01*
X124506513Y-50916567D01*
X124506507Y-50916570D01*
X124292422Y-51016399D01*
X124292420Y-51016400D01*
X124098926Y-51151886D01*
X124098920Y-51151891D01*
X123931891Y-51318920D01*
X123931890Y-51318922D01*
X123801880Y-51504595D01*
X123747303Y-51548219D01*
X123677804Y-51555412D01*
X123615450Y-51523890D01*
X123598730Y-51504594D01*
X123468494Y-51318597D01*
X123301402Y-51151506D01*
X123301395Y-51151501D01*
X123107834Y-51015967D01*
X123107830Y-51015965D01*
X123107828Y-51015964D01*
X122893663Y-50916097D01*
X122893659Y-50916096D01*
X122893655Y-50916094D01*
X122665413Y-50854938D01*
X122665403Y-50854936D01*
X122430001Y-50834341D01*
X122429999Y-50834341D01*
X122194596Y-50854936D01*
X122194586Y-50854938D01*
X121966344Y-50916094D01*
X121966335Y-50916098D01*
X121752171Y-51015964D01*
X121752169Y-51015965D01*
X121558597Y-51151505D01*
X121391505Y-51318597D01*
X121261575Y-51504158D01*
X121206998Y-51547783D01*
X121137500Y-51554977D01*
X121075145Y-51523454D01*
X121058425Y-51504158D01*
X120928494Y-51318597D01*
X120761402Y-51151506D01*
X120761395Y-51151501D01*
X120567834Y-51015967D01*
X120567830Y-51015965D01*
X120567828Y-51015964D01*
X120353663Y-50916097D01*
X120353659Y-50916096D01*
X120353655Y-50916094D01*
X120125413Y-50854938D01*
X120125403Y-50854936D01*
X119890001Y-50834341D01*
X119889999Y-50834341D01*
X119654596Y-50854936D01*
X119654586Y-50854938D01*
X119426344Y-50916094D01*
X119426335Y-50916098D01*
X119212171Y-51015964D01*
X119212169Y-51015965D01*
X119018597Y-51151505D01*
X118851505Y-51318597D01*
X118715965Y-51512169D01*
X118715964Y-51512171D01*
X118616098Y-51726335D01*
X118616094Y-51726344D01*
X118554938Y-51954586D01*
X118554936Y-51954596D01*
X118534341Y-52189999D01*
X118275500Y-52189999D01*
X118275500Y-49749996D01*
X123734435Y-49749996D01*
X123734435Y-49750003D01*
X123754630Y-49929249D01*
X123754631Y-49929254D01*
X123814211Y-50099523D01*
X123910184Y-50252262D01*
X124037738Y-50379816D01*
X124190478Y-50475789D01*
X124360745Y-50535368D01*
X124360750Y-50535369D01*
X124539996Y-50555565D01*
X124540000Y-50555565D01*
X124540004Y-50555565D01*
X124719249Y-50535369D01*
X124719252Y-50535368D01*
X124719255Y-50535368D01*
X124889522Y-50475789D01*
X125042262Y-50379816D01*
X125169816Y-50252262D01*
X125265789Y-50099522D01*
X125325368Y-49929255D01*
X125345565Y-49750000D01*
X125345565Y-49749996D01*
X138054435Y-49749996D01*
X138054435Y-49750003D01*
X138074630Y-49929249D01*
X138074631Y-49929254D01*
X138134211Y-50099523D01*
X138230184Y-50252262D01*
X138357738Y-50379816D01*
X138510478Y-50475789D01*
X138680745Y-50535368D01*
X138680750Y-50535369D01*
X138859996Y-50555565D01*
X138860000Y-50555565D01*
X138860004Y-50555565D01*
X139039249Y-50535369D01*
X139039252Y-50535368D01*
X139039255Y-50535368D01*
X139209522Y-50475789D01*
X139362262Y-50379816D01*
X139489816Y-50252262D01*
X139585789Y-50099522D01*
X139645368Y-49929255D01*
X139665565Y-49750000D01*
X139645368Y-49570745D01*
X139585789Y-49400478D01*
X139489816Y-49247738D01*
X139362262Y-49120184D01*
X139209523Y-49024211D01*
X139039254Y-48964631D01*
X139039249Y-48964630D01*
X138860004Y-48944435D01*
X138859996Y-48944435D01*
X138680750Y-48964630D01*
X138680745Y-48964631D01*
X138510476Y-49024211D01*
X138357737Y-49120184D01*
X138230184Y-49247737D01*
X138134211Y-49400476D01*
X138074631Y-49570745D01*
X138074630Y-49570750D01*
X138054435Y-49749996D01*
X125345565Y-49749996D01*
X125325368Y-49570745D01*
X125265789Y-49400478D01*
X125169816Y-49247738D01*
X125042262Y-49120184D01*
X124889523Y-49024211D01*
X124719254Y-48964631D01*
X124719249Y-48964630D01*
X124540004Y-48944435D01*
X124539996Y-48944435D01*
X124360750Y-48964630D01*
X124360745Y-48964631D01*
X124190476Y-49024211D01*
X124037737Y-49120184D01*
X123910184Y-49247737D01*
X123814211Y-49400476D01*
X123754631Y-49570745D01*
X123754630Y-49570750D01*
X123734435Y-49749996D01*
X118275500Y-49749996D01*
X118275500Y-47462498D01*
X119057519Y-47462498D01*
X119057519Y-47462501D01*
X119077418Y-47740723D01*
X119077419Y-47740730D01*
X119136707Y-48013274D01*
X119234189Y-48274634D01*
X119367861Y-48519438D01*
X119468102Y-48653343D01*
X119968820Y-48152625D01*
X120059054Y-48276820D01*
X120198180Y-48415946D01*
X120322373Y-48506178D01*
X119821655Y-49006896D01*
X119955561Y-49107137D01*
X119955561Y-49107138D01*
X120200365Y-49240810D01*
X120461725Y-49338292D01*
X120734269Y-49397580D01*
X120734276Y-49397581D01*
X121012499Y-49417481D01*
X121012501Y-49417481D01*
X121290723Y-49397581D01*
X121290730Y-49397580D01*
X121563274Y-49338292D01*
X121824634Y-49240810D01*
X122069442Y-49107135D01*
X122203342Y-49006896D01*
X122203343Y-49006896D01*
X121702626Y-48506178D01*
X121826820Y-48415946D01*
X121965946Y-48276820D01*
X122056179Y-48152626D01*
X122556896Y-48653343D01*
X122556896Y-48653342D01*
X122657135Y-48519442D01*
X122790810Y-48274634D01*
X122888292Y-48013274D01*
X122947580Y-47740730D01*
X122947581Y-47740723D01*
X122967481Y-47462501D01*
X122967481Y-47462498D01*
X122947581Y-47184276D01*
X122947580Y-47184269D01*
X122888292Y-46911725D01*
X122790810Y-46650365D01*
X122657138Y-46405561D01*
X122556896Y-46271655D01*
X122056178Y-46772373D01*
X121965946Y-46648180D01*
X121826820Y-46509054D01*
X121702625Y-46418820D01*
X122203343Y-45918102D01*
X122069438Y-45817862D01*
X122069438Y-45817861D01*
X121824634Y-45684189D01*
X121563274Y-45586707D01*
X121450318Y-45562135D01*
X124649500Y-45562135D01*
X124649500Y-47357870D01*
X124649501Y-47357876D01*
X124655908Y-47417483D01*
X124706202Y-47552328D01*
X124706206Y-47552335D01*
X124792452Y-47667544D01*
X124792455Y-47667547D01*
X124907664Y-47753793D01*
X124907671Y-47753797D01*
X125042517Y-47804091D01*
X125042516Y-47804091D01*
X125049444Y-47804835D01*
X125102127Y-47810500D01*
X126897872Y-47810499D01*
X126957483Y-47804091D01*
X127092331Y-47753796D01*
X127207546Y-47667546D01*
X127293796Y-47552331D01*
X127342810Y-47420916D01*
X127384681Y-47364984D01*
X127450145Y-47340566D01*
X127518418Y-47355417D01*
X127546673Y-47376569D01*
X127668599Y-47498495D01*
X127757690Y-47560877D01*
X127862165Y-47634032D01*
X127862167Y-47634033D01*
X127862170Y-47634035D01*
X128076337Y-47733903D01*
X128076343Y-47733904D01*
X128076344Y-47733905D01*
X128113262Y-47743797D01*
X128304592Y-47795063D01*
X128481034Y-47810500D01*
X128539999Y-47815659D01*
X128540000Y-47815659D01*
X128540001Y-47815659D01*
X128598966Y-47810500D01*
X128775408Y-47795063D01*
X129003663Y-47733903D01*
X129217830Y-47634035D01*
X129411401Y-47498495D01*
X129578495Y-47331401D01*
X129714035Y-47137830D01*
X129813903Y-46923663D01*
X129875063Y-46695408D01*
X129895659Y-46460000D01*
X129875063Y-46224592D01*
X129813903Y-45996337D01*
X129714035Y-45782171D01*
X129578495Y-45588599D01*
X129578494Y-45588597D01*
X129542032Y-45552135D01*
X136249500Y-45552135D01*
X136249500Y-47347870D01*
X136249501Y-47347876D01*
X136255908Y-47407483D01*
X136306202Y-47542328D01*
X136306206Y-47542335D01*
X136392452Y-47657544D01*
X136392455Y-47657547D01*
X136507664Y-47743793D01*
X136507671Y-47743797D01*
X136642517Y-47794091D01*
X136642516Y-47794091D01*
X136649444Y-47794835D01*
X136702127Y-47800500D01*
X138497872Y-47800499D01*
X138557483Y-47794091D01*
X138692331Y-47743796D01*
X138807546Y-47657546D01*
X138893796Y-47542331D01*
X138942810Y-47410916D01*
X138984681Y-47354984D01*
X139050145Y-47330566D01*
X139118418Y-47345417D01*
X139146673Y-47366569D01*
X139268599Y-47488495D01*
X139359762Y-47552328D01*
X139462165Y-47624032D01*
X139462167Y-47624033D01*
X139462170Y-47624035D01*
X139676337Y-47723903D01*
X139904592Y-47785063D01*
X140081034Y-47800500D01*
X140139999Y-47805659D01*
X140140000Y-47805659D01*
X140140001Y-47805659D01*
X140198966Y-47800500D01*
X140375408Y-47785063D01*
X140603663Y-47723903D01*
X140817830Y-47624035D01*
X141011401Y-47488495D01*
X141037398Y-47462498D01*
X143207519Y-47462498D01*
X143207519Y-47462501D01*
X143227418Y-47740723D01*
X143227419Y-47740730D01*
X143286707Y-48013274D01*
X143384189Y-48274634D01*
X143517861Y-48519438D01*
X143618102Y-48653343D01*
X144118820Y-48152625D01*
X144209054Y-48276820D01*
X144348180Y-48415946D01*
X144472373Y-48506178D01*
X143971655Y-49006896D01*
X144105561Y-49107137D01*
X144105561Y-49107138D01*
X144350365Y-49240810D01*
X144611725Y-49338292D01*
X144884269Y-49397580D01*
X144884276Y-49397581D01*
X145162499Y-49417481D01*
X145162501Y-49417481D01*
X145440723Y-49397581D01*
X145440730Y-49397580D01*
X145713274Y-49338292D01*
X145974634Y-49240810D01*
X146219442Y-49107135D01*
X146353342Y-49006896D01*
X146353343Y-49006896D01*
X145852626Y-48506178D01*
X145976820Y-48415946D01*
X146115946Y-48276820D01*
X146206179Y-48152626D01*
X146706896Y-48653343D01*
X146706896Y-48653342D01*
X146807135Y-48519442D01*
X146940810Y-48274634D01*
X147038292Y-48013274D01*
X147097580Y-47740730D01*
X147097581Y-47740723D01*
X147117481Y-47462501D01*
X147117481Y-47462498D01*
X147097581Y-47184276D01*
X147097580Y-47184269D01*
X147038292Y-46911725D01*
X146940810Y-46650365D01*
X146807138Y-46405561D01*
X146706896Y-46271655D01*
X146206178Y-46772373D01*
X146115946Y-46648180D01*
X145976820Y-46509054D01*
X145852625Y-46418820D01*
X146353343Y-45918102D01*
X146219438Y-45817862D01*
X146219438Y-45817861D01*
X145974634Y-45684189D01*
X145713274Y-45586707D01*
X145440730Y-45527419D01*
X145440723Y-45527418D01*
X145162501Y-45507519D01*
X145162499Y-45507519D01*
X144884276Y-45527418D01*
X144884269Y-45527419D01*
X144611725Y-45586707D01*
X144350365Y-45684189D01*
X144105561Y-45817861D01*
X144105554Y-45817866D01*
X143971656Y-45918101D01*
X143971655Y-45918102D01*
X144472374Y-46418820D01*
X144348180Y-46509054D01*
X144209054Y-46648180D01*
X144118820Y-46772373D01*
X143618102Y-46271655D01*
X143618101Y-46271656D01*
X143517866Y-46405554D01*
X143517861Y-46405561D01*
X143384189Y-46650365D01*
X143286707Y-46911725D01*
X143227419Y-47184269D01*
X143227418Y-47184276D01*
X143207519Y-47462498D01*
X141037398Y-47462498D01*
X141178495Y-47321401D01*
X141314035Y-47127830D01*
X141413903Y-46913663D01*
X141475063Y-46685408D01*
X141495659Y-46450000D01*
X141475063Y-46214592D01*
X141416584Y-45996344D01*
X141413905Y-45986344D01*
X141413904Y-45986343D01*
X141413903Y-45986337D01*
X141314035Y-45772171D01*
X141184173Y-45586707D01*
X141178494Y-45578597D01*
X141011402Y-45411506D01*
X141011395Y-45411501D01*
X140817834Y-45275967D01*
X140817830Y-45275965D01*
X140767413Y-45252455D01*
X140603663Y-45176097D01*
X140603659Y-45176096D01*
X140603655Y-45176094D01*
X140375413Y-45114938D01*
X140375403Y-45114936D01*
X140140001Y-45094341D01*
X140139999Y-45094341D01*
X139904596Y-45114936D01*
X139904586Y-45114938D01*
X139676344Y-45176094D01*
X139676335Y-45176098D01*
X139462171Y-45275964D01*
X139462169Y-45275965D01*
X139268600Y-45411503D01*
X139146673Y-45533430D01*
X139085350Y-45566914D01*
X139015658Y-45561930D01*
X138959725Y-45520058D01*
X138942810Y-45489081D01*
X138893797Y-45357671D01*
X138893793Y-45357664D01*
X138807547Y-45242455D01*
X138807544Y-45242452D01*
X138692335Y-45156206D01*
X138692328Y-45156202D01*
X138557482Y-45105908D01*
X138557483Y-45105908D01*
X138497883Y-45099501D01*
X138497881Y-45099500D01*
X138497873Y-45099500D01*
X138497864Y-45099500D01*
X136702129Y-45099500D01*
X136702123Y-45099501D01*
X136642516Y-45105908D01*
X136507671Y-45156202D01*
X136507664Y-45156206D01*
X136392455Y-45242452D01*
X136392452Y-45242455D01*
X136306206Y-45357664D01*
X136306202Y-45357671D01*
X136255908Y-45492517D01*
X136249501Y-45552116D01*
X136249500Y-45552135D01*
X129542032Y-45552135D01*
X129411402Y-45421506D01*
X129411395Y-45421501D01*
X129397119Y-45411505D01*
X129334518Y-45367671D01*
X129217834Y-45285967D01*
X129217830Y-45285965D01*
X129196383Y-45275964D01*
X129003663Y-45186097D01*
X129003659Y-45186096D01*
X129003655Y-45186094D01*
X128775413Y-45124938D01*
X128775403Y-45124936D01*
X128540001Y-45104341D01*
X128539999Y-45104341D01*
X128304596Y-45124936D01*
X128304586Y-45124938D01*
X128076344Y-45186094D01*
X128076335Y-45186098D01*
X127862171Y-45285964D01*
X127862169Y-45285965D01*
X127668600Y-45421503D01*
X127546673Y-45543430D01*
X127485350Y-45576914D01*
X127415658Y-45571930D01*
X127359725Y-45530058D01*
X127342810Y-45499081D01*
X127293797Y-45367671D01*
X127293793Y-45367664D01*
X127207547Y-45252455D01*
X127207544Y-45252452D01*
X127092335Y-45166206D01*
X127092328Y-45166202D01*
X126957482Y-45115908D01*
X126957483Y-45115908D01*
X126897883Y-45109501D01*
X126897881Y-45109500D01*
X126897873Y-45109500D01*
X126897864Y-45109500D01*
X125102129Y-45109500D01*
X125102123Y-45109501D01*
X125042516Y-45115908D01*
X124907671Y-45166202D01*
X124907664Y-45166206D01*
X124792455Y-45252452D01*
X124792452Y-45252455D01*
X124706206Y-45367664D01*
X124706202Y-45367671D01*
X124655908Y-45502517D01*
X124649501Y-45562116D01*
X124649500Y-45562135D01*
X121450318Y-45562135D01*
X121290730Y-45527419D01*
X121290723Y-45527418D01*
X121012501Y-45507519D01*
X121012499Y-45507519D01*
X120734276Y-45527418D01*
X120734269Y-45527419D01*
X120461725Y-45586707D01*
X120200365Y-45684189D01*
X119955561Y-45817861D01*
X119955554Y-45817866D01*
X119821656Y-45918101D01*
X119821655Y-45918102D01*
X120322374Y-46418820D01*
X120198180Y-46509054D01*
X120059054Y-46648180D01*
X119968820Y-46772373D01*
X119468102Y-46271655D01*
X119468101Y-46271656D01*
X119367866Y-46405554D01*
X119367861Y-46405561D01*
X119234189Y-46650365D01*
X119136707Y-46911725D01*
X119077419Y-47184269D01*
X119077418Y-47184276D01*
X119057519Y-47462498D01*
X118275500Y-47462498D01*
X118275500Y-44849500D01*
X118295185Y-44782461D01*
X118347989Y-44736706D01*
X118399500Y-44725500D01*
X147775500Y-44725500D01*
X147842539Y-44745185D01*
G37*
%TD.AperFunction*%
%TD*%
M02*
