%TF.GenerationSoftware,KiCad,Pcbnew,8.0.5*%
%TF.CreationDate,2025-09-24T21:27:06-07:00*%
%TF.ProjectId,receiver,72656365-6976-4657-922e-6b696361645f,rev?*%
%TF.SameCoordinates,Original*%
%TF.FileFunction,Copper,L2,Inr*%
%TF.FilePolarity,Positive*%
%FSLAX46Y46*%
G04 Gerber Fmt 4.6, Leading zero omitted, Abs format (unit mm)*
G04 Created by KiCad (PCBNEW 8.0.5) date 2025-09-24 21:27:06*
%MOMM*%
%LPD*%
G01*
G04 APERTURE LIST*
%TA.AperFunction,ComponentPad*%
%ADD10C,1.400000*%
%TD*%
%TA.AperFunction,ComponentPad*%
%ADD11O,1.400000X1.400000*%
%TD*%
%TA.AperFunction,ComponentPad*%
%ADD12C,2.900000*%
%TD*%
%TA.AperFunction,ComponentPad*%
%ADD13R,1.600000X1.600000*%
%TD*%
%TA.AperFunction,ComponentPad*%
%ADD14C,1.600000*%
%TD*%
%TA.AperFunction,ComponentPad*%
%ADD15R,1.700000X1.700000*%
%TD*%
%TA.AperFunction,ComponentPad*%
%ADD16C,1.700000*%
%TD*%
%TA.AperFunction,ComponentPad*%
%ADD17R,1.905000X2.000000*%
%TD*%
%TA.AperFunction,ComponentPad*%
%ADD18O,1.905000X2.000000*%
%TD*%
%TA.AperFunction,ComponentPad*%
%ADD19O,1.700000X1.700000*%
%TD*%
%TA.AperFunction,ComponentPad*%
%ADD20O,1.600000X1.600000*%
%TD*%
%TA.AperFunction,ComponentPad*%
%ADD21R,1.500000X1.500000*%
%TD*%
%TA.AperFunction,ComponentPad*%
%ADD22C,1.500000*%
%TD*%
%TA.AperFunction,ComponentPad*%
%ADD23C,1.524000*%
%TD*%
%TA.AperFunction,ComponentPad*%
%ADD24R,1.800000X1.800000*%
%TD*%
%TA.AperFunction,ComponentPad*%
%ADD25C,1.800000*%
%TD*%
G04 APERTURE END LIST*
D10*
%TO.N,LIGHTS*%
%TO.C,R6*%
X131110000Y-58150000D03*
D11*
%TO.N,GND*%
X138730000Y-58150000D03*
%TD*%
D12*
%TO.N,GND*%
%TO.C,H2*%
X121012500Y-108912500D03*
%TD*%
D13*
%TO.N,+3.3V*%
%TO.C,C3*%
X141375113Y-62150000D03*
D14*
%TO.N,GND*%
X138875113Y-62150000D03*
%TD*%
D12*
%TO.N,GND*%
%TO.C,H4*%
X145162500Y-47462500D03*
%TD*%
D15*
%TO.N,GND*%
%TO.C,U3*%
X138880000Y-67190000D03*
D16*
%TO.N,+3.3V*%
X141420000Y-67190000D03*
%TO.N,CE*%
X138880000Y-69730000D03*
%TO.N,CSN*%
X141420000Y-69730000D03*
%TO.N,SCK*%
X138880000Y-72270000D03*
%TO.N,MOSI*%
X141420000Y-72270000D03*
%TO.N,MISO*%
X138880000Y-74810000D03*
%TO.N,IRQ*%
X141420000Y-74810000D03*
%TD*%
D17*
%TO.N,+9V*%
%TO.C,U2*%
X139730000Y-100430000D03*
D18*
%TO.N,GND*%
X142270000Y-100430000D03*
%TO.N,+3.3V*%
X144810000Y-100430000D03*
%TD*%
D12*
%TO.N,GND*%
%TO.C,H3*%
X145162500Y-108912500D03*
%TD*%
D13*
%TO.N,+3.3V*%
%TO.C,C4*%
X134570000Y-87070000D03*
D14*
%TO.N,GND*%
X132070000Y-87070000D03*
%TD*%
D10*
%TO.N,Net-(U1-RA5)*%
%TO.C,R8*%
X127970000Y-60860000D03*
D11*
%TO.N,GND*%
X127970000Y-53240000D03*
%TD*%
D15*
%TO.N,Net-(M2-+)*%
%TO.C,M2*%
X134330000Y-103335000D03*
D19*
%TO.N,Net-(M2--)*%
X131790000Y-103335000D03*
%TD*%
D10*
%TO.N,+3.3V*%
%TO.C,R5*%
X131110000Y-53290000D03*
D11*
%TO.N,Net-(D3-A)*%
X138730000Y-53290000D03*
%TD*%
D13*
%TO.N,PWM5*%
%TO.C,U4*%
X134540000Y-92180000D03*
D20*
%TO.N,+9V*%
X132000000Y-92180000D03*
X129460000Y-92180000D03*
%TO.N,PWM5.1*%
X126920000Y-92180000D03*
%TO.N,GND*%
X126920000Y-99800000D03*
%TO.N,Net-(M2--)*%
X129460000Y-99800000D03*
%TO.N,Net-(M2-+)*%
X132000000Y-99800000D03*
%TO.N,GND*%
X134540000Y-99800000D03*
%TD*%
D13*
%TO.N,+3.3V*%
%TO.C,C1*%
X130630000Y-62020000D03*
D14*
%TO.N,GND*%
X133130000Y-62020000D03*
%TD*%
D12*
%TO.N,GND*%
%TO.C,H1*%
X121012500Y-47462500D03*
%TD*%
D21*
%TO.N,GND*%
%TO.C,Q1*%
X119390000Y-54040000D03*
D22*
%TO.N,LIGHTS*%
X121930000Y-54040000D03*
%TO.N,Net-(D2-K)*%
X124470000Y-54040000D03*
%TD*%
D21*
%TO.N,GND*%
%TO.C,Q2*%
X141680000Y-53990000D03*
D22*
%TO.N,LIGHTS*%
X144220000Y-53990000D03*
%TO.N,Net-(D3-K)*%
X146760000Y-53990000D03*
%TD*%
D10*
%TO.N,+3.3V*%
%TO.C,R4*%
X138730000Y-55710000D03*
D11*
%TO.N,Net-(D2-A)*%
X131110000Y-55710000D03*
%TD*%
D13*
%TO.N,+9V*%
%TO.C,C2*%
X127440000Y-87100000D03*
D14*
%TO.N,GND*%
X124940000Y-87100000D03*
%TD*%
D15*
%TO.N,Net-(JP2-B)*%
%TO.C,SW1*%
X123090000Y-95790000D03*
D19*
%TO.N,Net-(JP1-B)*%
X123090000Y-98330000D03*
%TO.N,+9V*%
X123090000Y-100870000D03*
%TD*%
D15*
%TO.N,PWM6*%
%TO.C,M1*%
X124960000Y-82460000D03*
D19*
%TO.N,+3.3V*%
X122420000Y-82460000D03*
%TO.N,GND*%
X119880000Y-82460000D03*
%TD*%
D13*
%TO.N,+3.3V*%
%TO.C,U1*%
X128000000Y-66525000D03*
D20*
%TO.N,Net-(U1-RA5)*%
X128000000Y-69065000D03*
%TO.N,CSN*%
X128000000Y-71605000D03*
%TO.N,unconnected-(U1-RA3{slash}~{MCLR}-Pad4)*%
X128000000Y-74145000D03*
%TO.N,CE*%
X128000000Y-76685000D03*
%TO.N,PWM5.1*%
X128000000Y-79225000D03*
%TO.N,PWM6*%
X128000000Y-81765000D03*
%TO.N,PWM5*%
X135620000Y-81765000D03*
%TO.N,MISO*%
X135620000Y-79225000D03*
%TO.N,SCK*%
X135620000Y-76685000D03*
%TO.N,MOSI*%
X135620000Y-74145000D03*
%TO.N,IRQ*%
X135620000Y-71605000D03*
%TO.N,LIGHTS*%
X135620000Y-69065000D03*
%TO.N,GND*%
X135620000Y-66525000D03*
%TD*%
D23*
%TO.N,Net-(BT1-+)*%
%TO.C,BT1*%
X139440000Y-103130000D03*
%TO.N,GND*%
X126740000Y-103130000D03*
%TD*%
D24*
%TO.N,Net-(D3-K)*%
%TO.C,D3*%
X137650000Y-47580000D03*
D25*
%TO.N,Net-(D3-A)*%
X135110000Y-47580000D03*
%TD*%
D24*
%TO.N,Net-(D2-K)*%
%TO.C,D2*%
X127880000Y-47580000D03*
D25*
%TO.N,Net-(D2-A)*%
X130420000Y-47580000D03*
%TD*%
%TA.AperFunction,Conductor*%
%TO.N,GND*%
G36*
X147842539Y-44745185D02*
G01*
X147888294Y-44797989D01*
X147899500Y-44849500D01*
X147899500Y-53061662D01*
X147879815Y-53128701D01*
X147827011Y-53174456D01*
X147757853Y-53184400D01*
X147694297Y-53155375D01*
X147687819Y-53149344D01*
X147643380Y-53104905D01*
X147566877Y-53028402D01*
X147387639Y-52902898D01*
X147387640Y-52902898D01*
X147387638Y-52902897D01*
X147283789Y-52854472D01*
X147189330Y-52810425D01*
X147189326Y-52810424D01*
X147189322Y-52810422D01*
X146977977Y-52753793D01*
X146760002Y-52734723D01*
X146759998Y-52734723D01*
X146626516Y-52746401D01*
X146542023Y-52753793D01*
X146542020Y-52753793D01*
X146330677Y-52810422D01*
X146330668Y-52810426D01*
X146132361Y-52902898D01*
X146132357Y-52902900D01*
X145953121Y-53028402D01*
X145798402Y-53183121D01*
X145672900Y-53362357D01*
X145672898Y-53362361D01*
X145602382Y-53513583D01*
X145556209Y-53566022D01*
X145489016Y-53585174D01*
X145422135Y-53564958D01*
X145377618Y-53513583D01*
X145350256Y-53454905D01*
X145307102Y-53362362D01*
X145307100Y-53362359D01*
X145307099Y-53362357D01*
X145181599Y-53183124D01*
X145127176Y-53128701D01*
X145026877Y-53028402D01*
X144847639Y-52902898D01*
X144847640Y-52902898D01*
X144847638Y-52902897D01*
X144743789Y-52854472D01*
X144649330Y-52810425D01*
X144649326Y-52810424D01*
X144649322Y-52810422D01*
X144437977Y-52753793D01*
X144220002Y-52734723D01*
X144219998Y-52734723D01*
X144086516Y-52746401D01*
X144002023Y-52753793D01*
X144002020Y-52753793D01*
X143790677Y-52810422D01*
X143790668Y-52810426D01*
X143592361Y-52902898D01*
X143592357Y-52902900D01*
X143413121Y-53028402D01*
X143258402Y-53183121D01*
X143155575Y-53329975D01*
X143100998Y-53373600D01*
X143031500Y-53380794D01*
X142969145Y-53349271D01*
X142933731Y-53289041D01*
X142930000Y-53258852D01*
X142930000Y-53192172D01*
X142929999Y-53192155D01*
X142923598Y-53132627D01*
X142923596Y-53132620D01*
X142873354Y-52997913D01*
X142873350Y-52997906D01*
X142787190Y-52882812D01*
X142787187Y-52882809D01*
X142672093Y-52796649D01*
X142672086Y-52796645D01*
X142537379Y-52746403D01*
X142537372Y-52746401D01*
X142477844Y-52740000D01*
X141930000Y-52740000D01*
X141930000Y-53674314D01*
X141925606Y-53669920D01*
X141834394Y-53617259D01*
X141732661Y-53590000D01*
X141627339Y-53590000D01*
X141525606Y-53617259D01*
X141434394Y-53669920D01*
X141430000Y-53674314D01*
X141430000Y-52740000D01*
X140882155Y-52740000D01*
X140822627Y-52746401D01*
X140822620Y-52746403D01*
X140687913Y-52796645D01*
X140687906Y-52796649D01*
X140572812Y-52882809D01*
X140572809Y-52882812D01*
X140486649Y-52997906D01*
X140486645Y-52997913D01*
X140436403Y-53132620D01*
X140436401Y-53132627D01*
X140430000Y-53192155D01*
X140430000Y-53740000D01*
X141364314Y-53740000D01*
X141359920Y-53744394D01*
X141307259Y-53835606D01*
X141280000Y-53937339D01*
X141280000Y-54042661D01*
X141307259Y-54144394D01*
X141359920Y-54235606D01*
X141364314Y-54240000D01*
X140430000Y-54240000D01*
X140430000Y-54787844D01*
X140436401Y-54847372D01*
X140436403Y-54847379D01*
X140486645Y-54982086D01*
X140486649Y-54982093D01*
X140572809Y-55097187D01*
X140572812Y-55097190D01*
X140687906Y-55183350D01*
X140687913Y-55183354D01*
X140822620Y-55233596D01*
X140822627Y-55233598D01*
X140882155Y-55239999D01*
X140882172Y-55240000D01*
X141430000Y-55240000D01*
X141430000Y-54305686D01*
X141434394Y-54310080D01*
X141525606Y-54362741D01*
X141627339Y-54390000D01*
X141732661Y-54390000D01*
X141834394Y-54362741D01*
X141925606Y-54310080D01*
X141930000Y-54305686D01*
X141930000Y-55240000D01*
X142477828Y-55240000D01*
X142477844Y-55239999D01*
X142537372Y-55233598D01*
X142537379Y-55233596D01*
X142672086Y-55183354D01*
X142672093Y-55183350D01*
X142787187Y-55097190D01*
X142787190Y-55097187D01*
X142873350Y-54982093D01*
X142873354Y-54982086D01*
X142923596Y-54847379D01*
X142923598Y-54847372D01*
X142929999Y-54787844D01*
X142930000Y-54787827D01*
X142930000Y-54721148D01*
X142949685Y-54654109D01*
X143002489Y-54608354D01*
X143071647Y-54598410D01*
X143135203Y-54627435D01*
X143155571Y-54650020D01*
X143258402Y-54796877D01*
X143413123Y-54951598D01*
X143592361Y-55077102D01*
X143790670Y-55169575D01*
X144002023Y-55226207D01*
X144184926Y-55242208D01*
X144219998Y-55245277D01*
X144220000Y-55245277D01*
X144220002Y-55245277D01*
X144248254Y-55242805D01*
X144437977Y-55226207D01*
X144649330Y-55169575D01*
X144847639Y-55077102D01*
X145026877Y-54951598D01*
X145181598Y-54796877D01*
X145307102Y-54617639D01*
X145377618Y-54466414D01*
X145423790Y-54413977D01*
X145490984Y-54394825D01*
X145557865Y-54415041D01*
X145602381Y-54466414D01*
X145672898Y-54617639D01*
X145798402Y-54796877D01*
X145953123Y-54951598D01*
X146132361Y-55077102D01*
X146330670Y-55169575D01*
X146542023Y-55226207D01*
X146724926Y-55242208D01*
X146759998Y-55245277D01*
X146760000Y-55245277D01*
X146760002Y-55245277D01*
X146788254Y-55242805D01*
X146977977Y-55226207D01*
X147189330Y-55169575D01*
X147387639Y-55077102D01*
X147566877Y-54951598D01*
X147687819Y-54830656D01*
X147749142Y-54797171D01*
X147818834Y-54802155D01*
X147874767Y-54844027D01*
X147899184Y-54909491D01*
X147899500Y-54918337D01*
X147899500Y-111525500D01*
X147879815Y-111592539D01*
X147827011Y-111638294D01*
X147775500Y-111649500D01*
X142549500Y-111649500D01*
X142482461Y-111629815D01*
X142436706Y-111577011D01*
X142425500Y-111525500D01*
X142425500Y-108912498D01*
X143207519Y-108912498D01*
X143207519Y-108912501D01*
X143227418Y-109190723D01*
X143227419Y-109190730D01*
X143286707Y-109463274D01*
X143384189Y-109724634D01*
X143517861Y-109969438D01*
X143618102Y-110103343D01*
X144118820Y-109602625D01*
X144209054Y-109726820D01*
X144348180Y-109865946D01*
X144472373Y-109956178D01*
X143971655Y-110456896D01*
X144105561Y-110557137D01*
X144105561Y-110557138D01*
X144350365Y-110690810D01*
X144611725Y-110788292D01*
X144884269Y-110847580D01*
X144884276Y-110847581D01*
X145162499Y-110867481D01*
X145162501Y-110867481D01*
X145440723Y-110847581D01*
X145440730Y-110847580D01*
X145713274Y-110788292D01*
X145974634Y-110690810D01*
X146219442Y-110557135D01*
X146353342Y-110456896D01*
X146353343Y-110456896D01*
X145852626Y-109956178D01*
X145976820Y-109865946D01*
X146115946Y-109726820D01*
X146206179Y-109602626D01*
X146706896Y-110103343D01*
X146706896Y-110103342D01*
X146807135Y-109969442D01*
X146940810Y-109724634D01*
X147038292Y-109463274D01*
X147097580Y-109190730D01*
X147097581Y-109190723D01*
X147117481Y-108912501D01*
X147117481Y-108912498D01*
X147097581Y-108634276D01*
X147097580Y-108634269D01*
X147038292Y-108361725D01*
X146940810Y-108100365D01*
X146807138Y-107855561D01*
X146706896Y-107721655D01*
X146206178Y-108222373D01*
X146115946Y-108098180D01*
X145976820Y-107959054D01*
X145852625Y-107868820D01*
X146353343Y-107368102D01*
X146219438Y-107267862D01*
X146219438Y-107267861D01*
X145974634Y-107134189D01*
X145713274Y-107036707D01*
X145440730Y-106977419D01*
X145440723Y-106977418D01*
X145162501Y-106957519D01*
X145162499Y-106957519D01*
X144884276Y-106977418D01*
X144884269Y-106977419D01*
X144611725Y-107036707D01*
X144350365Y-107134189D01*
X144105561Y-107267861D01*
X144105554Y-107267866D01*
X143971656Y-107368101D01*
X143971655Y-107368102D01*
X144472374Y-107868820D01*
X144348180Y-107959054D01*
X144209054Y-108098180D01*
X144118820Y-108222373D01*
X143618102Y-107721655D01*
X143618101Y-107721656D01*
X143517866Y-107855554D01*
X143517861Y-107855561D01*
X143384189Y-108100365D01*
X143286707Y-108361725D01*
X143227419Y-108634269D01*
X143227418Y-108634276D01*
X143207519Y-108912498D01*
X142425500Y-108912498D01*
X142425500Y-105609110D01*
X142425500Y-105609108D01*
X142391392Y-105481814D01*
X142325500Y-105367686D01*
X142232314Y-105274500D01*
X142175250Y-105241554D01*
X142118187Y-105208608D01*
X142054539Y-105191554D01*
X141990892Y-105174500D01*
X124315892Y-105174500D01*
X124184108Y-105174500D01*
X124056812Y-105208608D01*
X123942686Y-105274500D01*
X123942683Y-105274502D01*
X123849502Y-105367683D01*
X123849500Y-105367686D01*
X123783608Y-105481812D01*
X123749500Y-105609108D01*
X123749500Y-111525500D01*
X123729815Y-111592539D01*
X123677011Y-111638294D01*
X123625500Y-111649500D01*
X118399500Y-111649500D01*
X118332461Y-111629815D01*
X118286706Y-111577011D01*
X118275500Y-111525500D01*
X118275500Y-108912498D01*
X119057519Y-108912498D01*
X119057519Y-108912501D01*
X119077418Y-109190723D01*
X119077419Y-109190730D01*
X119136707Y-109463274D01*
X119234189Y-109724634D01*
X119367861Y-109969438D01*
X119468102Y-110103343D01*
X119968820Y-109602625D01*
X120059054Y-109726820D01*
X120198180Y-109865946D01*
X120322373Y-109956178D01*
X119821655Y-110456896D01*
X119955561Y-110557137D01*
X119955561Y-110557138D01*
X120200365Y-110690810D01*
X120461725Y-110788292D01*
X120734269Y-110847580D01*
X120734276Y-110847581D01*
X121012499Y-110867481D01*
X121012501Y-110867481D01*
X121290723Y-110847581D01*
X121290730Y-110847580D01*
X121563274Y-110788292D01*
X121824634Y-110690810D01*
X122069442Y-110557135D01*
X122203342Y-110456896D01*
X122203343Y-110456896D01*
X121702626Y-109956178D01*
X121826820Y-109865946D01*
X121965946Y-109726820D01*
X122056179Y-109602626D01*
X122556896Y-110103343D01*
X122556896Y-110103342D01*
X122657135Y-109969442D01*
X122790810Y-109724634D01*
X122888292Y-109463274D01*
X122947580Y-109190730D01*
X122947581Y-109190723D01*
X122967481Y-108912501D01*
X122967481Y-108912498D01*
X122947581Y-108634276D01*
X122947580Y-108634269D01*
X122888292Y-108361725D01*
X122790810Y-108100365D01*
X122657138Y-107855561D01*
X122556896Y-107721655D01*
X122056178Y-108222373D01*
X121965946Y-108098180D01*
X121826820Y-107959054D01*
X121702625Y-107868820D01*
X122203343Y-107368102D01*
X122069438Y-107267862D01*
X122069438Y-107267861D01*
X121824634Y-107134189D01*
X121563274Y-107036707D01*
X121290730Y-106977419D01*
X121290723Y-106977418D01*
X121012501Y-106957519D01*
X121012499Y-106957519D01*
X120734276Y-106977418D01*
X120734269Y-106977419D01*
X120461725Y-107036707D01*
X120200365Y-107134189D01*
X119955561Y-107267861D01*
X119955554Y-107267866D01*
X119821656Y-107368101D01*
X119821655Y-107368102D01*
X120322374Y-107868820D01*
X120198180Y-107959054D01*
X120059054Y-108098180D01*
X119968820Y-108222373D01*
X119468102Y-107721655D01*
X119468101Y-107721656D01*
X119367866Y-107855554D01*
X119367861Y-107855561D01*
X119234189Y-108100365D01*
X119136707Y-108361725D01*
X119077419Y-108634269D01*
X119077418Y-108634276D01*
X119057519Y-108912498D01*
X118275500Y-108912498D01*
X118275500Y-103129999D01*
X125473179Y-103129999D01*
X125473179Y-103130000D01*
X125492424Y-103349976D01*
X125492426Y-103349986D01*
X125549575Y-103563270D01*
X125549580Y-103563284D01*
X125642898Y-103763405D01*
X125642901Y-103763411D01*
X125688258Y-103828187D01*
X125688259Y-103828188D01*
X126250504Y-103265942D01*
X126266619Y-103326081D01*
X126333498Y-103441920D01*
X126428080Y-103536502D01*
X126543919Y-103603381D01*
X126604057Y-103619494D01*
X126041810Y-104181740D01*
X126106590Y-104227099D01*
X126106592Y-104227100D01*
X126306715Y-104320419D01*
X126306729Y-104320424D01*
X126520013Y-104377573D01*
X126520023Y-104377575D01*
X126739999Y-104396821D01*
X126740001Y-104396821D01*
X126959976Y-104377575D01*
X126959986Y-104377573D01*
X127173270Y-104320424D01*
X127173284Y-104320419D01*
X127373407Y-104227100D01*
X127373417Y-104227094D01*
X127438188Y-104181741D01*
X126875942Y-103619494D01*
X126936081Y-103603381D01*
X127051920Y-103536502D01*
X127146502Y-103441920D01*
X127213381Y-103326081D01*
X127229495Y-103265942D01*
X127791741Y-103828188D01*
X127837094Y-103763417D01*
X127837100Y-103763407D01*
X127930419Y-103563284D01*
X127930424Y-103563270D01*
X127987573Y-103349986D01*
X127987575Y-103349976D01*
X127988885Y-103334999D01*
X130434341Y-103334999D01*
X130434341Y-103335000D01*
X130454936Y-103570403D01*
X130454938Y-103570413D01*
X130516094Y-103798655D01*
X130516096Y-103798659D01*
X130516097Y-103798663D01*
X130529865Y-103828188D01*
X130615965Y-104012830D01*
X130615967Y-104012834D01*
X130724281Y-104167521D01*
X130751505Y-104206401D01*
X130918599Y-104373495D01*
X131015384Y-104441265D01*
X131112165Y-104509032D01*
X131112167Y-104509033D01*
X131112170Y-104509035D01*
X131326337Y-104608903D01*
X131554592Y-104670063D01*
X131731034Y-104685500D01*
X131789999Y-104690659D01*
X131790000Y-104690659D01*
X131790001Y-104690659D01*
X131848966Y-104685500D01*
X132025408Y-104670063D01*
X132253663Y-104608903D01*
X132467830Y-104509035D01*
X132661401Y-104373495D01*
X132783329Y-104251566D01*
X132844648Y-104218084D01*
X132914340Y-104223068D01*
X132970274Y-104264939D01*
X132987189Y-104295917D01*
X133036202Y-104427328D01*
X133036206Y-104427335D01*
X133122452Y-104542544D01*
X133122455Y-104542547D01*
X133237664Y-104628793D01*
X133237671Y-104628797D01*
X133372517Y-104679091D01*
X133372516Y-104679091D01*
X133379444Y-104679835D01*
X133432127Y-104685500D01*
X135227872Y-104685499D01*
X135287483Y-104679091D01*
X135422331Y-104628796D01*
X135537546Y-104542546D01*
X135623796Y-104427331D01*
X135674091Y-104292483D01*
X135680500Y-104232873D01*
X135680499Y-103129997D01*
X138172677Y-103129997D01*
X138172677Y-103130002D01*
X138191929Y-103350062D01*
X138191930Y-103350070D01*
X138249104Y-103563445D01*
X138249105Y-103563447D01*
X138249106Y-103563450D01*
X138252351Y-103570408D01*
X138342466Y-103763662D01*
X138342468Y-103763666D01*
X138469170Y-103944615D01*
X138469175Y-103944621D01*
X138625378Y-104100824D01*
X138625384Y-104100829D01*
X138806333Y-104227531D01*
X138806335Y-104227532D01*
X138806338Y-104227534D01*
X139006550Y-104320894D01*
X139219932Y-104378070D01*
X139377123Y-104391822D01*
X139439998Y-104397323D01*
X139440000Y-104397323D01*
X139440002Y-104397323D01*
X139495017Y-104392509D01*
X139660068Y-104378070D01*
X139873450Y-104320894D01*
X140073662Y-104227534D01*
X140254620Y-104100826D01*
X140410826Y-103944620D01*
X140537534Y-103763662D01*
X140630894Y-103563450D01*
X140688070Y-103350068D01*
X140707323Y-103130000D01*
X140688070Y-102909932D01*
X140630894Y-102696550D01*
X140537534Y-102496339D01*
X140410826Y-102315380D01*
X140254620Y-102159174D01*
X140250193Y-102156074D01*
X140206568Y-102101499D01*
X140199374Y-102032001D01*
X140230895Y-101969645D01*
X140291125Y-101934231D01*
X140321316Y-101930499D01*
X140730371Y-101930499D01*
X140730372Y-101930499D01*
X140789983Y-101924091D01*
X140924831Y-101873796D01*
X141040046Y-101787546D01*
X141126296Y-101672331D01*
X141136872Y-101643974D01*
X141178740Y-101588041D01*
X141244204Y-101563622D01*
X141312477Y-101578472D01*
X141325940Y-101586988D01*
X141508723Y-101719788D01*
X141712429Y-101823582D01*
X141929871Y-101894234D01*
X142020000Y-101908509D01*
X142020000Y-100920747D01*
X142057708Y-100942518D01*
X142197591Y-100980000D01*
X142342409Y-100980000D01*
X142482292Y-100942518D01*
X142520000Y-100920747D01*
X142520000Y-101908508D01*
X142610128Y-101894234D01*
X142827570Y-101823582D01*
X143031276Y-101719788D01*
X143216242Y-101585402D01*
X143377905Y-101423739D01*
X143439371Y-101339137D01*
X143494701Y-101296470D01*
X143564314Y-101290491D01*
X143626109Y-101323096D01*
X143640007Y-101339134D01*
X143701714Y-101424066D01*
X143863434Y-101585786D01*
X144048462Y-101720217D01*
X144180599Y-101787544D01*
X144252244Y-101824049D01*
X144469751Y-101894721D01*
X144469752Y-101894721D01*
X144469755Y-101894722D01*
X144695646Y-101930500D01*
X144695647Y-101930500D01*
X144924353Y-101930500D01*
X144924354Y-101930500D01*
X145150245Y-101894722D01*
X145150248Y-101894721D01*
X145150249Y-101894721D01*
X145367755Y-101824049D01*
X145367755Y-101824048D01*
X145367758Y-101824048D01*
X145571538Y-101720217D01*
X145756566Y-101585786D01*
X145918286Y-101424066D01*
X146052717Y-101239038D01*
X146156548Y-101035258D01*
X146210208Y-100870110D01*
X146227221Y-100817749D01*
X146227221Y-100817748D01*
X146227222Y-100817745D01*
X146263000Y-100591854D01*
X146263000Y-100268146D01*
X146227222Y-100042255D01*
X146227221Y-100042251D01*
X146227221Y-100042250D01*
X146156549Y-99824744D01*
X146065983Y-99646998D01*
X146052717Y-99620962D01*
X145918286Y-99435934D01*
X145756566Y-99274214D01*
X145571538Y-99139783D01*
X145367755Y-99035950D01*
X145150248Y-98965278D01*
X144964812Y-98935908D01*
X144924354Y-98929500D01*
X144695646Y-98929500D01*
X144655188Y-98935908D01*
X144469753Y-98965278D01*
X144469750Y-98965278D01*
X144252244Y-99035950D01*
X144048461Y-99139783D01*
X143963652Y-99201401D01*
X143863434Y-99274214D01*
X143863432Y-99274216D01*
X143863431Y-99274216D01*
X143701716Y-99435931D01*
X143701709Y-99435940D01*
X143640007Y-99520864D01*
X143584677Y-99563530D01*
X143515063Y-99569508D01*
X143453269Y-99536901D01*
X143439372Y-99520863D01*
X143377907Y-99436263D01*
X143377902Y-99436257D01*
X143216242Y-99274597D01*
X143031276Y-99140211D01*
X142827568Y-99036417D01*
X142610124Y-98965765D01*
X142520000Y-98951490D01*
X142520000Y-99939252D01*
X142482292Y-99917482D01*
X142342409Y-99880000D01*
X142197591Y-99880000D01*
X142057708Y-99917482D01*
X142020000Y-99939252D01*
X142020000Y-98951490D01*
X142019999Y-98951490D01*
X141929875Y-98965765D01*
X141712431Y-99036417D01*
X141508719Y-99140213D01*
X141325939Y-99273010D01*
X141260132Y-99296490D01*
X141192079Y-99280664D01*
X141143384Y-99230558D01*
X141136875Y-99216033D01*
X141126296Y-99187669D01*
X141126295Y-99187667D01*
X141126293Y-99187664D01*
X141040047Y-99072455D01*
X141040044Y-99072452D01*
X140924835Y-98986206D01*
X140924828Y-98986202D01*
X140789982Y-98935908D01*
X140789983Y-98935908D01*
X140730383Y-98929501D01*
X140730381Y-98929500D01*
X140730373Y-98929500D01*
X140730364Y-98929500D01*
X138729629Y-98929500D01*
X138729623Y-98929501D01*
X138670016Y-98935908D01*
X138535171Y-98986202D01*
X138535164Y-98986206D01*
X138419955Y-99072452D01*
X138419952Y-99072455D01*
X138333706Y-99187664D01*
X138333702Y-99187671D01*
X138283408Y-99322517D01*
X138277001Y-99382116D01*
X138277000Y-99382135D01*
X138277000Y-101477870D01*
X138277001Y-101477876D01*
X138283408Y-101537483D01*
X138333702Y-101672328D01*
X138333706Y-101672335D01*
X138419952Y-101787544D01*
X138419955Y-101787547D01*
X138535164Y-101873793D01*
X138535171Y-101873797D01*
X138638905Y-101912487D01*
X138694839Y-101954358D01*
X138719256Y-102019822D01*
X138704405Y-102088095D01*
X138666696Y-102130243D01*
X138625379Y-102159173D01*
X138469175Y-102315377D01*
X138342466Y-102496338D01*
X138342465Y-102496340D01*
X138249107Y-102696548D01*
X138249104Y-102696554D01*
X138191930Y-102909929D01*
X138191929Y-102909937D01*
X138172677Y-103129997D01*
X135680499Y-103129997D01*
X135680499Y-102437128D01*
X135674091Y-102377517D01*
X135672810Y-102374083D01*
X135623797Y-102242671D01*
X135623793Y-102242664D01*
X135537547Y-102127455D01*
X135537544Y-102127452D01*
X135422335Y-102041206D01*
X135422328Y-102041202D01*
X135287482Y-101990908D01*
X135287483Y-101990908D01*
X135227883Y-101984501D01*
X135227881Y-101984500D01*
X135227873Y-101984500D01*
X135227864Y-101984500D01*
X133432129Y-101984500D01*
X133432123Y-101984501D01*
X133372516Y-101990908D01*
X133237671Y-102041202D01*
X133237664Y-102041206D01*
X133122455Y-102127452D01*
X133122452Y-102127455D01*
X133036206Y-102242664D01*
X133036203Y-102242669D01*
X132987189Y-102374083D01*
X132945317Y-102430016D01*
X132879853Y-102454433D01*
X132811580Y-102439581D01*
X132783326Y-102418430D01*
X132661402Y-102296506D01*
X132661395Y-102296501D01*
X132467834Y-102160967D01*
X132467830Y-102160965D01*
X132431245Y-102143905D01*
X132253663Y-102061097D01*
X132253659Y-102061096D01*
X132253655Y-102061094D01*
X132025413Y-101999938D01*
X132025403Y-101999936D01*
X131790001Y-101979341D01*
X131789999Y-101979341D01*
X131554596Y-101999936D01*
X131554586Y-101999938D01*
X131326344Y-102061094D01*
X131326335Y-102061098D01*
X131112171Y-102160964D01*
X131112169Y-102160965D01*
X130918597Y-102296505D01*
X130751505Y-102463597D01*
X130615965Y-102657169D01*
X130615964Y-102657171D01*
X130516098Y-102871335D01*
X130516094Y-102871344D01*
X130454938Y-103099586D01*
X130454936Y-103099596D01*
X130434341Y-103334999D01*
X127988885Y-103334999D01*
X128006821Y-103130000D01*
X128006821Y-103129999D01*
X127987575Y-102910023D01*
X127987573Y-102910013D01*
X127930424Y-102696729D01*
X127930420Y-102696720D01*
X127837096Y-102496586D01*
X127791741Y-102431811D01*
X127791740Y-102431810D01*
X127229494Y-102994056D01*
X127213381Y-102933919D01*
X127146502Y-102818080D01*
X127051920Y-102723498D01*
X126936081Y-102656619D01*
X126875942Y-102640505D01*
X127438188Y-102078259D01*
X127438187Y-102078258D01*
X127373411Y-102032901D01*
X127373405Y-102032898D01*
X127173284Y-101939580D01*
X127173270Y-101939575D01*
X126959986Y-101882426D01*
X126959976Y-101882424D01*
X126740001Y-101863179D01*
X126739999Y-101863179D01*
X126520023Y-101882424D01*
X126520013Y-101882426D01*
X126306729Y-101939575D01*
X126306720Y-101939579D01*
X126106590Y-102032901D01*
X126041811Y-102078258D01*
X126604057Y-102640504D01*
X126543919Y-102656619D01*
X126428080Y-102723498D01*
X126333498Y-102818080D01*
X126266619Y-102933919D01*
X126250504Y-102994057D01*
X125688258Y-102431811D01*
X125642901Y-102496590D01*
X125549579Y-102696720D01*
X125549575Y-102696729D01*
X125492426Y-102910013D01*
X125492424Y-102910023D01*
X125473179Y-103129999D01*
X118275500Y-103129999D01*
X118275500Y-98329999D01*
X121734341Y-98329999D01*
X121734341Y-98330000D01*
X121754936Y-98565403D01*
X121754938Y-98565413D01*
X121816094Y-98793655D01*
X121816096Y-98793659D01*
X121816097Y-98793663D01*
X121882427Y-98935908D01*
X121915965Y-99007830D01*
X121915967Y-99007834D01*
X122051501Y-99201395D01*
X122051506Y-99201402D01*
X122218597Y-99368493D01*
X122218603Y-99368498D01*
X122404158Y-99498425D01*
X122447783Y-99553002D01*
X122454977Y-99622500D01*
X122423454Y-99684855D01*
X122404158Y-99701575D01*
X122218597Y-99831505D01*
X122051505Y-99998597D01*
X121915965Y-100192169D01*
X121915964Y-100192171D01*
X121816098Y-100406335D01*
X121816094Y-100406344D01*
X121754938Y-100634586D01*
X121754936Y-100634596D01*
X121734341Y-100869999D01*
X121734341Y-100870000D01*
X121754936Y-101105403D01*
X121754938Y-101105413D01*
X121816094Y-101333655D01*
X121816096Y-101333659D01*
X121816097Y-101333663D01*
X121883345Y-101477876D01*
X121915965Y-101547830D01*
X121915967Y-101547834D01*
X122003144Y-101672335D01*
X122051505Y-101741401D01*
X122218599Y-101908495D01*
X122255354Y-101934231D01*
X122412165Y-102044032D01*
X122412167Y-102044033D01*
X122412170Y-102044035D01*
X122626337Y-102143903D01*
X122854592Y-102205063D01*
X123042918Y-102221539D01*
X123089999Y-102225659D01*
X123090000Y-102225659D01*
X123090001Y-102225659D01*
X123129234Y-102222226D01*
X123325408Y-102205063D01*
X123553663Y-102143903D01*
X123767830Y-102044035D01*
X123961401Y-101908495D01*
X124128495Y-101741401D01*
X124264035Y-101547830D01*
X124363903Y-101333663D01*
X124425063Y-101105408D01*
X124445659Y-100870000D01*
X124425063Y-100634592D01*
X124363903Y-100406337D01*
X124264035Y-100192171D01*
X124194100Y-100092292D01*
X124128494Y-99998597D01*
X123961402Y-99831506D01*
X123961396Y-99831501D01*
X123775842Y-99701575D01*
X123732217Y-99646998D01*
X123725023Y-99577500D01*
X123738926Y-99549999D01*
X125641127Y-99549999D01*
X125641128Y-99550000D01*
X126604314Y-99550000D01*
X126599920Y-99554394D01*
X126547259Y-99645606D01*
X126520000Y-99747339D01*
X126520000Y-99852661D01*
X126547259Y-99954394D01*
X126599920Y-100045606D01*
X126604314Y-100050000D01*
X125641128Y-100050000D01*
X125693730Y-100246317D01*
X125693734Y-100246326D01*
X125789865Y-100452482D01*
X125920342Y-100638820D01*
X126081179Y-100799657D01*
X126267517Y-100930134D01*
X126473673Y-101026265D01*
X126473682Y-101026269D01*
X126669999Y-101078872D01*
X126670000Y-101078871D01*
X126670000Y-100115686D01*
X126674394Y-100120080D01*
X126765606Y-100172741D01*
X126867339Y-100200000D01*
X126972661Y-100200000D01*
X127074394Y-100172741D01*
X127165606Y-100120080D01*
X127170000Y-100115686D01*
X127170000Y-101078872D01*
X127366317Y-101026269D01*
X127366326Y-101026265D01*
X127572482Y-100930134D01*
X127758820Y-100799657D01*
X127919657Y-100638820D01*
X128050132Y-100452484D01*
X128077341Y-100394134D01*
X128123513Y-100341695D01*
X128190707Y-100322542D01*
X128257588Y-100342757D01*
X128302106Y-100394133D01*
X128329431Y-100452732D01*
X128329432Y-100452734D01*
X128459954Y-100639141D01*
X128620858Y-100800045D01*
X128620861Y-100800047D01*
X128807266Y-100930568D01*
X129013504Y-101026739D01*
X129013509Y-101026740D01*
X129013511Y-101026741D01*
X129066415Y-101040916D01*
X129233308Y-101085635D01*
X129395230Y-101099801D01*
X129459998Y-101105468D01*
X129460000Y-101105468D01*
X129460002Y-101105468D01*
X129516673Y-101100509D01*
X129686692Y-101085635D01*
X129906496Y-101026739D01*
X130112734Y-100930568D01*
X130299139Y-100800047D01*
X130460047Y-100639139D01*
X130590568Y-100452734D01*
X130617618Y-100394724D01*
X130663790Y-100342285D01*
X130730983Y-100323133D01*
X130797865Y-100343348D01*
X130842382Y-100394725D01*
X130869429Y-100452728D01*
X130869432Y-100452734D01*
X130999954Y-100639141D01*
X131160858Y-100800045D01*
X131160861Y-100800047D01*
X131347266Y-100930568D01*
X131553504Y-101026739D01*
X131553509Y-101026740D01*
X131553511Y-101026741D01*
X131606415Y-101040916D01*
X131773308Y-101085635D01*
X131935230Y-101099801D01*
X131999998Y-101105468D01*
X132000000Y-101105468D01*
X132000002Y-101105468D01*
X132056673Y-101100509D01*
X132226692Y-101085635D01*
X132446496Y-101026739D01*
X132652734Y-100930568D01*
X132839139Y-100800047D01*
X133000047Y-100639139D01*
X133130568Y-100452734D01*
X133157895Y-100394129D01*
X133204064Y-100341695D01*
X133271257Y-100322542D01*
X133338139Y-100342757D01*
X133382657Y-100394133D01*
X133409865Y-100452482D01*
X133540342Y-100638820D01*
X133701179Y-100799657D01*
X133887517Y-100930134D01*
X134093673Y-101026265D01*
X134093682Y-101026269D01*
X134289999Y-101078872D01*
X134290000Y-101078871D01*
X134290000Y-100115686D01*
X134294394Y-100120080D01*
X134385606Y-100172741D01*
X134487339Y-100200000D01*
X134592661Y-100200000D01*
X134694394Y-100172741D01*
X134785606Y-100120080D01*
X134790000Y-100115686D01*
X134790000Y-101078872D01*
X134986317Y-101026269D01*
X134986326Y-101026265D01*
X135192482Y-100930134D01*
X135378820Y-100799657D01*
X135539657Y-100638820D01*
X135670134Y-100452482D01*
X135766265Y-100246326D01*
X135766269Y-100246317D01*
X135818872Y-100050000D01*
X134855686Y-100050000D01*
X134860080Y-100045606D01*
X134912741Y-99954394D01*
X134940000Y-99852661D01*
X134940000Y-99747339D01*
X134912741Y-99645606D01*
X134860080Y-99554394D01*
X134855686Y-99550000D01*
X135818872Y-99550000D01*
X135818872Y-99549999D01*
X135766269Y-99353682D01*
X135766265Y-99353673D01*
X135670134Y-99147517D01*
X135539657Y-98961179D01*
X135378820Y-98800342D01*
X135192482Y-98669865D01*
X134986328Y-98573734D01*
X134790000Y-98521127D01*
X134790000Y-99484314D01*
X134785606Y-99479920D01*
X134694394Y-99427259D01*
X134592661Y-99400000D01*
X134487339Y-99400000D01*
X134385606Y-99427259D01*
X134294394Y-99479920D01*
X134290000Y-99484314D01*
X134290000Y-98521127D01*
X134093671Y-98573734D01*
X133887517Y-98669865D01*
X133701179Y-98800342D01*
X133540342Y-98961179D01*
X133409867Y-99147515D01*
X133382657Y-99205867D01*
X133336484Y-99258306D01*
X133269290Y-99277457D01*
X133202409Y-99257241D01*
X133157893Y-99205865D01*
X133155811Y-99201401D01*
X133130568Y-99147266D01*
X133000047Y-98960861D01*
X133000045Y-98960858D01*
X132839141Y-98799954D01*
X132652734Y-98669432D01*
X132652732Y-98669431D01*
X132446497Y-98573261D01*
X132446488Y-98573258D01*
X132226697Y-98514366D01*
X132226693Y-98514365D01*
X132226692Y-98514365D01*
X132226691Y-98514364D01*
X132226686Y-98514364D01*
X132000002Y-98494532D01*
X131999998Y-98494532D01*
X131773313Y-98514364D01*
X131773302Y-98514366D01*
X131553511Y-98573258D01*
X131553502Y-98573261D01*
X131347267Y-98669431D01*
X131347265Y-98669432D01*
X131160858Y-98799954D01*
X130999954Y-98960858D01*
X130869432Y-99147265D01*
X130869431Y-99147267D01*
X130842382Y-99205275D01*
X130796209Y-99257714D01*
X130729016Y-99276866D01*
X130662135Y-99256650D01*
X130617618Y-99205275D01*
X130615812Y-99201402D01*
X130590568Y-99147266D01*
X130460047Y-98960861D01*
X130460045Y-98960858D01*
X130299141Y-98799954D01*
X130112734Y-98669432D01*
X130112732Y-98669431D01*
X129906497Y-98573261D01*
X129906488Y-98573258D01*
X129686697Y-98514366D01*
X129686693Y-98514365D01*
X129686692Y-98514365D01*
X129686691Y-98514364D01*
X129686686Y-98514364D01*
X129460002Y-98494532D01*
X129459998Y-98494532D01*
X129233313Y-98514364D01*
X129233302Y-98514366D01*
X129013511Y-98573258D01*
X129013502Y-98573261D01*
X128807267Y-98669431D01*
X128807265Y-98669432D01*
X128620858Y-98799954D01*
X128459954Y-98960858D01*
X128329433Y-99147264D01*
X128329432Y-99147266D01*
X128304189Y-99201401D01*
X128302106Y-99205867D01*
X128255933Y-99258306D01*
X128188739Y-99277457D01*
X128121858Y-99257241D01*
X128077342Y-99205865D01*
X128050135Y-99147520D01*
X128050134Y-99147518D01*
X127919657Y-98961179D01*
X127758820Y-98800342D01*
X127572482Y-98669865D01*
X127366328Y-98573734D01*
X127170000Y-98521127D01*
X127170000Y-99484314D01*
X127165606Y-99479920D01*
X127074394Y-99427259D01*
X126972661Y-99400000D01*
X126867339Y-99400000D01*
X126765606Y-99427259D01*
X126674394Y-99479920D01*
X126670000Y-99484314D01*
X126670000Y-98521127D01*
X126473671Y-98573734D01*
X126267517Y-98669865D01*
X126081179Y-98800342D01*
X125920342Y-98961179D01*
X125789865Y-99147517D01*
X125693734Y-99353673D01*
X125693730Y-99353682D01*
X125641127Y-99549999D01*
X123738926Y-99549999D01*
X123756546Y-99515145D01*
X123775842Y-99498425D01*
X123864627Y-99436257D01*
X123961401Y-99368495D01*
X124128495Y-99201401D01*
X124264035Y-99007830D01*
X124363903Y-98793663D01*
X124425063Y-98565408D01*
X124445659Y-98330000D01*
X124425063Y-98094592D01*
X124363903Y-97866337D01*
X124264035Y-97652171D01*
X124128495Y-97458599D01*
X124006567Y-97336671D01*
X123973084Y-97275351D01*
X123978068Y-97205659D01*
X124019939Y-97149725D01*
X124050915Y-97132810D01*
X124182331Y-97083796D01*
X124297546Y-96997546D01*
X124383796Y-96882331D01*
X124434091Y-96747483D01*
X124440500Y-96687873D01*
X124440499Y-94892128D01*
X124434091Y-94832517D01*
X124383796Y-94697669D01*
X124383795Y-94697668D01*
X124383793Y-94697664D01*
X124297547Y-94582455D01*
X124297544Y-94582452D01*
X124182335Y-94496206D01*
X124182328Y-94496202D01*
X124047482Y-94445908D01*
X124047483Y-94445908D01*
X123987883Y-94439501D01*
X123987881Y-94439500D01*
X123987873Y-94439500D01*
X123987864Y-94439500D01*
X122192129Y-94439500D01*
X122192123Y-94439501D01*
X122132516Y-94445908D01*
X121997671Y-94496202D01*
X121997664Y-94496206D01*
X121882455Y-94582452D01*
X121882452Y-94582455D01*
X121796206Y-94697664D01*
X121796202Y-94697671D01*
X121745908Y-94832517D01*
X121739501Y-94892116D01*
X121739501Y-94892123D01*
X121739500Y-94892135D01*
X121739500Y-96687870D01*
X121739501Y-96687876D01*
X121745908Y-96747483D01*
X121796202Y-96882328D01*
X121796206Y-96882335D01*
X121882452Y-96997544D01*
X121882455Y-96997547D01*
X121997664Y-97083793D01*
X121997671Y-97083797D01*
X122129081Y-97132810D01*
X122185015Y-97174681D01*
X122209432Y-97240145D01*
X122194580Y-97308418D01*
X122173430Y-97336673D01*
X122051503Y-97458600D01*
X121915965Y-97652169D01*
X121915964Y-97652171D01*
X121816098Y-97866335D01*
X121816094Y-97866344D01*
X121754938Y-98094586D01*
X121754936Y-98094596D01*
X121734341Y-98329999D01*
X118275500Y-98329999D01*
X118275500Y-91420172D01*
X120604500Y-91420172D01*
X120604500Y-91639827D01*
X120638861Y-91856776D01*
X120706741Y-92065688D01*
X120806464Y-92261404D01*
X120935566Y-92439101D01*
X121090898Y-92594433D01*
X121240514Y-92703133D01*
X121268599Y-92723538D01*
X121464314Y-92823260D01*
X121673220Y-92891138D01*
X121890172Y-92925500D01*
X121890173Y-92925500D01*
X122109827Y-92925500D01*
X122109828Y-92925500D01*
X122326780Y-92891138D01*
X122535686Y-92823260D01*
X122731401Y-92723538D01*
X122831174Y-92651049D01*
X122909101Y-92594433D01*
X122909103Y-92594430D01*
X122909107Y-92594428D01*
X123064428Y-92439107D01*
X123064430Y-92439103D01*
X123064433Y-92439101D01*
X123121049Y-92361174D01*
X123193538Y-92261401D01*
X123235015Y-92179998D01*
X125614532Y-92179998D01*
X125614532Y-92180001D01*
X125634364Y-92406686D01*
X125634366Y-92406697D01*
X125693258Y-92626488D01*
X125693261Y-92626497D01*
X125789431Y-92832732D01*
X125789432Y-92832734D01*
X125919954Y-93019141D01*
X126080858Y-93180045D01*
X126080861Y-93180047D01*
X126267266Y-93310568D01*
X126473504Y-93406739D01*
X126693308Y-93465635D01*
X126855230Y-93479801D01*
X126919998Y-93485468D01*
X126920000Y-93485468D01*
X126920002Y-93485468D01*
X126976807Y-93480498D01*
X127146692Y-93465635D01*
X127366496Y-93406739D01*
X127572734Y-93310568D01*
X127759139Y-93180047D01*
X127920047Y-93019139D01*
X128050568Y-92832734D01*
X128077618Y-92774724D01*
X128123790Y-92722285D01*
X128190983Y-92703133D01*
X128257865Y-92723348D01*
X128302382Y-92774725D01*
X128329429Y-92832728D01*
X128329432Y-92832734D01*
X128459954Y-93019141D01*
X128620858Y-93180045D01*
X128620861Y-93180047D01*
X128807266Y-93310568D01*
X129013504Y-93406739D01*
X129233308Y-93465635D01*
X129395230Y-93479801D01*
X129459998Y-93485468D01*
X129460000Y-93485468D01*
X129460002Y-93485468D01*
X129516807Y-93480498D01*
X129686692Y-93465635D01*
X129906496Y-93406739D01*
X130112734Y-93310568D01*
X130299139Y-93180047D01*
X130460047Y-93019139D01*
X130590568Y-92832734D01*
X130617618Y-92774724D01*
X130663790Y-92722285D01*
X130730983Y-92703133D01*
X130797865Y-92723348D01*
X130842382Y-92774725D01*
X130869429Y-92832728D01*
X130869432Y-92832734D01*
X130999954Y-93019141D01*
X131160858Y-93180045D01*
X131160861Y-93180047D01*
X131347266Y-93310568D01*
X131553504Y-93406739D01*
X131773308Y-93465635D01*
X131935230Y-93479801D01*
X131999998Y-93485468D01*
X132000000Y-93485468D01*
X132000002Y-93485468D01*
X132056807Y-93480498D01*
X132226692Y-93465635D01*
X132446496Y-93406739D01*
X132652734Y-93310568D01*
X132839139Y-93180047D01*
X133000047Y-93019139D01*
X133017272Y-92994539D01*
X133071848Y-92950913D01*
X133141346Y-92943718D01*
X133203701Y-92975239D01*
X133239116Y-93035468D01*
X133242138Y-93052406D01*
X133245908Y-93087483D01*
X133296202Y-93222328D01*
X133296206Y-93222335D01*
X133382452Y-93337544D01*
X133382455Y-93337547D01*
X133497664Y-93423793D01*
X133497671Y-93423797D01*
X133632517Y-93474091D01*
X133632516Y-93474091D01*
X133639444Y-93474835D01*
X133692127Y-93480500D01*
X135387872Y-93480499D01*
X135447483Y-93474091D01*
X135582331Y-93423796D01*
X135697546Y-93337546D01*
X135783796Y-93222331D01*
X135834091Y-93087483D01*
X135840500Y-93027873D01*
X135840499Y-91332128D01*
X135834091Y-91272517D01*
X135799567Y-91179954D01*
X135783797Y-91137671D01*
X135783793Y-91137664D01*
X135697547Y-91022455D01*
X135697544Y-91022452D01*
X135582335Y-90936206D01*
X135582328Y-90936202D01*
X135447482Y-90885908D01*
X135447483Y-90885908D01*
X135387883Y-90879501D01*
X135387881Y-90879500D01*
X135387873Y-90879500D01*
X135387864Y-90879500D01*
X133692129Y-90879500D01*
X133692123Y-90879501D01*
X133632516Y-90885908D01*
X133497671Y-90936202D01*
X133497664Y-90936206D01*
X133382455Y-91022452D01*
X133382452Y-91022455D01*
X133296206Y-91137664D01*
X133296202Y-91137671D01*
X133245908Y-91272516D01*
X133242137Y-91307596D01*
X133215398Y-91372146D01*
X133158006Y-91411994D01*
X133088180Y-91414487D01*
X133028092Y-91378834D01*
X133017273Y-91365462D01*
X133000045Y-91340858D01*
X132839141Y-91179954D01*
X132652734Y-91049432D01*
X132652732Y-91049431D01*
X132446497Y-90953261D01*
X132446488Y-90953258D01*
X132226697Y-90894366D01*
X132226693Y-90894365D01*
X132226692Y-90894365D01*
X132226691Y-90894364D01*
X132226686Y-90894364D01*
X132000002Y-90874532D01*
X131999998Y-90874532D01*
X131773313Y-90894364D01*
X131773302Y-90894366D01*
X131553511Y-90953258D01*
X131553502Y-90953261D01*
X131347267Y-91049431D01*
X131347265Y-91049432D01*
X131160858Y-91179954D01*
X130999954Y-91340858D01*
X130869432Y-91527265D01*
X130869431Y-91527267D01*
X130842382Y-91585275D01*
X130796209Y-91637714D01*
X130729016Y-91656866D01*
X130662135Y-91636650D01*
X130617618Y-91585275D01*
X130590568Y-91527267D01*
X130590567Y-91527265D01*
X130460045Y-91340858D01*
X130299141Y-91179954D01*
X130112734Y-91049432D01*
X130112732Y-91049431D01*
X129906497Y-90953261D01*
X129906488Y-90953258D01*
X129686697Y-90894366D01*
X129686693Y-90894365D01*
X129686692Y-90894365D01*
X129686691Y-90894364D01*
X129686686Y-90894364D01*
X129460002Y-90874532D01*
X129459998Y-90874532D01*
X129233313Y-90894364D01*
X129233302Y-90894366D01*
X129013511Y-90953258D01*
X129013502Y-90953261D01*
X128807267Y-91049431D01*
X128807265Y-91049432D01*
X128620858Y-91179954D01*
X128459954Y-91340858D01*
X128329432Y-91527265D01*
X128329431Y-91527267D01*
X128302382Y-91585275D01*
X128256209Y-91637714D01*
X128189016Y-91656866D01*
X128122135Y-91636650D01*
X128077618Y-91585275D01*
X128050568Y-91527267D01*
X128050567Y-91527265D01*
X127920045Y-91340858D01*
X127759141Y-91179954D01*
X127572734Y-91049432D01*
X127572732Y-91049431D01*
X127366497Y-90953261D01*
X127366488Y-90953258D01*
X127146697Y-90894366D01*
X127146693Y-90894365D01*
X127146692Y-90894365D01*
X127146691Y-90894364D01*
X127146686Y-90894364D01*
X126920002Y-90874532D01*
X126919998Y-90874532D01*
X126693313Y-90894364D01*
X126693302Y-90894366D01*
X126473511Y-90953258D01*
X126473502Y-90953261D01*
X126267267Y-91049431D01*
X126267265Y-91049432D01*
X126080858Y-91179954D01*
X125919954Y-91340858D01*
X125789432Y-91527265D01*
X125789431Y-91527267D01*
X125693261Y-91733502D01*
X125693258Y-91733511D01*
X125634366Y-91953302D01*
X125634364Y-91953313D01*
X125614532Y-92179998D01*
X123235015Y-92179998D01*
X123293260Y-92065686D01*
X123361138Y-91856780D01*
X123395500Y-91639828D01*
X123395500Y-91420172D01*
X123361138Y-91203220D01*
X123293260Y-90994314D01*
X123193538Y-90798599D01*
X123185242Y-90787181D01*
X123064433Y-90620898D01*
X122909101Y-90465566D01*
X122731404Y-90336464D01*
X122731403Y-90336463D01*
X122731401Y-90336462D01*
X122535686Y-90236740D01*
X122326780Y-90168862D01*
X122326778Y-90168861D01*
X122326777Y-90168861D01*
X122160120Y-90142465D01*
X122109828Y-90134500D01*
X121890172Y-90134500D01*
X121839879Y-90142465D01*
X121673223Y-90168861D01*
X121464311Y-90236741D01*
X121268595Y-90336464D01*
X121090898Y-90465566D01*
X120935566Y-90620898D01*
X120806464Y-90798595D01*
X120706741Y-90994311D01*
X120638861Y-91203223D01*
X120604500Y-91420172D01*
X118275500Y-91420172D01*
X118275500Y-87099997D01*
X123635034Y-87099997D01*
X123635034Y-87100002D01*
X123654858Y-87326599D01*
X123654860Y-87326610D01*
X123713730Y-87546317D01*
X123713735Y-87546331D01*
X123809863Y-87752478D01*
X123860974Y-87825472D01*
X124540000Y-87146446D01*
X124540000Y-87152661D01*
X124567259Y-87254394D01*
X124619920Y-87345606D01*
X124694394Y-87420080D01*
X124785606Y-87472741D01*
X124887339Y-87500000D01*
X124893553Y-87500000D01*
X124214526Y-88179025D01*
X124287513Y-88230132D01*
X124287521Y-88230136D01*
X124493668Y-88326264D01*
X124493682Y-88326269D01*
X124713389Y-88385139D01*
X124713400Y-88385141D01*
X124939998Y-88404966D01*
X124940002Y-88404966D01*
X125166599Y-88385141D01*
X125166610Y-88385139D01*
X125386317Y-88326269D01*
X125386331Y-88326264D01*
X125592478Y-88230136D01*
X125665471Y-88179024D01*
X124986447Y-87500000D01*
X124992661Y-87500000D01*
X125094394Y-87472741D01*
X125185606Y-87420080D01*
X125260080Y-87345606D01*
X125312741Y-87254394D01*
X125340000Y-87152661D01*
X125340000Y-87146447D01*
X126024197Y-87830644D01*
X126073192Y-87840491D01*
X126123375Y-87889106D01*
X126138049Y-87944632D01*
X126139099Y-87944576D01*
X126139146Y-87944571D01*
X126139146Y-87944573D01*
X126139324Y-87944564D01*
X126139501Y-87947876D01*
X126145908Y-88007483D01*
X126196202Y-88142328D01*
X126196206Y-88142335D01*
X126282452Y-88257544D01*
X126282455Y-88257547D01*
X126397664Y-88343793D01*
X126397671Y-88343797D01*
X126532517Y-88394091D01*
X126532516Y-88394091D01*
X126539444Y-88394835D01*
X126592127Y-88400500D01*
X128287872Y-88400499D01*
X128347483Y-88394091D01*
X128482331Y-88343796D01*
X128597546Y-88257546D01*
X128683796Y-88142331D01*
X128734091Y-88007483D01*
X128740500Y-87947873D01*
X128740499Y-87069997D01*
X130765034Y-87069997D01*
X130765034Y-87070002D01*
X130784858Y-87296599D01*
X130784860Y-87296610D01*
X130843730Y-87516317D01*
X130843735Y-87516331D01*
X130939863Y-87722478D01*
X130990974Y-87795472D01*
X131670000Y-87116446D01*
X131670000Y-87122661D01*
X131697259Y-87224394D01*
X131749920Y-87315606D01*
X131824394Y-87390080D01*
X131915606Y-87442741D01*
X132017339Y-87470000D01*
X132023553Y-87470000D01*
X131344526Y-88149025D01*
X131417513Y-88200132D01*
X131417521Y-88200136D01*
X131623668Y-88296264D01*
X131623682Y-88296269D01*
X131843389Y-88355139D01*
X131843400Y-88355141D01*
X132069998Y-88374966D01*
X132070002Y-88374966D01*
X132296599Y-88355141D01*
X132296610Y-88355139D01*
X132516317Y-88296269D01*
X132516331Y-88296264D01*
X132722478Y-88200136D01*
X132795471Y-88149024D01*
X132116447Y-87470000D01*
X132122661Y-87470000D01*
X132224394Y-87442741D01*
X132315606Y-87390080D01*
X132390080Y-87315606D01*
X132442741Y-87224394D01*
X132470000Y-87122661D01*
X132470000Y-87116447D01*
X133154197Y-87800644D01*
X133203192Y-87810491D01*
X133253375Y-87859106D01*
X133268049Y-87914632D01*
X133269099Y-87914576D01*
X133269146Y-87914571D01*
X133269146Y-87914573D01*
X133269324Y-87914564D01*
X133269501Y-87917876D01*
X133275908Y-87977483D01*
X133326202Y-88112328D01*
X133326206Y-88112335D01*
X133412452Y-88227544D01*
X133412455Y-88227547D01*
X133527664Y-88313793D01*
X133527671Y-88313797D01*
X133662517Y-88364091D01*
X133662516Y-88364091D01*
X133669444Y-88364835D01*
X133722127Y-88370500D01*
X135417872Y-88370499D01*
X135477483Y-88364091D01*
X135612331Y-88313796D01*
X135727546Y-88227546D01*
X135813796Y-88112331D01*
X135864091Y-87977483D01*
X135870500Y-87917873D01*
X135870499Y-86222128D01*
X135864091Y-86162517D01*
X135824985Y-86057669D01*
X135813797Y-86027671D01*
X135813793Y-86027664D01*
X135727547Y-85912455D01*
X135727544Y-85912452D01*
X135612335Y-85826206D01*
X135612328Y-85826202D01*
X135477482Y-85775908D01*
X135477483Y-85775908D01*
X135417883Y-85769501D01*
X135417881Y-85769500D01*
X135417873Y-85769500D01*
X135417864Y-85769500D01*
X133722129Y-85769500D01*
X133722123Y-85769501D01*
X133662516Y-85775908D01*
X133527671Y-85826202D01*
X133527664Y-85826206D01*
X133412455Y-85912452D01*
X133412452Y-85912455D01*
X133326206Y-86027664D01*
X133326202Y-86027671D01*
X133275908Y-86162517D01*
X133269501Y-86222116D01*
X133269501Y-86222123D01*
X133269322Y-86225452D01*
X133267847Y-86225372D01*
X133249815Y-86286784D01*
X133197011Y-86332539D01*
X133153522Y-86340029D01*
X132470000Y-87023551D01*
X132470000Y-87017339D01*
X132442741Y-86915606D01*
X132390080Y-86824394D01*
X132315606Y-86749920D01*
X132224394Y-86697259D01*
X132122661Y-86670000D01*
X132116448Y-86670000D01*
X132795472Y-85990974D01*
X132722478Y-85939863D01*
X132516331Y-85843735D01*
X132516317Y-85843730D01*
X132296610Y-85784860D01*
X132296599Y-85784858D01*
X132070002Y-85765034D01*
X132069998Y-85765034D01*
X131843400Y-85784858D01*
X131843389Y-85784860D01*
X131623682Y-85843730D01*
X131623673Y-85843734D01*
X131417516Y-85939866D01*
X131417512Y-85939868D01*
X131344526Y-85990973D01*
X131344526Y-85990974D01*
X132023553Y-86670000D01*
X132017339Y-86670000D01*
X131915606Y-86697259D01*
X131824394Y-86749920D01*
X131749920Y-86824394D01*
X131697259Y-86915606D01*
X131670000Y-87017339D01*
X131670000Y-87023552D01*
X130990974Y-86344526D01*
X130990973Y-86344526D01*
X130939868Y-86417512D01*
X130939866Y-86417516D01*
X130843734Y-86623673D01*
X130843730Y-86623682D01*
X130784860Y-86843389D01*
X130784858Y-86843400D01*
X130765034Y-87069997D01*
X128740499Y-87069997D01*
X128740499Y-86252128D01*
X128734091Y-86192517D01*
X128722901Y-86162516D01*
X128683797Y-86057671D01*
X128683793Y-86057664D01*
X128597547Y-85942455D01*
X128597544Y-85942452D01*
X128482335Y-85856206D01*
X128482328Y-85856202D01*
X128347482Y-85805908D01*
X128347483Y-85805908D01*
X128287883Y-85799501D01*
X128287881Y-85799500D01*
X128287873Y-85799500D01*
X128287864Y-85799500D01*
X126592129Y-85799500D01*
X126592123Y-85799501D01*
X126532516Y-85805908D01*
X126397671Y-85856202D01*
X126397664Y-85856206D01*
X126282455Y-85942452D01*
X126282452Y-85942455D01*
X126196206Y-86057664D01*
X126196202Y-86057671D01*
X126145908Y-86192517D01*
X126139501Y-86252116D01*
X126139501Y-86252123D01*
X126139322Y-86255452D01*
X126137847Y-86255372D01*
X126119815Y-86316784D01*
X126067011Y-86362539D01*
X126023522Y-86370029D01*
X125340000Y-87053551D01*
X125340000Y-87047339D01*
X125312741Y-86945606D01*
X125260080Y-86854394D01*
X125185606Y-86779920D01*
X125094394Y-86727259D01*
X124992661Y-86700000D01*
X124986448Y-86700000D01*
X125665472Y-86020974D01*
X125592478Y-85969863D01*
X125386331Y-85873735D01*
X125386317Y-85873730D01*
X125166610Y-85814860D01*
X125166599Y-85814858D01*
X124940002Y-85795034D01*
X124939998Y-85795034D01*
X124713400Y-85814858D01*
X124713389Y-85814860D01*
X124493682Y-85873730D01*
X124493673Y-85873734D01*
X124287516Y-85969866D01*
X124287512Y-85969868D01*
X124214526Y-86020973D01*
X124214526Y-86020974D01*
X124893553Y-86700000D01*
X124887339Y-86700000D01*
X124785606Y-86727259D01*
X124694394Y-86779920D01*
X124619920Y-86854394D01*
X124567259Y-86945606D01*
X124540000Y-87047339D01*
X124540000Y-87053552D01*
X123860974Y-86374526D01*
X123860973Y-86374526D01*
X123809868Y-86447512D01*
X123809866Y-86447516D01*
X123713734Y-86653673D01*
X123713730Y-86653682D01*
X123654860Y-86873389D01*
X123654858Y-86873400D01*
X123635034Y-87099997D01*
X118275500Y-87099997D01*
X118275500Y-82209999D01*
X118549364Y-82209999D01*
X118549364Y-82210000D01*
X119446988Y-82210000D01*
X119414075Y-82267007D01*
X119380000Y-82394174D01*
X119380000Y-82525826D01*
X119414075Y-82652993D01*
X119446988Y-82710000D01*
X118549364Y-82710000D01*
X118606567Y-82923486D01*
X118606570Y-82923492D01*
X118706399Y-83137578D01*
X118841894Y-83331082D01*
X119008917Y-83498105D01*
X119202421Y-83633600D01*
X119416507Y-83733429D01*
X119416516Y-83733433D01*
X119630000Y-83790634D01*
X119630000Y-82893012D01*
X119687007Y-82925925D01*
X119814174Y-82960000D01*
X119945826Y-82960000D01*
X120072993Y-82925925D01*
X120130000Y-82893012D01*
X120130000Y-83790633D01*
X120343483Y-83733433D01*
X120343492Y-83733429D01*
X120557578Y-83633600D01*
X120751082Y-83498105D01*
X120918105Y-83331082D01*
X121048119Y-83145405D01*
X121102696Y-83101781D01*
X121172195Y-83094588D01*
X121234549Y-83126110D01*
X121251269Y-83145405D01*
X121381505Y-83331401D01*
X121548599Y-83498495D01*
X121645384Y-83566265D01*
X121742165Y-83634032D01*
X121742167Y-83634033D01*
X121742170Y-83634035D01*
X121956337Y-83733903D01*
X122184592Y-83795063D01*
X122361034Y-83810500D01*
X122419999Y-83815659D01*
X122420000Y-83815659D01*
X122420001Y-83815659D01*
X122478966Y-83810500D01*
X122655408Y-83795063D01*
X122883663Y-83733903D01*
X123097830Y-83634035D01*
X123291401Y-83498495D01*
X123413329Y-83376566D01*
X123474648Y-83343084D01*
X123544340Y-83348068D01*
X123600274Y-83389939D01*
X123617189Y-83420917D01*
X123666202Y-83552328D01*
X123666206Y-83552335D01*
X123752452Y-83667544D01*
X123752455Y-83667547D01*
X123867664Y-83753793D01*
X123867671Y-83753797D01*
X124002517Y-83804091D01*
X124002516Y-83804091D01*
X124009444Y-83804835D01*
X124062127Y-83810500D01*
X125857872Y-83810499D01*
X125917483Y-83804091D01*
X126008907Y-83769992D01*
X140014671Y-83769992D01*
X140014671Y-83770007D01*
X140033964Y-84064363D01*
X140033965Y-84064373D01*
X140033966Y-84064380D01*
X140033968Y-84064390D01*
X140091518Y-84353716D01*
X140091521Y-84353730D01*
X140186349Y-84633080D01*
X140316825Y-84897660D01*
X140316829Y-84897667D01*
X140480725Y-85142955D01*
X140675241Y-85364758D01*
X140897043Y-85559273D01*
X141142335Y-85723172D01*
X141406923Y-85853652D01*
X141686278Y-85948481D01*
X141975620Y-86006034D01*
X142003888Y-86007886D01*
X142269993Y-86025329D01*
X142270000Y-86025329D01*
X142270007Y-86025329D01*
X142505675Y-86009881D01*
X142564380Y-86006034D01*
X142853722Y-85948481D01*
X143133077Y-85853652D01*
X143397665Y-85723172D01*
X143642957Y-85559273D01*
X143864758Y-85364758D01*
X144059273Y-85142957D01*
X144223172Y-84897665D01*
X144353652Y-84633077D01*
X144448481Y-84353722D01*
X144506034Y-84064380D01*
X144509881Y-84005675D01*
X144525329Y-83770007D01*
X144525329Y-83769992D01*
X144506035Y-83475636D01*
X144506034Y-83475620D01*
X144448481Y-83186278D01*
X144353652Y-82906923D01*
X144223172Y-82642336D01*
X144059273Y-82397043D01*
X143945234Y-82267007D01*
X143864758Y-82175241D01*
X143642955Y-81980725D01*
X143397667Y-81816829D01*
X143397660Y-81816825D01*
X143133080Y-81686349D01*
X142853730Y-81591521D01*
X142853724Y-81591519D01*
X142853722Y-81591519D01*
X142564380Y-81533966D01*
X142564373Y-81533965D01*
X142564363Y-81533964D01*
X142270007Y-81514671D01*
X142269993Y-81514671D01*
X141975636Y-81533964D01*
X141975624Y-81533965D01*
X141975620Y-81533966D01*
X141975612Y-81533967D01*
X141975609Y-81533968D01*
X141686283Y-81591518D01*
X141686269Y-81591521D01*
X141406919Y-81686349D01*
X141142334Y-81816828D01*
X140897041Y-81980728D01*
X140675241Y-82175241D01*
X140480728Y-82397041D01*
X140316828Y-82642334D01*
X140186349Y-82906919D01*
X140091521Y-83186269D01*
X140091518Y-83186283D01*
X140033968Y-83475609D01*
X140033964Y-83475636D01*
X140014671Y-83769992D01*
X126008907Y-83769992D01*
X126052331Y-83753796D01*
X126167546Y-83667546D01*
X126253796Y-83552331D01*
X126304091Y-83417483D01*
X126310500Y-83357873D01*
X126310499Y-81562128D01*
X126304091Y-81502517D01*
X126302810Y-81499083D01*
X126253797Y-81367671D01*
X126253793Y-81367664D01*
X126167547Y-81252455D01*
X126167544Y-81252452D01*
X126052335Y-81166206D01*
X126052328Y-81166202D01*
X125917482Y-81115908D01*
X125917483Y-81115908D01*
X125857883Y-81109501D01*
X125857881Y-81109500D01*
X125857873Y-81109500D01*
X125857864Y-81109500D01*
X124062129Y-81109500D01*
X124062123Y-81109501D01*
X124002516Y-81115908D01*
X123867671Y-81166202D01*
X123867664Y-81166206D01*
X123752455Y-81252452D01*
X123752452Y-81252455D01*
X123666206Y-81367664D01*
X123666203Y-81367669D01*
X123617189Y-81499083D01*
X123575317Y-81555016D01*
X123509853Y-81579433D01*
X123441580Y-81564581D01*
X123413326Y-81543430D01*
X123291402Y-81421506D01*
X123291395Y-81421501D01*
X123097834Y-81285967D01*
X123097830Y-81285965D01*
X123097828Y-81285964D01*
X122883663Y-81186097D01*
X122883659Y-81186096D01*
X122883655Y-81186094D01*
X122655413Y-81124938D01*
X122655403Y-81124936D01*
X122420001Y-81104341D01*
X122419999Y-81104341D01*
X122184596Y-81124936D01*
X122184586Y-81124938D01*
X121956344Y-81186094D01*
X121956335Y-81186098D01*
X121742171Y-81285964D01*
X121742169Y-81285965D01*
X121548597Y-81421505D01*
X121381508Y-81588594D01*
X121251269Y-81774595D01*
X121196692Y-81818219D01*
X121127193Y-81825412D01*
X121064839Y-81793890D01*
X121048119Y-81774594D01*
X120918113Y-81588926D01*
X120918108Y-81588920D01*
X120751082Y-81421894D01*
X120557578Y-81286399D01*
X120343492Y-81186570D01*
X120343486Y-81186567D01*
X120130000Y-81129364D01*
X120130000Y-82026988D01*
X120072993Y-81994075D01*
X119945826Y-81960000D01*
X119814174Y-81960000D01*
X119687007Y-81994075D01*
X119630000Y-82026988D01*
X119630000Y-81129364D01*
X119629999Y-81129364D01*
X119416513Y-81186567D01*
X119416507Y-81186570D01*
X119202422Y-81286399D01*
X119202420Y-81286400D01*
X119008926Y-81421886D01*
X119008920Y-81421891D01*
X118841891Y-81588920D01*
X118841886Y-81588926D01*
X118706400Y-81782420D01*
X118706399Y-81782422D01*
X118606570Y-81996507D01*
X118606567Y-81996513D01*
X118549364Y-82209999D01*
X118275500Y-82209999D01*
X118275500Y-69064998D01*
X126694532Y-69064998D01*
X126694532Y-69065001D01*
X126714364Y-69291686D01*
X126714366Y-69291697D01*
X126773258Y-69511488D01*
X126773261Y-69511497D01*
X126869431Y-69717732D01*
X126869432Y-69717734D01*
X126999954Y-69904141D01*
X127160858Y-70065045D01*
X127160861Y-70065047D01*
X127347266Y-70195568D01*
X127405275Y-70222618D01*
X127457714Y-70268791D01*
X127476866Y-70335984D01*
X127456650Y-70402865D01*
X127405275Y-70447382D01*
X127347267Y-70474431D01*
X127347265Y-70474432D01*
X127160858Y-70604954D01*
X126999954Y-70765858D01*
X126869432Y-70952265D01*
X126869431Y-70952267D01*
X126773261Y-71158502D01*
X126773258Y-71158511D01*
X126714366Y-71378302D01*
X126714364Y-71378313D01*
X126694532Y-71604998D01*
X126694532Y-71605001D01*
X126714364Y-71831686D01*
X126714366Y-71831697D01*
X126773258Y-72051488D01*
X126773261Y-72051497D01*
X126869431Y-72257732D01*
X126869432Y-72257734D01*
X126999954Y-72444141D01*
X127160858Y-72605045D01*
X127160861Y-72605047D01*
X127347266Y-72735568D01*
X127405275Y-72762618D01*
X127457714Y-72808791D01*
X127476866Y-72875984D01*
X127456650Y-72942865D01*
X127405275Y-72987382D01*
X127347267Y-73014431D01*
X127347265Y-73014432D01*
X127160858Y-73144954D01*
X126999954Y-73305858D01*
X126869432Y-73492265D01*
X126869431Y-73492267D01*
X126773261Y-73698502D01*
X126773258Y-73698511D01*
X126714366Y-73918302D01*
X126714364Y-73918313D01*
X126694532Y-74144998D01*
X126694532Y-74145001D01*
X126714364Y-74371686D01*
X126714366Y-74371697D01*
X126773258Y-74591488D01*
X126773261Y-74591497D01*
X126869431Y-74797732D01*
X126869432Y-74797734D01*
X126999954Y-74984141D01*
X127160858Y-75145045D01*
X127160861Y-75145047D01*
X127347266Y-75275568D01*
X127405275Y-75302618D01*
X127457714Y-75348791D01*
X127476866Y-75415984D01*
X127456650Y-75482865D01*
X127405275Y-75527382D01*
X127347267Y-75554431D01*
X127347265Y-75554432D01*
X127160858Y-75684954D01*
X126999954Y-75845858D01*
X126869432Y-76032265D01*
X126869431Y-76032267D01*
X126773261Y-76238502D01*
X126773258Y-76238511D01*
X126714366Y-76458302D01*
X126714364Y-76458313D01*
X126694532Y-76684998D01*
X126694532Y-76685001D01*
X126714364Y-76911686D01*
X126714366Y-76911697D01*
X126773258Y-77131488D01*
X126773261Y-77131497D01*
X126869431Y-77337732D01*
X126869432Y-77337734D01*
X126999954Y-77524141D01*
X127160858Y-77685045D01*
X127160861Y-77685047D01*
X127347266Y-77815568D01*
X127405275Y-77842618D01*
X127457714Y-77888791D01*
X127476866Y-77955984D01*
X127456650Y-78022865D01*
X127405275Y-78067382D01*
X127347267Y-78094431D01*
X127347265Y-78094432D01*
X127160858Y-78224954D01*
X126999954Y-78385858D01*
X126869432Y-78572265D01*
X126869431Y-78572267D01*
X126773261Y-78778502D01*
X126773258Y-78778511D01*
X126714366Y-78998302D01*
X126714364Y-78998313D01*
X126694532Y-79224998D01*
X126694532Y-79225001D01*
X126714364Y-79451686D01*
X126714366Y-79451697D01*
X126773258Y-79671488D01*
X126773261Y-79671497D01*
X126869431Y-79877732D01*
X126869432Y-79877734D01*
X126999954Y-80064141D01*
X127160858Y-80225045D01*
X127160861Y-80225047D01*
X127347266Y-80355568D01*
X127405275Y-80382618D01*
X127457714Y-80428791D01*
X127476866Y-80495984D01*
X127456650Y-80562865D01*
X127405275Y-80607382D01*
X127347267Y-80634431D01*
X127347265Y-80634432D01*
X127160858Y-80764954D01*
X126999954Y-80925858D01*
X126869432Y-81112265D01*
X126869431Y-81112267D01*
X126773261Y-81318502D01*
X126773258Y-81318511D01*
X126714366Y-81538302D01*
X126714364Y-81538313D01*
X126694532Y-81764998D01*
X126694532Y-81765001D01*
X126714364Y-81991686D01*
X126714366Y-81991697D01*
X126773258Y-82211488D01*
X126773261Y-82211497D01*
X126869431Y-82417732D01*
X126869432Y-82417734D01*
X126999954Y-82604141D01*
X127160858Y-82765045D01*
X127160861Y-82765047D01*
X127347266Y-82895568D01*
X127553504Y-82991739D01*
X127773308Y-83050635D01*
X127935230Y-83064801D01*
X127999998Y-83070468D01*
X128000000Y-83070468D01*
X128000002Y-83070468D01*
X128056673Y-83065509D01*
X128226692Y-83050635D01*
X128446496Y-82991739D01*
X128652734Y-82895568D01*
X128839139Y-82765047D01*
X129000047Y-82604139D01*
X129130568Y-82417734D01*
X129226739Y-82211496D01*
X129285635Y-81991692D01*
X129305468Y-81765000D01*
X129285635Y-81538308D01*
X129226739Y-81318504D01*
X129130568Y-81112266D01*
X129000047Y-80925861D01*
X129000045Y-80925858D01*
X128839141Y-80764954D01*
X128652734Y-80634432D01*
X128652728Y-80634429D01*
X128594725Y-80607382D01*
X128542285Y-80561210D01*
X128523133Y-80494017D01*
X128543348Y-80427135D01*
X128594725Y-80382618D01*
X128652734Y-80355568D01*
X128839139Y-80225047D01*
X129000047Y-80064139D01*
X129130568Y-79877734D01*
X129226739Y-79671496D01*
X129285635Y-79451692D01*
X129305468Y-79225000D01*
X129285635Y-78998308D01*
X129226739Y-78778504D01*
X129130568Y-78572266D01*
X129000047Y-78385861D01*
X129000045Y-78385858D01*
X128839141Y-78224954D01*
X128652734Y-78094432D01*
X128652728Y-78094429D01*
X128594725Y-78067382D01*
X128542285Y-78021210D01*
X128523133Y-77954017D01*
X128543348Y-77887135D01*
X128594725Y-77842618D01*
X128652734Y-77815568D01*
X128839139Y-77685047D01*
X129000047Y-77524139D01*
X129130568Y-77337734D01*
X129226739Y-77131496D01*
X129285635Y-76911692D01*
X129305468Y-76685000D01*
X129285635Y-76458308D01*
X129226739Y-76238504D01*
X129130568Y-76032266D01*
X129032839Y-75892693D01*
X129000045Y-75845858D01*
X128839141Y-75684954D01*
X128652734Y-75554432D01*
X128652728Y-75554429D01*
X128594725Y-75527382D01*
X128542285Y-75481210D01*
X128523133Y-75414017D01*
X128543348Y-75347135D01*
X128594725Y-75302618D01*
X128652734Y-75275568D01*
X128839139Y-75145047D01*
X129000047Y-74984139D01*
X129130568Y-74797734D01*
X129226739Y-74591496D01*
X129285635Y-74371692D01*
X129305468Y-74145000D01*
X129304345Y-74132169D01*
X129285635Y-73918313D01*
X129285635Y-73918308D01*
X129226739Y-73698504D01*
X129130568Y-73492266D01*
X129032839Y-73352693D01*
X129000045Y-73305858D01*
X128839141Y-73144954D01*
X128652734Y-73014432D01*
X128652728Y-73014429D01*
X128594725Y-72987382D01*
X128542285Y-72941210D01*
X128523133Y-72874017D01*
X128543348Y-72807135D01*
X128594725Y-72762618D01*
X128652734Y-72735568D01*
X128839139Y-72605047D01*
X129000047Y-72444139D01*
X129130568Y-72257734D01*
X129226739Y-72051496D01*
X129285635Y-71831692D01*
X129305468Y-71605000D01*
X129304345Y-71592169D01*
X129285635Y-71378313D01*
X129285635Y-71378308D01*
X129226739Y-71158504D01*
X129130568Y-70952266D01*
X129032839Y-70812693D01*
X129000045Y-70765858D01*
X128839141Y-70604954D01*
X128652734Y-70474432D01*
X128652728Y-70474429D01*
X128594725Y-70447382D01*
X128542285Y-70401210D01*
X128523133Y-70334017D01*
X128543348Y-70267135D01*
X128594725Y-70222618D01*
X128652734Y-70195568D01*
X128839139Y-70065047D01*
X129000047Y-69904139D01*
X129130568Y-69717734D01*
X129226739Y-69511496D01*
X129285635Y-69291692D01*
X129305468Y-69065000D01*
X129305468Y-69064998D01*
X134314532Y-69064998D01*
X134314532Y-69065001D01*
X134334364Y-69291686D01*
X134334366Y-69291697D01*
X134393258Y-69511488D01*
X134393261Y-69511497D01*
X134489431Y-69717732D01*
X134489432Y-69717734D01*
X134619954Y-69904141D01*
X134780858Y-70065045D01*
X134780861Y-70065047D01*
X134967266Y-70195568D01*
X135025275Y-70222618D01*
X135077714Y-70268791D01*
X135096866Y-70335984D01*
X135076650Y-70402865D01*
X135025275Y-70447382D01*
X134967267Y-70474431D01*
X134967265Y-70474432D01*
X134780858Y-70604954D01*
X134619954Y-70765858D01*
X134489432Y-70952265D01*
X134489431Y-70952267D01*
X134393261Y-71158502D01*
X134393258Y-71158511D01*
X134334366Y-71378302D01*
X134334364Y-71378313D01*
X134314532Y-71604998D01*
X134314532Y-71605001D01*
X134334364Y-71831686D01*
X134334366Y-71831697D01*
X134393258Y-72051488D01*
X134393261Y-72051497D01*
X134489431Y-72257732D01*
X134489432Y-72257734D01*
X134619954Y-72444141D01*
X134780858Y-72605045D01*
X134780861Y-72605047D01*
X134967266Y-72735568D01*
X135025275Y-72762618D01*
X135077714Y-72808791D01*
X135096866Y-72875984D01*
X135076650Y-72942865D01*
X135025275Y-72987382D01*
X134967267Y-73014431D01*
X134967265Y-73014432D01*
X134780858Y-73144954D01*
X134619954Y-73305858D01*
X134489432Y-73492265D01*
X134489431Y-73492267D01*
X134393261Y-73698502D01*
X134393258Y-73698511D01*
X134334366Y-73918302D01*
X134334364Y-73918313D01*
X134314532Y-74144998D01*
X134314532Y-74145001D01*
X134334364Y-74371686D01*
X134334366Y-74371697D01*
X134393258Y-74591488D01*
X134393261Y-74591497D01*
X134489431Y-74797732D01*
X134489432Y-74797734D01*
X134619954Y-74984141D01*
X134780858Y-75145045D01*
X134780861Y-75145047D01*
X134967266Y-75275568D01*
X135025275Y-75302618D01*
X135077714Y-75348791D01*
X135096866Y-75415984D01*
X135076650Y-75482865D01*
X135025275Y-75527382D01*
X134967267Y-75554431D01*
X134967265Y-75554432D01*
X134780858Y-75684954D01*
X134619954Y-75845858D01*
X134489432Y-76032265D01*
X134489431Y-76032267D01*
X134393261Y-76238502D01*
X134393258Y-76238511D01*
X134334366Y-76458302D01*
X134334364Y-76458313D01*
X134314532Y-76684998D01*
X134314532Y-76685001D01*
X134334364Y-76911686D01*
X134334366Y-76911697D01*
X134393258Y-77131488D01*
X134393261Y-77131497D01*
X134489431Y-77337732D01*
X134489432Y-77337734D01*
X134619954Y-77524141D01*
X134780858Y-77685045D01*
X134780861Y-77685047D01*
X134967266Y-77815568D01*
X135025275Y-77842618D01*
X135077714Y-77888791D01*
X135096866Y-77955984D01*
X135076650Y-78022865D01*
X135025275Y-78067382D01*
X134967267Y-78094431D01*
X134967265Y-78094432D01*
X134780858Y-78224954D01*
X134619954Y-78385858D01*
X134489432Y-78572265D01*
X134489431Y-78572267D01*
X134393261Y-78778502D01*
X134393258Y-78778511D01*
X134334366Y-78998302D01*
X134334364Y-78998313D01*
X134314532Y-79224998D01*
X134314532Y-79225001D01*
X134334364Y-79451686D01*
X134334366Y-79451697D01*
X134393258Y-79671488D01*
X134393261Y-79671497D01*
X134489431Y-79877732D01*
X134489432Y-79877734D01*
X134619954Y-80064141D01*
X134780858Y-80225045D01*
X134780861Y-80225047D01*
X134967266Y-80355568D01*
X135025275Y-80382618D01*
X135077714Y-80428791D01*
X135096866Y-80495984D01*
X135076650Y-80562865D01*
X135025275Y-80607382D01*
X134967267Y-80634431D01*
X134967265Y-80634432D01*
X134780858Y-80764954D01*
X134619954Y-80925858D01*
X134489432Y-81112265D01*
X134489431Y-81112267D01*
X134393261Y-81318502D01*
X134393258Y-81318511D01*
X134334366Y-81538302D01*
X134334364Y-81538313D01*
X134314532Y-81764998D01*
X134314532Y-81765001D01*
X134334364Y-81991686D01*
X134334366Y-81991697D01*
X134393258Y-82211488D01*
X134393261Y-82211497D01*
X134489431Y-82417732D01*
X134489432Y-82417734D01*
X134619954Y-82604141D01*
X134780858Y-82765045D01*
X134780861Y-82765047D01*
X134967266Y-82895568D01*
X135173504Y-82991739D01*
X135393308Y-83050635D01*
X135555230Y-83064801D01*
X135619998Y-83070468D01*
X135620000Y-83070468D01*
X135620002Y-83070468D01*
X135676673Y-83065509D01*
X135846692Y-83050635D01*
X136066496Y-82991739D01*
X136272734Y-82895568D01*
X136459139Y-82765047D01*
X136620047Y-82604139D01*
X136750568Y-82417734D01*
X136846739Y-82211496D01*
X136905635Y-81991692D01*
X136925468Y-81765000D01*
X136905635Y-81538308D01*
X136846739Y-81318504D01*
X136750568Y-81112266D01*
X136620047Y-80925861D01*
X136620045Y-80925858D01*
X136459141Y-80764954D01*
X136272734Y-80634432D01*
X136272728Y-80634429D01*
X136214725Y-80607382D01*
X136162285Y-80561210D01*
X136143133Y-80494017D01*
X136163348Y-80427135D01*
X136214725Y-80382618D01*
X136272734Y-80355568D01*
X136459139Y-80225047D01*
X136620047Y-80064139D01*
X136750568Y-79877734D01*
X136846739Y-79671496D01*
X136905635Y-79451692D01*
X136925468Y-79225000D01*
X136905635Y-78998308D01*
X136846739Y-78778504D01*
X136750568Y-78572266D01*
X136620047Y-78385861D01*
X136620045Y-78385858D01*
X136459141Y-78224954D01*
X136272734Y-78094432D01*
X136272728Y-78094429D01*
X136214725Y-78067382D01*
X136162285Y-78021210D01*
X136143133Y-77954017D01*
X136147318Y-77940172D01*
X142954500Y-77940172D01*
X142954500Y-78159828D01*
X142988862Y-78376780D01*
X143056740Y-78585686D01*
X143154989Y-78778511D01*
X143156464Y-78781404D01*
X143285566Y-78959101D01*
X143440898Y-79114433D01*
X143593081Y-79224998D01*
X143618599Y-79243538D01*
X143814314Y-79343260D01*
X144023220Y-79411138D01*
X144240172Y-79445500D01*
X144240173Y-79445500D01*
X144459827Y-79445500D01*
X144459828Y-79445500D01*
X144676780Y-79411138D01*
X144885686Y-79343260D01*
X145081401Y-79243538D01*
X145181174Y-79171049D01*
X145259101Y-79114433D01*
X145259103Y-79114430D01*
X145259107Y-79114428D01*
X145414428Y-78959107D01*
X145414430Y-78959103D01*
X145414433Y-78959101D01*
X145471049Y-78881174D01*
X145543538Y-78781401D01*
X145643260Y-78585686D01*
X145711138Y-78376780D01*
X145745500Y-78159828D01*
X145745500Y-77940172D01*
X145711138Y-77723220D01*
X145643260Y-77514314D01*
X145543538Y-77318599D01*
X145535242Y-77307181D01*
X145414433Y-77140898D01*
X145259101Y-76985566D01*
X145081404Y-76856464D01*
X145081403Y-76856463D01*
X145081401Y-76856462D01*
X144885686Y-76756740D01*
X144676780Y-76688862D01*
X144676778Y-76688861D01*
X144676777Y-76688861D01*
X144510120Y-76662465D01*
X144459828Y-76654500D01*
X144240172Y-76654500D01*
X144189879Y-76662465D01*
X144023223Y-76688861D01*
X143814311Y-76756741D01*
X143618595Y-76856464D01*
X143440898Y-76985566D01*
X143285566Y-77140898D01*
X143156464Y-77318595D01*
X143056741Y-77514311D01*
X142988861Y-77723223D01*
X142974235Y-77815568D01*
X142954500Y-77940172D01*
X136147318Y-77940172D01*
X136163348Y-77887135D01*
X136214725Y-77842618D01*
X136272734Y-77815568D01*
X136459139Y-77685047D01*
X136620047Y-77524139D01*
X136750568Y-77337734D01*
X136846739Y-77131496D01*
X136905635Y-76911692D01*
X136925468Y-76685000D01*
X136905635Y-76458308D01*
X136846739Y-76238504D01*
X136750568Y-76032266D01*
X136652839Y-75892693D01*
X136620045Y-75845858D01*
X136459141Y-75684954D01*
X136272734Y-75554432D01*
X136272728Y-75554429D01*
X136214725Y-75527382D01*
X136162285Y-75481210D01*
X136143133Y-75414017D01*
X136163348Y-75347135D01*
X136214725Y-75302618D01*
X136272734Y-75275568D01*
X136459139Y-75145047D01*
X136620047Y-74984139D01*
X136750568Y-74797734D01*
X136846739Y-74591496D01*
X136905635Y-74371692D01*
X136925468Y-74145000D01*
X136924345Y-74132169D01*
X136905635Y-73918313D01*
X136905635Y-73918308D01*
X136846739Y-73698504D01*
X136750568Y-73492266D01*
X136652839Y-73352693D01*
X136620045Y-73305858D01*
X136459141Y-73144954D01*
X136272734Y-73014432D01*
X136272728Y-73014429D01*
X136214725Y-72987382D01*
X136162285Y-72941210D01*
X136143133Y-72874017D01*
X136163348Y-72807135D01*
X136214725Y-72762618D01*
X136272734Y-72735568D01*
X136459139Y-72605047D01*
X136620047Y-72444139D01*
X136750568Y-72257734D01*
X136846739Y-72051496D01*
X136905635Y-71831692D01*
X136925468Y-71605000D01*
X136924345Y-71592169D01*
X136905635Y-71378313D01*
X136905635Y-71378308D01*
X136846739Y-71158504D01*
X136750568Y-70952266D01*
X136652839Y-70812693D01*
X136620045Y-70765858D01*
X136459141Y-70604954D01*
X136272734Y-70474432D01*
X136272728Y-70474429D01*
X136214725Y-70447382D01*
X136162285Y-70401210D01*
X136143133Y-70334017D01*
X136163348Y-70267135D01*
X136214725Y-70222618D01*
X136272734Y-70195568D01*
X136459139Y-70065047D01*
X136620047Y-69904139D01*
X136741980Y-69729999D01*
X137524341Y-69729999D01*
X137524341Y-69730000D01*
X137544936Y-69965403D01*
X137544938Y-69965413D01*
X137606094Y-70193655D01*
X137606096Y-70193659D01*
X137606097Y-70193663D01*
X137672004Y-70335000D01*
X137705965Y-70407830D01*
X137705967Y-70407834D01*
X137752600Y-70474432D01*
X137841501Y-70601396D01*
X137841506Y-70601402D01*
X138008597Y-70768493D01*
X138008603Y-70768498D01*
X138194158Y-70898425D01*
X138237783Y-70953002D01*
X138244977Y-71022500D01*
X138213454Y-71084855D01*
X138194158Y-71101575D01*
X138008597Y-71231505D01*
X137841505Y-71398597D01*
X137705965Y-71592169D01*
X137705964Y-71592171D01*
X137606098Y-71806335D01*
X137606094Y-71806344D01*
X137544938Y-72034586D01*
X137544936Y-72034596D01*
X137524341Y-72269999D01*
X137524341Y-72270000D01*
X137544936Y-72505403D01*
X137544938Y-72505413D01*
X137606094Y-72733655D01*
X137606096Y-72733659D01*
X137606097Y-72733663D01*
X137672004Y-72875000D01*
X137705965Y-72947830D01*
X137705967Y-72947834D01*
X137752600Y-73014432D01*
X137841501Y-73141396D01*
X137841506Y-73141402D01*
X138008597Y-73308493D01*
X138008603Y-73308498D01*
X138194158Y-73438425D01*
X138237783Y-73493002D01*
X138244977Y-73562500D01*
X138213454Y-73624855D01*
X138194158Y-73641575D01*
X138008597Y-73771505D01*
X137841505Y-73938597D01*
X137705965Y-74132169D01*
X137705964Y-74132171D01*
X137606098Y-74346335D01*
X137606094Y-74346344D01*
X137544938Y-74574586D01*
X137544936Y-74574596D01*
X137524341Y-74809999D01*
X137524341Y-74810000D01*
X137544936Y-75045403D01*
X137544938Y-75045413D01*
X137606094Y-75273655D01*
X137606096Y-75273659D01*
X137606097Y-75273663D01*
X137672004Y-75415000D01*
X137705965Y-75487830D01*
X137705967Y-75487834D01*
X137752600Y-75554432D01*
X137841505Y-75681401D01*
X138008599Y-75848495D01*
X138105384Y-75916265D01*
X138202165Y-75984032D01*
X138202167Y-75984033D01*
X138202170Y-75984035D01*
X138416337Y-76083903D01*
X138644592Y-76145063D01*
X138832918Y-76161539D01*
X138879999Y-76165659D01*
X138880000Y-76165659D01*
X138880001Y-76165659D01*
X138919234Y-76162226D01*
X139115408Y-76145063D01*
X139343663Y-76083903D01*
X139557830Y-75984035D01*
X139751401Y-75848495D01*
X139918495Y-75681401D01*
X140048425Y-75495842D01*
X140103002Y-75452217D01*
X140172500Y-75445023D01*
X140234855Y-75476546D01*
X140251575Y-75495842D01*
X140381500Y-75681395D01*
X140381505Y-75681401D01*
X140548599Y-75848495D01*
X140645384Y-75916265D01*
X140742165Y-75984032D01*
X140742167Y-75984033D01*
X140742170Y-75984035D01*
X140956337Y-76083903D01*
X141184592Y-76145063D01*
X141372918Y-76161539D01*
X141419999Y-76165659D01*
X141420000Y-76165659D01*
X141420001Y-76165659D01*
X141459234Y-76162226D01*
X141655408Y-76145063D01*
X141883663Y-76083903D01*
X142097830Y-75984035D01*
X142291401Y-75848495D01*
X142458495Y-75681401D01*
X142594035Y-75487830D01*
X142693903Y-75273663D01*
X142755063Y-75045408D01*
X142775659Y-74810000D01*
X142755063Y-74574592D01*
X142693903Y-74346337D01*
X142594035Y-74132171D01*
X142588425Y-74124158D01*
X142458494Y-73938597D01*
X142291402Y-73771506D01*
X142291396Y-73771501D01*
X142105842Y-73641575D01*
X142062217Y-73586998D01*
X142055023Y-73517500D01*
X142086546Y-73455145D01*
X142105842Y-73438425D01*
X142128026Y-73422891D01*
X142291401Y-73308495D01*
X142458495Y-73141401D01*
X142594035Y-72947830D01*
X142693903Y-72733663D01*
X142755063Y-72505408D01*
X142775659Y-72270000D01*
X142755063Y-72034592D01*
X142693903Y-71806337D01*
X142594035Y-71592171D01*
X142588425Y-71584158D01*
X142458494Y-71398597D01*
X142291402Y-71231506D01*
X142291396Y-71231501D01*
X142105842Y-71101575D01*
X142062217Y-71046998D01*
X142055023Y-70977500D01*
X142086546Y-70915145D01*
X142105842Y-70898425D01*
X142128026Y-70882891D01*
X142291401Y-70768495D01*
X142458495Y-70601401D01*
X142594035Y-70407830D01*
X142693903Y-70193663D01*
X142755063Y-69965408D01*
X142775659Y-69730000D01*
X142755063Y-69494592D01*
X142693903Y-69266337D01*
X142594035Y-69052171D01*
X142588425Y-69044158D01*
X142458494Y-68858597D01*
X142291402Y-68691506D01*
X142291396Y-68691501D01*
X142105842Y-68561575D01*
X142062217Y-68506998D01*
X142055023Y-68437500D01*
X142086546Y-68375145D01*
X142105842Y-68358425D01*
X142214865Y-68282086D01*
X142291401Y-68228495D01*
X142458495Y-68061401D01*
X142594035Y-67867830D01*
X142693903Y-67653663D01*
X142755063Y-67425408D01*
X142775659Y-67190000D01*
X142755063Y-66954592D01*
X142693903Y-66726337D01*
X142594035Y-66512171D01*
X142566145Y-66472339D01*
X142458494Y-66318597D01*
X142291402Y-66151506D01*
X142291395Y-66151501D01*
X142097834Y-66015967D01*
X142097830Y-66015965D01*
X142026727Y-65982809D01*
X141883663Y-65916097D01*
X141883659Y-65916096D01*
X141883655Y-65916094D01*
X141655413Y-65854938D01*
X141655403Y-65854936D01*
X141420001Y-65834341D01*
X141419999Y-65834341D01*
X141184596Y-65854936D01*
X141184586Y-65854938D01*
X140956344Y-65916094D01*
X140956335Y-65916098D01*
X140742171Y-66015964D01*
X140742169Y-66015965D01*
X140548600Y-66151503D01*
X140426284Y-66273819D01*
X140364961Y-66307303D01*
X140295269Y-66302319D01*
X140239336Y-66260447D01*
X140222421Y-66229470D01*
X140173354Y-66097913D01*
X140173350Y-66097906D01*
X140087190Y-65982812D01*
X140087187Y-65982809D01*
X139972093Y-65896649D01*
X139972086Y-65896645D01*
X139837379Y-65846403D01*
X139837372Y-65846401D01*
X139777844Y-65840000D01*
X139130000Y-65840000D01*
X139130000Y-66756988D01*
X139072993Y-66724075D01*
X138945826Y-66690000D01*
X138814174Y-66690000D01*
X138687007Y-66724075D01*
X138630000Y-66756988D01*
X138630000Y-65840000D01*
X137982155Y-65840000D01*
X137922627Y-65846401D01*
X137922620Y-65846403D01*
X137787913Y-65896645D01*
X137787906Y-65896649D01*
X137672812Y-65982809D01*
X137672809Y-65982812D01*
X137586649Y-66097906D01*
X137586645Y-66097913D01*
X137536403Y-66232620D01*
X137536401Y-66232627D01*
X137530000Y-66292155D01*
X137530000Y-66940000D01*
X138446988Y-66940000D01*
X138414075Y-66997007D01*
X138380000Y-67124174D01*
X138380000Y-67255826D01*
X138414075Y-67382993D01*
X138446988Y-67440000D01*
X137530000Y-67440000D01*
X137530000Y-68087844D01*
X137536401Y-68147372D01*
X137536403Y-68147379D01*
X137586645Y-68282086D01*
X137586649Y-68282093D01*
X137672809Y-68397187D01*
X137672812Y-68397190D01*
X137787906Y-68483350D01*
X137787913Y-68483354D01*
X137919470Y-68532421D01*
X137975403Y-68574292D01*
X137999821Y-68639756D01*
X137984970Y-68708029D01*
X137963819Y-68736284D01*
X137841503Y-68858600D01*
X137705965Y-69052169D01*
X137705964Y-69052171D01*
X137606098Y-69266335D01*
X137606094Y-69266344D01*
X137544938Y-69494586D01*
X137544936Y-69494596D01*
X137524341Y-69729999D01*
X136741980Y-69729999D01*
X136750568Y-69717734D01*
X136846739Y-69511496D01*
X136905635Y-69291692D01*
X136925468Y-69065000D01*
X136924345Y-69052169D01*
X136905635Y-68838313D01*
X136905635Y-68838308D01*
X136860916Y-68671415D01*
X136846741Y-68618511D01*
X136846738Y-68618502D01*
X136817576Y-68555965D01*
X136750568Y-68412266D01*
X136652839Y-68272693D01*
X136620045Y-68225858D01*
X136459141Y-68064954D01*
X136272734Y-67934432D01*
X136272732Y-67934431D01*
X136249612Y-67923650D01*
X136214132Y-67907105D01*
X136161694Y-67860934D01*
X136142542Y-67793740D01*
X136162758Y-67726859D01*
X136214134Y-67682341D01*
X136272484Y-67655132D01*
X136458820Y-67524657D01*
X136619657Y-67363820D01*
X136750134Y-67177482D01*
X136846265Y-66971326D01*
X136846269Y-66971317D01*
X136898872Y-66775000D01*
X135935686Y-66775000D01*
X135940080Y-66770606D01*
X135992741Y-66679394D01*
X136020000Y-66577661D01*
X136020000Y-66472339D01*
X135992741Y-66370606D01*
X135940080Y-66279394D01*
X135935686Y-66275000D01*
X136898872Y-66275000D01*
X136898872Y-66274999D01*
X136846269Y-66078682D01*
X136846265Y-66078673D01*
X136750134Y-65872517D01*
X136619657Y-65686179D01*
X136458820Y-65525342D01*
X136272482Y-65394865D01*
X136066328Y-65298734D01*
X135870000Y-65246127D01*
X135870000Y-66209314D01*
X135865606Y-66204920D01*
X135774394Y-66152259D01*
X135672661Y-66125000D01*
X135567339Y-66125000D01*
X135465606Y-66152259D01*
X135374394Y-66204920D01*
X135370000Y-66209314D01*
X135370000Y-65246127D01*
X135173671Y-65298734D01*
X134967517Y-65394865D01*
X134781179Y-65525342D01*
X134620342Y-65686179D01*
X134489865Y-65872517D01*
X134393734Y-66078673D01*
X134393730Y-66078682D01*
X134341127Y-66274999D01*
X134341128Y-66275000D01*
X135304314Y-66275000D01*
X135299920Y-66279394D01*
X135247259Y-66370606D01*
X135220000Y-66472339D01*
X135220000Y-66577661D01*
X135247259Y-66679394D01*
X135299920Y-66770606D01*
X135304314Y-66775000D01*
X134341128Y-66775000D01*
X134393730Y-66971317D01*
X134393734Y-66971326D01*
X134489865Y-67177482D01*
X134620342Y-67363820D01*
X134781179Y-67524657D01*
X134967518Y-67655134D01*
X134967520Y-67655135D01*
X135025865Y-67682342D01*
X135078305Y-67728514D01*
X135097457Y-67795707D01*
X135077242Y-67862589D01*
X135025867Y-67907105D01*
X134990388Y-67923650D01*
X134967264Y-67934433D01*
X134780858Y-68064954D01*
X134619954Y-68225858D01*
X134489432Y-68412265D01*
X134489431Y-68412267D01*
X134393261Y-68618502D01*
X134393258Y-68618511D01*
X134334366Y-68838302D01*
X134334364Y-68838313D01*
X134314532Y-69064998D01*
X129305468Y-69064998D01*
X129304345Y-69052169D01*
X129285635Y-68838313D01*
X129285635Y-68838308D01*
X129240916Y-68671415D01*
X129226741Y-68618511D01*
X129226738Y-68618502D01*
X129197576Y-68555965D01*
X129130568Y-68412266D01*
X129032839Y-68272693D01*
X129000045Y-68225858D01*
X128839143Y-68064956D01*
X128834067Y-68061402D01*
X128814535Y-68047725D01*
X128770912Y-67993149D01*
X128763719Y-67923650D01*
X128795241Y-67861296D01*
X128855471Y-67825882D01*
X128872404Y-67822861D01*
X128907483Y-67819091D01*
X129042331Y-67768796D01*
X129157546Y-67682546D01*
X129243796Y-67567331D01*
X129294091Y-67432483D01*
X129300500Y-67372873D01*
X129300499Y-65677128D01*
X129294091Y-65617517D01*
X129243796Y-65482669D01*
X129243795Y-65482668D01*
X129243793Y-65482664D01*
X129157547Y-65367455D01*
X129157544Y-65367452D01*
X129042335Y-65281206D01*
X129042328Y-65281202D01*
X128907482Y-65230908D01*
X128907483Y-65230908D01*
X128847883Y-65224501D01*
X128847881Y-65224500D01*
X128847873Y-65224500D01*
X128847864Y-65224500D01*
X127152129Y-65224500D01*
X127152123Y-65224501D01*
X127092516Y-65230908D01*
X126957671Y-65281202D01*
X126957664Y-65281206D01*
X126842455Y-65367452D01*
X126842452Y-65367455D01*
X126756206Y-65482664D01*
X126756202Y-65482671D01*
X126705908Y-65617517D01*
X126705165Y-65624433D01*
X126699501Y-65677123D01*
X126699500Y-65677135D01*
X126699500Y-67372870D01*
X126699501Y-67372876D01*
X126705908Y-67432483D01*
X126756202Y-67567328D01*
X126756206Y-67567335D01*
X126842452Y-67682544D01*
X126842455Y-67682547D01*
X126957664Y-67768793D01*
X126957671Y-67768797D01*
X126986006Y-67779365D01*
X127092517Y-67819091D01*
X127127596Y-67822862D01*
X127192144Y-67849599D01*
X127231993Y-67906991D01*
X127234488Y-67976816D01*
X127198836Y-68036905D01*
X127185464Y-68047725D01*
X127160858Y-68064954D01*
X126999954Y-68225858D01*
X126869432Y-68412265D01*
X126869431Y-68412267D01*
X126773261Y-68618502D01*
X126773258Y-68618511D01*
X126714366Y-68838302D01*
X126714364Y-68838313D01*
X126694532Y-69064998D01*
X118275500Y-69064998D01*
X118275500Y-64450172D01*
X120604500Y-64450172D01*
X120604500Y-64669828D01*
X120638862Y-64886780D01*
X120706740Y-65095686D01*
X120801267Y-65281206D01*
X120806464Y-65291404D01*
X120935566Y-65469101D01*
X121090898Y-65624433D01*
X121257181Y-65745242D01*
X121268599Y-65753538D01*
X121464314Y-65853260D01*
X121673220Y-65921138D01*
X121890172Y-65955500D01*
X121890173Y-65955500D01*
X122109827Y-65955500D01*
X122109828Y-65955500D01*
X122326780Y-65921138D01*
X122535686Y-65853260D01*
X122731401Y-65753538D01*
X122831174Y-65681049D01*
X122909101Y-65624433D01*
X122909103Y-65624430D01*
X122909107Y-65624428D01*
X123064428Y-65469107D01*
X123064430Y-65469103D01*
X123064433Y-65469101D01*
X123138282Y-65367455D01*
X123193538Y-65291401D01*
X123293260Y-65095686D01*
X123361138Y-64886780D01*
X123395500Y-64669828D01*
X123395500Y-64450172D01*
X123361138Y-64233220D01*
X123293260Y-64024314D01*
X123193538Y-63828599D01*
X123185242Y-63817181D01*
X123064433Y-63650898D01*
X122909101Y-63495566D01*
X122731404Y-63366464D01*
X122731403Y-63366463D01*
X122731401Y-63366462D01*
X122535686Y-63266740D01*
X122326780Y-63198862D01*
X122326778Y-63198861D01*
X122326777Y-63198861D01*
X122160120Y-63172465D01*
X122109828Y-63164500D01*
X121890172Y-63164500D01*
X121839879Y-63172465D01*
X121673223Y-63198861D01*
X121464311Y-63266741D01*
X121268595Y-63366464D01*
X121090898Y-63495566D01*
X120935566Y-63650898D01*
X120806464Y-63828595D01*
X120706741Y-64024311D01*
X120638861Y-64233223D01*
X120604500Y-64450172D01*
X118275500Y-64450172D01*
X118275500Y-60859999D01*
X126764357Y-60859999D01*
X126764357Y-60860000D01*
X126784884Y-61081535D01*
X126784885Y-61081537D01*
X126845769Y-61295523D01*
X126845775Y-61295538D01*
X126944938Y-61494683D01*
X126944943Y-61494691D01*
X127079020Y-61672238D01*
X127243437Y-61822123D01*
X127243439Y-61822125D01*
X127432595Y-61939245D01*
X127432596Y-61939245D01*
X127432599Y-61939247D01*
X127640060Y-62019618D01*
X127858757Y-62060500D01*
X127858759Y-62060500D01*
X128081241Y-62060500D01*
X128081243Y-62060500D01*
X128299940Y-62019618D01*
X128507401Y-61939247D01*
X128696562Y-61822124D01*
X128860981Y-61672236D01*
X128995058Y-61494689D01*
X129029995Y-61424526D01*
X129094500Y-61294984D01*
X129142003Y-61243747D01*
X129209666Y-61226326D01*
X129276006Y-61248252D01*
X129319961Y-61302563D01*
X129329500Y-61350256D01*
X129329500Y-62867870D01*
X129329501Y-62867876D01*
X129335908Y-62927483D01*
X129386202Y-63062328D01*
X129386206Y-63062335D01*
X129472452Y-63177544D01*
X129472455Y-63177547D01*
X129587664Y-63263793D01*
X129587671Y-63263797D01*
X129722517Y-63314091D01*
X129722516Y-63314091D01*
X129729444Y-63314835D01*
X129782127Y-63320500D01*
X131477872Y-63320499D01*
X131537483Y-63314091D01*
X131672331Y-63263796D01*
X131787546Y-63177546D01*
X131873796Y-63062331D01*
X131924091Y-62927483D01*
X131930500Y-62867873D01*
X131930499Y-62867845D01*
X131930678Y-62864547D01*
X131932183Y-62864627D01*
X131950112Y-62803326D01*
X132002868Y-62757514D01*
X132046465Y-62749981D01*
X132730000Y-62066446D01*
X132730000Y-62072661D01*
X132757259Y-62174394D01*
X132809920Y-62265606D01*
X132884394Y-62340080D01*
X132975606Y-62392741D01*
X133077339Y-62420000D01*
X133083553Y-62420000D01*
X132404526Y-63099025D01*
X132477513Y-63150132D01*
X132477521Y-63150136D01*
X132683668Y-63246264D01*
X132683682Y-63246269D01*
X132903389Y-63305139D01*
X132903400Y-63305141D01*
X133129998Y-63324966D01*
X133130002Y-63324966D01*
X133356599Y-63305141D01*
X133356610Y-63305139D01*
X133576317Y-63246269D01*
X133576331Y-63246264D01*
X133782478Y-63150136D01*
X133855471Y-63099024D01*
X133176447Y-62420000D01*
X133182661Y-62420000D01*
X133284394Y-62392741D01*
X133375606Y-62340080D01*
X133450080Y-62265606D01*
X133502741Y-62174394D01*
X133530000Y-62072661D01*
X133530000Y-62066447D01*
X134209024Y-62745471D01*
X134260136Y-62672478D01*
X134356264Y-62466331D01*
X134356269Y-62466317D01*
X134415139Y-62246610D01*
X134415141Y-62246599D01*
X134423593Y-62149997D01*
X137570147Y-62149997D01*
X137570147Y-62150002D01*
X137589971Y-62376599D01*
X137589973Y-62376610D01*
X137648843Y-62596317D01*
X137648848Y-62596331D01*
X137744976Y-62802478D01*
X137796087Y-62875472D01*
X138475113Y-62196446D01*
X138475113Y-62202661D01*
X138502372Y-62304394D01*
X138555033Y-62395606D01*
X138629507Y-62470080D01*
X138720719Y-62522741D01*
X138822452Y-62550000D01*
X138828666Y-62550000D01*
X138149639Y-63229025D01*
X138222626Y-63280132D01*
X138222634Y-63280136D01*
X138428781Y-63376264D01*
X138428795Y-63376269D01*
X138648502Y-63435139D01*
X138648513Y-63435141D01*
X138875111Y-63454966D01*
X138875115Y-63454966D01*
X139101712Y-63435141D01*
X139101723Y-63435139D01*
X139321430Y-63376269D01*
X139321444Y-63376264D01*
X139527591Y-63280136D01*
X139600584Y-63229024D01*
X138921560Y-62550000D01*
X138927774Y-62550000D01*
X139029507Y-62522741D01*
X139120719Y-62470080D01*
X139195193Y-62395606D01*
X139247854Y-62304394D01*
X139275113Y-62202661D01*
X139275113Y-62196447D01*
X139959310Y-62880644D01*
X140008305Y-62890491D01*
X140058488Y-62939106D01*
X140073162Y-62994632D01*
X140074212Y-62994576D01*
X140074259Y-62994571D01*
X140074259Y-62994573D01*
X140074437Y-62994564D01*
X140074614Y-62997876D01*
X140081021Y-63057483D01*
X140131315Y-63192328D01*
X140131319Y-63192335D01*
X140217565Y-63307544D01*
X140217568Y-63307547D01*
X140332777Y-63393793D01*
X140332784Y-63393797D01*
X140467630Y-63444091D01*
X140467629Y-63444091D01*
X140474557Y-63444835D01*
X140527240Y-63450500D01*
X142222985Y-63450499D01*
X142282596Y-63444091D01*
X142417444Y-63393796D01*
X142532659Y-63307546D01*
X142618909Y-63192331D01*
X142669204Y-63057483D01*
X142675613Y-62997873D01*
X142675612Y-61302128D01*
X142670412Y-61253757D01*
X142669204Y-61242516D01*
X142618910Y-61107671D01*
X142618906Y-61107664D01*
X142532660Y-60992455D01*
X142532657Y-60992452D01*
X142417448Y-60906206D01*
X142417441Y-60906202D01*
X142282595Y-60855908D01*
X142282596Y-60855908D01*
X142222996Y-60849501D01*
X142222994Y-60849500D01*
X142222986Y-60849500D01*
X142222977Y-60849500D01*
X140527242Y-60849500D01*
X140527236Y-60849501D01*
X140467629Y-60855908D01*
X140332784Y-60906202D01*
X140332777Y-60906206D01*
X140217568Y-60992452D01*
X140217565Y-60992455D01*
X140131319Y-61107664D01*
X140131315Y-61107671D01*
X140081021Y-61242517D01*
X140075430Y-61294526D01*
X140074614Y-61302123D01*
X140074435Y-61305452D01*
X140072960Y-61305372D01*
X140054928Y-61366784D01*
X140002124Y-61412539D01*
X139958635Y-61420029D01*
X139275113Y-62103551D01*
X139275113Y-62097339D01*
X139247854Y-61995606D01*
X139195193Y-61904394D01*
X139120719Y-61829920D01*
X139029507Y-61777259D01*
X138927774Y-61750000D01*
X138921561Y-61750000D01*
X139600585Y-61070974D01*
X139527591Y-61019863D01*
X139321444Y-60923735D01*
X139321430Y-60923730D01*
X139101723Y-60864860D01*
X139101712Y-60864858D01*
X138875115Y-60845034D01*
X138875111Y-60845034D01*
X138648513Y-60864858D01*
X138648502Y-60864860D01*
X138428795Y-60923730D01*
X138428786Y-60923734D01*
X138222629Y-61019866D01*
X138222625Y-61019868D01*
X138149639Y-61070973D01*
X138149639Y-61070974D01*
X138828666Y-61750000D01*
X138822452Y-61750000D01*
X138720719Y-61777259D01*
X138629507Y-61829920D01*
X138555033Y-61904394D01*
X138502372Y-61995606D01*
X138475113Y-62097339D01*
X138475113Y-62103552D01*
X137796087Y-61424526D01*
X137796086Y-61424526D01*
X137744981Y-61497512D01*
X137744979Y-61497516D01*
X137648847Y-61703673D01*
X137648843Y-61703682D01*
X137589973Y-61923389D01*
X137589971Y-61923400D01*
X137570147Y-62149997D01*
X134423593Y-62149997D01*
X134434966Y-62020002D01*
X134434966Y-62019997D01*
X134415141Y-61793400D01*
X134415139Y-61793389D01*
X134356269Y-61573682D01*
X134356264Y-61573668D01*
X134260136Y-61367521D01*
X134260132Y-61367513D01*
X134209025Y-61294526D01*
X133530000Y-61973551D01*
X133530000Y-61967339D01*
X133502741Y-61865606D01*
X133450080Y-61774394D01*
X133375606Y-61699920D01*
X133284394Y-61647259D01*
X133182661Y-61620000D01*
X133176448Y-61620000D01*
X133855472Y-60940974D01*
X133782478Y-60889863D01*
X133576331Y-60793735D01*
X133576317Y-60793730D01*
X133356610Y-60734860D01*
X133356599Y-60734858D01*
X133130002Y-60715034D01*
X133129998Y-60715034D01*
X132903400Y-60734858D01*
X132903389Y-60734860D01*
X132683682Y-60793730D01*
X132683673Y-60793734D01*
X132477516Y-60889866D01*
X132477512Y-60889868D01*
X132404526Y-60940973D01*
X132404526Y-60940974D01*
X133083553Y-61620000D01*
X133077339Y-61620000D01*
X132975606Y-61647259D01*
X132884394Y-61699920D01*
X132809920Y-61774394D01*
X132757259Y-61865606D01*
X132730000Y-61967339D01*
X132730000Y-61973552D01*
X132045799Y-61289351D01*
X131996805Y-61279505D01*
X131946622Y-61230889D01*
X131931981Y-61175366D01*
X131930900Y-61175423D01*
X131930854Y-61175429D01*
X131930853Y-61175426D01*
X131930676Y-61175436D01*
X131930499Y-61172141D01*
X131930499Y-61172128D01*
X131924091Y-61112517D01*
X131912536Y-61081537D01*
X131873797Y-60977671D01*
X131873793Y-60977664D01*
X131787547Y-60862455D01*
X131787544Y-60862452D01*
X131672335Y-60776206D01*
X131672328Y-60776202D01*
X131537482Y-60725908D01*
X131537483Y-60725908D01*
X131477883Y-60719501D01*
X131477881Y-60719500D01*
X131477873Y-60719500D01*
X131477864Y-60719500D01*
X129782129Y-60719500D01*
X129782123Y-60719501D01*
X129722516Y-60725908D01*
X129587671Y-60776202D01*
X129587664Y-60776206D01*
X129472455Y-60862452D01*
X129396724Y-60963614D01*
X129340789Y-61005485D01*
X129271098Y-61010468D01*
X129209775Y-60976982D01*
X129176291Y-60915658D01*
X129173987Y-60877864D01*
X129175643Y-60860000D01*
X129155115Y-60638464D01*
X129094229Y-60424472D01*
X129094224Y-60424461D01*
X128995061Y-60225316D01*
X128995056Y-60225308D01*
X128860979Y-60047761D01*
X128696562Y-59897876D01*
X128696560Y-59897874D01*
X128507404Y-59780754D01*
X128507398Y-59780752D01*
X128299940Y-59700382D01*
X128081243Y-59659500D01*
X127858757Y-59659500D01*
X127640060Y-59700382D01*
X127508864Y-59751207D01*
X127432601Y-59780752D01*
X127432595Y-59780754D01*
X127243439Y-59897874D01*
X127243437Y-59897876D01*
X127079020Y-60047761D01*
X126944943Y-60225308D01*
X126944938Y-60225316D01*
X126845775Y-60424461D01*
X126845769Y-60424476D01*
X126784885Y-60638462D01*
X126784884Y-60638464D01*
X126764357Y-60859999D01*
X118275500Y-60859999D01*
X118275500Y-55366290D01*
X118295185Y-55299251D01*
X118347989Y-55253496D01*
X118417147Y-55243552D01*
X118442833Y-55250108D01*
X118532620Y-55283596D01*
X118532627Y-55283598D01*
X118592155Y-55289999D01*
X118592172Y-55290000D01*
X119140000Y-55290000D01*
X119140000Y-54355686D01*
X119144394Y-54360080D01*
X119235606Y-54412741D01*
X119337339Y-54440000D01*
X119442661Y-54440000D01*
X119544394Y-54412741D01*
X119635606Y-54360080D01*
X119640000Y-54355686D01*
X119640000Y-55290000D01*
X120187828Y-55290000D01*
X120187844Y-55289999D01*
X120247372Y-55283598D01*
X120247379Y-55283596D01*
X120382086Y-55233354D01*
X120382093Y-55233350D01*
X120497187Y-55147190D01*
X120497190Y-55147187D01*
X120583350Y-55032093D01*
X120583354Y-55032086D01*
X120633596Y-54897379D01*
X120633598Y-54897372D01*
X120639999Y-54837844D01*
X120640000Y-54837827D01*
X120640000Y-54771148D01*
X120659685Y-54704109D01*
X120712489Y-54658354D01*
X120781647Y-54648410D01*
X120845203Y-54677435D01*
X120865571Y-54700020D01*
X120968402Y-54846877D01*
X121123123Y-55001598D01*
X121302361Y-55127102D01*
X121500670Y-55219575D01*
X121712023Y-55276207D01*
X121894926Y-55292208D01*
X121929998Y-55295277D01*
X121930000Y-55295277D01*
X121930002Y-55295277D01*
X121958254Y-55292805D01*
X122147977Y-55276207D01*
X122359330Y-55219575D01*
X122557639Y-55127102D01*
X122736877Y-55001598D01*
X122891598Y-54846877D01*
X123017102Y-54667639D01*
X123087618Y-54516414D01*
X123133790Y-54463977D01*
X123200984Y-54444825D01*
X123267865Y-54465041D01*
X123312381Y-54516414D01*
X123382898Y-54667639D01*
X123508402Y-54846877D01*
X123663123Y-55001598D01*
X123842361Y-55127102D01*
X124040670Y-55219575D01*
X124252023Y-55276207D01*
X124434926Y-55292208D01*
X124469998Y-55295277D01*
X124470000Y-55295277D01*
X124470002Y-55295277D01*
X124498254Y-55292805D01*
X124687977Y-55276207D01*
X124899330Y-55219575D01*
X125097639Y-55127102D01*
X125276877Y-55001598D01*
X125431598Y-54846877D01*
X125557102Y-54667639D01*
X125649575Y-54469330D01*
X125706207Y-54257977D01*
X125725277Y-54040000D01*
X125706207Y-53822023D01*
X125649575Y-53610670D01*
X125593305Y-53490000D01*
X126793505Y-53490000D01*
X126846239Y-53675349D01*
X126945368Y-53874425D01*
X127079391Y-54051900D01*
X127243738Y-54201721D01*
X127432820Y-54318797D01*
X127432822Y-54318798D01*
X127640195Y-54399135D01*
X127720000Y-54414052D01*
X128220000Y-54414052D01*
X128299804Y-54399135D01*
X128507177Y-54318798D01*
X128507179Y-54318797D01*
X128696261Y-54201721D01*
X128860608Y-54051900D01*
X128994631Y-53874425D01*
X129093760Y-53675349D01*
X129146495Y-53490000D01*
X128220000Y-53490000D01*
X128220000Y-54414052D01*
X127720000Y-54414052D01*
X127720000Y-53490000D01*
X126793505Y-53490000D01*
X125593305Y-53490000D01*
X125557102Y-53412362D01*
X125557100Y-53412359D01*
X125557099Y-53412357D01*
X125431599Y-53233124D01*
X125392397Y-53193922D01*
X127620000Y-53193922D01*
X127620000Y-53286078D01*
X127643852Y-53375095D01*
X127689930Y-53454905D01*
X127755095Y-53520070D01*
X127834905Y-53566148D01*
X127923922Y-53590000D01*
X128016078Y-53590000D01*
X128105095Y-53566148D01*
X128184905Y-53520070D01*
X128250070Y-53454905D01*
X128296148Y-53375095D01*
X128318949Y-53289999D01*
X129904357Y-53289999D01*
X129904357Y-53290000D01*
X129924884Y-53511535D01*
X129924885Y-53511537D01*
X129985769Y-53725523D01*
X129985775Y-53725538D01*
X130084938Y-53924683D01*
X130084943Y-53924691D01*
X130219020Y-54102238D01*
X130383437Y-54252123D01*
X130383439Y-54252125D01*
X130572595Y-54369245D01*
X130572596Y-54369245D01*
X130572599Y-54369247D01*
X130611644Y-54384373D01*
X130667045Y-54426946D01*
X130690636Y-54492713D01*
X130674925Y-54560793D01*
X130624901Y-54609572D01*
X130611644Y-54615627D01*
X130572601Y-54630752D01*
X130572595Y-54630754D01*
X130383439Y-54747874D01*
X130383437Y-54747876D01*
X130219020Y-54897761D01*
X130084943Y-55075308D01*
X130084938Y-55075316D01*
X129985775Y-55274461D01*
X129985769Y-55274476D01*
X129924885Y-55488462D01*
X129924884Y-55488464D01*
X129904357Y-55709999D01*
X129904357Y-55710000D01*
X129924884Y-55931535D01*
X129924885Y-55931537D01*
X129985769Y-56145523D01*
X129985775Y-56145538D01*
X130084938Y-56344683D01*
X130084943Y-56344691D01*
X130219020Y-56522238D01*
X130383437Y-56672123D01*
X130383439Y-56672125D01*
X130572595Y-56789245D01*
X130572601Y-56789248D01*
X130637457Y-56814373D01*
X130692858Y-56856946D01*
X130716449Y-56922713D01*
X130700738Y-56990793D01*
X130650714Y-57039572D01*
X130637457Y-57045627D01*
X130572601Y-57070751D01*
X130572595Y-57070754D01*
X130383439Y-57187874D01*
X130383437Y-57187876D01*
X130219020Y-57337761D01*
X130084943Y-57515308D01*
X130084938Y-57515316D01*
X129985775Y-57714461D01*
X129985769Y-57714476D01*
X129924885Y-57928462D01*
X129924884Y-57928464D01*
X129904357Y-58149999D01*
X129904357Y-58150000D01*
X129924884Y-58371535D01*
X129924885Y-58371537D01*
X129985769Y-58585523D01*
X129985775Y-58585538D01*
X130084938Y-58784683D01*
X130084943Y-58784691D01*
X130219020Y-58962238D01*
X130383437Y-59112123D01*
X130383439Y-59112125D01*
X130572595Y-59229245D01*
X130572596Y-59229245D01*
X130572599Y-59229247D01*
X130780060Y-59309618D01*
X130998757Y-59350500D01*
X130998759Y-59350500D01*
X131221241Y-59350500D01*
X131221243Y-59350500D01*
X131439940Y-59309618D01*
X131647401Y-59229247D01*
X131836562Y-59112124D01*
X132000981Y-58962236D01*
X132135058Y-58784689D01*
X132234229Y-58585528D01*
X132287016Y-58400000D01*
X137553505Y-58400000D01*
X137606239Y-58585349D01*
X137705368Y-58784425D01*
X137839391Y-58961900D01*
X138003738Y-59111721D01*
X138192820Y-59228797D01*
X138192822Y-59228798D01*
X138400195Y-59309135D01*
X138480000Y-59324052D01*
X138980000Y-59324052D01*
X139059804Y-59309135D01*
X139267177Y-59228798D01*
X139267179Y-59228797D01*
X139456261Y-59111721D01*
X139620608Y-58961900D01*
X139754631Y-58784425D01*
X139853760Y-58585349D01*
X139906495Y-58400000D01*
X138980000Y-58400000D01*
X138980000Y-59324052D01*
X138480000Y-59324052D01*
X138480000Y-58400000D01*
X137553505Y-58400000D01*
X132287016Y-58400000D01*
X132295115Y-58371536D01*
X132315643Y-58150000D01*
X132295115Y-57928464D01*
X132234229Y-57714472D01*
X132135189Y-57515574D01*
X132135061Y-57515316D01*
X132135056Y-57515308D01*
X132000979Y-57337761D01*
X131836562Y-57187876D01*
X131836560Y-57187874D01*
X131647404Y-57070754D01*
X131647395Y-57070750D01*
X131582543Y-57045627D01*
X131527141Y-57003054D01*
X131503550Y-56937288D01*
X131519261Y-56869207D01*
X131569284Y-56820428D01*
X131582543Y-56814373D01*
X131647401Y-56789247D01*
X131836562Y-56672124D01*
X132000981Y-56522236D01*
X132135058Y-56344689D01*
X132234229Y-56145528D01*
X132295115Y-55931536D01*
X132315643Y-55710000D01*
X132295115Y-55488464D01*
X132234229Y-55274472D01*
X132234224Y-55274461D01*
X132135061Y-55075316D01*
X132135056Y-55075308D01*
X132000979Y-54897761D01*
X131836562Y-54747876D01*
X131836560Y-54747874D01*
X131647404Y-54630754D01*
X131647395Y-54630750D01*
X131608356Y-54615627D01*
X131552954Y-54573055D01*
X131529363Y-54507288D01*
X131545074Y-54439208D01*
X131595097Y-54390428D01*
X131608356Y-54384373D01*
X131647401Y-54369247D01*
X131836562Y-54252124D01*
X132000981Y-54102236D01*
X132135058Y-53924689D01*
X132234229Y-53725528D01*
X132295115Y-53511536D01*
X132315643Y-53290000D01*
X132315643Y-53289999D01*
X137524357Y-53289999D01*
X137524357Y-53290000D01*
X137544884Y-53511535D01*
X137544885Y-53511537D01*
X137605769Y-53725523D01*
X137605775Y-53725538D01*
X137704938Y-53924683D01*
X137704943Y-53924691D01*
X137839020Y-54102238D01*
X138003437Y-54252123D01*
X138003439Y-54252125D01*
X138192595Y-54369245D01*
X138192596Y-54369245D01*
X138192599Y-54369247D01*
X138231644Y-54384373D01*
X138287045Y-54426946D01*
X138310636Y-54492713D01*
X138294925Y-54560793D01*
X138244901Y-54609572D01*
X138231644Y-54615627D01*
X138192601Y-54630752D01*
X138192595Y-54630754D01*
X138003439Y-54747874D01*
X138003437Y-54747876D01*
X137839020Y-54897761D01*
X137704943Y-55075308D01*
X137704938Y-55075316D01*
X137605775Y-55274461D01*
X137605769Y-55274476D01*
X137544885Y-55488462D01*
X137544884Y-55488464D01*
X137524357Y-55709999D01*
X137524357Y-55710000D01*
X137544884Y-55931535D01*
X137544885Y-55931537D01*
X137605769Y-56145523D01*
X137605775Y-56145538D01*
X137704938Y-56344683D01*
X137704943Y-56344691D01*
X137839020Y-56522238D01*
X138003437Y-56672123D01*
X138003439Y-56672125D01*
X138192595Y-56789245D01*
X138192597Y-56789246D01*
X138192599Y-56789247D01*
X138192602Y-56789248D01*
X138192604Y-56789249D01*
X138258146Y-56814640D01*
X138313548Y-56857213D01*
X138337139Y-56922979D01*
X138321428Y-56991060D01*
X138271405Y-57039839D01*
X138258148Y-57045893D01*
X138192828Y-57071198D01*
X138192820Y-57071202D01*
X138003738Y-57188278D01*
X137839391Y-57338099D01*
X137705368Y-57515574D01*
X137606239Y-57714650D01*
X137553505Y-57900000D01*
X138485025Y-57900000D01*
X138449930Y-57935095D01*
X138403852Y-58014905D01*
X138380000Y-58103922D01*
X138380000Y-58196078D01*
X138403852Y-58285095D01*
X138449930Y-58364905D01*
X138515095Y-58430070D01*
X138594905Y-58476148D01*
X138683922Y-58500000D01*
X138776078Y-58500000D01*
X138865095Y-58476148D01*
X138944905Y-58430070D01*
X139010070Y-58364905D01*
X139056148Y-58285095D01*
X139080000Y-58196078D01*
X139080000Y-58103922D01*
X139056148Y-58014905D01*
X139010070Y-57935095D01*
X138974975Y-57900000D01*
X139906495Y-57900000D01*
X139853760Y-57714650D01*
X139754631Y-57515574D01*
X139620608Y-57338099D01*
X139456261Y-57188278D01*
X139267179Y-57071202D01*
X139267171Y-57071198D01*
X139201851Y-57045893D01*
X139146450Y-57003320D01*
X139122860Y-56937553D01*
X139138572Y-56869473D01*
X139188596Y-56820694D01*
X139201845Y-56814643D01*
X139267401Y-56789247D01*
X139456562Y-56672124D01*
X139620981Y-56522236D01*
X139755058Y-56344689D01*
X139854229Y-56145528D01*
X139915115Y-55931536D01*
X139935643Y-55710000D01*
X139915115Y-55488464D01*
X139854229Y-55274472D01*
X139854224Y-55274461D01*
X139755061Y-55075316D01*
X139755056Y-55075308D01*
X139620979Y-54897761D01*
X139456562Y-54747876D01*
X139456560Y-54747874D01*
X139267404Y-54630754D01*
X139267395Y-54630750D01*
X139228356Y-54615627D01*
X139172954Y-54573055D01*
X139149363Y-54507288D01*
X139165074Y-54439208D01*
X139215097Y-54390428D01*
X139228356Y-54384373D01*
X139267401Y-54369247D01*
X139456562Y-54252124D01*
X139620981Y-54102236D01*
X139755058Y-53924689D01*
X139854229Y-53725528D01*
X139915115Y-53511536D01*
X139935643Y-53290000D01*
X139930372Y-53233121D01*
X139915115Y-53068464D01*
X139915114Y-53068462D01*
X139913179Y-53061662D01*
X139854229Y-52854472D01*
X139844471Y-52834875D01*
X139755061Y-52655316D01*
X139755056Y-52655308D01*
X139620979Y-52477761D01*
X139456562Y-52327876D01*
X139456560Y-52327874D01*
X139267404Y-52210754D01*
X139267398Y-52210752D01*
X139059940Y-52130382D01*
X138841243Y-52089500D01*
X138618757Y-52089500D01*
X138400060Y-52130382D01*
X138320505Y-52161202D01*
X138192601Y-52210752D01*
X138192595Y-52210754D01*
X138003439Y-52327874D01*
X138003437Y-52327876D01*
X137839020Y-52477761D01*
X137704943Y-52655308D01*
X137704938Y-52655316D01*
X137605775Y-52854461D01*
X137605769Y-52854476D01*
X137544885Y-53068462D01*
X137544884Y-53068464D01*
X137524357Y-53289999D01*
X132315643Y-53289999D01*
X132310372Y-53233121D01*
X132295115Y-53068464D01*
X132295114Y-53068462D01*
X132293179Y-53061662D01*
X132234229Y-52854472D01*
X132224471Y-52834875D01*
X132135061Y-52655316D01*
X132135056Y-52655308D01*
X132000979Y-52477761D01*
X131836562Y-52327876D01*
X131836560Y-52327874D01*
X131647404Y-52210754D01*
X131647398Y-52210752D01*
X131439940Y-52130382D01*
X131221243Y-52089500D01*
X130998757Y-52089500D01*
X130780060Y-52130382D01*
X130700505Y-52161202D01*
X130572601Y-52210752D01*
X130572595Y-52210754D01*
X130383439Y-52327874D01*
X130383437Y-52327876D01*
X130219020Y-52477761D01*
X130084943Y-52655308D01*
X130084938Y-52655316D01*
X129985775Y-52854461D01*
X129985769Y-52854476D01*
X129924885Y-53068462D01*
X129924884Y-53068464D01*
X129904357Y-53289999D01*
X128318949Y-53289999D01*
X128320000Y-53286078D01*
X128320000Y-53193922D01*
X128296148Y-53104905D01*
X128250070Y-53025095D01*
X128214975Y-52990000D01*
X128220000Y-52990000D01*
X129146495Y-52990000D01*
X129093760Y-52804650D01*
X128994631Y-52605574D01*
X128860608Y-52428099D01*
X128696261Y-52278278D01*
X128507179Y-52161202D01*
X128507177Y-52161201D01*
X128299799Y-52080864D01*
X128220000Y-52065946D01*
X128220000Y-52990000D01*
X128214975Y-52990000D01*
X128184905Y-52959930D01*
X128105095Y-52913852D01*
X128016078Y-52890000D01*
X127923922Y-52890000D01*
X127834905Y-52913852D01*
X127755095Y-52959930D01*
X127689930Y-53025095D01*
X127643852Y-53104905D01*
X127620000Y-53193922D01*
X125392397Y-53193922D01*
X125372931Y-53174456D01*
X125276877Y-53078402D01*
X125150626Y-52990000D01*
X126793505Y-52990000D01*
X127720000Y-52990000D01*
X127720000Y-52065946D01*
X127640200Y-52080864D01*
X127432822Y-52161201D01*
X127432820Y-52161202D01*
X127243738Y-52278278D01*
X127079391Y-52428099D01*
X126945368Y-52605574D01*
X126846239Y-52804650D01*
X126793505Y-52990000D01*
X125150626Y-52990000D01*
X125097639Y-52952898D01*
X125097640Y-52952898D01*
X125097638Y-52952897D01*
X124990414Y-52902898D01*
X124899330Y-52860425D01*
X124899326Y-52860424D01*
X124899322Y-52860422D01*
X124687977Y-52803793D01*
X124470002Y-52784723D01*
X124469998Y-52784723D01*
X124324682Y-52797436D01*
X124252023Y-52803793D01*
X124252020Y-52803793D01*
X124040677Y-52860422D01*
X124040668Y-52860426D01*
X123842361Y-52952898D01*
X123842357Y-52952900D01*
X123663121Y-53078402D01*
X123508402Y-53233121D01*
X123382900Y-53412357D01*
X123382898Y-53412361D01*
X123312382Y-53563583D01*
X123266209Y-53616022D01*
X123199016Y-53635174D01*
X123132135Y-53614958D01*
X123087618Y-53563583D01*
X123022342Y-53423600D01*
X123017102Y-53412362D01*
X123017100Y-53412359D01*
X123017099Y-53412357D01*
X122891599Y-53233124D01*
X122832931Y-53174456D01*
X122736877Y-53078402D01*
X122557639Y-52952898D01*
X122557640Y-52952898D01*
X122557638Y-52952897D01*
X122450414Y-52902898D01*
X122359330Y-52860425D01*
X122359326Y-52860424D01*
X122359322Y-52860422D01*
X122147977Y-52803793D01*
X121930002Y-52784723D01*
X121929998Y-52784723D01*
X121784682Y-52797436D01*
X121712023Y-52803793D01*
X121712020Y-52803793D01*
X121500677Y-52860422D01*
X121500668Y-52860426D01*
X121302361Y-52952898D01*
X121302357Y-52952900D01*
X121123121Y-53078402D01*
X120968402Y-53233121D01*
X120865575Y-53379975D01*
X120810998Y-53423600D01*
X120741500Y-53430794D01*
X120679145Y-53399271D01*
X120643731Y-53339041D01*
X120640000Y-53308852D01*
X120640000Y-53242172D01*
X120639999Y-53242155D01*
X120633598Y-53182627D01*
X120633596Y-53182620D01*
X120583354Y-53047913D01*
X120583350Y-53047906D01*
X120497190Y-52932812D01*
X120497187Y-52932809D01*
X120382093Y-52846649D01*
X120382086Y-52846645D01*
X120247379Y-52796403D01*
X120247372Y-52796401D01*
X120187844Y-52790000D01*
X119640000Y-52790000D01*
X119640000Y-53724314D01*
X119635606Y-53719920D01*
X119544394Y-53667259D01*
X119442661Y-53640000D01*
X119337339Y-53640000D01*
X119235606Y-53667259D01*
X119144394Y-53719920D01*
X119140000Y-53724314D01*
X119140000Y-52790000D01*
X118592155Y-52790000D01*
X118532627Y-52796401D01*
X118532617Y-52796403D01*
X118442832Y-52829891D01*
X118373141Y-52834875D01*
X118311818Y-52801389D01*
X118278334Y-52740066D01*
X118275500Y-52713709D01*
X118275500Y-47462498D01*
X119057519Y-47462498D01*
X119057519Y-47462501D01*
X119077418Y-47740723D01*
X119077419Y-47740730D01*
X119136707Y-48013274D01*
X119234189Y-48274634D01*
X119367861Y-48519438D01*
X119468102Y-48653343D01*
X119968820Y-48152625D01*
X120059054Y-48276820D01*
X120198180Y-48415946D01*
X120322373Y-48506178D01*
X119821655Y-49006896D01*
X119955561Y-49107137D01*
X119955561Y-49107138D01*
X120200365Y-49240810D01*
X120461725Y-49338292D01*
X120734269Y-49397580D01*
X120734276Y-49397581D01*
X121012499Y-49417481D01*
X121012501Y-49417481D01*
X121290723Y-49397581D01*
X121290730Y-49397580D01*
X121563274Y-49338292D01*
X121824634Y-49240810D01*
X122069442Y-49107135D01*
X122203342Y-49006896D01*
X122203343Y-49006896D01*
X121702626Y-48506178D01*
X121826820Y-48415946D01*
X121965946Y-48276820D01*
X122056179Y-48152626D01*
X122556896Y-48653343D01*
X122556896Y-48653342D01*
X122657135Y-48519442D01*
X122790810Y-48274634D01*
X122888292Y-48013274D01*
X122947580Y-47740730D01*
X122947581Y-47740723D01*
X122967481Y-47462501D01*
X122967481Y-47462498D01*
X122947581Y-47184276D01*
X122947580Y-47184269D01*
X122888292Y-46911725D01*
X122790810Y-46650365D01*
X122780856Y-46632135D01*
X126479500Y-46632135D01*
X126479500Y-48527870D01*
X126479501Y-48527876D01*
X126485908Y-48587483D01*
X126536202Y-48722328D01*
X126536206Y-48722335D01*
X126622452Y-48837544D01*
X126622455Y-48837547D01*
X126737664Y-48923793D01*
X126737671Y-48923797D01*
X126872517Y-48974091D01*
X126872516Y-48974091D01*
X126879444Y-48974835D01*
X126932127Y-48980500D01*
X128827872Y-48980499D01*
X128887483Y-48974091D01*
X129022331Y-48923796D01*
X129137546Y-48837546D01*
X129223796Y-48722331D01*
X129252455Y-48645493D01*
X129294326Y-48589559D01*
X129359790Y-48565141D01*
X129428063Y-48579992D01*
X129459866Y-48604843D01*
X129465046Y-48610469D01*
X129468215Y-48613912D01*
X129468222Y-48613918D01*
X129651365Y-48756464D01*
X129651371Y-48756468D01*
X129651374Y-48756470D01*
X129855497Y-48866936D01*
X129969487Y-48906068D01*
X130075015Y-48942297D01*
X130075017Y-48942297D01*
X130075019Y-48942298D01*
X130303951Y-48980500D01*
X130303952Y-48980500D01*
X130536048Y-48980500D01*
X130536049Y-48980500D01*
X130764981Y-48942298D01*
X130984503Y-48866936D01*
X131188626Y-48756470D01*
X131371784Y-48613913D01*
X131528979Y-48443153D01*
X131655924Y-48248849D01*
X131749157Y-48036300D01*
X131806134Y-47811305D01*
X131806135Y-47811297D01*
X131825300Y-47580006D01*
X131825300Y-47579993D01*
X133704700Y-47579993D01*
X133704700Y-47580006D01*
X133723864Y-47811297D01*
X133723866Y-47811308D01*
X133780842Y-48036300D01*
X133874075Y-48248848D01*
X134001016Y-48443147D01*
X134001019Y-48443151D01*
X134001021Y-48443153D01*
X134158216Y-48613913D01*
X134158219Y-48613915D01*
X134158222Y-48613918D01*
X134341365Y-48756464D01*
X134341371Y-48756468D01*
X134341374Y-48756470D01*
X134545497Y-48866936D01*
X134659487Y-48906068D01*
X134765015Y-48942297D01*
X134765017Y-48942297D01*
X134765019Y-48942298D01*
X134993951Y-48980500D01*
X134993952Y-48980500D01*
X135226048Y-48980500D01*
X135226049Y-48980500D01*
X135454981Y-48942298D01*
X135674503Y-48866936D01*
X135878626Y-48756470D01*
X136061784Y-48613913D01*
X136070130Y-48604846D01*
X136130010Y-48568854D01*
X136199849Y-48570949D01*
X136257468Y-48610469D01*
X136277544Y-48645491D01*
X136306203Y-48722330D01*
X136306206Y-48722335D01*
X136392452Y-48837544D01*
X136392455Y-48837547D01*
X136507664Y-48923793D01*
X136507671Y-48923797D01*
X136642517Y-48974091D01*
X136642516Y-48974091D01*
X136649444Y-48974835D01*
X136702127Y-48980500D01*
X138597872Y-48980499D01*
X138657483Y-48974091D01*
X138792331Y-48923796D01*
X138907546Y-48837546D01*
X138993796Y-48722331D01*
X139044091Y-48587483D01*
X139050500Y-48527873D01*
X139050499Y-47462498D01*
X143207519Y-47462498D01*
X143207519Y-47462501D01*
X143227418Y-47740723D01*
X143227419Y-47740730D01*
X143286707Y-48013274D01*
X143384189Y-48274634D01*
X143517861Y-48519438D01*
X143618102Y-48653343D01*
X144118820Y-48152625D01*
X144209054Y-48276820D01*
X144348180Y-48415946D01*
X144472373Y-48506178D01*
X143971655Y-49006896D01*
X144105561Y-49107137D01*
X144105561Y-49107138D01*
X144350365Y-49240810D01*
X144611725Y-49338292D01*
X144884269Y-49397580D01*
X144884276Y-49397581D01*
X145162499Y-49417481D01*
X145162501Y-49417481D01*
X145440723Y-49397581D01*
X145440730Y-49397580D01*
X145713274Y-49338292D01*
X145974634Y-49240810D01*
X146219442Y-49107135D01*
X146353342Y-49006896D01*
X146353343Y-49006896D01*
X145852626Y-48506178D01*
X145976820Y-48415946D01*
X146115946Y-48276820D01*
X146206179Y-48152626D01*
X146706896Y-48653343D01*
X146706896Y-48653342D01*
X146807135Y-48519442D01*
X146940810Y-48274634D01*
X147038292Y-48013274D01*
X147097580Y-47740730D01*
X147097581Y-47740723D01*
X147117481Y-47462501D01*
X147117481Y-47462498D01*
X147097581Y-47184276D01*
X147097580Y-47184269D01*
X147038292Y-46911725D01*
X146940810Y-46650365D01*
X146807138Y-46405561D01*
X146706896Y-46271655D01*
X146206178Y-46772373D01*
X146115946Y-46648180D01*
X145976820Y-46509054D01*
X145852625Y-46418820D01*
X146353343Y-45918102D01*
X146219438Y-45817862D01*
X146219438Y-45817861D01*
X145974634Y-45684189D01*
X145713274Y-45586707D01*
X145440730Y-45527419D01*
X145440723Y-45527418D01*
X145162501Y-45507519D01*
X145162499Y-45507519D01*
X144884276Y-45527418D01*
X144884269Y-45527419D01*
X144611725Y-45586707D01*
X144350365Y-45684189D01*
X144105561Y-45817861D01*
X144105554Y-45817866D01*
X143971656Y-45918101D01*
X143971655Y-45918102D01*
X144472374Y-46418820D01*
X144348180Y-46509054D01*
X144209054Y-46648180D01*
X144118820Y-46772373D01*
X143618102Y-46271655D01*
X143618101Y-46271656D01*
X143517866Y-46405554D01*
X143517861Y-46405561D01*
X143384189Y-46650365D01*
X143286707Y-46911725D01*
X143227419Y-47184269D01*
X143227418Y-47184276D01*
X143207519Y-47462498D01*
X139050499Y-47462498D01*
X139050499Y-46632128D01*
X139044091Y-46572517D01*
X139035514Y-46549522D01*
X138993797Y-46437671D01*
X138993793Y-46437664D01*
X138907547Y-46322455D01*
X138907544Y-46322452D01*
X138792335Y-46236206D01*
X138792328Y-46236202D01*
X138657482Y-46185908D01*
X138657483Y-46185908D01*
X138597883Y-46179501D01*
X138597881Y-46179500D01*
X138597873Y-46179500D01*
X138597864Y-46179500D01*
X136702129Y-46179500D01*
X136702123Y-46179501D01*
X136642516Y-46185908D01*
X136507671Y-46236202D01*
X136507664Y-46236206D01*
X136392455Y-46322452D01*
X136392452Y-46322455D01*
X136306206Y-46437664D01*
X136306203Y-46437670D01*
X136277544Y-46514508D01*
X136235672Y-46570441D01*
X136170208Y-46594858D01*
X136101935Y-46580006D01*
X136070135Y-46555158D01*
X136061784Y-46546087D01*
X136061778Y-46546082D01*
X136061777Y-46546081D01*
X135878634Y-46403535D01*
X135878628Y-46403531D01*
X135674504Y-46293064D01*
X135674495Y-46293061D01*
X135454984Y-46217702D01*
X135264450Y-46185908D01*
X135226049Y-46179500D01*
X134993951Y-46179500D01*
X134955550Y-46185908D01*
X134765015Y-46217702D01*
X134545504Y-46293061D01*
X134545495Y-46293064D01*
X134341371Y-46403531D01*
X134341365Y-46403535D01*
X134158222Y-46546081D01*
X134158219Y-46546084D01*
X134158216Y-46546086D01*
X134158216Y-46546087D01*
X134118669Y-46589047D01*
X134001016Y-46716852D01*
X133874075Y-46911151D01*
X133780842Y-47123699D01*
X133723866Y-47348691D01*
X133723864Y-47348702D01*
X133704700Y-47579993D01*
X131825300Y-47579993D01*
X131806135Y-47348702D01*
X131806133Y-47348691D01*
X131749157Y-47123699D01*
X131655924Y-46911151D01*
X131528983Y-46716852D01*
X131528980Y-46716849D01*
X131528979Y-46716847D01*
X131371784Y-46546087D01*
X131371779Y-46546083D01*
X131371777Y-46546081D01*
X131188634Y-46403535D01*
X131188628Y-46403531D01*
X130984504Y-46293064D01*
X130984495Y-46293061D01*
X130764984Y-46217702D01*
X130574450Y-46185908D01*
X130536049Y-46179500D01*
X130303951Y-46179500D01*
X130265550Y-46185908D01*
X130075015Y-46217702D01*
X129855504Y-46293061D01*
X129855495Y-46293064D01*
X129651371Y-46403531D01*
X129651365Y-46403535D01*
X129468222Y-46546081D01*
X129468218Y-46546085D01*
X129468216Y-46546086D01*
X129468216Y-46546087D01*
X129459870Y-46555154D01*
X129459866Y-46555158D01*
X129399979Y-46591148D01*
X129330141Y-46589047D01*
X129272525Y-46549522D01*
X129252455Y-46514507D01*
X129223797Y-46437671D01*
X129223793Y-46437664D01*
X129137547Y-46322455D01*
X129137544Y-46322452D01*
X129022335Y-46236206D01*
X129022328Y-46236202D01*
X128887482Y-46185908D01*
X128887483Y-46185908D01*
X128827883Y-46179501D01*
X128827881Y-46179500D01*
X128827873Y-46179500D01*
X128827864Y-46179500D01*
X126932129Y-46179500D01*
X126932123Y-46179501D01*
X126872516Y-46185908D01*
X126737671Y-46236202D01*
X126737664Y-46236206D01*
X126622455Y-46322452D01*
X126622452Y-46322455D01*
X126536206Y-46437664D01*
X126536202Y-46437671D01*
X126485908Y-46572517D01*
X126479501Y-46632116D01*
X126479501Y-46632123D01*
X126479500Y-46632135D01*
X122780856Y-46632135D01*
X122657138Y-46405561D01*
X122556896Y-46271655D01*
X122056178Y-46772373D01*
X121965946Y-46648180D01*
X121826820Y-46509054D01*
X121702625Y-46418820D01*
X122203343Y-45918102D01*
X122069438Y-45817862D01*
X122069438Y-45817861D01*
X121824634Y-45684189D01*
X121563274Y-45586707D01*
X121290730Y-45527419D01*
X121290723Y-45527418D01*
X121012501Y-45507519D01*
X121012499Y-45507519D01*
X120734276Y-45527418D01*
X120734269Y-45527419D01*
X120461725Y-45586707D01*
X120200365Y-45684189D01*
X119955561Y-45817861D01*
X119955554Y-45817866D01*
X119821656Y-45918101D01*
X119821655Y-45918102D01*
X120322374Y-46418820D01*
X120198180Y-46509054D01*
X120059054Y-46648180D01*
X119968820Y-46772373D01*
X119468102Y-46271655D01*
X119468101Y-46271656D01*
X119367866Y-46405554D01*
X119367861Y-46405561D01*
X119234189Y-46650365D01*
X119136707Y-46911725D01*
X119077419Y-47184269D01*
X119077418Y-47184276D01*
X119057519Y-47462498D01*
X118275500Y-47462498D01*
X118275500Y-44849500D01*
X118295185Y-44782461D01*
X118347989Y-44736706D01*
X118399500Y-44725500D01*
X147775500Y-44725500D01*
X147842539Y-44745185D01*
G37*
%TD.AperFunction*%
%TD*%
M02*
