%TF.GenerationSoftware,KiCad,Pcbnew,8.0.5*%
%TF.CreationDate,2025-09-24T21:27:06-07:00*%
%TF.ProjectId,receiver,72656365-6976-4657-922e-6b696361645f,rev?*%
%TF.SameCoordinates,Original*%
%TF.FileFunction,Copper,L1,Top*%
%TF.FilePolarity,Positive*%
%FSLAX46Y46*%
G04 Gerber Fmt 4.6, Leading zero omitted, Abs format (unit mm)*
G04 Created by KiCad (PCBNEW 8.0.5) date 2025-09-24 21:27:06*
%MOMM*%
%LPD*%
G01*
G04 APERTURE LIST*
G04 Aperture macros list*
%AMFreePoly0*
4,1,19,0.500000,-0.750000,0.000000,-0.750000,0.000000,-0.744911,-0.071157,-0.744911,-0.207708,-0.704816,-0.327430,-0.627875,-0.420627,-0.520320,-0.479746,-0.390866,-0.500000,-0.250000,-0.500000,0.250000,-0.479746,0.390866,-0.420627,0.520320,-0.327430,0.627875,-0.207708,0.704816,-0.071157,0.744911,0.000000,0.744911,0.000000,0.750000,0.500000,0.750000,0.500000,-0.750000,0.500000,-0.750000,
$1*%
%AMFreePoly1*
4,1,19,0.000000,0.744911,0.071157,0.744911,0.207708,0.704816,0.327430,0.627875,0.420627,0.520320,0.479746,0.390866,0.500000,0.250000,0.500000,-0.250000,0.479746,-0.390866,0.420627,-0.520320,0.327430,-0.627875,0.207708,-0.704816,0.071157,-0.744911,0.000000,-0.744911,0.000000,-0.750000,-0.500000,-0.750000,-0.500000,0.750000,0.000000,0.750000,0.000000,0.744911,0.000000,0.744911,
$1*%
G04 Aperture macros list end*
%TA.AperFunction,ComponentPad*%
%ADD10C,1.400000*%
%TD*%
%TA.AperFunction,ComponentPad*%
%ADD11O,1.400000X1.400000*%
%TD*%
%TA.AperFunction,ComponentPad*%
%ADD12C,2.900000*%
%TD*%
%TA.AperFunction,ConnectorPad*%
%ADD13C,5.000000*%
%TD*%
%TA.AperFunction,ComponentPad*%
%ADD14R,1.600000X1.600000*%
%TD*%
%TA.AperFunction,ComponentPad*%
%ADD15C,1.600000*%
%TD*%
%TA.AperFunction,ComponentPad*%
%ADD16R,1.700000X1.700000*%
%TD*%
%TA.AperFunction,ComponentPad*%
%ADD17C,1.700000*%
%TD*%
%TA.AperFunction,ComponentPad*%
%ADD18R,1.905000X2.000000*%
%TD*%
%TA.AperFunction,ComponentPad*%
%ADD19O,1.905000X2.000000*%
%TD*%
%TA.AperFunction,ComponentPad*%
%ADD20O,1.700000X1.700000*%
%TD*%
%TA.AperFunction,ComponentPad*%
%ADD21O,1.600000X1.600000*%
%TD*%
%TA.AperFunction,ComponentPad*%
%ADD22R,1.500000X1.500000*%
%TD*%
%TA.AperFunction,ComponentPad*%
%ADD23C,1.500000*%
%TD*%
%TA.AperFunction,SMDPad,CuDef*%
%ADD24FreePoly0,90.000000*%
%TD*%
%TA.AperFunction,SMDPad,CuDef*%
%ADD25FreePoly1,90.000000*%
%TD*%
%TA.AperFunction,ComponentPad*%
%ADD26C,1.524000*%
%TD*%
%TA.AperFunction,ComponentPad*%
%ADD27R,1.800000X1.800000*%
%TD*%
%TA.AperFunction,ComponentPad*%
%ADD28C,1.800000*%
%TD*%
%TA.AperFunction,Conductor*%
%ADD29C,0.200000*%
%TD*%
%TA.AperFunction,Conductor*%
%ADD30C,0.500000*%
%TD*%
G04 APERTURE END LIST*
D10*
%TO.P,R6,1*%
%TO.N,LIGHTS*%
X131110000Y-58150000D03*
D11*
%TO.P,R6,2*%
%TO.N,GND*%
X138730000Y-58150000D03*
%TD*%
D12*
%TO.P,H2,1,1*%
%TO.N,GND*%
X121012500Y-108912500D03*
D13*
X121012500Y-108912500D03*
%TD*%
D14*
%TO.P,C3,1*%
%TO.N,+3.3V*%
X141375113Y-62150000D03*
D15*
%TO.P,C3,2*%
%TO.N,GND*%
X138875113Y-62150000D03*
%TD*%
D12*
%TO.P,H4,1,1*%
%TO.N,GND*%
X145162500Y-47462500D03*
D13*
X145162500Y-47462500D03*
%TD*%
D16*
%TO.P,U3,1,GND*%
%TO.N,GND*%
X138880000Y-67190000D03*
D17*
%TO.P,U3,2,VCC*%
%TO.N,+3.3V*%
X141420000Y-67190000D03*
%TO.P,U3,3,CE*%
%TO.N,CE*%
X138880000Y-69730000D03*
%TO.P,U3,4,~{CSN}*%
%TO.N,CSN*%
X141420000Y-69730000D03*
%TO.P,U3,5,SCK*%
%TO.N,SCK*%
X138880000Y-72270000D03*
%TO.P,U3,6,MOSI*%
%TO.N,MOSI*%
X141420000Y-72270000D03*
%TO.P,U3,7,MISO*%
%TO.N,MISO*%
X138880000Y-74810000D03*
%TO.P,U3,8,IRQ*%
%TO.N,IRQ*%
X141420000Y-74810000D03*
%TD*%
D18*
%TO.P,U2,1,VI*%
%TO.N,+9V*%
X139730000Y-100430000D03*
D19*
%TO.P,U2,2,GND*%
%TO.N,GND*%
X142270000Y-100430000D03*
%TO.P,U2,3,VO*%
%TO.N,+3.3V*%
X144810000Y-100430000D03*
%TD*%
D12*
%TO.P,H3,1,1*%
%TO.N,GND*%
X145162500Y-108912500D03*
D13*
X145162500Y-108912500D03*
%TD*%
D14*
%TO.P,C4,1*%
%TO.N,+3.3V*%
X134570000Y-87070000D03*
D15*
%TO.P,C4,2*%
%TO.N,GND*%
X132070000Y-87070000D03*
%TD*%
D10*
%TO.P,R8,1*%
%TO.N,Net-(U1-RA5)*%
X127970000Y-60860000D03*
D11*
%TO.P,R8,2*%
%TO.N,GND*%
X127970000Y-53240000D03*
%TD*%
D16*
%TO.P,M2,1,+*%
%TO.N,Net-(M2-+)*%
X134330000Y-103335000D03*
D20*
%TO.P,M2,2,-*%
%TO.N,Net-(M2--)*%
X131790000Y-103335000D03*
%TD*%
D10*
%TO.P,R5,1*%
%TO.N,+3.3V*%
X131110000Y-53290000D03*
D11*
%TO.P,R5,2*%
%TO.N,Net-(D3-A)*%
X138730000Y-53290000D03*
%TD*%
D14*
%TO.P,U4,1,OA*%
%TO.N,PWM5*%
X134540000Y-92180000D03*
D21*
%TO.P,U4,2,VCC*%
%TO.N,+9V*%
X132000000Y-92180000D03*
%TO.P,U4,3,VCC*%
X129460000Y-92180000D03*
%TO.P,U4,4,OB*%
%TO.N,PWM5.1*%
X126920000Y-92180000D03*
%TO.P,U4,5,GND*%
%TO.N,GND*%
X126920000Y-99800000D03*
%TO.P,U4,6,IA*%
%TO.N,Net-(M2--)*%
X129460000Y-99800000D03*
%TO.P,U4,7,IB*%
%TO.N,Net-(M2-+)*%
X132000000Y-99800000D03*
%TO.P,U4,8,GND*%
%TO.N,GND*%
X134540000Y-99800000D03*
%TD*%
D14*
%TO.P,C1,1*%
%TO.N,+3.3V*%
X130630000Y-62020000D03*
D15*
%TO.P,C1,2*%
%TO.N,GND*%
X133130000Y-62020000D03*
%TD*%
D12*
%TO.P,H1,1,1*%
%TO.N,GND*%
X121012500Y-47462500D03*
D13*
X121012500Y-47462500D03*
%TD*%
D22*
%TO.P,Q1,1,S*%
%TO.N,GND*%
X119390000Y-54040000D03*
D23*
%TO.P,Q1,2,G*%
%TO.N,LIGHTS*%
X121930000Y-54040000D03*
%TO.P,Q1,3,D*%
%TO.N,Net-(D2-K)*%
X124470000Y-54040000D03*
%TD*%
D22*
%TO.P,Q2,1,S*%
%TO.N,GND*%
X141680000Y-53990000D03*
D23*
%TO.P,Q2,2,G*%
%TO.N,LIGHTS*%
X144220000Y-53990000D03*
%TO.P,Q2,3,D*%
%TO.N,Net-(D3-K)*%
X146760000Y-53990000D03*
%TD*%
D10*
%TO.P,R4,1*%
%TO.N,+3.3V*%
X138730000Y-55710000D03*
D11*
%TO.P,R4,2*%
%TO.N,Net-(D2-A)*%
X131110000Y-55710000D03*
%TD*%
D14*
%TO.P,C2,1*%
%TO.N,+9V*%
X127440000Y-87100000D03*
D15*
%TO.P,C2,2*%
%TO.N,GND*%
X124940000Y-87100000D03*
%TD*%
D16*
%TO.P,SW1,1,C*%
%TO.N,Net-(JP2-B)*%
X123090000Y-95790000D03*
D20*
%TO.P,SW1,2,B*%
%TO.N,Net-(JP1-B)*%
X123090000Y-98330000D03*
%TO.P,SW1,3,A*%
%TO.N,+9V*%
X123090000Y-100870000D03*
%TD*%
D16*
%TO.P,M1,1,PWM*%
%TO.N,PWM6*%
X124960000Y-82460000D03*
D20*
%TO.P,M1,2,+*%
%TO.N,+3.3V*%
X122420000Y-82460000D03*
%TO.P,M1,3,-*%
%TO.N,GND*%
X119880000Y-82460000D03*
%TD*%
D14*
%TO.P,U1,1,VDD*%
%TO.N,+3.3V*%
X128000000Y-66525000D03*
D21*
%TO.P,U1,2,RA5*%
%TO.N,Net-(U1-RA5)*%
X128000000Y-69065000D03*
%TO.P,U1,3,RA4*%
%TO.N,CSN*%
X128000000Y-71605000D03*
%TO.P,U1,4,RA3/~{MCLR}*%
%TO.N,unconnected-(U1-RA3{slash}~{MCLR}-Pad4)*%
X128000000Y-74145000D03*
%TO.P,U1,5,RC5*%
%TO.N,CE*%
X128000000Y-76685000D03*
%TO.P,U1,6,RC4*%
%TO.N,PWM5.1*%
X128000000Y-79225000D03*
%TO.P,U1,7,RC3*%
%TO.N,PWM6*%
X128000000Y-81765000D03*
%TO.P,U1,8,RC2*%
%TO.N,PWM5*%
X135620000Y-81765000D03*
%TO.P,U1,9,RC1*%
%TO.N,MISO*%
X135620000Y-79225000D03*
%TO.P,U1,10,RC0*%
%TO.N,SCK*%
X135620000Y-76685000D03*
%TO.P,U1,11,RA2*%
%TO.N,MOSI*%
X135620000Y-74145000D03*
%TO.P,U1,12,RA1*%
%TO.N,IRQ*%
X135620000Y-71605000D03*
%TO.P,U1,13,RA0*%
%TO.N,LIGHTS*%
X135620000Y-69065000D03*
%TO.P,U1,14,VSS*%
%TO.N,GND*%
X135620000Y-66525000D03*
%TD*%
D24*
%TO.P,JP2,1,A*%
%TO.N,Net-(BT1-+)*%
X119750000Y-97090000D03*
D25*
%TO.P,JP2,2,B*%
%TO.N,Net-(JP2-B)*%
X119750000Y-95790000D03*
%TD*%
D24*
%TO.P,JP1,1,A*%
%TO.N,Net-(BT1-+)*%
X119740000Y-100520000D03*
D25*
%TO.P,JP1,2,B*%
%TO.N,Net-(JP1-B)*%
X119740000Y-99220000D03*
%TD*%
D26*
%TO.P,BT1,1,+*%
%TO.N,Net-(BT1-+)*%
X139440000Y-103130000D03*
%TO.P,BT1,2,-*%
%TO.N,GND*%
X126740000Y-103130000D03*
%TD*%
D27*
%TO.P,D3,1,K*%
%TO.N,Net-(D3-K)*%
X137650000Y-47580000D03*
D28*
%TO.P,D3,2,A*%
%TO.N,Net-(D3-A)*%
X135110000Y-47580000D03*
%TD*%
D27*
%TO.P,D2,1,K*%
%TO.N,Net-(D2-K)*%
X127880000Y-47580000D03*
D28*
%TO.P,D2,2,A*%
%TO.N,Net-(D2-A)*%
X130420000Y-47580000D03*
%TD*%
D29*
%TO.N,Net-(U1-RA5)*%
X126540000Y-67605000D02*
X128000000Y-69065000D01*
X126540000Y-62290000D02*
X126540000Y-67605000D01*
X127970000Y-60860000D02*
X126540000Y-62290000D01*
D30*
%TO.N,Net-(BT1-+)*%
X119740000Y-100520000D02*
X118840000Y-100520000D01*
X137645000Y-104925000D02*
X124145000Y-104925000D01*
X139440000Y-103130000D02*
X137645000Y-104925000D01*
X118525000Y-100205000D02*
X118525000Y-97515000D01*
X118950000Y-97090000D02*
X119750000Y-97090000D01*
X118840000Y-100520000D02*
X118525000Y-100205000D01*
X124145000Y-104925000D02*
X119740000Y-100520000D01*
X118525000Y-97515000D02*
X118950000Y-97090000D01*
D29*
%TO.N,GND*%
X138875113Y-67185113D02*
X138880000Y-67190000D01*
D30*
X133130000Y-62020000D02*
X133130000Y-64035000D01*
X133130000Y-64035000D02*
X135620000Y-66525000D01*
X138875113Y-62150000D02*
X138875113Y-67185113D01*
X135884888Y-66260112D02*
X135620000Y-66525000D01*
%TO.N,+3.3V*%
X141420000Y-67190000D02*
X141420000Y-62194887D01*
D29*
X128000000Y-66525000D02*
X128079888Y-66525000D01*
D30*
X144810000Y-97310000D02*
X134570000Y-87070000D01*
X130630000Y-62020000D02*
X130630000Y-63895000D01*
D29*
X128625000Y-66525000D02*
X128000000Y-66525000D01*
D30*
X130630000Y-63895000D02*
X128000000Y-66525000D01*
X144810000Y-100430000D02*
X144810000Y-97310000D01*
D29*
X141420000Y-62194887D02*
X141375113Y-62150000D01*
D30*
%TO.N,+9V*%
X127440000Y-88670000D02*
X129460000Y-90690000D01*
X129460000Y-94500000D02*
X129460000Y-92180000D01*
X139730000Y-100430000D02*
X139730000Y-99910000D01*
X127440000Y-87100000D02*
X127440000Y-88670000D01*
X132000000Y-92180000D02*
X129460000Y-92180000D01*
X129460000Y-90690000D02*
X129460000Y-92180000D01*
X139730000Y-99910000D02*
X132000000Y-92180000D01*
X123090000Y-100870000D02*
X129460000Y-94500000D01*
D29*
%TO.N,Net-(D2-A)*%
X130420000Y-47580000D02*
X129520000Y-48480000D01*
X129520000Y-48480000D02*
X129520000Y-54120000D01*
X129520000Y-54120000D02*
X131110000Y-55710000D01*
%TO.N,Net-(D2-K)*%
X124470000Y-54040000D02*
X124470000Y-50990000D01*
X124470000Y-50990000D02*
X127880000Y-47580000D01*
%TO.N,Net-(D3-A)*%
X135110000Y-49670000D02*
X138730000Y-53290000D01*
X135110000Y-47580000D02*
X135110000Y-49670000D01*
%TO.N,Net-(D3-K)*%
X140350000Y-47580000D02*
X146760000Y-53990000D01*
X137650000Y-47580000D02*
X140350000Y-47580000D01*
D30*
%TO.N,Net-(JP1-B)*%
X121820000Y-98330000D02*
X123090000Y-98330000D01*
X120930000Y-99220000D02*
X121820000Y-98330000D01*
X119740000Y-99220000D02*
X120930000Y-99220000D01*
%TO.N,Net-(JP2-B)*%
X119750000Y-95790000D02*
X123090000Y-95790000D01*
D29*
%TO.N,PWM6*%
X126855000Y-81765000D02*
X128000000Y-81765000D01*
X126160000Y-82460000D02*
X126855000Y-81765000D01*
X124960000Y-82460000D02*
X126160000Y-82460000D01*
%TO.N,Net-(M2--)*%
X129460000Y-99800000D02*
X129460000Y-101005000D01*
X129460000Y-101005000D02*
X131790000Y-103335000D01*
%TO.N,Net-(M2-+)*%
X132000000Y-101005000D02*
X134330000Y-103335000D01*
X132000000Y-99800000D02*
X132000000Y-101005000D01*
%TO.N,LIGHTS*%
X141280000Y-56930000D02*
X144220000Y-53990000D01*
X131830000Y-65275000D02*
X135620000Y-69065000D01*
X126040000Y-58150000D02*
X121930000Y-54040000D01*
X131110000Y-58150000D02*
X126040000Y-58150000D01*
X131830000Y-58870000D02*
X131830000Y-65275000D01*
X132330000Y-56930000D02*
X141280000Y-56930000D01*
X131110000Y-58150000D02*
X131830000Y-58870000D01*
X135620000Y-69065000D02*
X135625000Y-69070000D01*
X131110000Y-58150000D02*
X132330000Y-56930000D01*
%TO.N,SCK*%
X138870000Y-72270000D02*
X137370000Y-73770000D01*
X137370000Y-74935000D02*
X135620000Y-76685000D01*
X137370000Y-73770000D02*
X137370000Y-74935000D01*
X138880000Y-72270000D02*
X138870000Y-72270000D01*
%TO.N,MISO*%
X137330000Y-77515000D02*
X135620000Y-79225000D01*
X138880000Y-74810000D02*
X137330000Y-76360000D01*
X137330000Y-76360000D02*
X137330000Y-77515000D01*
%TO.N,CE*%
X138880000Y-70030000D02*
X135970000Y-72940000D01*
X138880000Y-69730000D02*
X138880000Y-70030000D01*
X135970000Y-72940000D02*
X131745000Y-72940000D01*
X131745000Y-72940000D02*
X128000000Y-76685000D01*
%TO.N,CSN*%
X141420000Y-69730000D02*
X140150000Y-68460000D01*
X136360000Y-70290000D02*
X129315000Y-70290000D01*
X138190000Y-68460000D02*
X136360000Y-70290000D01*
X140150000Y-68460000D02*
X138190000Y-68460000D01*
X129315000Y-70290000D02*
X128000000Y-71605000D01*
%TO.N,MOSI*%
X137390000Y-73070000D02*
X137390000Y-72085686D01*
X138515686Y-70960000D02*
X140110000Y-70960000D01*
X136315000Y-74145000D02*
X137390000Y-73070000D01*
X135620000Y-74145000D02*
X136315000Y-74145000D01*
X140110000Y-70960000D02*
X141420000Y-72270000D01*
X137390000Y-72085686D02*
X138515686Y-70960000D01*
%TD*%
M02*
