%TF.GenerationSoftware,KiCad,Pcbnew,8.0.5*%
%TF.CreationDate,2025-11-20T22:31:33-08:00*%
%TF.ProjectId,receiver,72656365-6976-4657-922e-6b696361645f,rev?*%
%TF.SameCoordinates,Original*%
%TF.FileFunction,Paste,Top*%
%TF.FilePolarity,Positive*%
%FSLAX46Y46*%
G04 Gerber Fmt 4.6, Leading zero omitted, Abs format (unit mm)*
G04 Created by KiCad (PCBNEW 8.0.5) date 2025-11-20 22:31:33*
%MOMM*%
%LPD*%
G01*
G04 APERTURE LIST*
G04 Aperture macros list*
%AMRoundRect*
0 Rectangle with rounded corners*
0 $1 Rounding radius*
0 $2 $3 $4 $5 $6 $7 $8 $9 X,Y pos of 4 corners*
0 Add a 4 corners polygon primitive as box body*
4,1,4,$2,$3,$4,$5,$6,$7,$8,$9,$2,$3,0*
0 Add four circle primitives for the rounded corners*
1,1,$1+$1,$2,$3*
1,1,$1+$1,$4,$5*
1,1,$1+$1,$6,$7*
1,1,$1+$1,$8,$9*
0 Add four rect primitives between the rounded corners*
20,1,$1+$1,$2,$3,$4,$5,0*
20,1,$1+$1,$4,$5,$6,$7,0*
20,1,$1+$1,$6,$7,$8,$9,0*
20,1,$1+$1,$8,$9,$2,$3,0*%
G04 Aperture macros list end*
%ADD10RoundRect,0.250000X0.275000X-0.312500X0.275000X0.312500X-0.275000X0.312500X-0.275000X-0.312500X0*%
%ADD11RoundRect,0.135000X-0.185000X0.135000X-0.185000X-0.135000X0.185000X-0.135000X0.185000X0.135000X0*%
%ADD12RoundRect,0.150000X-0.150000X0.587500X-0.150000X-0.587500X0.150000X-0.587500X0.150000X0.587500X0*%
%ADD13RoundRect,0.135000X0.185000X-0.135000X0.185000X0.135000X-0.185000X0.135000X-0.185000X-0.135000X0*%
%ADD14RoundRect,0.147500X-0.147500X-0.172500X0.147500X-0.172500X0.147500X0.172500X-0.147500X0.172500X0*%
%ADD15RoundRect,0.135000X-0.135000X-0.185000X0.135000X-0.185000X0.135000X0.185000X-0.135000X0.185000X0*%
%ADD16RoundRect,0.150000X0.150000X-0.587500X0.150000X0.587500X-0.150000X0.587500X-0.150000X-0.587500X0*%
%ADD17RoundRect,0.250000X-0.250000X-0.475000X0.250000X-0.475000X0.250000X0.475000X-0.250000X0.475000X0*%
%ADD18R,1.663700X0.431800*%
%ADD19RoundRect,0.140000X-0.170000X0.140000X-0.170000X-0.140000X0.170000X-0.140000X0.170000X0.140000X0*%
%ADD20RoundRect,0.140000X-0.140000X-0.170000X0.140000X-0.170000X0.140000X0.170000X-0.140000X0.170000X0*%
%ADD21RoundRect,0.140000X0.170000X-0.140000X0.170000X0.140000X-0.170000X0.140000X-0.170000X-0.140000X0*%
%ADD22RoundRect,0.140000X0.140000X0.170000X-0.140000X0.170000X-0.140000X-0.170000X0.140000X-0.170000X0*%
%ADD23RoundRect,0.147500X0.147500X0.172500X-0.147500X0.172500X-0.147500X-0.172500X0.147500X-0.172500X0*%
%ADD24RoundRect,0.375000X0.375000X-0.625000X0.375000X0.625000X-0.375000X0.625000X-0.375000X-0.625000X0*%
%ADD25RoundRect,0.500000X1.400000X-0.500000X1.400000X0.500000X-1.400000X0.500000X-1.400000X-0.500000X0*%
%ADD26RoundRect,0.135000X0.135000X0.185000X-0.135000X0.185000X-0.135000X-0.185000X0.135000X-0.185000X0*%
%ADD27R,2.616200X1.219200*%
G04 APERTURE END LIST*
D10*
%TO.C,C10*%
X141800000Y-79525000D03*
X141800000Y-77750000D03*
%TD*%
D11*
%TO.C,R12*%
X119460000Y-67160000D03*
X119460000Y-68180000D03*
%TD*%
D12*
%TO.C,Q3*%
X122410000Y-94680000D03*
X120510000Y-94680000D03*
X121460000Y-96555000D03*
%TD*%
D13*
%TO.C,R11*%
X121100000Y-68150000D03*
X121100000Y-67130000D03*
%TD*%
D14*
%TO.C,D5*%
X137730000Y-85820000D03*
X138700000Y-85820000D03*
%TD*%
D15*
%TO.C,R1*%
X125690000Y-56380000D03*
X126710000Y-56380000D03*
%TD*%
D16*
%TO.C,Q1*%
X133000000Y-49077500D03*
X134900000Y-49077500D03*
X133950000Y-47202500D03*
%TD*%
D17*
%TO.C,C9*%
X144280000Y-90900000D03*
X146180000Y-90900000D03*
%TD*%
D18*
%TO.C,U5*%
X126724150Y-60205000D03*
X126724150Y-60855001D03*
X126724150Y-61505000D03*
X126724150Y-62155001D03*
X126724150Y-62804999D03*
X126724150Y-63455001D03*
X126724150Y-64104999D03*
X126724150Y-64754998D03*
X126724150Y-65404999D03*
X126724150Y-66054998D03*
X126724150Y-66704999D03*
X126724150Y-67354998D03*
X126724150Y-68004999D03*
X126724150Y-68654998D03*
X133975850Y-68655000D03*
X133975850Y-68004999D03*
X133975850Y-67355000D03*
X133975850Y-66704999D03*
X133975850Y-66055001D03*
X133975850Y-65404999D03*
X133975850Y-64755001D03*
X133975850Y-64104999D03*
X133975850Y-63455001D03*
X133975850Y-62804999D03*
X133975850Y-62155001D03*
X133975850Y-61505000D03*
X133975850Y-60855001D03*
X133975850Y-60205000D03*
%TD*%
D15*
%TO.C,R9*%
X122490000Y-100000000D03*
X123510000Y-100000000D03*
%TD*%
%TO.C,R10*%
X145480000Y-99990000D03*
X146500000Y-99990000D03*
%TD*%
%TO.C,R13*%
X137700000Y-88310000D03*
X138720000Y-88310000D03*
%TD*%
D19*
%TO.C,C7*%
X135890000Y-65400000D03*
X135890000Y-66360000D03*
%TD*%
D15*
%TO.C,R8*%
X137010000Y-49750000D03*
X138030000Y-49750000D03*
%TD*%
D20*
%TO.C,C5*%
X124020000Y-68000000D03*
X124980000Y-68000000D03*
%TD*%
D15*
%TO.C,R2*%
X139690000Y-49750000D03*
X140710000Y-49750000D03*
%TD*%
D21*
%TO.C,C1*%
X135700000Y-60700000D03*
X135700000Y-59740000D03*
%TD*%
D22*
%TO.C,C2*%
X126680000Y-57880000D03*
X125720000Y-57880000D03*
%TD*%
D15*
%TO.C,R5*%
X119490000Y-100000000D03*
X120510000Y-100000000D03*
%TD*%
D23*
%TO.C,D6*%
X121505000Y-74410000D03*
X120535000Y-74410000D03*
%TD*%
D24*
%TO.C,U6*%
X140780000Y-88200000D03*
X143080000Y-88200000D03*
D25*
X143080000Y-81900000D03*
D24*
X145380000Y-88200000D03*
%TD*%
D15*
%TO.C,R6*%
X128030000Y-49750000D03*
X129050000Y-49750000D03*
%TD*%
D16*
%TO.C,Q2*%
X132980000Y-53237500D03*
X134880000Y-53237500D03*
X133930000Y-51362500D03*
%TD*%
D12*
%TO.C,Q4*%
X145262500Y-94562500D03*
X143362500Y-94562500D03*
X144312500Y-96437500D03*
%TD*%
%TO.C,Q5*%
X121332500Y-70332500D03*
X119432500Y-70332500D03*
X120382500Y-72207500D03*
%TD*%
D15*
%TO.C,R4*%
X125360000Y-49750000D03*
X126380000Y-49750000D03*
%TD*%
%TO.C,R7*%
X142480000Y-99990000D03*
X143500000Y-99990000D03*
%TD*%
D26*
%TO.C,R3*%
X126710000Y-54880000D03*
X125690000Y-54880000D03*
%TD*%
D27*
%TO.C,C3*%
X145185100Y-67270000D03*
X139774900Y-67270000D03*
%TD*%
M02*
