%TF.GenerationSoftware,KiCad,Pcbnew,8.0.5*%
%TF.CreationDate,2025-11-20T22:31:33-08:00*%
%TF.ProjectId,receiver,72656365-6976-4657-922e-6b696361645f,rev?*%
%TF.SameCoordinates,Original*%
%TF.FileFunction,Copper,L3,Inr*%
%TF.FilePolarity,Positive*%
%FSLAX46Y46*%
G04 Gerber Fmt 4.6, Leading zero omitted, Abs format (unit mm)*
G04 Created by KiCad (PCBNEW 8.0.5) date 2025-11-20 22:31:33*
%MOMM*%
%LPD*%
G01*
G04 APERTURE LIST*
%TA.AperFunction,ComponentPad*%
%ADD10C,2.900000*%
%TD*%
%TA.AperFunction,ComponentPad*%
%ADD11R,1.700000X1.700000*%
%TD*%
%TA.AperFunction,ComponentPad*%
%ADD12O,1.700000X1.700000*%
%TD*%
%TA.AperFunction,ComponentPad*%
%ADD13R,1.600000X1.600000*%
%TD*%
%TA.AperFunction,ComponentPad*%
%ADD14O,1.600000X1.600000*%
%TD*%
%TA.AperFunction,ComponentPad*%
%ADD15R,1.498000X1.498000*%
%TD*%
%TA.AperFunction,ComponentPad*%
%ADD16C,1.498000*%
%TD*%
%TA.AperFunction,ComponentPad*%
%ADD17C,1.700000*%
%TD*%
%TA.AperFunction,ComponentPad*%
%ADD18C,1.524000*%
%TD*%
%TA.AperFunction,ViaPad*%
%ADD19C,0.600000*%
%TD*%
G04 APERTURE END LIST*
D10*
%TO.N,GND*%
%TO.C,H2*%
X121012500Y-108912500D03*
%TD*%
%TO.N,GND*%
%TO.C,H4*%
X145162500Y-47462500D03*
%TD*%
D11*
%TO.N,Net-(D4-K)*%
%TO.C,D4*%
X140420000Y-110000000D03*
D12*
%TO.N,Net-(D4-A)*%
X140420000Y-107460000D03*
%TD*%
D13*
%TO.N,Net-(M2-+)*%
%TO.C,U4*%
X127770000Y-97430000D03*
D14*
%TO.N,+9V*%
X130310000Y-97430000D03*
X132850000Y-97430000D03*
%TO.N,Net-(M2--)*%
X135390000Y-97430000D03*
%TO.N,GND*%
X135390000Y-89810000D03*
%TO.N,PWM4*%
X132850000Y-89810000D03*
%TO.N,PWM5*%
X130310000Y-89810000D03*
%TO.N,GND*%
X127770000Y-89810000D03*
%TD*%
D10*
%TO.N,GND*%
%TO.C,H3*%
X145162500Y-108912500D03*
%TD*%
D11*
%TO.N,Net-(D2-K)*%
%TO.C,D2*%
X126000000Y-46460000D03*
D12*
%TO.N,Net-(D2-A)*%
X128540000Y-46460000D03*
%TD*%
D15*
%TO.N,Net-(C2-Pad2)*%
%TO.C,SW2*%
X123820000Y-55480000D03*
D16*
X123820000Y-61980000D03*
%TO.N,GND*%
X119320000Y-55480000D03*
X119320000Y-61980000D03*
%TD*%
D11*
%TO.N,~{MCLR}*%
%TO.C,J1*%
X130050000Y-52190000D03*
D12*
%TO.N,+3.3V*%
X127510000Y-52190000D03*
%TO.N,GND*%
X124970000Y-52190000D03*
%TO.N,PGData*%
X122430000Y-52190000D03*
%TO.N,PGClk*%
X119890000Y-52190000D03*
%TD*%
D11*
%TO.N,PWM6*%
%TO.C,M1*%
X125335000Y-85980000D03*
D12*
%TO.N,+3.3V*%
X122795000Y-85980000D03*
%TO.N,GND*%
X120255000Y-85980000D03*
%TD*%
D10*
%TO.N,GND*%
%TO.C,H1*%
X121012500Y-47462500D03*
%TD*%
D11*
%TO.N,Net-(M2-+)*%
%TO.C,M2*%
X131860000Y-108550000D03*
D12*
%TO.N,Net-(M2--)*%
X134400000Y-108550000D03*
%TD*%
D11*
%TO.N,GND*%
%TO.C,SW1*%
X139250000Y-93750000D03*
D12*
%TO.N,+9V*%
X139250000Y-96290000D03*
%TO.N,Net-(BT1-+)*%
X139250000Y-98830000D03*
%TD*%
D11*
%TO.N,TXD*%
%TO.C,J2*%
X140870000Y-72880000D03*
D12*
%TO.N,RXD*%
X143410000Y-72880000D03*
%TO.N,GND*%
X145950000Y-72880000D03*
%TD*%
D11*
%TO.N,Net-(D1-K)*%
%TO.C,D1*%
X137600000Y-46450000D03*
D12*
%TO.N,Net-(D1-A)*%
X140140000Y-46450000D03*
%TD*%
D11*
%TO.N,Net-(D3-K)*%
%TO.C,D3*%
X125745000Y-107440000D03*
D12*
%TO.N,Net-(D3-A)*%
X125745000Y-109980000D03*
%TD*%
D11*
%TO.N,GND*%
%TO.C,U3*%
X139280000Y-53740000D03*
D17*
%TO.N,+3.3V*%
X141820000Y-53740000D03*
%TO.N,CE*%
X139280000Y-56280000D03*
%TO.N,CSN*%
X141820000Y-56280000D03*
%TO.N,SCK*%
X139280000Y-58820000D03*
%TO.N,MOSI*%
X141820000Y-58820000D03*
%TO.N,MISO*%
X139280000Y-61360000D03*
%TO.N,IRQ*%
X141820000Y-61360000D03*
%TD*%
D18*
%TO.N,Net-(BT1-+)*%
%TO.C,BT1*%
X139440000Y-103130000D03*
%TO.N,GND*%
X126740000Y-103130000D03*
%TD*%
D19*
%TO.N,GND*%
X120510000Y-93390000D03*
X124020000Y-68810000D03*
X146190000Y-92330000D03*
X143370000Y-93080000D03*
X136720000Y-66350000D03*
X125300000Y-64750000D03*
X136360000Y-50360000D03*
X127480000Y-57870000D03*
X141800000Y-76650000D03*
X135758511Y-48748511D03*
X119440000Y-69100000D03*
X137920000Y-67280000D03*
X121100000Y-68920000D03*
X135700000Y-53240000D03*
X145490000Y-100790000D03*
X136568802Y-59918802D03*
X136810000Y-85840000D03*
X122500000Y-100960000D03*
X140800000Y-89900000D03*
X127220000Y-49750000D03*
%TO.N,+3.3V*%
X147020000Y-67270000D03*
X142510000Y-100850000D03*
X135720000Y-58720000D03*
X124540000Y-49750000D03*
X119520000Y-100800000D03*
X127490000Y-56380000D03*
X120280001Y-67168254D03*
X140430000Y-79500000D03*
X124980000Y-68810000D03*
X138860000Y-49750000D03*
X137700000Y-89150000D03*
%TO.N,CSN*%
X135540000Y-63450000D03*
%TD*%
%TA.AperFunction,Conductor*%
%TO.N,+3.3V*%
G36*
X141354075Y-53932993D02*
G01*
X141419901Y-54047007D01*
X141512993Y-54140099D01*
X141627007Y-54205925D01*
X141690590Y-54222962D01*
X141058625Y-54854925D01*
X141134594Y-54908119D01*
X141178219Y-54962696D01*
X141185413Y-55032194D01*
X141153890Y-55094549D01*
X141134595Y-55111269D01*
X140948594Y-55241508D01*
X140781505Y-55408597D01*
X140651575Y-55594158D01*
X140596998Y-55637783D01*
X140527500Y-55644977D01*
X140465145Y-55613454D01*
X140448425Y-55594158D01*
X140318496Y-55408600D01*
X140318493Y-55408597D01*
X140196567Y-55286671D01*
X140163084Y-55225351D01*
X140168068Y-55155659D01*
X140209939Y-55099725D01*
X140240915Y-55082810D01*
X140372331Y-55033796D01*
X140487546Y-54947546D01*
X140573796Y-54832331D01*
X140624091Y-54697483D01*
X140630500Y-54637873D01*
X140630499Y-54627314D01*
X140650179Y-54560277D01*
X140666818Y-54539628D01*
X141337037Y-53869409D01*
X141354075Y-53932993D01*
G37*
%TD.AperFunction*%
%TA.AperFunction,Conductor*%
G36*
X147842539Y-44745185D02*
G01*
X147888294Y-44797989D01*
X147899500Y-44849500D01*
X147899500Y-111525500D01*
X147879815Y-111592539D01*
X147827011Y-111638294D01*
X147775500Y-111649500D01*
X118399500Y-111649500D01*
X118332461Y-111629815D01*
X118286706Y-111577011D01*
X118275500Y-111525500D01*
X118275500Y-108912498D01*
X119057018Y-108912498D01*
X119057018Y-108912501D01*
X119076922Y-109190799D01*
X119134393Y-109454984D01*
X119136229Y-109463423D01*
X119196766Y-109625730D01*
X119233731Y-109724838D01*
X119233733Y-109724842D01*
X119367440Y-109969707D01*
X119367445Y-109969715D01*
X119534638Y-110193060D01*
X119534654Y-110193078D01*
X119731921Y-110390345D01*
X119731939Y-110390361D01*
X119955284Y-110557554D01*
X119955292Y-110557559D01*
X120200157Y-110691266D01*
X120200161Y-110691268D01*
X120200163Y-110691269D01*
X120461577Y-110788771D01*
X120597891Y-110818424D01*
X120734200Y-110848077D01*
X120734202Y-110848077D01*
X120734206Y-110848078D01*
X120981514Y-110865765D01*
X121012499Y-110867982D01*
X121012500Y-110867982D01*
X121012501Y-110867982D01*
X121040381Y-110865987D01*
X121290794Y-110848078D01*
X121563423Y-110788771D01*
X121824837Y-110691269D01*
X122069713Y-110557556D01*
X122293068Y-110390355D01*
X122490355Y-110193068D01*
X122649856Y-109979999D01*
X124389341Y-109979999D01*
X124389341Y-109980000D01*
X124409936Y-110215403D01*
X124409938Y-110215413D01*
X124471094Y-110443655D01*
X124471096Y-110443659D01*
X124471097Y-110443663D01*
X124524208Y-110557559D01*
X124570965Y-110657830D01*
X124570967Y-110657834D01*
X124594379Y-110691269D01*
X124706505Y-110851401D01*
X124873599Y-111018495D01*
X124970384Y-111086265D01*
X125067165Y-111154032D01*
X125067167Y-111154033D01*
X125067170Y-111154035D01*
X125281337Y-111253903D01*
X125509592Y-111315063D01*
X125697918Y-111331539D01*
X125744999Y-111335659D01*
X125745000Y-111335659D01*
X125745001Y-111335659D01*
X125784234Y-111332226D01*
X125980408Y-111315063D01*
X126208663Y-111253903D01*
X126422830Y-111154035D01*
X126616401Y-111018495D01*
X126783495Y-110851401D01*
X126919035Y-110657830D01*
X127018903Y-110443663D01*
X127080063Y-110215408D01*
X127100659Y-109980000D01*
X127099758Y-109969707D01*
X127092353Y-109885061D01*
X127080063Y-109744592D01*
X127018903Y-109516337D01*
X126919035Y-109302171D01*
X126841048Y-109190794D01*
X126783496Y-109108600D01*
X126777012Y-109102116D01*
X126661567Y-108986671D01*
X126628084Y-108925351D01*
X126633068Y-108855659D01*
X126674939Y-108799725D01*
X126705915Y-108782810D01*
X126837331Y-108733796D01*
X126952546Y-108647546D01*
X127038796Y-108532331D01*
X127089091Y-108397483D01*
X127095500Y-108337873D01*
X127095500Y-107652135D01*
X130509500Y-107652135D01*
X130509500Y-109447870D01*
X130509501Y-109447876D01*
X130515908Y-109507483D01*
X130566202Y-109642328D01*
X130566206Y-109642335D01*
X130652452Y-109757544D01*
X130652455Y-109757547D01*
X130767664Y-109843793D01*
X130767671Y-109843797D01*
X130902517Y-109894091D01*
X130902516Y-109894091D01*
X130909444Y-109894835D01*
X130962127Y-109900500D01*
X132757872Y-109900499D01*
X132817483Y-109894091D01*
X132952331Y-109843796D01*
X133067546Y-109757546D01*
X133153796Y-109642331D01*
X133202810Y-109510916D01*
X133244681Y-109454984D01*
X133310145Y-109430566D01*
X133378418Y-109445417D01*
X133406673Y-109466569D01*
X133528599Y-109588495D01*
X133625384Y-109656265D01*
X133722165Y-109724032D01*
X133722167Y-109724033D01*
X133722170Y-109724035D01*
X133936337Y-109823903D01*
X134164592Y-109885063D01*
X134341034Y-109900500D01*
X134399999Y-109905659D01*
X134400000Y-109905659D01*
X134400001Y-109905659D01*
X134458966Y-109900500D01*
X134635408Y-109885063D01*
X134863663Y-109823903D01*
X135077830Y-109724035D01*
X135271401Y-109588495D01*
X135438495Y-109421401D01*
X135574035Y-109227830D01*
X135673903Y-109013663D01*
X135735063Y-108785408D01*
X135755659Y-108550000D01*
X135754113Y-108532335D01*
X135739174Y-108361583D01*
X135735063Y-108314592D01*
X135673903Y-108086337D01*
X135574035Y-107872171D01*
X135562217Y-107855292D01*
X135438494Y-107678597D01*
X135271402Y-107511506D01*
X135271395Y-107511501D01*
X135197843Y-107459999D01*
X139064341Y-107459999D01*
X139064341Y-107460000D01*
X139084936Y-107695403D01*
X139084938Y-107695413D01*
X139146094Y-107923655D01*
X139146096Y-107923659D01*
X139146097Y-107923663D01*
X139221953Y-108086337D01*
X139245965Y-108137830D01*
X139245967Y-108137834D01*
X139354281Y-108292521D01*
X139381501Y-108331396D01*
X139381506Y-108331402D01*
X139503430Y-108453326D01*
X139536915Y-108514649D01*
X139531931Y-108584341D01*
X139490059Y-108640274D01*
X139459083Y-108657189D01*
X139327669Y-108706203D01*
X139327664Y-108706206D01*
X139212455Y-108792452D01*
X139212452Y-108792455D01*
X139126206Y-108907664D01*
X139126202Y-108907671D01*
X139075908Y-109042517D01*
X139069501Y-109102116D01*
X139069501Y-109102123D01*
X139069500Y-109102135D01*
X139069500Y-110897870D01*
X139069501Y-110897876D01*
X139075908Y-110957483D01*
X139126202Y-111092328D01*
X139126206Y-111092335D01*
X139212452Y-111207544D01*
X139212455Y-111207547D01*
X139327664Y-111293793D01*
X139327671Y-111293797D01*
X139462517Y-111344091D01*
X139462516Y-111344091D01*
X139469444Y-111344835D01*
X139522127Y-111350500D01*
X141317872Y-111350499D01*
X141377483Y-111344091D01*
X141512331Y-111293796D01*
X141627546Y-111207546D01*
X141713796Y-111092331D01*
X141764091Y-110957483D01*
X141770500Y-110897873D01*
X141770499Y-109102128D01*
X141764091Y-109042517D01*
X141753329Y-109013663D01*
X141715597Y-108912498D01*
X143207018Y-108912498D01*
X143207018Y-108912501D01*
X143226922Y-109190799D01*
X143284393Y-109454984D01*
X143286229Y-109463423D01*
X143346766Y-109625730D01*
X143383731Y-109724838D01*
X143383733Y-109724842D01*
X143517440Y-109969707D01*
X143517445Y-109969715D01*
X143684638Y-110193060D01*
X143684654Y-110193078D01*
X143881921Y-110390345D01*
X143881939Y-110390361D01*
X144105284Y-110557554D01*
X144105292Y-110557559D01*
X144350157Y-110691266D01*
X144350161Y-110691268D01*
X144350163Y-110691269D01*
X144611577Y-110788771D01*
X144747891Y-110818424D01*
X144884200Y-110848077D01*
X144884202Y-110848077D01*
X144884206Y-110848078D01*
X145131514Y-110865765D01*
X145162499Y-110867982D01*
X145162500Y-110867982D01*
X145162501Y-110867982D01*
X145190381Y-110865987D01*
X145440794Y-110848078D01*
X145713423Y-110788771D01*
X145974837Y-110691269D01*
X146219713Y-110557556D01*
X146443068Y-110390355D01*
X146640355Y-110193068D01*
X146807556Y-109969713D01*
X146941269Y-109724837D01*
X147038771Y-109463423D01*
X147098078Y-109190794D01*
X147117982Y-108912500D01*
X147117636Y-108907669D01*
X147109256Y-108790499D01*
X147098078Y-108634206D01*
X147087230Y-108584341D01*
X147046582Y-108397483D01*
X147038771Y-108361577D01*
X146941269Y-108100163D01*
X146933719Y-108086337D01*
X146807559Y-107855292D01*
X146807554Y-107855284D01*
X146640361Y-107631939D01*
X146640345Y-107631921D01*
X146443078Y-107434654D01*
X146443060Y-107434638D01*
X146219715Y-107267445D01*
X146219707Y-107267440D01*
X145974842Y-107133733D01*
X145974838Y-107133731D01*
X145875730Y-107096766D01*
X145713423Y-107036229D01*
X145713419Y-107036228D01*
X145713416Y-107036227D01*
X145440799Y-106976922D01*
X145162501Y-106957018D01*
X145162499Y-106957018D01*
X144884200Y-106976922D01*
X144611583Y-107036227D01*
X144611578Y-107036228D01*
X144611577Y-107036229D01*
X144548375Y-107059801D01*
X144350161Y-107133731D01*
X144350157Y-107133733D01*
X144105292Y-107267440D01*
X144105284Y-107267445D01*
X143881939Y-107434638D01*
X143881921Y-107434654D01*
X143684654Y-107631921D01*
X143684638Y-107631939D01*
X143517445Y-107855284D01*
X143517440Y-107855292D01*
X143383733Y-108100157D01*
X143383731Y-108100161D01*
X143369680Y-108137834D01*
X143295067Y-108337883D01*
X143286227Y-108361583D01*
X143226922Y-108634200D01*
X143207018Y-108912498D01*
X141715597Y-108912498D01*
X141713797Y-108907671D01*
X141713793Y-108907664D01*
X141627547Y-108792455D01*
X141627544Y-108792452D01*
X141512335Y-108706206D01*
X141512328Y-108706202D01*
X141380917Y-108657189D01*
X141324983Y-108615318D01*
X141300566Y-108549853D01*
X141315418Y-108481580D01*
X141336563Y-108453332D01*
X141458495Y-108331401D01*
X141594035Y-108137830D01*
X141693903Y-107923663D01*
X141755063Y-107695408D01*
X141775659Y-107460000D01*
X141773441Y-107434654D01*
X141757829Y-107256206D01*
X141755063Y-107224592D01*
X141693903Y-106996337D01*
X141594035Y-106782171D01*
X141458495Y-106588599D01*
X141458494Y-106588597D01*
X141291402Y-106421506D01*
X141291395Y-106421501D01*
X141097834Y-106285967D01*
X141097830Y-106285965D01*
X141097828Y-106285964D01*
X140883663Y-106186097D01*
X140883659Y-106186096D01*
X140883655Y-106186094D01*
X140655413Y-106124938D01*
X140655403Y-106124936D01*
X140420001Y-106104341D01*
X140419999Y-106104341D01*
X140184596Y-106124936D01*
X140184586Y-106124938D01*
X139956344Y-106186094D01*
X139956335Y-106186098D01*
X139742171Y-106285964D01*
X139742169Y-106285965D01*
X139548597Y-106421505D01*
X139381505Y-106588597D01*
X139245965Y-106782169D01*
X139245964Y-106782171D01*
X139146098Y-106996335D01*
X139146094Y-106996344D01*
X139084938Y-107224586D01*
X139084936Y-107224596D01*
X139064341Y-107459999D01*
X135197843Y-107459999D01*
X135077834Y-107375967D01*
X135077830Y-107375965D01*
X135077828Y-107375964D01*
X134863663Y-107276097D01*
X134863659Y-107276096D01*
X134863655Y-107276094D01*
X134635413Y-107214938D01*
X134635403Y-107214936D01*
X134400001Y-107194341D01*
X134399999Y-107194341D01*
X134164596Y-107214936D01*
X134164586Y-107214938D01*
X133936344Y-107276094D01*
X133936335Y-107276098D01*
X133722171Y-107375964D01*
X133722169Y-107375965D01*
X133528600Y-107511503D01*
X133406673Y-107633430D01*
X133345350Y-107666914D01*
X133275658Y-107661930D01*
X133219725Y-107620058D01*
X133202810Y-107589081D01*
X133153797Y-107457671D01*
X133153793Y-107457664D01*
X133067547Y-107342455D01*
X133067544Y-107342452D01*
X132952335Y-107256206D01*
X132952328Y-107256202D01*
X132817482Y-107205908D01*
X132817483Y-107205908D01*
X132757883Y-107199501D01*
X132757881Y-107199500D01*
X132757873Y-107199500D01*
X132757864Y-107199500D01*
X130962129Y-107199500D01*
X130962123Y-107199501D01*
X130902516Y-107205908D01*
X130767671Y-107256202D01*
X130767664Y-107256206D01*
X130652455Y-107342452D01*
X130652452Y-107342455D01*
X130566206Y-107457664D01*
X130566202Y-107457671D01*
X130515908Y-107592517D01*
X130509501Y-107652116D01*
X130509500Y-107652135D01*
X127095500Y-107652135D01*
X127095499Y-106542128D01*
X127089091Y-106482517D01*
X127066335Y-106421506D01*
X127038797Y-106347671D01*
X127038793Y-106347664D01*
X126952547Y-106232455D01*
X126952544Y-106232452D01*
X126837335Y-106146206D01*
X126837328Y-106146202D01*
X126702482Y-106095908D01*
X126702483Y-106095908D01*
X126642883Y-106089501D01*
X126642881Y-106089500D01*
X126642873Y-106089500D01*
X126642864Y-106089500D01*
X124847129Y-106089500D01*
X124847123Y-106089501D01*
X124787516Y-106095908D01*
X124652671Y-106146202D01*
X124652664Y-106146206D01*
X124537455Y-106232452D01*
X124537452Y-106232455D01*
X124451206Y-106347664D01*
X124451202Y-106347671D01*
X124400908Y-106482517D01*
X124394501Y-106542116D01*
X124394501Y-106542123D01*
X124394500Y-106542135D01*
X124394500Y-108337870D01*
X124394501Y-108337876D01*
X124400908Y-108397483D01*
X124451202Y-108532328D01*
X124451206Y-108532335D01*
X124537452Y-108647544D01*
X124537455Y-108647547D01*
X124652664Y-108733793D01*
X124652671Y-108733797D01*
X124784081Y-108782810D01*
X124840015Y-108824681D01*
X124864432Y-108890145D01*
X124849580Y-108958418D01*
X124828430Y-108986673D01*
X124706503Y-109108600D01*
X124570965Y-109302169D01*
X124570964Y-109302171D01*
X124471098Y-109516335D01*
X124471094Y-109516344D01*
X124409938Y-109744586D01*
X124409936Y-109744596D01*
X124389341Y-109979999D01*
X122649856Y-109979999D01*
X122657556Y-109969713D01*
X122791269Y-109724837D01*
X122888771Y-109463423D01*
X122948078Y-109190794D01*
X122967982Y-108912500D01*
X122967636Y-108907669D01*
X122959256Y-108790499D01*
X122948078Y-108634206D01*
X122937230Y-108584341D01*
X122896582Y-108397483D01*
X122888771Y-108361577D01*
X122791269Y-108100163D01*
X122783719Y-108086337D01*
X122657559Y-107855292D01*
X122657554Y-107855284D01*
X122490361Y-107631939D01*
X122490345Y-107631921D01*
X122293078Y-107434654D01*
X122293060Y-107434638D01*
X122069715Y-107267445D01*
X122069707Y-107267440D01*
X121824842Y-107133733D01*
X121824838Y-107133731D01*
X121725730Y-107096766D01*
X121563423Y-107036229D01*
X121563419Y-107036228D01*
X121563416Y-107036227D01*
X121290799Y-106976922D01*
X121012501Y-106957018D01*
X121012499Y-106957018D01*
X120734200Y-106976922D01*
X120461583Y-107036227D01*
X120461578Y-107036228D01*
X120461577Y-107036229D01*
X120398375Y-107059801D01*
X120200161Y-107133731D01*
X120200157Y-107133733D01*
X119955292Y-107267440D01*
X119955284Y-107267445D01*
X119731939Y-107434638D01*
X119731921Y-107434654D01*
X119534654Y-107631921D01*
X119534638Y-107631939D01*
X119367445Y-107855284D01*
X119367440Y-107855292D01*
X119233733Y-108100157D01*
X119233731Y-108100161D01*
X119219680Y-108137834D01*
X119145067Y-108337883D01*
X119136227Y-108361583D01*
X119076922Y-108634200D01*
X119057018Y-108912498D01*
X118275500Y-108912498D01*
X118275500Y-103129997D01*
X125472677Y-103129997D01*
X125472677Y-103130002D01*
X125491929Y-103350062D01*
X125491930Y-103350070D01*
X125549104Y-103563445D01*
X125549105Y-103563447D01*
X125549106Y-103563450D01*
X125642466Y-103763662D01*
X125642468Y-103763666D01*
X125769170Y-103944615D01*
X125769175Y-103944621D01*
X125925378Y-104100824D01*
X125925384Y-104100829D01*
X126106333Y-104227531D01*
X126106335Y-104227532D01*
X126106338Y-104227534D01*
X126306550Y-104320894D01*
X126519932Y-104378070D01*
X126677123Y-104391822D01*
X126739998Y-104397323D01*
X126740000Y-104397323D01*
X126740002Y-104397323D01*
X126795017Y-104392509D01*
X126960068Y-104378070D01*
X127173450Y-104320894D01*
X127373662Y-104227534D01*
X127554620Y-104100826D01*
X127710826Y-103944620D01*
X127837534Y-103763662D01*
X127930894Y-103563450D01*
X127988070Y-103350068D01*
X128007323Y-103130000D01*
X128007323Y-103129997D01*
X138172677Y-103129997D01*
X138172677Y-103130002D01*
X138191929Y-103350062D01*
X138191930Y-103350070D01*
X138249104Y-103563445D01*
X138249105Y-103563447D01*
X138249106Y-103563450D01*
X138342466Y-103763662D01*
X138342468Y-103763666D01*
X138469170Y-103944615D01*
X138469175Y-103944621D01*
X138625378Y-104100824D01*
X138625384Y-104100829D01*
X138806333Y-104227531D01*
X138806335Y-104227532D01*
X138806338Y-104227534D01*
X139006550Y-104320894D01*
X139219932Y-104378070D01*
X139377123Y-104391822D01*
X139439998Y-104397323D01*
X139440000Y-104397323D01*
X139440002Y-104397323D01*
X139495017Y-104392509D01*
X139660068Y-104378070D01*
X139873450Y-104320894D01*
X140073662Y-104227534D01*
X140254620Y-104100826D01*
X140410826Y-103944620D01*
X140537534Y-103763662D01*
X140630894Y-103563450D01*
X140688070Y-103350068D01*
X140707323Y-103130000D01*
X140688070Y-102909932D01*
X140630894Y-102696550D01*
X140537534Y-102496339D01*
X140410826Y-102315380D01*
X140254620Y-102159174D01*
X140254616Y-102159171D01*
X140254615Y-102159170D01*
X140073666Y-102032468D01*
X140073662Y-102032466D01*
X140073660Y-102032465D01*
X139873450Y-101939106D01*
X139873447Y-101939105D01*
X139873445Y-101939104D01*
X139660070Y-101881930D01*
X139660062Y-101881929D01*
X139440002Y-101862677D01*
X139439998Y-101862677D01*
X139219937Y-101881929D01*
X139219929Y-101881930D01*
X139006554Y-101939104D01*
X139006548Y-101939107D01*
X138806340Y-102032465D01*
X138806338Y-102032466D01*
X138625377Y-102159175D01*
X138469175Y-102315377D01*
X138342466Y-102496338D01*
X138342465Y-102496340D01*
X138249107Y-102696548D01*
X138249104Y-102696554D01*
X138191930Y-102909929D01*
X138191929Y-102909937D01*
X138172677Y-103129997D01*
X128007323Y-103129997D01*
X127988070Y-102909932D01*
X127930894Y-102696550D01*
X127837534Y-102496339D01*
X127710826Y-102315380D01*
X127554620Y-102159174D01*
X127554616Y-102159171D01*
X127554615Y-102159170D01*
X127373666Y-102032468D01*
X127373662Y-102032466D01*
X127373660Y-102032465D01*
X127173450Y-101939106D01*
X127173447Y-101939105D01*
X127173445Y-101939104D01*
X126960070Y-101881930D01*
X126960062Y-101881929D01*
X126740002Y-101862677D01*
X126739998Y-101862677D01*
X126519937Y-101881929D01*
X126519929Y-101881930D01*
X126306554Y-101939104D01*
X126306548Y-101939107D01*
X126106340Y-102032465D01*
X126106338Y-102032466D01*
X125925377Y-102159175D01*
X125769175Y-102315377D01*
X125642466Y-102496338D01*
X125642465Y-102496340D01*
X125549107Y-102696548D01*
X125549104Y-102696554D01*
X125491930Y-102909929D01*
X125491929Y-102909937D01*
X125472677Y-103129997D01*
X118275500Y-103129997D01*
X118275500Y-100959996D01*
X121694435Y-100959996D01*
X121694435Y-100960003D01*
X121714630Y-101139249D01*
X121714631Y-101139254D01*
X121774211Y-101309523D01*
X121843513Y-101419815D01*
X121870184Y-101462262D01*
X121997738Y-101589816D01*
X122150478Y-101685789D01*
X122320745Y-101745368D01*
X122320750Y-101745369D01*
X122499996Y-101765565D01*
X122500000Y-101765565D01*
X122500004Y-101765565D01*
X122679249Y-101745369D01*
X122679252Y-101745368D01*
X122679255Y-101745368D01*
X122849522Y-101685789D01*
X123002262Y-101589816D01*
X123129816Y-101462262D01*
X123225789Y-101309522D01*
X123285368Y-101139255D01*
X123285369Y-101139249D01*
X123305565Y-100960003D01*
X123305565Y-100959996D01*
X123286411Y-100789996D01*
X144684435Y-100789996D01*
X144684435Y-100790003D01*
X144704630Y-100969249D01*
X144704631Y-100969254D01*
X144764211Y-101139523D01*
X144860184Y-101292262D01*
X144987738Y-101419816D01*
X145140478Y-101515789D01*
X145310745Y-101575368D01*
X145310750Y-101575369D01*
X145489996Y-101595565D01*
X145490000Y-101595565D01*
X145490004Y-101595565D01*
X145669249Y-101575369D01*
X145669252Y-101575368D01*
X145669255Y-101575368D01*
X145839522Y-101515789D01*
X145992262Y-101419816D01*
X146119816Y-101292262D01*
X146215789Y-101139522D01*
X146275368Y-100969255D01*
X146275369Y-100969249D01*
X146295565Y-100790003D01*
X146295565Y-100789996D01*
X146275369Y-100610750D01*
X146275368Y-100610745D01*
X146275274Y-100610476D01*
X146215789Y-100440478D01*
X146119816Y-100287738D01*
X145992262Y-100160184D01*
X145902695Y-100103905D01*
X145839523Y-100064211D01*
X145669254Y-100004631D01*
X145669249Y-100004630D01*
X145490004Y-99984435D01*
X145489996Y-99984435D01*
X145310750Y-100004630D01*
X145310745Y-100004631D01*
X145140476Y-100064211D01*
X144987737Y-100160184D01*
X144860184Y-100287737D01*
X144764211Y-100440476D01*
X144704631Y-100610745D01*
X144704630Y-100610750D01*
X144684435Y-100789996D01*
X123286411Y-100789996D01*
X123285369Y-100780750D01*
X123285368Y-100780745D01*
X123225788Y-100610476D01*
X123129815Y-100457737D01*
X123002262Y-100330184D01*
X122849523Y-100234211D01*
X122679254Y-100174631D01*
X122679249Y-100174630D01*
X122500004Y-100154435D01*
X122499996Y-100154435D01*
X122320750Y-100174630D01*
X122320745Y-100174631D01*
X122150476Y-100234211D01*
X121997737Y-100330184D01*
X121870184Y-100457737D01*
X121774211Y-100610476D01*
X121714631Y-100780745D01*
X121714630Y-100780750D01*
X121694435Y-100959996D01*
X118275500Y-100959996D01*
X118275500Y-96582135D01*
X126469500Y-96582135D01*
X126469500Y-98277870D01*
X126469501Y-98277876D01*
X126475908Y-98337483D01*
X126526202Y-98472328D01*
X126526206Y-98472335D01*
X126612452Y-98587544D01*
X126612455Y-98587547D01*
X126727664Y-98673793D01*
X126727671Y-98673797D01*
X126862517Y-98724091D01*
X126862516Y-98724091D01*
X126869444Y-98724835D01*
X126922127Y-98730500D01*
X128617872Y-98730499D01*
X128677483Y-98724091D01*
X128812331Y-98673796D01*
X128927546Y-98587546D01*
X129013796Y-98472331D01*
X129064091Y-98337483D01*
X129067862Y-98302401D01*
X129094599Y-98237855D01*
X129151990Y-98198006D01*
X129221816Y-98195511D01*
X129281905Y-98231163D01*
X129292726Y-98244536D01*
X129309956Y-98269143D01*
X129470858Y-98430045D01*
X129470861Y-98430047D01*
X129657266Y-98560568D01*
X129863504Y-98656739D01*
X130083308Y-98715635D01*
X130245230Y-98729801D01*
X130309998Y-98735468D01*
X130310000Y-98735468D01*
X130310002Y-98735468D01*
X130366807Y-98730498D01*
X130536692Y-98715635D01*
X130756496Y-98656739D01*
X130962734Y-98560568D01*
X131149139Y-98430047D01*
X131310047Y-98269139D01*
X131440568Y-98082734D01*
X131467618Y-98024724D01*
X131513790Y-97972285D01*
X131580983Y-97953133D01*
X131647865Y-97973348D01*
X131692382Y-98024725D01*
X131719429Y-98082728D01*
X131719432Y-98082734D01*
X131849954Y-98269141D01*
X132010858Y-98430045D01*
X132010861Y-98430047D01*
X132197266Y-98560568D01*
X132403504Y-98656739D01*
X132623308Y-98715635D01*
X132785230Y-98729801D01*
X132849998Y-98735468D01*
X132850000Y-98735468D01*
X132850002Y-98735468D01*
X132906807Y-98730498D01*
X133076692Y-98715635D01*
X133296496Y-98656739D01*
X133502734Y-98560568D01*
X133689139Y-98430047D01*
X133850047Y-98269139D01*
X133980568Y-98082734D01*
X134007618Y-98024724D01*
X134053790Y-97972285D01*
X134120983Y-97953133D01*
X134187865Y-97973348D01*
X134232382Y-98024725D01*
X134259429Y-98082728D01*
X134259432Y-98082734D01*
X134389954Y-98269141D01*
X134550858Y-98430045D01*
X134550861Y-98430047D01*
X134737266Y-98560568D01*
X134943504Y-98656739D01*
X135163308Y-98715635D01*
X135325230Y-98729801D01*
X135389998Y-98735468D01*
X135390000Y-98735468D01*
X135390002Y-98735468D01*
X135446807Y-98730498D01*
X135616692Y-98715635D01*
X135836496Y-98656739D01*
X136042734Y-98560568D01*
X136229139Y-98430047D01*
X136390047Y-98269139D01*
X136520568Y-98082734D01*
X136616739Y-97876496D01*
X136675635Y-97656692D01*
X136695468Y-97430000D01*
X136675635Y-97203308D01*
X136616739Y-96983504D01*
X136520568Y-96777266D01*
X136390047Y-96590861D01*
X136390045Y-96590858D01*
X136229141Y-96429954D01*
X136042734Y-96299432D01*
X136042732Y-96299431D01*
X136022505Y-96289999D01*
X137894341Y-96289999D01*
X137894341Y-96290000D01*
X137914936Y-96525403D01*
X137914938Y-96525413D01*
X137976094Y-96753655D01*
X137976096Y-96753659D01*
X137976097Y-96753663D01*
X138038110Y-96886650D01*
X138075965Y-96967830D01*
X138075967Y-96967834D01*
X138211501Y-97161395D01*
X138211506Y-97161402D01*
X138378597Y-97328493D01*
X138378603Y-97328498D01*
X138564158Y-97458425D01*
X138607783Y-97513002D01*
X138614977Y-97582500D01*
X138583454Y-97644855D01*
X138564158Y-97661575D01*
X138378597Y-97791505D01*
X138211505Y-97958597D01*
X138075965Y-98152169D01*
X138075964Y-98152171D01*
X137976098Y-98366335D01*
X137976094Y-98366344D01*
X137914938Y-98594586D01*
X137914936Y-98594596D01*
X137894341Y-98829999D01*
X137894341Y-98830000D01*
X137914936Y-99065403D01*
X137914938Y-99065413D01*
X137976094Y-99293655D01*
X137976096Y-99293659D01*
X137976097Y-99293663D01*
X138075965Y-99507830D01*
X138075967Y-99507834D01*
X138184281Y-99662521D01*
X138211505Y-99701401D01*
X138378599Y-99868495D01*
X138475384Y-99936265D01*
X138572165Y-100004032D01*
X138572167Y-100004033D01*
X138572170Y-100004035D01*
X138786337Y-100103903D01*
X139014592Y-100165063D01*
X139202918Y-100181539D01*
X139249999Y-100185659D01*
X139250000Y-100185659D01*
X139250001Y-100185659D01*
X139289234Y-100182226D01*
X139485408Y-100165063D01*
X139713663Y-100103903D01*
X139927830Y-100004035D01*
X140121401Y-99868495D01*
X140288495Y-99701401D01*
X140424035Y-99507830D01*
X140523903Y-99293663D01*
X140585063Y-99065408D01*
X140605659Y-98830000D01*
X140585063Y-98594592D01*
X140523903Y-98366337D01*
X140424035Y-98152171D01*
X140375414Y-98082732D01*
X140288494Y-97958597D01*
X140121402Y-97791506D01*
X140121396Y-97791501D01*
X139935842Y-97661575D01*
X139892217Y-97606998D01*
X139885023Y-97537500D01*
X139916546Y-97475145D01*
X139935842Y-97458425D01*
X139958026Y-97442891D01*
X140121401Y-97328495D01*
X140288495Y-97161401D01*
X140424035Y-96967830D01*
X140523903Y-96753663D01*
X140585063Y-96525408D01*
X140605659Y-96290000D01*
X140585063Y-96054592D01*
X140523903Y-95826337D01*
X140424035Y-95612171D01*
X140288495Y-95418599D01*
X140166567Y-95296671D01*
X140133084Y-95235351D01*
X140138068Y-95165659D01*
X140179939Y-95109725D01*
X140210915Y-95092810D01*
X140342331Y-95043796D01*
X140457546Y-94957546D01*
X140543796Y-94842331D01*
X140594091Y-94707483D01*
X140600500Y-94647873D01*
X140600499Y-93079996D01*
X142564435Y-93079996D01*
X142564435Y-93080003D01*
X142584630Y-93259249D01*
X142584631Y-93259254D01*
X142644211Y-93429523D01*
X142732011Y-93569255D01*
X142740184Y-93582262D01*
X142867738Y-93709816D01*
X143020478Y-93805789D01*
X143190745Y-93865368D01*
X143190750Y-93865369D01*
X143369996Y-93885565D01*
X143370000Y-93885565D01*
X143370004Y-93885565D01*
X143549249Y-93865369D01*
X143549252Y-93865368D01*
X143549255Y-93865368D01*
X143719522Y-93805789D01*
X143872262Y-93709816D01*
X143999816Y-93582262D01*
X144095789Y-93429522D01*
X144155368Y-93259255D01*
X144160834Y-93210745D01*
X144175565Y-93080003D01*
X144175565Y-93079996D01*
X144155369Y-92900750D01*
X144155368Y-92900745D01*
X144138359Y-92852135D01*
X144095789Y-92730478D01*
X144091428Y-92723538D01*
X144043258Y-92646876D01*
X143999816Y-92577738D01*
X143872262Y-92450184D01*
X143801799Y-92405909D01*
X143719523Y-92354211D01*
X143650321Y-92329996D01*
X145384435Y-92329996D01*
X145384435Y-92330003D01*
X145404630Y-92509249D01*
X145404631Y-92509254D01*
X145464211Y-92679523D01*
X145537435Y-92796057D01*
X145560184Y-92832262D01*
X145687738Y-92959816D01*
X145778080Y-93016582D01*
X145816110Y-93040478D01*
X145840478Y-93055789D01*
X145909678Y-93080003D01*
X146010745Y-93115368D01*
X146010750Y-93115369D01*
X146189996Y-93135565D01*
X146190000Y-93135565D01*
X146190004Y-93135565D01*
X146369249Y-93115369D01*
X146369252Y-93115368D01*
X146369255Y-93115368D01*
X146539522Y-93055789D01*
X146692262Y-92959816D01*
X146819816Y-92832262D01*
X146915789Y-92679522D01*
X146975368Y-92509255D01*
X146981345Y-92456206D01*
X146995565Y-92330003D01*
X146995565Y-92329996D01*
X146975369Y-92150750D01*
X146975368Y-92150745D01*
X146945605Y-92065688D01*
X146915789Y-91980478D01*
X146819816Y-91827738D01*
X146692262Y-91700184D01*
X146539523Y-91604211D01*
X146369254Y-91544631D01*
X146369249Y-91544630D01*
X146190004Y-91524435D01*
X146189996Y-91524435D01*
X146010750Y-91544630D01*
X146010745Y-91544631D01*
X145840476Y-91604211D01*
X145687737Y-91700184D01*
X145560184Y-91827737D01*
X145464211Y-91980476D01*
X145404631Y-92150745D01*
X145404630Y-92150750D01*
X145384435Y-92329996D01*
X143650321Y-92329996D01*
X143549254Y-92294631D01*
X143549249Y-92294630D01*
X143370004Y-92274435D01*
X143369996Y-92274435D01*
X143190750Y-92294630D01*
X143190745Y-92294631D01*
X143020476Y-92354211D01*
X142867737Y-92450184D01*
X142740184Y-92577737D01*
X142644211Y-92730476D01*
X142584631Y-92900745D01*
X142584630Y-92900750D01*
X142564435Y-93079996D01*
X140600499Y-93079996D01*
X140600499Y-92852128D01*
X140594091Y-92792517D01*
X140570951Y-92730476D01*
X140543797Y-92657671D01*
X140543793Y-92657664D01*
X140457547Y-92542455D01*
X140457544Y-92542452D01*
X140342335Y-92456206D01*
X140342328Y-92456202D01*
X140207482Y-92405908D01*
X140207483Y-92405908D01*
X140147883Y-92399501D01*
X140147881Y-92399500D01*
X140147873Y-92399500D01*
X140147864Y-92399500D01*
X138352129Y-92399500D01*
X138352123Y-92399501D01*
X138292516Y-92405908D01*
X138157671Y-92456202D01*
X138157664Y-92456206D01*
X138042455Y-92542452D01*
X138042452Y-92542455D01*
X137956206Y-92657664D01*
X137956202Y-92657671D01*
X137905908Y-92792517D01*
X137899501Y-92852116D01*
X137899501Y-92852123D01*
X137899500Y-92852135D01*
X137899500Y-94647870D01*
X137899501Y-94647876D01*
X137905908Y-94707483D01*
X137956202Y-94842328D01*
X137956206Y-94842335D01*
X138042452Y-94957544D01*
X138042455Y-94957547D01*
X138157664Y-95043793D01*
X138157671Y-95043797D01*
X138289081Y-95092810D01*
X138345015Y-95134681D01*
X138369432Y-95200145D01*
X138354580Y-95268418D01*
X138333430Y-95296673D01*
X138211503Y-95418600D01*
X138075965Y-95612169D01*
X138075964Y-95612171D01*
X137976098Y-95826335D01*
X137976094Y-95826344D01*
X137914938Y-96054586D01*
X137914936Y-96054596D01*
X137894341Y-96289999D01*
X136022505Y-96289999D01*
X135836497Y-96203261D01*
X135836488Y-96203258D01*
X135616697Y-96144366D01*
X135616693Y-96144365D01*
X135616692Y-96144365D01*
X135616691Y-96144364D01*
X135616686Y-96144364D01*
X135390002Y-96124532D01*
X135389998Y-96124532D01*
X135163313Y-96144364D01*
X135163302Y-96144366D01*
X134943511Y-96203258D01*
X134943502Y-96203261D01*
X134737267Y-96299431D01*
X134737265Y-96299432D01*
X134550858Y-96429954D01*
X134389954Y-96590858D01*
X134259432Y-96777265D01*
X134259431Y-96777267D01*
X134232382Y-96835275D01*
X134186209Y-96887714D01*
X134119016Y-96906866D01*
X134052135Y-96886650D01*
X134007618Y-96835275D01*
X133980568Y-96777267D01*
X133980567Y-96777265D01*
X133964035Y-96753655D01*
X133850047Y-96590861D01*
X133850045Y-96590858D01*
X133689141Y-96429954D01*
X133502734Y-96299432D01*
X133502732Y-96299431D01*
X133296497Y-96203261D01*
X133296488Y-96203258D01*
X133076697Y-96144366D01*
X133076693Y-96144365D01*
X133076692Y-96144365D01*
X133076691Y-96144364D01*
X133076686Y-96144364D01*
X132850002Y-96124532D01*
X132849998Y-96124532D01*
X132623313Y-96144364D01*
X132623302Y-96144366D01*
X132403511Y-96203258D01*
X132403502Y-96203261D01*
X132197267Y-96299431D01*
X132197265Y-96299432D01*
X132010858Y-96429954D01*
X131849954Y-96590858D01*
X131719432Y-96777265D01*
X131719431Y-96777267D01*
X131692382Y-96835275D01*
X131646209Y-96887714D01*
X131579016Y-96906866D01*
X131512135Y-96886650D01*
X131467618Y-96835275D01*
X131440568Y-96777267D01*
X131440567Y-96777265D01*
X131424035Y-96753655D01*
X131310047Y-96590861D01*
X131310045Y-96590858D01*
X131149141Y-96429954D01*
X130962734Y-96299432D01*
X130962732Y-96299431D01*
X130756497Y-96203261D01*
X130756488Y-96203258D01*
X130536697Y-96144366D01*
X130536693Y-96144365D01*
X130536692Y-96144365D01*
X130536691Y-96144364D01*
X130536686Y-96144364D01*
X130310002Y-96124532D01*
X130309998Y-96124532D01*
X130083313Y-96144364D01*
X130083302Y-96144366D01*
X129863511Y-96203258D01*
X129863502Y-96203261D01*
X129657267Y-96299431D01*
X129657265Y-96299432D01*
X129470858Y-96429954D01*
X129309954Y-96590858D01*
X129292725Y-96615464D01*
X129238147Y-96659088D01*
X129168648Y-96666280D01*
X129106294Y-96634757D01*
X129070882Y-96574526D01*
X129067861Y-96557591D01*
X129064091Y-96522516D01*
X129013797Y-96387671D01*
X129013793Y-96387664D01*
X128927547Y-96272455D01*
X128927544Y-96272452D01*
X128812335Y-96186206D01*
X128812328Y-96186202D01*
X128677482Y-96135908D01*
X128677483Y-96135908D01*
X128617883Y-96129501D01*
X128617881Y-96129500D01*
X128617873Y-96129500D01*
X128617864Y-96129500D01*
X126922129Y-96129500D01*
X126922123Y-96129501D01*
X126862516Y-96135908D01*
X126727671Y-96186202D01*
X126727664Y-96186206D01*
X126612455Y-96272452D01*
X126612452Y-96272455D01*
X126526206Y-96387664D01*
X126526202Y-96387671D01*
X126475908Y-96522517D01*
X126469501Y-96582116D01*
X126469500Y-96582135D01*
X118275500Y-96582135D01*
X118275500Y-93389996D01*
X119704435Y-93389996D01*
X119704435Y-93390003D01*
X119724630Y-93569249D01*
X119724631Y-93569254D01*
X119784211Y-93739523D01*
X119825849Y-93805789D01*
X119880184Y-93892262D01*
X120007738Y-94019816D01*
X120160478Y-94115789D01*
X120330745Y-94175368D01*
X120330750Y-94175369D01*
X120509996Y-94195565D01*
X120510000Y-94195565D01*
X120510004Y-94195565D01*
X120689249Y-94175369D01*
X120689252Y-94175368D01*
X120689255Y-94175368D01*
X120859522Y-94115789D01*
X121012262Y-94019816D01*
X121139816Y-93892262D01*
X121235789Y-93739522D01*
X121295368Y-93569255D01*
X121315565Y-93390000D01*
X121295368Y-93210745D01*
X121235789Y-93040478D01*
X121166451Y-92930128D01*
X121147452Y-92862893D01*
X121167820Y-92796057D01*
X121221087Y-92750843D01*
X121290344Y-92741605D01*
X121327738Y-92753671D01*
X121464314Y-92823260D01*
X121673220Y-92891138D01*
X121890172Y-92925500D01*
X121890173Y-92925500D01*
X122109827Y-92925500D01*
X122109828Y-92925500D01*
X122326780Y-92891138D01*
X122535686Y-92823260D01*
X122731401Y-92723538D01*
X122836918Y-92646876D01*
X122909101Y-92594433D01*
X122909103Y-92594430D01*
X122909107Y-92594428D01*
X123064428Y-92439107D01*
X123064430Y-92439103D01*
X123064433Y-92439101D01*
X123169395Y-92294631D01*
X123193538Y-92261401D01*
X123293260Y-92065686D01*
X123361138Y-91856780D01*
X123395500Y-91639828D01*
X123395500Y-91420172D01*
X123361138Y-91203220D01*
X123293260Y-90994314D01*
X123193538Y-90798599D01*
X123185242Y-90787181D01*
X123064433Y-90620898D01*
X122909101Y-90465566D01*
X122731404Y-90336464D01*
X122731403Y-90336463D01*
X122731401Y-90336462D01*
X122535686Y-90236740D01*
X122326780Y-90168862D01*
X122326778Y-90168861D01*
X122326777Y-90168861D01*
X122160120Y-90142465D01*
X122109828Y-90134500D01*
X121890172Y-90134500D01*
X121839879Y-90142465D01*
X121673223Y-90168861D01*
X121464311Y-90236741D01*
X121268595Y-90336464D01*
X121090898Y-90465566D01*
X120935566Y-90620898D01*
X120806464Y-90798595D01*
X120706741Y-90994311D01*
X120638861Y-91203223D01*
X120604500Y-91420172D01*
X120604500Y-91639828D01*
X120638862Y-91856780D01*
X120706740Y-92065686D01*
X120750082Y-92150750D01*
X120806464Y-92261404D01*
X120935566Y-92439101D01*
X120938618Y-92442153D01*
X120972103Y-92503476D01*
X120967119Y-92573168D01*
X120925247Y-92629101D01*
X120859783Y-92653518D01*
X120809983Y-92646876D01*
X120689257Y-92604632D01*
X120689249Y-92604630D01*
X120510004Y-92584435D01*
X120509996Y-92584435D01*
X120330750Y-92604630D01*
X120330745Y-92604631D01*
X120160476Y-92664211D01*
X120007737Y-92760184D01*
X119880184Y-92887737D01*
X119784211Y-93040476D01*
X119724631Y-93210745D01*
X119724630Y-93210750D01*
X119704435Y-93389996D01*
X118275500Y-93389996D01*
X118275500Y-89809998D01*
X126464532Y-89809998D01*
X126464532Y-89810001D01*
X126484364Y-90036686D01*
X126484366Y-90036697D01*
X126543258Y-90256488D01*
X126543261Y-90256497D01*
X126639431Y-90462732D01*
X126639432Y-90462734D01*
X126769954Y-90649141D01*
X126930858Y-90810045D01*
X126930861Y-90810047D01*
X127117266Y-90940568D01*
X127323504Y-91036739D01*
X127543308Y-91095635D01*
X127705230Y-91109801D01*
X127769998Y-91115468D01*
X127770000Y-91115468D01*
X127770002Y-91115468D01*
X127826673Y-91110509D01*
X127996692Y-91095635D01*
X128216496Y-91036739D01*
X128422734Y-90940568D01*
X128609139Y-90810047D01*
X128770047Y-90649139D01*
X128900568Y-90462734D01*
X128927618Y-90404724D01*
X128973790Y-90352285D01*
X129040983Y-90333133D01*
X129107865Y-90353348D01*
X129152382Y-90404725D01*
X129179429Y-90462728D01*
X129179432Y-90462734D01*
X129309954Y-90649141D01*
X129470858Y-90810045D01*
X129470861Y-90810047D01*
X129657266Y-90940568D01*
X129863504Y-91036739D01*
X130083308Y-91095635D01*
X130245230Y-91109801D01*
X130309998Y-91115468D01*
X130310000Y-91115468D01*
X130310002Y-91115468D01*
X130366673Y-91110509D01*
X130536692Y-91095635D01*
X130756496Y-91036739D01*
X130962734Y-90940568D01*
X131149139Y-90810047D01*
X131310047Y-90649139D01*
X131440568Y-90462734D01*
X131467618Y-90404724D01*
X131513790Y-90352285D01*
X131580983Y-90333133D01*
X131647865Y-90353348D01*
X131692382Y-90404725D01*
X131719429Y-90462728D01*
X131719432Y-90462734D01*
X131849954Y-90649141D01*
X132010858Y-90810045D01*
X132010861Y-90810047D01*
X132197266Y-90940568D01*
X132403504Y-91036739D01*
X132623308Y-91095635D01*
X132785230Y-91109801D01*
X132849998Y-91115468D01*
X132850000Y-91115468D01*
X132850002Y-91115468D01*
X132906673Y-91110509D01*
X133076692Y-91095635D01*
X133296496Y-91036739D01*
X133502734Y-90940568D01*
X133689139Y-90810047D01*
X133850047Y-90649139D01*
X133980568Y-90462734D01*
X134007618Y-90404724D01*
X134053790Y-90352285D01*
X134120983Y-90333133D01*
X134187865Y-90353348D01*
X134232382Y-90404725D01*
X134259429Y-90462728D01*
X134259432Y-90462734D01*
X134389954Y-90649141D01*
X134550858Y-90810045D01*
X134550861Y-90810047D01*
X134737266Y-90940568D01*
X134943504Y-91036739D01*
X135163308Y-91095635D01*
X135325230Y-91109801D01*
X135389998Y-91115468D01*
X135390000Y-91115468D01*
X135390002Y-91115468D01*
X135446673Y-91110509D01*
X135616692Y-91095635D01*
X135836496Y-91036739D01*
X136042734Y-90940568D01*
X136229139Y-90810047D01*
X136390047Y-90649139D01*
X136520568Y-90462734D01*
X136616739Y-90256496D01*
X136675635Y-90036692D01*
X136687594Y-89899996D01*
X139994435Y-89899996D01*
X139994435Y-89900003D01*
X140014630Y-90079249D01*
X140014631Y-90079254D01*
X140074211Y-90249523D01*
X140126747Y-90333133D01*
X140170184Y-90402262D01*
X140297738Y-90529816D01*
X140450478Y-90625789D01*
X140620745Y-90685368D01*
X140620750Y-90685369D01*
X140799996Y-90705565D01*
X140800000Y-90705565D01*
X140800004Y-90705565D01*
X140979249Y-90685369D01*
X140979252Y-90685368D01*
X140979255Y-90685368D01*
X141149522Y-90625789D01*
X141302262Y-90529816D01*
X141429816Y-90402262D01*
X141525789Y-90249522D01*
X141585368Y-90079255D01*
X141590164Y-90036692D01*
X141605565Y-89900003D01*
X141605565Y-89899996D01*
X141585369Y-89720750D01*
X141585368Y-89720745D01*
X141537278Y-89583313D01*
X141525789Y-89550478D01*
X141429816Y-89397738D01*
X141302262Y-89270184D01*
X141214875Y-89215275D01*
X141149523Y-89174211D01*
X140979254Y-89114631D01*
X140979249Y-89114630D01*
X140800004Y-89094435D01*
X140799996Y-89094435D01*
X140620750Y-89114630D01*
X140620745Y-89114631D01*
X140450476Y-89174211D01*
X140297737Y-89270184D01*
X140170184Y-89397737D01*
X140074211Y-89550476D01*
X140014631Y-89720745D01*
X140014630Y-89720750D01*
X139994435Y-89899996D01*
X136687594Y-89899996D01*
X136695468Y-89810000D01*
X136675635Y-89583308D01*
X136616739Y-89363504D01*
X136520568Y-89157266D01*
X136390047Y-88970861D01*
X136390045Y-88970858D01*
X136229141Y-88809954D01*
X136042734Y-88679432D01*
X136042732Y-88679431D01*
X135836497Y-88583261D01*
X135836488Y-88583258D01*
X135616697Y-88524366D01*
X135616693Y-88524365D01*
X135616692Y-88524365D01*
X135616691Y-88524364D01*
X135616686Y-88524364D01*
X135390002Y-88504532D01*
X135389998Y-88504532D01*
X135163313Y-88524364D01*
X135163302Y-88524366D01*
X134943511Y-88583258D01*
X134943502Y-88583261D01*
X134737267Y-88679431D01*
X134737265Y-88679432D01*
X134550858Y-88809954D01*
X134389954Y-88970858D01*
X134259432Y-89157265D01*
X134259431Y-89157267D01*
X134232382Y-89215275D01*
X134186209Y-89267714D01*
X134119016Y-89286866D01*
X134052135Y-89266650D01*
X134007618Y-89215275D01*
X133980568Y-89157266D01*
X133850047Y-88970861D01*
X133850045Y-88970858D01*
X133689141Y-88809954D01*
X133502734Y-88679432D01*
X133502732Y-88679431D01*
X133296497Y-88583261D01*
X133296488Y-88583258D01*
X133076697Y-88524366D01*
X133076693Y-88524365D01*
X133076692Y-88524365D01*
X133076691Y-88524364D01*
X133076686Y-88524364D01*
X132850002Y-88504532D01*
X132849998Y-88504532D01*
X132623313Y-88524364D01*
X132623302Y-88524366D01*
X132403511Y-88583258D01*
X132403502Y-88583261D01*
X132197267Y-88679431D01*
X132197265Y-88679432D01*
X132010858Y-88809954D01*
X131849954Y-88970858D01*
X131719432Y-89157265D01*
X131719431Y-89157267D01*
X131692382Y-89215275D01*
X131646209Y-89267714D01*
X131579016Y-89286866D01*
X131512135Y-89266650D01*
X131467618Y-89215275D01*
X131440568Y-89157266D01*
X131310047Y-88970861D01*
X131310045Y-88970858D01*
X131149141Y-88809954D01*
X130962734Y-88679432D01*
X130962732Y-88679431D01*
X130756497Y-88583261D01*
X130756488Y-88583258D01*
X130536697Y-88524366D01*
X130536693Y-88524365D01*
X130536692Y-88524365D01*
X130536691Y-88524364D01*
X130536686Y-88524364D01*
X130310002Y-88504532D01*
X130309998Y-88504532D01*
X130083313Y-88524364D01*
X130083302Y-88524366D01*
X129863511Y-88583258D01*
X129863502Y-88583261D01*
X129657267Y-88679431D01*
X129657265Y-88679432D01*
X129470858Y-88809954D01*
X129309954Y-88970858D01*
X129179432Y-89157265D01*
X129179431Y-89157267D01*
X129152382Y-89215275D01*
X129106209Y-89267714D01*
X129039016Y-89286866D01*
X128972135Y-89266650D01*
X128927618Y-89215275D01*
X128900568Y-89157266D01*
X128770047Y-88970861D01*
X128770045Y-88970858D01*
X128609141Y-88809954D01*
X128422734Y-88679432D01*
X128422732Y-88679431D01*
X128216497Y-88583261D01*
X128216488Y-88583258D01*
X127996697Y-88524366D01*
X127996693Y-88524365D01*
X127996692Y-88524365D01*
X127996691Y-88524364D01*
X127996686Y-88524364D01*
X127770002Y-88504532D01*
X127769998Y-88504532D01*
X127543313Y-88524364D01*
X127543302Y-88524366D01*
X127323511Y-88583258D01*
X127323502Y-88583261D01*
X127117267Y-88679431D01*
X127117265Y-88679432D01*
X126930858Y-88809954D01*
X126769954Y-88970858D01*
X126639432Y-89157265D01*
X126639431Y-89157267D01*
X126543261Y-89363502D01*
X126543258Y-89363511D01*
X126484366Y-89583302D01*
X126484364Y-89583313D01*
X126464532Y-89809998D01*
X118275500Y-89809998D01*
X118275500Y-85979999D01*
X118899341Y-85979999D01*
X118899341Y-85980000D01*
X118919936Y-86215403D01*
X118919938Y-86215413D01*
X118981094Y-86443655D01*
X118981096Y-86443659D01*
X118981097Y-86443663D01*
X119064155Y-86621781D01*
X119080965Y-86657830D01*
X119080967Y-86657834D01*
X119189281Y-86812521D01*
X119216505Y-86851401D01*
X119383599Y-87018495D01*
X119480384Y-87086265D01*
X119577165Y-87154032D01*
X119577167Y-87154033D01*
X119577170Y-87154035D01*
X119791337Y-87253903D01*
X120019592Y-87315063D01*
X120196034Y-87330500D01*
X120254999Y-87335659D01*
X120255000Y-87335659D01*
X120255001Y-87335659D01*
X120313966Y-87330500D01*
X120490408Y-87315063D01*
X120718663Y-87253903D01*
X120932830Y-87154035D01*
X121126401Y-87018495D01*
X121293495Y-86851401D01*
X121423730Y-86665405D01*
X121478307Y-86621781D01*
X121547805Y-86614587D01*
X121610160Y-86646110D01*
X121626879Y-86665405D01*
X121756890Y-86851078D01*
X121923917Y-87018105D01*
X122117421Y-87153600D01*
X122331507Y-87253429D01*
X122331516Y-87253433D01*
X122545000Y-87310634D01*
X122545000Y-86413012D01*
X122602007Y-86445925D01*
X122729174Y-86480000D01*
X122860826Y-86480000D01*
X122987993Y-86445925D01*
X123045000Y-86413012D01*
X123045000Y-87310633D01*
X123258483Y-87253433D01*
X123258492Y-87253429D01*
X123472578Y-87153600D01*
X123666078Y-87018108D01*
X123788133Y-86896053D01*
X123849456Y-86862568D01*
X123919148Y-86867552D01*
X123975082Y-86909423D01*
X123991997Y-86940401D01*
X124041202Y-87072328D01*
X124041206Y-87072335D01*
X124127452Y-87187544D01*
X124127455Y-87187547D01*
X124242664Y-87273793D01*
X124242671Y-87273797D01*
X124377517Y-87324091D01*
X124377516Y-87324091D01*
X124384444Y-87324835D01*
X124437127Y-87330500D01*
X126232872Y-87330499D01*
X126292483Y-87324091D01*
X126427331Y-87273796D01*
X126542546Y-87187546D01*
X126628796Y-87072331D01*
X126679091Y-86937483D01*
X126685500Y-86877873D01*
X126685499Y-85839996D01*
X136004435Y-85839996D01*
X136004435Y-85840003D01*
X136024630Y-86019249D01*
X136024631Y-86019254D01*
X136084211Y-86189523D01*
X136100473Y-86215403D01*
X136180184Y-86342262D01*
X136307738Y-86469816D01*
X136460478Y-86565789D01*
X136599935Y-86614587D01*
X136630745Y-86625368D01*
X136630750Y-86625369D01*
X136809996Y-86645565D01*
X136810000Y-86645565D01*
X136810004Y-86645565D01*
X136989249Y-86625369D01*
X136989252Y-86625368D01*
X136989255Y-86625368D01*
X137159522Y-86565789D01*
X137312262Y-86469816D01*
X137439816Y-86342262D01*
X137535789Y-86189522D01*
X137595368Y-86019255D01*
X137615565Y-85840000D01*
X137609594Y-85787007D01*
X137595369Y-85660750D01*
X137595368Y-85660745D01*
X137535788Y-85490476D01*
X137439815Y-85337737D01*
X137312262Y-85210184D01*
X137159523Y-85114211D01*
X136989254Y-85054631D01*
X136989249Y-85054630D01*
X136810004Y-85034435D01*
X136809996Y-85034435D01*
X136630750Y-85054630D01*
X136630745Y-85054631D01*
X136460476Y-85114211D01*
X136307737Y-85210184D01*
X136180184Y-85337737D01*
X136084211Y-85490476D01*
X136024631Y-85660745D01*
X136024630Y-85660750D01*
X136004435Y-85839996D01*
X126685499Y-85839996D01*
X126685499Y-85082128D01*
X126679091Y-85022517D01*
X126678002Y-85019598D01*
X126628797Y-84887671D01*
X126628793Y-84887664D01*
X126542547Y-84772455D01*
X126542544Y-84772452D01*
X126427335Y-84686206D01*
X126427328Y-84686202D01*
X126292482Y-84635908D01*
X126292483Y-84635908D01*
X126232883Y-84629501D01*
X126232881Y-84629500D01*
X126232873Y-84629500D01*
X126232864Y-84629500D01*
X124437129Y-84629500D01*
X124437123Y-84629501D01*
X124377516Y-84635908D01*
X124242671Y-84686202D01*
X124242664Y-84686206D01*
X124127455Y-84772452D01*
X124127452Y-84772455D01*
X124041206Y-84887664D01*
X124041202Y-84887671D01*
X123991997Y-85019598D01*
X123950126Y-85075532D01*
X123884661Y-85099949D01*
X123816388Y-85085097D01*
X123788134Y-85063946D01*
X123666082Y-84941894D01*
X123472578Y-84806399D01*
X123258492Y-84706570D01*
X123258486Y-84706567D01*
X123045000Y-84649364D01*
X123045000Y-85546988D01*
X122987993Y-85514075D01*
X122860826Y-85480000D01*
X122729174Y-85480000D01*
X122602007Y-85514075D01*
X122545000Y-85546988D01*
X122545000Y-84649364D01*
X122544999Y-84649364D01*
X122331513Y-84706567D01*
X122331507Y-84706570D01*
X122117422Y-84806399D01*
X122117420Y-84806400D01*
X121923926Y-84941886D01*
X121923920Y-84941891D01*
X121756891Y-85108920D01*
X121756890Y-85108922D01*
X121626880Y-85294595D01*
X121572303Y-85338219D01*
X121502804Y-85345412D01*
X121440450Y-85313890D01*
X121423730Y-85294594D01*
X121293494Y-85108597D01*
X121126402Y-84941506D01*
X121126395Y-84941501D01*
X120932834Y-84805967D01*
X120932830Y-84805965D01*
X120932828Y-84805964D01*
X120718663Y-84706097D01*
X120718659Y-84706096D01*
X120718655Y-84706094D01*
X120490413Y-84644938D01*
X120490403Y-84644936D01*
X120255001Y-84624341D01*
X120254999Y-84624341D01*
X120019596Y-84644936D01*
X120019586Y-84644938D01*
X119791344Y-84706094D01*
X119791335Y-84706098D01*
X119577171Y-84805964D01*
X119577169Y-84805965D01*
X119383597Y-84941505D01*
X119216505Y-85108597D01*
X119080965Y-85302169D01*
X119080964Y-85302171D01*
X118981098Y-85516335D01*
X118981094Y-85516344D01*
X118919938Y-85744586D01*
X118919936Y-85744596D01*
X118899341Y-85979999D01*
X118275500Y-85979999D01*
X118275500Y-77940172D01*
X142954500Y-77940172D01*
X142954500Y-78159827D01*
X142988861Y-78376776D01*
X143056741Y-78585688D01*
X143156464Y-78781404D01*
X143285566Y-78959101D01*
X143440898Y-79114433D01*
X143607181Y-79235242D01*
X143618599Y-79243538D01*
X143814314Y-79343260D01*
X144023220Y-79411138D01*
X144240172Y-79445500D01*
X144240173Y-79445500D01*
X144459827Y-79445500D01*
X144459828Y-79445500D01*
X144676780Y-79411138D01*
X144885686Y-79343260D01*
X145081401Y-79243538D01*
X145181174Y-79171049D01*
X145259101Y-79114433D01*
X145259103Y-79114430D01*
X145259107Y-79114428D01*
X145414428Y-78959107D01*
X145414430Y-78959103D01*
X145414433Y-78959101D01*
X145471049Y-78881174D01*
X145543538Y-78781401D01*
X145643260Y-78585686D01*
X145711138Y-78376780D01*
X145745500Y-78159828D01*
X145745500Y-77940172D01*
X145711138Y-77723220D01*
X145643260Y-77514314D01*
X145543538Y-77318599D01*
X145515360Y-77279815D01*
X145414433Y-77140898D01*
X145259101Y-76985566D01*
X145081404Y-76856464D01*
X145081403Y-76856463D01*
X145081401Y-76856462D01*
X144885686Y-76756740D01*
X144676780Y-76688862D01*
X144676778Y-76688861D01*
X144676777Y-76688861D01*
X144510120Y-76662465D01*
X144459828Y-76654500D01*
X144240172Y-76654500D01*
X144189879Y-76662465D01*
X144023223Y-76688861D01*
X143814311Y-76756741D01*
X143618595Y-76856464D01*
X143440898Y-76985566D01*
X143285566Y-77140898D01*
X143156464Y-77318595D01*
X143056741Y-77514311D01*
X142988861Y-77723223D01*
X142954500Y-77940172D01*
X118275500Y-77940172D01*
X118275500Y-76649996D01*
X140994435Y-76649996D01*
X140994435Y-76650003D01*
X141014630Y-76829249D01*
X141014631Y-76829254D01*
X141074211Y-76999523D01*
X141170184Y-77152262D01*
X141297738Y-77279816D01*
X141450478Y-77375789D01*
X141620745Y-77435368D01*
X141620750Y-77435369D01*
X141799996Y-77455565D01*
X141800000Y-77455565D01*
X141800004Y-77455565D01*
X141979249Y-77435369D01*
X141979252Y-77435368D01*
X141979255Y-77435368D01*
X142149522Y-77375789D01*
X142302262Y-77279816D01*
X142429816Y-77152262D01*
X142525789Y-76999522D01*
X142585368Y-76829255D01*
X142585369Y-76829249D01*
X142605565Y-76650003D01*
X142605565Y-76649996D01*
X142585369Y-76470750D01*
X142585368Y-76470745D01*
X142525788Y-76300476D01*
X142429815Y-76147737D01*
X142302262Y-76020184D01*
X142149523Y-75924211D01*
X141979254Y-75864631D01*
X141979249Y-75864630D01*
X141800004Y-75844435D01*
X141799996Y-75844435D01*
X141620750Y-75864630D01*
X141620745Y-75864631D01*
X141450476Y-75924211D01*
X141297737Y-76020184D01*
X141170184Y-76147737D01*
X141074211Y-76300476D01*
X141014631Y-76470745D01*
X141014630Y-76470750D01*
X140994435Y-76649996D01*
X118275500Y-76649996D01*
X118275500Y-71982135D01*
X139519500Y-71982135D01*
X139519500Y-73777870D01*
X139519501Y-73777876D01*
X139525908Y-73837483D01*
X139576202Y-73972328D01*
X139576206Y-73972335D01*
X139662452Y-74087544D01*
X139662455Y-74087547D01*
X139777664Y-74173793D01*
X139777671Y-74173797D01*
X139912517Y-74224091D01*
X139912516Y-74224091D01*
X139919444Y-74224835D01*
X139972127Y-74230500D01*
X141767872Y-74230499D01*
X141827483Y-74224091D01*
X141962331Y-74173796D01*
X142077546Y-74087546D01*
X142163796Y-73972331D01*
X142212810Y-73840916D01*
X142254681Y-73784984D01*
X142320145Y-73760566D01*
X142388418Y-73775417D01*
X142416673Y-73796569D01*
X142538599Y-73918495D01*
X142635384Y-73986265D01*
X142732165Y-74054032D01*
X142732167Y-74054033D01*
X142732170Y-74054035D01*
X142946337Y-74153903D01*
X143174592Y-74215063D01*
X143351034Y-74230500D01*
X143409999Y-74235659D01*
X143410000Y-74235659D01*
X143410001Y-74235659D01*
X143468966Y-74230500D01*
X143645408Y-74215063D01*
X143873663Y-74153903D01*
X144087830Y-74054035D01*
X144281401Y-73918495D01*
X144448495Y-73751401D01*
X144578425Y-73565842D01*
X144633002Y-73522217D01*
X144702500Y-73515023D01*
X144764855Y-73546546D01*
X144781575Y-73565842D01*
X144911500Y-73751395D01*
X144911505Y-73751401D01*
X145078599Y-73918495D01*
X145175384Y-73986265D01*
X145272165Y-74054032D01*
X145272167Y-74054033D01*
X145272170Y-74054035D01*
X145486337Y-74153903D01*
X145714592Y-74215063D01*
X145891034Y-74230500D01*
X145949999Y-74235659D01*
X145950000Y-74235659D01*
X145950001Y-74235659D01*
X146008966Y-74230500D01*
X146185408Y-74215063D01*
X146413663Y-74153903D01*
X146627830Y-74054035D01*
X146821401Y-73918495D01*
X146988495Y-73751401D01*
X147124035Y-73557830D01*
X147223903Y-73343663D01*
X147285063Y-73115408D01*
X147305659Y-72880000D01*
X147285063Y-72644592D01*
X147223903Y-72416337D01*
X147124035Y-72202171D01*
X147118425Y-72194158D01*
X146988494Y-72008597D01*
X146821402Y-71841506D01*
X146821395Y-71841501D01*
X146627834Y-71705967D01*
X146627830Y-71705965D01*
X146627828Y-71705964D01*
X146413663Y-71606097D01*
X146413659Y-71606096D01*
X146413655Y-71606094D01*
X146185413Y-71544938D01*
X146185403Y-71544936D01*
X145950001Y-71524341D01*
X145949999Y-71524341D01*
X145714596Y-71544936D01*
X145714586Y-71544938D01*
X145486344Y-71606094D01*
X145486335Y-71606098D01*
X145272171Y-71705964D01*
X145272169Y-71705965D01*
X145078597Y-71841505D01*
X144911505Y-72008597D01*
X144781575Y-72194158D01*
X144726998Y-72237783D01*
X144657500Y-72244977D01*
X144595145Y-72213454D01*
X144578425Y-72194158D01*
X144448494Y-72008597D01*
X144281402Y-71841506D01*
X144281395Y-71841501D01*
X144087834Y-71705967D01*
X144087830Y-71705965D01*
X144087828Y-71705964D01*
X143873663Y-71606097D01*
X143873659Y-71606096D01*
X143873655Y-71606094D01*
X143645413Y-71544938D01*
X143645403Y-71544936D01*
X143410001Y-71524341D01*
X143409999Y-71524341D01*
X143174596Y-71544936D01*
X143174586Y-71544938D01*
X142946344Y-71606094D01*
X142946335Y-71606098D01*
X142732171Y-71705964D01*
X142732169Y-71705965D01*
X142538600Y-71841503D01*
X142416673Y-71963430D01*
X142355350Y-71996914D01*
X142285658Y-71991930D01*
X142229725Y-71950058D01*
X142212810Y-71919081D01*
X142163797Y-71787671D01*
X142163793Y-71787664D01*
X142077547Y-71672455D01*
X142077544Y-71672452D01*
X141962335Y-71586206D01*
X141962328Y-71586202D01*
X141827482Y-71535908D01*
X141827483Y-71535908D01*
X141767883Y-71529501D01*
X141767881Y-71529500D01*
X141767873Y-71529500D01*
X141767864Y-71529500D01*
X139972129Y-71529500D01*
X139972123Y-71529501D01*
X139912516Y-71535908D01*
X139777671Y-71586202D01*
X139777664Y-71586206D01*
X139662455Y-71672452D01*
X139662452Y-71672455D01*
X139576206Y-71787664D01*
X139576202Y-71787671D01*
X139525908Y-71922517D01*
X139519501Y-71982116D01*
X139519500Y-71982135D01*
X118275500Y-71982135D01*
X118275500Y-69099996D01*
X118634435Y-69099996D01*
X118634435Y-69100003D01*
X118654630Y-69279249D01*
X118654631Y-69279254D01*
X118714211Y-69449523D01*
X118768416Y-69535789D01*
X118810184Y-69602262D01*
X118937738Y-69729816D01*
X119090478Y-69825789D01*
X119260745Y-69885368D01*
X119260750Y-69885369D01*
X119439996Y-69905565D01*
X119440000Y-69905565D01*
X119440004Y-69905565D01*
X119619249Y-69885369D01*
X119619252Y-69885368D01*
X119619255Y-69885368D01*
X119789522Y-69825789D01*
X119942262Y-69729816D01*
X120069816Y-69602262D01*
X120165789Y-69449522D01*
X120195752Y-69363891D01*
X120236474Y-69307116D01*
X120301426Y-69281368D01*
X120369988Y-69294824D01*
X120417787Y-69338873D01*
X120470184Y-69422262D01*
X120597738Y-69549816D01*
X120750478Y-69645789D01*
X120920745Y-69705368D01*
X120920750Y-69705369D01*
X121099996Y-69725565D01*
X121100000Y-69725565D01*
X121100004Y-69725565D01*
X121279249Y-69705369D01*
X121279252Y-69705368D01*
X121279255Y-69705368D01*
X121449522Y-69645789D01*
X121602262Y-69549816D01*
X121729816Y-69422262D01*
X121825789Y-69269522D01*
X121885368Y-69099255D01*
X121897763Y-68989249D01*
X121905565Y-68920003D01*
X121905565Y-68919996D01*
X121893171Y-68809996D01*
X123214435Y-68809996D01*
X123214435Y-68810003D01*
X123234630Y-68989249D01*
X123234631Y-68989254D01*
X123294211Y-69159523D01*
X123369444Y-69279254D01*
X123390184Y-69312262D01*
X123517738Y-69439816D01*
X123670478Y-69535789D01*
X123840745Y-69595368D01*
X123840750Y-69595369D01*
X124019996Y-69615565D01*
X124020000Y-69615565D01*
X124020004Y-69615565D01*
X124199249Y-69595369D01*
X124199252Y-69595368D01*
X124199255Y-69595368D01*
X124369522Y-69535789D01*
X124522262Y-69439816D01*
X124649816Y-69312262D01*
X124745789Y-69159522D01*
X124805368Y-68989255D01*
X124825565Y-68810000D01*
X124818858Y-68750476D01*
X124805369Y-68630750D01*
X124805368Y-68630745D01*
X124745788Y-68460476D01*
X124691584Y-68374211D01*
X124649816Y-68307738D01*
X124522262Y-68180184D01*
X124369523Y-68084211D01*
X124199254Y-68024631D01*
X124199249Y-68024630D01*
X124020004Y-68004435D01*
X124019996Y-68004435D01*
X123840750Y-68024630D01*
X123840745Y-68024631D01*
X123670476Y-68084211D01*
X123517737Y-68180184D01*
X123390184Y-68307737D01*
X123294211Y-68460476D01*
X123234631Y-68630745D01*
X123234630Y-68630750D01*
X123214435Y-68809996D01*
X121893171Y-68809996D01*
X121885369Y-68740750D01*
X121885368Y-68740745D01*
X121846877Y-68630745D01*
X121825789Y-68570478D01*
X121729816Y-68417738D01*
X121602262Y-68290184D01*
X121449523Y-68194211D01*
X121279254Y-68134631D01*
X121279249Y-68134630D01*
X121100004Y-68114435D01*
X121099996Y-68114435D01*
X120920750Y-68134630D01*
X120920745Y-68134631D01*
X120750476Y-68194211D01*
X120597737Y-68290184D01*
X120470184Y-68417737D01*
X120374208Y-68570480D01*
X120344246Y-68656108D01*
X120303524Y-68712884D01*
X120238571Y-68738631D01*
X120170010Y-68725174D01*
X120122212Y-68681126D01*
X120069816Y-68597738D01*
X119942262Y-68470184D01*
X119858795Y-68417738D01*
X119789523Y-68374211D01*
X119619254Y-68314631D01*
X119619249Y-68314630D01*
X119440004Y-68294435D01*
X119439996Y-68294435D01*
X119260750Y-68314630D01*
X119260745Y-68314631D01*
X119090476Y-68374211D01*
X118937737Y-68470184D01*
X118810184Y-68597737D01*
X118714211Y-68750476D01*
X118654631Y-68920745D01*
X118654630Y-68920750D01*
X118634435Y-69099996D01*
X118275500Y-69099996D01*
X118275500Y-66349996D01*
X135914435Y-66349996D01*
X135914435Y-66350003D01*
X135934630Y-66529249D01*
X135934631Y-66529254D01*
X135994211Y-66699523D01*
X136043357Y-66777738D01*
X136090184Y-66852262D01*
X136217738Y-66979816D01*
X136370478Y-67075789D01*
X136540742Y-67135367D01*
X136540745Y-67135368D01*
X136540750Y-67135369D01*
X136719996Y-67155565D01*
X136720000Y-67155565D01*
X136720004Y-67155565D01*
X136899249Y-67135369D01*
X136899252Y-67135368D01*
X136899255Y-67135368D01*
X136899256Y-67135367D01*
X136899259Y-67135367D01*
X136933299Y-67123455D01*
X136953959Y-67116225D01*
X137023738Y-67112663D01*
X137084365Y-67147391D01*
X137116593Y-67209384D01*
X137118136Y-67247148D01*
X137114436Y-67279996D01*
X137114435Y-67280001D01*
X137114435Y-67280003D01*
X137134630Y-67459249D01*
X137134631Y-67459254D01*
X137194211Y-67629523D01*
X137290184Y-67782262D01*
X137417738Y-67909816D01*
X137570478Y-68005789D01*
X137740745Y-68065368D01*
X137740750Y-68065369D01*
X137919996Y-68085565D01*
X137920000Y-68085565D01*
X137920004Y-68085565D01*
X138099249Y-68065369D01*
X138099252Y-68065368D01*
X138099255Y-68065368D01*
X138269522Y-68005789D01*
X138422262Y-67909816D01*
X138549816Y-67782262D01*
X138645789Y-67629522D01*
X138705368Y-67459255D01*
X138725565Y-67280000D01*
X138709269Y-67135369D01*
X138705369Y-67100750D01*
X138705368Y-67100745D01*
X138645789Y-66930478D01*
X138549816Y-66777738D01*
X138422262Y-66650184D01*
X138269523Y-66554211D01*
X138099254Y-66494631D01*
X138099249Y-66494630D01*
X137920004Y-66474435D01*
X137919996Y-66474435D01*
X137740750Y-66494630D01*
X137740742Y-66494632D01*
X137686038Y-66513774D01*
X137616259Y-66517335D01*
X137555632Y-66482606D01*
X137523405Y-66420612D01*
X137521864Y-66382848D01*
X137525565Y-66350002D01*
X137525565Y-66349996D01*
X137505369Y-66170750D01*
X137505368Y-66170745D01*
X137445788Y-66000476D01*
X137395936Y-65921138D01*
X137349816Y-65847738D01*
X137222262Y-65720184D01*
X137069523Y-65624211D01*
X136899254Y-65564631D01*
X136899249Y-65564630D01*
X136720004Y-65544435D01*
X136719996Y-65544435D01*
X136540750Y-65564630D01*
X136540745Y-65564631D01*
X136370476Y-65624211D01*
X136217737Y-65720184D01*
X136090184Y-65847737D01*
X135994211Y-66000476D01*
X135934631Y-66170745D01*
X135934630Y-66170750D01*
X135914435Y-66349996D01*
X118275500Y-66349996D01*
X118275500Y-64450172D01*
X120604500Y-64450172D01*
X120604500Y-64669827D01*
X120638861Y-64886776D01*
X120706741Y-65095688D01*
X120806464Y-65291404D01*
X120935566Y-65469101D01*
X121090898Y-65624433D01*
X121257181Y-65745242D01*
X121268599Y-65753538D01*
X121464314Y-65853260D01*
X121673220Y-65921138D01*
X121890172Y-65955500D01*
X121890173Y-65955500D01*
X122109827Y-65955500D01*
X122109828Y-65955500D01*
X122326780Y-65921138D01*
X122535686Y-65853260D01*
X122731401Y-65753538D01*
X122831174Y-65681049D01*
X122909101Y-65624433D01*
X122909103Y-65624430D01*
X122909107Y-65624428D01*
X123064428Y-65469107D01*
X123064430Y-65469103D01*
X123064433Y-65469101D01*
X123129302Y-65379815D01*
X123193538Y-65291401D01*
X123293260Y-65095686D01*
X123361138Y-64886780D01*
X123382803Y-64749996D01*
X124494435Y-64749996D01*
X124494435Y-64750003D01*
X124514630Y-64929249D01*
X124514631Y-64929254D01*
X124574211Y-65099523D01*
X124670184Y-65252262D01*
X124797738Y-65379816D01*
X124888080Y-65436582D01*
X124939843Y-65469107D01*
X124950478Y-65475789D01*
X125120745Y-65535368D01*
X125120750Y-65535369D01*
X125299996Y-65555565D01*
X125300000Y-65555565D01*
X125300004Y-65555565D01*
X125479249Y-65535369D01*
X125479252Y-65535368D01*
X125479255Y-65535368D01*
X125649522Y-65475789D01*
X125802262Y-65379816D01*
X125929816Y-65252262D01*
X126025789Y-65099522D01*
X126085368Y-64929255D01*
X126090154Y-64886780D01*
X126105565Y-64750003D01*
X126105565Y-64749996D01*
X126085369Y-64570750D01*
X126085368Y-64570745D01*
X126025789Y-64400478D01*
X125929816Y-64247738D01*
X125802262Y-64120184D01*
X125738017Y-64079816D01*
X125649523Y-64024211D01*
X125479254Y-63964631D01*
X125479249Y-63964630D01*
X125300004Y-63944435D01*
X125299996Y-63944435D01*
X125120750Y-63964630D01*
X125120745Y-63964631D01*
X124950476Y-64024211D01*
X124797737Y-64120184D01*
X124670184Y-64247737D01*
X124574211Y-64400476D01*
X124514631Y-64570745D01*
X124514630Y-64570750D01*
X124494435Y-64749996D01*
X123382803Y-64749996D01*
X123395500Y-64669828D01*
X123395500Y-64450172D01*
X123361138Y-64233220D01*
X123293260Y-64024314D01*
X123193538Y-63828599D01*
X123172413Y-63799523D01*
X123064433Y-63650898D01*
X122909101Y-63495566D01*
X122846378Y-63449996D01*
X134734435Y-63449996D01*
X134734435Y-63450003D01*
X134754630Y-63629249D01*
X134754631Y-63629254D01*
X134814211Y-63799523D01*
X134832481Y-63828599D01*
X134910184Y-63952262D01*
X135037738Y-64079816D01*
X135190478Y-64175789D01*
X135354606Y-64233220D01*
X135360745Y-64235368D01*
X135360750Y-64235369D01*
X135539996Y-64255565D01*
X135540000Y-64255565D01*
X135540004Y-64255565D01*
X135719249Y-64235369D01*
X135719252Y-64235368D01*
X135719255Y-64235368D01*
X135889522Y-64175789D01*
X136042262Y-64079816D01*
X136169816Y-63952262D01*
X136265789Y-63799522D01*
X136325368Y-63629255D01*
X136325369Y-63629249D01*
X136345565Y-63450003D01*
X136345565Y-63449996D01*
X136325369Y-63270750D01*
X136325368Y-63270745D01*
X136305938Y-63215218D01*
X136265789Y-63100478D01*
X136169816Y-62947738D01*
X136042262Y-62820184D01*
X135988228Y-62786232D01*
X135889523Y-62724211D01*
X135719254Y-62664631D01*
X135719249Y-62664630D01*
X135540004Y-62644435D01*
X135539996Y-62644435D01*
X135360750Y-62664630D01*
X135360745Y-62664631D01*
X135190476Y-62724211D01*
X135037737Y-62820184D01*
X134910184Y-62947737D01*
X134814211Y-63100476D01*
X134754631Y-63270745D01*
X134754630Y-63270750D01*
X134734435Y-63449996D01*
X122846378Y-63449996D01*
X122731404Y-63366464D01*
X122731403Y-63366463D01*
X122731401Y-63366462D01*
X122535686Y-63266740D01*
X122326780Y-63198862D01*
X122326778Y-63198861D01*
X122326777Y-63198861D01*
X122160120Y-63172465D01*
X122109828Y-63164500D01*
X121890172Y-63164500D01*
X121839879Y-63172465D01*
X121673223Y-63198861D01*
X121464311Y-63266741D01*
X121268595Y-63366464D01*
X121090898Y-63495566D01*
X120935566Y-63650898D01*
X120806464Y-63828595D01*
X120706741Y-64024311D01*
X120638861Y-64233223D01*
X120604500Y-64450172D01*
X118275500Y-64450172D01*
X118275500Y-63001922D01*
X118295185Y-62934883D01*
X118347989Y-62889128D01*
X118417147Y-62879184D01*
X118480703Y-62908209D01*
X118487181Y-62914241D01*
X118513767Y-62940827D01*
X118513773Y-62940832D01*
X118692858Y-63066229D01*
X118692860Y-63066230D01*
X118692863Y-63066232D01*
X118891013Y-63158631D01*
X119102198Y-63215218D01*
X119257770Y-63228828D01*
X119319998Y-63234273D01*
X119320000Y-63234273D01*
X119320002Y-63234273D01*
X119374450Y-63229509D01*
X119537802Y-63215218D01*
X119748987Y-63158631D01*
X119947137Y-63066232D01*
X120126231Y-62940829D01*
X120280829Y-62786231D01*
X120406232Y-62607137D01*
X120498631Y-62408987D01*
X120555218Y-62197802D01*
X120574273Y-61980000D01*
X120574273Y-61979998D01*
X122565727Y-61979998D01*
X122565727Y-61980001D01*
X122584781Y-62197796D01*
X122584783Y-62197807D01*
X122641366Y-62408979D01*
X122641368Y-62408983D01*
X122641369Y-62408987D01*
X122699680Y-62534035D01*
X122733768Y-62607137D01*
X122733770Y-62607141D01*
X122859167Y-62786226D01*
X122859172Y-62786232D01*
X123013767Y-62940827D01*
X123013773Y-62940832D01*
X123192858Y-63066229D01*
X123192860Y-63066230D01*
X123192863Y-63066232D01*
X123391013Y-63158631D01*
X123602198Y-63215218D01*
X123757770Y-63228828D01*
X123819998Y-63234273D01*
X123820000Y-63234273D01*
X123820002Y-63234273D01*
X123874450Y-63229509D01*
X124037802Y-63215218D01*
X124248987Y-63158631D01*
X124447137Y-63066232D01*
X124626231Y-62940829D01*
X124780829Y-62786231D01*
X124906232Y-62607137D01*
X124998631Y-62408987D01*
X125055218Y-62197802D01*
X125074273Y-61980000D01*
X125055218Y-61762198D01*
X124998631Y-61551013D01*
X124906232Y-61352864D01*
X124780829Y-61173769D01*
X124626231Y-61019171D01*
X124626227Y-61019168D01*
X124626226Y-61019167D01*
X124447141Y-60893770D01*
X124447137Y-60893768D01*
X124434697Y-60887967D01*
X124248987Y-60801369D01*
X124248983Y-60801368D01*
X124248979Y-60801366D01*
X124037807Y-60744783D01*
X124037803Y-60744782D01*
X124037802Y-60744782D01*
X124037801Y-60744781D01*
X124037796Y-60744781D01*
X123820002Y-60725727D01*
X123819998Y-60725727D01*
X123602203Y-60744781D01*
X123602192Y-60744783D01*
X123391020Y-60801366D01*
X123391011Y-60801370D01*
X123192866Y-60893766D01*
X123013766Y-61019172D01*
X122859172Y-61173766D01*
X122733766Y-61352866D01*
X122641370Y-61551011D01*
X122641366Y-61551020D01*
X122584783Y-61762192D01*
X122584781Y-61762203D01*
X122565727Y-61979998D01*
X120574273Y-61979998D01*
X120555218Y-61762198D01*
X120498631Y-61551013D01*
X120406232Y-61352864D01*
X120280829Y-61173769D01*
X120126231Y-61019171D01*
X120126227Y-61019168D01*
X120126226Y-61019167D01*
X119947141Y-60893770D01*
X119947137Y-60893768D01*
X119934697Y-60887967D01*
X119748987Y-60801369D01*
X119748983Y-60801368D01*
X119748979Y-60801366D01*
X119537807Y-60744783D01*
X119537803Y-60744782D01*
X119537802Y-60744782D01*
X119537801Y-60744781D01*
X119537796Y-60744781D01*
X119320002Y-60725727D01*
X119319998Y-60725727D01*
X119102203Y-60744781D01*
X119102192Y-60744783D01*
X118891020Y-60801366D01*
X118891011Y-60801370D01*
X118692866Y-60893766D01*
X118513766Y-61019172D01*
X118487181Y-61045758D01*
X118425858Y-61079243D01*
X118356166Y-61074259D01*
X118300233Y-61032387D01*
X118275816Y-60966923D01*
X118275500Y-60958077D01*
X118275500Y-59918798D01*
X135763237Y-59918798D01*
X135763237Y-59918805D01*
X135783432Y-60098051D01*
X135783433Y-60098056D01*
X135843013Y-60268325D01*
X135876429Y-60321506D01*
X135938986Y-60421064D01*
X136066540Y-60548618D01*
X136219280Y-60644591D01*
X136389547Y-60704170D01*
X136389552Y-60704171D01*
X136568798Y-60724367D01*
X136568802Y-60724367D01*
X136568806Y-60724367D01*
X136748051Y-60704171D01*
X136748054Y-60704170D01*
X136748057Y-60704170D01*
X136918324Y-60644591D01*
X137071064Y-60548618D01*
X137198618Y-60421064D01*
X137294591Y-60268324D01*
X137354170Y-60098057D01*
X137364639Y-60005145D01*
X137374367Y-59918805D01*
X137374367Y-59918798D01*
X137354171Y-59739552D01*
X137354170Y-59739547D01*
X137294590Y-59569278D01*
X137198617Y-59416539D01*
X137071064Y-59288986D01*
X136918325Y-59193013D01*
X136748056Y-59133433D01*
X136748051Y-59133432D01*
X136568806Y-59113237D01*
X136568798Y-59113237D01*
X136389552Y-59133432D01*
X136389547Y-59133433D01*
X136219278Y-59193013D01*
X136066539Y-59288986D01*
X135938986Y-59416539D01*
X135843013Y-59569278D01*
X135783433Y-59739547D01*
X135783432Y-59739552D01*
X135763237Y-59918798D01*
X118275500Y-59918798D01*
X118275500Y-57869996D01*
X126674435Y-57869996D01*
X126674435Y-57870003D01*
X126694630Y-58049249D01*
X126694631Y-58049254D01*
X126754211Y-58219523D01*
X126834918Y-58347967D01*
X126850184Y-58372262D01*
X126977738Y-58499816D01*
X127068080Y-58556582D01*
X127112648Y-58584586D01*
X127130478Y-58595789D01*
X127300745Y-58655368D01*
X127300750Y-58655369D01*
X127479996Y-58675565D01*
X127480000Y-58675565D01*
X127480004Y-58675565D01*
X127659249Y-58655369D01*
X127659252Y-58655368D01*
X127659255Y-58655368D01*
X127829522Y-58595789D01*
X127982262Y-58499816D01*
X128109816Y-58372262D01*
X128205789Y-58219522D01*
X128265368Y-58049255D01*
X128276709Y-57948599D01*
X128285565Y-57870003D01*
X128285565Y-57869996D01*
X128265369Y-57690750D01*
X128265368Y-57690745D01*
X128245811Y-57634855D01*
X128205789Y-57520478D01*
X128109816Y-57367738D01*
X127982262Y-57240184D01*
X127829523Y-57144211D01*
X127659254Y-57084631D01*
X127659249Y-57084630D01*
X127480004Y-57064435D01*
X127479996Y-57064435D01*
X127300750Y-57084630D01*
X127300745Y-57084631D01*
X127130476Y-57144211D01*
X126977737Y-57240184D01*
X126850184Y-57367737D01*
X126754211Y-57520476D01*
X126694631Y-57690745D01*
X126694630Y-57690750D01*
X126674435Y-57869996D01*
X118275500Y-57869996D01*
X118275500Y-56501922D01*
X118295185Y-56434883D01*
X118347989Y-56389128D01*
X118417147Y-56379184D01*
X118480703Y-56408209D01*
X118487181Y-56414241D01*
X118513767Y-56440827D01*
X118513773Y-56440832D01*
X118692858Y-56566229D01*
X118692860Y-56566230D01*
X118692863Y-56566232D01*
X118891013Y-56658631D01*
X119102198Y-56715218D01*
X119257770Y-56728828D01*
X119319998Y-56734273D01*
X119320000Y-56734273D01*
X119320002Y-56734273D01*
X119374579Y-56729498D01*
X119537802Y-56715218D01*
X119748987Y-56658631D01*
X119947137Y-56566232D01*
X120126231Y-56440829D01*
X120280829Y-56286231D01*
X120406232Y-56107137D01*
X120498631Y-55908987D01*
X120555218Y-55697802D01*
X120574273Y-55480000D01*
X120555218Y-55262198D01*
X120498631Y-55051013D01*
X120406232Y-54852864D01*
X120287387Y-54683135D01*
X122570500Y-54683135D01*
X122570500Y-56276870D01*
X122570501Y-56276876D01*
X122576908Y-56336483D01*
X122627202Y-56471328D01*
X122627206Y-56471335D01*
X122713452Y-56586544D01*
X122713455Y-56586547D01*
X122828664Y-56672793D01*
X122828671Y-56672797D01*
X122963517Y-56723091D01*
X122963516Y-56723091D01*
X122970444Y-56723835D01*
X123023127Y-56729500D01*
X124616872Y-56729499D01*
X124676483Y-56723091D01*
X124811331Y-56672796D01*
X124926546Y-56586546D01*
X125012796Y-56471331D01*
X125063091Y-56336483D01*
X125069164Y-56279999D01*
X137924341Y-56279999D01*
X137924341Y-56280000D01*
X137944936Y-56515403D01*
X137944938Y-56515413D01*
X138006094Y-56743655D01*
X138006096Y-56743659D01*
X138006097Y-56743663D01*
X138010000Y-56752032D01*
X138105965Y-56957830D01*
X138105967Y-56957834D01*
X138194751Y-57084630D01*
X138241501Y-57151396D01*
X138241506Y-57151402D01*
X138408597Y-57318493D01*
X138408603Y-57318498D01*
X138594158Y-57448425D01*
X138637783Y-57503002D01*
X138644977Y-57572500D01*
X138613454Y-57634855D01*
X138594158Y-57651575D01*
X138408597Y-57781505D01*
X138241505Y-57948597D01*
X138105965Y-58142169D01*
X138105964Y-58142171D01*
X138006098Y-58356335D01*
X138006094Y-58356344D01*
X137944938Y-58584586D01*
X137944936Y-58584596D01*
X137924341Y-58819999D01*
X137924341Y-58820000D01*
X137944936Y-59055403D01*
X137944938Y-59055413D01*
X138006094Y-59283655D01*
X138006096Y-59283659D01*
X138006097Y-59283663D01*
X138010000Y-59292032D01*
X138105965Y-59497830D01*
X138105967Y-59497834D01*
X138214281Y-59652521D01*
X138241501Y-59691396D01*
X138241506Y-59691402D01*
X138408597Y-59858493D01*
X138408603Y-59858498D01*
X138594158Y-59988425D01*
X138637783Y-60043002D01*
X138644977Y-60112500D01*
X138613454Y-60174855D01*
X138594158Y-60191575D01*
X138408597Y-60321505D01*
X138241505Y-60488597D01*
X138105965Y-60682169D01*
X138105964Y-60682171D01*
X138006098Y-60896335D01*
X138006094Y-60896344D01*
X137944938Y-61124586D01*
X137944936Y-61124596D01*
X137924341Y-61359999D01*
X137924341Y-61360000D01*
X137944936Y-61595403D01*
X137944938Y-61595413D01*
X138006094Y-61823655D01*
X138006096Y-61823659D01*
X138006097Y-61823663D01*
X138078998Y-61980000D01*
X138105965Y-62037830D01*
X138105967Y-62037834D01*
X138214281Y-62192521D01*
X138241505Y-62231401D01*
X138408599Y-62398495D01*
X138423585Y-62408988D01*
X138602165Y-62534032D01*
X138602167Y-62534033D01*
X138602170Y-62534035D01*
X138816337Y-62633903D01*
X139044592Y-62695063D01*
X139232918Y-62711539D01*
X139279999Y-62715659D01*
X139280000Y-62715659D01*
X139280001Y-62715659D01*
X139319234Y-62712226D01*
X139515408Y-62695063D01*
X139743663Y-62633903D01*
X139957830Y-62534035D01*
X140151401Y-62398495D01*
X140318495Y-62231401D01*
X140448425Y-62045842D01*
X140503002Y-62002217D01*
X140572500Y-61995023D01*
X140634855Y-62026546D01*
X140651575Y-62045842D01*
X140781500Y-62231395D01*
X140781505Y-62231401D01*
X140948599Y-62398495D01*
X140963585Y-62408988D01*
X141142165Y-62534032D01*
X141142167Y-62534033D01*
X141142170Y-62534035D01*
X141356337Y-62633903D01*
X141584592Y-62695063D01*
X141772918Y-62711539D01*
X141819999Y-62715659D01*
X141820000Y-62715659D01*
X141820001Y-62715659D01*
X141859234Y-62712226D01*
X142055408Y-62695063D01*
X142283663Y-62633903D01*
X142497830Y-62534035D01*
X142691401Y-62398495D01*
X142858495Y-62231401D01*
X142994035Y-62037830D01*
X143093903Y-61823663D01*
X143155063Y-61595408D01*
X143175659Y-61360000D01*
X143155063Y-61124592D01*
X143093903Y-60896337D01*
X142994035Y-60682171D01*
X142988425Y-60674158D01*
X142858494Y-60488597D01*
X142691402Y-60321506D01*
X142691396Y-60321501D01*
X142505842Y-60191575D01*
X142462217Y-60136998D01*
X142455023Y-60067500D01*
X142486546Y-60005145D01*
X142505842Y-59988425D01*
X142605269Y-59918805D01*
X142691401Y-59858495D01*
X142858495Y-59691401D01*
X142994035Y-59497830D01*
X143093903Y-59283663D01*
X143155063Y-59055408D01*
X143175659Y-58820000D01*
X143155063Y-58584592D01*
X143093903Y-58356337D01*
X142994035Y-58142171D01*
X142988425Y-58134158D01*
X142858494Y-57948597D01*
X142691402Y-57781506D01*
X142691396Y-57781501D01*
X142505842Y-57651575D01*
X142462217Y-57596998D01*
X142455023Y-57527500D01*
X142486546Y-57465145D01*
X142505842Y-57448425D01*
X142528026Y-57432891D01*
X142691401Y-57318495D01*
X142858495Y-57151401D01*
X142994035Y-56957830D01*
X143093903Y-56743663D01*
X143155063Y-56515408D01*
X143175659Y-56280000D01*
X143155063Y-56044592D01*
X143093903Y-55816337D01*
X142994035Y-55602171D01*
X142988425Y-55594158D01*
X142858494Y-55408597D01*
X142691402Y-55241506D01*
X142691401Y-55241505D01*
X142505405Y-55111269D01*
X142461781Y-55056692D01*
X142454588Y-54987193D01*
X142486110Y-54924839D01*
X142505405Y-54908119D01*
X142581373Y-54854925D01*
X141949409Y-54222962D01*
X142012993Y-54205925D01*
X142127007Y-54140099D01*
X142220099Y-54047007D01*
X142285925Y-53932993D01*
X142302962Y-53869410D01*
X142934925Y-54501373D01*
X142934926Y-54501373D01*
X142993598Y-54417582D01*
X142993600Y-54417578D01*
X143093429Y-54203492D01*
X143093433Y-54203483D01*
X143154567Y-53975326D01*
X143154569Y-53975315D01*
X143175157Y-53740001D01*
X143175157Y-53739998D01*
X143154569Y-53504684D01*
X143154567Y-53504673D01*
X143093433Y-53276516D01*
X143093429Y-53276507D01*
X142993600Y-53062423D01*
X142993599Y-53062421D01*
X142934925Y-52978626D01*
X142934925Y-52978625D01*
X142302962Y-53610589D01*
X142285925Y-53547007D01*
X142220099Y-53432993D01*
X142127007Y-53339901D01*
X142012993Y-53274075D01*
X141949410Y-53257037D01*
X142581373Y-52625073D01*
X142581373Y-52625072D01*
X142497583Y-52566402D01*
X142497579Y-52566400D01*
X142283492Y-52466570D01*
X142283483Y-52466566D01*
X142055326Y-52405432D01*
X142055315Y-52405430D01*
X141820002Y-52384843D01*
X141819998Y-52384843D01*
X141584684Y-52405430D01*
X141584673Y-52405432D01*
X141356516Y-52466566D01*
X141356507Y-52466570D01*
X141142419Y-52566401D01*
X141058625Y-52625072D01*
X141690590Y-53257037D01*
X141627007Y-53274075D01*
X141512993Y-53339901D01*
X141419901Y-53432993D01*
X141354075Y-53547007D01*
X141337037Y-53610589D01*
X140666818Y-52940370D01*
X140633333Y-52879047D01*
X140630499Y-52852689D01*
X140630499Y-52842129D01*
X140630498Y-52842123D01*
X140630497Y-52842116D01*
X140624091Y-52782517D01*
X140589584Y-52690000D01*
X140573797Y-52647671D01*
X140573793Y-52647664D01*
X140487547Y-52532455D01*
X140487544Y-52532452D01*
X140372335Y-52446206D01*
X140372328Y-52446202D01*
X140237482Y-52395908D01*
X140237483Y-52395908D01*
X140177883Y-52389501D01*
X140177881Y-52389500D01*
X140177873Y-52389500D01*
X140177864Y-52389500D01*
X138382129Y-52389500D01*
X138382123Y-52389501D01*
X138322516Y-52395908D01*
X138187671Y-52446202D01*
X138187664Y-52446206D01*
X138072455Y-52532452D01*
X138072452Y-52532455D01*
X137986206Y-52647664D01*
X137986202Y-52647671D01*
X137935908Y-52782517D01*
X137931339Y-52825023D01*
X137929501Y-52842123D01*
X137929500Y-52842135D01*
X137929500Y-54637870D01*
X137929501Y-54637876D01*
X137935908Y-54697483D01*
X137986202Y-54832328D01*
X137986206Y-54832335D01*
X138072452Y-54947544D01*
X138072455Y-54947547D01*
X138187664Y-55033793D01*
X138187671Y-55033797D01*
X138319081Y-55082810D01*
X138375015Y-55124681D01*
X138399432Y-55190145D01*
X138384580Y-55258418D01*
X138363430Y-55286673D01*
X138241503Y-55408600D01*
X138105965Y-55602169D01*
X138105964Y-55602171D01*
X138006098Y-55816335D01*
X138006094Y-55816344D01*
X137944938Y-56044586D01*
X137944936Y-56044596D01*
X137924341Y-56279999D01*
X125069164Y-56279999D01*
X125069500Y-56276873D01*
X125069499Y-54683128D01*
X125063091Y-54623517D01*
X125031802Y-54539628D01*
X125012797Y-54488671D01*
X125012793Y-54488664D01*
X124926547Y-54373455D01*
X124926544Y-54373452D01*
X124811335Y-54287206D01*
X124811328Y-54287202D01*
X124676482Y-54236908D01*
X124676483Y-54236908D01*
X124616883Y-54230501D01*
X124616881Y-54230500D01*
X124616873Y-54230500D01*
X124616864Y-54230500D01*
X123023129Y-54230500D01*
X123023123Y-54230501D01*
X122963516Y-54236908D01*
X122828671Y-54287202D01*
X122828664Y-54287206D01*
X122713455Y-54373452D01*
X122713452Y-54373455D01*
X122627206Y-54488664D01*
X122627202Y-54488671D01*
X122576908Y-54623517D01*
X122571506Y-54673769D01*
X122570501Y-54683123D01*
X122570500Y-54683135D01*
X120287387Y-54683135D01*
X120280829Y-54673769D01*
X120126231Y-54519171D01*
X120126227Y-54519168D01*
X120126226Y-54519167D01*
X119947141Y-54393770D01*
X119947137Y-54393768D01*
X119947133Y-54393766D01*
X119748987Y-54301369D01*
X119748983Y-54301368D01*
X119748979Y-54301366D01*
X119537807Y-54244783D01*
X119537803Y-54244782D01*
X119537802Y-54244782D01*
X119537801Y-54244781D01*
X119537796Y-54244781D01*
X119320002Y-54225727D01*
X119319998Y-54225727D01*
X119102203Y-54244781D01*
X119102192Y-54244783D01*
X118891020Y-54301366D01*
X118891011Y-54301370D01*
X118692866Y-54393766D01*
X118513766Y-54519172D01*
X118487181Y-54545758D01*
X118425858Y-54579243D01*
X118356166Y-54574259D01*
X118300233Y-54532387D01*
X118275816Y-54466923D01*
X118275500Y-54458077D01*
X118275500Y-52189999D01*
X118534341Y-52189999D01*
X118534341Y-52190000D01*
X118554936Y-52425403D01*
X118554938Y-52425413D01*
X118616094Y-52653655D01*
X118616096Y-52653659D01*
X118616097Y-52653663D01*
X118703980Y-52842128D01*
X118715965Y-52867830D01*
X118715967Y-52867834D01*
X118793545Y-52978626D01*
X118851505Y-53061401D01*
X119018599Y-53228495D01*
X119115384Y-53296265D01*
X119212165Y-53364032D01*
X119212167Y-53364033D01*
X119212170Y-53364035D01*
X119426337Y-53463903D01*
X119654592Y-53525063D01*
X119831034Y-53540500D01*
X119889999Y-53545659D01*
X119890000Y-53545659D01*
X119890001Y-53545659D01*
X119948966Y-53540500D01*
X120125408Y-53525063D01*
X120353663Y-53463903D01*
X120567830Y-53364035D01*
X120761401Y-53228495D01*
X120928495Y-53061401D01*
X121058425Y-52875842D01*
X121113002Y-52832217D01*
X121182500Y-52825023D01*
X121244855Y-52856546D01*
X121261575Y-52875842D01*
X121391500Y-53061395D01*
X121391505Y-53061401D01*
X121558599Y-53228495D01*
X121655384Y-53296265D01*
X121752165Y-53364032D01*
X121752167Y-53364033D01*
X121752170Y-53364035D01*
X121966337Y-53463903D01*
X122194592Y-53525063D01*
X122371034Y-53540500D01*
X122429999Y-53545659D01*
X122430000Y-53545659D01*
X122430001Y-53545659D01*
X122488966Y-53540500D01*
X122665408Y-53525063D01*
X122893663Y-53463903D01*
X123107830Y-53364035D01*
X123301401Y-53228495D01*
X123468495Y-53061401D01*
X123598425Y-52875842D01*
X123653002Y-52832217D01*
X123722500Y-52825023D01*
X123784855Y-52856546D01*
X123801575Y-52875842D01*
X123931500Y-53061395D01*
X123931505Y-53061401D01*
X124098599Y-53228495D01*
X124195384Y-53296265D01*
X124292165Y-53364032D01*
X124292167Y-53364033D01*
X124292170Y-53364035D01*
X124506337Y-53463903D01*
X124734592Y-53525063D01*
X124911034Y-53540500D01*
X124969999Y-53545659D01*
X124970000Y-53545659D01*
X124970001Y-53545659D01*
X125028966Y-53540500D01*
X125205408Y-53525063D01*
X125433663Y-53463903D01*
X125647830Y-53364035D01*
X125841401Y-53228495D01*
X126008495Y-53061401D01*
X126138730Y-52875405D01*
X126193307Y-52831781D01*
X126262805Y-52824587D01*
X126325160Y-52856110D01*
X126341879Y-52875405D01*
X126471890Y-53061078D01*
X126638917Y-53228105D01*
X126832421Y-53363600D01*
X127046507Y-53463429D01*
X127046516Y-53463433D01*
X127260000Y-53520634D01*
X127260000Y-52623012D01*
X127317007Y-52655925D01*
X127444174Y-52690000D01*
X127575826Y-52690000D01*
X127702993Y-52655925D01*
X127760000Y-52623012D01*
X127760000Y-53520633D01*
X127973483Y-53463433D01*
X127973492Y-53463429D01*
X128187578Y-53363600D01*
X128381078Y-53228108D01*
X128503133Y-53106053D01*
X128564456Y-53072568D01*
X128634148Y-53077552D01*
X128690082Y-53119423D01*
X128706997Y-53150401D01*
X128756202Y-53282328D01*
X128756206Y-53282335D01*
X128842452Y-53397544D01*
X128842455Y-53397547D01*
X128957664Y-53483793D01*
X128957671Y-53483797D01*
X129092517Y-53534091D01*
X129092516Y-53534091D01*
X129099444Y-53534835D01*
X129152127Y-53540500D01*
X130947872Y-53540499D01*
X131007483Y-53534091D01*
X131142331Y-53483796D01*
X131257546Y-53397546D01*
X131343796Y-53282331D01*
X131359586Y-53239996D01*
X134894435Y-53239996D01*
X134894435Y-53240003D01*
X134914630Y-53419249D01*
X134914631Y-53419254D01*
X134974211Y-53589523D01*
X135027401Y-53674174D01*
X135070184Y-53742262D01*
X135197738Y-53869816D01*
X135288080Y-53926582D01*
X135298283Y-53932993D01*
X135350478Y-53965789D01*
X135520745Y-54025368D01*
X135520750Y-54025369D01*
X135699996Y-54045565D01*
X135700000Y-54045565D01*
X135700004Y-54045565D01*
X135879249Y-54025369D01*
X135879252Y-54025368D01*
X135879255Y-54025368D01*
X136049522Y-53965789D01*
X136202262Y-53869816D01*
X136329816Y-53742262D01*
X136425789Y-53589522D01*
X136485368Y-53419255D01*
X136487814Y-53397546D01*
X136505565Y-53240003D01*
X136505565Y-53239996D01*
X136485369Y-53060750D01*
X136485368Y-53060745D01*
X136425788Y-52890476D01*
X136384387Y-52824587D01*
X136329816Y-52737738D01*
X136202262Y-52610184D01*
X136170297Y-52590099D01*
X136049523Y-52514211D01*
X135879254Y-52454631D01*
X135879249Y-52454630D01*
X135700004Y-52434435D01*
X135699996Y-52434435D01*
X135520750Y-52454630D01*
X135520745Y-52454631D01*
X135350476Y-52514211D01*
X135197737Y-52610184D01*
X135070184Y-52737737D01*
X134974211Y-52890476D01*
X134914631Y-53060745D01*
X134914630Y-53060750D01*
X134894435Y-53239996D01*
X131359586Y-53239996D01*
X131394091Y-53147483D01*
X131400500Y-53087873D01*
X131400499Y-51292128D01*
X131394091Y-51232517D01*
X131393002Y-51229598D01*
X131343797Y-51097671D01*
X131343793Y-51097664D01*
X131257547Y-50982455D01*
X131257544Y-50982452D01*
X131142335Y-50896206D01*
X131142328Y-50896202D01*
X131007482Y-50845908D01*
X131007483Y-50845908D01*
X130947883Y-50839501D01*
X130947881Y-50839500D01*
X130947873Y-50839500D01*
X130947864Y-50839500D01*
X129152129Y-50839500D01*
X129152123Y-50839501D01*
X129092516Y-50845908D01*
X128957671Y-50896202D01*
X128957664Y-50896206D01*
X128842455Y-50982452D01*
X128842452Y-50982455D01*
X128756206Y-51097664D01*
X128756202Y-51097671D01*
X128706997Y-51229598D01*
X128665126Y-51285532D01*
X128599661Y-51309949D01*
X128531388Y-51295097D01*
X128503134Y-51273946D01*
X128381082Y-51151894D01*
X128187578Y-51016399D01*
X127973492Y-50916570D01*
X127973486Y-50916567D01*
X127760000Y-50859364D01*
X127760000Y-51756988D01*
X127702993Y-51724075D01*
X127575826Y-51690000D01*
X127444174Y-51690000D01*
X127317007Y-51724075D01*
X127260000Y-51756988D01*
X127260000Y-50859364D01*
X127259999Y-50859364D01*
X127046513Y-50916567D01*
X127046507Y-50916570D01*
X126832422Y-51016399D01*
X126832420Y-51016400D01*
X126638926Y-51151886D01*
X126638920Y-51151891D01*
X126471891Y-51318920D01*
X126471890Y-51318922D01*
X126341880Y-51504595D01*
X126287303Y-51548219D01*
X126217804Y-51555412D01*
X126155450Y-51523890D01*
X126138730Y-51504594D01*
X126008494Y-51318597D01*
X125841402Y-51151506D01*
X125841395Y-51151501D01*
X125647834Y-51015967D01*
X125647830Y-51015965D01*
X125591751Y-50989815D01*
X125433663Y-50916097D01*
X125433659Y-50916096D01*
X125433655Y-50916094D01*
X125205413Y-50854938D01*
X125205403Y-50854936D01*
X124970001Y-50834341D01*
X124969999Y-50834341D01*
X124734596Y-50854936D01*
X124734586Y-50854938D01*
X124506344Y-50916094D01*
X124506335Y-50916098D01*
X124292171Y-51015964D01*
X124292169Y-51015965D01*
X124098597Y-51151505D01*
X123931505Y-51318597D01*
X123801575Y-51504158D01*
X123746998Y-51547783D01*
X123677500Y-51554977D01*
X123615145Y-51523454D01*
X123598425Y-51504158D01*
X123468494Y-51318597D01*
X123301402Y-51151506D01*
X123301395Y-51151501D01*
X123107834Y-51015967D01*
X123107830Y-51015965D01*
X123051751Y-50989815D01*
X122893663Y-50916097D01*
X122893659Y-50916096D01*
X122893655Y-50916094D01*
X122665413Y-50854938D01*
X122665403Y-50854936D01*
X122430001Y-50834341D01*
X122429999Y-50834341D01*
X122194596Y-50854936D01*
X122194586Y-50854938D01*
X121966344Y-50916094D01*
X121966335Y-50916098D01*
X121752171Y-51015964D01*
X121752169Y-51015965D01*
X121558597Y-51151505D01*
X121391505Y-51318597D01*
X121261575Y-51504158D01*
X121206998Y-51547783D01*
X121137500Y-51554977D01*
X121075145Y-51523454D01*
X121058425Y-51504158D01*
X120928494Y-51318597D01*
X120761402Y-51151506D01*
X120761395Y-51151501D01*
X120567834Y-51015967D01*
X120567830Y-51015965D01*
X120511751Y-50989815D01*
X120353663Y-50916097D01*
X120353659Y-50916096D01*
X120353655Y-50916094D01*
X120125413Y-50854938D01*
X120125403Y-50854936D01*
X119890001Y-50834341D01*
X119889999Y-50834341D01*
X119654596Y-50854936D01*
X119654586Y-50854938D01*
X119426344Y-50916094D01*
X119426335Y-50916098D01*
X119212171Y-51015964D01*
X119212169Y-51015965D01*
X119018597Y-51151505D01*
X118851505Y-51318597D01*
X118715965Y-51512169D01*
X118715964Y-51512171D01*
X118616098Y-51726335D01*
X118616094Y-51726344D01*
X118554938Y-51954586D01*
X118554936Y-51954596D01*
X118534341Y-52189999D01*
X118275500Y-52189999D01*
X118275500Y-49749996D01*
X126414435Y-49749996D01*
X126414435Y-49750003D01*
X126434630Y-49929249D01*
X126434631Y-49929254D01*
X126494211Y-50099523D01*
X126545247Y-50180745D01*
X126590184Y-50252262D01*
X126717738Y-50379816D01*
X126870478Y-50475789D01*
X127040745Y-50535368D01*
X127040750Y-50535369D01*
X127219996Y-50555565D01*
X127220000Y-50555565D01*
X127220004Y-50555565D01*
X127399249Y-50535369D01*
X127399252Y-50535368D01*
X127399255Y-50535368D01*
X127569522Y-50475789D01*
X127722262Y-50379816D01*
X127849816Y-50252262D01*
X127945789Y-50099522D01*
X128005368Y-49929255D01*
X128013426Y-49857737D01*
X128025565Y-49750003D01*
X128025565Y-49749996D01*
X128005369Y-49570750D01*
X128005368Y-49570745D01*
X127951914Y-49417982D01*
X127945789Y-49400478D01*
X127944280Y-49398077D01*
X127849815Y-49247737D01*
X127722262Y-49120184D01*
X127569523Y-49024211D01*
X127399254Y-48964631D01*
X127399249Y-48964630D01*
X127220004Y-48944435D01*
X127219996Y-48944435D01*
X127040750Y-48964630D01*
X127040745Y-48964631D01*
X126870476Y-49024211D01*
X126717737Y-49120184D01*
X126590184Y-49247737D01*
X126494211Y-49400476D01*
X126434631Y-49570745D01*
X126434630Y-49570750D01*
X126414435Y-49749996D01*
X118275500Y-49749996D01*
X118275500Y-47462498D01*
X119057018Y-47462498D01*
X119057018Y-47462501D01*
X119076922Y-47740799D01*
X119125291Y-47963143D01*
X119136229Y-48013423D01*
X119175493Y-48118695D01*
X119233731Y-48274838D01*
X119233733Y-48274842D01*
X119367440Y-48519707D01*
X119367445Y-48519715D01*
X119534638Y-48743060D01*
X119534654Y-48743078D01*
X119731921Y-48940345D01*
X119731939Y-48940361D01*
X119955284Y-49107554D01*
X119955292Y-49107559D01*
X120200157Y-49241266D01*
X120200161Y-49241268D01*
X120200163Y-49241269D01*
X120461577Y-49338771D01*
X120597891Y-49368424D01*
X120734200Y-49398077D01*
X120734202Y-49398077D01*
X120734206Y-49398078D01*
X120981514Y-49415765D01*
X121012499Y-49417982D01*
X121012500Y-49417982D01*
X121012501Y-49417982D01*
X121040381Y-49415987D01*
X121290794Y-49398078D01*
X121563423Y-49338771D01*
X121824837Y-49241269D01*
X122069713Y-49107556D01*
X122293068Y-48940355D01*
X122484916Y-48748507D01*
X134952946Y-48748507D01*
X134952946Y-48748514D01*
X134973141Y-48927760D01*
X134973142Y-48927765D01*
X135032722Y-49098034D01*
X135046640Y-49120184D01*
X135128695Y-49250773D01*
X135256249Y-49378327D01*
X135408989Y-49474300D01*
X135563355Y-49528315D01*
X135579256Y-49533879D01*
X135579261Y-49533880D01*
X135750094Y-49553128D01*
X135814508Y-49580194D01*
X135854063Y-49637789D01*
X135856201Y-49707626D01*
X135823893Y-49764029D01*
X135730183Y-49857739D01*
X135634211Y-50010476D01*
X135574631Y-50180745D01*
X135574630Y-50180750D01*
X135554435Y-50359996D01*
X135554435Y-50360003D01*
X135574630Y-50539249D01*
X135574631Y-50539254D01*
X135634211Y-50709523D01*
X135712640Y-50834341D01*
X135730184Y-50862262D01*
X135857738Y-50989816D01*
X136010478Y-51085789D01*
X136044435Y-51097671D01*
X136180745Y-51145368D01*
X136180750Y-51145369D01*
X136359996Y-51165565D01*
X136360000Y-51165565D01*
X136360004Y-51165565D01*
X136539249Y-51145369D01*
X136539252Y-51145368D01*
X136539255Y-51145368D01*
X136709522Y-51085789D01*
X136862262Y-50989816D01*
X136989816Y-50862262D01*
X137085789Y-50709522D01*
X137145368Y-50539255D01*
X137152519Y-50475788D01*
X137165565Y-50360003D01*
X137165565Y-50359996D01*
X137145369Y-50180750D01*
X137145368Y-50180745D01*
X137085788Y-50010476D01*
X137034753Y-49929255D01*
X136989816Y-49857738D01*
X136862262Y-49730184D01*
X136826361Y-49707626D01*
X136709523Y-49634211D01*
X136539254Y-49574631D01*
X136539250Y-49574630D01*
X136368415Y-49555382D01*
X136304001Y-49528315D01*
X136264446Y-49470720D01*
X136262309Y-49400883D01*
X136294615Y-49344484D01*
X136388327Y-49250773D01*
X136484300Y-49098033D01*
X136543879Y-48927766D01*
X136564076Y-48748511D01*
X136543879Y-48569256D01*
X136484300Y-48398989D01*
X136388327Y-48246249D01*
X136260773Y-48118695D01*
X136108034Y-48022722D01*
X135937765Y-47963142D01*
X135937760Y-47963141D01*
X135758515Y-47942946D01*
X135758507Y-47942946D01*
X135579261Y-47963141D01*
X135579256Y-47963142D01*
X135408987Y-48022722D01*
X135256248Y-48118695D01*
X135128695Y-48246248D01*
X135032722Y-48398987D01*
X134973142Y-48569256D01*
X134973141Y-48569261D01*
X134952946Y-48748507D01*
X122484916Y-48748507D01*
X122490355Y-48743068D01*
X122657556Y-48519713D01*
X122791269Y-48274837D01*
X122888771Y-48013423D01*
X122948078Y-47740794D01*
X122967982Y-47462500D01*
X122948078Y-47184206D01*
X122937990Y-47137834D01*
X122889225Y-46913664D01*
X122888771Y-46911577D01*
X122791269Y-46650163D01*
X122681971Y-46450000D01*
X122657559Y-46405292D01*
X122657554Y-46405284D01*
X122490361Y-46181939D01*
X122490345Y-46181921D01*
X122293078Y-45984654D01*
X122293060Y-45984638D01*
X122069715Y-45817445D01*
X122069707Y-45817440D01*
X121824842Y-45683733D01*
X121824838Y-45683731D01*
X121725730Y-45646766D01*
X121563423Y-45586229D01*
X121563419Y-45586228D01*
X121563416Y-45586227D01*
X121452668Y-45562135D01*
X124649500Y-45562135D01*
X124649500Y-47357870D01*
X124649501Y-47357876D01*
X124655908Y-47417483D01*
X124706202Y-47552328D01*
X124706206Y-47552335D01*
X124792452Y-47667544D01*
X124792455Y-47667547D01*
X124907664Y-47753793D01*
X124907671Y-47753797D01*
X125042517Y-47804091D01*
X125042516Y-47804091D01*
X125049444Y-47804835D01*
X125102127Y-47810500D01*
X126897872Y-47810499D01*
X126957483Y-47804091D01*
X127092331Y-47753796D01*
X127207546Y-47667546D01*
X127293796Y-47552331D01*
X127342810Y-47420916D01*
X127384681Y-47364984D01*
X127450145Y-47340566D01*
X127518418Y-47355417D01*
X127546673Y-47376569D01*
X127668599Y-47498495D01*
X127765384Y-47566265D01*
X127862165Y-47634032D01*
X127862167Y-47634033D01*
X127862170Y-47634035D01*
X128076337Y-47733903D01*
X128076343Y-47733904D01*
X128076344Y-47733905D01*
X128113262Y-47743797D01*
X128304592Y-47795063D01*
X128481034Y-47810500D01*
X128539999Y-47815659D01*
X128540000Y-47815659D01*
X128540001Y-47815659D01*
X128598966Y-47810500D01*
X128775408Y-47795063D01*
X129003663Y-47733903D01*
X129217830Y-47634035D01*
X129411401Y-47498495D01*
X129578495Y-47331401D01*
X129714035Y-47137830D01*
X129813903Y-46923663D01*
X129875063Y-46695408D01*
X129895659Y-46460000D01*
X129875063Y-46224592D01*
X129813903Y-45996337D01*
X129714035Y-45782171D01*
X129645109Y-45683733D01*
X129578494Y-45588597D01*
X129542032Y-45552135D01*
X136249500Y-45552135D01*
X136249500Y-47347870D01*
X136249501Y-47347876D01*
X136255908Y-47407483D01*
X136306202Y-47542328D01*
X136306206Y-47542335D01*
X136392452Y-47657544D01*
X136392455Y-47657547D01*
X136507664Y-47743793D01*
X136507671Y-47743797D01*
X136642517Y-47794091D01*
X136642516Y-47794091D01*
X136649444Y-47794835D01*
X136702127Y-47800500D01*
X138497872Y-47800499D01*
X138557483Y-47794091D01*
X138692331Y-47743796D01*
X138807546Y-47657546D01*
X138893796Y-47542331D01*
X138942810Y-47410916D01*
X138984681Y-47354984D01*
X139050145Y-47330566D01*
X139118418Y-47345417D01*
X139146673Y-47366569D01*
X139268599Y-47488495D01*
X139359762Y-47552328D01*
X139462165Y-47624032D01*
X139462167Y-47624033D01*
X139462170Y-47624035D01*
X139676337Y-47723903D01*
X139904592Y-47785063D01*
X140081034Y-47800500D01*
X140139999Y-47805659D01*
X140140000Y-47805659D01*
X140140001Y-47805659D01*
X140198966Y-47800500D01*
X140375408Y-47785063D01*
X140603663Y-47723903D01*
X140817830Y-47624035D01*
X141011401Y-47488495D01*
X141037398Y-47462498D01*
X143207018Y-47462498D01*
X143207018Y-47462501D01*
X143226922Y-47740799D01*
X143275291Y-47963143D01*
X143286229Y-48013423D01*
X143325493Y-48118695D01*
X143383731Y-48274838D01*
X143383733Y-48274842D01*
X143517440Y-48519707D01*
X143517445Y-48519715D01*
X143684638Y-48743060D01*
X143684654Y-48743078D01*
X143881921Y-48940345D01*
X143881939Y-48940361D01*
X144105284Y-49107554D01*
X144105292Y-49107559D01*
X144350157Y-49241266D01*
X144350161Y-49241268D01*
X144350163Y-49241269D01*
X144611577Y-49338771D01*
X144747891Y-49368424D01*
X144884200Y-49398077D01*
X144884202Y-49398077D01*
X144884206Y-49398078D01*
X145131514Y-49415765D01*
X145162499Y-49417982D01*
X145162500Y-49417982D01*
X145162501Y-49417982D01*
X145190381Y-49415987D01*
X145440794Y-49398078D01*
X145713423Y-49338771D01*
X145974837Y-49241269D01*
X146219713Y-49107556D01*
X146443068Y-48940355D01*
X146640355Y-48743068D01*
X146807556Y-48519713D01*
X146941269Y-48274837D01*
X147038771Y-48013423D01*
X147098078Y-47740794D01*
X147117982Y-47462500D01*
X147098078Y-47184206D01*
X147087990Y-47137834D01*
X147039225Y-46913664D01*
X147038771Y-46911577D01*
X146941269Y-46650163D01*
X146831971Y-46450000D01*
X146807559Y-46405292D01*
X146807554Y-46405284D01*
X146640361Y-46181939D01*
X146640345Y-46181921D01*
X146443078Y-45984654D01*
X146443060Y-45984638D01*
X146219715Y-45817445D01*
X146219707Y-45817440D01*
X145974842Y-45683733D01*
X145974838Y-45683731D01*
X145875730Y-45646766D01*
X145713423Y-45586229D01*
X145713419Y-45586228D01*
X145713416Y-45586227D01*
X145440799Y-45526922D01*
X145162501Y-45507018D01*
X145162499Y-45507018D01*
X144884200Y-45526922D01*
X144611583Y-45586227D01*
X144611578Y-45586228D01*
X144611577Y-45586229D01*
X144605223Y-45588599D01*
X144350161Y-45683731D01*
X144350157Y-45683733D01*
X144105292Y-45817440D01*
X144105284Y-45817445D01*
X143881939Y-45984638D01*
X143881921Y-45984654D01*
X143684654Y-46181921D01*
X143684638Y-46181939D01*
X143517445Y-46405284D01*
X143517440Y-46405292D01*
X143383733Y-46650157D01*
X143383731Y-46650161D01*
X143286227Y-46911583D01*
X143226922Y-47184200D01*
X143207018Y-47462498D01*
X141037398Y-47462498D01*
X141178495Y-47321401D01*
X141314035Y-47127830D01*
X141413903Y-46913663D01*
X141475063Y-46685408D01*
X141495659Y-46450000D01*
X141475063Y-46214592D01*
X141416584Y-45996344D01*
X141413905Y-45986344D01*
X141413904Y-45986343D01*
X141413903Y-45986337D01*
X141314035Y-45772171D01*
X141252111Y-45683733D01*
X141178494Y-45578597D01*
X141011402Y-45411506D01*
X141011395Y-45411501D01*
X140817834Y-45275967D01*
X140817830Y-45275965D01*
X140767413Y-45252455D01*
X140603663Y-45176097D01*
X140603659Y-45176096D01*
X140603655Y-45176094D01*
X140375413Y-45114938D01*
X140375403Y-45114936D01*
X140140001Y-45094341D01*
X140139999Y-45094341D01*
X139904596Y-45114936D01*
X139904586Y-45114938D01*
X139676344Y-45176094D01*
X139676335Y-45176098D01*
X139462171Y-45275964D01*
X139462169Y-45275965D01*
X139268600Y-45411503D01*
X139146673Y-45533430D01*
X139085350Y-45566914D01*
X139015658Y-45561930D01*
X138959725Y-45520058D01*
X138942810Y-45489081D01*
X138893797Y-45357671D01*
X138893793Y-45357664D01*
X138807547Y-45242455D01*
X138807544Y-45242452D01*
X138692335Y-45156206D01*
X138692328Y-45156202D01*
X138557482Y-45105908D01*
X138557483Y-45105908D01*
X138497883Y-45099501D01*
X138497881Y-45099500D01*
X138497873Y-45099500D01*
X138497864Y-45099500D01*
X136702129Y-45099500D01*
X136702123Y-45099501D01*
X136642516Y-45105908D01*
X136507671Y-45156202D01*
X136507664Y-45156206D01*
X136392455Y-45242452D01*
X136392452Y-45242455D01*
X136306206Y-45357664D01*
X136306202Y-45357671D01*
X136255908Y-45492517D01*
X136249501Y-45552116D01*
X136249500Y-45552135D01*
X129542032Y-45552135D01*
X129411402Y-45421506D01*
X129411395Y-45421501D01*
X129397119Y-45411505D01*
X129334518Y-45367671D01*
X129217834Y-45285967D01*
X129217830Y-45285965D01*
X129196383Y-45275964D01*
X129003663Y-45186097D01*
X129003659Y-45186096D01*
X129003655Y-45186094D01*
X128775413Y-45124938D01*
X128775403Y-45124936D01*
X128540001Y-45104341D01*
X128539999Y-45104341D01*
X128304596Y-45124936D01*
X128304586Y-45124938D01*
X128076344Y-45186094D01*
X128076335Y-45186098D01*
X127862171Y-45285964D01*
X127862169Y-45285965D01*
X127668600Y-45421503D01*
X127546673Y-45543430D01*
X127485350Y-45576914D01*
X127415658Y-45571930D01*
X127359725Y-45530058D01*
X127342810Y-45499081D01*
X127293797Y-45367671D01*
X127293793Y-45367664D01*
X127207547Y-45252455D01*
X127207544Y-45252452D01*
X127092335Y-45166206D01*
X127092328Y-45166202D01*
X126957482Y-45115908D01*
X126957483Y-45115908D01*
X126897883Y-45109501D01*
X126897881Y-45109500D01*
X126897873Y-45109500D01*
X126897864Y-45109500D01*
X125102129Y-45109500D01*
X125102123Y-45109501D01*
X125042516Y-45115908D01*
X124907671Y-45166202D01*
X124907664Y-45166206D01*
X124792455Y-45252452D01*
X124792452Y-45252455D01*
X124706206Y-45367664D01*
X124706202Y-45367671D01*
X124655908Y-45502517D01*
X124649501Y-45562116D01*
X124649500Y-45562135D01*
X121452668Y-45562135D01*
X121290799Y-45526922D01*
X121012501Y-45507018D01*
X121012499Y-45507018D01*
X120734200Y-45526922D01*
X120461583Y-45586227D01*
X120461578Y-45586228D01*
X120461577Y-45586229D01*
X120455223Y-45588599D01*
X120200161Y-45683731D01*
X120200157Y-45683733D01*
X119955292Y-45817440D01*
X119955284Y-45817445D01*
X119731939Y-45984638D01*
X119731921Y-45984654D01*
X119534654Y-46181921D01*
X119534638Y-46181939D01*
X119367445Y-46405284D01*
X119367440Y-46405292D01*
X119233733Y-46650157D01*
X119233731Y-46650161D01*
X119136227Y-46911583D01*
X119076922Y-47184200D01*
X119057018Y-47462498D01*
X118275500Y-47462498D01*
X118275500Y-44849500D01*
X118295185Y-44782461D01*
X118347989Y-44736706D01*
X118399500Y-44725500D01*
X147775500Y-44725500D01*
X147842539Y-44745185D01*
G37*
%TD.AperFunction*%
%TD*%
M02*
