M48
; DRILL file {KiCad 8.0.5} date 2025-11-20T22:31:32-0800
; FORMAT={-:-/ absolute / inch / decimal}
; #@! TF.CreationDate,2025-11-20T22:31:32-08:00
; #@! TF.GenerationSoftware,Kicad,Pcbnew,8.0.5
; #@! TF.FileFunction,Plated,1,4,PTH
FMAT,2
INCH
; #@! TA.AperFunction,Plated,PTH,ViaDrill
T1C0.0118
; #@! TA.AperFunction,Plated,PTH,ComponentDrill
T2C0.0315
; #@! TA.AperFunction,Plated,PTH,ComponentDrill
T3C0.0390
; #@! TA.AperFunction,Plated,PTH,ComponentDrill
T4C0.0394
; #@! TA.AperFunction,Plated,PTH,ComponentDrill
T5C0.0400
; #@! TA.AperFunction,Plated,PTH,ComponentDrill
T6C0.0984
%
G90
G05
T1
X4.7024Y-2.7205
X4.7055Y-3.9685
X4.7354Y-2.6444
X4.7445Y-3.6768
X4.7677Y-2.7134
X4.8228Y-3.9748
X4.8827Y-2.7091
X4.9031Y-1.9587
X4.9205Y-2.7091
X4.9331Y-2.5492
X5.0087Y-1.9587
X5.0189Y-2.2783
X5.0193Y-2.2197
X5.3362Y-2.498
X5.3425Y-2.0961
X5.3433Y-2.3118
X5.3448Y-1.9192
X5.3685Y-1.9827
X5.3767Y-2.359
X5.3827Y-2.6122
X5.3862Y-3.3795
X5.4213Y-3.5098
X5.4299Y-2.6488
X5.4669Y-1.9587
X5.5287Y-3.1299
X5.5433Y-3.5394
X5.5827Y-3.0177
X5.6106Y-3.9705
X5.6445Y-3.6646
X5.728Y-3.9681
X5.7555Y-3.635
X5.7882Y-2.6484
T2
X5.0303Y-3.5358
X5.0303Y-3.8358
X5.1303Y-3.5358
X5.1303Y-3.8358
X5.2303Y-3.5358
X5.2303Y-3.8358
X5.3303Y-3.5358
X5.3303Y-3.8358
T3
X4.6976Y-2.1843
X4.6976Y-2.4402
X4.8748Y-2.1843
X4.8748Y-2.4402
T4
X4.7201Y-2.0547
X4.7344Y-3.385
X4.8201Y-2.0547
X4.8344Y-3.385
X4.9201Y-2.0547
X4.9344Y-3.385
X4.9506Y-4.2299
X4.9506Y-4.3299
X4.9606Y-1.8291
X5.0201Y-2.0547
X5.0606Y-1.8291
X5.1201Y-2.0547
X5.1913Y-4.2736
X5.2913Y-4.2736
X5.4173Y-1.8287
X5.4823Y-3.6909
X5.4823Y-3.7909
X5.4823Y-3.8909
X5.4835Y-2.1157
X5.4835Y-2.2157
X5.4835Y-2.3157
X5.4835Y-2.4157
X5.5173Y-1.8287
X5.5283Y-4.2307
X5.5283Y-4.3307
X5.5461Y-2.8693
X5.5835Y-2.1157
X5.5835Y-2.2157
X5.5835Y-2.3157
X5.5835Y-2.4157
X5.6461Y-2.8693
X5.7461Y-2.8693
T5
X4.9898Y-4.0602
X5.4898Y-4.0602
T6
X4.7643Y-1.8686
X4.7643Y-4.2879
X5.7151Y-1.8686
X5.7151Y-4.2879
M30
