M48
; DRILL file {KiCad 8.0.5} date 2025-09-24T21:27:05-0700
; FORMAT={-:-/ absolute / inch / decimal}
; #@! TF.CreationDate,2025-09-24T21:27:05-07:00
; #@! TF.GenerationSoftware,Kicad,Pcbnew,8.0.5
; #@! TF.FileFunction,Plated,1,4,PTH
FMAT,2
INCH
; #@! TA.AperFunction,Plated,PTH,ComponentDrill
T1C0.0276
; #@! TA.AperFunction,Plated,PTH,ComponentDrill
T2C0.0315
; #@! TA.AperFunction,Plated,PTH,ComponentDrill
T3C0.0354
; #@! TA.AperFunction,Plated,PTH,ComponentDrill
T4C0.0394
; #@! TA.AperFunction,Plated,PTH,ComponentDrill
T5C0.0400
; #@! TA.AperFunction,Plated,PTH,ComponentDrill
T6C0.0433
; #@! TA.AperFunction,Plated,PTH,ComponentDrill
T7C0.0984
%
G90
G05
T1
X5.0382Y-2.0961
X5.0382Y-2.3961
X5.1618Y-2.098
X5.1618Y-2.1933
X5.1618Y-2.2894
X5.4618Y-2.098
X5.4618Y-2.1933
X5.4618Y-2.2894
T2
X4.7004Y-2.1276
X4.8004Y-2.1276
X4.9004Y-2.1276
X4.9189Y-3.4291
X4.9969Y-3.6291
X4.9969Y-3.9291
X5.0173Y-3.4291
X5.0394Y-2.6191
X5.0394Y-2.7191
X5.0394Y-2.8191
X5.0394Y-2.9191
X5.0394Y-3.0191
X5.0394Y-3.1191
X5.0394Y-3.2191
X5.0969Y-3.6291
X5.0969Y-3.9291
X5.1429Y-2.4417
X5.1969Y-3.6291
X5.1969Y-3.9291
X5.1996Y-3.428
X5.2413Y-2.4417
X5.2969Y-3.6291
X5.2969Y-3.9291
X5.298Y-3.428
X5.3394Y-2.6191
X5.3394Y-2.7191
X5.3394Y-2.8191
X5.3394Y-2.9191
X5.3394Y-3.0191
X5.3394Y-3.1191
X5.3394Y-3.2191
X5.4675Y-2.4469
X5.5659Y-2.4469
X5.578Y-2.1256
X5.678Y-2.1256
X5.778Y-2.1256
T3
X5.0346Y-1.8732
X5.1346Y-1.8732
X5.3193Y-1.8732
X5.4193Y-1.8732
T4
X4.7197Y-3.2465
X4.8197Y-3.2465
X4.8461Y-3.7713
X4.8461Y-3.8713
X4.8461Y-3.9713
X4.9197Y-3.2465
X5.1886Y-4.0683
X5.2886Y-4.0683
X5.4677Y-2.6453
X5.4677Y-2.7453
X5.4677Y-2.8453
X5.4677Y-2.9453
X5.5677Y-2.6453
X5.5677Y-2.7453
X5.5677Y-2.8453
X5.5677Y-2.9453
T5
X4.9898Y-4.0602
X5.4898Y-4.0602
T6
X5.5012Y-3.9539
X5.6012Y-3.9539
X5.7012Y-3.9539
T7
X4.7643Y-1.8686
X4.7643Y-4.2879
X5.7151Y-1.8686
X5.7151Y-4.2879
M30
