%TF.GenerationSoftware,KiCad,Pcbnew,8.0.5*%
%TF.CreationDate,2025-11-20T22:31:33-08:00*%
%TF.ProjectId,receiver,72656365-6976-4657-922e-6b696361645f,rev?*%
%TF.SameCoordinates,Original*%
%TF.FileFunction,Soldermask,Bot*%
%TF.FilePolarity,Negative*%
%FSLAX46Y46*%
G04 Gerber Fmt 4.6, Leading zero omitted, Abs format (unit mm)*
G04 Created by KiCad (PCBNEW 8.0.5) date 2025-11-20 22:31:33*
%MOMM*%
%LPD*%
G01*
G04 APERTURE LIST*
G04 Aperture macros list*
%AMRoundRect*
0 Rectangle with rounded corners*
0 $1 Rounding radius*
0 $2 $3 $4 $5 $6 $7 $8 $9 X,Y pos of 4 corners*
0 Add a 4 corners polygon primitive as box body*
4,1,4,$2,$3,$4,$5,$6,$7,$8,$9,$2,$3,0*
0 Add four circle primitives for the rounded corners*
1,1,$1+$1,$2,$3*
1,1,$1+$1,$4,$5*
1,1,$1+$1,$6,$7*
1,1,$1+$1,$8,$9*
0 Add four rect primitives between the rounded corners*
20,1,$1+$1,$2,$3,$4,$5,0*
20,1,$1+$1,$4,$5,$6,$7,0*
20,1,$1+$1,$6,$7,$8,$9,0*
20,1,$1+$1,$8,$9,$2,$3,0*%
G04 Aperture macros list end*
%ADD10C,2.900000*%
%ADD11C,5.000000*%
%ADD12R,1.700000X1.700000*%
%ADD13O,1.700000X1.700000*%
%ADD14R,1.600000X1.600000*%
%ADD15O,1.600000X1.600000*%
%ADD16RoundRect,0.102000X-0.749000X0.749000X-0.749000X-0.749000X0.749000X-0.749000X0.749000X0.749000X0*%
%ADD17C,1.702000*%
%ADD18C,1.700000*%
%ADD19C,2.290000*%
%ADD20C,1.728000*%
G04 APERTURE END LIST*
D10*
%TO.C,H2*%
X121012500Y-108912500D03*
D11*
X121012500Y-108912500D03*
%TD*%
D10*
%TO.C,H4*%
X145162500Y-47462500D03*
D11*
X145162500Y-47462500D03*
%TD*%
D12*
%TO.C,D4*%
X140420000Y-110000000D03*
D13*
X140420000Y-107460000D03*
%TD*%
D14*
%TO.C,U4*%
X127770000Y-97430000D03*
D15*
X130310000Y-97430000D03*
X132850000Y-97430000D03*
X135390000Y-97430000D03*
X135390000Y-89810000D03*
X132850000Y-89810000D03*
X130310000Y-89810000D03*
X127770000Y-89810000D03*
%TD*%
D10*
%TO.C,H3*%
X145162500Y-108912500D03*
D11*
X145162500Y-108912500D03*
%TD*%
D12*
%TO.C,D2*%
X126000000Y-46460000D03*
D13*
X128540000Y-46460000D03*
%TD*%
D16*
%TO.C,SW2*%
X123820000Y-55480000D03*
D17*
X123820000Y-61980000D03*
X119320000Y-55480000D03*
X119320000Y-61980000D03*
%TD*%
D12*
%TO.C,J1*%
X130050000Y-52190000D03*
D13*
X127510000Y-52190000D03*
X124970000Y-52190000D03*
X122430000Y-52190000D03*
X119890000Y-52190000D03*
%TD*%
D12*
%TO.C,M1*%
X125335000Y-85980000D03*
D13*
X122795000Y-85980000D03*
X120255000Y-85980000D03*
%TD*%
D10*
%TO.C,H1*%
X121012500Y-47462500D03*
D11*
X121012500Y-47462500D03*
%TD*%
D12*
%TO.C,M2*%
X131860000Y-108550000D03*
D13*
X134400000Y-108550000D03*
%TD*%
D12*
%TO.C,SW1*%
X139250000Y-93750000D03*
D13*
X139250000Y-96290000D03*
X139250000Y-98830000D03*
%TD*%
D12*
%TO.C,J2*%
X140870000Y-72880000D03*
D13*
X143410000Y-72880000D03*
X145950000Y-72880000D03*
%TD*%
D12*
%TO.C,D1*%
X137600000Y-46450000D03*
D13*
X140140000Y-46450000D03*
%TD*%
D12*
%TO.C,D3*%
X125745000Y-107440000D03*
D13*
X125745000Y-109980000D03*
%TD*%
D12*
%TO.C,U3*%
X139280000Y-53740000D03*
D18*
X141820000Y-53740000D03*
X139280000Y-56280000D03*
X141820000Y-56280000D03*
X139280000Y-58820000D03*
X141820000Y-58820000D03*
X139280000Y-61360000D03*
X141820000Y-61360000D03*
%TD*%
D19*
%TO.C,BT1*%
X122000000Y-64560000D03*
X144350000Y-78050000D03*
X122000000Y-91530000D03*
D20*
X139440000Y-103130000D03*
X126740000Y-103130000D03*
%TD*%
M02*
