%TF.GenerationSoftware,KiCad,Pcbnew,8.0.5*%
%TF.CreationDate,2025-09-24T21:27:07-07:00*%
%TF.ProjectId,receiver,72656365-6976-4657-922e-6b696361645f,rev?*%
%TF.SameCoordinates,Original*%
%TF.FileFunction,Copper,L4,Bot*%
%TF.FilePolarity,Positive*%
%FSLAX46Y46*%
G04 Gerber Fmt 4.6, Leading zero omitted, Abs format (unit mm)*
G04 Created by KiCad (PCBNEW 8.0.5) date 2025-09-24 21:27:07*
%MOMM*%
%LPD*%
G01*
G04 APERTURE LIST*
%TA.AperFunction,ComponentPad*%
%ADD10C,1.400000*%
%TD*%
%TA.AperFunction,ComponentPad*%
%ADD11O,1.400000X1.400000*%
%TD*%
%TA.AperFunction,ComponentPad*%
%ADD12C,2.900000*%
%TD*%
%TA.AperFunction,ConnectorPad*%
%ADD13C,5.000000*%
%TD*%
%TA.AperFunction,ComponentPad*%
%ADD14R,1.600000X1.600000*%
%TD*%
%TA.AperFunction,ComponentPad*%
%ADD15C,1.600000*%
%TD*%
%TA.AperFunction,ComponentPad*%
%ADD16R,1.700000X1.700000*%
%TD*%
%TA.AperFunction,ComponentPad*%
%ADD17C,1.700000*%
%TD*%
%TA.AperFunction,ComponentPad*%
%ADD18R,1.905000X2.000000*%
%TD*%
%TA.AperFunction,ComponentPad*%
%ADD19O,1.905000X2.000000*%
%TD*%
%TA.AperFunction,ComponentPad*%
%ADD20O,1.700000X1.700000*%
%TD*%
%TA.AperFunction,ComponentPad*%
%ADD21O,1.600000X1.600000*%
%TD*%
%TA.AperFunction,ComponentPad*%
%ADD22R,1.500000X1.500000*%
%TD*%
%TA.AperFunction,ComponentPad*%
%ADD23C,1.500000*%
%TD*%
%TA.AperFunction,ComponentPad*%
%ADD24C,1.524000*%
%TD*%
%TA.AperFunction,ComponentPad*%
%ADD25R,1.800000X1.800000*%
%TD*%
%TA.AperFunction,ComponentPad*%
%ADD26C,1.800000*%
%TD*%
%TA.AperFunction,Conductor*%
%ADD27C,0.200000*%
%TD*%
G04 APERTURE END LIST*
D10*
%TO.P,R6,1*%
%TO.N,LIGHTS*%
X131110000Y-58150000D03*
D11*
%TO.P,R6,2*%
%TO.N,GND*%
X138730000Y-58150000D03*
%TD*%
D12*
%TO.P,H2,1,1*%
%TO.N,GND*%
X121012500Y-108912500D03*
D13*
X121012500Y-108912500D03*
%TD*%
D14*
%TO.P,C3,1*%
%TO.N,+3.3V*%
X141375113Y-62150000D03*
D15*
%TO.P,C3,2*%
%TO.N,GND*%
X138875113Y-62150000D03*
%TD*%
D12*
%TO.P,H4,1,1*%
%TO.N,GND*%
X145162500Y-47462500D03*
D13*
X145162500Y-47462500D03*
%TD*%
D16*
%TO.P,U3,1,GND*%
%TO.N,GND*%
X138880000Y-67190000D03*
D17*
%TO.P,U3,2,VCC*%
%TO.N,+3.3V*%
X141420000Y-67190000D03*
%TO.P,U3,3,CE*%
%TO.N,CE*%
X138880000Y-69730000D03*
%TO.P,U3,4,~{CSN}*%
%TO.N,CSN*%
X141420000Y-69730000D03*
%TO.P,U3,5,SCK*%
%TO.N,SCK*%
X138880000Y-72270000D03*
%TO.P,U3,6,MOSI*%
%TO.N,MOSI*%
X141420000Y-72270000D03*
%TO.P,U3,7,MISO*%
%TO.N,MISO*%
X138880000Y-74810000D03*
%TO.P,U3,8,IRQ*%
%TO.N,IRQ*%
X141420000Y-74810000D03*
%TD*%
D18*
%TO.P,U2,1,VI*%
%TO.N,+9V*%
X139730000Y-100430000D03*
D19*
%TO.P,U2,2,GND*%
%TO.N,GND*%
X142270000Y-100430000D03*
%TO.P,U2,3,VO*%
%TO.N,+3.3V*%
X144810000Y-100430000D03*
%TD*%
D12*
%TO.P,H3,1,1*%
%TO.N,GND*%
X145162500Y-108912500D03*
D13*
X145162500Y-108912500D03*
%TD*%
D14*
%TO.P,C4,1*%
%TO.N,+3.3V*%
X134570000Y-87070000D03*
D15*
%TO.P,C4,2*%
%TO.N,GND*%
X132070000Y-87070000D03*
%TD*%
D10*
%TO.P,R8,1*%
%TO.N,Net-(U1-RA5)*%
X127970000Y-60860000D03*
D11*
%TO.P,R8,2*%
%TO.N,GND*%
X127970000Y-53240000D03*
%TD*%
D16*
%TO.P,M2,1,+*%
%TO.N,Net-(M2-+)*%
X134330000Y-103335000D03*
D20*
%TO.P,M2,2,-*%
%TO.N,Net-(M2--)*%
X131790000Y-103335000D03*
%TD*%
D10*
%TO.P,R5,1*%
%TO.N,+3.3V*%
X131110000Y-53290000D03*
D11*
%TO.P,R5,2*%
%TO.N,Net-(D3-A)*%
X138730000Y-53290000D03*
%TD*%
D14*
%TO.P,U4,1,OA*%
%TO.N,PWM5*%
X134540000Y-92180000D03*
D21*
%TO.P,U4,2,VCC*%
%TO.N,+9V*%
X132000000Y-92180000D03*
%TO.P,U4,3,VCC*%
X129460000Y-92180000D03*
%TO.P,U4,4,OB*%
%TO.N,PWM5.1*%
X126920000Y-92180000D03*
%TO.P,U4,5,GND*%
%TO.N,GND*%
X126920000Y-99800000D03*
%TO.P,U4,6,IA*%
%TO.N,Net-(M2--)*%
X129460000Y-99800000D03*
%TO.P,U4,7,IB*%
%TO.N,Net-(M2-+)*%
X132000000Y-99800000D03*
%TO.P,U4,8,GND*%
%TO.N,GND*%
X134540000Y-99800000D03*
%TD*%
D14*
%TO.P,C1,1*%
%TO.N,+3.3V*%
X130630000Y-62020000D03*
D15*
%TO.P,C1,2*%
%TO.N,GND*%
X133130000Y-62020000D03*
%TD*%
D12*
%TO.P,H1,1,1*%
%TO.N,GND*%
X121012500Y-47462500D03*
D13*
X121012500Y-47462500D03*
%TD*%
D22*
%TO.P,Q1,1,S*%
%TO.N,GND*%
X119390000Y-54040000D03*
D23*
%TO.P,Q1,2,G*%
%TO.N,LIGHTS*%
X121930000Y-54040000D03*
%TO.P,Q1,3,D*%
%TO.N,Net-(D2-K)*%
X124470000Y-54040000D03*
%TD*%
D22*
%TO.P,Q2,1,S*%
%TO.N,GND*%
X141680000Y-53990000D03*
D23*
%TO.P,Q2,2,G*%
%TO.N,LIGHTS*%
X144220000Y-53990000D03*
%TO.P,Q2,3,D*%
%TO.N,Net-(D3-K)*%
X146760000Y-53990000D03*
%TD*%
D10*
%TO.P,R4,1*%
%TO.N,+3.3V*%
X138730000Y-55710000D03*
D11*
%TO.P,R4,2*%
%TO.N,Net-(D2-A)*%
X131110000Y-55710000D03*
%TD*%
D14*
%TO.P,C2,1*%
%TO.N,+9V*%
X127440000Y-87100000D03*
D15*
%TO.P,C2,2*%
%TO.N,GND*%
X124940000Y-87100000D03*
%TD*%
D16*
%TO.P,SW1,1,C*%
%TO.N,Net-(JP2-B)*%
X123090000Y-95790000D03*
D20*
%TO.P,SW1,2,B*%
%TO.N,Net-(JP1-B)*%
X123090000Y-98330000D03*
%TO.P,SW1,3,A*%
%TO.N,+9V*%
X123090000Y-100870000D03*
%TD*%
D16*
%TO.P,M1,1,PWM*%
%TO.N,PWM6*%
X124960000Y-82460000D03*
D20*
%TO.P,M1,2,+*%
%TO.N,+3.3V*%
X122420000Y-82460000D03*
%TO.P,M1,3,-*%
%TO.N,GND*%
X119880000Y-82460000D03*
%TD*%
D14*
%TO.P,U1,1,VDD*%
%TO.N,+3.3V*%
X128000000Y-66525000D03*
D21*
%TO.P,U1,2,RA5*%
%TO.N,Net-(U1-RA5)*%
X128000000Y-69065000D03*
%TO.P,U1,3,RA4*%
%TO.N,CSN*%
X128000000Y-71605000D03*
%TO.P,U1,4,RA3/~{MCLR}*%
%TO.N,unconnected-(U1-RA3{slash}~{MCLR}-Pad4)*%
X128000000Y-74145000D03*
%TO.P,U1,5,RC5*%
%TO.N,CE*%
X128000000Y-76685000D03*
%TO.P,U1,6,RC4*%
%TO.N,PWM5.1*%
X128000000Y-79225000D03*
%TO.P,U1,7,RC3*%
%TO.N,PWM6*%
X128000000Y-81765000D03*
%TO.P,U1,8,RC2*%
%TO.N,PWM5*%
X135620000Y-81765000D03*
%TO.P,U1,9,RC1*%
%TO.N,MISO*%
X135620000Y-79225000D03*
%TO.P,U1,10,RC0*%
%TO.N,SCK*%
X135620000Y-76685000D03*
%TO.P,U1,11,RA2*%
%TO.N,MOSI*%
X135620000Y-74145000D03*
%TO.P,U1,12,RA1*%
%TO.N,IRQ*%
X135620000Y-71605000D03*
%TO.P,U1,13,RA0*%
%TO.N,LIGHTS*%
X135620000Y-69065000D03*
%TO.P,U1,14,VSS*%
%TO.N,GND*%
X135620000Y-66525000D03*
%TD*%
D24*
%TO.P,BT1,1,+*%
%TO.N,Net-(BT1-+)*%
X139440000Y-103130000D03*
%TO.P,BT1,2,-*%
%TO.N,GND*%
X126740000Y-103130000D03*
%TD*%
D25*
%TO.P,D3,1,K*%
%TO.N,Net-(D3-K)*%
X137650000Y-47580000D03*
D26*
%TO.P,D3,2,A*%
%TO.N,Net-(D3-A)*%
X135110000Y-47580000D03*
%TD*%
D25*
%TO.P,D2,1,K*%
%TO.N,Net-(D2-K)*%
X127880000Y-47580000D03*
D26*
%TO.P,D2,2,A*%
%TO.N,Net-(D2-A)*%
X130420000Y-47580000D03*
%TD*%
D27*
%TO.N,LIGHTS*%
X135620000Y-69065000D02*
X135735000Y-69180000D01*
%TO.N,IRQ*%
X137505000Y-73490000D02*
X135620000Y-71605000D01*
X141420000Y-74810000D02*
X140100000Y-73490000D01*
X140100000Y-73490000D02*
X137505000Y-73490000D01*
%TO.N,PWM5.1*%
X128000000Y-79225000D02*
X129460000Y-80685000D01*
X129460000Y-80685000D02*
X129460000Y-89640000D01*
X129460000Y-89640000D02*
X126920000Y-92180000D01*
%TO.N,PWM5*%
X135620000Y-83480000D02*
X135620000Y-81765000D01*
X136090000Y-90630000D02*
X136090000Y-83950000D01*
X134540000Y-92180000D02*
X136090000Y-90630000D01*
X136090000Y-83950000D02*
X135620000Y-83480000D01*
%TD*%
M02*
