%TF.GenerationSoftware,KiCad,Pcbnew,8.0.5*%
%TF.CreationDate,2025-09-24T21:27:04-07:00*%
%TF.ProjectId,receiver,72656365-6976-4657-922e-6b696361645f,rev?*%
%TF.SameCoordinates,Original*%
%TF.FileFunction,Drillmap*%
%TF.FilePolarity,Positive*%
%FSLAX45Y45*%
G04 Gerber Fmt 4.5, Leading zero omitted, Abs format (unit mm)*
G04 Created by KiCad (PCBNEW 8.0.5) date 2025-09-24 21:27:04*
%MOMM*%
%LPD*%
G01*
G04 APERTURE LIST*
%ADD10C,0.050000*%
%ADD11C,0.200000*%
%ADD12C,0.229000*%
%ADD13C,0.350000*%
G04 APERTURE END LIST*
D10*
X12425000Y-10567500D02*
X14192500Y-10567500D01*
X14840000Y-11215000D02*
X14192500Y-11215000D01*
X12425000Y-11215000D02*
X12425000Y-10567500D01*
X14840000Y-4422500D02*
X14840000Y-11215000D01*
X12425000Y-11215000D02*
X11777500Y-11215000D01*
X11777500Y-11215000D02*
X11777500Y-4422500D01*
X14840000Y-4422500D02*
X11777500Y-4422500D01*
X14192500Y-11215000D02*
X14192500Y-10567500D01*
D11*
D12*
X12085500Y-6341500D02*
X12314500Y-6570500D01*
X12314500Y-6341500D02*
X12085500Y-6570500D01*
X12085500Y-9038500D02*
X12314500Y-9267500D01*
X12314500Y-9038500D02*
X12085500Y-9267500D01*
X14320500Y-7690500D02*
X14549500Y-7919500D01*
X14549500Y-7690500D02*
X14320500Y-7919500D01*
D13*
X14402000Y-8377000D02*
G75*
G02*
X14052000Y-8377000I-175000J0D01*
G01*
X14052000Y-8377000D02*
G75*
G02*
X14402000Y-8377000I175000J0D01*
G01*
D11*
X12035777Y-11528984D02*
X12035777Y-11328984D01*
X12035777Y-11328984D02*
X12083396Y-11328984D01*
X12083396Y-11328984D02*
X12111967Y-11338508D01*
X12111967Y-11338508D02*
X12131015Y-11357555D01*
X12131015Y-11357555D02*
X12140539Y-11376603D01*
X12140539Y-11376603D02*
X12150062Y-11414698D01*
X12150062Y-11414698D02*
X12150062Y-11443269D01*
X12150062Y-11443269D02*
X12140539Y-11481365D01*
X12140539Y-11481365D02*
X12131015Y-11500412D01*
X12131015Y-11500412D02*
X12111967Y-11519460D01*
X12111967Y-11519460D02*
X12083396Y-11528984D01*
X12083396Y-11528984D02*
X12035777Y-11528984D01*
X12235777Y-11528984D02*
X12235777Y-11395650D01*
X12235777Y-11433746D02*
X12245301Y-11414698D01*
X12245301Y-11414698D02*
X12254824Y-11405174D01*
X12254824Y-11405174D02*
X12273872Y-11395650D01*
X12273872Y-11395650D02*
X12292920Y-11395650D01*
X12359586Y-11528984D02*
X12359586Y-11395650D01*
X12359586Y-11328984D02*
X12350062Y-11338508D01*
X12350062Y-11338508D02*
X12359586Y-11348031D01*
X12359586Y-11348031D02*
X12369110Y-11338508D01*
X12369110Y-11338508D02*
X12359586Y-11328984D01*
X12359586Y-11328984D02*
X12359586Y-11348031D01*
X12483396Y-11528984D02*
X12464348Y-11519460D01*
X12464348Y-11519460D02*
X12454824Y-11500412D01*
X12454824Y-11500412D02*
X12454824Y-11328984D01*
X12588158Y-11528984D02*
X12569110Y-11519460D01*
X12569110Y-11519460D02*
X12559586Y-11500412D01*
X12559586Y-11500412D02*
X12559586Y-11328984D01*
X12816729Y-11528984D02*
X12816729Y-11328984D01*
X12816729Y-11328984D02*
X12883396Y-11471841D01*
X12883396Y-11471841D02*
X12950062Y-11328984D01*
X12950062Y-11328984D02*
X12950062Y-11528984D01*
X13131015Y-11528984D02*
X13131015Y-11424222D01*
X13131015Y-11424222D02*
X13121491Y-11405174D01*
X13121491Y-11405174D02*
X13102443Y-11395650D01*
X13102443Y-11395650D02*
X13064348Y-11395650D01*
X13064348Y-11395650D02*
X13045301Y-11405174D01*
X13131015Y-11519460D02*
X13111967Y-11528984D01*
X13111967Y-11528984D02*
X13064348Y-11528984D01*
X13064348Y-11528984D02*
X13045301Y-11519460D01*
X13045301Y-11519460D02*
X13035777Y-11500412D01*
X13035777Y-11500412D02*
X13035777Y-11481365D01*
X13035777Y-11481365D02*
X13045301Y-11462317D01*
X13045301Y-11462317D02*
X13064348Y-11452793D01*
X13064348Y-11452793D02*
X13111967Y-11452793D01*
X13111967Y-11452793D02*
X13131015Y-11443269D01*
X13226253Y-11395650D02*
X13226253Y-11595650D01*
X13226253Y-11405174D02*
X13245301Y-11395650D01*
X13245301Y-11395650D02*
X13283396Y-11395650D01*
X13283396Y-11395650D02*
X13302443Y-11405174D01*
X13302443Y-11405174D02*
X13311967Y-11414698D01*
X13311967Y-11414698D02*
X13321491Y-11433746D01*
X13321491Y-11433746D02*
X13321491Y-11490888D01*
X13321491Y-11490888D02*
X13311967Y-11509936D01*
X13311967Y-11509936D02*
X13302443Y-11519460D01*
X13302443Y-11519460D02*
X13283396Y-11528984D01*
X13283396Y-11528984D02*
X13245301Y-11528984D01*
X13245301Y-11528984D02*
X13226253Y-11519460D01*
X13407205Y-11509936D02*
X13416729Y-11519460D01*
X13416729Y-11519460D02*
X13407205Y-11528984D01*
X13407205Y-11528984D02*
X13397682Y-11519460D01*
X13397682Y-11519460D02*
X13407205Y-11509936D01*
X13407205Y-11509936D02*
X13407205Y-11528984D01*
X13407205Y-11405174D02*
X13416729Y-11414698D01*
X13416729Y-11414698D02*
X13407205Y-11424222D01*
X13407205Y-11424222D02*
X13397682Y-11414698D01*
X13397682Y-11414698D02*
X13407205Y-11405174D01*
X13407205Y-11405174D02*
X13407205Y-11424222D01*
X11575000Y-11757500D02*
X11775000Y-11957500D01*
X11775000Y-11757500D02*
X11575000Y-11957500D01*
X12026253Y-11768031D02*
X12035777Y-11758508D01*
X12035777Y-11758508D02*
X12054824Y-11748984D01*
X12054824Y-11748984D02*
X12102443Y-11748984D01*
X12102443Y-11748984D02*
X12121491Y-11758508D01*
X12121491Y-11758508D02*
X12131015Y-11768031D01*
X12131015Y-11768031D02*
X12140539Y-11787079D01*
X12140539Y-11787079D02*
X12140539Y-11806127D01*
X12140539Y-11806127D02*
X12131015Y-11834698D01*
X12131015Y-11834698D02*
X12016729Y-11948984D01*
X12016729Y-11948984D02*
X12140539Y-11948984D01*
X12226253Y-11929936D02*
X12235777Y-11939460D01*
X12235777Y-11939460D02*
X12226253Y-11948984D01*
X12226253Y-11948984D02*
X12216729Y-11939460D01*
X12216729Y-11939460D02*
X12226253Y-11929936D01*
X12226253Y-11929936D02*
X12226253Y-11948984D01*
X12311967Y-11768031D02*
X12321491Y-11758508D01*
X12321491Y-11758508D02*
X12340539Y-11748984D01*
X12340539Y-11748984D02*
X12388158Y-11748984D01*
X12388158Y-11748984D02*
X12407205Y-11758508D01*
X12407205Y-11758508D02*
X12416729Y-11768031D01*
X12416729Y-11768031D02*
X12426253Y-11787079D01*
X12426253Y-11787079D02*
X12426253Y-11806127D01*
X12426253Y-11806127D02*
X12416729Y-11834698D01*
X12416729Y-11834698D02*
X12302443Y-11948984D01*
X12302443Y-11948984D02*
X12426253Y-11948984D01*
X12521491Y-11948984D02*
X12559586Y-11948984D01*
X12559586Y-11948984D02*
X12578634Y-11939460D01*
X12578634Y-11939460D02*
X12588158Y-11929936D01*
X12588158Y-11929936D02*
X12607205Y-11901365D01*
X12607205Y-11901365D02*
X12616729Y-11863269D01*
X12616729Y-11863269D02*
X12616729Y-11787079D01*
X12616729Y-11787079D02*
X12607205Y-11768031D01*
X12607205Y-11768031D02*
X12597682Y-11758508D01*
X12597682Y-11758508D02*
X12578634Y-11748984D01*
X12578634Y-11748984D02*
X12540539Y-11748984D01*
X12540539Y-11748984D02*
X12521491Y-11758508D01*
X12521491Y-11758508D02*
X12511967Y-11768031D01*
X12511967Y-11768031D02*
X12502443Y-11787079D01*
X12502443Y-11787079D02*
X12502443Y-11834698D01*
X12502443Y-11834698D02*
X12511967Y-11853746D01*
X12511967Y-11853746D02*
X12521491Y-11863269D01*
X12521491Y-11863269D02*
X12540539Y-11872793D01*
X12540539Y-11872793D02*
X12578634Y-11872793D01*
X12578634Y-11872793D02*
X12597682Y-11863269D01*
X12597682Y-11863269D02*
X12607205Y-11853746D01*
X12607205Y-11853746D02*
X12616729Y-11834698D01*
X12740539Y-11748984D02*
X12759586Y-11748984D01*
X12759586Y-11748984D02*
X12778634Y-11758508D01*
X12778634Y-11758508D02*
X12788158Y-11768031D01*
X12788158Y-11768031D02*
X12797682Y-11787079D01*
X12797682Y-11787079D02*
X12807205Y-11825174D01*
X12807205Y-11825174D02*
X12807205Y-11872793D01*
X12807205Y-11872793D02*
X12797682Y-11910888D01*
X12797682Y-11910888D02*
X12788158Y-11929936D01*
X12788158Y-11929936D02*
X12778634Y-11939460D01*
X12778634Y-11939460D02*
X12759586Y-11948984D01*
X12759586Y-11948984D02*
X12740539Y-11948984D01*
X12740539Y-11948984D02*
X12721491Y-11939460D01*
X12721491Y-11939460D02*
X12711967Y-11929936D01*
X12711967Y-11929936D02*
X12702443Y-11910888D01*
X12702443Y-11910888D02*
X12692920Y-11872793D01*
X12692920Y-11872793D02*
X12692920Y-11825174D01*
X12692920Y-11825174D02*
X12702443Y-11787079D01*
X12702443Y-11787079D02*
X12711967Y-11768031D01*
X12711967Y-11768031D02*
X12721491Y-11758508D01*
X12721491Y-11758508D02*
X12740539Y-11748984D01*
X12892920Y-11948984D02*
X12892920Y-11815650D01*
X12892920Y-11834698D02*
X12902443Y-11825174D01*
X12902443Y-11825174D02*
X12921491Y-11815650D01*
X12921491Y-11815650D02*
X12950063Y-11815650D01*
X12950063Y-11815650D02*
X12969110Y-11825174D01*
X12969110Y-11825174D02*
X12978634Y-11844222D01*
X12978634Y-11844222D02*
X12978634Y-11948984D01*
X12978634Y-11844222D02*
X12988158Y-11825174D01*
X12988158Y-11825174D02*
X13007205Y-11815650D01*
X13007205Y-11815650D02*
X13035777Y-11815650D01*
X13035777Y-11815650D02*
X13054824Y-11825174D01*
X13054824Y-11825174D02*
X13064348Y-11844222D01*
X13064348Y-11844222D02*
X13064348Y-11948984D01*
X13159586Y-11948984D02*
X13159586Y-11815650D01*
X13159586Y-11834698D02*
X13169110Y-11825174D01*
X13169110Y-11825174D02*
X13188158Y-11815650D01*
X13188158Y-11815650D02*
X13216729Y-11815650D01*
X13216729Y-11815650D02*
X13235777Y-11825174D01*
X13235777Y-11825174D02*
X13245301Y-11844222D01*
X13245301Y-11844222D02*
X13245301Y-11948984D01*
X13245301Y-11844222D02*
X13254824Y-11825174D01*
X13254824Y-11825174D02*
X13273872Y-11815650D01*
X13273872Y-11815650D02*
X13302443Y-11815650D01*
X13302443Y-11815650D02*
X13321491Y-11825174D01*
X13321491Y-11825174D02*
X13331015Y-11844222D01*
X13331015Y-11844222D02*
X13331015Y-11948984D01*
X13721491Y-11739460D02*
X13550063Y-11996603D01*
X13978634Y-11748984D02*
X13997682Y-11748984D01*
X13997682Y-11748984D02*
X14016729Y-11758508D01*
X14016729Y-11758508D02*
X14026253Y-11768031D01*
X14026253Y-11768031D02*
X14035777Y-11787079D01*
X14035777Y-11787079D02*
X14045301Y-11825174D01*
X14045301Y-11825174D02*
X14045301Y-11872793D01*
X14045301Y-11872793D02*
X14035777Y-11910888D01*
X14035777Y-11910888D02*
X14026253Y-11929936D01*
X14026253Y-11929936D02*
X14016729Y-11939460D01*
X14016729Y-11939460D02*
X13997682Y-11948984D01*
X13997682Y-11948984D02*
X13978634Y-11948984D01*
X13978634Y-11948984D02*
X13959586Y-11939460D01*
X13959586Y-11939460D02*
X13950063Y-11929936D01*
X13950063Y-11929936D02*
X13940539Y-11910888D01*
X13940539Y-11910888D02*
X13931015Y-11872793D01*
X13931015Y-11872793D02*
X13931015Y-11825174D01*
X13931015Y-11825174D02*
X13940539Y-11787079D01*
X13940539Y-11787079D02*
X13950063Y-11768031D01*
X13950063Y-11768031D02*
X13959586Y-11758508D01*
X13959586Y-11758508D02*
X13978634Y-11748984D01*
X14131015Y-11929936D02*
X14140539Y-11939460D01*
X14140539Y-11939460D02*
X14131015Y-11948984D01*
X14131015Y-11948984D02*
X14121491Y-11939460D01*
X14121491Y-11939460D02*
X14131015Y-11929936D01*
X14131015Y-11929936D02*
X14131015Y-11948984D01*
X14264348Y-11748984D02*
X14283396Y-11748984D01*
X14283396Y-11748984D02*
X14302444Y-11758508D01*
X14302444Y-11758508D02*
X14311967Y-11768031D01*
X14311967Y-11768031D02*
X14321491Y-11787079D01*
X14321491Y-11787079D02*
X14331015Y-11825174D01*
X14331015Y-11825174D02*
X14331015Y-11872793D01*
X14331015Y-11872793D02*
X14321491Y-11910888D01*
X14321491Y-11910888D02*
X14311967Y-11929936D01*
X14311967Y-11929936D02*
X14302444Y-11939460D01*
X14302444Y-11939460D02*
X14283396Y-11948984D01*
X14283396Y-11948984D02*
X14264348Y-11948984D01*
X14264348Y-11948984D02*
X14245301Y-11939460D01*
X14245301Y-11939460D02*
X14235777Y-11929936D01*
X14235777Y-11929936D02*
X14226253Y-11910888D01*
X14226253Y-11910888D02*
X14216729Y-11872793D01*
X14216729Y-11872793D02*
X14216729Y-11825174D01*
X14216729Y-11825174D02*
X14226253Y-11787079D01*
X14226253Y-11787079D02*
X14235777Y-11768031D01*
X14235777Y-11768031D02*
X14245301Y-11758508D01*
X14245301Y-11758508D02*
X14264348Y-11748984D01*
X14426253Y-11948984D02*
X14464348Y-11948984D01*
X14464348Y-11948984D02*
X14483396Y-11939460D01*
X14483396Y-11939460D02*
X14492920Y-11929936D01*
X14492920Y-11929936D02*
X14511967Y-11901365D01*
X14511967Y-11901365D02*
X14521491Y-11863269D01*
X14521491Y-11863269D02*
X14521491Y-11787079D01*
X14521491Y-11787079D02*
X14511967Y-11768031D01*
X14511967Y-11768031D02*
X14502444Y-11758508D01*
X14502444Y-11758508D02*
X14483396Y-11748984D01*
X14483396Y-11748984D02*
X14445301Y-11748984D01*
X14445301Y-11748984D02*
X14426253Y-11758508D01*
X14426253Y-11758508D02*
X14416729Y-11768031D01*
X14416729Y-11768031D02*
X14407206Y-11787079D01*
X14407206Y-11787079D02*
X14407206Y-11834698D01*
X14407206Y-11834698D02*
X14416729Y-11853746D01*
X14416729Y-11853746D02*
X14426253Y-11863269D01*
X14426253Y-11863269D02*
X14445301Y-11872793D01*
X14445301Y-11872793D02*
X14483396Y-11872793D01*
X14483396Y-11872793D02*
X14502444Y-11863269D01*
X14502444Y-11863269D02*
X14511967Y-11853746D01*
X14511967Y-11853746D02*
X14521491Y-11834698D01*
X14645301Y-11748984D02*
X14664348Y-11748984D01*
X14664348Y-11748984D02*
X14683396Y-11758508D01*
X14683396Y-11758508D02*
X14692920Y-11768031D01*
X14692920Y-11768031D02*
X14702444Y-11787079D01*
X14702444Y-11787079D02*
X14711967Y-11825174D01*
X14711967Y-11825174D02*
X14711967Y-11872793D01*
X14711967Y-11872793D02*
X14702444Y-11910888D01*
X14702444Y-11910888D02*
X14692920Y-11929936D01*
X14692920Y-11929936D02*
X14683396Y-11939460D01*
X14683396Y-11939460D02*
X14664348Y-11948984D01*
X14664348Y-11948984D02*
X14645301Y-11948984D01*
X14645301Y-11948984D02*
X14626253Y-11939460D01*
X14626253Y-11939460D02*
X14616729Y-11929936D01*
X14616729Y-11929936D02*
X14607206Y-11910888D01*
X14607206Y-11910888D02*
X14597682Y-11872793D01*
X14597682Y-11872793D02*
X14597682Y-11825174D01*
X14597682Y-11825174D02*
X14607206Y-11787079D01*
X14607206Y-11787079D02*
X14616729Y-11768031D01*
X14616729Y-11768031D02*
X14626253Y-11758508D01*
X14626253Y-11758508D02*
X14645301Y-11748984D01*
X14788158Y-11768031D02*
X14797682Y-11758508D01*
X14797682Y-11758508D02*
X14816729Y-11748984D01*
X14816729Y-11748984D02*
X14864348Y-11748984D01*
X14864348Y-11748984D02*
X14883396Y-11758508D01*
X14883396Y-11758508D02*
X14892920Y-11768031D01*
X14892920Y-11768031D02*
X14902444Y-11787079D01*
X14902444Y-11787079D02*
X14902444Y-11806127D01*
X14902444Y-11806127D02*
X14892920Y-11834698D01*
X14892920Y-11834698D02*
X14778634Y-11948984D01*
X14778634Y-11948984D02*
X14902444Y-11948984D01*
X14978634Y-11748984D02*
X14978634Y-11787079D01*
X15054825Y-11748984D02*
X15054825Y-11787079D01*
X15350063Y-12025174D02*
X15340539Y-12015650D01*
X15340539Y-12015650D02*
X15321491Y-11987079D01*
X15321491Y-11987079D02*
X15311968Y-11968031D01*
X15311968Y-11968031D02*
X15302444Y-11939460D01*
X15302444Y-11939460D02*
X15292920Y-11891841D01*
X15292920Y-11891841D02*
X15292920Y-11853746D01*
X15292920Y-11853746D02*
X15302444Y-11806127D01*
X15302444Y-11806127D02*
X15311968Y-11777555D01*
X15311968Y-11777555D02*
X15321491Y-11758508D01*
X15321491Y-11758508D02*
X15340539Y-11729936D01*
X15340539Y-11729936D02*
X15350063Y-11720412D01*
X15407206Y-11748984D02*
X15531015Y-11748984D01*
X15531015Y-11748984D02*
X15464348Y-11825174D01*
X15464348Y-11825174D02*
X15492920Y-11825174D01*
X15492920Y-11825174D02*
X15511968Y-11834698D01*
X15511968Y-11834698D02*
X15521491Y-11844222D01*
X15521491Y-11844222D02*
X15531015Y-11863269D01*
X15531015Y-11863269D02*
X15531015Y-11910888D01*
X15531015Y-11910888D02*
X15521491Y-11929936D01*
X15521491Y-11929936D02*
X15511968Y-11939460D01*
X15511968Y-11939460D02*
X15492920Y-11948984D01*
X15492920Y-11948984D02*
X15435777Y-11948984D01*
X15435777Y-11948984D02*
X15416729Y-11939460D01*
X15416729Y-11939460D02*
X15407206Y-11929936D01*
X15769110Y-11948984D02*
X15769110Y-11748984D01*
X15854825Y-11948984D02*
X15854825Y-11844222D01*
X15854825Y-11844222D02*
X15845301Y-11825174D01*
X15845301Y-11825174D02*
X15826253Y-11815650D01*
X15826253Y-11815650D02*
X15797682Y-11815650D01*
X15797682Y-11815650D02*
X15778634Y-11825174D01*
X15778634Y-11825174D02*
X15769110Y-11834698D01*
X15978634Y-11948984D02*
X15959587Y-11939460D01*
X15959587Y-11939460D02*
X15950063Y-11929936D01*
X15950063Y-11929936D02*
X15940539Y-11910888D01*
X15940539Y-11910888D02*
X15940539Y-11853746D01*
X15940539Y-11853746D02*
X15950063Y-11834698D01*
X15950063Y-11834698D02*
X15959587Y-11825174D01*
X15959587Y-11825174D02*
X15978634Y-11815650D01*
X15978634Y-11815650D02*
X16007206Y-11815650D01*
X16007206Y-11815650D02*
X16026253Y-11825174D01*
X16026253Y-11825174D02*
X16035777Y-11834698D01*
X16035777Y-11834698D02*
X16045301Y-11853746D01*
X16045301Y-11853746D02*
X16045301Y-11910888D01*
X16045301Y-11910888D02*
X16035777Y-11929936D01*
X16035777Y-11929936D02*
X16026253Y-11939460D01*
X16026253Y-11939460D02*
X16007206Y-11948984D01*
X16007206Y-11948984D02*
X15978634Y-11948984D01*
X16159587Y-11948984D02*
X16140539Y-11939460D01*
X16140539Y-11939460D02*
X16131015Y-11920412D01*
X16131015Y-11920412D02*
X16131015Y-11748984D01*
X16311968Y-11939460D02*
X16292920Y-11948984D01*
X16292920Y-11948984D02*
X16254825Y-11948984D01*
X16254825Y-11948984D02*
X16235777Y-11939460D01*
X16235777Y-11939460D02*
X16226253Y-11920412D01*
X16226253Y-11920412D02*
X16226253Y-11844222D01*
X16226253Y-11844222D02*
X16235777Y-11825174D01*
X16235777Y-11825174D02*
X16254825Y-11815650D01*
X16254825Y-11815650D02*
X16292920Y-11815650D01*
X16292920Y-11815650D02*
X16311968Y-11825174D01*
X16311968Y-11825174D02*
X16321491Y-11844222D01*
X16321491Y-11844222D02*
X16321491Y-11863269D01*
X16321491Y-11863269D02*
X16226253Y-11882317D01*
X16397682Y-11939460D02*
X16416730Y-11948984D01*
X16416730Y-11948984D02*
X16454825Y-11948984D01*
X16454825Y-11948984D02*
X16473872Y-11939460D01*
X16473872Y-11939460D02*
X16483396Y-11920412D01*
X16483396Y-11920412D02*
X16483396Y-11910888D01*
X16483396Y-11910888D02*
X16473872Y-11891841D01*
X16473872Y-11891841D02*
X16454825Y-11882317D01*
X16454825Y-11882317D02*
X16426253Y-11882317D01*
X16426253Y-11882317D02*
X16407206Y-11872793D01*
X16407206Y-11872793D02*
X16397682Y-11853746D01*
X16397682Y-11853746D02*
X16397682Y-11844222D01*
X16397682Y-11844222D02*
X16407206Y-11825174D01*
X16407206Y-11825174D02*
X16426253Y-11815650D01*
X16426253Y-11815650D02*
X16454825Y-11815650D01*
X16454825Y-11815650D02*
X16473872Y-11825174D01*
X16550063Y-12025174D02*
X16559587Y-12015650D01*
X16559587Y-12015650D02*
X16578634Y-11987079D01*
X16578634Y-11987079D02*
X16588158Y-11968031D01*
X16588158Y-11968031D02*
X16597682Y-11939460D01*
X16597682Y-11939460D02*
X16607206Y-11891841D01*
X16607206Y-11891841D02*
X16607206Y-11853746D01*
X16607206Y-11853746D02*
X16597682Y-11806127D01*
X16597682Y-11806127D02*
X16588158Y-11777555D01*
X16588158Y-11777555D02*
X16578634Y-11758508D01*
X16578634Y-11758508D02*
X16559587Y-11729936D01*
X16559587Y-11729936D02*
X16550063Y-11720412D01*
X16911968Y-12025174D02*
X16902444Y-12015650D01*
X16902444Y-12015650D02*
X16883396Y-11987079D01*
X16883396Y-11987079D02*
X16873873Y-11968031D01*
X16873873Y-11968031D02*
X16864349Y-11939460D01*
X16864349Y-11939460D02*
X16854825Y-11891841D01*
X16854825Y-11891841D02*
X16854825Y-11853746D01*
X16854825Y-11853746D02*
X16864349Y-11806127D01*
X16864349Y-11806127D02*
X16873873Y-11777555D01*
X16873873Y-11777555D02*
X16883396Y-11758508D01*
X16883396Y-11758508D02*
X16902444Y-11729936D01*
X16902444Y-11729936D02*
X16911968Y-11720412D01*
X16988158Y-11815650D02*
X16988158Y-11948984D01*
X16988158Y-11834698D02*
X16997682Y-11825174D01*
X16997682Y-11825174D02*
X17016730Y-11815650D01*
X17016730Y-11815650D02*
X17045301Y-11815650D01*
X17045301Y-11815650D02*
X17064349Y-11825174D01*
X17064349Y-11825174D02*
X17073873Y-11844222D01*
X17073873Y-11844222D02*
X17073873Y-11948984D01*
X17197682Y-11948984D02*
X17178634Y-11939460D01*
X17178634Y-11939460D02*
X17169111Y-11929936D01*
X17169111Y-11929936D02*
X17159587Y-11910888D01*
X17159587Y-11910888D02*
X17159587Y-11853746D01*
X17159587Y-11853746D02*
X17169111Y-11834698D01*
X17169111Y-11834698D02*
X17178634Y-11825174D01*
X17178634Y-11825174D02*
X17197682Y-11815650D01*
X17197682Y-11815650D02*
X17226254Y-11815650D01*
X17226254Y-11815650D02*
X17245301Y-11825174D01*
X17245301Y-11825174D02*
X17254825Y-11834698D01*
X17254825Y-11834698D02*
X17264349Y-11853746D01*
X17264349Y-11853746D02*
X17264349Y-11910888D01*
X17264349Y-11910888D02*
X17254825Y-11929936D01*
X17254825Y-11929936D02*
X17245301Y-11939460D01*
X17245301Y-11939460D02*
X17226254Y-11948984D01*
X17226254Y-11948984D02*
X17197682Y-11948984D01*
X17321492Y-11815650D02*
X17397682Y-11815650D01*
X17350063Y-11748984D02*
X17350063Y-11920412D01*
X17350063Y-11920412D02*
X17359587Y-11939460D01*
X17359587Y-11939460D02*
X17378634Y-11948984D01*
X17378634Y-11948984D02*
X17397682Y-11948984D01*
X17616730Y-11815650D02*
X17616730Y-12015650D01*
X17616730Y-11825174D02*
X17635777Y-11815650D01*
X17635777Y-11815650D02*
X17673873Y-11815650D01*
X17673873Y-11815650D02*
X17692920Y-11825174D01*
X17692920Y-11825174D02*
X17702444Y-11834698D01*
X17702444Y-11834698D02*
X17711968Y-11853746D01*
X17711968Y-11853746D02*
X17711968Y-11910888D01*
X17711968Y-11910888D02*
X17702444Y-11929936D01*
X17702444Y-11929936D02*
X17692920Y-11939460D01*
X17692920Y-11939460D02*
X17673873Y-11948984D01*
X17673873Y-11948984D02*
X17635777Y-11948984D01*
X17635777Y-11948984D02*
X17616730Y-11939460D01*
X17826254Y-11948984D02*
X17807206Y-11939460D01*
X17807206Y-11939460D02*
X17797682Y-11920412D01*
X17797682Y-11920412D02*
X17797682Y-11748984D01*
X17988158Y-11948984D02*
X17988158Y-11844222D01*
X17988158Y-11844222D02*
X17978635Y-11825174D01*
X17978635Y-11825174D02*
X17959587Y-11815650D01*
X17959587Y-11815650D02*
X17921492Y-11815650D01*
X17921492Y-11815650D02*
X17902444Y-11825174D01*
X17988158Y-11939460D02*
X17969111Y-11948984D01*
X17969111Y-11948984D02*
X17921492Y-11948984D01*
X17921492Y-11948984D02*
X17902444Y-11939460D01*
X17902444Y-11939460D02*
X17892920Y-11920412D01*
X17892920Y-11920412D02*
X17892920Y-11901365D01*
X17892920Y-11901365D02*
X17902444Y-11882317D01*
X17902444Y-11882317D02*
X17921492Y-11872793D01*
X17921492Y-11872793D02*
X17969111Y-11872793D01*
X17969111Y-11872793D02*
X17988158Y-11863269D01*
X18054825Y-11815650D02*
X18131015Y-11815650D01*
X18083396Y-11748984D02*
X18083396Y-11920412D01*
X18083396Y-11920412D02*
X18092920Y-11939460D01*
X18092920Y-11939460D02*
X18111968Y-11948984D01*
X18111968Y-11948984D02*
X18131015Y-11948984D01*
X18273873Y-11939460D02*
X18254825Y-11948984D01*
X18254825Y-11948984D02*
X18216730Y-11948984D01*
X18216730Y-11948984D02*
X18197682Y-11939460D01*
X18197682Y-11939460D02*
X18188158Y-11920412D01*
X18188158Y-11920412D02*
X18188158Y-11844222D01*
X18188158Y-11844222D02*
X18197682Y-11825174D01*
X18197682Y-11825174D02*
X18216730Y-11815650D01*
X18216730Y-11815650D02*
X18254825Y-11815650D01*
X18254825Y-11815650D02*
X18273873Y-11825174D01*
X18273873Y-11825174D02*
X18283396Y-11844222D01*
X18283396Y-11844222D02*
X18283396Y-11863269D01*
X18283396Y-11863269D02*
X18188158Y-11882317D01*
X18454825Y-11948984D02*
X18454825Y-11748984D01*
X18454825Y-11939460D02*
X18435777Y-11948984D01*
X18435777Y-11948984D02*
X18397682Y-11948984D01*
X18397682Y-11948984D02*
X18378635Y-11939460D01*
X18378635Y-11939460D02*
X18369111Y-11929936D01*
X18369111Y-11929936D02*
X18359587Y-11910888D01*
X18359587Y-11910888D02*
X18359587Y-11853746D01*
X18359587Y-11853746D02*
X18369111Y-11834698D01*
X18369111Y-11834698D02*
X18378635Y-11825174D01*
X18378635Y-11825174D02*
X18397682Y-11815650D01*
X18397682Y-11815650D02*
X18435777Y-11815650D01*
X18435777Y-11815650D02*
X18454825Y-11825174D01*
X18531016Y-12025174D02*
X18540539Y-12015650D01*
X18540539Y-12015650D02*
X18559587Y-11987079D01*
X18559587Y-11987079D02*
X18569111Y-11968031D01*
X18569111Y-11968031D02*
X18578635Y-11939460D01*
X18578635Y-11939460D02*
X18588158Y-11891841D01*
X18588158Y-11891841D02*
X18588158Y-11853746D01*
X18588158Y-11853746D02*
X18578635Y-11806127D01*
X18578635Y-11806127D02*
X18569111Y-11777555D01*
X18569111Y-11777555D02*
X18559587Y-11758508D01*
X18559587Y-11758508D02*
X18540539Y-11729936D01*
X18540539Y-11729936D02*
X18531016Y-11720412D01*
X11775000Y-12177500D02*
G75*
G02*
X11575000Y-12177500I-100000J0D01*
G01*
X11575000Y-12177500D02*
G75*
G02*
X11775000Y-12177500I100000J0D01*
G01*
X12016729Y-12068984D02*
X12140539Y-12068984D01*
X12140539Y-12068984D02*
X12073872Y-12145174D01*
X12073872Y-12145174D02*
X12102443Y-12145174D01*
X12102443Y-12145174D02*
X12121491Y-12154698D01*
X12121491Y-12154698D02*
X12131015Y-12164222D01*
X12131015Y-12164222D02*
X12140539Y-12183269D01*
X12140539Y-12183269D02*
X12140539Y-12230888D01*
X12140539Y-12230888D02*
X12131015Y-12249936D01*
X12131015Y-12249936D02*
X12121491Y-12259460D01*
X12121491Y-12259460D02*
X12102443Y-12268984D01*
X12102443Y-12268984D02*
X12045301Y-12268984D01*
X12045301Y-12268984D02*
X12026253Y-12259460D01*
X12026253Y-12259460D02*
X12016729Y-12249936D01*
X12226253Y-12249936D02*
X12235777Y-12259460D01*
X12235777Y-12259460D02*
X12226253Y-12268984D01*
X12226253Y-12268984D02*
X12216729Y-12259460D01*
X12216729Y-12259460D02*
X12226253Y-12249936D01*
X12226253Y-12249936D02*
X12226253Y-12268984D01*
X12416729Y-12068984D02*
X12321491Y-12068984D01*
X12321491Y-12068984D02*
X12311967Y-12164222D01*
X12311967Y-12164222D02*
X12321491Y-12154698D01*
X12321491Y-12154698D02*
X12340539Y-12145174D01*
X12340539Y-12145174D02*
X12388158Y-12145174D01*
X12388158Y-12145174D02*
X12407205Y-12154698D01*
X12407205Y-12154698D02*
X12416729Y-12164222D01*
X12416729Y-12164222D02*
X12426253Y-12183269D01*
X12426253Y-12183269D02*
X12426253Y-12230888D01*
X12426253Y-12230888D02*
X12416729Y-12249936D01*
X12416729Y-12249936D02*
X12407205Y-12259460D01*
X12407205Y-12259460D02*
X12388158Y-12268984D01*
X12388158Y-12268984D02*
X12340539Y-12268984D01*
X12340539Y-12268984D02*
X12321491Y-12259460D01*
X12321491Y-12259460D02*
X12311967Y-12249936D01*
X12550062Y-12068984D02*
X12569110Y-12068984D01*
X12569110Y-12068984D02*
X12588158Y-12078508D01*
X12588158Y-12078508D02*
X12597682Y-12088031D01*
X12597682Y-12088031D02*
X12607205Y-12107079D01*
X12607205Y-12107079D02*
X12616729Y-12145174D01*
X12616729Y-12145174D02*
X12616729Y-12192793D01*
X12616729Y-12192793D02*
X12607205Y-12230888D01*
X12607205Y-12230888D02*
X12597682Y-12249936D01*
X12597682Y-12249936D02*
X12588158Y-12259460D01*
X12588158Y-12259460D02*
X12569110Y-12268984D01*
X12569110Y-12268984D02*
X12550062Y-12268984D01*
X12550062Y-12268984D02*
X12531015Y-12259460D01*
X12531015Y-12259460D02*
X12521491Y-12249936D01*
X12521491Y-12249936D02*
X12511967Y-12230888D01*
X12511967Y-12230888D02*
X12502443Y-12192793D01*
X12502443Y-12192793D02*
X12502443Y-12145174D01*
X12502443Y-12145174D02*
X12511967Y-12107079D01*
X12511967Y-12107079D02*
X12521491Y-12088031D01*
X12521491Y-12088031D02*
X12531015Y-12078508D01*
X12531015Y-12078508D02*
X12550062Y-12068984D01*
X12740539Y-12068984D02*
X12759586Y-12068984D01*
X12759586Y-12068984D02*
X12778634Y-12078508D01*
X12778634Y-12078508D02*
X12788158Y-12088031D01*
X12788158Y-12088031D02*
X12797682Y-12107079D01*
X12797682Y-12107079D02*
X12807205Y-12145174D01*
X12807205Y-12145174D02*
X12807205Y-12192793D01*
X12807205Y-12192793D02*
X12797682Y-12230888D01*
X12797682Y-12230888D02*
X12788158Y-12249936D01*
X12788158Y-12249936D02*
X12778634Y-12259460D01*
X12778634Y-12259460D02*
X12759586Y-12268984D01*
X12759586Y-12268984D02*
X12740539Y-12268984D01*
X12740539Y-12268984D02*
X12721491Y-12259460D01*
X12721491Y-12259460D02*
X12711967Y-12249936D01*
X12711967Y-12249936D02*
X12702443Y-12230888D01*
X12702443Y-12230888D02*
X12692920Y-12192793D01*
X12692920Y-12192793D02*
X12692920Y-12145174D01*
X12692920Y-12145174D02*
X12702443Y-12107079D01*
X12702443Y-12107079D02*
X12711967Y-12088031D01*
X12711967Y-12088031D02*
X12721491Y-12078508D01*
X12721491Y-12078508D02*
X12740539Y-12068984D01*
X12892920Y-12268984D02*
X12892920Y-12135650D01*
X12892920Y-12154698D02*
X12902443Y-12145174D01*
X12902443Y-12145174D02*
X12921491Y-12135650D01*
X12921491Y-12135650D02*
X12950063Y-12135650D01*
X12950063Y-12135650D02*
X12969110Y-12145174D01*
X12969110Y-12145174D02*
X12978634Y-12164222D01*
X12978634Y-12164222D02*
X12978634Y-12268984D01*
X12978634Y-12164222D02*
X12988158Y-12145174D01*
X12988158Y-12145174D02*
X13007205Y-12135650D01*
X13007205Y-12135650D02*
X13035777Y-12135650D01*
X13035777Y-12135650D02*
X13054824Y-12145174D01*
X13054824Y-12145174D02*
X13064348Y-12164222D01*
X13064348Y-12164222D02*
X13064348Y-12268984D01*
X13159586Y-12268984D02*
X13159586Y-12135650D01*
X13159586Y-12154698D02*
X13169110Y-12145174D01*
X13169110Y-12145174D02*
X13188158Y-12135650D01*
X13188158Y-12135650D02*
X13216729Y-12135650D01*
X13216729Y-12135650D02*
X13235777Y-12145174D01*
X13235777Y-12145174D02*
X13245301Y-12164222D01*
X13245301Y-12164222D02*
X13245301Y-12268984D01*
X13245301Y-12164222D02*
X13254824Y-12145174D01*
X13254824Y-12145174D02*
X13273872Y-12135650D01*
X13273872Y-12135650D02*
X13302443Y-12135650D01*
X13302443Y-12135650D02*
X13321491Y-12145174D01*
X13321491Y-12145174D02*
X13331015Y-12164222D01*
X13331015Y-12164222D02*
X13331015Y-12268984D01*
X13721491Y-12059460D02*
X13550063Y-12316603D01*
X13978634Y-12068984D02*
X13997682Y-12068984D01*
X13997682Y-12068984D02*
X14016729Y-12078508D01*
X14016729Y-12078508D02*
X14026253Y-12088031D01*
X14026253Y-12088031D02*
X14035777Y-12107079D01*
X14035777Y-12107079D02*
X14045301Y-12145174D01*
X14045301Y-12145174D02*
X14045301Y-12192793D01*
X14045301Y-12192793D02*
X14035777Y-12230888D01*
X14035777Y-12230888D02*
X14026253Y-12249936D01*
X14026253Y-12249936D02*
X14016729Y-12259460D01*
X14016729Y-12259460D02*
X13997682Y-12268984D01*
X13997682Y-12268984D02*
X13978634Y-12268984D01*
X13978634Y-12268984D02*
X13959586Y-12259460D01*
X13959586Y-12259460D02*
X13950063Y-12249936D01*
X13950063Y-12249936D02*
X13940539Y-12230888D01*
X13940539Y-12230888D02*
X13931015Y-12192793D01*
X13931015Y-12192793D02*
X13931015Y-12145174D01*
X13931015Y-12145174D02*
X13940539Y-12107079D01*
X13940539Y-12107079D02*
X13950063Y-12088031D01*
X13950063Y-12088031D02*
X13959586Y-12078508D01*
X13959586Y-12078508D02*
X13978634Y-12068984D01*
X14131015Y-12249936D02*
X14140539Y-12259460D01*
X14140539Y-12259460D02*
X14131015Y-12268984D01*
X14131015Y-12268984D02*
X14121491Y-12259460D01*
X14121491Y-12259460D02*
X14131015Y-12249936D01*
X14131015Y-12249936D02*
X14131015Y-12268984D01*
X14331015Y-12268984D02*
X14216729Y-12268984D01*
X14273872Y-12268984D02*
X14273872Y-12068984D01*
X14273872Y-12068984D02*
X14254825Y-12097555D01*
X14254825Y-12097555D02*
X14235777Y-12116603D01*
X14235777Y-12116603D02*
X14216729Y-12126127D01*
X14397682Y-12068984D02*
X14521491Y-12068984D01*
X14521491Y-12068984D02*
X14454825Y-12145174D01*
X14454825Y-12145174D02*
X14483396Y-12145174D01*
X14483396Y-12145174D02*
X14502444Y-12154698D01*
X14502444Y-12154698D02*
X14511967Y-12164222D01*
X14511967Y-12164222D02*
X14521491Y-12183269D01*
X14521491Y-12183269D02*
X14521491Y-12230888D01*
X14521491Y-12230888D02*
X14511967Y-12249936D01*
X14511967Y-12249936D02*
X14502444Y-12259460D01*
X14502444Y-12259460D02*
X14483396Y-12268984D01*
X14483396Y-12268984D02*
X14426253Y-12268984D01*
X14426253Y-12268984D02*
X14407206Y-12259460D01*
X14407206Y-12259460D02*
X14397682Y-12249936D01*
X14588158Y-12068984D02*
X14721491Y-12068984D01*
X14721491Y-12068984D02*
X14635777Y-12268984D01*
X14826253Y-12154698D02*
X14807206Y-12145174D01*
X14807206Y-12145174D02*
X14797682Y-12135650D01*
X14797682Y-12135650D02*
X14788158Y-12116603D01*
X14788158Y-12116603D02*
X14788158Y-12107079D01*
X14788158Y-12107079D02*
X14797682Y-12088031D01*
X14797682Y-12088031D02*
X14807206Y-12078508D01*
X14807206Y-12078508D02*
X14826253Y-12068984D01*
X14826253Y-12068984D02*
X14864348Y-12068984D01*
X14864348Y-12068984D02*
X14883396Y-12078508D01*
X14883396Y-12078508D02*
X14892920Y-12088031D01*
X14892920Y-12088031D02*
X14902444Y-12107079D01*
X14902444Y-12107079D02*
X14902444Y-12116603D01*
X14902444Y-12116603D02*
X14892920Y-12135650D01*
X14892920Y-12135650D02*
X14883396Y-12145174D01*
X14883396Y-12145174D02*
X14864348Y-12154698D01*
X14864348Y-12154698D02*
X14826253Y-12154698D01*
X14826253Y-12154698D02*
X14807206Y-12164222D01*
X14807206Y-12164222D02*
X14797682Y-12173746D01*
X14797682Y-12173746D02*
X14788158Y-12192793D01*
X14788158Y-12192793D02*
X14788158Y-12230888D01*
X14788158Y-12230888D02*
X14797682Y-12249936D01*
X14797682Y-12249936D02*
X14807206Y-12259460D01*
X14807206Y-12259460D02*
X14826253Y-12268984D01*
X14826253Y-12268984D02*
X14864348Y-12268984D01*
X14864348Y-12268984D02*
X14883396Y-12259460D01*
X14883396Y-12259460D02*
X14892920Y-12249936D01*
X14892920Y-12249936D02*
X14902444Y-12230888D01*
X14902444Y-12230888D02*
X14902444Y-12192793D01*
X14902444Y-12192793D02*
X14892920Y-12173746D01*
X14892920Y-12173746D02*
X14883396Y-12164222D01*
X14883396Y-12164222D02*
X14864348Y-12154698D01*
X14978634Y-12068984D02*
X14978634Y-12107079D01*
X15054825Y-12068984D02*
X15054825Y-12107079D01*
X15350063Y-12345174D02*
X15340539Y-12335650D01*
X15340539Y-12335650D02*
X15321491Y-12307079D01*
X15321491Y-12307079D02*
X15311968Y-12288031D01*
X15311968Y-12288031D02*
X15302444Y-12259460D01*
X15302444Y-12259460D02*
X15292920Y-12211841D01*
X15292920Y-12211841D02*
X15292920Y-12173746D01*
X15292920Y-12173746D02*
X15302444Y-12126127D01*
X15302444Y-12126127D02*
X15311968Y-12097555D01*
X15311968Y-12097555D02*
X15321491Y-12078508D01*
X15321491Y-12078508D02*
X15340539Y-12049936D01*
X15340539Y-12049936D02*
X15350063Y-12040412D01*
X15531015Y-12268984D02*
X15416729Y-12268984D01*
X15473872Y-12268984D02*
X15473872Y-12068984D01*
X15473872Y-12068984D02*
X15454825Y-12097555D01*
X15454825Y-12097555D02*
X15435777Y-12116603D01*
X15435777Y-12116603D02*
X15416729Y-12126127D01*
X15769110Y-12268984D02*
X15769110Y-12068984D01*
X15854825Y-12268984D02*
X15854825Y-12164222D01*
X15854825Y-12164222D02*
X15845301Y-12145174D01*
X15845301Y-12145174D02*
X15826253Y-12135650D01*
X15826253Y-12135650D02*
X15797682Y-12135650D01*
X15797682Y-12135650D02*
X15778634Y-12145174D01*
X15778634Y-12145174D02*
X15769110Y-12154698D01*
X15978634Y-12268984D02*
X15959587Y-12259460D01*
X15959587Y-12259460D02*
X15950063Y-12249936D01*
X15950063Y-12249936D02*
X15940539Y-12230888D01*
X15940539Y-12230888D02*
X15940539Y-12173746D01*
X15940539Y-12173746D02*
X15950063Y-12154698D01*
X15950063Y-12154698D02*
X15959587Y-12145174D01*
X15959587Y-12145174D02*
X15978634Y-12135650D01*
X15978634Y-12135650D02*
X16007206Y-12135650D01*
X16007206Y-12135650D02*
X16026253Y-12145174D01*
X16026253Y-12145174D02*
X16035777Y-12154698D01*
X16035777Y-12154698D02*
X16045301Y-12173746D01*
X16045301Y-12173746D02*
X16045301Y-12230888D01*
X16045301Y-12230888D02*
X16035777Y-12249936D01*
X16035777Y-12249936D02*
X16026253Y-12259460D01*
X16026253Y-12259460D02*
X16007206Y-12268984D01*
X16007206Y-12268984D02*
X15978634Y-12268984D01*
X16159587Y-12268984D02*
X16140539Y-12259460D01*
X16140539Y-12259460D02*
X16131015Y-12240412D01*
X16131015Y-12240412D02*
X16131015Y-12068984D01*
X16311968Y-12259460D02*
X16292920Y-12268984D01*
X16292920Y-12268984D02*
X16254825Y-12268984D01*
X16254825Y-12268984D02*
X16235777Y-12259460D01*
X16235777Y-12259460D02*
X16226253Y-12240412D01*
X16226253Y-12240412D02*
X16226253Y-12164222D01*
X16226253Y-12164222D02*
X16235777Y-12145174D01*
X16235777Y-12145174D02*
X16254825Y-12135650D01*
X16254825Y-12135650D02*
X16292920Y-12135650D01*
X16292920Y-12135650D02*
X16311968Y-12145174D01*
X16311968Y-12145174D02*
X16321491Y-12164222D01*
X16321491Y-12164222D02*
X16321491Y-12183269D01*
X16321491Y-12183269D02*
X16226253Y-12202317D01*
X16388158Y-12345174D02*
X16397682Y-12335650D01*
X16397682Y-12335650D02*
X16416730Y-12307079D01*
X16416730Y-12307079D02*
X16426253Y-12288031D01*
X16426253Y-12288031D02*
X16435777Y-12259460D01*
X16435777Y-12259460D02*
X16445301Y-12211841D01*
X16445301Y-12211841D02*
X16445301Y-12173746D01*
X16445301Y-12173746D02*
X16435777Y-12126127D01*
X16435777Y-12126127D02*
X16426253Y-12097555D01*
X16426253Y-12097555D02*
X16416730Y-12078508D01*
X16416730Y-12078508D02*
X16397682Y-12049936D01*
X16397682Y-12049936D02*
X16388158Y-12040412D01*
X16750063Y-12345174D02*
X16740539Y-12335650D01*
X16740539Y-12335650D02*
X16721491Y-12307079D01*
X16721491Y-12307079D02*
X16711968Y-12288031D01*
X16711968Y-12288031D02*
X16702444Y-12259460D01*
X16702444Y-12259460D02*
X16692920Y-12211841D01*
X16692920Y-12211841D02*
X16692920Y-12173746D01*
X16692920Y-12173746D02*
X16702444Y-12126127D01*
X16702444Y-12126127D02*
X16711968Y-12097555D01*
X16711968Y-12097555D02*
X16721491Y-12078508D01*
X16721491Y-12078508D02*
X16740539Y-12049936D01*
X16740539Y-12049936D02*
X16750063Y-12040412D01*
X16826253Y-12135650D02*
X16826253Y-12268984D01*
X16826253Y-12154698D02*
X16835777Y-12145174D01*
X16835777Y-12145174D02*
X16854825Y-12135650D01*
X16854825Y-12135650D02*
X16883396Y-12135650D01*
X16883396Y-12135650D02*
X16902444Y-12145174D01*
X16902444Y-12145174D02*
X16911968Y-12164222D01*
X16911968Y-12164222D02*
X16911968Y-12268984D01*
X17035777Y-12268984D02*
X17016730Y-12259460D01*
X17016730Y-12259460D02*
X17007206Y-12249936D01*
X17007206Y-12249936D02*
X16997682Y-12230888D01*
X16997682Y-12230888D02*
X16997682Y-12173746D01*
X16997682Y-12173746D02*
X17007206Y-12154698D01*
X17007206Y-12154698D02*
X17016730Y-12145174D01*
X17016730Y-12145174D02*
X17035777Y-12135650D01*
X17035777Y-12135650D02*
X17064349Y-12135650D01*
X17064349Y-12135650D02*
X17083396Y-12145174D01*
X17083396Y-12145174D02*
X17092920Y-12154698D01*
X17092920Y-12154698D02*
X17102444Y-12173746D01*
X17102444Y-12173746D02*
X17102444Y-12230888D01*
X17102444Y-12230888D02*
X17092920Y-12249936D01*
X17092920Y-12249936D02*
X17083396Y-12259460D01*
X17083396Y-12259460D02*
X17064349Y-12268984D01*
X17064349Y-12268984D02*
X17035777Y-12268984D01*
X17159587Y-12135650D02*
X17235777Y-12135650D01*
X17188158Y-12068984D02*
X17188158Y-12240412D01*
X17188158Y-12240412D02*
X17197682Y-12259460D01*
X17197682Y-12259460D02*
X17216730Y-12268984D01*
X17216730Y-12268984D02*
X17235777Y-12268984D01*
X17454825Y-12135650D02*
X17454825Y-12335650D01*
X17454825Y-12145174D02*
X17473873Y-12135650D01*
X17473873Y-12135650D02*
X17511968Y-12135650D01*
X17511968Y-12135650D02*
X17531015Y-12145174D01*
X17531015Y-12145174D02*
X17540539Y-12154698D01*
X17540539Y-12154698D02*
X17550063Y-12173746D01*
X17550063Y-12173746D02*
X17550063Y-12230888D01*
X17550063Y-12230888D02*
X17540539Y-12249936D01*
X17540539Y-12249936D02*
X17531015Y-12259460D01*
X17531015Y-12259460D02*
X17511968Y-12268984D01*
X17511968Y-12268984D02*
X17473873Y-12268984D01*
X17473873Y-12268984D02*
X17454825Y-12259460D01*
X17664349Y-12268984D02*
X17645301Y-12259460D01*
X17645301Y-12259460D02*
X17635777Y-12240412D01*
X17635777Y-12240412D02*
X17635777Y-12068984D01*
X17826254Y-12268984D02*
X17826254Y-12164222D01*
X17826254Y-12164222D02*
X17816730Y-12145174D01*
X17816730Y-12145174D02*
X17797682Y-12135650D01*
X17797682Y-12135650D02*
X17759587Y-12135650D01*
X17759587Y-12135650D02*
X17740539Y-12145174D01*
X17826254Y-12259460D02*
X17807206Y-12268984D01*
X17807206Y-12268984D02*
X17759587Y-12268984D01*
X17759587Y-12268984D02*
X17740539Y-12259460D01*
X17740539Y-12259460D02*
X17731015Y-12240412D01*
X17731015Y-12240412D02*
X17731015Y-12221365D01*
X17731015Y-12221365D02*
X17740539Y-12202317D01*
X17740539Y-12202317D02*
X17759587Y-12192793D01*
X17759587Y-12192793D02*
X17807206Y-12192793D01*
X17807206Y-12192793D02*
X17826254Y-12183269D01*
X17892920Y-12135650D02*
X17969111Y-12135650D01*
X17921492Y-12068984D02*
X17921492Y-12240412D01*
X17921492Y-12240412D02*
X17931015Y-12259460D01*
X17931015Y-12259460D02*
X17950063Y-12268984D01*
X17950063Y-12268984D02*
X17969111Y-12268984D01*
X18111968Y-12259460D02*
X18092920Y-12268984D01*
X18092920Y-12268984D02*
X18054825Y-12268984D01*
X18054825Y-12268984D02*
X18035777Y-12259460D01*
X18035777Y-12259460D02*
X18026254Y-12240412D01*
X18026254Y-12240412D02*
X18026254Y-12164222D01*
X18026254Y-12164222D02*
X18035777Y-12145174D01*
X18035777Y-12145174D02*
X18054825Y-12135650D01*
X18054825Y-12135650D02*
X18092920Y-12135650D01*
X18092920Y-12135650D02*
X18111968Y-12145174D01*
X18111968Y-12145174D02*
X18121492Y-12164222D01*
X18121492Y-12164222D02*
X18121492Y-12183269D01*
X18121492Y-12183269D02*
X18026254Y-12202317D01*
X18292920Y-12268984D02*
X18292920Y-12068984D01*
X18292920Y-12259460D02*
X18273873Y-12268984D01*
X18273873Y-12268984D02*
X18235777Y-12268984D01*
X18235777Y-12268984D02*
X18216730Y-12259460D01*
X18216730Y-12259460D02*
X18207206Y-12249936D01*
X18207206Y-12249936D02*
X18197682Y-12230888D01*
X18197682Y-12230888D02*
X18197682Y-12173746D01*
X18197682Y-12173746D02*
X18207206Y-12154698D01*
X18207206Y-12154698D02*
X18216730Y-12145174D01*
X18216730Y-12145174D02*
X18235777Y-12135650D01*
X18235777Y-12135650D02*
X18273873Y-12135650D01*
X18273873Y-12135650D02*
X18292920Y-12145174D01*
X18369111Y-12345174D02*
X18378635Y-12335650D01*
X18378635Y-12335650D02*
X18397682Y-12307079D01*
X18397682Y-12307079D02*
X18407206Y-12288031D01*
X18407206Y-12288031D02*
X18416730Y-12259460D01*
X18416730Y-12259460D02*
X18426254Y-12211841D01*
X18426254Y-12211841D02*
X18426254Y-12173746D01*
X18426254Y-12173746D02*
X18416730Y-12126127D01*
X18416730Y-12126127D02*
X18407206Y-12097555D01*
X18407206Y-12097555D02*
X18397682Y-12078508D01*
X18397682Y-12078508D02*
X18378635Y-12049936D01*
X18378635Y-12049936D02*
X18369111Y-12040412D01*
M02*
