%TF.GenerationSoftware,KiCad,Pcbnew,8.0.5*%
%TF.CreationDate,2025-11-20T22:31:32-08:00*%
%TF.ProjectId,receiver,72656365-6976-4657-922e-6b696361645f,rev?*%
%TF.SameCoordinates,Original*%
%TF.FileFunction,Drillmap*%
%TF.FilePolarity,Positive*%
%FSLAX45Y45*%
G04 Gerber Fmt 4.5, Leading zero omitted, Abs format (unit mm)*
G04 Created by KiCad (PCBNEW 8.0.5) date 2025-11-20 22:31:32*
%MOMM*%
%LPD*%
G01*
G04 APERTURE LIST*
%ADD10C,0.050000*%
%ADD11C,0.200000*%
%ADD12C,0.100000*%
%ADD13C,0.101600*%
%ADD14C,0.250000*%
G04 APERTURE END LIST*
D10*
X14840000Y-4422500D02*
X14840000Y-11215000D01*
X11777500Y-11215000D02*
X11777500Y-4422500D01*
X14840000Y-4422500D02*
X11777500Y-4422500D01*
X14840000Y-11215000D02*
X11777500Y-11215000D01*
D11*
D12*
X11929000Y-6895000D02*
X11959000Y-6925000D01*
X11959000Y-6895000D02*
X11929000Y-6925000D01*
X11937000Y-10065000D02*
X11967000Y-10095000D01*
X11967000Y-10065000D02*
X11937000Y-10095000D01*
X12013000Y-6701825D02*
X12043000Y-6731825D01*
X12043000Y-6701825D02*
X12013000Y-6731825D01*
X12036000Y-9324000D02*
X12066000Y-9354000D01*
X12066000Y-9324000D02*
X12036000Y-9354000D01*
X12095000Y-6877000D02*
X12125000Y-6907000D01*
X12125000Y-6877000D02*
X12095000Y-6907000D01*
X12235000Y-10081000D02*
X12265000Y-10111000D01*
X12265000Y-10081000D02*
X12235000Y-10111000D01*
X12387000Y-6866000D02*
X12417000Y-6896000D01*
X12417000Y-6866000D02*
X12387000Y-6896000D01*
X12439000Y-4960000D02*
X12469000Y-4990000D01*
X12469000Y-4960000D02*
X12439000Y-4990000D01*
X12483000Y-6866000D02*
X12513000Y-6896000D01*
X12513000Y-6866000D02*
X12483000Y-6896000D01*
X12515000Y-6460000D02*
X12545000Y-6490000D01*
X12545000Y-6460000D02*
X12515000Y-6490000D01*
X12707000Y-4960000D02*
X12737000Y-4990000D01*
X12737000Y-4960000D02*
X12707000Y-4990000D01*
X12733000Y-5772000D02*
X12763000Y-5802000D01*
X12763000Y-5772000D02*
X12733000Y-5802000D01*
X12734000Y-5623000D02*
X12764000Y-5653000D01*
X12764000Y-5623000D02*
X12734000Y-5653000D01*
X13539000Y-6330000D02*
X13569000Y-6360000D01*
X13569000Y-6330000D02*
X13539000Y-6360000D01*
X13555000Y-5309000D02*
X13585000Y-5339000D01*
X13585000Y-5309000D02*
X13555000Y-5339000D01*
X13557000Y-5857000D02*
X13587000Y-5887000D01*
X13587000Y-5857000D02*
X13557000Y-5887000D01*
X13560851Y-4859851D02*
X13590851Y-4889851D01*
X13590851Y-4859851D02*
X13560851Y-4889851D01*
X13621000Y-5021000D02*
X13651000Y-5051000D01*
X13651000Y-5021000D02*
X13621000Y-5051000D01*
X13641880Y-5976880D02*
X13671880Y-6006880D01*
X13671880Y-5976880D02*
X13641880Y-6006880D01*
X13657000Y-6620000D02*
X13687000Y-6650000D01*
X13687000Y-6620000D02*
X13657000Y-6650000D01*
X13666000Y-8569000D02*
X13696000Y-8599000D01*
X13696000Y-8569000D02*
X13666000Y-8599000D01*
X13755000Y-8900000D02*
X13785000Y-8930000D01*
X13785000Y-8900000D02*
X13755000Y-8930000D01*
X13777000Y-6713000D02*
X13807000Y-6743000D01*
X13807000Y-6713000D02*
X13777000Y-6743000D01*
X13871000Y-4960000D02*
X13901000Y-4990000D01*
X13901000Y-4960000D02*
X13871000Y-4990000D01*
X14028000Y-7935000D02*
X14058000Y-7965000D01*
X14058000Y-7935000D02*
X14028000Y-7965000D01*
X14065000Y-8975000D02*
X14095000Y-9005000D01*
X14095000Y-8975000D02*
X14065000Y-9005000D01*
X14165000Y-7650000D02*
X14195000Y-7680000D01*
X14195000Y-7650000D02*
X14165000Y-7680000D01*
X14236000Y-10070000D02*
X14266000Y-10100000D01*
X14266000Y-10070000D02*
X14236000Y-10100000D01*
X14322000Y-9293000D02*
X14352000Y-9323000D01*
X14352000Y-9293000D02*
X14322000Y-9323000D01*
X14534000Y-10064000D02*
X14564000Y-10094000D01*
X14564000Y-10064000D02*
X14534000Y-10094000D01*
X14604000Y-9218000D02*
X14634000Y-9248000D01*
X14634000Y-9218000D02*
X14604000Y-9248000D01*
X14687000Y-6712000D02*
X14717000Y-6742000D01*
X14717000Y-6712000D02*
X14687000Y-6742000D01*
X12817000Y-8981000D02*
G75*
G02*
X12737000Y-8981000I-40000J0D01*
G01*
X12737000Y-8981000D02*
G75*
G02*
X12817000Y-8981000I40000J0D01*
G01*
X12817000Y-9743000D02*
G75*
G02*
X12737000Y-9743000I-40000J0D01*
G01*
X12737000Y-9743000D02*
G75*
G02*
X12817000Y-9743000I40000J0D01*
G01*
X13071000Y-8981000D02*
G75*
G02*
X12991000Y-8981000I-40000J0D01*
G01*
X12991000Y-8981000D02*
G75*
G02*
X13071000Y-8981000I40000J0D01*
G01*
X13071000Y-9743000D02*
G75*
G02*
X12991000Y-9743000I-40000J0D01*
G01*
X12991000Y-9743000D02*
G75*
G02*
X13071000Y-9743000I40000J0D01*
G01*
X13325000Y-8981000D02*
G75*
G02*
X13245000Y-8981000I-40000J0D01*
G01*
X13245000Y-8981000D02*
G75*
G02*
X13325000Y-8981000I40000J0D01*
G01*
X13325000Y-9743000D02*
G75*
G02*
X13245000Y-9743000I-40000J0D01*
G01*
X13245000Y-9743000D02*
G75*
G02*
X13325000Y-9743000I40000J0D01*
G01*
X13579000Y-8981000D02*
G75*
G02*
X13499000Y-8981000I-40000J0D01*
G01*
X13499000Y-8981000D02*
G75*
G02*
X13579000Y-8981000I40000J0D01*
G01*
X13579000Y-9743000D02*
G75*
G02*
X13499000Y-9743000I-40000J0D01*
G01*
X13499000Y-9743000D02*
G75*
G02*
X13579000Y-9743000I40000J0D01*
G01*
X11932000Y-5498500D02*
X11932000Y-5597500D01*
X11882500Y-5548000D02*
X11981500Y-5548000D01*
X11932000Y-6148500D02*
X11932000Y-6247500D01*
X11882500Y-6198000D02*
X11981500Y-6198000D01*
X12382000Y-5498500D02*
X12382000Y-5597500D01*
X12332500Y-5548000D02*
X12431500Y-5548000D01*
X12382000Y-6148500D02*
X12382000Y-6247500D01*
X12332500Y-6198000D02*
X12431500Y-6198000D01*
X12024356Y-5254356D02*
X12024356Y-5183644D01*
X11953644Y-5183644D01*
X11953644Y-5254356D01*
X12024356Y-5254356D01*
X12060856Y-8633356D02*
X12060856Y-8562644D01*
X11990144Y-8562644D01*
X11990144Y-8633356D01*
X12060856Y-8633356D01*
X12278356Y-5254356D02*
X12278356Y-5183644D01*
X12207644Y-5183644D01*
X12207644Y-5254356D01*
X12278356Y-5254356D01*
X12314856Y-8633356D02*
X12314856Y-8562644D01*
X12244144Y-8562644D01*
X12244144Y-8633356D01*
X12314856Y-8633356D01*
X12532356Y-5254356D02*
X12532356Y-5183644D01*
X12461644Y-5183644D01*
X12461644Y-5254356D01*
X12532356Y-5254356D01*
X12568856Y-8633356D02*
X12568856Y-8562644D01*
X12498144Y-8562644D01*
X12498144Y-8633356D01*
X12568856Y-8633356D01*
X12609856Y-10779356D02*
X12609856Y-10708644D01*
X12539144Y-10708644D01*
X12539144Y-10779356D01*
X12609856Y-10779356D01*
X12609856Y-11033356D02*
X12609856Y-10962644D01*
X12539144Y-10962644D01*
X12539144Y-11033356D01*
X12609856Y-11033356D01*
X12635356Y-4681356D02*
X12635356Y-4610644D01*
X12564644Y-4610644D01*
X12564644Y-4681356D01*
X12635356Y-4681356D01*
X12786356Y-5254356D02*
X12786356Y-5183644D01*
X12715644Y-5183644D01*
X12715644Y-5254356D01*
X12786356Y-5254356D01*
X12889356Y-4681356D02*
X12889356Y-4610644D01*
X12818644Y-4610644D01*
X12818644Y-4681356D01*
X12889356Y-4681356D01*
X13040356Y-5254356D02*
X13040356Y-5183644D01*
X12969644Y-5183644D01*
X12969644Y-5254356D01*
X13040356Y-5254356D01*
X13221356Y-10890356D02*
X13221356Y-10819644D01*
X13150644Y-10819644D01*
X13150644Y-10890356D01*
X13221356Y-10890356D01*
X13475356Y-10890356D02*
X13475356Y-10819644D01*
X13404644Y-10819644D01*
X13404644Y-10890356D01*
X13475356Y-10890356D01*
X13795356Y-4680356D02*
X13795356Y-4609644D01*
X13724644Y-4609644D01*
X13724644Y-4680356D01*
X13795356Y-4680356D01*
X13960356Y-9410356D02*
X13960356Y-9339644D01*
X13889644Y-9339644D01*
X13889644Y-9410356D01*
X13960356Y-9410356D01*
X13960356Y-9664356D02*
X13960356Y-9593644D01*
X13889644Y-9593644D01*
X13889644Y-9664356D01*
X13960356Y-9664356D01*
X13960356Y-9918356D02*
X13960356Y-9847644D01*
X13889644Y-9847644D01*
X13889644Y-9918356D01*
X13960356Y-9918356D01*
X13963356Y-5409356D02*
X13963356Y-5338644D01*
X13892644Y-5338644D01*
X13892644Y-5409356D01*
X13963356Y-5409356D01*
X13963356Y-5663356D02*
X13963356Y-5592644D01*
X13892644Y-5592644D01*
X13892644Y-5663356D01*
X13963356Y-5663356D01*
X13963356Y-5917356D02*
X13963356Y-5846644D01*
X13892644Y-5846644D01*
X13892644Y-5917356D01*
X13963356Y-5917356D01*
X13963356Y-6171356D02*
X13963356Y-6100644D01*
X13892644Y-6100644D01*
X13892644Y-6171356D01*
X13963356Y-6171356D01*
X14049356Y-4680356D02*
X14049356Y-4609644D01*
X13978644Y-4609644D01*
X13978644Y-4680356D01*
X14049356Y-4680356D01*
X14077356Y-10781356D02*
X14077356Y-10710644D01*
X14006644Y-10710644D01*
X14006644Y-10781356D01*
X14077356Y-10781356D01*
X14077356Y-11035356D02*
X14077356Y-10964644D01*
X14006644Y-10964644D01*
X14006644Y-11035356D01*
X14077356Y-11035356D01*
X14122356Y-7323356D02*
X14122356Y-7252644D01*
X14051644Y-7252644D01*
X14051644Y-7323356D01*
X14122356Y-7323356D01*
X14217356Y-5409356D02*
X14217356Y-5338644D01*
X14146644Y-5338644D01*
X14146644Y-5409356D01*
X14217356Y-5409356D01*
X14217356Y-5663356D02*
X14217356Y-5592644D01*
X14146644Y-5592644D01*
X14146644Y-5663356D01*
X14217356Y-5663356D01*
X14217356Y-5917356D02*
X14217356Y-5846644D01*
X14146644Y-5846644D01*
X14146644Y-5917356D01*
X14217356Y-5917356D01*
X14217356Y-6171356D02*
X14217356Y-6100644D01*
X14146644Y-6100644D01*
X14146644Y-6171356D01*
X14217356Y-6171356D01*
X14376356Y-7323356D02*
X14376356Y-7252644D01*
X14305644Y-7252644D01*
X14305644Y-7323356D01*
X14376356Y-7323356D01*
X14630356Y-7323356D02*
X14630356Y-7252644D01*
X14559644Y-7252644D01*
X14559644Y-7323356D01*
X14630356Y-7323356D01*
D13*
X12674000Y-10363800D02*
X12724800Y-10313000D01*
X12674000Y-10262200D01*
X12623200Y-10313000D01*
X12674000Y-10363800D01*
X13944000Y-10363800D02*
X13994800Y-10313000D01*
X13944000Y-10262200D01*
X13893200Y-10313000D01*
X13944000Y-10363800D01*
D14*
X11976250Y-4621250D02*
X12226250Y-4871250D01*
X12226250Y-4621250D02*
X11976250Y-4871250D01*
X12226250Y-4746250D02*
G75*
G02*
X11976250Y-4746250I-125000J0D01*
G01*
X11976250Y-4746250D02*
G75*
G02*
X12226250Y-4746250I125000J0D01*
G01*
X11976250Y-10766250D02*
X12226250Y-11016250D01*
X12226250Y-10766250D02*
X11976250Y-11016250D01*
X12226250Y-10891250D02*
G75*
G02*
X11976250Y-10891250I-125000J0D01*
G01*
X11976250Y-10891250D02*
G75*
G02*
X12226250Y-10891250I125000J0D01*
G01*
X14391250Y-4621250D02*
X14641250Y-4871250D01*
X14641250Y-4621250D02*
X14391250Y-4871250D01*
X14641250Y-4746250D02*
G75*
G02*
X14391250Y-4746250I-125000J0D01*
G01*
X14391250Y-4746250D02*
G75*
G02*
X14641250Y-4746250I125000J0D01*
G01*
X14391250Y-10766250D02*
X14641250Y-11016250D01*
X14641250Y-10766250D02*
X14391250Y-11016250D01*
X14641250Y-10891250D02*
G75*
G02*
X14391250Y-10891250I-125000J0D01*
G01*
X14391250Y-10891250D02*
G75*
G02*
X14641250Y-10891250I125000J0D01*
G01*
D11*
X12035777Y-11528984D02*
X12035777Y-11328984D01*
X12035777Y-11328984D02*
X12083396Y-11328984D01*
X12083396Y-11328984D02*
X12111967Y-11338508D01*
X12111967Y-11338508D02*
X12131015Y-11357555D01*
X12131015Y-11357555D02*
X12140539Y-11376603D01*
X12140539Y-11376603D02*
X12150062Y-11414698D01*
X12150062Y-11414698D02*
X12150062Y-11443269D01*
X12150062Y-11443269D02*
X12140539Y-11481365D01*
X12140539Y-11481365D02*
X12131015Y-11500412D01*
X12131015Y-11500412D02*
X12111967Y-11519460D01*
X12111967Y-11519460D02*
X12083396Y-11528984D01*
X12083396Y-11528984D02*
X12035777Y-11528984D01*
X12235777Y-11528984D02*
X12235777Y-11395650D01*
X12235777Y-11433746D02*
X12245301Y-11414698D01*
X12245301Y-11414698D02*
X12254824Y-11405174D01*
X12254824Y-11405174D02*
X12273872Y-11395650D01*
X12273872Y-11395650D02*
X12292920Y-11395650D01*
X12359586Y-11528984D02*
X12359586Y-11395650D01*
X12359586Y-11328984D02*
X12350062Y-11338508D01*
X12350062Y-11338508D02*
X12359586Y-11348031D01*
X12359586Y-11348031D02*
X12369110Y-11338508D01*
X12369110Y-11338508D02*
X12359586Y-11328984D01*
X12359586Y-11328984D02*
X12359586Y-11348031D01*
X12483396Y-11528984D02*
X12464348Y-11519460D01*
X12464348Y-11519460D02*
X12454824Y-11500412D01*
X12454824Y-11500412D02*
X12454824Y-11328984D01*
X12588158Y-11528984D02*
X12569110Y-11519460D01*
X12569110Y-11519460D02*
X12559586Y-11500412D01*
X12559586Y-11500412D02*
X12559586Y-11328984D01*
X12816729Y-11528984D02*
X12816729Y-11328984D01*
X12816729Y-11328984D02*
X12883396Y-11471841D01*
X12883396Y-11471841D02*
X12950062Y-11328984D01*
X12950062Y-11328984D02*
X12950062Y-11528984D01*
X13131015Y-11528984D02*
X13131015Y-11424222D01*
X13131015Y-11424222D02*
X13121491Y-11405174D01*
X13121491Y-11405174D02*
X13102443Y-11395650D01*
X13102443Y-11395650D02*
X13064348Y-11395650D01*
X13064348Y-11395650D02*
X13045301Y-11405174D01*
X13131015Y-11519460D02*
X13111967Y-11528984D01*
X13111967Y-11528984D02*
X13064348Y-11528984D01*
X13064348Y-11528984D02*
X13045301Y-11519460D01*
X13045301Y-11519460D02*
X13035777Y-11500412D01*
X13035777Y-11500412D02*
X13035777Y-11481365D01*
X13035777Y-11481365D02*
X13045301Y-11462317D01*
X13045301Y-11462317D02*
X13064348Y-11452793D01*
X13064348Y-11452793D02*
X13111967Y-11452793D01*
X13111967Y-11452793D02*
X13131015Y-11443269D01*
X13226253Y-11395650D02*
X13226253Y-11595650D01*
X13226253Y-11405174D02*
X13245301Y-11395650D01*
X13245301Y-11395650D02*
X13283396Y-11395650D01*
X13283396Y-11395650D02*
X13302443Y-11405174D01*
X13302443Y-11405174D02*
X13311967Y-11414698D01*
X13311967Y-11414698D02*
X13321491Y-11433746D01*
X13321491Y-11433746D02*
X13321491Y-11490888D01*
X13321491Y-11490888D02*
X13311967Y-11509936D01*
X13311967Y-11509936D02*
X13302443Y-11519460D01*
X13302443Y-11519460D02*
X13283396Y-11528984D01*
X13283396Y-11528984D02*
X13245301Y-11528984D01*
X13245301Y-11528984D02*
X13226253Y-11519460D01*
X13407205Y-11509936D02*
X13416729Y-11519460D01*
X13416729Y-11519460D02*
X13407205Y-11528984D01*
X13407205Y-11528984D02*
X13397682Y-11519460D01*
X13397682Y-11519460D02*
X13407205Y-11509936D01*
X13407205Y-11509936D02*
X13407205Y-11528984D01*
X13407205Y-11405174D02*
X13416729Y-11414698D01*
X13416729Y-11414698D02*
X13407205Y-11424222D01*
X13407205Y-11424222D02*
X13397682Y-11414698D01*
X13397682Y-11414698D02*
X13407205Y-11405174D01*
X13407205Y-11405174D02*
X13407205Y-11424222D01*
D12*
X11745000Y-11842500D02*
X11775000Y-11872500D01*
X11775000Y-11842500D02*
X11745000Y-11872500D01*
D11*
X12073872Y-11748984D02*
X12092920Y-11748984D01*
X12092920Y-11748984D02*
X12111967Y-11758508D01*
X12111967Y-11758508D02*
X12121491Y-11768031D01*
X12121491Y-11768031D02*
X12131015Y-11787079D01*
X12131015Y-11787079D02*
X12140539Y-11825174D01*
X12140539Y-11825174D02*
X12140539Y-11872793D01*
X12140539Y-11872793D02*
X12131015Y-11910888D01*
X12131015Y-11910888D02*
X12121491Y-11929936D01*
X12121491Y-11929936D02*
X12111967Y-11939460D01*
X12111967Y-11939460D02*
X12092920Y-11948984D01*
X12092920Y-11948984D02*
X12073872Y-11948984D01*
X12073872Y-11948984D02*
X12054824Y-11939460D01*
X12054824Y-11939460D02*
X12045301Y-11929936D01*
X12045301Y-11929936D02*
X12035777Y-11910888D01*
X12035777Y-11910888D02*
X12026253Y-11872793D01*
X12026253Y-11872793D02*
X12026253Y-11825174D01*
X12026253Y-11825174D02*
X12035777Y-11787079D01*
X12035777Y-11787079D02*
X12045301Y-11768031D01*
X12045301Y-11768031D02*
X12054824Y-11758508D01*
X12054824Y-11758508D02*
X12073872Y-11748984D01*
X12226253Y-11929936D02*
X12235777Y-11939460D01*
X12235777Y-11939460D02*
X12226253Y-11948984D01*
X12226253Y-11948984D02*
X12216729Y-11939460D01*
X12216729Y-11939460D02*
X12226253Y-11929936D01*
X12226253Y-11929936D02*
X12226253Y-11948984D01*
X12302443Y-11748984D02*
X12426253Y-11748984D01*
X12426253Y-11748984D02*
X12359586Y-11825174D01*
X12359586Y-11825174D02*
X12388158Y-11825174D01*
X12388158Y-11825174D02*
X12407205Y-11834698D01*
X12407205Y-11834698D02*
X12416729Y-11844222D01*
X12416729Y-11844222D02*
X12426253Y-11863269D01*
X12426253Y-11863269D02*
X12426253Y-11910888D01*
X12426253Y-11910888D02*
X12416729Y-11929936D01*
X12416729Y-11929936D02*
X12407205Y-11939460D01*
X12407205Y-11939460D02*
X12388158Y-11948984D01*
X12388158Y-11948984D02*
X12331015Y-11948984D01*
X12331015Y-11948984D02*
X12311967Y-11939460D01*
X12311967Y-11939460D02*
X12302443Y-11929936D01*
X12550062Y-11748984D02*
X12569110Y-11748984D01*
X12569110Y-11748984D02*
X12588158Y-11758508D01*
X12588158Y-11758508D02*
X12597682Y-11768031D01*
X12597682Y-11768031D02*
X12607205Y-11787079D01*
X12607205Y-11787079D02*
X12616729Y-11825174D01*
X12616729Y-11825174D02*
X12616729Y-11872793D01*
X12616729Y-11872793D02*
X12607205Y-11910888D01*
X12607205Y-11910888D02*
X12597682Y-11929936D01*
X12597682Y-11929936D02*
X12588158Y-11939460D01*
X12588158Y-11939460D02*
X12569110Y-11948984D01*
X12569110Y-11948984D02*
X12550062Y-11948984D01*
X12550062Y-11948984D02*
X12531015Y-11939460D01*
X12531015Y-11939460D02*
X12521491Y-11929936D01*
X12521491Y-11929936D02*
X12511967Y-11910888D01*
X12511967Y-11910888D02*
X12502443Y-11872793D01*
X12502443Y-11872793D02*
X12502443Y-11825174D01*
X12502443Y-11825174D02*
X12511967Y-11787079D01*
X12511967Y-11787079D02*
X12521491Y-11768031D01*
X12521491Y-11768031D02*
X12531015Y-11758508D01*
X12531015Y-11758508D02*
X12550062Y-11748984D01*
X12740539Y-11748984D02*
X12759586Y-11748984D01*
X12759586Y-11748984D02*
X12778634Y-11758508D01*
X12778634Y-11758508D02*
X12788158Y-11768031D01*
X12788158Y-11768031D02*
X12797682Y-11787079D01*
X12797682Y-11787079D02*
X12807205Y-11825174D01*
X12807205Y-11825174D02*
X12807205Y-11872793D01*
X12807205Y-11872793D02*
X12797682Y-11910888D01*
X12797682Y-11910888D02*
X12788158Y-11929936D01*
X12788158Y-11929936D02*
X12778634Y-11939460D01*
X12778634Y-11939460D02*
X12759586Y-11948984D01*
X12759586Y-11948984D02*
X12740539Y-11948984D01*
X12740539Y-11948984D02*
X12721491Y-11939460D01*
X12721491Y-11939460D02*
X12711967Y-11929936D01*
X12711967Y-11929936D02*
X12702443Y-11910888D01*
X12702443Y-11910888D02*
X12692920Y-11872793D01*
X12692920Y-11872793D02*
X12692920Y-11825174D01*
X12692920Y-11825174D02*
X12702443Y-11787079D01*
X12702443Y-11787079D02*
X12711967Y-11768031D01*
X12711967Y-11768031D02*
X12721491Y-11758508D01*
X12721491Y-11758508D02*
X12740539Y-11748984D01*
X12892920Y-11948984D02*
X12892920Y-11815650D01*
X12892920Y-11834698D02*
X12902443Y-11825174D01*
X12902443Y-11825174D02*
X12921491Y-11815650D01*
X12921491Y-11815650D02*
X12950063Y-11815650D01*
X12950063Y-11815650D02*
X12969110Y-11825174D01*
X12969110Y-11825174D02*
X12978634Y-11844222D01*
X12978634Y-11844222D02*
X12978634Y-11948984D01*
X12978634Y-11844222D02*
X12988158Y-11825174D01*
X12988158Y-11825174D02*
X13007205Y-11815650D01*
X13007205Y-11815650D02*
X13035777Y-11815650D01*
X13035777Y-11815650D02*
X13054824Y-11825174D01*
X13054824Y-11825174D02*
X13064348Y-11844222D01*
X13064348Y-11844222D02*
X13064348Y-11948984D01*
X13159586Y-11948984D02*
X13159586Y-11815650D01*
X13159586Y-11834698D02*
X13169110Y-11825174D01*
X13169110Y-11825174D02*
X13188158Y-11815650D01*
X13188158Y-11815650D02*
X13216729Y-11815650D01*
X13216729Y-11815650D02*
X13235777Y-11825174D01*
X13235777Y-11825174D02*
X13245301Y-11844222D01*
X13245301Y-11844222D02*
X13245301Y-11948984D01*
X13245301Y-11844222D02*
X13254824Y-11825174D01*
X13254824Y-11825174D02*
X13273872Y-11815650D01*
X13273872Y-11815650D02*
X13302443Y-11815650D01*
X13302443Y-11815650D02*
X13321491Y-11825174D01*
X13321491Y-11825174D02*
X13331015Y-11844222D01*
X13331015Y-11844222D02*
X13331015Y-11948984D01*
X13721491Y-11739460D02*
X13550063Y-11996603D01*
X13978634Y-11748984D02*
X13997682Y-11748984D01*
X13997682Y-11748984D02*
X14016729Y-11758508D01*
X14016729Y-11758508D02*
X14026253Y-11768031D01*
X14026253Y-11768031D02*
X14035777Y-11787079D01*
X14035777Y-11787079D02*
X14045301Y-11825174D01*
X14045301Y-11825174D02*
X14045301Y-11872793D01*
X14045301Y-11872793D02*
X14035777Y-11910888D01*
X14035777Y-11910888D02*
X14026253Y-11929936D01*
X14026253Y-11929936D02*
X14016729Y-11939460D01*
X14016729Y-11939460D02*
X13997682Y-11948984D01*
X13997682Y-11948984D02*
X13978634Y-11948984D01*
X13978634Y-11948984D02*
X13959586Y-11939460D01*
X13959586Y-11939460D02*
X13950063Y-11929936D01*
X13950063Y-11929936D02*
X13940539Y-11910888D01*
X13940539Y-11910888D02*
X13931015Y-11872793D01*
X13931015Y-11872793D02*
X13931015Y-11825174D01*
X13931015Y-11825174D02*
X13940539Y-11787079D01*
X13940539Y-11787079D02*
X13950063Y-11768031D01*
X13950063Y-11768031D02*
X13959586Y-11758508D01*
X13959586Y-11758508D02*
X13978634Y-11748984D01*
X14131015Y-11929936D02*
X14140539Y-11939460D01*
X14140539Y-11939460D02*
X14131015Y-11948984D01*
X14131015Y-11948984D02*
X14121491Y-11939460D01*
X14121491Y-11939460D02*
X14131015Y-11929936D01*
X14131015Y-11929936D02*
X14131015Y-11948984D01*
X14264348Y-11748984D02*
X14283396Y-11748984D01*
X14283396Y-11748984D02*
X14302444Y-11758508D01*
X14302444Y-11758508D02*
X14311967Y-11768031D01*
X14311967Y-11768031D02*
X14321491Y-11787079D01*
X14321491Y-11787079D02*
X14331015Y-11825174D01*
X14331015Y-11825174D02*
X14331015Y-11872793D01*
X14331015Y-11872793D02*
X14321491Y-11910888D01*
X14321491Y-11910888D02*
X14311967Y-11929936D01*
X14311967Y-11929936D02*
X14302444Y-11939460D01*
X14302444Y-11939460D02*
X14283396Y-11948984D01*
X14283396Y-11948984D02*
X14264348Y-11948984D01*
X14264348Y-11948984D02*
X14245301Y-11939460D01*
X14245301Y-11939460D02*
X14235777Y-11929936D01*
X14235777Y-11929936D02*
X14226253Y-11910888D01*
X14226253Y-11910888D02*
X14216729Y-11872793D01*
X14216729Y-11872793D02*
X14216729Y-11825174D01*
X14216729Y-11825174D02*
X14226253Y-11787079D01*
X14226253Y-11787079D02*
X14235777Y-11768031D01*
X14235777Y-11768031D02*
X14245301Y-11758508D01*
X14245301Y-11758508D02*
X14264348Y-11748984D01*
X14521491Y-11948984D02*
X14407206Y-11948984D01*
X14464348Y-11948984D02*
X14464348Y-11748984D01*
X14464348Y-11748984D02*
X14445301Y-11777555D01*
X14445301Y-11777555D02*
X14426253Y-11796603D01*
X14426253Y-11796603D02*
X14407206Y-11806127D01*
X14711967Y-11948984D02*
X14597682Y-11948984D01*
X14654825Y-11948984D02*
X14654825Y-11748984D01*
X14654825Y-11748984D02*
X14635777Y-11777555D01*
X14635777Y-11777555D02*
X14616729Y-11796603D01*
X14616729Y-11796603D02*
X14597682Y-11806127D01*
X14826253Y-11834698D02*
X14807206Y-11825174D01*
X14807206Y-11825174D02*
X14797682Y-11815650D01*
X14797682Y-11815650D02*
X14788158Y-11796603D01*
X14788158Y-11796603D02*
X14788158Y-11787079D01*
X14788158Y-11787079D02*
X14797682Y-11768031D01*
X14797682Y-11768031D02*
X14807206Y-11758508D01*
X14807206Y-11758508D02*
X14826253Y-11748984D01*
X14826253Y-11748984D02*
X14864348Y-11748984D01*
X14864348Y-11748984D02*
X14883396Y-11758508D01*
X14883396Y-11758508D02*
X14892920Y-11768031D01*
X14892920Y-11768031D02*
X14902444Y-11787079D01*
X14902444Y-11787079D02*
X14902444Y-11796603D01*
X14902444Y-11796603D02*
X14892920Y-11815650D01*
X14892920Y-11815650D02*
X14883396Y-11825174D01*
X14883396Y-11825174D02*
X14864348Y-11834698D01*
X14864348Y-11834698D02*
X14826253Y-11834698D01*
X14826253Y-11834698D02*
X14807206Y-11844222D01*
X14807206Y-11844222D02*
X14797682Y-11853746D01*
X14797682Y-11853746D02*
X14788158Y-11872793D01*
X14788158Y-11872793D02*
X14788158Y-11910888D01*
X14788158Y-11910888D02*
X14797682Y-11929936D01*
X14797682Y-11929936D02*
X14807206Y-11939460D01*
X14807206Y-11939460D02*
X14826253Y-11948984D01*
X14826253Y-11948984D02*
X14864348Y-11948984D01*
X14864348Y-11948984D02*
X14883396Y-11939460D01*
X14883396Y-11939460D02*
X14892920Y-11929936D01*
X14892920Y-11929936D02*
X14902444Y-11910888D01*
X14902444Y-11910888D02*
X14902444Y-11872793D01*
X14902444Y-11872793D02*
X14892920Y-11853746D01*
X14892920Y-11853746D02*
X14883396Y-11844222D01*
X14883396Y-11844222D02*
X14864348Y-11834698D01*
X14978634Y-11748984D02*
X14978634Y-11787079D01*
X15054825Y-11748984D02*
X15054825Y-11787079D01*
X15350063Y-12025174D02*
X15340539Y-12015650D01*
X15340539Y-12015650D02*
X15321491Y-11987079D01*
X15321491Y-11987079D02*
X15311968Y-11968031D01*
X15311968Y-11968031D02*
X15302444Y-11939460D01*
X15302444Y-11939460D02*
X15292920Y-11891841D01*
X15292920Y-11891841D02*
X15292920Y-11853746D01*
X15292920Y-11853746D02*
X15302444Y-11806127D01*
X15302444Y-11806127D02*
X15311968Y-11777555D01*
X15311968Y-11777555D02*
X15321491Y-11758508D01*
X15321491Y-11758508D02*
X15340539Y-11729936D01*
X15340539Y-11729936D02*
X15350063Y-11720412D01*
X15407206Y-11748984D02*
X15531015Y-11748984D01*
X15531015Y-11748984D02*
X15464348Y-11825174D01*
X15464348Y-11825174D02*
X15492920Y-11825174D01*
X15492920Y-11825174D02*
X15511968Y-11834698D01*
X15511968Y-11834698D02*
X15521491Y-11844222D01*
X15521491Y-11844222D02*
X15531015Y-11863269D01*
X15531015Y-11863269D02*
X15531015Y-11910888D01*
X15531015Y-11910888D02*
X15521491Y-11929936D01*
X15521491Y-11929936D02*
X15511968Y-11939460D01*
X15511968Y-11939460D02*
X15492920Y-11948984D01*
X15492920Y-11948984D02*
X15435777Y-11948984D01*
X15435777Y-11948984D02*
X15416729Y-11939460D01*
X15416729Y-11939460D02*
X15407206Y-11929936D01*
X15607206Y-11768031D02*
X15616729Y-11758508D01*
X15616729Y-11758508D02*
X15635777Y-11748984D01*
X15635777Y-11748984D02*
X15683396Y-11748984D01*
X15683396Y-11748984D02*
X15702444Y-11758508D01*
X15702444Y-11758508D02*
X15711968Y-11768031D01*
X15711968Y-11768031D02*
X15721491Y-11787079D01*
X15721491Y-11787079D02*
X15721491Y-11806127D01*
X15721491Y-11806127D02*
X15711968Y-11834698D01*
X15711968Y-11834698D02*
X15597682Y-11948984D01*
X15597682Y-11948984D02*
X15721491Y-11948984D01*
X15959587Y-11948984D02*
X15959587Y-11748984D01*
X16045301Y-11948984D02*
X16045301Y-11844222D01*
X16045301Y-11844222D02*
X16035777Y-11825174D01*
X16035777Y-11825174D02*
X16016730Y-11815650D01*
X16016730Y-11815650D02*
X15988158Y-11815650D01*
X15988158Y-11815650D02*
X15969110Y-11825174D01*
X15969110Y-11825174D02*
X15959587Y-11834698D01*
X16169110Y-11948984D02*
X16150063Y-11939460D01*
X16150063Y-11939460D02*
X16140539Y-11929936D01*
X16140539Y-11929936D02*
X16131015Y-11910888D01*
X16131015Y-11910888D02*
X16131015Y-11853746D01*
X16131015Y-11853746D02*
X16140539Y-11834698D01*
X16140539Y-11834698D02*
X16150063Y-11825174D01*
X16150063Y-11825174D02*
X16169110Y-11815650D01*
X16169110Y-11815650D02*
X16197682Y-11815650D01*
X16197682Y-11815650D02*
X16216730Y-11825174D01*
X16216730Y-11825174D02*
X16226253Y-11834698D01*
X16226253Y-11834698D02*
X16235777Y-11853746D01*
X16235777Y-11853746D02*
X16235777Y-11910888D01*
X16235777Y-11910888D02*
X16226253Y-11929936D01*
X16226253Y-11929936D02*
X16216730Y-11939460D01*
X16216730Y-11939460D02*
X16197682Y-11948984D01*
X16197682Y-11948984D02*
X16169110Y-11948984D01*
X16350063Y-11948984D02*
X16331015Y-11939460D01*
X16331015Y-11939460D02*
X16321491Y-11920412D01*
X16321491Y-11920412D02*
X16321491Y-11748984D01*
X16502444Y-11939460D02*
X16483396Y-11948984D01*
X16483396Y-11948984D02*
X16445301Y-11948984D01*
X16445301Y-11948984D02*
X16426253Y-11939460D01*
X16426253Y-11939460D02*
X16416730Y-11920412D01*
X16416730Y-11920412D02*
X16416730Y-11844222D01*
X16416730Y-11844222D02*
X16426253Y-11825174D01*
X16426253Y-11825174D02*
X16445301Y-11815650D01*
X16445301Y-11815650D02*
X16483396Y-11815650D01*
X16483396Y-11815650D02*
X16502444Y-11825174D01*
X16502444Y-11825174D02*
X16511968Y-11844222D01*
X16511968Y-11844222D02*
X16511968Y-11863269D01*
X16511968Y-11863269D02*
X16416730Y-11882317D01*
X16588158Y-11939460D02*
X16607206Y-11948984D01*
X16607206Y-11948984D02*
X16645301Y-11948984D01*
X16645301Y-11948984D02*
X16664349Y-11939460D01*
X16664349Y-11939460D02*
X16673872Y-11920412D01*
X16673872Y-11920412D02*
X16673872Y-11910888D01*
X16673872Y-11910888D02*
X16664349Y-11891841D01*
X16664349Y-11891841D02*
X16645301Y-11882317D01*
X16645301Y-11882317D02*
X16616730Y-11882317D01*
X16616730Y-11882317D02*
X16597682Y-11872793D01*
X16597682Y-11872793D02*
X16588158Y-11853746D01*
X16588158Y-11853746D02*
X16588158Y-11844222D01*
X16588158Y-11844222D02*
X16597682Y-11825174D01*
X16597682Y-11825174D02*
X16616730Y-11815650D01*
X16616730Y-11815650D02*
X16645301Y-11815650D01*
X16645301Y-11815650D02*
X16664349Y-11825174D01*
X16740539Y-12025174D02*
X16750063Y-12015650D01*
X16750063Y-12015650D02*
X16769111Y-11987079D01*
X16769111Y-11987079D02*
X16778634Y-11968031D01*
X16778634Y-11968031D02*
X16788158Y-11939460D01*
X16788158Y-11939460D02*
X16797682Y-11891841D01*
X16797682Y-11891841D02*
X16797682Y-11853746D01*
X16797682Y-11853746D02*
X16788158Y-11806127D01*
X16788158Y-11806127D02*
X16778634Y-11777555D01*
X16778634Y-11777555D02*
X16769111Y-11758508D01*
X16769111Y-11758508D02*
X16750063Y-11729936D01*
X16750063Y-11729936D02*
X16740539Y-11720412D01*
D12*
X11775000Y-12121500D02*
G75*
G02*
X11695000Y-12121500I-40000J0D01*
G01*
X11695000Y-12121500D02*
G75*
G02*
X11775000Y-12121500I40000J0D01*
G01*
D11*
X12073872Y-12012984D02*
X12092920Y-12012984D01*
X12092920Y-12012984D02*
X12111967Y-12022508D01*
X12111967Y-12022508D02*
X12121491Y-12032031D01*
X12121491Y-12032031D02*
X12131015Y-12051079D01*
X12131015Y-12051079D02*
X12140539Y-12089174D01*
X12140539Y-12089174D02*
X12140539Y-12136793D01*
X12140539Y-12136793D02*
X12131015Y-12174888D01*
X12131015Y-12174888D02*
X12121491Y-12193936D01*
X12121491Y-12193936D02*
X12111967Y-12203460D01*
X12111967Y-12203460D02*
X12092920Y-12212984D01*
X12092920Y-12212984D02*
X12073872Y-12212984D01*
X12073872Y-12212984D02*
X12054824Y-12203460D01*
X12054824Y-12203460D02*
X12045301Y-12193936D01*
X12045301Y-12193936D02*
X12035777Y-12174888D01*
X12035777Y-12174888D02*
X12026253Y-12136793D01*
X12026253Y-12136793D02*
X12026253Y-12089174D01*
X12026253Y-12089174D02*
X12035777Y-12051079D01*
X12035777Y-12051079D02*
X12045301Y-12032031D01*
X12045301Y-12032031D02*
X12054824Y-12022508D01*
X12054824Y-12022508D02*
X12073872Y-12012984D01*
X12226253Y-12193936D02*
X12235777Y-12203460D01*
X12235777Y-12203460D02*
X12226253Y-12212984D01*
X12226253Y-12212984D02*
X12216729Y-12203460D01*
X12216729Y-12203460D02*
X12226253Y-12193936D01*
X12226253Y-12193936D02*
X12226253Y-12212984D01*
X12350062Y-12098698D02*
X12331015Y-12089174D01*
X12331015Y-12089174D02*
X12321491Y-12079650D01*
X12321491Y-12079650D02*
X12311967Y-12060603D01*
X12311967Y-12060603D02*
X12311967Y-12051079D01*
X12311967Y-12051079D02*
X12321491Y-12032031D01*
X12321491Y-12032031D02*
X12331015Y-12022508D01*
X12331015Y-12022508D02*
X12350062Y-12012984D01*
X12350062Y-12012984D02*
X12388158Y-12012984D01*
X12388158Y-12012984D02*
X12407205Y-12022508D01*
X12407205Y-12022508D02*
X12416729Y-12032031D01*
X12416729Y-12032031D02*
X12426253Y-12051079D01*
X12426253Y-12051079D02*
X12426253Y-12060603D01*
X12426253Y-12060603D02*
X12416729Y-12079650D01*
X12416729Y-12079650D02*
X12407205Y-12089174D01*
X12407205Y-12089174D02*
X12388158Y-12098698D01*
X12388158Y-12098698D02*
X12350062Y-12098698D01*
X12350062Y-12098698D02*
X12331015Y-12108222D01*
X12331015Y-12108222D02*
X12321491Y-12117746D01*
X12321491Y-12117746D02*
X12311967Y-12136793D01*
X12311967Y-12136793D02*
X12311967Y-12174888D01*
X12311967Y-12174888D02*
X12321491Y-12193936D01*
X12321491Y-12193936D02*
X12331015Y-12203460D01*
X12331015Y-12203460D02*
X12350062Y-12212984D01*
X12350062Y-12212984D02*
X12388158Y-12212984D01*
X12388158Y-12212984D02*
X12407205Y-12203460D01*
X12407205Y-12203460D02*
X12416729Y-12193936D01*
X12416729Y-12193936D02*
X12426253Y-12174888D01*
X12426253Y-12174888D02*
X12426253Y-12136793D01*
X12426253Y-12136793D02*
X12416729Y-12117746D01*
X12416729Y-12117746D02*
X12407205Y-12108222D01*
X12407205Y-12108222D02*
X12388158Y-12098698D01*
X12550062Y-12012984D02*
X12569110Y-12012984D01*
X12569110Y-12012984D02*
X12588158Y-12022508D01*
X12588158Y-12022508D02*
X12597682Y-12032031D01*
X12597682Y-12032031D02*
X12607205Y-12051079D01*
X12607205Y-12051079D02*
X12616729Y-12089174D01*
X12616729Y-12089174D02*
X12616729Y-12136793D01*
X12616729Y-12136793D02*
X12607205Y-12174888D01*
X12607205Y-12174888D02*
X12597682Y-12193936D01*
X12597682Y-12193936D02*
X12588158Y-12203460D01*
X12588158Y-12203460D02*
X12569110Y-12212984D01*
X12569110Y-12212984D02*
X12550062Y-12212984D01*
X12550062Y-12212984D02*
X12531015Y-12203460D01*
X12531015Y-12203460D02*
X12521491Y-12193936D01*
X12521491Y-12193936D02*
X12511967Y-12174888D01*
X12511967Y-12174888D02*
X12502443Y-12136793D01*
X12502443Y-12136793D02*
X12502443Y-12089174D01*
X12502443Y-12089174D02*
X12511967Y-12051079D01*
X12511967Y-12051079D02*
X12521491Y-12032031D01*
X12521491Y-12032031D02*
X12531015Y-12022508D01*
X12531015Y-12022508D02*
X12550062Y-12012984D01*
X12740539Y-12012984D02*
X12759586Y-12012984D01*
X12759586Y-12012984D02*
X12778634Y-12022508D01*
X12778634Y-12022508D02*
X12788158Y-12032031D01*
X12788158Y-12032031D02*
X12797682Y-12051079D01*
X12797682Y-12051079D02*
X12807205Y-12089174D01*
X12807205Y-12089174D02*
X12807205Y-12136793D01*
X12807205Y-12136793D02*
X12797682Y-12174888D01*
X12797682Y-12174888D02*
X12788158Y-12193936D01*
X12788158Y-12193936D02*
X12778634Y-12203460D01*
X12778634Y-12203460D02*
X12759586Y-12212984D01*
X12759586Y-12212984D02*
X12740539Y-12212984D01*
X12740539Y-12212984D02*
X12721491Y-12203460D01*
X12721491Y-12203460D02*
X12711967Y-12193936D01*
X12711967Y-12193936D02*
X12702443Y-12174888D01*
X12702443Y-12174888D02*
X12692920Y-12136793D01*
X12692920Y-12136793D02*
X12692920Y-12089174D01*
X12692920Y-12089174D02*
X12702443Y-12051079D01*
X12702443Y-12051079D02*
X12711967Y-12032031D01*
X12711967Y-12032031D02*
X12721491Y-12022508D01*
X12721491Y-12022508D02*
X12740539Y-12012984D01*
X12892920Y-12212984D02*
X12892920Y-12079650D01*
X12892920Y-12098698D02*
X12902443Y-12089174D01*
X12902443Y-12089174D02*
X12921491Y-12079650D01*
X12921491Y-12079650D02*
X12950063Y-12079650D01*
X12950063Y-12079650D02*
X12969110Y-12089174D01*
X12969110Y-12089174D02*
X12978634Y-12108222D01*
X12978634Y-12108222D02*
X12978634Y-12212984D01*
X12978634Y-12108222D02*
X12988158Y-12089174D01*
X12988158Y-12089174D02*
X13007205Y-12079650D01*
X13007205Y-12079650D02*
X13035777Y-12079650D01*
X13035777Y-12079650D02*
X13054824Y-12089174D01*
X13054824Y-12089174D02*
X13064348Y-12108222D01*
X13064348Y-12108222D02*
X13064348Y-12212984D01*
X13159586Y-12212984D02*
X13159586Y-12079650D01*
X13159586Y-12098698D02*
X13169110Y-12089174D01*
X13169110Y-12089174D02*
X13188158Y-12079650D01*
X13188158Y-12079650D02*
X13216729Y-12079650D01*
X13216729Y-12079650D02*
X13235777Y-12089174D01*
X13235777Y-12089174D02*
X13245301Y-12108222D01*
X13245301Y-12108222D02*
X13245301Y-12212984D01*
X13245301Y-12108222D02*
X13254824Y-12089174D01*
X13254824Y-12089174D02*
X13273872Y-12079650D01*
X13273872Y-12079650D02*
X13302443Y-12079650D01*
X13302443Y-12079650D02*
X13321491Y-12089174D01*
X13321491Y-12089174D02*
X13331015Y-12108222D01*
X13331015Y-12108222D02*
X13331015Y-12212984D01*
X13721491Y-12003460D02*
X13550063Y-12260603D01*
X13978634Y-12012984D02*
X13997682Y-12012984D01*
X13997682Y-12012984D02*
X14016729Y-12022508D01*
X14016729Y-12022508D02*
X14026253Y-12032031D01*
X14026253Y-12032031D02*
X14035777Y-12051079D01*
X14035777Y-12051079D02*
X14045301Y-12089174D01*
X14045301Y-12089174D02*
X14045301Y-12136793D01*
X14045301Y-12136793D02*
X14035777Y-12174888D01*
X14035777Y-12174888D02*
X14026253Y-12193936D01*
X14026253Y-12193936D02*
X14016729Y-12203460D01*
X14016729Y-12203460D02*
X13997682Y-12212984D01*
X13997682Y-12212984D02*
X13978634Y-12212984D01*
X13978634Y-12212984D02*
X13959586Y-12203460D01*
X13959586Y-12203460D02*
X13950063Y-12193936D01*
X13950063Y-12193936D02*
X13940539Y-12174888D01*
X13940539Y-12174888D02*
X13931015Y-12136793D01*
X13931015Y-12136793D02*
X13931015Y-12089174D01*
X13931015Y-12089174D02*
X13940539Y-12051079D01*
X13940539Y-12051079D02*
X13950063Y-12032031D01*
X13950063Y-12032031D02*
X13959586Y-12022508D01*
X13959586Y-12022508D02*
X13978634Y-12012984D01*
X14131015Y-12193936D02*
X14140539Y-12203460D01*
X14140539Y-12203460D02*
X14131015Y-12212984D01*
X14131015Y-12212984D02*
X14121491Y-12203460D01*
X14121491Y-12203460D02*
X14131015Y-12193936D01*
X14131015Y-12193936D02*
X14131015Y-12212984D01*
X14264348Y-12012984D02*
X14283396Y-12012984D01*
X14283396Y-12012984D02*
X14302444Y-12022508D01*
X14302444Y-12022508D02*
X14311967Y-12032031D01*
X14311967Y-12032031D02*
X14321491Y-12051079D01*
X14321491Y-12051079D02*
X14331015Y-12089174D01*
X14331015Y-12089174D02*
X14331015Y-12136793D01*
X14331015Y-12136793D02*
X14321491Y-12174888D01*
X14321491Y-12174888D02*
X14311967Y-12193936D01*
X14311967Y-12193936D02*
X14302444Y-12203460D01*
X14302444Y-12203460D02*
X14283396Y-12212984D01*
X14283396Y-12212984D02*
X14264348Y-12212984D01*
X14264348Y-12212984D02*
X14245301Y-12203460D01*
X14245301Y-12203460D02*
X14235777Y-12193936D01*
X14235777Y-12193936D02*
X14226253Y-12174888D01*
X14226253Y-12174888D02*
X14216729Y-12136793D01*
X14216729Y-12136793D02*
X14216729Y-12089174D01*
X14216729Y-12089174D02*
X14226253Y-12051079D01*
X14226253Y-12051079D02*
X14235777Y-12032031D01*
X14235777Y-12032031D02*
X14245301Y-12022508D01*
X14245301Y-12022508D02*
X14264348Y-12012984D01*
X14397682Y-12012984D02*
X14521491Y-12012984D01*
X14521491Y-12012984D02*
X14454825Y-12089174D01*
X14454825Y-12089174D02*
X14483396Y-12089174D01*
X14483396Y-12089174D02*
X14502444Y-12098698D01*
X14502444Y-12098698D02*
X14511967Y-12108222D01*
X14511967Y-12108222D02*
X14521491Y-12127269D01*
X14521491Y-12127269D02*
X14521491Y-12174888D01*
X14521491Y-12174888D02*
X14511967Y-12193936D01*
X14511967Y-12193936D02*
X14502444Y-12203460D01*
X14502444Y-12203460D02*
X14483396Y-12212984D01*
X14483396Y-12212984D02*
X14426253Y-12212984D01*
X14426253Y-12212984D02*
X14407206Y-12203460D01*
X14407206Y-12203460D02*
X14397682Y-12193936D01*
X14711967Y-12212984D02*
X14597682Y-12212984D01*
X14654825Y-12212984D02*
X14654825Y-12012984D01*
X14654825Y-12012984D02*
X14635777Y-12041555D01*
X14635777Y-12041555D02*
X14616729Y-12060603D01*
X14616729Y-12060603D02*
X14597682Y-12070127D01*
X14892920Y-12012984D02*
X14797682Y-12012984D01*
X14797682Y-12012984D02*
X14788158Y-12108222D01*
X14788158Y-12108222D02*
X14797682Y-12098698D01*
X14797682Y-12098698D02*
X14816729Y-12089174D01*
X14816729Y-12089174D02*
X14864348Y-12089174D01*
X14864348Y-12089174D02*
X14883396Y-12098698D01*
X14883396Y-12098698D02*
X14892920Y-12108222D01*
X14892920Y-12108222D02*
X14902444Y-12127269D01*
X14902444Y-12127269D02*
X14902444Y-12174888D01*
X14902444Y-12174888D02*
X14892920Y-12193936D01*
X14892920Y-12193936D02*
X14883396Y-12203460D01*
X14883396Y-12203460D02*
X14864348Y-12212984D01*
X14864348Y-12212984D02*
X14816729Y-12212984D01*
X14816729Y-12212984D02*
X14797682Y-12203460D01*
X14797682Y-12203460D02*
X14788158Y-12193936D01*
X14978634Y-12012984D02*
X14978634Y-12051079D01*
X15054825Y-12012984D02*
X15054825Y-12051079D01*
X15350063Y-12289174D02*
X15340539Y-12279650D01*
X15340539Y-12279650D02*
X15321491Y-12251079D01*
X15321491Y-12251079D02*
X15311968Y-12232031D01*
X15311968Y-12232031D02*
X15302444Y-12203460D01*
X15302444Y-12203460D02*
X15292920Y-12155841D01*
X15292920Y-12155841D02*
X15292920Y-12117746D01*
X15292920Y-12117746D02*
X15302444Y-12070127D01*
X15302444Y-12070127D02*
X15311968Y-12041555D01*
X15311968Y-12041555D02*
X15321491Y-12022508D01*
X15321491Y-12022508D02*
X15340539Y-11993936D01*
X15340539Y-11993936D02*
X15350063Y-11984412D01*
X15454825Y-12098698D02*
X15435777Y-12089174D01*
X15435777Y-12089174D02*
X15426253Y-12079650D01*
X15426253Y-12079650D02*
X15416729Y-12060603D01*
X15416729Y-12060603D02*
X15416729Y-12051079D01*
X15416729Y-12051079D02*
X15426253Y-12032031D01*
X15426253Y-12032031D02*
X15435777Y-12022508D01*
X15435777Y-12022508D02*
X15454825Y-12012984D01*
X15454825Y-12012984D02*
X15492920Y-12012984D01*
X15492920Y-12012984D02*
X15511968Y-12022508D01*
X15511968Y-12022508D02*
X15521491Y-12032031D01*
X15521491Y-12032031D02*
X15531015Y-12051079D01*
X15531015Y-12051079D02*
X15531015Y-12060603D01*
X15531015Y-12060603D02*
X15521491Y-12079650D01*
X15521491Y-12079650D02*
X15511968Y-12089174D01*
X15511968Y-12089174D02*
X15492920Y-12098698D01*
X15492920Y-12098698D02*
X15454825Y-12098698D01*
X15454825Y-12098698D02*
X15435777Y-12108222D01*
X15435777Y-12108222D02*
X15426253Y-12117746D01*
X15426253Y-12117746D02*
X15416729Y-12136793D01*
X15416729Y-12136793D02*
X15416729Y-12174888D01*
X15416729Y-12174888D02*
X15426253Y-12193936D01*
X15426253Y-12193936D02*
X15435777Y-12203460D01*
X15435777Y-12203460D02*
X15454825Y-12212984D01*
X15454825Y-12212984D02*
X15492920Y-12212984D01*
X15492920Y-12212984D02*
X15511968Y-12203460D01*
X15511968Y-12203460D02*
X15521491Y-12193936D01*
X15521491Y-12193936D02*
X15531015Y-12174888D01*
X15531015Y-12174888D02*
X15531015Y-12136793D01*
X15531015Y-12136793D02*
X15521491Y-12117746D01*
X15521491Y-12117746D02*
X15511968Y-12108222D01*
X15511968Y-12108222D02*
X15492920Y-12098698D01*
X15769110Y-12212984D02*
X15769110Y-12012984D01*
X15854825Y-12212984D02*
X15854825Y-12108222D01*
X15854825Y-12108222D02*
X15845301Y-12089174D01*
X15845301Y-12089174D02*
X15826253Y-12079650D01*
X15826253Y-12079650D02*
X15797682Y-12079650D01*
X15797682Y-12079650D02*
X15778634Y-12089174D01*
X15778634Y-12089174D02*
X15769110Y-12098698D01*
X15978634Y-12212984D02*
X15959587Y-12203460D01*
X15959587Y-12203460D02*
X15950063Y-12193936D01*
X15950063Y-12193936D02*
X15940539Y-12174888D01*
X15940539Y-12174888D02*
X15940539Y-12117746D01*
X15940539Y-12117746D02*
X15950063Y-12098698D01*
X15950063Y-12098698D02*
X15959587Y-12089174D01*
X15959587Y-12089174D02*
X15978634Y-12079650D01*
X15978634Y-12079650D02*
X16007206Y-12079650D01*
X16007206Y-12079650D02*
X16026253Y-12089174D01*
X16026253Y-12089174D02*
X16035777Y-12098698D01*
X16035777Y-12098698D02*
X16045301Y-12117746D01*
X16045301Y-12117746D02*
X16045301Y-12174888D01*
X16045301Y-12174888D02*
X16035777Y-12193936D01*
X16035777Y-12193936D02*
X16026253Y-12203460D01*
X16026253Y-12203460D02*
X16007206Y-12212984D01*
X16007206Y-12212984D02*
X15978634Y-12212984D01*
X16159587Y-12212984D02*
X16140539Y-12203460D01*
X16140539Y-12203460D02*
X16131015Y-12184412D01*
X16131015Y-12184412D02*
X16131015Y-12012984D01*
X16311968Y-12203460D02*
X16292920Y-12212984D01*
X16292920Y-12212984D02*
X16254825Y-12212984D01*
X16254825Y-12212984D02*
X16235777Y-12203460D01*
X16235777Y-12203460D02*
X16226253Y-12184412D01*
X16226253Y-12184412D02*
X16226253Y-12108222D01*
X16226253Y-12108222D02*
X16235777Y-12089174D01*
X16235777Y-12089174D02*
X16254825Y-12079650D01*
X16254825Y-12079650D02*
X16292920Y-12079650D01*
X16292920Y-12079650D02*
X16311968Y-12089174D01*
X16311968Y-12089174D02*
X16321491Y-12108222D01*
X16321491Y-12108222D02*
X16321491Y-12127269D01*
X16321491Y-12127269D02*
X16226253Y-12146317D01*
X16397682Y-12203460D02*
X16416730Y-12212984D01*
X16416730Y-12212984D02*
X16454825Y-12212984D01*
X16454825Y-12212984D02*
X16473872Y-12203460D01*
X16473872Y-12203460D02*
X16483396Y-12184412D01*
X16483396Y-12184412D02*
X16483396Y-12174888D01*
X16483396Y-12174888D02*
X16473872Y-12155841D01*
X16473872Y-12155841D02*
X16454825Y-12146317D01*
X16454825Y-12146317D02*
X16426253Y-12146317D01*
X16426253Y-12146317D02*
X16407206Y-12136793D01*
X16407206Y-12136793D02*
X16397682Y-12117746D01*
X16397682Y-12117746D02*
X16397682Y-12108222D01*
X16397682Y-12108222D02*
X16407206Y-12089174D01*
X16407206Y-12089174D02*
X16426253Y-12079650D01*
X16426253Y-12079650D02*
X16454825Y-12079650D01*
X16454825Y-12079650D02*
X16473872Y-12089174D01*
X16550063Y-12289174D02*
X16559587Y-12279650D01*
X16559587Y-12279650D02*
X16578634Y-12251079D01*
X16578634Y-12251079D02*
X16588158Y-12232031D01*
X16588158Y-12232031D02*
X16597682Y-12203460D01*
X16597682Y-12203460D02*
X16607206Y-12155841D01*
X16607206Y-12155841D02*
X16607206Y-12117746D01*
X16607206Y-12117746D02*
X16597682Y-12070127D01*
X16597682Y-12070127D02*
X16588158Y-12041555D01*
X16588158Y-12041555D02*
X16578634Y-12022508D01*
X16578634Y-12022508D02*
X16559587Y-11993936D01*
X16559587Y-11993936D02*
X16550063Y-11984412D01*
D12*
X11725500Y-12336000D02*
X11725500Y-12435000D01*
X11676000Y-12385500D02*
X11775000Y-12385500D01*
D11*
X12073872Y-12276984D02*
X12092920Y-12276984D01*
X12092920Y-12276984D02*
X12111967Y-12286508D01*
X12111967Y-12286508D02*
X12121491Y-12296031D01*
X12121491Y-12296031D02*
X12131015Y-12315079D01*
X12131015Y-12315079D02*
X12140539Y-12353174D01*
X12140539Y-12353174D02*
X12140539Y-12400793D01*
X12140539Y-12400793D02*
X12131015Y-12438888D01*
X12131015Y-12438888D02*
X12121491Y-12457936D01*
X12121491Y-12457936D02*
X12111967Y-12467460D01*
X12111967Y-12467460D02*
X12092920Y-12476984D01*
X12092920Y-12476984D02*
X12073872Y-12476984D01*
X12073872Y-12476984D02*
X12054824Y-12467460D01*
X12054824Y-12467460D02*
X12045301Y-12457936D01*
X12045301Y-12457936D02*
X12035777Y-12438888D01*
X12035777Y-12438888D02*
X12026253Y-12400793D01*
X12026253Y-12400793D02*
X12026253Y-12353174D01*
X12026253Y-12353174D02*
X12035777Y-12315079D01*
X12035777Y-12315079D02*
X12045301Y-12296031D01*
X12045301Y-12296031D02*
X12054824Y-12286508D01*
X12054824Y-12286508D02*
X12073872Y-12276984D01*
X12226253Y-12457936D02*
X12235777Y-12467460D01*
X12235777Y-12467460D02*
X12226253Y-12476984D01*
X12226253Y-12476984D02*
X12216729Y-12467460D01*
X12216729Y-12467460D02*
X12226253Y-12457936D01*
X12226253Y-12457936D02*
X12226253Y-12476984D01*
X12331015Y-12476984D02*
X12369110Y-12476984D01*
X12369110Y-12476984D02*
X12388158Y-12467460D01*
X12388158Y-12467460D02*
X12397682Y-12457936D01*
X12397682Y-12457936D02*
X12416729Y-12429365D01*
X12416729Y-12429365D02*
X12426253Y-12391269D01*
X12426253Y-12391269D02*
X12426253Y-12315079D01*
X12426253Y-12315079D02*
X12416729Y-12296031D01*
X12416729Y-12296031D02*
X12407205Y-12286508D01*
X12407205Y-12286508D02*
X12388158Y-12276984D01*
X12388158Y-12276984D02*
X12350062Y-12276984D01*
X12350062Y-12276984D02*
X12331015Y-12286508D01*
X12331015Y-12286508D02*
X12321491Y-12296031D01*
X12321491Y-12296031D02*
X12311967Y-12315079D01*
X12311967Y-12315079D02*
X12311967Y-12362698D01*
X12311967Y-12362698D02*
X12321491Y-12381746D01*
X12321491Y-12381746D02*
X12331015Y-12391269D01*
X12331015Y-12391269D02*
X12350062Y-12400793D01*
X12350062Y-12400793D02*
X12388158Y-12400793D01*
X12388158Y-12400793D02*
X12407205Y-12391269D01*
X12407205Y-12391269D02*
X12416729Y-12381746D01*
X12416729Y-12381746D02*
X12426253Y-12362698D01*
X12521491Y-12476984D02*
X12559586Y-12476984D01*
X12559586Y-12476984D02*
X12578634Y-12467460D01*
X12578634Y-12467460D02*
X12588158Y-12457936D01*
X12588158Y-12457936D02*
X12607205Y-12429365D01*
X12607205Y-12429365D02*
X12616729Y-12391269D01*
X12616729Y-12391269D02*
X12616729Y-12315079D01*
X12616729Y-12315079D02*
X12607205Y-12296031D01*
X12607205Y-12296031D02*
X12597682Y-12286508D01*
X12597682Y-12286508D02*
X12578634Y-12276984D01*
X12578634Y-12276984D02*
X12540539Y-12276984D01*
X12540539Y-12276984D02*
X12521491Y-12286508D01*
X12521491Y-12286508D02*
X12511967Y-12296031D01*
X12511967Y-12296031D02*
X12502443Y-12315079D01*
X12502443Y-12315079D02*
X12502443Y-12362698D01*
X12502443Y-12362698D02*
X12511967Y-12381746D01*
X12511967Y-12381746D02*
X12521491Y-12391269D01*
X12521491Y-12391269D02*
X12540539Y-12400793D01*
X12540539Y-12400793D02*
X12578634Y-12400793D01*
X12578634Y-12400793D02*
X12597682Y-12391269D01*
X12597682Y-12391269D02*
X12607205Y-12381746D01*
X12607205Y-12381746D02*
X12616729Y-12362698D01*
X12740539Y-12276984D02*
X12759586Y-12276984D01*
X12759586Y-12276984D02*
X12778634Y-12286508D01*
X12778634Y-12286508D02*
X12788158Y-12296031D01*
X12788158Y-12296031D02*
X12797682Y-12315079D01*
X12797682Y-12315079D02*
X12807205Y-12353174D01*
X12807205Y-12353174D02*
X12807205Y-12400793D01*
X12807205Y-12400793D02*
X12797682Y-12438888D01*
X12797682Y-12438888D02*
X12788158Y-12457936D01*
X12788158Y-12457936D02*
X12778634Y-12467460D01*
X12778634Y-12467460D02*
X12759586Y-12476984D01*
X12759586Y-12476984D02*
X12740539Y-12476984D01*
X12740539Y-12476984D02*
X12721491Y-12467460D01*
X12721491Y-12467460D02*
X12711967Y-12457936D01*
X12711967Y-12457936D02*
X12702443Y-12438888D01*
X12702443Y-12438888D02*
X12692920Y-12400793D01*
X12692920Y-12400793D02*
X12692920Y-12353174D01*
X12692920Y-12353174D02*
X12702443Y-12315079D01*
X12702443Y-12315079D02*
X12711967Y-12296031D01*
X12711967Y-12296031D02*
X12721491Y-12286508D01*
X12721491Y-12286508D02*
X12740539Y-12276984D01*
X12892920Y-12476984D02*
X12892920Y-12343650D01*
X12892920Y-12362698D02*
X12902443Y-12353174D01*
X12902443Y-12353174D02*
X12921491Y-12343650D01*
X12921491Y-12343650D02*
X12950063Y-12343650D01*
X12950063Y-12343650D02*
X12969110Y-12353174D01*
X12969110Y-12353174D02*
X12978634Y-12372222D01*
X12978634Y-12372222D02*
X12978634Y-12476984D01*
X12978634Y-12372222D02*
X12988158Y-12353174D01*
X12988158Y-12353174D02*
X13007205Y-12343650D01*
X13007205Y-12343650D02*
X13035777Y-12343650D01*
X13035777Y-12343650D02*
X13054824Y-12353174D01*
X13054824Y-12353174D02*
X13064348Y-12372222D01*
X13064348Y-12372222D02*
X13064348Y-12476984D01*
X13159586Y-12476984D02*
X13159586Y-12343650D01*
X13159586Y-12362698D02*
X13169110Y-12353174D01*
X13169110Y-12353174D02*
X13188158Y-12343650D01*
X13188158Y-12343650D02*
X13216729Y-12343650D01*
X13216729Y-12343650D02*
X13235777Y-12353174D01*
X13235777Y-12353174D02*
X13245301Y-12372222D01*
X13245301Y-12372222D02*
X13245301Y-12476984D01*
X13245301Y-12372222D02*
X13254824Y-12353174D01*
X13254824Y-12353174D02*
X13273872Y-12343650D01*
X13273872Y-12343650D02*
X13302443Y-12343650D01*
X13302443Y-12343650D02*
X13321491Y-12353174D01*
X13321491Y-12353174D02*
X13331015Y-12372222D01*
X13331015Y-12372222D02*
X13331015Y-12476984D01*
X13721491Y-12267460D02*
X13550063Y-12524603D01*
X13978634Y-12276984D02*
X13997682Y-12276984D01*
X13997682Y-12276984D02*
X14016729Y-12286508D01*
X14016729Y-12286508D02*
X14026253Y-12296031D01*
X14026253Y-12296031D02*
X14035777Y-12315079D01*
X14035777Y-12315079D02*
X14045301Y-12353174D01*
X14045301Y-12353174D02*
X14045301Y-12400793D01*
X14045301Y-12400793D02*
X14035777Y-12438888D01*
X14035777Y-12438888D02*
X14026253Y-12457936D01*
X14026253Y-12457936D02*
X14016729Y-12467460D01*
X14016729Y-12467460D02*
X13997682Y-12476984D01*
X13997682Y-12476984D02*
X13978634Y-12476984D01*
X13978634Y-12476984D02*
X13959586Y-12467460D01*
X13959586Y-12467460D02*
X13950063Y-12457936D01*
X13950063Y-12457936D02*
X13940539Y-12438888D01*
X13940539Y-12438888D02*
X13931015Y-12400793D01*
X13931015Y-12400793D02*
X13931015Y-12353174D01*
X13931015Y-12353174D02*
X13940539Y-12315079D01*
X13940539Y-12315079D02*
X13950063Y-12296031D01*
X13950063Y-12296031D02*
X13959586Y-12286508D01*
X13959586Y-12286508D02*
X13978634Y-12276984D01*
X14131015Y-12457936D02*
X14140539Y-12467460D01*
X14140539Y-12467460D02*
X14131015Y-12476984D01*
X14131015Y-12476984D02*
X14121491Y-12467460D01*
X14121491Y-12467460D02*
X14131015Y-12457936D01*
X14131015Y-12457936D02*
X14131015Y-12476984D01*
X14264348Y-12276984D02*
X14283396Y-12276984D01*
X14283396Y-12276984D02*
X14302444Y-12286508D01*
X14302444Y-12286508D02*
X14311967Y-12296031D01*
X14311967Y-12296031D02*
X14321491Y-12315079D01*
X14321491Y-12315079D02*
X14331015Y-12353174D01*
X14331015Y-12353174D02*
X14331015Y-12400793D01*
X14331015Y-12400793D02*
X14321491Y-12438888D01*
X14321491Y-12438888D02*
X14311967Y-12457936D01*
X14311967Y-12457936D02*
X14302444Y-12467460D01*
X14302444Y-12467460D02*
X14283396Y-12476984D01*
X14283396Y-12476984D02*
X14264348Y-12476984D01*
X14264348Y-12476984D02*
X14245301Y-12467460D01*
X14245301Y-12467460D02*
X14235777Y-12457936D01*
X14235777Y-12457936D02*
X14226253Y-12438888D01*
X14226253Y-12438888D02*
X14216729Y-12400793D01*
X14216729Y-12400793D02*
X14216729Y-12353174D01*
X14216729Y-12353174D02*
X14226253Y-12315079D01*
X14226253Y-12315079D02*
X14235777Y-12296031D01*
X14235777Y-12296031D02*
X14245301Y-12286508D01*
X14245301Y-12286508D02*
X14264348Y-12276984D01*
X14397682Y-12276984D02*
X14521491Y-12276984D01*
X14521491Y-12276984D02*
X14454825Y-12353174D01*
X14454825Y-12353174D02*
X14483396Y-12353174D01*
X14483396Y-12353174D02*
X14502444Y-12362698D01*
X14502444Y-12362698D02*
X14511967Y-12372222D01*
X14511967Y-12372222D02*
X14521491Y-12391269D01*
X14521491Y-12391269D02*
X14521491Y-12438888D01*
X14521491Y-12438888D02*
X14511967Y-12457936D01*
X14511967Y-12457936D02*
X14502444Y-12467460D01*
X14502444Y-12467460D02*
X14483396Y-12476984D01*
X14483396Y-12476984D02*
X14426253Y-12476984D01*
X14426253Y-12476984D02*
X14407206Y-12467460D01*
X14407206Y-12467460D02*
X14397682Y-12457936D01*
X14616729Y-12476984D02*
X14654825Y-12476984D01*
X14654825Y-12476984D02*
X14673872Y-12467460D01*
X14673872Y-12467460D02*
X14683396Y-12457936D01*
X14683396Y-12457936D02*
X14702444Y-12429365D01*
X14702444Y-12429365D02*
X14711967Y-12391269D01*
X14711967Y-12391269D02*
X14711967Y-12315079D01*
X14711967Y-12315079D02*
X14702444Y-12296031D01*
X14702444Y-12296031D02*
X14692920Y-12286508D01*
X14692920Y-12286508D02*
X14673872Y-12276984D01*
X14673872Y-12276984D02*
X14635777Y-12276984D01*
X14635777Y-12276984D02*
X14616729Y-12286508D01*
X14616729Y-12286508D02*
X14607206Y-12296031D01*
X14607206Y-12296031D02*
X14597682Y-12315079D01*
X14597682Y-12315079D02*
X14597682Y-12362698D01*
X14597682Y-12362698D02*
X14607206Y-12381746D01*
X14607206Y-12381746D02*
X14616729Y-12391269D01*
X14616729Y-12391269D02*
X14635777Y-12400793D01*
X14635777Y-12400793D02*
X14673872Y-12400793D01*
X14673872Y-12400793D02*
X14692920Y-12391269D01*
X14692920Y-12391269D02*
X14702444Y-12381746D01*
X14702444Y-12381746D02*
X14711967Y-12362698D01*
X14835777Y-12276984D02*
X14854825Y-12276984D01*
X14854825Y-12276984D02*
X14873872Y-12286508D01*
X14873872Y-12286508D02*
X14883396Y-12296031D01*
X14883396Y-12296031D02*
X14892920Y-12315079D01*
X14892920Y-12315079D02*
X14902444Y-12353174D01*
X14902444Y-12353174D02*
X14902444Y-12400793D01*
X14902444Y-12400793D02*
X14892920Y-12438888D01*
X14892920Y-12438888D02*
X14883396Y-12457936D01*
X14883396Y-12457936D02*
X14873872Y-12467460D01*
X14873872Y-12467460D02*
X14854825Y-12476984D01*
X14854825Y-12476984D02*
X14835777Y-12476984D01*
X14835777Y-12476984D02*
X14816729Y-12467460D01*
X14816729Y-12467460D02*
X14807206Y-12457936D01*
X14807206Y-12457936D02*
X14797682Y-12438888D01*
X14797682Y-12438888D02*
X14788158Y-12400793D01*
X14788158Y-12400793D02*
X14788158Y-12353174D01*
X14788158Y-12353174D02*
X14797682Y-12315079D01*
X14797682Y-12315079D02*
X14807206Y-12296031D01*
X14807206Y-12296031D02*
X14816729Y-12286508D01*
X14816729Y-12286508D02*
X14835777Y-12276984D01*
X14978634Y-12276984D02*
X14978634Y-12315079D01*
X15054825Y-12276984D02*
X15054825Y-12315079D01*
X15350063Y-12553174D02*
X15340539Y-12543650D01*
X15340539Y-12543650D02*
X15321491Y-12515079D01*
X15321491Y-12515079D02*
X15311968Y-12496031D01*
X15311968Y-12496031D02*
X15302444Y-12467460D01*
X15302444Y-12467460D02*
X15292920Y-12419841D01*
X15292920Y-12419841D02*
X15292920Y-12381746D01*
X15292920Y-12381746D02*
X15302444Y-12334127D01*
X15302444Y-12334127D02*
X15311968Y-12305555D01*
X15311968Y-12305555D02*
X15321491Y-12286508D01*
X15321491Y-12286508D02*
X15340539Y-12257936D01*
X15340539Y-12257936D02*
X15350063Y-12248412D01*
X15511968Y-12343650D02*
X15511968Y-12476984D01*
X15464348Y-12267460D02*
X15416729Y-12410317D01*
X15416729Y-12410317D02*
X15540539Y-12410317D01*
X15769110Y-12476984D02*
X15769110Y-12276984D01*
X15854825Y-12476984D02*
X15854825Y-12372222D01*
X15854825Y-12372222D02*
X15845301Y-12353174D01*
X15845301Y-12353174D02*
X15826253Y-12343650D01*
X15826253Y-12343650D02*
X15797682Y-12343650D01*
X15797682Y-12343650D02*
X15778634Y-12353174D01*
X15778634Y-12353174D02*
X15769110Y-12362698D01*
X15978634Y-12476984D02*
X15959587Y-12467460D01*
X15959587Y-12467460D02*
X15950063Y-12457936D01*
X15950063Y-12457936D02*
X15940539Y-12438888D01*
X15940539Y-12438888D02*
X15940539Y-12381746D01*
X15940539Y-12381746D02*
X15950063Y-12362698D01*
X15950063Y-12362698D02*
X15959587Y-12353174D01*
X15959587Y-12353174D02*
X15978634Y-12343650D01*
X15978634Y-12343650D02*
X16007206Y-12343650D01*
X16007206Y-12343650D02*
X16026253Y-12353174D01*
X16026253Y-12353174D02*
X16035777Y-12362698D01*
X16035777Y-12362698D02*
X16045301Y-12381746D01*
X16045301Y-12381746D02*
X16045301Y-12438888D01*
X16045301Y-12438888D02*
X16035777Y-12457936D01*
X16035777Y-12457936D02*
X16026253Y-12467460D01*
X16026253Y-12467460D02*
X16007206Y-12476984D01*
X16007206Y-12476984D02*
X15978634Y-12476984D01*
X16159587Y-12476984D02*
X16140539Y-12467460D01*
X16140539Y-12467460D02*
X16131015Y-12448412D01*
X16131015Y-12448412D02*
X16131015Y-12276984D01*
X16311968Y-12467460D02*
X16292920Y-12476984D01*
X16292920Y-12476984D02*
X16254825Y-12476984D01*
X16254825Y-12476984D02*
X16235777Y-12467460D01*
X16235777Y-12467460D02*
X16226253Y-12448412D01*
X16226253Y-12448412D02*
X16226253Y-12372222D01*
X16226253Y-12372222D02*
X16235777Y-12353174D01*
X16235777Y-12353174D02*
X16254825Y-12343650D01*
X16254825Y-12343650D02*
X16292920Y-12343650D01*
X16292920Y-12343650D02*
X16311968Y-12353174D01*
X16311968Y-12353174D02*
X16321491Y-12372222D01*
X16321491Y-12372222D02*
X16321491Y-12391269D01*
X16321491Y-12391269D02*
X16226253Y-12410317D01*
X16397682Y-12467460D02*
X16416730Y-12476984D01*
X16416730Y-12476984D02*
X16454825Y-12476984D01*
X16454825Y-12476984D02*
X16473872Y-12467460D01*
X16473872Y-12467460D02*
X16483396Y-12448412D01*
X16483396Y-12448412D02*
X16483396Y-12438888D01*
X16483396Y-12438888D02*
X16473872Y-12419841D01*
X16473872Y-12419841D02*
X16454825Y-12410317D01*
X16454825Y-12410317D02*
X16426253Y-12410317D01*
X16426253Y-12410317D02*
X16407206Y-12400793D01*
X16407206Y-12400793D02*
X16397682Y-12381746D01*
X16397682Y-12381746D02*
X16397682Y-12372222D01*
X16397682Y-12372222D02*
X16407206Y-12353174D01*
X16407206Y-12353174D02*
X16426253Y-12343650D01*
X16426253Y-12343650D02*
X16454825Y-12343650D01*
X16454825Y-12343650D02*
X16473872Y-12353174D01*
X16550063Y-12553174D02*
X16559587Y-12543650D01*
X16559587Y-12543650D02*
X16578634Y-12515079D01*
X16578634Y-12515079D02*
X16588158Y-12496031D01*
X16588158Y-12496031D02*
X16597682Y-12467460D01*
X16597682Y-12467460D02*
X16607206Y-12419841D01*
X16607206Y-12419841D02*
X16607206Y-12381746D01*
X16607206Y-12381746D02*
X16597682Y-12334127D01*
X16597682Y-12334127D02*
X16588158Y-12305555D01*
X16588158Y-12305555D02*
X16578634Y-12286508D01*
X16578634Y-12286508D02*
X16559587Y-12257936D01*
X16559587Y-12257936D02*
X16550063Y-12248412D01*
D12*
X11760356Y-12684856D02*
X11760356Y-12614144D01*
X11689644Y-12614144D01*
X11689644Y-12684856D01*
X11760356Y-12684856D01*
D11*
X12140539Y-12740984D02*
X12026253Y-12740984D01*
X12083396Y-12740984D02*
X12083396Y-12540984D01*
X12083396Y-12540984D02*
X12064348Y-12569555D01*
X12064348Y-12569555D02*
X12045301Y-12588603D01*
X12045301Y-12588603D02*
X12026253Y-12598127D01*
X12226253Y-12721936D02*
X12235777Y-12731460D01*
X12235777Y-12731460D02*
X12226253Y-12740984D01*
X12226253Y-12740984D02*
X12216729Y-12731460D01*
X12216729Y-12731460D02*
X12226253Y-12721936D01*
X12226253Y-12721936D02*
X12226253Y-12740984D01*
X12359586Y-12540984D02*
X12378634Y-12540984D01*
X12378634Y-12540984D02*
X12397682Y-12550508D01*
X12397682Y-12550508D02*
X12407205Y-12560031D01*
X12407205Y-12560031D02*
X12416729Y-12579079D01*
X12416729Y-12579079D02*
X12426253Y-12617174D01*
X12426253Y-12617174D02*
X12426253Y-12664793D01*
X12426253Y-12664793D02*
X12416729Y-12702888D01*
X12416729Y-12702888D02*
X12407205Y-12721936D01*
X12407205Y-12721936D02*
X12397682Y-12731460D01*
X12397682Y-12731460D02*
X12378634Y-12740984D01*
X12378634Y-12740984D02*
X12359586Y-12740984D01*
X12359586Y-12740984D02*
X12340539Y-12731460D01*
X12340539Y-12731460D02*
X12331015Y-12721936D01*
X12331015Y-12721936D02*
X12321491Y-12702888D01*
X12321491Y-12702888D02*
X12311967Y-12664793D01*
X12311967Y-12664793D02*
X12311967Y-12617174D01*
X12311967Y-12617174D02*
X12321491Y-12579079D01*
X12321491Y-12579079D02*
X12331015Y-12560031D01*
X12331015Y-12560031D02*
X12340539Y-12550508D01*
X12340539Y-12550508D02*
X12359586Y-12540984D01*
X12550062Y-12540984D02*
X12569110Y-12540984D01*
X12569110Y-12540984D02*
X12588158Y-12550508D01*
X12588158Y-12550508D02*
X12597682Y-12560031D01*
X12597682Y-12560031D02*
X12607205Y-12579079D01*
X12607205Y-12579079D02*
X12616729Y-12617174D01*
X12616729Y-12617174D02*
X12616729Y-12664793D01*
X12616729Y-12664793D02*
X12607205Y-12702888D01*
X12607205Y-12702888D02*
X12597682Y-12721936D01*
X12597682Y-12721936D02*
X12588158Y-12731460D01*
X12588158Y-12731460D02*
X12569110Y-12740984D01*
X12569110Y-12740984D02*
X12550062Y-12740984D01*
X12550062Y-12740984D02*
X12531015Y-12731460D01*
X12531015Y-12731460D02*
X12521491Y-12721936D01*
X12521491Y-12721936D02*
X12511967Y-12702888D01*
X12511967Y-12702888D02*
X12502443Y-12664793D01*
X12502443Y-12664793D02*
X12502443Y-12617174D01*
X12502443Y-12617174D02*
X12511967Y-12579079D01*
X12511967Y-12579079D02*
X12521491Y-12560031D01*
X12521491Y-12560031D02*
X12531015Y-12550508D01*
X12531015Y-12550508D02*
X12550062Y-12540984D01*
X12740539Y-12540984D02*
X12759586Y-12540984D01*
X12759586Y-12540984D02*
X12778634Y-12550508D01*
X12778634Y-12550508D02*
X12788158Y-12560031D01*
X12788158Y-12560031D02*
X12797682Y-12579079D01*
X12797682Y-12579079D02*
X12807205Y-12617174D01*
X12807205Y-12617174D02*
X12807205Y-12664793D01*
X12807205Y-12664793D02*
X12797682Y-12702888D01*
X12797682Y-12702888D02*
X12788158Y-12721936D01*
X12788158Y-12721936D02*
X12778634Y-12731460D01*
X12778634Y-12731460D02*
X12759586Y-12740984D01*
X12759586Y-12740984D02*
X12740539Y-12740984D01*
X12740539Y-12740984D02*
X12721491Y-12731460D01*
X12721491Y-12731460D02*
X12711967Y-12721936D01*
X12711967Y-12721936D02*
X12702443Y-12702888D01*
X12702443Y-12702888D02*
X12692920Y-12664793D01*
X12692920Y-12664793D02*
X12692920Y-12617174D01*
X12692920Y-12617174D02*
X12702443Y-12579079D01*
X12702443Y-12579079D02*
X12711967Y-12560031D01*
X12711967Y-12560031D02*
X12721491Y-12550508D01*
X12721491Y-12550508D02*
X12740539Y-12540984D01*
X12892920Y-12740984D02*
X12892920Y-12607650D01*
X12892920Y-12626698D02*
X12902443Y-12617174D01*
X12902443Y-12617174D02*
X12921491Y-12607650D01*
X12921491Y-12607650D02*
X12950063Y-12607650D01*
X12950063Y-12607650D02*
X12969110Y-12617174D01*
X12969110Y-12617174D02*
X12978634Y-12636222D01*
X12978634Y-12636222D02*
X12978634Y-12740984D01*
X12978634Y-12636222D02*
X12988158Y-12617174D01*
X12988158Y-12617174D02*
X13007205Y-12607650D01*
X13007205Y-12607650D02*
X13035777Y-12607650D01*
X13035777Y-12607650D02*
X13054824Y-12617174D01*
X13054824Y-12617174D02*
X13064348Y-12636222D01*
X13064348Y-12636222D02*
X13064348Y-12740984D01*
X13159586Y-12740984D02*
X13159586Y-12607650D01*
X13159586Y-12626698D02*
X13169110Y-12617174D01*
X13169110Y-12617174D02*
X13188158Y-12607650D01*
X13188158Y-12607650D02*
X13216729Y-12607650D01*
X13216729Y-12607650D02*
X13235777Y-12617174D01*
X13235777Y-12617174D02*
X13245301Y-12636222D01*
X13245301Y-12636222D02*
X13245301Y-12740984D01*
X13245301Y-12636222D02*
X13254824Y-12617174D01*
X13254824Y-12617174D02*
X13273872Y-12607650D01*
X13273872Y-12607650D02*
X13302443Y-12607650D01*
X13302443Y-12607650D02*
X13321491Y-12617174D01*
X13321491Y-12617174D02*
X13331015Y-12636222D01*
X13331015Y-12636222D02*
X13331015Y-12740984D01*
X13721491Y-12531460D02*
X13550063Y-12788603D01*
X13978634Y-12540984D02*
X13997682Y-12540984D01*
X13997682Y-12540984D02*
X14016729Y-12550508D01*
X14016729Y-12550508D02*
X14026253Y-12560031D01*
X14026253Y-12560031D02*
X14035777Y-12579079D01*
X14035777Y-12579079D02*
X14045301Y-12617174D01*
X14045301Y-12617174D02*
X14045301Y-12664793D01*
X14045301Y-12664793D02*
X14035777Y-12702888D01*
X14035777Y-12702888D02*
X14026253Y-12721936D01*
X14026253Y-12721936D02*
X14016729Y-12731460D01*
X14016729Y-12731460D02*
X13997682Y-12740984D01*
X13997682Y-12740984D02*
X13978634Y-12740984D01*
X13978634Y-12740984D02*
X13959586Y-12731460D01*
X13959586Y-12731460D02*
X13950063Y-12721936D01*
X13950063Y-12721936D02*
X13940539Y-12702888D01*
X13940539Y-12702888D02*
X13931015Y-12664793D01*
X13931015Y-12664793D02*
X13931015Y-12617174D01*
X13931015Y-12617174D02*
X13940539Y-12579079D01*
X13940539Y-12579079D02*
X13950063Y-12560031D01*
X13950063Y-12560031D02*
X13959586Y-12550508D01*
X13959586Y-12550508D02*
X13978634Y-12540984D01*
X14131015Y-12721936D02*
X14140539Y-12731460D01*
X14140539Y-12731460D02*
X14131015Y-12740984D01*
X14131015Y-12740984D02*
X14121491Y-12731460D01*
X14121491Y-12731460D02*
X14131015Y-12721936D01*
X14131015Y-12721936D02*
X14131015Y-12740984D01*
X14264348Y-12540984D02*
X14283396Y-12540984D01*
X14283396Y-12540984D02*
X14302444Y-12550508D01*
X14302444Y-12550508D02*
X14311967Y-12560031D01*
X14311967Y-12560031D02*
X14321491Y-12579079D01*
X14321491Y-12579079D02*
X14331015Y-12617174D01*
X14331015Y-12617174D02*
X14331015Y-12664793D01*
X14331015Y-12664793D02*
X14321491Y-12702888D01*
X14321491Y-12702888D02*
X14311967Y-12721936D01*
X14311967Y-12721936D02*
X14302444Y-12731460D01*
X14302444Y-12731460D02*
X14283396Y-12740984D01*
X14283396Y-12740984D02*
X14264348Y-12740984D01*
X14264348Y-12740984D02*
X14245301Y-12731460D01*
X14245301Y-12731460D02*
X14235777Y-12721936D01*
X14235777Y-12721936D02*
X14226253Y-12702888D01*
X14226253Y-12702888D02*
X14216729Y-12664793D01*
X14216729Y-12664793D02*
X14216729Y-12617174D01*
X14216729Y-12617174D02*
X14226253Y-12579079D01*
X14226253Y-12579079D02*
X14235777Y-12560031D01*
X14235777Y-12560031D02*
X14245301Y-12550508D01*
X14245301Y-12550508D02*
X14264348Y-12540984D01*
X14397682Y-12540984D02*
X14521491Y-12540984D01*
X14521491Y-12540984D02*
X14454825Y-12617174D01*
X14454825Y-12617174D02*
X14483396Y-12617174D01*
X14483396Y-12617174D02*
X14502444Y-12626698D01*
X14502444Y-12626698D02*
X14511967Y-12636222D01*
X14511967Y-12636222D02*
X14521491Y-12655269D01*
X14521491Y-12655269D02*
X14521491Y-12702888D01*
X14521491Y-12702888D02*
X14511967Y-12721936D01*
X14511967Y-12721936D02*
X14502444Y-12731460D01*
X14502444Y-12731460D02*
X14483396Y-12740984D01*
X14483396Y-12740984D02*
X14426253Y-12740984D01*
X14426253Y-12740984D02*
X14407206Y-12731460D01*
X14407206Y-12731460D02*
X14397682Y-12721936D01*
X14616729Y-12740984D02*
X14654825Y-12740984D01*
X14654825Y-12740984D02*
X14673872Y-12731460D01*
X14673872Y-12731460D02*
X14683396Y-12721936D01*
X14683396Y-12721936D02*
X14702444Y-12693365D01*
X14702444Y-12693365D02*
X14711967Y-12655269D01*
X14711967Y-12655269D02*
X14711967Y-12579079D01*
X14711967Y-12579079D02*
X14702444Y-12560031D01*
X14702444Y-12560031D02*
X14692920Y-12550508D01*
X14692920Y-12550508D02*
X14673872Y-12540984D01*
X14673872Y-12540984D02*
X14635777Y-12540984D01*
X14635777Y-12540984D02*
X14616729Y-12550508D01*
X14616729Y-12550508D02*
X14607206Y-12560031D01*
X14607206Y-12560031D02*
X14597682Y-12579079D01*
X14597682Y-12579079D02*
X14597682Y-12626698D01*
X14597682Y-12626698D02*
X14607206Y-12645746D01*
X14607206Y-12645746D02*
X14616729Y-12655269D01*
X14616729Y-12655269D02*
X14635777Y-12664793D01*
X14635777Y-12664793D02*
X14673872Y-12664793D01*
X14673872Y-12664793D02*
X14692920Y-12655269D01*
X14692920Y-12655269D02*
X14702444Y-12645746D01*
X14702444Y-12645746D02*
X14711967Y-12626698D01*
X14883396Y-12607650D02*
X14883396Y-12740984D01*
X14835777Y-12531460D02*
X14788158Y-12674317D01*
X14788158Y-12674317D02*
X14911967Y-12674317D01*
X14978634Y-12540984D02*
X14978634Y-12579079D01*
X15054825Y-12540984D02*
X15054825Y-12579079D01*
X15350063Y-12817174D02*
X15340539Y-12807650D01*
X15340539Y-12807650D02*
X15321491Y-12779079D01*
X15321491Y-12779079D02*
X15311968Y-12760031D01*
X15311968Y-12760031D02*
X15302444Y-12731460D01*
X15302444Y-12731460D02*
X15292920Y-12683841D01*
X15292920Y-12683841D02*
X15292920Y-12645746D01*
X15292920Y-12645746D02*
X15302444Y-12598127D01*
X15302444Y-12598127D02*
X15311968Y-12569555D01*
X15311968Y-12569555D02*
X15321491Y-12550508D01*
X15321491Y-12550508D02*
X15340539Y-12521936D01*
X15340539Y-12521936D02*
X15350063Y-12512412D01*
X15407206Y-12540984D02*
X15531015Y-12540984D01*
X15531015Y-12540984D02*
X15464348Y-12617174D01*
X15464348Y-12617174D02*
X15492920Y-12617174D01*
X15492920Y-12617174D02*
X15511968Y-12626698D01*
X15511968Y-12626698D02*
X15521491Y-12636222D01*
X15521491Y-12636222D02*
X15531015Y-12655269D01*
X15531015Y-12655269D02*
X15531015Y-12702888D01*
X15531015Y-12702888D02*
X15521491Y-12721936D01*
X15521491Y-12721936D02*
X15511968Y-12731460D01*
X15511968Y-12731460D02*
X15492920Y-12740984D01*
X15492920Y-12740984D02*
X15435777Y-12740984D01*
X15435777Y-12740984D02*
X15416729Y-12731460D01*
X15416729Y-12731460D02*
X15407206Y-12721936D01*
X15607206Y-12560031D02*
X15616729Y-12550508D01*
X15616729Y-12550508D02*
X15635777Y-12540984D01*
X15635777Y-12540984D02*
X15683396Y-12540984D01*
X15683396Y-12540984D02*
X15702444Y-12550508D01*
X15702444Y-12550508D02*
X15711968Y-12560031D01*
X15711968Y-12560031D02*
X15721491Y-12579079D01*
X15721491Y-12579079D02*
X15721491Y-12598127D01*
X15721491Y-12598127D02*
X15711968Y-12626698D01*
X15711968Y-12626698D02*
X15597682Y-12740984D01*
X15597682Y-12740984D02*
X15721491Y-12740984D01*
X15959587Y-12740984D02*
X15959587Y-12540984D01*
X16045301Y-12740984D02*
X16045301Y-12636222D01*
X16045301Y-12636222D02*
X16035777Y-12617174D01*
X16035777Y-12617174D02*
X16016730Y-12607650D01*
X16016730Y-12607650D02*
X15988158Y-12607650D01*
X15988158Y-12607650D02*
X15969110Y-12617174D01*
X15969110Y-12617174D02*
X15959587Y-12626698D01*
X16169110Y-12740984D02*
X16150063Y-12731460D01*
X16150063Y-12731460D02*
X16140539Y-12721936D01*
X16140539Y-12721936D02*
X16131015Y-12702888D01*
X16131015Y-12702888D02*
X16131015Y-12645746D01*
X16131015Y-12645746D02*
X16140539Y-12626698D01*
X16140539Y-12626698D02*
X16150063Y-12617174D01*
X16150063Y-12617174D02*
X16169110Y-12607650D01*
X16169110Y-12607650D02*
X16197682Y-12607650D01*
X16197682Y-12607650D02*
X16216730Y-12617174D01*
X16216730Y-12617174D02*
X16226253Y-12626698D01*
X16226253Y-12626698D02*
X16235777Y-12645746D01*
X16235777Y-12645746D02*
X16235777Y-12702888D01*
X16235777Y-12702888D02*
X16226253Y-12721936D01*
X16226253Y-12721936D02*
X16216730Y-12731460D01*
X16216730Y-12731460D02*
X16197682Y-12740984D01*
X16197682Y-12740984D02*
X16169110Y-12740984D01*
X16350063Y-12740984D02*
X16331015Y-12731460D01*
X16331015Y-12731460D02*
X16321491Y-12712412D01*
X16321491Y-12712412D02*
X16321491Y-12540984D01*
X16502444Y-12731460D02*
X16483396Y-12740984D01*
X16483396Y-12740984D02*
X16445301Y-12740984D01*
X16445301Y-12740984D02*
X16426253Y-12731460D01*
X16426253Y-12731460D02*
X16416730Y-12712412D01*
X16416730Y-12712412D02*
X16416730Y-12636222D01*
X16416730Y-12636222D02*
X16426253Y-12617174D01*
X16426253Y-12617174D02*
X16445301Y-12607650D01*
X16445301Y-12607650D02*
X16483396Y-12607650D01*
X16483396Y-12607650D02*
X16502444Y-12617174D01*
X16502444Y-12617174D02*
X16511968Y-12636222D01*
X16511968Y-12636222D02*
X16511968Y-12655269D01*
X16511968Y-12655269D02*
X16416730Y-12674317D01*
X16588158Y-12731460D02*
X16607206Y-12740984D01*
X16607206Y-12740984D02*
X16645301Y-12740984D01*
X16645301Y-12740984D02*
X16664349Y-12731460D01*
X16664349Y-12731460D02*
X16673872Y-12712412D01*
X16673872Y-12712412D02*
X16673872Y-12702888D01*
X16673872Y-12702888D02*
X16664349Y-12683841D01*
X16664349Y-12683841D02*
X16645301Y-12674317D01*
X16645301Y-12674317D02*
X16616730Y-12674317D01*
X16616730Y-12674317D02*
X16597682Y-12664793D01*
X16597682Y-12664793D02*
X16588158Y-12645746D01*
X16588158Y-12645746D02*
X16588158Y-12636222D01*
X16588158Y-12636222D02*
X16597682Y-12617174D01*
X16597682Y-12617174D02*
X16616730Y-12607650D01*
X16616730Y-12607650D02*
X16645301Y-12607650D01*
X16645301Y-12607650D02*
X16664349Y-12617174D01*
X16740539Y-12817174D02*
X16750063Y-12807650D01*
X16750063Y-12807650D02*
X16769111Y-12779079D01*
X16769111Y-12779079D02*
X16778634Y-12760031D01*
X16778634Y-12760031D02*
X16788158Y-12731460D01*
X16788158Y-12731460D02*
X16797682Y-12683841D01*
X16797682Y-12683841D02*
X16797682Y-12645746D01*
X16797682Y-12645746D02*
X16788158Y-12598127D01*
X16788158Y-12598127D02*
X16778634Y-12569555D01*
X16778634Y-12569555D02*
X16769111Y-12550508D01*
X16769111Y-12550508D02*
X16750063Y-12521936D01*
X16750063Y-12521936D02*
X16740539Y-12512412D01*
D13*
X11724200Y-12964300D02*
X11775000Y-12913500D01*
X11724200Y-12862700D01*
X11673400Y-12913500D01*
X11724200Y-12964300D01*
D11*
X12140539Y-13004984D02*
X12026253Y-13004984D01*
X12083396Y-13004984D02*
X12083396Y-12804984D01*
X12083396Y-12804984D02*
X12064348Y-12833555D01*
X12064348Y-12833555D02*
X12045301Y-12852603D01*
X12045301Y-12852603D02*
X12026253Y-12862127D01*
X12226253Y-12985936D02*
X12235777Y-12995460D01*
X12235777Y-12995460D02*
X12226253Y-13004984D01*
X12226253Y-13004984D02*
X12216729Y-12995460D01*
X12216729Y-12995460D02*
X12226253Y-12985936D01*
X12226253Y-12985936D02*
X12226253Y-13004984D01*
X12359586Y-12804984D02*
X12378634Y-12804984D01*
X12378634Y-12804984D02*
X12397682Y-12814508D01*
X12397682Y-12814508D02*
X12407205Y-12824031D01*
X12407205Y-12824031D02*
X12416729Y-12843079D01*
X12416729Y-12843079D02*
X12426253Y-12881174D01*
X12426253Y-12881174D02*
X12426253Y-12928793D01*
X12426253Y-12928793D02*
X12416729Y-12966888D01*
X12416729Y-12966888D02*
X12407205Y-12985936D01*
X12407205Y-12985936D02*
X12397682Y-12995460D01*
X12397682Y-12995460D02*
X12378634Y-13004984D01*
X12378634Y-13004984D02*
X12359586Y-13004984D01*
X12359586Y-13004984D02*
X12340539Y-12995460D01*
X12340539Y-12995460D02*
X12331015Y-12985936D01*
X12331015Y-12985936D02*
X12321491Y-12966888D01*
X12321491Y-12966888D02*
X12311967Y-12928793D01*
X12311967Y-12928793D02*
X12311967Y-12881174D01*
X12311967Y-12881174D02*
X12321491Y-12843079D01*
X12321491Y-12843079D02*
X12331015Y-12824031D01*
X12331015Y-12824031D02*
X12340539Y-12814508D01*
X12340539Y-12814508D02*
X12359586Y-12804984D01*
X12616729Y-13004984D02*
X12502443Y-13004984D01*
X12559586Y-13004984D02*
X12559586Y-12804984D01*
X12559586Y-12804984D02*
X12540539Y-12833555D01*
X12540539Y-12833555D02*
X12521491Y-12852603D01*
X12521491Y-12852603D02*
X12502443Y-12862127D01*
X12788158Y-12804984D02*
X12750062Y-12804984D01*
X12750062Y-12804984D02*
X12731015Y-12814508D01*
X12731015Y-12814508D02*
X12721491Y-12824031D01*
X12721491Y-12824031D02*
X12702443Y-12852603D01*
X12702443Y-12852603D02*
X12692920Y-12890698D01*
X12692920Y-12890698D02*
X12692920Y-12966888D01*
X12692920Y-12966888D02*
X12702443Y-12985936D01*
X12702443Y-12985936D02*
X12711967Y-12995460D01*
X12711967Y-12995460D02*
X12731015Y-13004984D01*
X12731015Y-13004984D02*
X12769110Y-13004984D01*
X12769110Y-13004984D02*
X12788158Y-12995460D01*
X12788158Y-12995460D02*
X12797682Y-12985936D01*
X12797682Y-12985936D02*
X12807205Y-12966888D01*
X12807205Y-12966888D02*
X12807205Y-12919269D01*
X12807205Y-12919269D02*
X12797682Y-12900222D01*
X12797682Y-12900222D02*
X12788158Y-12890698D01*
X12788158Y-12890698D02*
X12769110Y-12881174D01*
X12769110Y-12881174D02*
X12731015Y-12881174D01*
X12731015Y-12881174D02*
X12711967Y-12890698D01*
X12711967Y-12890698D02*
X12702443Y-12900222D01*
X12702443Y-12900222D02*
X12692920Y-12919269D01*
X12892920Y-13004984D02*
X12892920Y-12871650D01*
X12892920Y-12890698D02*
X12902443Y-12881174D01*
X12902443Y-12881174D02*
X12921491Y-12871650D01*
X12921491Y-12871650D02*
X12950063Y-12871650D01*
X12950063Y-12871650D02*
X12969110Y-12881174D01*
X12969110Y-12881174D02*
X12978634Y-12900222D01*
X12978634Y-12900222D02*
X12978634Y-13004984D01*
X12978634Y-12900222D02*
X12988158Y-12881174D01*
X12988158Y-12881174D02*
X13007205Y-12871650D01*
X13007205Y-12871650D02*
X13035777Y-12871650D01*
X13035777Y-12871650D02*
X13054824Y-12881174D01*
X13054824Y-12881174D02*
X13064348Y-12900222D01*
X13064348Y-12900222D02*
X13064348Y-13004984D01*
X13159586Y-13004984D02*
X13159586Y-12871650D01*
X13159586Y-12890698D02*
X13169110Y-12881174D01*
X13169110Y-12881174D02*
X13188158Y-12871650D01*
X13188158Y-12871650D02*
X13216729Y-12871650D01*
X13216729Y-12871650D02*
X13235777Y-12881174D01*
X13235777Y-12881174D02*
X13245301Y-12900222D01*
X13245301Y-12900222D02*
X13245301Y-13004984D01*
X13245301Y-12900222D02*
X13254824Y-12881174D01*
X13254824Y-12881174D02*
X13273872Y-12871650D01*
X13273872Y-12871650D02*
X13302443Y-12871650D01*
X13302443Y-12871650D02*
X13321491Y-12881174D01*
X13321491Y-12881174D02*
X13331015Y-12900222D01*
X13331015Y-12900222D02*
X13331015Y-13004984D01*
X13721491Y-12795460D02*
X13550063Y-13052603D01*
X13978634Y-12804984D02*
X13997682Y-12804984D01*
X13997682Y-12804984D02*
X14016729Y-12814508D01*
X14016729Y-12814508D02*
X14026253Y-12824031D01*
X14026253Y-12824031D02*
X14035777Y-12843079D01*
X14035777Y-12843079D02*
X14045301Y-12881174D01*
X14045301Y-12881174D02*
X14045301Y-12928793D01*
X14045301Y-12928793D02*
X14035777Y-12966888D01*
X14035777Y-12966888D02*
X14026253Y-12985936D01*
X14026253Y-12985936D02*
X14016729Y-12995460D01*
X14016729Y-12995460D02*
X13997682Y-13004984D01*
X13997682Y-13004984D02*
X13978634Y-13004984D01*
X13978634Y-13004984D02*
X13959586Y-12995460D01*
X13959586Y-12995460D02*
X13950063Y-12985936D01*
X13950063Y-12985936D02*
X13940539Y-12966888D01*
X13940539Y-12966888D02*
X13931015Y-12928793D01*
X13931015Y-12928793D02*
X13931015Y-12881174D01*
X13931015Y-12881174D02*
X13940539Y-12843079D01*
X13940539Y-12843079D02*
X13950063Y-12824031D01*
X13950063Y-12824031D02*
X13959586Y-12814508D01*
X13959586Y-12814508D02*
X13978634Y-12804984D01*
X14131015Y-12985936D02*
X14140539Y-12995460D01*
X14140539Y-12995460D02*
X14131015Y-13004984D01*
X14131015Y-13004984D02*
X14121491Y-12995460D01*
X14121491Y-12995460D02*
X14131015Y-12985936D01*
X14131015Y-12985936D02*
X14131015Y-13004984D01*
X14264348Y-12804984D02*
X14283396Y-12804984D01*
X14283396Y-12804984D02*
X14302444Y-12814508D01*
X14302444Y-12814508D02*
X14311967Y-12824031D01*
X14311967Y-12824031D02*
X14321491Y-12843079D01*
X14321491Y-12843079D02*
X14331015Y-12881174D01*
X14331015Y-12881174D02*
X14331015Y-12928793D01*
X14331015Y-12928793D02*
X14321491Y-12966888D01*
X14321491Y-12966888D02*
X14311967Y-12985936D01*
X14311967Y-12985936D02*
X14302444Y-12995460D01*
X14302444Y-12995460D02*
X14283396Y-13004984D01*
X14283396Y-13004984D02*
X14264348Y-13004984D01*
X14264348Y-13004984D02*
X14245301Y-12995460D01*
X14245301Y-12995460D02*
X14235777Y-12985936D01*
X14235777Y-12985936D02*
X14226253Y-12966888D01*
X14226253Y-12966888D02*
X14216729Y-12928793D01*
X14216729Y-12928793D02*
X14216729Y-12881174D01*
X14216729Y-12881174D02*
X14226253Y-12843079D01*
X14226253Y-12843079D02*
X14235777Y-12824031D01*
X14235777Y-12824031D02*
X14245301Y-12814508D01*
X14245301Y-12814508D02*
X14264348Y-12804984D01*
X14502444Y-12871650D02*
X14502444Y-13004984D01*
X14454825Y-12795460D02*
X14407206Y-12938317D01*
X14407206Y-12938317D02*
X14531015Y-12938317D01*
X14645301Y-12804984D02*
X14664348Y-12804984D01*
X14664348Y-12804984D02*
X14683396Y-12814508D01*
X14683396Y-12814508D02*
X14692920Y-12824031D01*
X14692920Y-12824031D02*
X14702444Y-12843079D01*
X14702444Y-12843079D02*
X14711967Y-12881174D01*
X14711967Y-12881174D02*
X14711967Y-12928793D01*
X14711967Y-12928793D02*
X14702444Y-12966888D01*
X14702444Y-12966888D02*
X14692920Y-12985936D01*
X14692920Y-12985936D02*
X14683396Y-12995460D01*
X14683396Y-12995460D02*
X14664348Y-13004984D01*
X14664348Y-13004984D02*
X14645301Y-13004984D01*
X14645301Y-13004984D02*
X14626253Y-12995460D01*
X14626253Y-12995460D02*
X14616729Y-12985936D01*
X14616729Y-12985936D02*
X14607206Y-12966888D01*
X14607206Y-12966888D02*
X14597682Y-12928793D01*
X14597682Y-12928793D02*
X14597682Y-12881174D01*
X14597682Y-12881174D02*
X14607206Y-12843079D01*
X14607206Y-12843079D02*
X14616729Y-12824031D01*
X14616729Y-12824031D02*
X14626253Y-12814508D01*
X14626253Y-12814508D02*
X14645301Y-12804984D01*
X14835777Y-12804984D02*
X14854825Y-12804984D01*
X14854825Y-12804984D02*
X14873872Y-12814508D01*
X14873872Y-12814508D02*
X14883396Y-12824031D01*
X14883396Y-12824031D02*
X14892920Y-12843079D01*
X14892920Y-12843079D02*
X14902444Y-12881174D01*
X14902444Y-12881174D02*
X14902444Y-12928793D01*
X14902444Y-12928793D02*
X14892920Y-12966888D01*
X14892920Y-12966888D02*
X14883396Y-12985936D01*
X14883396Y-12985936D02*
X14873872Y-12995460D01*
X14873872Y-12995460D02*
X14854825Y-13004984D01*
X14854825Y-13004984D02*
X14835777Y-13004984D01*
X14835777Y-13004984D02*
X14816729Y-12995460D01*
X14816729Y-12995460D02*
X14807206Y-12985936D01*
X14807206Y-12985936D02*
X14797682Y-12966888D01*
X14797682Y-12966888D02*
X14788158Y-12928793D01*
X14788158Y-12928793D02*
X14788158Y-12881174D01*
X14788158Y-12881174D02*
X14797682Y-12843079D01*
X14797682Y-12843079D02*
X14807206Y-12824031D01*
X14807206Y-12824031D02*
X14816729Y-12814508D01*
X14816729Y-12814508D02*
X14835777Y-12804984D01*
X14978634Y-12804984D02*
X14978634Y-12843079D01*
X15054825Y-12804984D02*
X15054825Y-12843079D01*
X15350063Y-13081174D02*
X15340539Y-13071650D01*
X15340539Y-13071650D02*
X15321491Y-13043079D01*
X15321491Y-13043079D02*
X15311968Y-13024031D01*
X15311968Y-13024031D02*
X15302444Y-12995460D01*
X15302444Y-12995460D02*
X15292920Y-12947841D01*
X15292920Y-12947841D02*
X15292920Y-12909746D01*
X15292920Y-12909746D02*
X15302444Y-12862127D01*
X15302444Y-12862127D02*
X15311968Y-12833555D01*
X15311968Y-12833555D02*
X15321491Y-12814508D01*
X15321491Y-12814508D02*
X15340539Y-12785936D01*
X15340539Y-12785936D02*
X15350063Y-12776412D01*
X15416729Y-12824031D02*
X15426253Y-12814508D01*
X15426253Y-12814508D02*
X15445301Y-12804984D01*
X15445301Y-12804984D02*
X15492920Y-12804984D01*
X15492920Y-12804984D02*
X15511968Y-12814508D01*
X15511968Y-12814508D02*
X15521491Y-12824031D01*
X15521491Y-12824031D02*
X15531015Y-12843079D01*
X15531015Y-12843079D02*
X15531015Y-12862127D01*
X15531015Y-12862127D02*
X15521491Y-12890698D01*
X15521491Y-12890698D02*
X15407206Y-13004984D01*
X15407206Y-13004984D02*
X15531015Y-13004984D01*
X15769110Y-13004984D02*
X15769110Y-12804984D01*
X15854825Y-13004984D02*
X15854825Y-12900222D01*
X15854825Y-12900222D02*
X15845301Y-12881174D01*
X15845301Y-12881174D02*
X15826253Y-12871650D01*
X15826253Y-12871650D02*
X15797682Y-12871650D01*
X15797682Y-12871650D02*
X15778634Y-12881174D01*
X15778634Y-12881174D02*
X15769110Y-12890698D01*
X15978634Y-13004984D02*
X15959587Y-12995460D01*
X15959587Y-12995460D02*
X15950063Y-12985936D01*
X15950063Y-12985936D02*
X15940539Y-12966888D01*
X15940539Y-12966888D02*
X15940539Y-12909746D01*
X15940539Y-12909746D02*
X15950063Y-12890698D01*
X15950063Y-12890698D02*
X15959587Y-12881174D01*
X15959587Y-12881174D02*
X15978634Y-12871650D01*
X15978634Y-12871650D02*
X16007206Y-12871650D01*
X16007206Y-12871650D02*
X16026253Y-12881174D01*
X16026253Y-12881174D02*
X16035777Y-12890698D01*
X16035777Y-12890698D02*
X16045301Y-12909746D01*
X16045301Y-12909746D02*
X16045301Y-12966888D01*
X16045301Y-12966888D02*
X16035777Y-12985936D01*
X16035777Y-12985936D02*
X16026253Y-12995460D01*
X16026253Y-12995460D02*
X16007206Y-13004984D01*
X16007206Y-13004984D02*
X15978634Y-13004984D01*
X16159587Y-13004984D02*
X16140539Y-12995460D01*
X16140539Y-12995460D02*
X16131015Y-12976412D01*
X16131015Y-12976412D02*
X16131015Y-12804984D01*
X16311968Y-12995460D02*
X16292920Y-13004984D01*
X16292920Y-13004984D02*
X16254825Y-13004984D01*
X16254825Y-13004984D02*
X16235777Y-12995460D01*
X16235777Y-12995460D02*
X16226253Y-12976412D01*
X16226253Y-12976412D02*
X16226253Y-12900222D01*
X16226253Y-12900222D02*
X16235777Y-12881174D01*
X16235777Y-12881174D02*
X16254825Y-12871650D01*
X16254825Y-12871650D02*
X16292920Y-12871650D01*
X16292920Y-12871650D02*
X16311968Y-12881174D01*
X16311968Y-12881174D02*
X16321491Y-12900222D01*
X16321491Y-12900222D02*
X16321491Y-12919269D01*
X16321491Y-12919269D02*
X16226253Y-12938317D01*
X16397682Y-12995460D02*
X16416730Y-13004984D01*
X16416730Y-13004984D02*
X16454825Y-13004984D01*
X16454825Y-13004984D02*
X16473872Y-12995460D01*
X16473872Y-12995460D02*
X16483396Y-12976412D01*
X16483396Y-12976412D02*
X16483396Y-12966888D01*
X16483396Y-12966888D02*
X16473872Y-12947841D01*
X16473872Y-12947841D02*
X16454825Y-12938317D01*
X16454825Y-12938317D02*
X16426253Y-12938317D01*
X16426253Y-12938317D02*
X16407206Y-12928793D01*
X16407206Y-12928793D02*
X16397682Y-12909746D01*
X16397682Y-12909746D02*
X16397682Y-12900222D01*
X16397682Y-12900222D02*
X16407206Y-12881174D01*
X16407206Y-12881174D02*
X16426253Y-12871650D01*
X16426253Y-12871650D02*
X16454825Y-12871650D01*
X16454825Y-12871650D02*
X16473872Y-12881174D01*
X16550063Y-13081174D02*
X16559587Y-13071650D01*
X16559587Y-13071650D02*
X16578634Y-13043079D01*
X16578634Y-13043079D02*
X16588158Y-13024031D01*
X16588158Y-13024031D02*
X16597682Y-12995460D01*
X16597682Y-12995460D02*
X16607206Y-12947841D01*
X16607206Y-12947841D02*
X16607206Y-12909746D01*
X16607206Y-12909746D02*
X16597682Y-12862127D01*
X16597682Y-12862127D02*
X16588158Y-12833555D01*
X16588158Y-12833555D02*
X16578634Y-12814508D01*
X16578634Y-12814508D02*
X16559587Y-12785936D01*
X16559587Y-12785936D02*
X16550063Y-12776412D01*
X11575000Y-13077500D02*
X11775000Y-13277500D01*
X11775000Y-13077500D02*
X11575000Y-13277500D01*
X11775000Y-13177500D02*
G75*
G02*
X11575000Y-13177500I-100000J0D01*
G01*
X11575000Y-13177500D02*
G75*
G02*
X11775000Y-13177500I100000J0D01*
G01*
X12026253Y-13088031D02*
X12035777Y-13078508D01*
X12035777Y-13078508D02*
X12054824Y-13068984D01*
X12054824Y-13068984D02*
X12102443Y-13068984D01*
X12102443Y-13068984D02*
X12121491Y-13078508D01*
X12121491Y-13078508D02*
X12131015Y-13088031D01*
X12131015Y-13088031D02*
X12140539Y-13107079D01*
X12140539Y-13107079D02*
X12140539Y-13126127D01*
X12140539Y-13126127D02*
X12131015Y-13154698D01*
X12131015Y-13154698D02*
X12016729Y-13268984D01*
X12016729Y-13268984D02*
X12140539Y-13268984D01*
X12226253Y-13249936D02*
X12235777Y-13259460D01*
X12235777Y-13259460D02*
X12226253Y-13268984D01*
X12226253Y-13268984D02*
X12216729Y-13259460D01*
X12216729Y-13259460D02*
X12226253Y-13249936D01*
X12226253Y-13249936D02*
X12226253Y-13268984D01*
X12416729Y-13068984D02*
X12321491Y-13068984D01*
X12321491Y-13068984D02*
X12311967Y-13164222D01*
X12311967Y-13164222D02*
X12321491Y-13154698D01*
X12321491Y-13154698D02*
X12340539Y-13145174D01*
X12340539Y-13145174D02*
X12388158Y-13145174D01*
X12388158Y-13145174D02*
X12407205Y-13154698D01*
X12407205Y-13154698D02*
X12416729Y-13164222D01*
X12416729Y-13164222D02*
X12426253Y-13183269D01*
X12426253Y-13183269D02*
X12426253Y-13230888D01*
X12426253Y-13230888D02*
X12416729Y-13249936D01*
X12416729Y-13249936D02*
X12407205Y-13259460D01*
X12407205Y-13259460D02*
X12388158Y-13268984D01*
X12388158Y-13268984D02*
X12340539Y-13268984D01*
X12340539Y-13268984D02*
X12321491Y-13259460D01*
X12321491Y-13259460D02*
X12311967Y-13249936D01*
X12550062Y-13068984D02*
X12569110Y-13068984D01*
X12569110Y-13068984D02*
X12588158Y-13078508D01*
X12588158Y-13078508D02*
X12597682Y-13088031D01*
X12597682Y-13088031D02*
X12607205Y-13107079D01*
X12607205Y-13107079D02*
X12616729Y-13145174D01*
X12616729Y-13145174D02*
X12616729Y-13192793D01*
X12616729Y-13192793D02*
X12607205Y-13230888D01*
X12607205Y-13230888D02*
X12597682Y-13249936D01*
X12597682Y-13249936D02*
X12588158Y-13259460D01*
X12588158Y-13259460D02*
X12569110Y-13268984D01*
X12569110Y-13268984D02*
X12550062Y-13268984D01*
X12550062Y-13268984D02*
X12531015Y-13259460D01*
X12531015Y-13259460D02*
X12521491Y-13249936D01*
X12521491Y-13249936D02*
X12511967Y-13230888D01*
X12511967Y-13230888D02*
X12502443Y-13192793D01*
X12502443Y-13192793D02*
X12502443Y-13145174D01*
X12502443Y-13145174D02*
X12511967Y-13107079D01*
X12511967Y-13107079D02*
X12521491Y-13088031D01*
X12521491Y-13088031D02*
X12531015Y-13078508D01*
X12531015Y-13078508D02*
X12550062Y-13068984D01*
X12740539Y-13068984D02*
X12759586Y-13068984D01*
X12759586Y-13068984D02*
X12778634Y-13078508D01*
X12778634Y-13078508D02*
X12788158Y-13088031D01*
X12788158Y-13088031D02*
X12797682Y-13107079D01*
X12797682Y-13107079D02*
X12807205Y-13145174D01*
X12807205Y-13145174D02*
X12807205Y-13192793D01*
X12807205Y-13192793D02*
X12797682Y-13230888D01*
X12797682Y-13230888D02*
X12788158Y-13249936D01*
X12788158Y-13249936D02*
X12778634Y-13259460D01*
X12778634Y-13259460D02*
X12759586Y-13268984D01*
X12759586Y-13268984D02*
X12740539Y-13268984D01*
X12740539Y-13268984D02*
X12721491Y-13259460D01*
X12721491Y-13259460D02*
X12711967Y-13249936D01*
X12711967Y-13249936D02*
X12702443Y-13230888D01*
X12702443Y-13230888D02*
X12692920Y-13192793D01*
X12692920Y-13192793D02*
X12692920Y-13145174D01*
X12692920Y-13145174D02*
X12702443Y-13107079D01*
X12702443Y-13107079D02*
X12711967Y-13088031D01*
X12711967Y-13088031D02*
X12721491Y-13078508D01*
X12721491Y-13078508D02*
X12740539Y-13068984D01*
X12892920Y-13268984D02*
X12892920Y-13135650D01*
X12892920Y-13154698D02*
X12902443Y-13145174D01*
X12902443Y-13145174D02*
X12921491Y-13135650D01*
X12921491Y-13135650D02*
X12950063Y-13135650D01*
X12950063Y-13135650D02*
X12969110Y-13145174D01*
X12969110Y-13145174D02*
X12978634Y-13164222D01*
X12978634Y-13164222D02*
X12978634Y-13268984D01*
X12978634Y-13164222D02*
X12988158Y-13145174D01*
X12988158Y-13145174D02*
X13007205Y-13135650D01*
X13007205Y-13135650D02*
X13035777Y-13135650D01*
X13035777Y-13135650D02*
X13054824Y-13145174D01*
X13054824Y-13145174D02*
X13064348Y-13164222D01*
X13064348Y-13164222D02*
X13064348Y-13268984D01*
X13159586Y-13268984D02*
X13159586Y-13135650D01*
X13159586Y-13154698D02*
X13169110Y-13145174D01*
X13169110Y-13145174D02*
X13188158Y-13135650D01*
X13188158Y-13135650D02*
X13216729Y-13135650D01*
X13216729Y-13135650D02*
X13235777Y-13145174D01*
X13235777Y-13145174D02*
X13245301Y-13164222D01*
X13245301Y-13164222D02*
X13245301Y-13268984D01*
X13245301Y-13164222D02*
X13254824Y-13145174D01*
X13254824Y-13145174D02*
X13273872Y-13135650D01*
X13273872Y-13135650D02*
X13302443Y-13135650D01*
X13302443Y-13135650D02*
X13321491Y-13145174D01*
X13321491Y-13145174D02*
X13331015Y-13164222D01*
X13331015Y-13164222D02*
X13331015Y-13268984D01*
X13721491Y-13059460D02*
X13550063Y-13316603D01*
X13978634Y-13068984D02*
X13997682Y-13068984D01*
X13997682Y-13068984D02*
X14016729Y-13078508D01*
X14016729Y-13078508D02*
X14026253Y-13088031D01*
X14026253Y-13088031D02*
X14035777Y-13107079D01*
X14035777Y-13107079D02*
X14045301Y-13145174D01*
X14045301Y-13145174D02*
X14045301Y-13192793D01*
X14045301Y-13192793D02*
X14035777Y-13230888D01*
X14035777Y-13230888D02*
X14026253Y-13249936D01*
X14026253Y-13249936D02*
X14016729Y-13259460D01*
X14016729Y-13259460D02*
X13997682Y-13268984D01*
X13997682Y-13268984D02*
X13978634Y-13268984D01*
X13978634Y-13268984D02*
X13959586Y-13259460D01*
X13959586Y-13259460D02*
X13950063Y-13249936D01*
X13950063Y-13249936D02*
X13940539Y-13230888D01*
X13940539Y-13230888D02*
X13931015Y-13192793D01*
X13931015Y-13192793D02*
X13931015Y-13145174D01*
X13931015Y-13145174D02*
X13940539Y-13107079D01*
X13940539Y-13107079D02*
X13950063Y-13088031D01*
X13950063Y-13088031D02*
X13959586Y-13078508D01*
X13959586Y-13078508D02*
X13978634Y-13068984D01*
X14131015Y-13249936D02*
X14140539Y-13259460D01*
X14140539Y-13259460D02*
X14131015Y-13268984D01*
X14131015Y-13268984D02*
X14121491Y-13259460D01*
X14121491Y-13259460D02*
X14131015Y-13249936D01*
X14131015Y-13249936D02*
X14131015Y-13268984D01*
X14264348Y-13068984D02*
X14283396Y-13068984D01*
X14283396Y-13068984D02*
X14302444Y-13078508D01*
X14302444Y-13078508D02*
X14311967Y-13088031D01*
X14311967Y-13088031D02*
X14321491Y-13107079D01*
X14321491Y-13107079D02*
X14331015Y-13145174D01*
X14331015Y-13145174D02*
X14331015Y-13192793D01*
X14331015Y-13192793D02*
X14321491Y-13230888D01*
X14321491Y-13230888D02*
X14311967Y-13249936D01*
X14311967Y-13249936D02*
X14302444Y-13259460D01*
X14302444Y-13259460D02*
X14283396Y-13268984D01*
X14283396Y-13268984D02*
X14264348Y-13268984D01*
X14264348Y-13268984D02*
X14245301Y-13259460D01*
X14245301Y-13259460D02*
X14235777Y-13249936D01*
X14235777Y-13249936D02*
X14226253Y-13230888D01*
X14226253Y-13230888D02*
X14216729Y-13192793D01*
X14216729Y-13192793D02*
X14216729Y-13145174D01*
X14216729Y-13145174D02*
X14226253Y-13107079D01*
X14226253Y-13107079D02*
X14235777Y-13088031D01*
X14235777Y-13088031D02*
X14245301Y-13078508D01*
X14245301Y-13078508D02*
X14264348Y-13068984D01*
X14426253Y-13268984D02*
X14464348Y-13268984D01*
X14464348Y-13268984D02*
X14483396Y-13259460D01*
X14483396Y-13259460D02*
X14492920Y-13249936D01*
X14492920Y-13249936D02*
X14511967Y-13221365D01*
X14511967Y-13221365D02*
X14521491Y-13183269D01*
X14521491Y-13183269D02*
X14521491Y-13107079D01*
X14521491Y-13107079D02*
X14511967Y-13088031D01*
X14511967Y-13088031D02*
X14502444Y-13078508D01*
X14502444Y-13078508D02*
X14483396Y-13068984D01*
X14483396Y-13068984D02*
X14445301Y-13068984D01*
X14445301Y-13068984D02*
X14426253Y-13078508D01*
X14426253Y-13078508D02*
X14416729Y-13088031D01*
X14416729Y-13088031D02*
X14407206Y-13107079D01*
X14407206Y-13107079D02*
X14407206Y-13154698D01*
X14407206Y-13154698D02*
X14416729Y-13173746D01*
X14416729Y-13173746D02*
X14426253Y-13183269D01*
X14426253Y-13183269D02*
X14445301Y-13192793D01*
X14445301Y-13192793D02*
X14483396Y-13192793D01*
X14483396Y-13192793D02*
X14502444Y-13183269D01*
X14502444Y-13183269D02*
X14511967Y-13173746D01*
X14511967Y-13173746D02*
X14521491Y-13154698D01*
X14635777Y-13154698D02*
X14616729Y-13145174D01*
X14616729Y-13145174D02*
X14607206Y-13135650D01*
X14607206Y-13135650D02*
X14597682Y-13116603D01*
X14597682Y-13116603D02*
X14597682Y-13107079D01*
X14597682Y-13107079D02*
X14607206Y-13088031D01*
X14607206Y-13088031D02*
X14616729Y-13078508D01*
X14616729Y-13078508D02*
X14635777Y-13068984D01*
X14635777Y-13068984D02*
X14673872Y-13068984D01*
X14673872Y-13068984D02*
X14692920Y-13078508D01*
X14692920Y-13078508D02*
X14702444Y-13088031D01*
X14702444Y-13088031D02*
X14711967Y-13107079D01*
X14711967Y-13107079D02*
X14711967Y-13116603D01*
X14711967Y-13116603D02*
X14702444Y-13135650D01*
X14702444Y-13135650D02*
X14692920Y-13145174D01*
X14692920Y-13145174D02*
X14673872Y-13154698D01*
X14673872Y-13154698D02*
X14635777Y-13154698D01*
X14635777Y-13154698D02*
X14616729Y-13164222D01*
X14616729Y-13164222D02*
X14607206Y-13173746D01*
X14607206Y-13173746D02*
X14597682Y-13192793D01*
X14597682Y-13192793D02*
X14597682Y-13230888D01*
X14597682Y-13230888D02*
X14607206Y-13249936D01*
X14607206Y-13249936D02*
X14616729Y-13259460D01*
X14616729Y-13259460D02*
X14635777Y-13268984D01*
X14635777Y-13268984D02*
X14673872Y-13268984D01*
X14673872Y-13268984D02*
X14692920Y-13259460D01*
X14692920Y-13259460D02*
X14702444Y-13249936D01*
X14702444Y-13249936D02*
X14711967Y-13230888D01*
X14711967Y-13230888D02*
X14711967Y-13192793D01*
X14711967Y-13192793D02*
X14702444Y-13173746D01*
X14702444Y-13173746D02*
X14692920Y-13164222D01*
X14692920Y-13164222D02*
X14673872Y-13154698D01*
X14883396Y-13135650D02*
X14883396Y-13268984D01*
X14835777Y-13059460D02*
X14788158Y-13202317D01*
X14788158Y-13202317D02*
X14911967Y-13202317D01*
X14978634Y-13068984D02*
X14978634Y-13107079D01*
X15054825Y-13068984D02*
X15054825Y-13107079D01*
X15350063Y-13345174D02*
X15340539Y-13335650D01*
X15340539Y-13335650D02*
X15321491Y-13307079D01*
X15321491Y-13307079D02*
X15311968Y-13288031D01*
X15311968Y-13288031D02*
X15302444Y-13259460D01*
X15302444Y-13259460D02*
X15292920Y-13211841D01*
X15292920Y-13211841D02*
X15292920Y-13173746D01*
X15292920Y-13173746D02*
X15302444Y-13126127D01*
X15302444Y-13126127D02*
X15311968Y-13097555D01*
X15311968Y-13097555D02*
X15321491Y-13078508D01*
X15321491Y-13078508D02*
X15340539Y-13049936D01*
X15340539Y-13049936D02*
X15350063Y-13040412D01*
X15511968Y-13135650D02*
X15511968Y-13268984D01*
X15464348Y-13059460D02*
X15416729Y-13202317D01*
X15416729Y-13202317D02*
X15540539Y-13202317D01*
X15769110Y-13268984D02*
X15769110Y-13068984D01*
X15854825Y-13268984D02*
X15854825Y-13164222D01*
X15854825Y-13164222D02*
X15845301Y-13145174D01*
X15845301Y-13145174D02*
X15826253Y-13135650D01*
X15826253Y-13135650D02*
X15797682Y-13135650D01*
X15797682Y-13135650D02*
X15778634Y-13145174D01*
X15778634Y-13145174D02*
X15769110Y-13154698D01*
X15978634Y-13268984D02*
X15959587Y-13259460D01*
X15959587Y-13259460D02*
X15950063Y-13249936D01*
X15950063Y-13249936D02*
X15940539Y-13230888D01*
X15940539Y-13230888D02*
X15940539Y-13173746D01*
X15940539Y-13173746D02*
X15950063Y-13154698D01*
X15950063Y-13154698D02*
X15959587Y-13145174D01*
X15959587Y-13145174D02*
X15978634Y-13135650D01*
X15978634Y-13135650D02*
X16007206Y-13135650D01*
X16007206Y-13135650D02*
X16026253Y-13145174D01*
X16026253Y-13145174D02*
X16035777Y-13154698D01*
X16035777Y-13154698D02*
X16045301Y-13173746D01*
X16045301Y-13173746D02*
X16045301Y-13230888D01*
X16045301Y-13230888D02*
X16035777Y-13249936D01*
X16035777Y-13249936D02*
X16026253Y-13259460D01*
X16026253Y-13259460D02*
X16007206Y-13268984D01*
X16007206Y-13268984D02*
X15978634Y-13268984D01*
X16159587Y-13268984D02*
X16140539Y-13259460D01*
X16140539Y-13259460D02*
X16131015Y-13240412D01*
X16131015Y-13240412D02*
X16131015Y-13068984D01*
X16311968Y-13259460D02*
X16292920Y-13268984D01*
X16292920Y-13268984D02*
X16254825Y-13268984D01*
X16254825Y-13268984D02*
X16235777Y-13259460D01*
X16235777Y-13259460D02*
X16226253Y-13240412D01*
X16226253Y-13240412D02*
X16226253Y-13164222D01*
X16226253Y-13164222D02*
X16235777Y-13145174D01*
X16235777Y-13145174D02*
X16254825Y-13135650D01*
X16254825Y-13135650D02*
X16292920Y-13135650D01*
X16292920Y-13135650D02*
X16311968Y-13145174D01*
X16311968Y-13145174D02*
X16321491Y-13164222D01*
X16321491Y-13164222D02*
X16321491Y-13183269D01*
X16321491Y-13183269D02*
X16226253Y-13202317D01*
X16397682Y-13259460D02*
X16416730Y-13268984D01*
X16416730Y-13268984D02*
X16454825Y-13268984D01*
X16454825Y-13268984D02*
X16473872Y-13259460D01*
X16473872Y-13259460D02*
X16483396Y-13240412D01*
X16483396Y-13240412D02*
X16483396Y-13230888D01*
X16483396Y-13230888D02*
X16473872Y-13211841D01*
X16473872Y-13211841D02*
X16454825Y-13202317D01*
X16454825Y-13202317D02*
X16426253Y-13202317D01*
X16426253Y-13202317D02*
X16407206Y-13192793D01*
X16407206Y-13192793D02*
X16397682Y-13173746D01*
X16397682Y-13173746D02*
X16397682Y-13164222D01*
X16397682Y-13164222D02*
X16407206Y-13145174D01*
X16407206Y-13145174D02*
X16426253Y-13135650D01*
X16426253Y-13135650D02*
X16454825Y-13135650D01*
X16454825Y-13135650D02*
X16473872Y-13145174D01*
X16550063Y-13345174D02*
X16559587Y-13335650D01*
X16559587Y-13335650D02*
X16578634Y-13307079D01*
X16578634Y-13307079D02*
X16588158Y-13288031D01*
X16588158Y-13288031D02*
X16597682Y-13259460D01*
X16597682Y-13259460D02*
X16607206Y-13211841D01*
X16607206Y-13211841D02*
X16607206Y-13173746D01*
X16607206Y-13173746D02*
X16597682Y-13126127D01*
X16597682Y-13126127D02*
X16588158Y-13097555D01*
X16588158Y-13097555D02*
X16578634Y-13078508D01*
X16578634Y-13078508D02*
X16559587Y-13049936D01*
X16559587Y-13049936D02*
X16550063Y-13040412D01*
M02*
