%TF.GenerationSoftware,KiCad,Pcbnew,8.0.5*%
%TF.CreationDate,2025-09-24T21:27:07-07:00*%
%TF.ProjectId,receiver,72656365-6976-4657-922e-6b696361645f,rev?*%
%TF.SameCoordinates,Original*%
%TF.FileFunction,Soldermask,Bot*%
%TF.FilePolarity,Negative*%
%FSLAX46Y46*%
G04 Gerber Fmt 4.6, Leading zero omitted, Abs format (unit mm)*
G04 Created by KiCad (PCBNEW 8.0.5) date 2025-09-24 21:27:07*
%MOMM*%
%LPD*%
G01*
G04 APERTURE LIST*
%ADD10C,1.400000*%
%ADD11O,1.400000X1.400000*%
%ADD12C,2.900000*%
%ADD13C,5.000000*%
%ADD14R,1.600000X1.600000*%
%ADD15C,1.600000*%
%ADD16R,1.700000X1.700000*%
%ADD17C,1.700000*%
%ADD18O,3.500000X3.500000*%
%ADD19R,1.905000X2.000000*%
%ADD20O,1.905000X2.000000*%
%ADD21O,1.700000X1.700000*%
%ADD22O,1.600000X1.600000*%
%ADD23R,1.500000X1.500000*%
%ADD24C,1.500000*%
%ADD25C,2.290000*%
%ADD26C,1.728000*%
%ADD27R,1.800000X1.800000*%
%ADD28C,1.800000*%
G04 APERTURE END LIST*
D10*
%TO.C,R6*%
X131110000Y-58150000D03*
D11*
X138730000Y-58150000D03*
%TD*%
D12*
%TO.C,H2*%
X121012500Y-108912500D03*
D13*
X121012500Y-108912500D03*
%TD*%
D14*
%TO.C,C3*%
X141375113Y-62150000D03*
D15*
X138875113Y-62150000D03*
%TD*%
D12*
%TO.C,H4*%
X145162500Y-47462500D03*
D13*
X145162500Y-47462500D03*
%TD*%
D16*
%TO.C,U3*%
X138880000Y-67190000D03*
D17*
X141420000Y-67190000D03*
X138880000Y-69730000D03*
X141420000Y-69730000D03*
X138880000Y-72270000D03*
X141420000Y-72270000D03*
X138880000Y-74810000D03*
X141420000Y-74810000D03*
%TD*%
D18*
%TO.C,U2*%
X142270000Y-83770000D03*
D19*
X139730000Y-100430000D03*
D20*
X142270000Y-100430000D03*
X144810000Y-100430000D03*
%TD*%
D12*
%TO.C,H3*%
X145162500Y-108912500D03*
D13*
X145162500Y-108912500D03*
%TD*%
D14*
%TO.C,C4*%
X134570000Y-87070000D03*
D15*
X132070000Y-87070000D03*
%TD*%
D10*
%TO.C,R8*%
X127970000Y-60860000D03*
D11*
X127970000Y-53240000D03*
%TD*%
D16*
%TO.C,M2*%
X134330000Y-103335000D03*
D21*
X131790000Y-103335000D03*
%TD*%
D10*
%TO.C,R5*%
X131110000Y-53290000D03*
D11*
X138730000Y-53290000D03*
%TD*%
D14*
%TO.C,U4*%
X134540000Y-92180000D03*
D22*
X132000000Y-92180000D03*
X129460000Y-92180000D03*
X126920000Y-92180000D03*
X126920000Y-99800000D03*
X129460000Y-99800000D03*
X132000000Y-99800000D03*
X134540000Y-99800000D03*
%TD*%
D14*
%TO.C,C1*%
X130630000Y-62020000D03*
D15*
X133130000Y-62020000D03*
%TD*%
D12*
%TO.C,H1*%
X121012500Y-47462500D03*
D13*
X121012500Y-47462500D03*
%TD*%
D23*
%TO.C,Q1*%
X119390000Y-54040000D03*
D24*
X121930000Y-54040000D03*
X124470000Y-54040000D03*
%TD*%
D23*
%TO.C,Q2*%
X141680000Y-53990000D03*
D24*
X144220000Y-53990000D03*
X146760000Y-53990000D03*
%TD*%
D10*
%TO.C,R4*%
X138730000Y-55710000D03*
D11*
X131110000Y-55710000D03*
%TD*%
D14*
%TO.C,C2*%
X127440000Y-87100000D03*
D15*
X124940000Y-87100000D03*
%TD*%
D16*
%TO.C,SW1*%
X123090000Y-95790000D03*
D21*
X123090000Y-98330000D03*
X123090000Y-100870000D03*
%TD*%
D16*
%TO.C,M1*%
X124960000Y-82460000D03*
D21*
X122420000Y-82460000D03*
X119880000Y-82460000D03*
%TD*%
D14*
%TO.C,U1*%
X128000000Y-66525000D03*
D22*
X128000000Y-69065000D03*
X128000000Y-71605000D03*
X128000000Y-74145000D03*
X128000000Y-76685000D03*
X128000000Y-79225000D03*
X128000000Y-81765000D03*
X135620000Y-81765000D03*
X135620000Y-79225000D03*
X135620000Y-76685000D03*
X135620000Y-74145000D03*
X135620000Y-71605000D03*
X135620000Y-69065000D03*
X135620000Y-66525000D03*
%TD*%
D25*
%TO.C,BT1*%
X122000000Y-64560000D03*
X144350000Y-78050000D03*
X122000000Y-91530000D03*
D26*
X139440000Y-103130000D03*
X126740000Y-103130000D03*
%TD*%
D27*
%TO.C,D3*%
X137650000Y-47580000D03*
D28*
X135110000Y-47580000D03*
%TD*%
D27*
%TO.C,D2*%
X127880000Y-47580000D03*
D28*
X130420000Y-47580000D03*
%TD*%
M02*
