%TF.GenerationSoftware,KiCad,Pcbnew,8.0.5*%
%TF.CreationDate,2025-09-24T21:27:06-07:00*%
%TF.ProjectId,receiver,72656365-6976-4657-922e-6b696361645f,rev?*%
%TF.SameCoordinates,Original*%
%TF.FileFunction,Copper,L3,Inr*%
%TF.FilePolarity,Positive*%
%FSLAX46Y46*%
G04 Gerber Fmt 4.6, Leading zero omitted, Abs format (unit mm)*
G04 Created by KiCad (PCBNEW 8.0.5) date 2025-09-24 21:27:06*
%MOMM*%
%LPD*%
G01*
G04 APERTURE LIST*
%TA.AperFunction,ComponentPad*%
%ADD10C,1.400000*%
%TD*%
%TA.AperFunction,ComponentPad*%
%ADD11O,1.400000X1.400000*%
%TD*%
%TA.AperFunction,ComponentPad*%
%ADD12C,2.900000*%
%TD*%
%TA.AperFunction,ComponentPad*%
%ADD13R,1.600000X1.600000*%
%TD*%
%TA.AperFunction,ComponentPad*%
%ADD14C,1.600000*%
%TD*%
%TA.AperFunction,ComponentPad*%
%ADD15R,1.700000X1.700000*%
%TD*%
%TA.AperFunction,ComponentPad*%
%ADD16C,1.700000*%
%TD*%
%TA.AperFunction,ComponentPad*%
%ADD17R,1.905000X2.000000*%
%TD*%
%TA.AperFunction,ComponentPad*%
%ADD18O,1.905000X2.000000*%
%TD*%
%TA.AperFunction,ComponentPad*%
%ADD19O,1.700000X1.700000*%
%TD*%
%TA.AperFunction,ComponentPad*%
%ADD20O,1.600000X1.600000*%
%TD*%
%TA.AperFunction,ComponentPad*%
%ADD21R,1.500000X1.500000*%
%TD*%
%TA.AperFunction,ComponentPad*%
%ADD22C,1.500000*%
%TD*%
%TA.AperFunction,ComponentPad*%
%ADD23C,1.524000*%
%TD*%
%TA.AperFunction,ComponentPad*%
%ADD24R,1.800000X1.800000*%
%TD*%
%TA.AperFunction,ComponentPad*%
%ADD25C,1.800000*%
%TD*%
G04 APERTURE END LIST*
D10*
%TO.N,LIGHTS*%
%TO.C,R6*%
X131110000Y-58150000D03*
D11*
%TO.N,GND*%
X138730000Y-58150000D03*
%TD*%
D12*
%TO.N,GND*%
%TO.C,H2*%
X121012500Y-108912500D03*
%TD*%
D13*
%TO.N,+3.3V*%
%TO.C,C3*%
X141375113Y-62150000D03*
D14*
%TO.N,GND*%
X138875113Y-62150000D03*
%TD*%
D12*
%TO.N,GND*%
%TO.C,H4*%
X145162500Y-47462500D03*
%TD*%
D15*
%TO.N,GND*%
%TO.C,U3*%
X138880000Y-67190000D03*
D16*
%TO.N,+3.3V*%
X141420000Y-67190000D03*
%TO.N,CE*%
X138880000Y-69730000D03*
%TO.N,CSN*%
X141420000Y-69730000D03*
%TO.N,SCK*%
X138880000Y-72270000D03*
%TO.N,MOSI*%
X141420000Y-72270000D03*
%TO.N,MISO*%
X138880000Y-74810000D03*
%TO.N,IRQ*%
X141420000Y-74810000D03*
%TD*%
D17*
%TO.N,+9V*%
%TO.C,U2*%
X139730000Y-100430000D03*
D18*
%TO.N,GND*%
X142270000Y-100430000D03*
%TO.N,+3.3V*%
X144810000Y-100430000D03*
%TD*%
D12*
%TO.N,GND*%
%TO.C,H3*%
X145162500Y-108912500D03*
%TD*%
D13*
%TO.N,+3.3V*%
%TO.C,C4*%
X134570000Y-87070000D03*
D14*
%TO.N,GND*%
X132070000Y-87070000D03*
%TD*%
D10*
%TO.N,Net-(U1-RA5)*%
%TO.C,R8*%
X127970000Y-60860000D03*
D11*
%TO.N,GND*%
X127970000Y-53240000D03*
%TD*%
D15*
%TO.N,Net-(M2-+)*%
%TO.C,M2*%
X134330000Y-103335000D03*
D19*
%TO.N,Net-(M2--)*%
X131790000Y-103335000D03*
%TD*%
D10*
%TO.N,+3.3V*%
%TO.C,R5*%
X131110000Y-53290000D03*
D11*
%TO.N,Net-(D3-A)*%
X138730000Y-53290000D03*
%TD*%
D13*
%TO.N,PWM5*%
%TO.C,U4*%
X134540000Y-92180000D03*
D20*
%TO.N,+9V*%
X132000000Y-92180000D03*
X129460000Y-92180000D03*
%TO.N,PWM5.1*%
X126920000Y-92180000D03*
%TO.N,GND*%
X126920000Y-99800000D03*
%TO.N,Net-(M2--)*%
X129460000Y-99800000D03*
%TO.N,Net-(M2-+)*%
X132000000Y-99800000D03*
%TO.N,GND*%
X134540000Y-99800000D03*
%TD*%
D13*
%TO.N,+3.3V*%
%TO.C,C1*%
X130630000Y-62020000D03*
D14*
%TO.N,GND*%
X133130000Y-62020000D03*
%TD*%
D12*
%TO.N,GND*%
%TO.C,H1*%
X121012500Y-47462500D03*
%TD*%
D21*
%TO.N,GND*%
%TO.C,Q1*%
X119390000Y-54040000D03*
D22*
%TO.N,LIGHTS*%
X121930000Y-54040000D03*
%TO.N,Net-(D2-K)*%
X124470000Y-54040000D03*
%TD*%
D21*
%TO.N,GND*%
%TO.C,Q2*%
X141680000Y-53990000D03*
D22*
%TO.N,LIGHTS*%
X144220000Y-53990000D03*
%TO.N,Net-(D3-K)*%
X146760000Y-53990000D03*
%TD*%
D10*
%TO.N,+3.3V*%
%TO.C,R4*%
X138730000Y-55710000D03*
D11*
%TO.N,Net-(D2-A)*%
X131110000Y-55710000D03*
%TD*%
D13*
%TO.N,+9V*%
%TO.C,C2*%
X127440000Y-87100000D03*
D14*
%TO.N,GND*%
X124940000Y-87100000D03*
%TD*%
D15*
%TO.N,Net-(JP2-B)*%
%TO.C,SW1*%
X123090000Y-95790000D03*
D19*
%TO.N,Net-(JP1-B)*%
X123090000Y-98330000D03*
%TO.N,+9V*%
X123090000Y-100870000D03*
%TD*%
D15*
%TO.N,PWM6*%
%TO.C,M1*%
X124960000Y-82460000D03*
D19*
%TO.N,+3.3V*%
X122420000Y-82460000D03*
%TO.N,GND*%
X119880000Y-82460000D03*
%TD*%
D13*
%TO.N,+3.3V*%
%TO.C,U1*%
X128000000Y-66525000D03*
D20*
%TO.N,Net-(U1-RA5)*%
X128000000Y-69065000D03*
%TO.N,CSN*%
X128000000Y-71605000D03*
%TO.N,unconnected-(U1-RA3{slash}~{MCLR}-Pad4)*%
X128000000Y-74145000D03*
%TO.N,CE*%
X128000000Y-76685000D03*
%TO.N,PWM5.1*%
X128000000Y-79225000D03*
%TO.N,PWM6*%
X128000000Y-81765000D03*
%TO.N,PWM5*%
X135620000Y-81765000D03*
%TO.N,MISO*%
X135620000Y-79225000D03*
%TO.N,SCK*%
X135620000Y-76685000D03*
%TO.N,MOSI*%
X135620000Y-74145000D03*
%TO.N,IRQ*%
X135620000Y-71605000D03*
%TO.N,LIGHTS*%
X135620000Y-69065000D03*
%TO.N,GND*%
X135620000Y-66525000D03*
%TD*%
D23*
%TO.N,Net-(BT1-+)*%
%TO.C,BT1*%
X139440000Y-103130000D03*
%TO.N,GND*%
X126740000Y-103130000D03*
%TD*%
D24*
%TO.N,Net-(D3-K)*%
%TO.C,D3*%
X137650000Y-47580000D03*
D25*
%TO.N,Net-(D3-A)*%
X135110000Y-47580000D03*
%TD*%
D24*
%TO.N,Net-(D2-K)*%
%TO.C,D2*%
X127880000Y-47580000D03*
D25*
%TO.N,Net-(D2-A)*%
X130420000Y-47580000D03*
%TD*%
%TA.AperFunction,Conductor*%
%TO.N,+3.3V*%
G36*
X140954075Y-67382993D02*
G01*
X141019901Y-67497007D01*
X141112993Y-67590099D01*
X141227007Y-67655925D01*
X141290590Y-67672962D01*
X140658625Y-68304925D01*
X140734594Y-68358119D01*
X140778219Y-68412696D01*
X140785413Y-68482194D01*
X140753890Y-68544549D01*
X140734595Y-68561269D01*
X140548594Y-68691508D01*
X140381505Y-68858597D01*
X140251575Y-69044158D01*
X140196998Y-69087783D01*
X140127500Y-69094977D01*
X140065145Y-69063454D01*
X140048425Y-69044158D01*
X139918496Y-68858600D01*
X139898198Y-68838302D01*
X139796567Y-68736671D01*
X139763084Y-68675351D01*
X139768068Y-68605659D01*
X139809939Y-68549725D01*
X139840915Y-68532810D01*
X139972331Y-68483796D01*
X140087546Y-68397546D01*
X140173796Y-68282331D01*
X140224091Y-68147483D01*
X140230500Y-68087873D01*
X140230499Y-68077314D01*
X140250179Y-68010277D01*
X140266818Y-67989628D01*
X140937037Y-67319409D01*
X140954075Y-67382993D01*
G37*
%TD.AperFunction*%
%TA.AperFunction,Conductor*%
G36*
X147842539Y-44745185D02*
G01*
X147888294Y-44797989D01*
X147899500Y-44849500D01*
X147899500Y-53061662D01*
X147879815Y-53128701D01*
X147827011Y-53174456D01*
X147757853Y-53184400D01*
X147694297Y-53155375D01*
X147687819Y-53149344D01*
X147667176Y-53128701D01*
X147566877Y-53028402D01*
X147387639Y-52902898D01*
X147387640Y-52902898D01*
X147387638Y-52902897D01*
X147283789Y-52854472D01*
X147189330Y-52810425D01*
X147189326Y-52810424D01*
X147189322Y-52810422D01*
X146977977Y-52753793D01*
X146760002Y-52734723D01*
X146759998Y-52734723D01*
X146632151Y-52745908D01*
X146542023Y-52753793D01*
X146542020Y-52753793D01*
X146330677Y-52810422D01*
X146330668Y-52810426D01*
X146132361Y-52902898D01*
X146132357Y-52902900D01*
X145953121Y-53028402D01*
X145798402Y-53183121D01*
X145672900Y-53362357D01*
X145672898Y-53362361D01*
X145602382Y-53513583D01*
X145556209Y-53566022D01*
X145489016Y-53585174D01*
X145422135Y-53564958D01*
X145377618Y-53513583D01*
X145330415Y-53412357D01*
X145307102Y-53362362D01*
X145307100Y-53362359D01*
X145307099Y-53362357D01*
X145181599Y-53183124D01*
X145127176Y-53128701D01*
X145026877Y-53028402D01*
X144847639Y-52902898D01*
X144847640Y-52902898D01*
X144847638Y-52902897D01*
X144743789Y-52854472D01*
X144649330Y-52810425D01*
X144649326Y-52810424D01*
X144649322Y-52810422D01*
X144437977Y-52753793D01*
X144220002Y-52734723D01*
X144219998Y-52734723D01*
X144092151Y-52745908D01*
X144002023Y-52753793D01*
X144002020Y-52753793D01*
X143790677Y-52810422D01*
X143790668Y-52810426D01*
X143592361Y-52902898D01*
X143592357Y-52902900D01*
X143413121Y-53028402D01*
X143258402Y-53183121D01*
X143156074Y-53329262D01*
X143101497Y-53372887D01*
X143031999Y-53380081D01*
X142969644Y-53348558D01*
X142934230Y-53288328D01*
X142930499Y-53258139D01*
X142930499Y-53192129D01*
X142930498Y-53192123D01*
X142930497Y-53192116D01*
X142924091Y-53132517D01*
X142903907Y-53078402D01*
X142873797Y-52997671D01*
X142873793Y-52997664D01*
X142787547Y-52882455D01*
X142787544Y-52882452D01*
X142672335Y-52796206D01*
X142672328Y-52796202D01*
X142537482Y-52745908D01*
X142537483Y-52745908D01*
X142477883Y-52739501D01*
X142477881Y-52739500D01*
X142477873Y-52739500D01*
X142477864Y-52739500D01*
X140882129Y-52739500D01*
X140882123Y-52739501D01*
X140822516Y-52745908D01*
X140687671Y-52796202D01*
X140687664Y-52796206D01*
X140572455Y-52882452D01*
X140572452Y-52882455D01*
X140486206Y-52997664D01*
X140486202Y-52997671D01*
X140435908Y-53132517D01*
X140429501Y-53192116D01*
X140429501Y-53192123D01*
X140429500Y-53192135D01*
X140429500Y-54787870D01*
X140429501Y-54787876D01*
X140435908Y-54847483D01*
X140486202Y-54982328D01*
X140486206Y-54982335D01*
X140572452Y-55097544D01*
X140572455Y-55097547D01*
X140687664Y-55183793D01*
X140687671Y-55183797D01*
X140822517Y-55234091D01*
X140822516Y-55234091D01*
X140829444Y-55234835D01*
X140882127Y-55240500D01*
X142477872Y-55240499D01*
X142537483Y-55234091D01*
X142672331Y-55183796D01*
X142787546Y-55097546D01*
X142873796Y-54982331D01*
X142924091Y-54847483D01*
X142930500Y-54787873D01*
X142930499Y-54721860D01*
X142950183Y-54654824D01*
X143002986Y-54609068D01*
X143072144Y-54599124D01*
X143135700Y-54628148D01*
X143156073Y-54650738D01*
X143252092Y-54787865D01*
X143258402Y-54796877D01*
X143413123Y-54951598D01*
X143592361Y-55077102D01*
X143790670Y-55169575D01*
X144002023Y-55226207D01*
X144184926Y-55242208D01*
X144219998Y-55245277D01*
X144220000Y-55245277D01*
X144220002Y-55245277D01*
X144248254Y-55242805D01*
X144437977Y-55226207D01*
X144649330Y-55169575D01*
X144847639Y-55077102D01*
X145026877Y-54951598D01*
X145181598Y-54796877D01*
X145307102Y-54617639D01*
X145377618Y-54466414D01*
X145423790Y-54413977D01*
X145490984Y-54394825D01*
X145557865Y-54415041D01*
X145602381Y-54466414D01*
X145672898Y-54617639D01*
X145798402Y-54796877D01*
X145953123Y-54951598D01*
X146132361Y-55077102D01*
X146330670Y-55169575D01*
X146542023Y-55226207D01*
X146724926Y-55242208D01*
X146759998Y-55245277D01*
X146760000Y-55245277D01*
X146760002Y-55245277D01*
X146788254Y-55242805D01*
X146977977Y-55226207D01*
X147189330Y-55169575D01*
X147387639Y-55077102D01*
X147566877Y-54951598D01*
X147687819Y-54830656D01*
X147749142Y-54797171D01*
X147818834Y-54802155D01*
X147874767Y-54844027D01*
X147899184Y-54909491D01*
X147899500Y-54918337D01*
X147899500Y-111525500D01*
X147879815Y-111592539D01*
X147827011Y-111638294D01*
X147775500Y-111649500D01*
X142549500Y-111649500D01*
X142482461Y-111629815D01*
X142436706Y-111577011D01*
X142425500Y-111525500D01*
X142425500Y-108912498D01*
X143207018Y-108912498D01*
X143207018Y-108912501D01*
X143226922Y-109190799D01*
X143286227Y-109463416D01*
X143286229Y-109463423D01*
X143346766Y-109625730D01*
X143383731Y-109724838D01*
X143383733Y-109724842D01*
X143517440Y-109969707D01*
X143517445Y-109969715D01*
X143684638Y-110193060D01*
X143684654Y-110193078D01*
X143881921Y-110390345D01*
X143881939Y-110390361D01*
X144105284Y-110557554D01*
X144105292Y-110557559D01*
X144350157Y-110691266D01*
X144350161Y-110691268D01*
X144350163Y-110691269D01*
X144611577Y-110788771D01*
X144747891Y-110818424D01*
X144884200Y-110848077D01*
X144884202Y-110848077D01*
X144884206Y-110848078D01*
X145131514Y-110865765D01*
X145162499Y-110867982D01*
X145162500Y-110867982D01*
X145162501Y-110867982D01*
X145190381Y-110865987D01*
X145440794Y-110848078D01*
X145713423Y-110788771D01*
X145974837Y-110691269D01*
X146219713Y-110557556D01*
X146443068Y-110390355D01*
X146640355Y-110193068D01*
X146807556Y-109969713D01*
X146941269Y-109724837D01*
X147038771Y-109463423D01*
X147098078Y-109190794D01*
X147117982Y-108912500D01*
X147098078Y-108634206D01*
X147038771Y-108361577D01*
X146941269Y-108100163D01*
X146807556Y-107855287D01*
X146807554Y-107855284D01*
X146640361Y-107631939D01*
X146640345Y-107631921D01*
X146443078Y-107434654D01*
X146443060Y-107434638D01*
X146219715Y-107267445D01*
X146219707Y-107267440D01*
X145974842Y-107133733D01*
X145974838Y-107133731D01*
X145875730Y-107096766D01*
X145713423Y-107036229D01*
X145713419Y-107036228D01*
X145713416Y-107036227D01*
X145440799Y-106976922D01*
X145162501Y-106957018D01*
X145162499Y-106957018D01*
X144884200Y-106976922D01*
X144611583Y-107036227D01*
X144611578Y-107036228D01*
X144611577Y-107036229D01*
X144548375Y-107059801D01*
X144350161Y-107133731D01*
X144350157Y-107133733D01*
X144105292Y-107267440D01*
X144105284Y-107267445D01*
X143881939Y-107434638D01*
X143881921Y-107434654D01*
X143684654Y-107631921D01*
X143684638Y-107631939D01*
X143517445Y-107855284D01*
X143517440Y-107855292D01*
X143383733Y-108100157D01*
X143383731Y-108100161D01*
X143286227Y-108361583D01*
X143226922Y-108634200D01*
X143207018Y-108912498D01*
X142425500Y-108912498D01*
X142425500Y-105609110D01*
X142425500Y-105609108D01*
X142391392Y-105481814D01*
X142325500Y-105367686D01*
X142232314Y-105274500D01*
X142175250Y-105241554D01*
X142118187Y-105208608D01*
X142054539Y-105191554D01*
X141990892Y-105174500D01*
X124315892Y-105174500D01*
X124184108Y-105174500D01*
X124056812Y-105208608D01*
X123942686Y-105274500D01*
X123942683Y-105274502D01*
X123849502Y-105367683D01*
X123849500Y-105367686D01*
X123783608Y-105481812D01*
X123749500Y-105609108D01*
X123749500Y-111525500D01*
X123729815Y-111592539D01*
X123677011Y-111638294D01*
X123625500Y-111649500D01*
X118399500Y-111649500D01*
X118332461Y-111629815D01*
X118286706Y-111577011D01*
X118275500Y-111525500D01*
X118275500Y-108912498D01*
X119057018Y-108912498D01*
X119057018Y-108912501D01*
X119076922Y-109190799D01*
X119136227Y-109463416D01*
X119136229Y-109463423D01*
X119196766Y-109625730D01*
X119233731Y-109724838D01*
X119233733Y-109724842D01*
X119367440Y-109969707D01*
X119367445Y-109969715D01*
X119534638Y-110193060D01*
X119534654Y-110193078D01*
X119731921Y-110390345D01*
X119731939Y-110390361D01*
X119955284Y-110557554D01*
X119955292Y-110557559D01*
X120200157Y-110691266D01*
X120200161Y-110691268D01*
X120200163Y-110691269D01*
X120461577Y-110788771D01*
X120597891Y-110818424D01*
X120734200Y-110848077D01*
X120734202Y-110848077D01*
X120734206Y-110848078D01*
X120981514Y-110865765D01*
X121012499Y-110867982D01*
X121012500Y-110867982D01*
X121012501Y-110867982D01*
X121040381Y-110865987D01*
X121290794Y-110848078D01*
X121563423Y-110788771D01*
X121824837Y-110691269D01*
X122069713Y-110557556D01*
X122293068Y-110390355D01*
X122490355Y-110193068D01*
X122657556Y-109969713D01*
X122791269Y-109724837D01*
X122888771Y-109463423D01*
X122948078Y-109190794D01*
X122967982Y-108912500D01*
X122948078Y-108634206D01*
X122888771Y-108361577D01*
X122791269Y-108100163D01*
X122657556Y-107855287D01*
X122657554Y-107855284D01*
X122490361Y-107631939D01*
X122490345Y-107631921D01*
X122293078Y-107434654D01*
X122293060Y-107434638D01*
X122069715Y-107267445D01*
X122069707Y-107267440D01*
X121824842Y-107133733D01*
X121824838Y-107133731D01*
X121725730Y-107096766D01*
X121563423Y-107036229D01*
X121563419Y-107036228D01*
X121563416Y-107036227D01*
X121290799Y-106976922D01*
X121012501Y-106957018D01*
X121012499Y-106957018D01*
X120734200Y-106976922D01*
X120461583Y-107036227D01*
X120461578Y-107036228D01*
X120461577Y-107036229D01*
X120398375Y-107059801D01*
X120200161Y-107133731D01*
X120200157Y-107133733D01*
X119955292Y-107267440D01*
X119955284Y-107267445D01*
X119731939Y-107434638D01*
X119731921Y-107434654D01*
X119534654Y-107631921D01*
X119534638Y-107631939D01*
X119367445Y-107855284D01*
X119367440Y-107855292D01*
X119233733Y-108100157D01*
X119233731Y-108100161D01*
X119136227Y-108361583D01*
X119076922Y-108634200D01*
X119057018Y-108912498D01*
X118275500Y-108912498D01*
X118275500Y-103129997D01*
X125472677Y-103129997D01*
X125472677Y-103130002D01*
X125491929Y-103350062D01*
X125491930Y-103350070D01*
X125549104Y-103563445D01*
X125549105Y-103563447D01*
X125549106Y-103563450D01*
X125552351Y-103570408D01*
X125642466Y-103763662D01*
X125642468Y-103763666D01*
X125769170Y-103944615D01*
X125769175Y-103944621D01*
X125925378Y-104100824D01*
X125925384Y-104100829D01*
X126106333Y-104227531D01*
X126106335Y-104227532D01*
X126106338Y-104227534D01*
X126306550Y-104320894D01*
X126519932Y-104378070D01*
X126677123Y-104391822D01*
X126739998Y-104397323D01*
X126740000Y-104397323D01*
X126740002Y-104397323D01*
X126795017Y-104392509D01*
X126960068Y-104378070D01*
X127173450Y-104320894D01*
X127373662Y-104227534D01*
X127554620Y-104100826D01*
X127710826Y-103944620D01*
X127837534Y-103763662D01*
X127930894Y-103563450D01*
X127988070Y-103350068D01*
X127989388Y-103334999D01*
X130434341Y-103334999D01*
X130434341Y-103335000D01*
X130454936Y-103570403D01*
X130454938Y-103570413D01*
X130516094Y-103798655D01*
X130516096Y-103798659D01*
X130516097Y-103798663D01*
X130584156Y-103944615D01*
X130615965Y-104012830D01*
X130615967Y-104012834D01*
X130724281Y-104167521D01*
X130751505Y-104206401D01*
X130918599Y-104373495D01*
X131015384Y-104441265D01*
X131112165Y-104509032D01*
X131112167Y-104509033D01*
X131112170Y-104509035D01*
X131326337Y-104608903D01*
X131554592Y-104670063D01*
X131731034Y-104685500D01*
X131789999Y-104690659D01*
X131790000Y-104690659D01*
X131790001Y-104690659D01*
X131848966Y-104685500D01*
X132025408Y-104670063D01*
X132253663Y-104608903D01*
X132467830Y-104509035D01*
X132661401Y-104373495D01*
X132783329Y-104251566D01*
X132844648Y-104218084D01*
X132914340Y-104223068D01*
X132970274Y-104264939D01*
X132987189Y-104295917D01*
X133036202Y-104427328D01*
X133036206Y-104427335D01*
X133122452Y-104542544D01*
X133122455Y-104542547D01*
X133237664Y-104628793D01*
X133237671Y-104628797D01*
X133372517Y-104679091D01*
X133372516Y-104679091D01*
X133379444Y-104679835D01*
X133432127Y-104685500D01*
X135227872Y-104685499D01*
X135287483Y-104679091D01*
X135422331Y-104628796D01*
X135537546Y-104542546D01*
X135623796Y-104427331D01*
X135674091Y-104292483D01*
X135680500Y-104232873D01*
X135680499Y-103129997D01*
X138172677Y-103129997D01*
X138172677Y-103130002D01*
X138191929Y-103350062D01*
X138191930Y-103350070D01*
X138249104Y-103563445D01*
X138249105Y-103563447D01*
X138249106Y-103563450D01*
X138252351Y-103570408D01*
X138342466Y-103763662D01*
X138342468Y-103763666D01*
X138469170Y-103944615D01*
X138469175Y-103944621D01*
X138625378Y-104100824D01*
X138625384Y-104100829D01*
X138806333Y-104227531D01*
X138806335Y-104227532D01*
X138806338Y-104227534D01*
X139006550Y-104320894D01*
X139219932Y-104378070D01*
X139377123Y-104391822D01*
X139439998Y-104397323D01*
X139440000Y-104397323D01*
X139440002Y-104397323D01*
X139495017Y-104392509D01*
X139660068Y-104378070D01*
X139873450Y-104320894D01*
X140073662Y-104227534D01*
X140254620Y-104100826D01*
X140410826Y-103944620D01*
X140537534Y-103763662D01*
X140630894Y-103563450D01*
X140688070Y-103350068D01*
X140707323Y-103130000D01*
X140688070Y-102909932D01*
X140630894Y-102696550D01*
X140537534Y-102496339D01*
X140410826Y-102315380D01*
X140254620Y-102159174D01*
X140254614Y-102159170D01*
X140250194Y-102156075D01*
X140206568Y-102101499D01*
X140199374Y-102032001D01*
X140230895Y-101969645D01*
X140291125Y-101934231D01*
X140321316Y-101930499D01*
X140730371Y-101930499D01*
X140730372Y-101930499D01*
X140789983Y-101924091D01*
X140924831Y-101873796D01*
X141040046Y-101787546D01*
X141126296Y-101672331D01*
X141136690Y-101644460D01*
X141178560Y-101588527D01*
X141244023Y-101564108D01*
X141312297Y-101578958D01*
X141325746Y-101587465D01*
X141508462Y-101720217D01*
X141640599Y-101787544D01*
X141712244Y-101824049D01*
X141929751Y-101894721D01*
X141929752Y-101894721D01*
X141929755Y-101894722D01*
X142155646Y-101930500D01*
X142155647Y-101930500D01*
X142384353Y-101930500D01*
X142384354Y-101930500D01*
X142610245Y-101894722D01*
X142610248Y-101894721D01*
X142610249Y-101894721D01*
X142827755Y-101824049D01*
X142827755Y-101824048D01*
X142827758Y-101824048D01*
X143031538Y-101720217D01*
X143216566Y-101585786D01*
X143378286Y-101424066D01*
X143439992Y-101339134D01*
X143495319Y-101296470D01*
X143564932Y-101290491D01*
X143626727Y-101323096D01*
X143640626Y-101339135D01*
X143702097Y-101423741D01*
X143702097Y-101423742D01*
X143863757Y-101585402D01*
X144048723Y-101719788D01*
X144252429Y-101823582D01*
X144469871Y-101894234D01*
X144560000Y-101908509D01*
X144560000Y-100920747D01*
X144597708Y-100942518D01*
X144737591Y-100980000D01*
X144882409Y-100980000D01*
X145022292Y-100942518D01*
X145060000Y-100920747D01*
X145060000Y-101908508D01*
X145150128Y-101894234D01*
X145367570Y-101823582D01*
X145571276Y-101719788D01*
X145756242Y-101585402D01*
X145917902Y-101423742D01*
X146052288Y-101238776D01*
X146156082Y-101035070D01*
X146226734Y-100817628D01*
X146248532Y-100680000D01*
X145300748Y-100680000D01*
X145322518Y-100642292D01*
X145360000Y-100502409D01*
X145360000Y-100357591D01*
X145322518Y-100217708D01*
X145300748Y-100180000D01*
X146248532Y-100180000D01*
X146226734Y-100042371D01*
X146156082Y-99824929D01*
X146052288Y-99621223D01*
X145917902Y-99436257D01*
X145756242Y-99274597D01*
X145571276Y-99140211D01*
X145367568Y-99036417D01*
X145150124Y-98965765D01*
X145060000Y-98951490D01*
X145060000Y-99939252D01*
X145022292Y-99917482D01*
X144882409Y-99880000D01*
X144737591Y-99880000D01*
X144597708Y-99917482D01*
X144560000Y-99939252D01*
X144560000Y-98951490D01*
X144559999Y-98951490D01*
X144469875Y-98965765D01*
X144252431Y-99036417D01*
X144048723Y-99140211D01*
X143863757Y-99274597D01*
X143702097Y-99436257D01*
X143640627Y-99520864D01*
X143585297Y-99563529D01*
X143515684Y-99569508D01*
X143453889Y-99536902D01*
X143439991Y-99520864D01*
X143435836Y-99515145D01*
X143378286Y-99435934D01*
X143216566Y-99274214D01*
X143031538Y-99139783D01*
X142827755Y-99035950D01*
X142610248Y-98965278D01*
X142424812Y-98935908D01*
X142384354Y-98929500D01*
X142155646Y-98929500D01*
X142115188Y-98935908D01*
X141929753Y-98965278D01*
X141929750Y-98965278D01*
X141712244Y-99035950D01*
X141508461Y-99139783D01*
X141325759Y-99272525D01*
X141259952Y-99296005D01*
X141191898Y-99280180D01*
X141143203Y-99230074D01*
X141136690Y-99215538D01*
X141132862Y-99205275D01*
X141126296Y-99187669D01*
X141126293Y-99187664D01*
X141040047Y-99072455D01*
X141040044Y-99072452D01*
X140924835Y-98986206D01*
X140924828Y-98986202D01*
X140789982Y-98935908D01*
X140789983Y-98935908D01*
X140730383Y-98929501D01*
X140730381Y-98929500D01*
X140730373Y-98929500D01*
X140730364Y-98929500D01*
X138729629Y-98929500D01*
X138729623Y-98929501D01*
X138670016Y-98935908D01*
X138535171Y-98986202D01*
X138535164Y-98986206D01*
X138419955Y-99072452D01*
X138419952Y-99072455D01*
X138333706Y-99187664D01*
X138333702Y-99187671D01*
X138283408Y-99322517D01*
X138277001Y-99382116D01*
X138277000Y-99382135D01*
X138277000Y-101477870D01*
X138277001Y-101477876D01*
X138283408Y-101537483D01*
X138333702Y-101672328D01*
X138333706Y-101672335D01*
X138419952Y-101787544D01*
X138419955Y-101787547D01*
X138535164Y-101873793D01*
X138535171Y-101873797D01*
X138638905Y-101912487D01*
X138694839Y-101954358D01*
X138719256Y-102019822D01*
X138704405Y-102088095D01*
X138666696Y-102130243D01*
X138625379Y-102159173D01*
X138469175Y-102315377D01*
X138342466Y-102496338D01*
X138342465Y-102496340D01*
X138249107Y-102696548D01*
X138249104Y-102696554D01*
X138191930Y-102909929D01*
X138191929Y-102909937D01*
X138172677Y-103129997D01*
X135680499Y-103129997D01*
X135680499Y-102437128D01*
X135674091Y-102377517D01*
X135672810Y-102374083D01*
X135623797Y-102242671D01*
X135623793Y-102242664D01*
X135537547Y-102127455D01*
X135537544Y-102127452D01*
X135422335Y-102041206D01*
X135422328Y-102041202D01*
X135287482Y-101990908D01*
X135287483Y-101990908D01*
X135227883Y-101984501D01*
X135227881Y-101984500D01*
X135227873Y-101984500D01*
X135227864Y-101984500D01*
X133432129Y-101984500D01*
X133432123Y-101984501D01*
X133372516Y-101990908D01*
X133237671Y-102041202D01*
X133237664Y-102041206D01*
X133122455Y-102127452D01*
X133122452Y-102127455D01*
X133036206Y-102242664D01*
X133036203Y-102242669D01*
X132987189Y-102374083D01*
X132945317Y-102430016D01*
X132879853Y-102454433D01*
X132811580Y-102439581D01*
X132783326Y-102418430D01*
X132661402Y-102296506D01*
X132661395Y-102296501D01*
X132467834Y-102160967D01*
X132467830Y-102160965D01*
X132431245Y-102143905D01*
X132253663Y-102061097D01*
X132253659Y-102061096D01*
X132253655Y-102061094D01*
X132025413Y-101999938D01*
X132025403Y-101999936D01*
X131790001Y-101979341D01*
X131789999Y-101979341D01*
X131554596Y-101999936D01*
X131554586Y-101999938D01*
X131326344Y-102061094D01*
X131326335Y-102061098D01*
X131112171Y-102160964D01*
X131112169Y-102160965D01*
X130918597Y-102296505D01*
X130751505Y-102463597D01*
X130615965Y-102657169D01*
X130615964Y-102657171D01*
X130516098Y-102871335D01*
X130516094Y-102871344D01*
X130454938Y-103099586D01*
X130454936Y-103099596D01*
X130434341Y-103334999D01*
X127989388Y-103334999D01*
X128007323Y-103130000D01*
X127988070Y-102909932D01*
X127930894Y-102696550D01*
X127837534Y-102496339D01*
X127710826Y-102315380D01*
X127554620Y-102159174D01*
X127554616Y-102159171D01*
X127554615Y-102159170D01*
X127373666Y-102032468D01*
X127373662Y-102032466D01*
X127270798Y-101984500D01*
X127173450Y-101939106D01*
X127173447Y-101939105D01*
X127173445Y-101939104D01*
X126960070Y-101881930D01*
X126960062Y-101881929D01*
X126740002Y-101862677D01*
X126739998Y-101862677D01*
X126519937Y-101881929D01*
X126519929Y-101881930D01*
X126306554Y-101939104D01*
X126306548Y-101939107D01*
X126106340Y-102032465D01*
X126106338Y-102032466D01*
X125925377Y-102159175D01*
X125769175Y-102315377D01*
X125642466Y-102496338D01*
X125642465Y-102496340D01*
X125549107Y-102696548D01*
X125549104Y-102696554D01*
X125491930Y-102909929D01*
X125491929Y-102909937D01*
X125472677Y-103129997D01*
X118275500Y-103129997D01*
X118275500Y-98329999D01*
X121734341Y-98329999D01*
X121734341Y-98330000D01*
X121754936Y-98565403D01*
X121754938Y-98565413D01*
X121816094Y-98793655D01*
X121816096Y-98793659D01*
X121816097Y-98793663D01*
X121882427Y-98935908D01*
X121915965Y-99007830D01*
X121915967Y-99007834D01*
X122051501Y-99201395D01*
X122051506Y-99201402D01*
X122218597Y-99368493D01*
X122218603Y-99368498D01*
X122404158Y-99498425D01*
X122447783Y-99553002D01*
X122454977Y-99622500D01*
X122423454Y-99684855D01*
X122404158Y-99701575D01*
X122218597Y-99831505D01*
X122051505Y-99998597D01*
X121915965Y-100192169D01*
X121915964Y-100192171D01*
X121816098Y-100406335D01*
X121816094Y-100406344D01*
X121754938Y-100634586D01*
X121754936Y-100634596D01*
X121734341Y-100869999D01*
X121734341Y-100870000D01*
X121754936Y-101105403D01*
X121754938Y-101105413D01*
X121816094Y-101333655D01*
X121816096Y-101333659D01*
X121816097Y-101333663D01*
X121883345Y-101477876D01*
X121915965Y-101547830D01*
X121915967Y-101547834D01*
X122003144Y-101672335D01*
X122051505Y-101741401D01*
X122218599Y-101908495D01*
X122284098Y-101954358D01*
X122412165Y-102044032D01*
X122412167Y-102044033D01*
X122412170Y-102044035D01*
X122626337Y-102143903D01*
X122854592Y-102205063D01*
X123042918Y-102221539D01*
X123089999Y-102225659D01*
X123090000Y-102225659D01*
X123090001Y-102225659D01*
X123129234Y-102222226D01*
X123325408Y-102205063D01*
X123553663Y-102143903D01*
X123767830Y-102044035D01*
X123961401Y-101908495D01*
X124128495Y-101741401D01*
X124264035Y-101547830D01*
X124363903Y-101333663D01*
X124425063Y-101105408D01*
X124445659Y-100870000D01*
X124425063Y-100634592D01*
X124363903Y-100406337D01*
X124264035Y-100192171D01*
X124194100Y-100092292D01*
X124128494Y-99998597D01*
X123961402Y-99831506D01*
X123961396Y-99831501D01*
X123916405Y-99799998D01*
X125614532Y-99799998D01*
X125614532Y-99800001D01*
X125634364Y-100026686D01*
X125634366Y-100026697D01*
X125693258Y-100246488D01*
X125693261Y-100246497D01*
X125789431Y-100452732D01*
X125789432Y-100452734D01*
X125919954Y-100639141D01*
X126080858Y-100800045D01*
X126080861Y-100800047D01*
X126267266Y-100930568D01*
X126473504Y-101026739D01*
X126473509Y-101026740D01*
X126473511Y-101026741D01*
X126526415Y-101040916D01*
X126693308Y-101085635D01*
X126855230Y-101099801D01*
X126919998Y-101105468D01*
X126920000Y-101105468D01*
X126920002Y-101105468D01*
X126976673Y-101100509D01*
X127146692Y-101085635D01*
X127366496Y-101026739D01*
X127572734Y-100930568D01*
X127759139Y-100800047D01*
X127920047Y-100639139D01*
X128050568Y-100452734D01*
X128077618Y-100394724D01*
X128123790Y-100342285D01*
X128190983Y-100323133D01*
X128257865Y-100343348D01*
X128302382Y-100394725D01*
X128329429Y-100452728D01*
X128329432Y-100452734D01*
X128459954Y-100639141D01*
X128620858Y-100800045D01*
X128620861Y-100800047D01*
X128807266Y-100930568D01*
X129013504Y-101026739D01*
X129013509Y-101026740D01*
X129013511Y-101026741D01*
X129066415Y-101040916D01*
X129233308Y-101085635D01*
X129395230Y-101099801D01*
X129459998Y-101105468D01*
X129460000Y-101105468D01*
X129460002Y-101105468D01*
X129516673Y-101100509D01*
X129686692Y-101085635D01*
X129906496Y-101026739D01*
X130112734Y-100930568D01*
X130299139Y-100800047D01*
X130460047Y-100639139D01*
X130590568Y-100452734D01*
X130617618Y-100394724D01*
X130663790Y-100342285D01*
X130730983Y-100323133D01*
X130797865Y-100343348D01*
X130842382Y-100394725D01*
X130869429Y-100452728D01*
X130869432Y-100452734D01*
X130999954Y-100639141D01*
X131160858Y-100800045D01*
X131160861Y-100800047D01*
X131347266Y-100930568D01*
X131553504Y-101026739D01*
X131553509Y-101026740D01*
X131553511Y-101026741D01*
X131606415Y-101040916D01*
X131773308Y-101085635D01*
X131935230Y-101099801D01*
X131999998Y-101105468D01*
X132000000Y-101105468D01*
X132000002Y-101105468D01*
X132056673Y-101100509D01*
X132226692Y-101085635D01*
X132446496Y-101026739D01*
X132652734Y-100930568D01*
X132839139Y-100800047D01*
X133000047Y-100639139D01*
X133130568Y-100452734D01*
X133157618Y-100394724D01*
X133203790Y-100342285D01*
X133270983Y-100323133D01*
X133337865Y-100343348D01*
X133382382Y-100394725D01*
X133409429Y-100452728D01*
X133409432Y-100452734D01*
X133539954Y-100639141D01*
X133700858Y-100800045D01*
X133700861Y-100800047D01*
X133887266Y-100930568D01*
X134093504Y-101026739D01*
X134093509Y-101026740D01*
X134093511Y-101026741D01*
X134146415Y-101040916D01*
X134313308Y-101085635D01*
X134475230Y-101099801D01*
X134539998Y-101105468D01*
X134540000Y-101105468D01*
X134540002Y-101105468D01*
X134596673Y-101100509D01*
X134766692Y-101085635D01*
X134986496Y-101026739D01*
X135192734Y-100930568D01*
X135379139Y-100800047D01*
X135540047Y-100639139D01*
X135670568Y-100452734D01*
X135766739Y-100246496D01*
X135825635Y-100026692D01*
X135845468Y-99800000D01*
X135825635Y-99573308D01*
X135774409Y-99382128D01*
X135766741Y-99353511D01*
X135766738Y-99353502D01*
X135752289Y-99322517D01*
X135670568Y-99147266D01*
X135540047Y-98960861D01*
X135540045Y-98960858D01*
X135379141Y-98799954D01*
X135192734Y-98669432D01*
X135192732Y-98669431D01*
X134986497Y-98573261D01*
X134986488Y-98573258D01*
X134766697Y-98514366D01*
X134766693Y-98514365D01*
X134766692Y-98514365D01*
X134766691Y-98514364D01*
X134766686Y-98514364D01*
X134540002Y-98494532D01*
X134539998Y-98494532D01*
X134313313Y-98514364D01*
X134313302Y-98514366D01*
X134093511Y-98573258D01*
X134093502Y-98573261D01*
X133887267Y-98669431D01*
X133887265Y-98669432D01*
X133700858Y-98799954D01*
X133539954Y-98960858D01*
X133409432Y-99147265D01*
X133409431Y-99147267D01*
X133382382Y-99205275D01*
X133336209Y-99257714D01*
X133269016Y-99276866D01*
X133202135Y-99256650D01*
X133157618Y-99205275D01*
X133155812Y-99201402D01*
X133130568Y-99147266D01*
X133000047Y-98960861D01*
X133000045Y-98960858D01*
X132839141Y-98799954D01*
X132652734Y-98669432D01*
X132652732Y-98669431D01*
X132446497Y-98573261D01*
X132446488Y-98573258D01*
X132226697Y-98514366D01*
X132226693Y-98514365D01*
X132226692Y-98514365D01*
X132226691Y-98514364D01*
X132226686Y-98514364D01*
X132000002Y-98494532D01*
X131999998Y-98494532D01*
X131773313Y-98514364D01*
X131773302Y-98514366D01*
X131553511Y-98573258D01*
X131553502Y-98573261D01*
X131347267Y-98669431D01*
X131347265Y-98669432D01*
X131160858Y-98799954D01*
X130999954Y-98960858D01*
X130869432Y-99147265D01*
X130869431Y-99147267D01*
X130842382Y-99205275D01*
X130796209Y-99257714D01*
X130729016Y-99276866D01*
X130662135Y-99256650D01*
X130617618Y-99205275D01*
X130615812Y-99201402D01*
X130590568Y-99147266D01*
X130460047Y-98960861D01*
X130460045Y-98960858D01*
X130299141Y-98799954D01*
X130112734Y-98669432D01*
X130112732Y-98669431D01*
X129906497Y-98573261D01*
X129906488Y-98573258D01*
X129686697Y-98514366D01*
X129686693Y-98514365D01*
X129686692Y-98514365D01*
X129686691Y-98514364D01*
X129686686Y-98514364D01*
X129460002Y-98494532D01*
X129459998Y-98494532D01*
X129233313Y-98514364D01*
X129233302Y-98514366D01*
X129013511Y-98573258D01*
X129013502Y-98573261D01*
X128807267Y-98669431D01*
X128807265Y-98669432D01*
X128620858Y-98799954D01*
X128459954Y-98960858D01*
X128329432Y-99147265D01*
X128329431Y-99147267D01*
X128302382Y-99205275D01*
X128256209Y-99257714D01*
X128189016Y-99276866D01*
X128122135Y-99256650D01*
X128077618Y-99205275D01*
X128075812Y-99201402D01*
X128050568Y-99147266D01*
X127920047Y-98960861D01*
X127920045Y-98960858D01*
X127759141Y-98799954D01*
X127572734Y-98669432D01*
X127572732Y-98669431D01*
X127366497Y-98573261D01*
X127366488Y-98573258D01*
X127146697Y-98514366D01*
X127146693Y-98514365D01*
X127146692Y-98514365D01*
X127146691Y-98514364D01*
X127146686Y-98514364D01*
X126920002Y-98494532D01*
X126919998Y-98494532D01*
X126693313Y-98514364D01*
X126693302Y-98514366D01*
X126473511Y-98573258D01*
X126473502Y-98573261D01*
X126267267Y-98669431D01*
X126267265Y-98669432D01*
X126080858Y-98799954D01*
X125919954Y-98960858D01*
X125789432Y-99147265D01*
X125789431Y-99147267D01*
X125693261Y-99353502D01*
X125693258Y-99353511D01*
X125634366Y-99573302D01*
X125634364Y-99573313D01*
X125614532Y-99799998D01*
X123916405Y-99799998D01*
X123775842Y-99701575D01*
X123732217Y-99646998D01*
X123725023Y-99577500D01*
X123756546Y-99515145D01*
X123775842Y-99498425D01*
X123865091Y-99435932D01*
X123961401Y-99368495D01*
X124128495Y-99201401D01*
X124264035Y-99007830D01*
X124363903Y-98793663D01*
X124425063Y-98565408D01*
X124445659Y-98330000D01*
X124425063Y-98094592D01*
X124363903Y-97866337D01*
X124264035Y-97652171D01*
X124128495Y-97458599D01*
X124006567Y-97336671D01*
X123973084Y-97275351D01*
X123978068Y-97205659D01*
X124019939Y-97149725D01*
X124050915Y-97132810D01*
X124182331Y-97083796D01*
X124297546Y-96997546D01*
X124383796Y-96882331D01*
X124434091Y-96747483D01*
X124440500Y-96687873D01*
X124440499Y-94892128D01*
X124434091Y-94832517D01*
X124383796Y-94697669D01*
X124383795Y-94697668D01*
X124383793Y-94697664D01*
X124297547Y-94582455D01*
X124297544Y-94582452D01*
X124182335Y-94496206D01*
X124182328Y-94496202D01*
X124047482Y-94445908D01*
X124047483Y-94445908D01*
X123987883Y-94439501D01*
X123987881Y-94439500D01*
X123987873Y-94439500D01*
X123987864Y-94439500D01*
X122192129Y-94439500D01*
X122192123Y-94439501D01*
X122132516Y-94445908D01*
X121997671Y-94496202D01*
X121997664Y-94496206D01*
X121882455Y-94582452D01*
X121882452Y-94582455D01*
X121796206Y-94697664D01*
X121796202Y-94697671D01*
X121745908Y-94832517D01*
X121739501Y-94892116D01*
X121739501Y-94892123D01*
X121739500Y-94892135D01*
X121739500Y-96687870D01*
X121739501Y-96687876D01*
X121745908Y-96747483D01*
X121796202Y-96882328D01*
X121796206Y-96882335D01*
X121882452Y-96997544D01*
X121882455Y-96997547D01*
X121997664Y-97083793D01*
X121997671Y-97083797D01*
X122129081Y-97132810D01*
X122185015Y-97174681D01*
X122209432Y-97240145D01*
X122194580Y-97308418D01*
X122173430Y-97336673D01*
X122051503Y-97458600D01*
X121915965Y-97652169D01*
X121915964Y-97652171D01*
X121816098Y-97866335D01*
X121816094Y-97866344D01*
X121754938Y-98094586D01*
X121754936Y-98094596D01*
X121734341Y-98329999D01*
X118275500Y-98329999D01*
X118275500Y-91420172D01*
X120604500Y-91420172D01*
X120604500Y-91639827D01*
X120638861Y-91856776D01*
X120706741Y-92065688D01*
X120806464Y-92261404D01*
X120935566Y-92439101D01*
X121090898Y-92594433D01*
X121240514Y-92703133D01*
X121268599Y-92723538D01*
X121464314Y-92823260D01*
X121673220Y-92891138D01*
X121890172Y-92925500D01*
X121890173Y-92925500D01*
X122109827Y-92925500D01*
X122109828Y-92925500D01*
X122326780Y-92891138D01*
X122535686Y-92823260D01*
X122731401Y-92723538D01*
X122831174Y-92651049D01*
X122909101Y-92594433D01*
X122909103Y-92594430D01*
X122909107Y-92594428D01*
X123064428Y-92439107D01*
X123064430Y-92439103D01*
X123064433Y-92439101D01*
X123121049Y-92361174D01*
X123193538Y-92261401D01*
X123235015Y-92179998D01*
X125614532Y-92179998D01*
X125614532Y-92180001D01*
X125634364Y-92406686D01*
X125634366Y-92406697D01*
X125693258Y-92626488D01*
X125693261Y-92626497D01*
X125789431Y-92832732D01*
X125789432Y-92832734D01*
X125919954Y-93019141D01*
X126080858Y-93180045D01*
X126080861Y-93180047D01*
X126267266Y-93310568D01*
X126473504Y-93406739D01*
X126693308Y-93465635D01*
X126855230Y-93479801D01*
X126919998Y-93485468D01*
X126920000Y-93485468D01*
X126920002Y-93485468D01*
X126976807Y-93480498D01*
X127146692Y-93465635D01*
X127366496Y-93406739D01*
X127572734Y-93310568D01*
X127759139Y-93180047D01*
X127920047Y-93019139D01*
X128050568Y-92832734D01*
X128077618Y-92774724D01*
X128123790Y-92722285D01*
X128190983Y-92703133D01*
X128257865Y-92723348D01*
X128302382Y-92774725D01*
X128329429Y-92832728D01*
X128329432Y-92832734D01*
X128459954Y-93019141D01*
X128620858Y-93180045D01*
X128620861Y-93180047D01*
X128807266Y-93310568D01*
X129013504Y-93406739D01*
X129233308Y-93465635D01*
X129395230Y-93479801D01*
X129459998Y-93485468D01*
X129460000Y-93485468D01*
X129460002Y-93485468D01*
X129516807Y-93480498D01*
X129686692Y-93465635D01*
X129906496Y-93406739D01*
X130112734Y-93310568D01*
X130299139Y-93180047D01*
X130460047Y-93019139D01*
X130590568Y-92832734D01*
X130617618Y-92774724D01*
X130663790Y-92722285D01*
X130730983Y-92703133D01*
X130797865Y-92723348D01*
X130842382Y-92774725D01*
X130869429Y-92832728D01*
X130869432Y-92832734D01*
X130999954Y-93019141D01*
X131160858Y-93180045D01*
X131160861Y-93180047D01*
X131347266Y-93310568D01*
X131553504Y-93406739D01*
X131773308Y-93465635D01*
X131935230Y-93479801D01*
X131999998Y-93485468D01*
X132000000Y-93485468D01*
X132000002Y-93485468D01*
X132056807Y-93480498D01*
X132226692Y-93465635D01*
X132446496Y-93406739D01*
X132652734Y-93310568D01*
X132839139Y-93180047D01*
X133000047Y-93019139D01*
X133017272Y-92994539D01*
X133071848Y-92950913D01*
X133141346Y-92943718D01*
X133203701Y-92975239D01*
X133239116Y-93035468D01*
X133242138Y-93052406D01*
X133245908Y-93087483D01*
X133296202Y-93222328D01*
X133296206Y-93222335D01*
X133382452Y-93337544D01*
X133382455Y-93337547D01*
X133497664Y-93423793D01*
X133497671Y-93423797D01*
X133632517Y-93474091D01*
X133632516Y-93474091D01*
X133639444Y-93474835D01*
X133692127Y-93480500D01*
X135387872Y-93480499D01*
X135447483Y-93474091D01*
X135582331Y-93423796D01*
X135697546Y-93337546D01*
X135783796Y-93222331D01*
X135834091Y-93087483D01*
X135840500Y-93027873D01*
X135840499Y-91332128D01*
X135834091Y-91272517D01*
X135799567Y-91179954D01*
X135783797Y-91137671D01*
X135783793Y-91137664D01*
X135697547Y-91022455D01*
X135697544Y-91022452D01*
X135582335Y-90936206D01*
X135582328Y-90936202D01*
X135447482Y-90885908D01*
X135447483Y-90885908D01*
X135387883Y-90879501D01*
X135387881Y-90879500D01*
X135387873Y-90879500D01*
X135387864Y-90879500D01*
X133692129Y-90879500D01*
X133692123Y-90879501D01*
X133632516Y-90885908D01*
X133497671Y-90936202D01*
X133497664Y-90936206D01*
X133382455Y-91022452D01*
X133382452Y-91022455D01*
X133296206Y-91137664D01*
X133296202Y-91137671D01*
X133245908Y-91272516D01*
X133242137Y-91307596D01*
X133215398Y-91372146D01*
X133158006Y-91411994D01*
X133088180Y-91414487D01*
X133028092Y-91378834D01*
X133017273Y-91365462D01*
X133000045Y-91340858D01*
X132839141Y-91179954D01*
X132652734Y-91049432D01*
X132652732Y-91049431D01*
X132446497Y-90953261D01*
X132446488Y-90953258D01*
X132226697Y-90894366D01*
X132226693Y-90894365D01*
X132226692Y-90894365D01*
X132226691Y-90894364D01*
X132226686Y-90894364D01*
X132000002Y-90874532D01*
X131999998Y-90874532D01*
X131773313Y-90894364D01*
X131773302Y-90894366D01*
X131553511Y-90953258D01*
X131553502Y-90953261D01*
X131347267Y-91049431D01*
X131347265Y-91049432D01*
X131160858Y-91179954D01*
X130999954Y-91340858D01*
X130869432Y-91527265D01*
X130869431Y-91527267D01*
X130842382Y-91585275D01*
X130796209Y-91637714D01*
X130729016Y-91656866D01*
X130662135Y-91636650D01*
X130617618Y-91585275D01*
X130590568Y-91527267D01*
X130590567Y-91527265D01*
X130460045Y-91340858D01*
X130299141Y-91179954D01*
X130112734Y-91049432D01*
X130112732Y-91049431D01*
X129906497Y-90953261D01*
X129906488Y-90953258D01*
X129686697Y-90894366D01*
X129686693Y-90894365D01*
X129686692Y-90894365D01*
X129686691Y-90894364D01*
X129686686Y-90894364D01*
X129460002Y-90874532D01*
X129459998Y-90874532D01*
X129233313Y-90894364D01*
X129233302Y-90894366D01*
X129013511Y-90953258D01*
X129013502Y-90953261D01*
X128807267Y-91049431D01*
X128807265Y-91049432D01*
X128620858Y-91179954D01*
X128459954Y-91340858D01*
X128329432Y-91527265D01*
X128329431Y-91527267D01*
X128302382Y-91585275D01*
X128256209Y-91637714D01*
X128189016Y-91656866D01*
X128122135Y-91636650D01*
X128077618Y-91585275D01*
X128050568Y-91527267D01*
X128050567Y-91527265D01*
X127920045Y-91340858D01*
X127759141Y-91179954D01*
X127572734Y-91049432D01*
X127572732Y-91049431D01*
X127366497Y-90953261D01*
X127366488Y-90953258D01*
X127146697Y-90894366D01*
X127146693Y-90894365D01*
X127146692Y-90894365D01*
X127146691Y-90894364D01*
X127146686Y-90894364D01*
X126920002Y-90874532D01*
X126919998Y-90874532D01*
X126693313Y-90894364D01*
X126693302Y-90894366D01*
X126473511Y-90953258D01*
X126473502Y-90953261D01*
X126267267Y-91049431D01*
X126267265Y-91049432D01*
X126080858Y-91179954D01*
X125919954Y-91340858D01*
X125789432Y-91527265D01*
X125789431Y-91527267D01*
X125693261Y-91733502D01*
X125693258Y-91733511D01*
X125634366Y-91953302D01*
X125634364Y-91953313D01*
X125614532Y-92179998D01*
X123235015Y-92179998D01*
X123293260Y-92065686D01*
X123361138Y-91856780D01*
X123395500Y-91639828D01*
X123395500Y-91420172D01*
X123361138Y-91203220D01*
X123293260Y-90994314D01*
X123193538Y-90798599D01*
X123185242Y-90787181D01*
X123064433Y-90620898D01*
X122909101Y-90465566D01*
X122731404Y-90336464D01*
X122731403Y-90336463D01*
X122731401Y-90336462D01*
X122535686Y-90236740D01*
X122326780Y-90168862D01*
X122326778Y-90168861D01*
X122326777Y-90168861D01*
X122160120Y-90142465D01*
X122109828Y-90134500D01*
X121890172Y-90134500D01*
X121839879Y-90142465D01*
X121673223Y-90168861D01*
X121464311Y-90236741D01*
X121268595Y-90336464D01*
X121090898Y-90465566D01*
X120935566Y-90620898D01*
X120806464Y-90798595D01*
X120706741Y-90994311D01*
X120638861Y-91203223D01*
X120604500Y-91420172D01*
X118275500Y-91420172D01*
X118275500Y-87099998D01*
X123634532Y-87099998D01*
X123634532Y-87100001D01*
X123654364Y-87326686D01*
X123654366Y-87326697D01*
X123713258Y-87546488D01*
X123713261Y-87546497D01*
X123809431Y-87752732D01*
X123809432Y-87752734D01*
X123939954Y-87939141D01*
X124100858Y-88100045D01*
X124100861Y-88100047D01*
X124287266Y-88230568D01*
X124493504Y-88326739D01*
X124713308Y-88385635D01*
X124875230Y-88399801D01*
X124939998Y-88405468D01*
X124940000Y-88405468D01*
X124940002Y-88405468D01*
X124996807Y-88400498D01*
X125166692Y-88385635D01*
X125386496Y-88326739D01*
X125592734Y-88230568D01*
X125779139Y-88100047D01*
X125936274Y-87942911D01*
X125997596Y-87909428D01*
X126067287Y-87914412D01*
X126123221Y-87956283D01*
X126144629Y-88002070D01*
X126145908Y-88007480D01*
X126196202Y-88142328D01*
X126196206Y-88142335D01*
X126282452Y-88257544D01*
X126282455Y-88257547D01*
X126397664Y-88343793D01*
X126397671Y-88343797D01*
X126532517Y-88394091D01*
X126532516Y-88394091D01*
X126539444Y-88394835D01*
X126592127Y-88400500D01*
X128287872Y-88400499D01*
X128347483Y-88394091D01*
X128482331Y-88343796D01*
X128597546Y-88257546D01*
X128683796Y-88142331D01*
X128734091Y-88007483D01*
X128740500Y-87947873D01*
X128740499Y-87069998D01*
X130764532Y-87069998D01*
X130764532Y-87070001D01*
X130784364Y-87296686D01*
X130784366Y-87296697D01*
X130843258Y-87516488D01*
X130843261Y-87516497D01*
X130939431Y-87722732D01*
X130939432Y-87722734D01*
X131069954Y-87909141D01*
X131230858Y-88070045D01*
X131230861Y-88070047D01*
X131417266Y-88200568D01*
X131623504Y-88296739D01*
X131843308Y-88355635D01*
X132005230Y-88369801D01*
X132069998Y-88375468D01*
X132070000Y-88375468D01*
X132070002Y-88375468D01*
X132132511Y-88369999D01*
X132296692Y-88355635D01*
X132516496Y-88296739D01*
X132722734Y-88200568D01*
X132909139Y-88070047D01*
X133066694Y-87912491D01*
X133128016Y-87879008D01*
X133197707Y-87883992D01*
X133253641Y-87925863D01*
X133275051Y-87971658D01*
X133276402Y-87977378D01*
X133326645Y-88112086D01*
X133326649Y-88112093D01*
X133412809Y-88227187D01*
X133412812Y-88227190D01*
X133527906Y-88313350D01*
X133527913Y-88313354D01*
X133662620Y-88363596D01*
X133662627Y-88363598D01*
X133722155Y-88369999D01*
X133722172Y-88370000D01*
X134320000Y-88370000D01*
X134320000Y-87385686D01*
X134324394Y-87390080D01*
X134415606Y-87442741D01*
X134517339Y-87470000D01*
X134622661Y-87470000D01*
X134724394Y-87442741D01*
X134815606Y-87390080D01*
X134820000Y-87385686D01*
X134820000Y-88370000D01*
X135417828Y-88370000D01*
X135417844Y-88369999D01*
X135477372Y-88363598D01*
X135477379Y-88363596D01*
X135612086Y-88313354D01*
X135612093Y-88313350D01*
X135727187Y-88227190D01*
X135727190Y-88227187D01*
X135813350Y-88112093D01*
X135813354Y-88112086D01*
X135863596Y-87977379D01*
X135863598Y-87977372D01*
X135869999Y-87917844D01*
X135870000Y-87917827D01*
X135870000Y-87320000D01*
X134885686Y-87320000D01*
X134890080Y-87315606D01*
X134942741Y-87224394D01*
X134970000Y-87122661D01*
X134970000Y-87017339D01*
X134942741Y-86915606D01*
X134890080Y-86824394D01*
X134885686Y-86820000D01*
X135870000Y-86820000D01*
X135870000Y-86222172D01*
X135869999Y-86222155D01*
X135863598Y-86162627D01*
X135863596Y-86162620D01*
X135813354Y-86027913D01*
X135813350Y-86027906D01*
X135727190Y-85912812D01*
X135727187Y-85912809D01*
X135612093Y-85826649D01*
X135612086Y-85826645D01*
X135477379Y-85776403D01*
X135477372Y-85776401D01*
X135417844Y-85770000D01*
X134820000Y-85770000D01*
X134820000Y-86754314D01*
X134815606Y-86749920D01*
X134724394Y-86697259D01*
X134622661Y-86670000D01*
X134517339Y-86670000D01*
X134415606Y-86697259D01*
X134324394Y-86749920D01*
X134320000Y-86754314D01*
X134320000Y-85770000D01*
X133722155Y-85770000D01*
X133662627Y-85776401D01*
X133662620Y-85776403D01*
X133527913Y-85826645D01*
X133527906Y-85826649D01*
X133412812Y-85912809D01*
X133412809Y-85912812D01*
X133326649Y-86027906D01*
X133326645Y-86027913D01*
X133276401Y-86162626D01*
X133275050Y-86168343D01*
X133240475Y-86229058D01*
X133178564Y-86261443D01*
X133108972Y-86255214D01*
X133066693Y-86227506D01*
X132909141Y-86069954D01*
X132722734Y-85939432D01*
X132722732Y-85939431D01*
X132516497Y-85843261D01*
X132516488Y-85843258D01*
X132296697Y-85784366D01*
X132296693Y-85784365D01*
X132296692Y-85784365D01*
X132296691Y-85784364D01*
X132296686Y-85784364D01*
X132070002Y-85764532D01*
X132069998Y-85764532D01*
X131843313Y-85784364D01*
X131843302Y-85784366D01*
X131623511Y-85843258D01*
X131623502Y-85843261D01*
X131417267Y-85939431D01*
X131417265Y-85939432D01*
X131230858Y-86069954D01*
X131069954Y-86230858D01*
X130939432Y-86417265D01*
X130939431Y-86417267D01*
X130843261Y-86623502D01*
X130843258Y-86623511D01*
X130784366Y-86843302D01*
X130784364Y-86843313D01*
X130764532Y-87069998D01*
X128740499Y-87069998D01*
X128740499Y-86252128D01*
X128734091Y-86192517D01*
X128722942Y-86162626D01*
X128683797Y-86057671D01*
X128683793Y-86057664D01*
X128597547Y-85942455D01*
X128597544Y-85942452D01*
X128482335Y-85856206D01*
X128482328Y-85856202D01*
X128347482Y-85805908D01*
X128347483Y-85805908D01*
X128287883Y-85799501D01*
X128287881Y-85799500D01*
X128287873Y-85799500D01*
X128287864Y-85799500D01*
X126592129Y-85799500D01*
X126592123Y-85799501D01*
X126532516Y-85805908D01*
X126397671Y-85856202D01*
X126397664Y-85856206D01*
X126282455Y-85942452D01*
X126282452Y-85942455D01*
X126196206Y-86057664D01*
X126196202Y-86057671D01*
X126145909Y-86192513D01*
X126144632Y-86197922D01*
X126110058Y-86258638D01*
X126048147Y-86291023D01*
X125978556Y-86284796D01*
X125936274Y-86257087D01*
X125779141Y-86099954D01*
X125592734Y-85969432D01*
X125592732Y-85969431D01*
X125386497Y-85873261D01*
X125386488Y-85873258D01*
X125166697Y-85814366D01*
X125166693Y-85814365D01*
X125166692Y-85814365D01*
X125166691Y-85814364D01*
X125166686Y-85814364D01*
X124940002Y-85794532D01*
X124939998Y-85794532D01*
X124713313Y-85814364D01*
X124713302Y-85814366D01*
X124493511Y-85873258D01*
X124493502Y-85873261D01*
X124287267Y-85969431D01*
X124287265Y-85969432D01*
X124100858Y-86099954D01*
X123939954Y-86260858D01*
X123809432Y-86447265D01*
X123809431Y-86447267D01*
X123713261Y-86653502D01*
X123713258Y-86653511D01*
X123654366Y-86873302D01*
X123654364Y-86873313D01*
X123634532Y-87099998D01*
X118275500Y-87099998D01*
X118275500Y-82459999D01*
X118524341Y-82459999D01*
X118524341Y-82460000D01*
X118544936Y-82695403D01*
X118544938Y-82695413D01*
X118606094Y-82923655D01*
X118606096Y-82923659D01*
X118606097Y-82923663D01*
X118689155Y-83101781D01*
X118705965Y-83137830D01*
X118705967Y-83137834D01*
X118739892Y-83186283D01*
X118841505Y-83331401D01*
X119008599Y-83498495D01*
X119105384Y-83566265D01*
X119202165Y-83634032D01*
X119202167Y-83634033D01*
X119202170Y-83634035D01*
X119416337Y-83733903D01*
X119644592Y-83795063D01*
X119821034Y-83810500D01*
X119879999Y-83815659D01*
X119880000Y-83815659D01*
X119880001Y-83815659D01*
X119938966Y-83810500D01*
X120115408Y-83795063D01*
X120343663Y-83733903D01*
X120557830Y-83634035D01*
X120751401Y-83498495D01*
X120918495Y-83331401D01*
X121048730Y-83145405D01*
X121103307Y-83101781D01*
X121172805Y-83094587D01*
X121235160Y-83126110D01*
X121251879Y-83145405D01*
X121381890Y-83331078D01*
X121548917Y-83498105D01*
X121742421Y-83633600D01*
X121956507Y-83733429D01*
X121956516Y-83733433D01*
X122170000Y-83790634D01*
X122170000Y-82893012D01*
X122227007Y-82925925D01*
X122354174Y-82960000D01*
X122485826Y-82960000D01*
X122612993Y-82925925D01*
X122670000Y-82893012D01*
X122670000Y-83790633D01*
X122883483Y-83733433D01*
X122883492Y-83733429D01*
X123097578Y-83633600D01*
X123291078Y-83498108D01*
X123413133Y-83376053D01*
X123474456Y-83342568D01*
X123544148Y-83347552D01*
X123600082Y-83389423D01*
X123616997Y-83420401D01*
X123666202Y-83552328D01*
X123666206Y-83552335D01*
X123752452Y-83667544D01*
X123752455Y-83667547D01*
X123867664Y-83753793D01*
X123867671Y-83753797D01*
X124002517Y-83804091D01*
X124002516Y-83804091D01*
X124009444Y-83804835D01*
X124062127Y-83810500D01*
X125857872Y-83810499D01*
X125917483Y-83804091D01*
X126008907Y-83769992D01*
X140014671Y-83769992D01*
X140014671Y-83770007D01*
X140033964Y-84064363D01*
X140033965Y-84064373D01*
X140033966Y-84064380D01*
X140033968Y-84064390D01*
X140091518Y-84353716D01*
X140091521Y-84353730D01*
X140186349Y-84633080D01*
X140316825Y-84897660D01*
X140316829Y-84897667D01*
X140480725Y-85142955D01*
X140675241Y-85364758D01*
X140897044Y-85559274D01*
X141142332Y-85723170D01*
X141142339Y-85723174D01*
X141274629Y-85788412D01*
X141406923Y-85853652D01*
X141686278Y-85948481D01*
X141975620Y-86006034D01*
X142003888Y-86007886D01*
X142269993Y-86025329D01*
X142270000Y-86025329D01*
X142270007Y-86025329D01*
X142505675Y-86009881D01*
X142564380Y-86006034D01*
X142853722Y-85948481D01*
X143133077Y-85853652D01*
X143397665Y-85723172D01*
X143642957Y-85559273D01*
X143864758Y-85364758D01*
X144059273Y-85142957D01*
X144223172Y-84897665D01*
X144353652Y-84633077D01*
X144448481Y-84353722D01*
X144506034Y-84064380D01*
X144509881Y-84005675D01*
X144525329Y-83770007D01*
X144525329Y-83769992D01*
X144506035Y-83475636D01*
X144506034Y-83475620D01*
X144448481Y-83186278D01*
X144353652Y-82906923D01*
X144223172Y-82642336D01*
X144059273Y-82397043D01*
X143945234Y-82267007D01*
X143864758Y-82175241D01*
X143642955Y-81980725D01*
X143397667Y-81816829D01*
X143397660Y-81816825D01*
X143133080Y-81686349D01*
X142853730Y-81591521D01*
X142853724Y-81591519D01*
X142853722Y-81591519D01*
X142564380Y-81533966D01*
X142564373Y-81533965D01*
X142564363Y-81533964D01*
X142270007Y-81514671D01*
X142269993Y-81514671D01*
X141975636Y-81533964D01*
X141975624Y-81533965D01*
X141975620Y-81533966D01*
X141975612Y-81533967D01*
X141975609Y-81533968D01*
X141686283Y-81591518D01*
X141686269Y-81591521D01*
X141406919Y-81686349D01*
X141142334Y-81816828D01*
X140897041Y-81980728D01*
X140675241Y-82175241D01*
X140480728Y-82397041D01*
X140316828Y-82642334D01*
X140186349Y-82906919D01*
X140091521Y-83186269D01*
X140091518Y-83186283D01*
X140033968Y-83475609D01*
X140033964Y-83475636D01*
X140014671Y-83769992D01*
X126008907Y-83769992D01*
X126052331Y-83753796D01*
X126167546Y-83667546D01*
X126253796Y-83552331D01*
X126304091Y-83417483D01*
X126310500Y-83357873D01*
X126310499Y-81562128D01*
X126304091Y-81502517D01*
X126303002Y-81499598D01*
X126253797Y-81367671D01*
X126253793Y-81367664D01*
X126167547Y-81252455D01*
X126167544Y-81252452D01*
X126052335Y-81166206D01*
X126052328Y-81166202D01*
X125917482Y-81115908D01*
X125917483Y-81115908D01*
X125857883Y-81109501D01*
X125857881Y-81109500D01*
X125857873Y-81109500D01*
X125857864Y-81109500D01*
X124062129Y-81109500D01*
X124062123Y-81109501D01*
X124002516Y-81115908D01*
X123867671Y-81166202D01*
X123867664Y-81166206D01*
X123752455Y-81252452D01*
X123752452Y-81252455D01*
X123666206Y-81367664D01*
X123666202Y-81367671D01*
X123616997Y-81499598D01*
X123575126Y-81555532D01*
X123509661Y-81579949D01*
X123441388Y-81565097D01*
X123413134Y-81543946D01*
X123291082Y-81421894D01*
X123097578Y-81286399D01*
X122883492Y-81186570D01*
X122883486Y-81186567D01*
X122670000Y-81129364D01*
X122670000Y-82026988D01*
X122612993Y-81994075D01*
X122485826Y-81960000D01*
X122354174Y-81960000D01*
X122227007Y-81994075D01*
X122170000Y-82026988D01*
X122170000Y-81129364D01*
X122169999Y-81129364D01*
X121956513Y-81186567D01*
X121956507Y-81186570D01*
X121742422Y-81286399D01*
X121742420Y-81286400D01*
X121548926Y-81421886D01*
X121548920Y-81421891D01*
X121381891Y-81588920D01*
X121381890Y-81588922D01*
X121251880Y-81774595D01*
X121197303Y-81818219D01*
X121127804Y-81825412D01*
X121065450Y-81793890D01*
X121048730Y-81774594D01*
X120918494Y-81588597D01*
X120751402Y-81421506D01*
X120751395Y-81421501D01*
X120557834Y-81285967D01*
X120557830Y-81285965D01*
X120557828Y-81285964D01*
X120343663Y-81186097D01*
X120343659Y-81186096D01*
X120343655Y-81186094D01*
X120115413Y-81124938D01*
X120115403Y-81124936D01*
X119880001Y-81104341D01*
X119879999Y-81104341D01*
X119644596Y-81124936D01*
X119644586Y-81124938D01*
X119416344Y-81186094D01*
X119416335Y-81186098D01*
X119202171Y-81285964D01*
X119202169Y-81285965D01*
X119008597Y-81421505D01*
X118841505Y-81588597D01*
X118705965Y-81782169D01*
X118705964Y-81782171D01*
X118606098Y-81996335D01*
X118606094Y-81996344D01*
X118544938Y-82224586D01*
X118544936Y-82224596D01*
X118524341Y-82459999D01*
X118275500Y-82459999D01*
X118275500Y-69064998D01*
X126694532Y-69064998D01*
X126694532Y-69065001D01*
X126714364Y-69291686D01*
X126714366Y-69291697D01*
X126773258Y-69511488D01*
X126773261Y-69511497D01*
X126869431Y-69717732D01*
X126869432Y-69717734D01*
X126999954Y-69904141D01*
X127160858Y-70065045D01*
X127160861Y-70065047D01*
X127347266Y-70195568D01*
X127405275Y-70222618D01*
X127457714Y-70268791D01*
X127476866Y-70335984D01*
X127456650Y-70402865D01*
X127405275Y-70447382D01*
X127347267Y-70474431D01*
X127347265Y-70474432D01*
X127160858Y-70604954D01*
X126999954Y-70765858D01*
X126869432Y-70952265D01*
X126869431Y-70952267D01*
X126773261Y-71158502D01*
X126773258Y-71158511D01*
X126714366Y-71378302D01*
X126714364Y-71378313D01*
X126694532Y-71604998D01*
X126694532Y-71605001D01*
X126714364Y-71831686D01*
X126714366Y-71831697D01*
X126773258Y-72051488D01*
X126773261Y-72051497D01*
X126869431Y-72257732D01*
X126869432Y-72257734D01*
X126999954Y-72444141D01*
X127160858Y-72605045D01*
X127160861Y-72605047D01*
X127347266Y-72735568D01*
X127405275Y-72762618D01*
X127457714Y-72808791D01*
X127476866Y-72875984D01*
X127456650Y-72942865D01*
X127405275Y-72987382D01*
X127347267Y-73014431D01*
X127347265Y-73014432D01*
X127160858Y-73144954D01*
X126999954Y-73305858D01*
X126869432Y-73492265D01*
X126869431Y-73492267D01*
X126773261Y-73698502D01*
X126773258Y-73698511D01*
X126714366Y-73918302D01*
X126714364Y-73918313D01*
X126694532Y-74144998D01*
X126694532Y-74145001D01*
X126714364Y-74371686D01*
X126714366Y-74371697D01*
X126773258Y-74591488D01*
X126773261Y-74591497D01*
X126869431Y-74797732D01*
X126869432Y-74797734D01*
X126999954Y-74984141D01*
X127160858Y-75145045D01*
X127160861Y-75145047D01*
X127347266Y-75275568D01*
X127405275Y-75302618D01*
X127457714Y-75348791D01*
X127476866Y-75415984D01*
X127456650Y-75482865D01*
X127405275Y-75527382D01*
X127347267Y-75554431D01*
X127347265Y-75554432D01*
X127160858Y-75684954D01*
X126999954Y-75845858D01*
X126869432Y-76032265D01*
X126869431Y-76032267D01*
X126773261Y-76238502D01*
X126773258Y-76238511D01*
X126714366Y-76458302D01*
X126714364Y-76458313D01*
X126694532Y-76684998D01*
X126694532Y-76685001D01*
X126714364Y-76911686D01*
X126714366Y-76911697D01*
X126773258Y-77131488D01*
X126773261Y-77131497D01*
X126869431Y-77337732D01*
X126869432Y-77337734D01*
X126999954Y-77524141D01*
X127160858Y-77685045D01*
X127160861Y-77685047D01*
X127347266Y-77815568D01*
X127405275Y-77842618D01*
X127457714Y-77888791D01*
X127476866Y-77955984D01*
X127456650Y-78022865D01*
X127405275Y-78067382D01*
X127347267Y-78094431D01*
X127347265Y-78094432D01*
X127160858Y-78224954D01*
X126999954Y-78385858D01*
X126869432Y-78572265D01*
X126869431Y-78572267D01*
X126773261Y-78778502D01*
X126773258Y-78778511D01*
X126714366Y-78998302D01*
X126714364Y-78998313D01*
X126694532Y-79224998D01*
X126694532Y-79225001D01*
X126714364Y-79451686D01*
X126714366Y-79451697D01*
X126773258Y-79671488D01*
X126773261Y-79671497D01*
X126869431Y-79877732D01*
X126869432Y-79877734D01*
X126999954Y-80064141D01*
X127160858Y-80225045D01*
X127160861Y-80225047D01*
X127347266Y-80355568D01*
X127405275Y-80382618D01*
X127457714Y-80428791D01*
X127476866Y-80495984D01*
X127456650Y-80562865D01*
X127405275Y-80607382D01*
X127347267Y-80634431D01*
X127347265Y-80634432D01*
X127160858Y-80764954D01*
X126999954Y-80925858D01*
X126869432Y-81112265D01*
X126869431Y-81112267D01*
X126773261Y-81318502D01*
X126773258Y-81318511D01*
X126714366Y-81538302D01*
X126714364Y-81538313D01*
X126694532Y-81764998D01*
X126694532Y-81765001D01*
X126714364Y-81991686D01*
X126714366Y-81991697D01*
X126773258Y-82211488D01*
X126773261Y-82211497D01*
X126869431Y-82417732D01*
X126869432Y-82417734D01*
X126999954Y-82604141D01*
X127160858Y-82765045D01*
X127160861Y-82765047D01*
X127347266Y-82895568D01*
X127553504Y-82991739D01*
X127773308Y-83050635D01*
X127935230Y-83064801D01*
X127999998Y-83070468D01*
X128000000Y-83070468D01*
X128000002Y-83070468D01*
X128056673Y-83065509D01*
X128226692Y-83050635D01*
X128446496Y-82991739D01*
X128652734Y-82895568D01*
X128839139Y-82765047D01*
X129000047Y-82604139D01*
X129130568Y-82417734D01*
X129226739Y-82211496D01*
X129285635Y-81991692D01*
X129305468Y-81765000D01*
X129285635Y-81538308D01*
X129226739Y-81318504D01*
X129130568Y-81112266D01*
X129000047Y-80925861D01*
X129000045Y-80925858D01*
X128839141Y-80764954D01*
X128652734Y-80634432D01*
X128652728Y-80634429D01*
X128594725Y-80607382D01*
X128542285Y-80561210D01*
X128523133Y-80494017D01*
X128543348Y-80427135D01*
X128594725Y-80382618D01*
X128652734Y-80355568D01*
X128839139Y-80225047D01*
X129000047Y-80064139D01*
X129130568Y-79877734D01*
X129226739Y-79671496D01*
X129285635Y-79451692D01*
X129305468Y-79225000D01*
X129285635Y-78998308D01*
X129226739Y-78778504D01*
X129130568Y-78572266D01*
X129000047Y-78385861D01*
X129000045Y-78385858D01*
X128839141Y-78224954D01*
X128652734Y-78094432D01*
X128652728Y-78094429D01*
X128594725Y-78067382D01*
X128542285Y-78021210D01*
X128523133Y-77954017D01*
X128543348Y-77887135D01*
X128594725Y-77842618D01*
X128652734Y-77815568D01*
X128839139Y-77685047D01*
X129000047Y-77524139D01*
X129130568Y-77337734D01*
X129226739Y-77131496D01*
X129285635Y-76911692D01*
X129305468Y-76685000D01*
X129285635Y-76458308D01*
X129226739Y-76238504D01*
X129130568Y-76032266D01*
X129032839Y-75892693D01*
X129000045Y-75845858D01*
X128839141Y-75684954D01*
X128652734Y-75554432D01*
X128652728Y-75554429D01*
X128594725Y-75527382D01*
X128542285Y-75481210D01*
X128523133Y-75414017D01*
X128543348Y-75347135D01*
X128594725Y-75302618D01*
X128652734Y-75275568D01*
X128839139Y-75145047D01*
X129000047Y-74984139D01*
X129130568Y-74797734D01*
X129226739Y-74591496D01*
X129285635Y-74371692D01*
X129305468Y-74145000D01*
X129304345Y-74132169D01*
X129285635Y-73918313D01*
X129285635Y-73918308D01*
X129226739Y-73698504D01*
X129130568Y-73492266D01*
X129032839Y-73352693D01*
X129000045Y-73305858D01*
X128839141Y-73144954D01*
X128652734Y-73014432D01*
X128652728Y-73014429D01*
X128594725Y-72987382D01*
X128542285Y-72941210D01*
X128523133Y-72874017D01*
X128543348Y-72807135D01*
X128594725Y-72762618D01*
X128652734Y-72735568D01*
X128839139Y-72605047D01*
X129000047Y-72444139D01*
X129130568Y-72257734D01*
X129226739Y-72051496D01*
X129285635Y-71831692D01*
X129305468Y-71605000D01*
X129304345Y-71592169D01*
X129285635Y-71378313D01*
X129285635Y-71378308D01*
X129226739Y-71158504D01*
X129130568Y-70952266D01*
X129032839Y-70812693D01*
X129000045Y-70765858D01*
X128839141Y-70604954D01*
X128652734Y-70474432D01*
X128652728Y-70474429D01*
X128594725Y-70447382D01*
X128542285Y-70401210D01*
X128523133Y-70334017D01*
X128543348Y-70267135D01*
X128594725Y-70222618D01*
X128652734Y-70195568D01*
X128839139Y-70065047D01*
X129000047Y-69904139D01*
X129130568Y-69717734D01*
X129226739Y-69511496D01*
X129285635Y-69291692D01*
X129305468Y-69065000D01*
X129304345Y-69052169D01*
X129285635Y-68838313D01*
X129285635Y-68838308D01*
X129226739Y-68618504D01*
X129130568Y-68412266D01*
X129000047Y-68225861D01*
X129000045Y-68225858D01*
X128839143Y-68064956D01*
X128813912Y-68047289D01*
X128770287Y-67992712D01*
X128763095Y-67923213D01*
X128794617Y-67860859D01*
X128854847Y-67825445D01*
X128871781Y-67822424D01*
X128907380Y-67818596D01*
X129042086Y-67768354D01*
X129042093Y-67768350D01*
X129157187Y-67682190D01*
X129157190Y-67682187D01*
X129243350Y-67567093D01*
X129243354Y-67567086D01*
X129293596Y-67432379D01*
X129293598Y-67432372D01*
X129299999Y-67372844D01*
X129300000Y-67372827D01*
X129300000Y-66775000D01*
X128315686Y-66775000D01*
X128320080Y-66770606D01*
X128372741Y-66679394D01*
X128400000Y-66577661D01*
X128400000Y-66524998D01*
X134314532Y-66524998D01*
X134314532Y-66525001D01*
X134334364Y-66751686D01*
X134334366Y-66751697D01*
X134393258Y-66971488D01*
X134393261Y-66971497D01*
X134489431Y-67177732D01*
X134489432Y-67177734D01*
X134619954Y-67364141D01*
X134780858Y-67525045D01*
X134827693Y-67557839D01*
X134967266Y-67655568D01*
X135024357Y-67682190D01*
X135025275Y-67682618D01*
X135077714Y-67728791D01*
X135096866Y-67795984D01*
X135076650Y-67862865D01*
X135025275Y-67907382D01*
X134967267Y-67934431D01*
X134967265Y-67934432D01*
X134780858Y-68064954D01*
X134619954Y-68225858D01*
X134489432Y-68412265D01*
X134489431Y-68412267D01*
X134393261Y-68618502D01*
X134393258Y-68618511D01*
X134334366Y-68838302D01*
X134334364Y-68838313D01*
X134314532Y-69064998D01*
X134314532Y-69065001D01*
X134334364Y-69291686D01*
X134334366Y-69291697D01*
X134393258Y-69511488D01*
X134393261Y-69511497D01*
X134489431Y-69717732D01*
X134489432Y-69717734D01*
X134619954Y-69904141D01*
X134780858Y-70065045D01*
X134780861Y-70065047D01*
X134967266Y-70195568D01*
X135025275Y-70222618D01*
X135077714Y-70268791D01*
X135096866Y-70335984D01*
X135076650Y-70402865D01*
X135025275Y-70447382D01*
X134967267Y-70474431D01*
X134967265Y-70474432D01*
X134780858Y-70604954D01*
X134619954Y-70765858D01*
X134489432Y-70952265D01*
X134489431Y-70952267D01*
X134393261Y-71158502D01*
X134393258Y-71158511D01*
X134334366Y-71378302D01*
X134334364Y-71378313D01*
X134314532Y-71604998D01*
X134314532Y-71605001D01*
X134334364Y-71831686D01*
X134334366Y-71831697D01*
X134393258Y-72051488D01*
X134393261Y-72051497D01*
X134489431Y-72257732D01*
X134489432Y-72257734D01*
X134619954Y-72444141D01*
X134780858Y-72605045D01*
X134780861Y-72605047D01*
X134967266Y-72735568D01*
X135025275Y-72762618D01*
X135077714Y-72808791D01*
X135096866Y-72875984D01*
X135076650Y-72942865D01*
X135025275Y-72987382D01*
X134967267Y-73014431D01*
X134967265Y-73014432D01*
X134780858Y-73144954D01*
X134619954Y-73305858D01*
X134489432Y-73492265D01*
X134489431Y-73492267D01*
X134393261Y-73698502D01*
X134393258Y-73698511D01*
X134334366Y-73918302D01*
X134334364Y-73918313D01*
X134314532Y-74144998D01*
X134314532Y-74145001D01*
X134334364Y-74371686D01*
X134334366Y-74371697D01*
X134393258Y-74591488D01*
X134393261Y-74591497D01*
X134489431Y-74797732D01*
X134489432Y-74797734D01*
X134619954Y-74984141D01*
X134780858Y-75145045D01*
X134780861Y-75145047D01*
X134967266Y-75275568D01*
X135025275Y-75302618D01*
X135077714Y-75348791D01*
X135096866Y-75415984D01*
X135076650Y-75482865D01*
X135025275Y-75527382D01*
X134967267Y-75554431D01*
X134967265Y-75554432D01*
X134780858Y-75684954D01*
X134619954Y-75845858D01*
X134489432Y-76032265D01*
X134489431Y-76032267D01*
X134393261Y-76238502D01*
X134393258Y-76238511D01*
X134334366Y-76458302D01*
X134334364Y-76458313D01*
X134314532Y-76684998D01*
X134314532Y-76685001D01*
X134334364Y-76911686D01*
X134334366Y-76911697D01*
X134393258Y-77131488D01*
X134393261Y-77131497D01*
X134489431Y-77337732D01*
X134489432Y-77337734D01*
X134619954Y-77524141D01*
X134780858Y-77685045D01*
X134780861Y-77685047D01*
X134967266Y-77815568D01*
X135025275Y-77842618D01*
X135077714Y-77888791D01*
X135096866Y-77955984D01*
X135076650Y-78022865D01*
X135025275Y-78067382D01*
X134967267Y-78094431D01*
X134967265Y-78094432D01*
X134780858Y-78224954D01*
X134619954Y-78385858D01*
X134489432Y-78572265D01*
X134489431Y-78572267D01*
X134393261Y-78778502D01*
X134393258Y-78778511D01*
X134334366Y-78998302D01*
X134334364Y-78998313D01*
X134314532Y-79224998D01*
X134314532Y-79225001D01*
X134334364Y-79451686D01*
X134334366Y-79451697D01*
X134393258Y-79671488D01*
X134393261Y-79671497D01*
X134489431Y-79877732D01*
X134489432Y-79877734D01*
X134619954Y-80064141D01*
X134780858Y-80225045D01*
X134780861Y-80225047D01*
X134967266Y-80355568D01*
X135025275Y-80382618D01*
X135077714Y-80428791D01*
X135096866Y-80495984D01*
X135076650Y-80562865D01*
X135025275Y-80607382D01*
X134967267Y-80634431D01*
X134967265Y-80634432D01*
X134780858Y-80764954D01*
X134619954Y-80925858D01*
X134489432Y-81112265D01*
X134489431Y-81112267D01*
X134393261Y-81318502D01*
X134393258Y-81318511D01*
X134334366Y-81538302D01*
X134334364Y-81538313D01*
X134314532Y-81764998D01*
X134314532Y-81765001D01*
X134334364Y-81991686D01*
X134334366Y-81991697D01*
X134393258Y-82211488D01*
X134393261Y-82211497D01*
X134489431Y-82417732D01*
X134489432Y-82417734D01*
X134619954Y-82604141D01*
X134780858Y-82765045D01*
X134780861Y-82765047D01*
X134967266Y-82895568D01*
X135173504Y-82991739D01*
X135393308Y-83050635D01*
X135555230Y-83064801D01*
X135619998Y-83070468D01*
X135620000Y-83070468D01*
X135620002Y-83070468D01*
X135676673Y-83065509D01*
X135846692Y-83050635D01*
X136066496Y-82991739D01*
X136272734Y-82895568D01*
X136459139Y-82765047D01*
X136620047Y-82604139D01*
X136750568Y-82417734D01*
X136846739Y-82211496D01*
X136905635Y-81991692D01*
X136925468Y-81765000D01*
X136905635Y-81538308D01*
X136846739Y-81318504D01*
X136750568Y-81112266D01*
X136620047Y-80925861D01*
X136620045Y-80925858D01*
X136459141Y-80764954D01*
X136272734Y-80634432D01*
X136272728Y-80634429D01*
X136214725Y-80607382D01*
X136162285Y-80561210D01*
X136143133Y-80494017D01*
X136163348Y-80427135D01*
X136214725Y-80382618D01*
X136272734Y-80355568D01*
X136459139Y-80225047D01*
X136620047Y-80064139D01*
X136750568Y-79877734D01*
X136846739Y-79671496D01*
X136905635Y-79451692D01*
X136925468Y-79225000D01*
X136905635Y-78998308D01*
X136846739Y-78778504D01*
X136750568Y-78572266D01*
X136620047Y-78385861D01*
X136620045Y-78385858D01*
X136459141Y-78224954D01*
X136272734Y-78094432D01*
X136272728Y-78094429D01*
X136214725Y-78067382D01*
X136162285Y-78021210D01*
X136143133Y-77954017D01*
X136147318Y-77940172D01*
X142954500Y-77940172D01*
X142954500Y-78159828D01*
X142988862Y-78376780D01*
X143056740Y-78585686D01*
X143154989Y-78778511D01*
X143156464Y-78781404D01*
X143285566Y-78959101D01*
X143440898Y-79114433D01*
X143593081Y-79224998D01*
X143618599Y-79243538D01*
X143814314Y-79343260D01*
X144023220Y-79411138D01*
X144240172Y-79445500D01*
X144240173Y-79445500D01*
X144459827Y-79445500D01*
X144459828Y-79445500D01*
X144676780Y-79411138D01*
X144885686Y-79343260D01*
X145081401Y-79243538D01*
X145181174Y-79171049D01*
X145259101Y-79114433D01*
X145259103Y-79114430D01*
X145259107Y-79114428D01*
X145414428Y-78959107D01*
X145414430Y-78959103D01*
X145414433Y-78959101D01*
X145471049Y-78881174D01*
X145543538Y-78781401D01*
X145643260Y-78585686D01*
X145711138Y-78376780D01*
X145745500Y-78159828D01*
X145745500Y-77940172D01*
X145711138Y-77723220D01*
X145643260Y-77514314D01*
X145543538Y-77318599D01*
X145535242Y-77307181D01*
X145414433Y-77140898D01*
X145259101Y-76985566D01*
X145081404Y-76856464D01*
X145081403Y-76856463D01*
X145081401Y-76856462D01*
X144885686Y-76756740D01*
X144676780Y-76688862D01*
X144676778Y-76688861D01*
X144676777Y-76688861D01*
X144510120Y-76662465D01*
X144459828Y-76654500D01*
X144240172Y-76654500D01*
X144189879Y-76662465D01*
X144023223Y-76688861D01*
X143814311Y-76756741D01*
X143618595Y-76856464D01*
X143440898Y-76985566D01*
X143285566Y-77140898D01*
X143156464Y-77318595D01*
X143056741Y-77514311D01*
X142988861Y-77723223D01*
X142974235Y-77815568D01*
X142954500Y-77940172D01*
X136147318Y-77940172D01*
X136163348Y-77887135D01*
X136214725Y-77842618D01*
X136272734Y-77815568D01*
X136459139Y-77685047D01*
X136620047Y-77524139D01*
X136750568Y-77337734D01*
X136846739Y-77131496D01*
X136905635Y-76911692D01*
X136925468Y-76685000D01*
X136905635Y-76458308D01*
X136846739Y-76238504D01*
X136750568Y-76032266D01*
X136652839Y-75892693D01*
X136620045Y-75845858D01*
X136459141Y-75684954D01*
X136272734Y-75554432D01*
X136272728Y-75554429D01*
X136214725Y-75527382D01*
X136162285Y-75481210D01*
X136143133Y-75414017D01*
X136163348Y-75347135D01*
X136214725Y-75302618D01*
X136272734Y-75275568D01*
X136459139Y-75145047D01*
X136620047Y-74984139D01*
X136750568Y-74797734D01*
X136846739Y-74591496D01*
X136905635Y-74371692D01*
X136925468Y-74145000D01*
X136924345Y-74132169D01*
X136905635Y-73918313D01*
X136905635Y-73918308D01*
X136846739Y-73698504D01*
X136750568Y-73492266D01*
X136652839Y-73352693D01*
X136620045Y-73305858D01*
X136459141Y-73144954D01*
X136272734Y-73014432D01*
X136272728Y-73014429D01*
X136214725Y-72987382D01*
X136162285Y-72941210D01*
X136143133Y-72874017D01*
X136163348Y-72807135D01*
X136214725Y-72762618D01*
X136272734Y-72735568D01*
X136459139Y-72605047D01*
X136620047Y-72444139D01*
X136750568Y-72257734D01*
X136846739Y-72051496D01*
X136905635Y-71831692D01*
X136925468Y-71605000D01*
X136924345Y-71592169D01*
X136905635Y-71378313D01*
X136905635Y-71378308D01*
X136846739Y-71158504D01*
X136750568Y-70952266D01*
X136652839Y-70812693D01*
X136620045Y-70765858D01*
X136459141Y-70604954D01*
X136272734Y-70474432D01*
X136272728Y-70474429D01*
X136214725Y-70447382D01*
X136162285Y-70401210D01*
X136143133Y-70334017D01*
X136163348Y-70267135D01*
X136214725Y-70222618D01*
X136272734Y-70195568D01*
X136459139Y-70065047D01*
X136620047Y-69904139D01*
X136741980Y-69729999D01*
X137524341Y-69729999D01*
X137524341Y-69730000D01*
X137544936Y-69965403D01*
X137544938Y-69965413D01*
X137606094Y-70193655D01*
X137606096Y-70193659D01*
X137606097Y-70193663D01*
X137672004Y-70335000D01*
X137705965Y-70407830D01*
X137705967Y-70407834D01*
X137752600Y-70474432D01*
X137841501Y-70601396D01*
X137841506Y-70601402D01*
X138008597Y-70768493D01*
X138008603Y-70768498D01*
X138194158Y-70898425D01*
X138237783Y-70953002D01*
X138244977Y-71022500D01*
X138213454Y-71084855D01*
X138194158Y-71101575D01*
X138008597Y-71231505D01*
X137841505Y-71398597D01*
X137705965Y-71592169D01*
X137705964Y-71592171D01*
X137606098Y-71806335D01*
X137606094Y-71806344D01*
X137544938Y-72034586D01*
X137544936Y-72034596D01*
X137524341Y-72269999D01*
X137524341Y-72270000D01*
X137544936Y-72505403D01*
X137544938Y-72505413D01*
X137606094Y-72733655D01*
X137606096Y-72733659D01*
X137606097Y-72733663D01*
X137672004Y-72875000D01*
X137705965Y-72947830D01*
X137705967Y-72947834D01*
X137752600Y-73014432D01*
X137841501Y-73141396D01*
X137841506Y-73141402D01*
X138008597Y-73308493D01*
X138008603Y-73308498D01*
X138194158Y-73438425D01*
X138237783Y-73493002D01*
X138244977Y-73562500D01*
X138213454Y-73624855D01*
X138194158Y-73641575D01*
X138008597Y-73771505D01*
X137841505Y-73938597D01*
X137705965Y-74132169D01*
X137705964Y-74132171D01*
X137606098Y-74346335D01*
X137606094Y-74346344D01*
X137544938Y-74574586D01*
X137544936Y-74574596D01*
X137524341Y-74809999D01*
X137524341Y-74810000D01*
X137544936Y-75045403D01*
X137544938Y-75045413D01*
X137606094Y-75273655D01*
X137606096Y-75273659D01*
X137606097Y-75273663D01*
X137672004Y-75415000D01*
X137705965Y-75487830D01*
X137705967Y-75487834D01*
X137752600Y-75554432D01*
X137841505Y-75681401D01*
X138008599Y-75848495D01*
X138105384Y-75916265D01*
X138202165Y-75984032D01*
X138202167Y-75984033D01*
X138202170Y-75984035D01*
X138416337Y-76083903D01*
X138644592Y-76145063D01*
X138832918Y-76161539D01*
X138879999Y-76165659D01*
X138880000Y-76165659D01*
X138880001Y-76165659D01*
X138919234Y-76162226D01*
X139115408Y-76145063D01*
X139343663Y-76083903D01*
X139557830Y-75984035D01*
X139751401Y-75848495D01*
X139918495Y-75681401D01*
X140048425Y-75495842D01*
X140103002Y-75452217D01*
X140172500Y-75445023D01*
X140234855Y-75476546D01*
X140251575Y-75495842D01*
X140381500Y-75681395D01*
X140381505Y-75681401D01*
X140548599Y-75848495D01*
X140645384Y-75916265D01*
X140742165Y-75984032D01*
X140742167Y-75984033D01*
X140742170Y-75984035D01*
X140956337Y-76083903D01*
X141184592Y-76145063D01*
X141372918Y-76161539D01*
X141419999Y-76165659D01*
X141420000Y-76165659D01*
X141420001Y-76165659D01*
X141459234Y-76162226D01*
X141655408Y-76145063D01*
X141883663Y-76083903D01*
X142097830Y-75984035D01*
X142291401Y-75848495D01*
X142458495Y-75681401D01*
X142594035Y-75487830D01*
X142693903Y-75273663D01*
X142755063Y-75045408D01*
X142775659Y-74810000D01*
X142755063Y-74574592D01*
X142693903Y-74346337D01*
X142594035Y-74132171D01*
X142588425Y-74124158D01*
X142458494Y-73938597D01*
X142291402Y-73771506D01*
X142291396Y-73771501D01*
X142105842Y-73641575D01*
X142062217Y-73586998D01*
X142055023Y-73517500D01*
X142086546Y-73455145D01*
X142105842Y-73438425D01*
X142128026Y-73422891D01*
X142291401Y-73308495D01*
X142458495Y-73141401D01*
X142594035Y-72947830D01*
X142693903Y-72733663D01*
X142755063Y-72505408D01*
X142775659Y-72270000D01*
X142755063Y-72034592D01*
X142693903Y-71806337D01*
X142594035Y-71592171D01*
X142588425Y-71584158D01*
X142458494Y-71398597D01*
X142291402Y-71231506D01*
X142291396Y-71231501D01*
X142105842Y-71101575D01*
X142062217Y-71046998D01*
X142055023Y-70977500D01*
X142086546Y-70915145D01*
X142105842Y-70898425D01*
X142128026Y-70882891D01*
X142291401Y-70768495D01*
X142458495Y-70601401D01*
X142594035Y-70407830D01*
X142693903Y-70193663D01*
X142755063Y-69965408D01*
X142775659Y-69730000D01*
X142755063Y-69494592D01*
X142693903Y-69266337D01*
X142594035Y-69052171D01*
X142588425Y-69044158D01*
X142458494Y-68858597D01*
X142291402Y-68691506D01*
X142291401Y-68691505D01*
X142105405Y-68561269D01*
X142061781Y-68506692D01*
X142054588Y-68437193D01*
X142086110Y-68374839D01*
X142105405Y-68358119D01*
X142181373Y-68304925D01*
X141549409Y-67672962D01*
X141612993Y-67655925D01*
X141727007Y-67590099D01*
X141820099Y-67497007D01*
X141885925Y-67382993D01*
X141902962Y-67319410D01*
X142534925Y-67951373D01*
X142534926Y-67951373D01*
X142593598Y-67867582D01*
X142593600Y-67867578D01*
X142693429Y-67653492D01*
X142693433Y-67653483D01*
X142754567Y-67425326D01*
X142754569Y-67425315D01*
X142775157Y-67190001D01*
X142775157Y-67189998D01*
X142754569Y-66954684D01*
X142754567Y-66954673D01*
X142693433Y-66726516D01*
X142693429Y-66726507D01*
X142593600Y-66512423D01*
X142593599Y-66512421D01*
X142534925Y-66428626D01*
X142534925Y-66428625D01*
X141902962Y-67060589D01*
X141885925Y-66997007D01*
X141820099Y-66882993D01*
X141727007Y-66789901D01*
X141612993Y-66724075D01*
X141549410Y-66707037D01*
X142181373Y-66075073D01*
X142181373Y-66075072D01*
X142097583Y-66016402D01*
X142097579Y-66016400D01*
X141883492Y-65916570D01*
X141883483Y-65916566D01*
X141655326Y-65855432D01*
X141655315Y-65855430D01*
X141420002Y-65834843D01*
X141419998Y-65834843D01*
X141184684Y-65855430D01*
X141184673Y-65855432D01*
X140956516Y-65916566D01*
X140956507Y-65916570D01*
X140742419Y-66016401D01*
X140658625Y-66075072D01*
X141290590Y-66707037D01*
X141227007Y-66724075D01*
X141112993Y-66789901D01*
X141019901Y-66882993D01*
X140954075Y-66997007D01*
X140937037Y-67060590D01*
X140266818Y-66390371D01*
X140233333Y-66329048D01*
X140230499Y-66302690D01*
X140230499Y-66292129D01*
X140230498Y-66292123D01*
X140230497Y-66292116D01*
X140224091Y-66232517D01*
X140173796Y-66097669D01*
X140173795Y-66097668D01*
X140173793Y-66097664D01*
X140087547Y-65982455D01*
X140087544Y-65982452D01*
X139972335Y-65896206D01*
X139972328Y-65896202D01*
X139837482Y-65845908D01*
X139837483Y-65845908D01*
X139777883Y-65839501D01*
X139777881Y-65839500D01*
X139777873Y-65839500D01*
X139777864Y-65839500D01*
X137982129Y-65839500D01*
X137982123Y-65839501D01*
X137922516Y-65845908D01*
X137787671Y-65896202D01*
X137787664Y-65896206D01*
X137672455Y-65982452D01*
X137672452Y-65982455D01*
X137586206Y-66097664D01*
X137586202Y-66097671D01*
X137535908Y-66232517D01*
X137531341Y-66275000D01*
X137529501Y-66292123D01*
X137529500Y-66292135D01*
X137529500Y-68087870D01*
X137529501Y-68087876D01*
X137535908Y-68147483D01*
X137586202Y-68282328D01*
X137586206Y-68282335D01*
X137672452Y-68397544D01*
X137672455Y-68397547D01*
X137787664Y-68483793D01*
X137787671Y-68483797D01*
X137919081Y-68532810D01*
X137975015Y-68574681D01*
X137999432Y-68640145D01*
X137984580Y-68708418D01*
X137963430Y-68736673D01*
X137841503Y-68858600D01*
X137705965Y-69052169D01*
X137705964Y-69052171D01*
X137606098Y-69266335D01*
X137606094Y-69266344D01*
X137544938Y-69494586D01*
X137544936Y-69494596D01*
X137524341Y-69729999D01*
X136741980Y-69729999D01*
X136750568Y-69717734D01*
X136846739Y-69511496D01*
X136905635Y-69291692D01*
X136925468Y-69065000D01*
X136924345Y-69052169D01*
X136905635Y-68838313D01*
X136905635Y-68838308D01*
X136846739Y-68618504D01*
X136750568Y-68412266D01*
X136620047Y-68225861D01*
X136620045Y-68225858D01*
X136459141Y-68064954D01*
X136272734Y-67934432D01*
X136272728Y-67934429D01*
X136214725Y-67907382D01*
X136162285Y-67861210D01*
X136143133Y-67794017D01*
X136163348Y-67727135D01*
X136214725Y-67682618D01*
X136215643Y-67682190D01*
X136272734Y-67655568D01*
X136459139Y-67525047D01*
X136620047Y-67364139D01*
X136750568Y-67177734D01*
X136846739Y-66971496D01*
X136905635Y-66751692D01*
X136925468Y-66525000D01*
X136924367Y-66512421D01*
X136905635Y-66298313D01*
X136905635Y-66298308D01*
X136846739Y-66078504D01*
X136750568Y-65872266D01*
X136620047Y-65685861D01*
X136620045Y-65685858D01*
X136459141Y-65524954D01*
X136272734Y-65394432D01*
X136272732Y-65394431D01*
X136066497Y-65298261D01*
X136066488Y-65298258D01*
X135846697Y-65239366D01*
X135846693Y-65239365D01*
X135846692Y-65239365D01*
X135846691Y-65239364D01*
X135846686Y-65239364D01*
X135620002Y-65219532D01*
X135619998Y-65219532D01*
X135393313Y-65239364D01*
X135393302Y-65239366D01*
X135173511Y-65298258D01*
X135173502Y-65298261D01*
X134967267Y-65394431D01*
X134967265Y-65394432D01*
X134780858Y-65524954D01*
X134619954Y-65685858D01*
X134489432Y-65872265D01*
X134489431Y-65872267D01*
X134393261Y-66078502D01*
X134393258Y-66078511D01*
X134334366Y-66298302D01*
X134334364Y-66298313D01*
X134314532Y-66524998D01*
X128400000Y-66524998D01*
X128400000Y-66472339D01*
X128372741Y-66370606D01*
X128320080Y-66279394D01*
X128315686Y-66275000D01*
X129300000Y-66275000D01*
X129300000Y-65677172D01*
X129299999Y-65677155D01*
X129293598Y-65617627D01*
X129293596Y-65617620D01*
X129243354Y-65482913D01*
X129243350Y-65482906D01*
X129157190Y-65367812D01*
X129157187Y-65367809D01*
X129042093Y-65281649D01*
X129042086Y-65281645D01*
X128907379Y-65231403D01*
X128907372Y-65231401D01*
X128847844Y-65225000D01*
X128250000Y-65225000D01*
X128250000Y-66209314D01*
X128245606Y-66204920D01*
X128154394Y-66152259D01*
X128052661Y-66125000D01*
X127947339Y-66125000D01*
X127845606Y-66152259D01*
X127754394Y-66204920D01*
X127750000Y-66209314D01*
X127750000Y-65225000D01*
X127152155Y-65225000D01*
X127092627Y-65231401D01*
X127092620Y-65231403D01*
X126957913Y-65281645D01*
X126957906Y-65281649D01*
X126842812Y-65367809D01*
X126842809Y-65367812D01*
X126756649Y-65482906D01*
X126756645Y-65482913D01*
X126706403Y-65617620D01*
X126706401Y-65617627D01*
X126700000Y-65677155D01*
X126700000Y-66275000D01*
X127684314Y-66275000D01*
X127679920Y-66279394D01*
X127627259Y-66370606D01*
X127600000Y-66472339D01*
X127600000Y-66577661D01*
X127627259Y-66679394D01*
X127679920Y-66770606D01*
X127684314Y-66775000D01*
X126700000Y-66775000D01*
X126700000Y-67372844D01*
X126706401Y-67432372D01*
X126706403Y-67432379D01*
X126756645Y-67567086D01*
X126756649Y-67567093D01*
X126842809Y-67682187D01*
X126842812Y-67682190D01*
X126957906Y-67768350D01*
X126957913Y-67768354D01*
X127092620Y-67818596D01*
X127092627Y-67818598D01*
X127128218Y-67822425D01*
X127192769Y-67849163D01*
X127232618Y-67906555D01*
X127235111Y-67976380D01*
X127199459Y-68036469D01*
X127186088Y-68047287D01*
X127160861Y-68064951D01*
X126999954Y-68225858D01*
X126869432Y-68412265D01*
X126869431Y-68412267D01*
X126773261Y-68618502D01*
X126773258Y-68618511D01*
X126714366Y-68838302D01*
X126714364Y-68838313D01*
X126694532Y-69064998D01*
X118275500Y-69064998D01*
X118275500Y-64450172D01*
X120604500Y-64450172D01*
X120604500Y-64669828D01*
X120638862Y-64886780D01*
X120706740Y-65095686D01*
X120801493Y-65281649D01*
X120806464Y-65291404D01*
X120935566Y-65469101D01*
X121090898Y-65624433D01*
X121257181Y-65745242D01*
X121268599Y-65753538D01*
X121464314Y-65853260D01*
X121673220Y-65921138D01*
X121890172Y-65955500D01*
X121890173Y-65955500D01*
X122109827Y-65955500D01*
X122109828Y-65955500D01*
X122326780Y-65921138D01*
X122535686Y-65853260D01*
X122731401Y-65753538D01*
X122836534Y-65677155D01*
X122909101Y-65624433D01*
X122909103Y-65624430D01*
X122909107Y-65624428D01*
X123064428Y-65469107D01*
X123064430Y-65469103D01*
X123064433Y-65469101D01*
X123121049Y-65391174D01*
X123193538Y-65291401D01*
X123293260Y-65095686D01*
X123361138Y-64886780D01*
X123395500Y-64669828D01*
X123395500Y-64450172D01*
X123361138Y-64233220D01*
X123293260Y-64024314D01*
X123193538Y-63828599D01*
X123185242Y-63817181D01*
X123064433Y-63650898D01*
X122909101Y-63495566D01*
X122731404Y-63366464D01*
X122731403Y-63366463D01*
X122731401Y-63366462D01*
X122535686Y-63266740D01*
X122326780Y-63198862D01*
X122326778Y-63198861D01*
X122326777Y-63198861D01*
X122160120Y-63172465D01*
X122109828Y-63164500D01*
X121890172Y-63164500D01*
X121839879Y-63172465D01*
X121673223Y-63198861D01*
X121464311Y-63266741D01*
X121268595Y-63366464D01*
X121090898Y-63495566D01*
X120935566Y-63650898D01*
X120806464Y-63828595D01*
X120706741Y-64024311D01*
X120638861Y-64233223D01*
X120604500Y-64450172D01*
X118275500Y-64450172D01*
X118275500Y-60859999D01*
X126764357Y-60859999D01*
X126764357Y-60860000D01*
X126784884Y-61081535D01*
X126784885Y-61081537D01*
X126845769Y-61295523D01*
X126845775Y-61295538D01*
X126944938Y-61494683D01*
X126944943Y-61494691D01*
X127079020Y-61672238D01*
X127243437Y-61822123D01*
X127243439Y-61822125D01*
X127432595Y-61939245D01*
X127432596Y-61939245D01*
X127432599Y-61939247D01*
X127640060Y-62019618D01*
X127858757Y-62060500D01*
X127858759Y-62060500D01*
X128081241Y-62060500D01*
X128081243Y-62060500D01*
X128299940Y-62019618D01*
X128507401Y-61939247D01*
X128696562Y-61822124D01*
X128860981Y-61672236D01*
X128995058Y-61494689D01*
X129058508Y-61367265D01*
X129095000Y-61293980D01*
X129142503Y-61242743D01*
X129210166Y-61225322D01*
X129276506Y-61247248D01*
X129320461Y-61301559D01*
X129330000Y-61349252D01*
X129330000Y-61770000D01*
X130314314Y-61770000D01*
X130309920Y-61774394D01*
X130257259Y-61865606D01*
X130230000Y-61967339D01*
X130230000Y-62072661D01*
X130257259Y-62174394D01*
X130309920Y-62265606D01*
X130314314Y-62270000D01*
X129330000Y-62270000D01*
X129330000Y-62867844D01*
X129336401Y-62927372D01*
X129336403Y-62927379D01*
X129386645Y-63062086D01*
X129386649Y-63062093D01*
X129472809Y-63177187D01*
X129472812Y-63177190D01*
X129587906Y-63263350D01*
X129587913Y-63263354D01*
X129722620Y-63313596D01*
X129722627Y-63313598D01*
X129782155Y-63319999D01*
X129782172Y-63320000D01*
X130380000Y-63320000D01*
X130380000Y-62335686D01*
X130384394Y-62340080D01*
X130475606Y-62392741D01*
X130577339Y-62420000D01*
X130682661Y-62420000D01*
X130784394Y-62392741D01*
X130875606Y-62340080D01*
X130880000Y-62335686D01*
X130880000Y-63320000D01*
X131477828Y-63320000D01*
X131477844Y-63319999D01*
X131537372Y-63313598D01*
X131537379Y-63313596D01*
X131672086Y-63263354D01*
X131672093Y-63263350D01*
X131787187Y-63177190D01*
X131787190Y-63177187D01*
X131873350Y-63062093D01*
X131873354Y-63062086D01*
X131923595Y-62927381D01*
X131924946Y-62921667D01*
X131959516Y-62860948D01*
X132021424Y-62828558D01*
X132091017Y-62834781D01*
X132133306Y-62862493D01*
X132290858Y-63020045D01*
X132290861Y-63020047D01*
X132477266Y-63150568D01*
X132683504Y-63246739D01*
X132903308Y-63305635D01*
X133065230Y-63319801D01*
X133129998Y-63325468D01*
X133130000Y-63325468D01*
X133130002Y-63325468D01*
X133192511Y-63319999D01*
X133356692Y-63305635D01*
X133576496Y-63246739D01*
X133782734Y-63150568D01*
X133969139Y-63020047D01*
X134130047Y-62859139D01*
X134260568Y-62672734D01*
X134356739Y-62466496D01*
X134415635Y-62246692D01*
X134424095Y-62149998D01*
X137569645Y-62149998D01*
X137569645Y-62150001D01*
X137589477Y-62376686D01*
X137589479Y-62376697D01*
X137648371Y-62596488D01*
X137648374Y-62596497D01*
X137744544Y-62802732D01*
X137744545Y-62802734D01*
X137875067Y-62989141D01*
X138035971Y-63150045D01*
X138035974Y-63150047D01*
X138222379Y-63280568D01*
X138428617Y-63376739D01*
X138648421Y-63435635D01*
X138810343Y-63449801D01*
X138875111Y-63455468D01*
X138875113Y-63455468D01*
X138875115Y-63455468D01*
X138937624Y-63449999D01*
X139101805Y-63435635D01*
X139321609Y-63376739D01*
X139527847Y-63280568D01*
X139714252Y-63150047D01*
X139871807Y-62992491D01*
X139933129Y-62959008D01*
X140002820Y-62963992D01*
X140058754Y-63005863D01*
X140080164Y-63051658D01*
X140081515Y-63057378D01*
X140131758Y-63192086D01*
X140131762Y-63192093D01*
X140217922Y-63307187D01*
X140217925Y-63307190D01*
X140333019Y-63393350D01*
X140333026Y-63393354D01*
X140467733Y-63443596D01*
X140467740Y-63443598D01*
X140527268Y-63449999D01*
X140527285Y-63450000D01*
X141125113Y-63450000D01*
X141125113Y-62465686D01*
X141129507Y-62470080D01*
X141220719Y-62522741D01*
X141322452Y-62550000D01*
X141427774Y-62550000D01*
X141529507Y-62522741D01*
X141620719Y-62470080D01*
X141625113Y-62465686D01*
X141625113Y-63450000D01*
X142222941Y-63450000D01*
X142222957Y-63449999D01*
X142282485Y-63443598D01*
X142282492Y-63443596D01*
X142417199Y-63393354D01*
X142417206Y-63393350D01*
X142532300Y-63307190D01*
X142532303Y-63307187D01*
X142618463Y-63192093D01*
X142618467Y-63192086D01*
X142668709Y-63057379D01*
X142668711Y-63057372D01*
X142675112Y-62997844D01*
X142675113Y-62997827D01*
X142675113Y-62400000D01*
X141690799Y-62400000D01*
X141695193Y-62395606D01*
X141747854Y-62304394D01*
X141775113Y-62202661D01*
X141775113Y-62097339D01*
X141747854Y-61995606D01*
X141695193Y-61904394D01*
X141690799Y-61900000D01*
X142675113Y-61900000D01*
X142675113Y-61302172D01*
X142675112Y-61302155D01*
X142668711Y-61242627D01*
X142668709Y-61242620D01*
X142618467Y-61107913D01*
X142618463Y-61107906D01*
X142532303Y-60992812D01*
X142532300Y-60992809D01*
X142417206Y-60906649D01*
X142417199Y-60906645D01*
X142282492Y-60856403D01*
X142282485Y-60856401D01*
X142222957Y-60850000D01*
X141625113Y-60850000D01*
X141625113Y-61834314D01*
X141620719Y-61829920D01*
X141529507Y-61777259D01*
X141427774Y-61750000D01*
X141322452Y-61750000D01*
X141220719Y-61777259D01*
X141129507Y-61829920D01*
X141125113Y-61834314D01*
X141125113Y-60850000D01*
X140527268Y-60850000D01*
X140467740Y-60856401D01*
X140467733Y-60856403D01*
X140333026Y-60906645D01*
X140333019Y-60906649D01*
X140217925Y-60992809D01*
X140217922Y-60992812D01*
X140131762Y-61107906D01*
X140131758Y-61107913D01*
X140081514Y-61242626D01*
X140080163Y-61248343D01*
X140045588Y-61309058D01*
X139983677Y-61341443D01*
X139914085Y-61335214D01*
X139871806Y-61307506D01*
X139714254Y-61149954D01*
X139527847Y-61019432D01*
X139527845Y-61019431D01*
X139321610Y-60923261D01*
X139321601Y-60923258D01*
X139101810Y-60864366D01*
X139101806Y-60864365D01*
X139101805Y-60864365D01*
X139101804Y-60864364D01*
X139101799Y-60864364D01*
X138875115Y-60844532D01*
X138875111Y-60844532D01*
X138648426Y-60864364D01*
X138648415Y-60864366D01*
X138428624Y-60923258D01*
X138428615Y-60923261D01*
X138222380Y-61019431D01*
X138222378Y-61019432D01*
X138035971Y-61149954D01*
X137875067Y-61310858D01*
X137744545Y-61497265D01*
X137744544Y-61497267D01*
X137648374Y-61703502D01*
X137648371Y-61703511D01*
X137589479Y-61923302D01*
X137589477Y-61923313D01*
X137569645Y-62149998D01*
X134424095Y-62149998D01*
X134435468Y-62020000D01*
X134435434Y-62019617D01*
X134427009Y-61923313D01*
X134415635Y-61793308D01*
X134356739Y-61573504D01*
X134260568Y-61367266D01*
X134130047Y-61180861D01*
X134130045Y-61180858D01*
X133969141Y-61019954D01*
X133782734Y-60889432D01*
X133782732Y-60889431D01*
X133576497Y-60793261D01*
X133576488Y-60793258D01*
X133356697Y-60734366D01*
X133356693Y-60734365D01*
X133356692Y-60734365D01*
X133356691Y-60734364D01*
X133356686Y-60734364D01*
X133130002Y-60714532D01*
X133129998Y-60714532D01*
X132903313Y-60734364D01*
X132903302Y-60734366D01*
X132683511Y-60793258D01*
X132683502Y-60793261D01*
X132477267Y-60889431D01*
X132477265Y-60889432D01*
X132290862Y-61019951D01*
X132133306Y-61177507D01*
X132071983Y-61210991D01*
X132002291Y-61206007D01*
X131946358Y-61164135D01*
X131924947Y-61118334D01*
X131923597Y-61112622D01*
X131873354Y-60977913D01*
X131873350Y-60977906D01*
X131787190Y-60862812D01*
X131787187Y-60862809D01*
X131672093Y-60776649D01*
X131672086Y-60776645D01*
X131537379Y-60726403D01*
X131537372Y-60726401D01*
X131477844Y-60720000D01*
X130880000Y-60720000D01*
X130880000Y-61704314D01*
X130875606Y-61699920D01*
X130784394Y-61647259D01*
X130682661Y-61620000D01*
X130577339Y-61620000D01*
X130475606Y-61647259D01*
X130384394Y-61699920D01*
X130380000Y-61704314D01*
X130380000Y-60720000D01*
X129782155Y-60720000D01*
X129722627Y-60726401D01*
X129722620Y-60726403D01*
X129587913Y-60776645D01*
X129587906Y-60776649D01*
X129472812Y-60862809D01*
X129396636Y-60964566D01*
X129340702Y-61006436D01*
X129271010Y-61011420D01*
X129209687Y-60977934D01*
X129176203Y-60916610D01*
X129173899Y-60878816D01*
X129175643Y-60860000D01*
X129155115Y-60638464D01*
X129094229Y-60424472D01*
X129094224Y-60424461D01*
X128995061Y-60225316D01*
X128995056Y-60225308D01*
X128860979Y-60047761D01*
X128696562Y-59897876D01*
X128696560Y-59897874D01*
X128507404Y-59780754D01*
X128507398Y-59780752D01*
X128299940Y-59700382D01*
X128081243Y-59659500D01*
X127858757Y-59659500D01*
X127640060Y-59700382D01*
X127508864Y-59751207D01*
X127432601Y-59780752D01*
X127432595Y-59780754D01*
X127243439Y-59897874D01*
X127243437Y-59897876D01*
X127079020Y-60047761D01*
X126944943Y-60225308D01*
X126944938Y-60225316D01*
X126845775Y-60424461D01*
X126845769Y-60424476D01*
X126784885Y-60638462D01*
X126784884Y-60638464D01*
X126764357Y-60859999D01*
X118275500Y-60859999D01*
X118275500Y-55709999D01*
X129904357Y-55709999D01*
X129904357Y-55710000D01*
X129924884Y-55931535D01*
X129924885Y-55931537D01*
X129985769Y-56145523D01*
X129985775Y-56145538D01*
X130084938Y-56344683D01*
X130084943Y-56344691D01*
X130219020Y-56522238D01*
X130383437Y-56672123D01*
X130383439Y-56672125D01*
X130572595Y-56789245D01*
X130572601Y-56789248D01*
X130572604Y-56789249D01*
X130636767Y-56814106D01*
X130637457Y-56814373D01*
X130692858Y-56856946D01*
X130716449Y-56922713D01*
X130700738Y-56990793D01*
X130650714Y-57039572D01*
X130637457Y-57045627D01*
X130572601Y-57070751D01*
X130572595Y-57070754D01*
X130383439Y-57187874D01*
X130383437Y-57187876D01*
X130219020Y-57337761D01*
X130084943Y-57515308D01*
X130084938Y-57515316D01*
X129985775Y-57714461D01*
X129985769Y-57714476D01*
X129924885Y-57928462D01*
X129924884Y-57928464D01*
X129904357Y-58149999D01*
X129904357Y-58150000D01*
X129924884Y-58371535D01*
X129924885Y-58371537D01*
X129985769Y-58585523D01*
X129985775Y-58585538D01*
X130084938Y-58784683D01*
X130084943Y-58784691D01*
X130219020Y-58962238D01*
X130383437Y-59112123D01*
X130383439Y-59112125D01*
X130572595Y-59229245D01*
X130572596Y-59229245D01*
X130572599Y-59229247D01*
X130780060Y-59309618D01*
X130998757Y-59350500D01*
X130998759Y-59350500D01*
X131221241Y-59350500D01*
X131221243Y-59350500D01*
X131439940Y-59309618D01*
X131647401Y-59229247D01*
X131836562Y-59112124D01*
X132000981Y-58962236D01*
X132135058Y-58784689D01*
X132234229Y-58585528D01*
X132295115Y-58371536D01*
X132315643Y-58150000D01*
X132315643Y-58149999D01*
X137524357Y-58149999D01*
X137524357Y-58150000D01*
X137544884Y-58371535D01*
X137544885Y-58371537D01*
X137605769Y-58585523D01*
X137605775Y-58585538D01*
X137704938Y-58784683D01*
X137704943Y-58784691D01*
X137839020Y-58962238D01*
X138003437Y-59112123D01*
X138003439Y-59112125D01*
X138192595Y-59229245D01*
X138192596Y-59229245D01*
X138192599Y-59229247D01*
X138400060Y-59309618D01*
X138618757Y-59350500D01*
X138618759Y-59350500D01*
X138841241Y-59350500D01*
X138841243Y-59350500D01*
X139059940Y-59309618D01*
X139267401Y-59229247D01*
X139456562Y-59112124D01*
X139620981Y-58962236D01*
X139755058Y-58784689D01*
X139854229Y-58585528D01*
X139915115Y-58371536D01*
X139935643Y-58150000D01*
X139915115Y-57928464D01*
X139854229Y-57714472D01*
X139854224Y-57714461D01*
X139755061Y-57515316D01*
X139755056Y-57515308D01*
X139620979Y-57337761D01*
X139456562Y-57187876D01*
X139456560Y-57187874D01*
X139267404Y-57070754D01*
X139267398Y-57070752D01*
X139201850Y-57045358D01*
X139146450Y-57002786D01*
X139122859Y-56937019D01*
X139138570Y-56868939D01*
X139188594Y-56820160D01*
X139201851Y-56814106D01*
X139267168Y-56788801D01*
X139267181Y-56788795D01*
X139383326Y-56716879D01*
X138730001Y-56063553D01*
X138730000Y-56063553D01*
X138076672Y-56716879D01*
X138076672Y-56716880D01*
X138192821Y-56788797D01*
X138192822Y-56788798D01*
X138258147Y-56814105D01*
X138313548Y-56856678D01*
X138337139Y-56922445D01*
X138321428Y-56990525D01*
X138271404Y-57039304D01*
X138258148Y-57045358D01*
X138192607Y-57070748D01*
X138192595Y-57070754D01*
X138003439Y-57187874D01*
X138003437Y-57187876D01*
X137839020Y-57337761D01*
X137704943Y-57515308D01*
X137704938Y-57515316D01*
X137605775Y-57714461D01*
X137605769Y-57714476D01*
X137544885Y-57928462D01*
X137544884Y-57928464D01*
X137524357Y-58149999D01*
X132315643Y-58149999D01*
X132295115Y-57928464D01*
X132234229Y-57714472D01*
X132234224Y-57714461D01*
X132135061Y-57515316D01*
X132135056Y-57515308D01*
X132000979Y-57337761D01*
X131836562Y-57187876D01*
X131836560Y-57187874D01*
X131647404Y-57070754D01*
X131647395Y-57070750D01*
X131582543Y-57045627D01*
X131527141Y-57003054D01*
X131503550Y-56937288D01*
X131519261Y-56869207D01*
X131569284Y-56820428D01*
X131582543Y-56814373D01*
X131647401Y-56789247D01*
X131836562Y-56672124D01*
X132000981Y-56522236D01*
X132135058Y-56344689D01*
X132234229Y-56145528D01*
X132295115Y-55931536D01*
X132315643Y-55710000D01*
X132315643Y-55709999D01*
X137524859Y-55709999D01*
X137524859Y-55710000D01*
X137545378Y-55931439D01*
X137606240Y-56145350D01*
X137705369Y-56344428D01*
X137721137Y-56365308D01*
X137721138Y-56365308D01*
X138376447Y-55710000D01*
X138330369Y-55663922D01*
X138380000Y-55663922D01*
X138380000Y-55756078D01*
X138403852Y-55845095D01*
X138449930Y-55924905D01*
X138515095Y-55990070D01*
X138594905Y-56036148D01*
X138683922Y-56060000D01*
X138776078Y-56060000D01*
X138865095Y-56036148D01*
X138944905Y-55990070D01*
X139010070Y-55924905D01*
X139056148Y-55845095D01*
X139080000Y-55756078D01*
X139080000Y-55709999D01*
X139083553Y-55709999D01*
X139083553Y-55710000D01*
X139738861Y-56365308D01*
X139754631Y-56344425D01*
X139754633Y-56344422D01*
X139853759Y-56145350D01*
X139914621Y-55931439D01*
X139935141Y-55710000D01*
X139935141Y-55709999D01*
X139914621Y-55488560D01*
X139853759Y-55274649D01*
X139754635Y-55075580D01*
X139754630Y-55075572D01*
X139738860Y-55054690D01*
X139083553Y-55709999D01*
X139080000Y-55709999D01*
X139080000Y-55663922D01*
X139056148Y-55574905D01*
X139010070Y-55495095D01*
X138944905Y-55429930D01*
X138865095Y-55383852D01*
X138776078Y-55360000D01*
X138683922Y-55360000D01*
X138594905Y-55383852D01*
X138515095Y-55429930D01*
X138449930Y-55495095D01*
X138403852Y-55574905D01*
X138380000Y-55663922D01*
X138330369Y-55663922D01*
X137721138Y-55054691D01*
X137721137Y-55054691D01*
X137705368Y-55075574D01*
X137606240Y-55274649D01*
X137545378Y-55488560D01*
X137524859Y-55709999D01*
X132315643Y-55709999D01*
X132295115Y-55488464D01*
X132234229Y-55274472D01*
X132224050Y-55254029D01*
X132135061Y-55075316D01*
X132135056Y-55075308D01*
X132000979Y-54897761D01*
X131836562Y-54747876D01*
X131836560Y-54747874D01*
X131647404Y-54630754D01*
X131647395Y-54630750D01*
X131607665Y-54615359D01*
X131552263Y-54572786D01*
X131528672Y-54507020D01*
X131544383Y-54438939D01*
X131594407Y-54390160D01*
X131607664Y-54384106D01*
X131647168Y-54368801D01*
X131647181Y-54368795D01*
X131763326Y-54296879D01*
X131110001Y-53643553D01*
X131110000Y-53643553D01*
X130456672Y-54296879D01*
X130456672Y-54296880D01*
X130572821Y-54368797D01*
X130572822Y-54368798D01*
X130612334Y-54384105D01*
X130667735Y-54426678D01*
X130691326Y-54492445D01*
X130675615Y-54560525D01*
X130625591Y-54609304D01*
X130612335Y-54615358D01*
X130572607Y-54630748D01*
X130572595Y-54630754D01*
X130383439Y-54747874D01*
X130383437Y-54747876D01*
X130219020Y-54897761D01*
X130084943Y-55075308D01*
X130084938Y-55075316D01*
X129985775Y-55274461D01*
X129985769Y-55274476D01*
X129924885Y-55488462D01*
X129924884Y-55488464D01*
X129904357Y-55709999D01*
X118275500Y-55709999D01*
X118275500Y-55366823D01*
X118295185Y-55299784D01*
X118347989Y-55254029D01*
X118417147Y-55244085D01*
X118442833Y-55250641D01*
X118532517Y-55284091D01*
X118532516Y-55284091D01*
X118539444Y-55284835D01*
X118592127Y-55290500D01*
X120187872Y-55290499D01*
X120247483Y-55284091D01*
X120382331Y-55233796D01*
X120497546Y-55147546D01*
X120583796Y-55032331D01*
X120634091Y-54897483D01*
X120640500Y-54837873D01*
X120640499Y-54771860D01*
X120660183Y-54704824D01*
X120712986Y-54659068D01*
X120782144Y-54649124D01*
X120845700Y-54678148D01*
X120866073Y-54700738D01*
X120933394Y-54796881D01*
X120968402Y-54846877D01*
X121123123Y-55001598D01*
X121302361Y-55127102D01*
X121500670Y-55219575D01*
X121712023Y-55276207D01*
X121894926Y-55292208D01*
X121929998Y-55295277D01*
X121930000Y-55295277D01*
X121930002Y-55295277D01*
X121958254Y-55292805D01*
X122147977Y-55276207D01*
X122359330Y-55219575D01*
X122557639Y-55127102D01*
X122736877Y-55001598D01*
X122891598Y-54846877D01*
X123017102Y-54667639D01*
X123087618Y-54516414D01*
X123133790Y-54463977D01*
X123200984Y-54444825D01*
X123267865Y-54465041D01*
X123312381Y-54516414D01*
X123382898Y-54667639D01*
X123508402Y-54846877D01*
X123663123Y-55001598D01*
X123842361Y-55127102D01*
X124040670Y-55219575D01*
X124252023Y-55276207D01*
X124434926Y-55292208D01*
X124469998Y-55295277D01*
X124470000Y-55295277D01*
X124470002Y-55295277D01*
X124498254Y-55292805D01*
X124687977Y-55276207D01*
X124899330Y-55219575D01*
X125097639Y-55127102D01*
X125276877Y-55001598D01*
X125431598Y-54846877D01*
X125557102Y-54667639D01*
X125649575Y-54469330D01*
X125706207Y-54257977D01*
X125725277Y-54040000D01*
X125706207Y-53822023D01*
X125649575Y-53610670D01*
X125557102Y-53412362D01*
X125557100Y-53412359D01*
X125557099Y-53412357D01*
X125436413Y-53239999D01*
X126764357Y-53239999D01*
X126764357Y-53240000D01*
X126784884Y-53461535D01*
X126784885Y-53461537D01*
X126845769Y-53675523D01*
X126845775Y-53675538D01*
X126944938Y-53874683D01*
X126944943Y-53874691D01*
X127079020Y-54052238D01*
X127243437Y-54202123D01*
X127243439Y-54202125D01*
X127432595Y-54319245D01*
X127432596Y-54319245D01*
X127432599Y-54319247D01*
X127640060Y-54399618D01*
X127858757Y-54440500D01*
X127858759Y-54440500D01*
X128081241Y-54440500D01*
X128081243Y-54440500D01*
X128299940Y-54399618D01*
X128507401Y-54319247D01*
X128696562Y-54202124D01*
X128860981Y-54052236D01*
X128995058Y-53874689D01*
X129094229Y-53675528D01*
X129155115Y-53461536D01*
X129171010Y-53289999D01*
X129904859Y-53289999D01*
X129904859Y-53290000D01*
X129925378Y-53511439D01*
X129986240Y-53725350D01*
X130085369Y-53924428D01*
X130101137Y-53945308D01*
X130101138Y-53945308D01*
X130756447Y-53290000D01*
X130710369Y-53243922D01*
X130760000Y-53243922D01*
X130760000Y-53336078D01*
X130783852Y-53425095D01*
X130829930Y-53504905D01*
X130895095Y-53570070D01*
X130974905Y-53616148D01*
X131063922Y-53640000D01*
X131156078Y-53640000D01*
X131245095Y-53616148D01*
X131324905Y-53570070D01*
X131390070Y-53504905D01*
X131436148Y-53425095D01*
X131460000Y-53336078D01*
X131460000Y-53289999D01*
X131463553Y-53289999D01*
X131463553Y-53290000D01*
X132118861Y-53945308D01*
X132134631Y-53924425D01*
X132134633Y-53924422D01*
X132233759Y-53725350D01*
X132294621Y-53511439D01*
X132315141Y-53290000D01*
X132315141Y-53289999D01*
X137524357Y-53289999D01*
X137524357Y-53290000D01*
X137544884Y-53511535D01*
X137544885Y-53511537D01*
X137605769Y-53725523D01*
X137605775Y-53725538D01*
X137704938Y-53924683D01*
X137704943Y-53924691D01*
X137839020Y-54102238D01*
X138003437Y-54252123D01*
X138003439Y-54252125D01*
X138192595Y-54369245D01*
X138192597Y-54369246D01*
X138192599Y-54369247D01*
X138230954Y-54384106D01*
X138232333Y-54384640D01*
X138287735Y-54427212D01*
X138311326Y-54492979D01*
X138295615Y-54561059D01*
X138245592Y-54609839D01*
X138232336Y-54615893D01*
X138192827Y-54631199D01*
X138192823Y-54631201D01*
X138076671Y-54703119D01*
X138730000Y-55356447D01*
X138730001Y-55356447D01*
X139383327Y-54703119D01*
X139267178Y-54631202D01*
X139267171Y-54631198D01*
X139227664Y-54615893D01*
X139172263Y-54573320D01*
X139148673Y-54507553D01*
X139164385Y-54439472D01*
X139214409Y-54390694D01*
X139227667Y-54384640D01*
X139229046Y-54384106D01*
X139232323Y-54382836D01*
X139267392Y-54369251D01*
X139267396Y-54369248D01*
X139267401Y-54369247D01*
X139456562Y-54252124D01*
X139620981Y-54102236D01*
X139755058Y-53924689D01*
X139854229Y-53725528D01*
X139915115Y-53511536D01*
X139935643Y-53290000D01*
X139930372Y-53233121D01*
X139915115Y-53068464D01*
X139915114Y-53068462D01*
X139913179Y-53061662D01*
X139854229Y-52854472D01*
X139850111Y-52846202D01*
X139755061Y-52655316D01*
X139755056Y-52655308D01*
X139620979Y-52477761D01*
X139456562Y-52327876D01*
X139456560Y-52327874D01*
X139267404Y-52210754D01*
X139267398Y-52210752D01*
X139059940Y-52130382D01*
X138841243Y-52089500D01*
X138618757Y-52089500D01*
X138400060Y-52130382D01*
X138321664Y-52160753D01*
X138192601Y-52210752D01*
X138192595Y-52210754D01*
X138003439Y-52327874D01*
X138003437Y-52327876D01*
X137839020Y-52477761D01*
X137704943Y-52655308D01*
X137704938Y-52655316D01*
X137605775Y-52854461D01*
X137605769Y-52854476D01*
X137544885Y-53068462D01*
X137544884Y-53068464D01*
X137524357Y-53289999D01*
X132315141Y-53289999D01*
X132294621Y-53068560D01*
X132233759Y-52854649D01*
X132134635Y-52655580D01*
X132134630Y-52655572D01*
X132118860Y-52634690D01*
X131463553Y-53289999D01*
X131460000Y-53289999D01*
X131460000Y-53243922D01*
X131436148Y-53154905D01*
X131390070Y-53075095D01*
X131324905Y-53009930D01*
X131245095Y-52963852D01*
X131156078Y-52940000D01*
X131063922Y-52940000D01*
X130974905Y-52963852D01*
X130895095Y-53009930D01*
X130829930Y-53075095D01*
X130783852Y-53154905D01*
X130760000Y-53243922D01*
X130710369Y-53243922D01*
X130101138Y-52634691D01*
X130101137Y-52634691D01*
X130085368Y-52655574D01*
X129986240Y-52854649D01*
X129925378Y-53068560D01*
X129904859Y-53289999D01*
X129171010Y-53289999D01*
X129175643Y-53240000D01*
X129170372Y-53183121D01*
X129155115Y-53018464D01*
X129155114Y-53018462D01*
X129152686Y-53009930D01*
X129094229Y-52804472D01*
X129093891Y-52803793D01*
X128995061Y-52605316D01*
X128995056Y-52605308D01*
X128860979Y-52427761D01*
X128702313Y-52283119D01*
X130456671Y-52283119D01*
X131110000Y-52936447D01*
X131110001Y-52936447D01*
X131763327Y-52283119D01*
X131647178Y-52211202D01*
X131647177Y-52211201D01*
X131439804Y-52130865D01*
X131221193Y-52090000D01*
X130998807Y-52090000D01*
X130780195Y-52130865D01*
X130572824Y-52211200D01*
X130572823Y-52211201D01*
X130456671Y-52283119D01*
X128702313Y-52283119D01*
X128696562Y-52277876D01*
X128696560Y-52277874D01*
X128507404Y-52160754D01*
X128507398Y-52160752D01*
X128299940Y-52080382D01*
X128081243Y-52039500D01*
X127858757Y-52039500D01*
X127640060Y-52080382D01*
X127510995Y-52130382D01*
X127432601Y-52160752D01*
X127432595Y-52160754D01*
X127243439Y-52277874D01*
X127243437Y-52277876D01*
X127079020Y-52427761D01*
X126944943Y-52605308D01*
X126944938Y-52605316D01*
X126845775Y-52804461D01*
X126845769Y-52804476D01*
X126784885Y-53018462D01*
X126784884Y-53018464D01*
X126764357Y-53239999D01*
X125436413Y-53239999D01*
X125431599Y-53233124D01*
X125372931Y-53174456D01*
X125276877Y-53078402D01*
X125097639Y-52952898D01*
X125097640Y-52952898D01*
X125097638Y-52952897D01*
X124990414Y-52902898D01*
X124899330Y-52860425D01*
X124899326Y-52860424D01*
X124899322Y-52860422D01*
X124687977Y-52803793D01*
X124470002Y-52784723D01*
X124469998Y-52784723D01*
X124342151Y-52795908D01*
X124252023Y-52803793D01*
X124252020Y-52803793D01*
X124040677Y-52860422D01*
X124040668Y-52860426D01*
X123842361Y-52952898D01*
X123842357Y-52952900D01*
X123663121Y-53078402D01*
X123508402Y-53233121D01*
X123382900Y-53412357D01*
X123382898Y-53412361D01*
X123312382Y-53563583D01*
X123266209Y-53616022D01*
X123199016Y-53635174D01*
X123132135Y-53614958D01*
X123087618Y-53563583D01*
X123046184Y-53474729D01*
X123017102Y-53412362D01*
X123017100Y-53412359D01*
X123017099Y-53412357D01*
X122891599Y-53233124D01*
X122832931Y-53174456D01*
X122736877Y-53078402D01*
X122557639Y-52952898D01*
X122557640Y-52952898D01*
X122557638Y-52952897D01*
X122450414Y-52902898D01*
X122359330Y-52860425D01*
X122359326Y-52860424D01*
X122359322Y-52860422D01*
X122147977Y-52803793D01*
X121930002Y-52784723D01*
X121929998Y-52784723D01*
X121802151Y-52795908D01*
X121712023Y-52803793D01*
X121712020Y-52803793D01*
X121500677Y-52860422D01*
X121500668Y-52860426D01*
X121302361Y-52952898D01*
X121302357Y-52952900D01*
X121123121Y-53078402D01*
X120968402Y-53233121D01*
X120866074Y-53379262D01*
X120811497Y-53422887D01*
X120741999Y-53430081D01*
X120679644Y-53398558D01*
X120644230Y-53338328D01*
X120640499Y-53308139D01*
X120640499Y-53242129D01*
X120640498Y-53242123D01*
X120639530Y-53233121D01*
X120635123Y-53192116D01*
X120634091Y-53182516D01*
X120583797Y-53047671D01*
X120583793Y-53047664D01*
X120497547Y-52932455D01*
X120497544Y-52932452D01*
X120382335Y-52846206D01*
X120382328Y-52846202D01*
X120247482Y-52795908D01*
X120247483Y-52795908D01*
X120187883Y-52789501D01*
X120187881Y-52789500D01*
X120187873Y-52789500D01*
X120187864Y-52789500D01*
X118592129Y-52789500D01*
X118592123Y-52789501D01*
X118532515Y-52795909D01*
X118442832Y-52829358D01*
X118373141Y-52834342D01*
X118311818Y-52800856D01*
X118278333Y-52739533D01*
X118275500Y-52713176D01*
X118275500Y-47462498D01*
X119057018Y-47462498D01*
X119057018Y-47462501D01*
X119076922Y-47740799D01*
X119092261Y-47811308D01*
X119136229Y-48013423D01*
X119144762Y-48036300D01*
X119233731Y-48274838D01*
X119233733Y-48274842D01*
X119367440Y-48519707D01*
X119367445Y-48519715D01*
X119534638Y-48743060D01*
X119534654Y-48743078D01*
X119731921Y-48940345D01*
X119731939Y-48940361D01*
X119955284Y-49107554D01*
X119955292Y-49107559D01*
X120200157Y-49241266D01*
X120200161Y-49241268D01*
X120200163Y-49241269D01*
X120461577Y-49338771D01*
X120597891Y-49368424D01*
X120734200Y-49398077D01*
X120734202Y-49398077D01*
X120734206Y-49398078D01*
X120981514Y-49415765D01*
X121012499Y-49417982D01*
X121012500Y-49417982D01*
X121012501Y-49417982D01*
X121040381Y-49415987D01*
X121290794Y-49398078D01*
X121563423Y-49338771D01*
X121824837Y-49241269D01*
X122069713Y-49107556D01*
X122293068Y-48940355D01*
X122490355Y-48743068D01*
X122657556Y-48519713D01*
X122791269Y-48274837D01*
X122888771Y-48013423D01*
X122948078Y-47740794D01*
X122967982Y-47462500D01*
X122948078Y-47184206D01*
X122934915Y-47123699D01*
X122888772Y-46911583D01*
X122888771Y-46911577D01*
X122791269Y-46650163D01*
X122781425Y-46632135D01*
X126479500Y-46632135D01*
X126479500Y-48527870D01*
X126479501Y-48527876D01*
X126485908Y-48587483D01*
X126536202Y-48722328D01*
X126536206Y-48722335D01*
X126622452Y-48837544D01*
X126622455Y-48837547D01*
X126737664Y-48923793D01*
X126737671Y-48923797D01*
X126872517Y-48974091D01*
X126872516Y-48974091D01*
X126879444Y-48974835D01*
X126932127Y-48980500D01*
X128827872Y-48980499D01*
X128887483Y-48974091D01*
X129022331Y-48923796D01*
X129137546Y-48837546D01*
X129223796Y-48722331D01*
X129252455Y-48645493D01*
X129294326Y-48589559D01*
X129359790Y-48565141D01*
X129428063Y-48579992D01*
X129459866Y-48604843D01*
X129465046Y-48610469D01*
X129468215Y-48613912D01*
X129468222Y-48613918D01*
X129651365Y-48756464D01*
X129651371Y-48756468D01*
X129651374Y-48756470D01*
X129855497Y-48866936D01*
X129969487Y-48906068D01*
X130075015Y-48942297D01*
X130075017Y-48942297D01*
X130075019Y-48942298D01*
X130303951Y-48980500D01*
X130303952Y-48980500D01*
X130536048Y-48980500D01*
X130536049Y-48980500D01*
X130764981Y-48942298D01*
X130984503Y-48866936D01*
X131188626Y-48756470D01*
X131371784Y-48613913D01*
X131528979Y-48443153D01*
X131655924Y-48248849D01*
X131749157Y-48036300D01*
X131806134Y-47811305D01*
X131806135Y-47811297D01*
X131825300Y-47580006D01*
X131825300Y-47579993D01*
X133704700Y-47579993D01*
X133704700Y-47580006D01*
X133723864Y-47811297D01*
X133723866Y-47811308D01*
X133780842Y-48036300D01*
X133874075Y-48248848D01*
X134001016Y-48443147D01*
X134001019Y-48443151D01*
X134001021Y-48443153D01*
X134158216Y-48613913D01*
X134158219Y-48613915D01*
X134158222Y-48613918D01*
X134341365Y-48756464D01*
X134341371Y-48756468D01*
X134341374Y-48756470D01*
X134545497Y-48866936D01*
X134659487Y-48906068D01*
X134765015Y-48942297D01*
X134765017Y-48942297D01*
X134765019Y-48942298D01*
X134993951Y-48980500D01*
X134993952Y-48980500D01*
X135226048Y-48980500D01*
X135226049Y-48980500D01*
X135454981Y-48942298D01*
X135674503Y-48866936D01*
X135878626Y-48756470D01*
X136061784Y-48613913D01*
X136070130Y-48604846D01*
X136130010Y-48568854D01*
X136199849Y-48570949D01*
X136257468Y-48610469D01*
X136277544Y-48645491D01*
X136306203Y-48722330D01*
X136306206Y-48722335D01*
X136392452Y-48837544D01*
X136392455Y-48837547D01*
X136507664Y-48923793D01*
X136507671Y-48923797D01*
X136642517Y-48974091D01*
X136642516Y-48974091D01*
X136649444Y-48974835D01*
X136702127Y-48980500D01*
X138597872Y-48980499D01*
X138657483Y-48974091D01*
X138792331Y-48923796D01*
X138907546Y-48837546D01*
X138993796Y-48722331D01*
X139044091Y-48587483D01*
X139050500Y-48527873D01*
X139050499Y-47462498D01*
X143207018Y-47462498D01*
X143207018Y-47462501D01*
X143226922Y-47740799D01*
X143242261Y-47811308D01*
X143286229Y-48013423D01*
X143294762Y-48036300D01*
X143383731Y-48274838D01*
X143383733Y-48274842D01*
X143517440Y-48519707D01*
X143517445Y-48519715D01*
X143684638Y-48743060D01*
X143684654Y-48743078D01*
X143881921Y-48940345D01*
X143881939Y-48940361D01*
X144105284Y-49107554D01*
X144105292Y-49107559D01*
X144350157Y-49241266D01*
X144350161Y-49241268D01*
X144350163Y-49241269D01*
X144611577Y-49338771D01*
X144747891Y-49368424D01*
X144884200Y-49398077D01*
X144884202Y-49398077D01*
X144884206Y-49398078D01*
X145131514Y-49415765D01*
X145162499Y-49417982D01*
X145162500Y-49417982D01*
X145162501Y-49417982D01*
X145190381Y-49415987D01*
X145440794Y-49398078D01*
X145713423Y-49338771D01*
X145974837Y-49241269D01*
X146219713Y-49107556D01*
X146443068Y-48940355D01*
X146640355Y-48743068D01*
X146807556Y-48519713D01*
X146941269Y-48274837D01*
X147038771Y-48013423D01*
X147098078Y-47740794D01*
X147117982Y-47462500D01*
X147098078Y-47184206D01*
X147084915Y-47123699D01*
X147038772Y-46911583D01*
X147038771Y-46911577D01*
X146941269Y-46650163D01*
X146931418Y-46632123D01*
X146807559Y-46405292D01*
X146807554Y-46405284D01*
X146640361Y-46181939D01*
X146640345Y-46181921D01*
X146443078Y-45984654D01*
X146443060Y-45984638D01*
X146219715Y-45817445D01*
X146219707Y-45817440D01*
X145974842Y-45683733D01*
X145974838Y-45683731D01*
X145875730Y-45646766D01*
X145713423Y-45586229D01*
X145713419Y-45586228D01*
X145713416Y-45586227D01*
X145440799Y-45526922D01*
X145162501Y-45507018D01*
X145162499Y-45507018D01*
X144884200Y-45526922D01*
X144611583Y-45586227D01*
X144611578Y-45586228D01*
X144611577Y-45586229D01*
X144548375Y-45609801D01*
X144350161Y-45683731D01*
X144350157Y-45683733D01*
X144105292Y-45817440D01*
X144105284Y-45817445D01*
X143881939Y-45984638D01*
X143881921Y-45984654D01*
X143684654Y-46181921D01*
X143684638Y-46181939D01*
X143517445Y-46405284D01*
X143517440Y-46405292D01*
X143383733Y-46650157D01*
X143383731Y-46650161D01*
X143286227Y-46911583D01*
X143226922Y-47184200D01*
X143207018Y-47462498D01*
X139050499Y-47462498D01*
X139050499Y-46632128D01*
X139044091Y-46572517D01*
X139035514Y-46549522D01*
X138993797Y-46437671D01*
X138993793Y-46437664D01*
X138907547Y-46322455D01*
X138907544Y-46322452D01*
X138792335Y-46236206D01*
X138792328Y-46236202D01*
X138657482Y-46185908D01*
X138657483Y-46185908D01*
X138597883Y-46179501D01*
X138597881Y-46179500D01*
X138597873Y-46179500D01*
X138597864Y-46179500D01*
X136702129Y-46179500D01*
X136702123Y-46179501D01*
X136642516Y-46185908D01*
X136507671Y-46236202D01*
X136507664Y-46236206D01*
X136392455Y-46322452D01*
X136392452Y-46322455D01*
X136306206Y-46437664D01*
X136306203Y-46437670D01*
X136277544Y-46514508D01*
X136235672Y-46570441D01*
X136170208Y-46594858D01*
X136101935Y-46580006D01*
X136070135Y-46555158D01*
X136061784Y-46546087D01*
X136061778Y-46546082D01*
X136061777Y-46546081D01*
X135878634Y-46403535D01*
X135878628Y-46403531D01*
X135674504Y-46293064D01*
X135674495Y-46293061D01*
X135454984Y-46217702D01*
X135264450Y-46185908D01*
X135226049Y-46179500D01*
X134993951Y-46179500D01*
X134955550Y-46185908D01*
X134765015Y-46217702D01*
X134545504Y-46293061D01*
X134545495Y-46293064D01*
X134341371Y-46403531D01*
X134341365Y-46403535D01*
X134158222Y-46546081D01*
X134158219Y-46546084D01*
X134158216Y-46546086D01*
X134158216Y-46546087D01*
X134118669Y-46589047D01*
X134001016Y-46716852D01*
X133874075Y-46911151D01*
X133780842Y-47123699D01*
X133723866Y-47348691D01*
X133723864Y-47348702D01*
X133704700Y-47579993D01*
X131825300Y-47579993D01*
X131806135Y-47348702D01*
X131806133Y-47348691D01*
X131749157Y-47123699D01*
X131655924Y-46911151D01*
X131528983Y-46716852D01*
X131528980Y-46716849D01*
X131528979Y-46716847D01*
X131371784Y-46546087D01*
X131371779Y-46546083D01*
X131371777Y-46546081D01*
X131188634Y-46403535D01*
X131188628Y-46403531D01*
X130984504Y-46293064D01*
X130984495Y-46293061D01*
X130764984Y-46217702D01*
X130574450Y-46185908D01*
X130536049Y-46179500D01*
X130303951Y-46179500D01*
X130265550Y-46185908D01*
X130075015Y-46217702D01*
X129855504Y-46293061D01*
X129855495Y-46293064D01*
X129651371Y-46403531D01*
X129651365Y-46403535D01*
X129468222Y-46546081D01*
X129468218Y-46546085D01*
X129468216Y-46546086D01*
X129468216Y-46546087D01*
X129459870Y-46555154D01*
X129459866Y-46555158D01*
X129399979Y-46591148D01*
X129330141Y-46589047D01*
X129272525Y-46549522D01*
X129252455Y-46514507D01*
X129223797Y-46437671D01*
X129223793Y-46437664D01*
X129137547Y-46322455D01*
X129137544Y-46322452D01*
X129022335Y-46236206D01*
X129022328Y-46236202D01*
X128887482Y-46185908D01*
X128887483Y-46185908D01*
X128827883Y-46179501D01*
X128827881Y-46179500D01*
X128827873Y-46179500D01*
X128827864Y-46179500D01*
X126932129Y-46179500D01*
X126932123Y-46179501D01*
X126872516Y-46185908D01*
X126737671Y-46236202D01*
X126737664Y-46236206D01*
X126622455Y-46322452D01*
X126622452Y-46322455D01*
X126536206Y-46437664D01*
X126536202Y-46437671D01*
X126485908Y-46572517D01*
X126479501Y-46632116D01*
X126479501Y-46632123D01*
X126479500Y-46632135D01*
X122781425Y-46632135D01*
X122781418Y-46632123D01*
X122657559Y-46405292D01*
X122657554Y-46405284D01*
X122490361Y-46181939D01*
X122490345Y-46181921D01*
X122293078Y-45984654D01*
X122293060Y-45984638D01*
X122069715Y-45817445D01*
X122069707Y-45817440D01*
X121824842Y-45683733D01*
X121824838Y-45683731D01*
X121725730Y-45646766D01*
X121563423Y-45586229D01*
X121563419Y-45586228D01*
X121563416Y-45586227D01*
X121290799Y-45526922D01*
X121012501Y-45507018D01*
X121012499Y-45507018D01*
X120734200Y-45526922D01*
X120461583Y-45586227D01*
X120461578Y-45586228D01*
X120461577Y-45586229D01*
X120398375Y-45609801D01*
X120200161Y-45683731D01*
X120200157Y-45683733D01*
X119955292Y-45817440D01*
X119955284Y-45817445D01*
X119731939Y-45984638D01*
X119731921Y-45984654D01*
X119534654Y-46181921D01*
X119534638Y-46181939D01*
X119367445Y-46405284D01*
X119367440Y-46405292D01*
X119233733Y-46650157D01*
X119233731Y-46650161D01*
X119136227Y-46911583D01*
X119076922Y-47184200D01*
X119057018Y-47462498D01*
X118275500Y-47462498D01*
X118275500Y-44849500D01*
X118295185Y-44782461D01*
X118347989Y-44736706D01*
X118399500Y-44725500D01*
X147775500Y-44725500D01*
X147842539Y-44745185D01*
G37*
%TD.AperFunction*%
%TD*%
M02*
